<?xml version="1.0" encoding="UTF-8" standalone="yes"?>
<svg xmlns="http://www.w3.org/2000/svg" xmlns:xlink="http://www.w3.org/1999/xlink" width="931.423pt" height="1290.825pt" version="1.1" viewBox="2719.117 2107.156 931.423 1290.825">
  <!--
	Exported with Concepts: Smarter Sketching
	Version: 1059 on iOS 15.4
	https://concepts.app/
	-->
  <title>Untitled 1</title>
  <desc>Drawing exported from Concepts: Smarter Sketching</desc>
  <defs></defs>
  <g id="New_Layer_8" opacity="1.000">
    <path id="STROKE_3d800d61-ef2f-410d-9997-8fee79c9f747" opacity="1.000" fill="none" stroke="#f3ba38" stroke-width="3.162" stroke-opacity="1.000" stroke-linecap="round" stroke-linejoin="round" d="M 2938.543 2196.757 Q 2933.841 2192.612 2934.668 2193.467 Q 2935.496 2194.321 2934.797 2194.261 Q 2934.447 2194.238 2932.537 2199.229 Q 2930.627 2204.221 2929.187 2208.377 Q 2927.747 2212.533 2926.161 2219.273 Q 2924.576 2226.014 2924.009 2230.821 Q 2923.443 2235.627 2923.766 2239.128 Q 2924.089 2242.630 2925.121 2244.327 Q 2926.154 2246.025 2926.836 2246.922 Q 2927.519 2247.819 2928.620 2248.638 Q 2929.721 2249.457 2932.153 2249.694 Q 2934.585 2249.930 2936.257 2250.087 Q 2937.928 2250.243 2959.250 2226.831 Q 2956.884 2226.489 2957.602 2226.553 Q 2955.968 2225.997 2956.074 2226.069 Q 2955.550 2225.870 2950.964 2225.342 Q 2946.377 2224.813 2940.588 2226.334 Q 2940.589 2226.502 2940.486 2226.695 Q 2940.384 2226.888 2940.179 2227.223 "></path>
    <path id="STROKE_4766f2d4-212b-4f3a-b993-46022bd85d4e" opacity="1.000" fill="none" stroke="#f3ba38" stroke-width="3.230" stroke-opacity="1.000" stroke-linecap="round" stroke-linejoin="round" d="M 2969.312 2242.306 Q 2967.631 2242.311 2967.735 2242.311 Q 2965.654 2242.286 2966.362 2242.264 Q 2965.700 2241.098 2965.897 2234.063 Q 2966.093 2227.029 2966.313 2225.833 "></path>
    <path id="STROKE_c06a4776-eaf0-4ed7-955d-38f43531a81b" opacity="1.000" fill="none" stroke="#f3ba38" stroke-width="3.230" stroke-opacity="1.000" stroke-linecap="round" stroke-linejoin="round" d="M 2966.602 2207.806 Q 2966.234 2207.490 2963.867 2211.029 Q 2963.581 2211.207 2964.762 2211.231 Q 2965.943 2211.254 2966.714 2211.303 "></path>
    <path id="STROKE_35174c96-2fda-41d4-a13e-ebabac3f8b2b" opacity="1.000" fill="none" stroke="#f3ba38" stroke-width="3.230" stroke-opacity="1.000" stroke-linecap="round" stroke-linejoin="round" d="M 2979.240 2212.782 Q 2978.885 2213.637 2979.062 2220.729 Q 2979.239 2227.822 2980.065 2232.690 Q 2980.891 2237.559 2982.366 2241.890 Q 2983.841 2246.222 2985.606 2248.509 Q 2987.371 2250.796 2988.946 2251.060 Q 2990.522 2251.324 2992.391 2247.998 Q 2994.260 2244.671 2998.471 2231.179 Q 3002.683 2217.688 3003.126 2216.979 "></path>
    <path id="STROKE_411f4ee6-6fa3-4abe-9e3a-5128d2d3c9b9" opacity="1.000" fill="none" stroke="#f3ba38" stroke-width="3.230" stroke-opacity="1.000" stroke-linecap="round" stroke-linejoin="round" d="M 3012.972 2228.520 Q 3013.594 2227.894 3018.669 2226.579 Q 3023.745 2225.264 3028.422 2222.375 Q 3033.099 2219.487 3035.749 2217.952 Q 3038.399 2216.417 3039.982 2210.812 Q 3039.712 2210.413 3035.438 2209.620 Q 3031.164 2208.827 3027.841 2210.595 Q 3024.519 2212.362 3021.021 2216.220 Q 3017.523 2220.079 3015.289 2224.996 Q 3013.055 2229.912 3012.631 2234.779 Q 3012.208 2239.646 3012.478 2242.651 Q 3012.748 2245.656 3015.720 2247.066 Q 3018.693 2248.476 3021.177 2248.037 Q 3023.661 2247.597 3027.274 2244.645 Q 3030.888 2241.692 3033.891 2237.526 Q 3036.894 2233.360 3037.816 2232.046 "></path>
    <path id="STROKE_a23265dd-86c9-49ee-8720-50a2aaf10882" opacity="1.000" fill="none" stroke="#f3ba38" stroke-width="3.230" stroke-opacity="1.000" stroke-linecap="round" stroke-linejoin="round" d="M 3046.257 2209.958 Q 3045.987 2210.625 3045.725 2211.251 Q 3045.464 2211.877 3045.328 2212.605 Q 3045.192 2213.333 3045.034 2213.714 Q 3044.875 2214.095 3044.140 2220.874 Q 3043.404 2227.653 3043.131 2233.295 Q 3042.858 2238.937 3044.882 2243.390 Q 3045.011 2245.784 3050.187 2235.761 Q 3055.363 2225.737 3058.588 2219.693 Q 3061.814 2213.648 3063.945 2209.973 Q 3066.076 2206.299 3070.594 2204.665 Q 3071.326 2202.860 3073.567 2212.244 Q 3075.808 2221.628 3076.220 2228.655 Q 3076.633 2235.681 3076.550 2245.918 Q 3076.353 2244.665 3077.010 2242.693 Q 3077.667 2240.720 3078.041 2239.896 "></path>
    <path id="STROKE_3bcd6994-8dc2-4ef9-8a3c-c8538ef624af" opacity="1.000" fill="none" stroke="#58f45e" stroke-width="3.400" stroke-opacity="1.000" stroke-linecap="round" stroke-linejoin="round" d="M 3121.796 2189.983 Q 3121.770 2191.160 3122.010 2186.639 Q 3119.730 2187.104 3126.444 2185.710 Q 3133.157 2184.317 3138.330 2183.917 Q 3143.503 2183.518 3146.359 2183.877 Q 3149.214 2184.235 3150.848 2185.007 Q 3152.482 2185.779 3153.407 2186.706 Q 3154.333 2187.634 3154.959 2189.738 Q 3155.585 2191.842 3150.940 2195.810 Q 3146.294 2199.779 3129.293 2207.420 Q 3129.948 2207.321 3133.988 2206.871 Q 3138.028 2206.421 3141.096 2207.383 Q 3144.164 2208.344 3148.245 2211.462 Q 3152.326 2214.580 3154.875 2217.276 Q 3157.423 2219.973 3158.729 2222.217 Q 3160.035 2224.460 3160.650 2227.090 Q 3161.266 2229.719 3160.893 2231.932 Q 3160.520 2234.144 3155.813 2236.809 Q 3151.107 2239.474 3148.477 2241.052 Q 3145.848 2242.630 3141.933 2243.503 Q 3138.018 2244.376 3135.630 2244.015 Q 3133.243 2243.655 3132.833 2243.239 Q 3132.423 2242.824 3131.632 2241.685 Q 3130.840 2240.546 3131.108 2240.662 Q 3133.838 2240.437 3133.545 2240.411 Q 3133.251 2240.385 3133.748 2240.165 "></path>
    <path id="STROKE_1f2ee39f-e573-450b-a28a-708ef6a68022" opacity="1.000" fill="none" stroke="#6ac0c8" stroke-width="3.360" stroke-opacity="1.000" stroke-linecap="round" stroke-linejoin="round" d="M 3178.159 2191.664 Q 3177.941 2191.533 3177.151 2186.962 Q 3178.800 2187.948 3177.895 2206.240 Q 3176.989 2224.531 3176.699 2240.885 Q 3176.410 2257.239 3176.473 2266.912 Q 3176.536 2276.585 3177.701 2289.944 Q 3177.760 2287.420 3177.671 2288.151 Q 3177.583 2288.882 3177.712 2282.908 Q 3177.841 2276.934 3178.160 2273.415 Q 3178.479 2269.896 3178.373 2258.753 Q 3178.267 2247.611 3178.357 2234.723 Q 3178.447 2221.836 3178.657 2214.294 Q 3178.868 2206.752 3179.464 2201.303 Q 3180.060 2195.853 3181.636 2191.759 Q 3183.213 2187.664 3184.170 2185.631 Q 3185.127 2183.598 3186.414 2182.892 Q 3187.700 2182.186 3188.455 2182.166 Q 3189.209 2182.145 3190.311 2182.313 Q 3191.412 2182.481 3192.459 2182.860 Q 3193.507 2183.240 3196.199 2184.473 Q 3198.891 2185.707 3202.066 2189.355 Q 3205.241 2193.004 3207.452 2197.643 Q 3209.664 2202.281 3210.569 2207.658 Q 3211.474 2213.035 3211.430 2216.348 Q 3211.387 2219.660 3210.617 2223.873 Q 3209.846 2228.085 3205.023 2231.311 Q 3200.200 2234.536 3195.365 2236.200 Q 3190.529 2237.864 3187.637 2238.920 Q 3184.746 2239.976 3180.417 2240.565 Q 3180.583 2237.793 3180.788 2238.455 Q 3181.710 2237.411 3182.309 2236.753 "></path>
    <path id="STROKE_583d298e-0d07-4dfd-896c-c90d650e50bc" opacity="1.000" fill="none" stroke="#f45e58" stroke-width="3.060" stroke-opacity="1.000" stroke-linecap="round" stroke-linejoin="round" d="M 3208.915 2130.322 Q 3208.769 2129.837 3208.489 2128.176 Q 3208.208 2126.515 3208.312 2125.901 Q 3208.417 2125.287 3211.240 2124.037 Q 3214.062 2122.787 3216.739 2122.474 Q 3219.415 2122.162 3221.611 2122.960 Q 3223.807 2123.759 3225.648 2125.188 Q 3227.490 2126.617 3228.820 2132.213 Q 3230.150 2137.809 3230.259 2141.204 Q 3230.368 2144.599 3230.546 2146.318 Q 3230.723 2148.036 3229.378 2151.832 Q 3228.034 2155.629 3225.890 2158.343 Q 3223.746 2161.057 3220.641 2162.739 Q 3217.537 2164.422 3214.996 2164.639 Q 3212.455 2164.857 3210.085 2164.240 Q 3207.714 2163.623 3207.139 2160.538 Q 3206.563 2157.453 3207.304 2153.908 Q 3208.046 2150.362 3209.775 2147.988 Q 3211.505 2145.614 3214.979 2145.108 Q 3218.452 2144.602 3223.618 2144.455 Q 3228.784 2144.307 3231.314 2144.465 Q 3233.845 2144.624 3235.529 2145.590 Q 3237.213 2146.557 3238.034 2147.149 Q 3238.854 2147.742 3242.586 2148.483 Q 3246.317 2149.225 3248.620 2149.154 Q 3250.922 2149.082 3251.470 2148.759 "></path>
    <path id="STROKE_bf2bfcf5-2388-40e6-b5d0-b0db7ef78003" opacity="1.000" fill="none" stroke="#58f45e" stroke-width="3.356" stroke-opacity="1.000" stroke-linecap="round" stroke-linejoin="round" d="M 2850.113 2477.663 Q 2849.642 2476.150 2849.755 2476.647 Q 2848.622 2474.957 2849.020 2475.516 Q 2848.575 2474.091 2848.552 2474.012 Q 2848.530 2473.933 2848.570 2473.931 Q 2848.530 2473.802 2848.373 2472.992 Q 2848.215 2472.181 2848.245 2472.288 Q 2848.274 2472.396 2848.296 2472.808 Q 2848.318 2473.219 2848.026 2469.743 Q 2848.235 2470.917 2848.114 2483.218 Q 2847.993 2495.519 2849.887 2513.530 Q 2849.985 2513.529 2850.260 2513.524 Q 2850.408 2511.667 2850.640 2510.814 Q 2850.871 2509.962 2851.310 2508.583 Q 2851.749 2507.204 2852.375 2504.763 Q 2853.000 2502.322 2854.957 2494.983 Q 2856.914 2487.645 2858.204 2483.458 Q 2859.494 2479.271 2861.902 2475.604 Q 2864.310 2471.937 2866.362 2470.407 Q 2868.413 2468.878 2870.892 2468.542 Q 2873.370 2468.207 2875.427 2470.099 Q 2877.483 2471.991 2879.471 2473.118 Q 2881.459 2474.244 2883.113 2482.437 Q 2884.766 2490.629 2886.050 2503.694 Q 2886.098 2503.693 2886.497 2502.852 Q 2886.896 2502.012 2887.242 2501.385 "></path>
    <path id="STROKE_3fcb60b6-42d3-400b-8c5f-09ad34bb978a" opacity="1.000" fill="none" stroke="#58f45e" stroke-width="3.400" stroke-opacity="1.000" stroke-linecap="round" stroke-linejoin="round" d="M 2905.765 2475.145 Q 2905.765 2475.145 2905.765 2475.115 Q 2905.764 2475.084 2905.755 2474.562 Q 2906.089 2474.163 2916.191 2474.876 Q 2926.294 2475.590 2932.053 2476.137 Q 2937.812 2476.683 2938.480 2476.830 "></path>
    <path id="STROKE_f07cc9f9-c605-47d8-a67c-284d99c07f23" opacity="1.000" fill="none" stroke="#58f45e" stroke-width="3.400" stroke-opacity="1.000" stroke-linecap="round" stroke-linejoin="round" d="M 2916.548 2495.708 Q 2918.653 2495.663 2918.445 2495.626 Q 2919.846 2495.335 2928.590 2494.431 Q 2937.333 2493.527 2944.390 2494.802 Q 2951.446 2496.077 2952.850 2496.527 "></path>
    <path id="STROKE_e7f97091-c5cf-44c8-8e86-9f52030aae77" opacity="1.000" fill="none" stroke="#58f45e" stroke-width="3.400" stroke-opacity="1.000" stroke-linecap="round" stroke-linejoin="round" d="M 2972.601 2458.975 Q 2972.009 2457.675 2972.026 2457.672 Q 2972.043 2457.669 2972.042 2457.681 Q 2972.041 2457.693 2972.000 2457.558 Q 2971.959 2457.423 2972.031 2456.138 Q 2971.970 2455.524 2980.781 2456.572 Q 2989.593 2457.619 2994.431 2458.341 Q 2999.269 2459.062 3001.352 2459.741 Q 3003.434 2460.421 3004.076 2460.959 Q 3004.717 2461.498 3005.047 2461.794 Q 3005.376 2462.090 3005.336 2463.049 Q 3005.297 2464.007 3004.320 2465.204 Q 3003.343 2466.401 2997.449 2469.989 Q 2991.554 2473.577 2986.545 2475.698 Q 2981.535 2477.820 2977.728 2480.941 Q 2977.018 2481.218 2979.037 2481.633 Q 2981.056 2482.049 2985.655 2482.045 Q 2990.253 2482.042 2993.513 2482.655 Q 2996.773 2483.267 2999.214 2484.638 Q 3001.655 2486.009 3002.931 2488.339 Q 3004.207 2490.669 3004.766 2494.333 Q 3005.324 2497.998 3003.373 2502.200 Q 3001.422 2506.403 2997.107 2510.863 Q 2992.793 2515.324 2983.520 2519.366 Q 2983.244 2519.018 2982.623 2515.745 Q 2982.002 2512.471 2981.879 2511.902 "></path>
    <path id="STROKE_df23916e-73dd-48e5-a2b6-934b98779be1" opacity="1.000" fill="none" stroke="#f3ba38" stroke-width="1.259" stroke-opacity="1.000" stroke-linecap="round" stroke-linejoin="round" d="M 3145.667 2256.844 Q 3145.087 2257.121 3144.210 2258.148 Q 3143.332 2259.176 3143.501 2258.929 Q 3143.670 2258.682 3143.364 2258.904 Q 3143.058 2259.125 3143.280 2268.984 Q 3143.503 2278.844 3143.528 2284.579 Q 3143.553 2290.315 3143.537 2299.757 Q 3143.521 2309.199 3143.820 2318.242 Q 3144.120 2327.284 3143.118 2336.956 Q 3142.117 2346.628 3140.618 2355.891 Q 3139.120 2365.154 3138.708 2372.125 Q 3138.297 2379.095 3137.928 2392.365 Q 3137.559 2405.634 3137.102 2413.105 Q 3136.645 2420.576 3136.472 2430.073 Q 3136.300 2439.569 3136.487 2445.521 Q 3136.675 2451.473 3137.340 2456.376 Q 3138.005 2461.280 3138.081 2464.510 Q 3138.156 2467.741 3137.305 2474.101 Q 3136.455 2480.460 3136.407 2491.097 Q 3136.459 2491.097 3136.510 2491.097 Q 3136.523 2491.040 3136.467 2491.109 Q 3136.410 2491.177 3136.970 2489.599 Q 3137.530 2488.021 3137.854 2487.467 "></path>
    <path id="STROKE_98eb4e12-f84a-4009-826c-0a31ea6bcf93" opacity="1.000" fill="none" stroke="#f3ba38" stroke-width="1.392" stroke-opacity="1.000" stroke-linecap="round" stroke-linejoin="round" d="M 3136.358 2491.970 Q 3134.879 2492.239 3135.090 2492.232 Q 3135.065 2492.699 3124.996 2492.015 Q 3114.926 2491.331 3105.333 2491.048 Q 3095.740 2490.764 3090.152 2491.253 Q 3084.564 2491.742 3074.614 2491.604 Q 3074.333 2491.049 3073.890 2490.180 Q 3073.653 2490.057 3074.707 2490.444 Q 3075.761 2490.830 3076.190 2491.150 "></path>
    <path id="STROKE_261422ac-8e02-4b3b-a26c-6f610d894632" opacity="1.000" fill="none" stroke="#f3ba38" stroke-width="1.321" stroke-opacity="1.000" stroke-linecap="round" stroke-linejoin="round" d="M 3076.884 2470.628 Q 3076.728 2469.810 3076.307 2468.734 Q 3075.885 2467.658 3075.773 2466.260 Q 3076.042 2466.973 3076.686 2476.102 Q 3077.330 2485.232 3074.200 2513.552 Q 3074.383 2512.723 3074.354 2511.900 Q 3074.325 2511.078 3074.123 2510.722 Q 3073.920 2510.365 3073.354 2509.736 Q 3072.787 2509.106 3072.660 2509.130 Q 3072.532 2509.155 3072.531 2509.252 Q 3072.529 2509.350 3072.575 2508.823 Q 3072.621 2508.295 3064.831 2507.441 Q 3057.041 2506.587 3053.426 2507.107 Q 3049.811 2507.626 3047.531 2507.017 Q 3045.252 2506.407 3044.253 2505.640 Q 3043.253 2504.873 3042.953 2504.495 Q 3042.653 2504.117 3042.778 2504.240 Q 3042.902 2504.364 3042.831 2504.368 Q 3042.760 2504.372 3042.744 2503.998 Q 3042.728 2503.624 3043.261 2502.512 Q 3044.535 2502.530 3044.410 2502.457 Q 3047.130 2500.858 3046.259 2501.307 Q 3046.751 2501.254 3052.947 2494.404 Q 3059.142 2487.553 3072.626 2469.432 Q 3072.903 2468.897 3071.530 2470.982 Q 3070.157 2473.068 3068.884 2475.629 Q 3067.611 2478.190 3067.338 2478.629 "></path>
    <path id="STROKE_b5376790-4827-421e-b618-8586c626a0cd" opacity="1.000" fill="none" stroke="#f3ba38" stroke-width="1.274" stroke-opacity="1.000" stroke-linecap="round" stroke-linejoin="round" d="M 3071.032 2475.223 Q 3070.840 2475.109 3071.435 2472.290 Q 3071.197 2471.333 3050.737 2501.949 Q 3051.943 2502.001 3073.748 2477.400 Q 3074.085 2477.270 3066.198 2484.177 Q 3058.311 2491.084 3050.196 2504.548 Q 3050.692 2505.481 3054.536 2501.486 Q 3058.379 2497.490 3062.726 2492.827 Q 3067.073 2488.165 3072.447 2478.124 Q 3072.125 2476.720 3063.366 2485.838 Q 3054.607 2494.955 3047.912 2509.363 Q 3049.283 2510.101 3056.118 2501.907 Q 3062.952 2493.713 3072.021 2484.631 Q 3073.001 2484.638 3070.229 2488.547 Q 3067.457 2492.456 3064.504 2496.026 Q 3061.552 2499.596 3057.717 2507.277 Q 3058.616 2507.995 3075.636 2489.300 Q 3076.913 2486.887 3065.781 2508.332 Q 3065.687 2508.731 3073.871 2501.108 Q 3074.322 2502.114 3073.642 2510.597 Q 3074.652 2509.282 3074.565 2509.450 Q 3074.941 2509.063 3075.266 2508.766 Q 3075.591 2508.469 3076.036 2508.095 "></path>
    <path id="STROKE_e08f8527-febd-45bc-af71-da8ace3e457b" opacity="1.000" fill="none" stroke="#6ac0c8" stroke-width="3.365" stroke-opacity="1.000" stroke-linecap="round" stroke-linejoin="round" d="M 2834.615 2642.996 Q 2833.967 2643.022 2832.750 2644.750 Q 2831.533 2646.478 2831.436 2647.752 Q 2831.338 2649.026 2831.569 2649.968 Q 2831.799 2650.909 2832.750 2651.428 Q 2833.702 2651.947 2834.241 2651.813 Q 2834.780 2651.680 2835.346 2651.587 Q 2835.912 2651.494 2836.576 2651.765 Q 2837.240 2652.036 2844.603 2646.914 Q 2851.967 2641.792 2856.851 2637.274 Q 2861.734 2632.756 2866.262 2627.659 Q 2870.790 2622.563 2874.216 2617.049 Q 2877.642 2611.536 2879.909 2604.652 Q 2882.176 2597.767 2882.832 2593.158 Q 2883.487 2588.550 2883.572 2583.835 Q 2883.657 2579.121 2883.620 2575.874 Q 2883.583 2572.626 2883.016 2571.434 Q 2882.448 2570.241 2881.454 2569.150 Q 2880.459 2568.059 2879.810 2568.002 Q 2879.161 2567.945 2878.805 2568.235 Q 2878.450 2568.526 2877.849 2569.392 Q 2877.248 2570.258 2875.760 2572.466 Q 2874.271 2574.674 2870.831 2581.914 Q 2867.390 2589.154 2865.316 2597.397 Q 2863.242 2605.640 2863.050 2613.610 Q 2862.857 2621.580 2863.348 2626.505 Q 2863.839 2631.430 2865.275 2635.127 Q 2866.712 2638.825 2868.855 2641.664 Q 2870.998 2644.503 2880.006 2643.211 Q 2889.015 2641.919 2889.666 2641.751 "></path>
    <path id="STROKE_ddda5a15-44eb-4ac9-8570-5ac3621c62c4" opacity="1.000" fill="none" stroke="#6ac0c8" stroke-width="3.353" stroke-opacity="1.000" stroke-linecap="round" stroke-linejoin="round" d="M 2910.560 2597.691 Q 2910.088 2597.713 2909.019 2598.185 Q 2910.648 2598.993 2934.715 2600.037 Q 2958.782 2601.082 2960.035 2601.348 "></path>
    <path id="STROKE_8e1d5c35-3979-434b-ae5b-1cbfb8ad1d1d" opacity="1.000" fill="none" stroke="#6ac0c8" stroke-width="3.400" stroke-opacity="1.000" stroke-linecap="round" stroke-linejoin="round" d="M 2913.440 2619.951 Q 2915.512 2619.945 2915.104 2619.946 Q 2917.439 2620.070 2917.059 2620.094 Q 2915.962 2620.268 2928.543 2621.018 Q 2941.124 2621.767 2948.597 2622.569 Q 2956.070 2623.371 2957.804 2623.752 "></path>
    <path id="STROKE_cf6a7f24-35cd-4049-abea-8b1b5203479c" opacity="1.000" fill="none" stroke="#6ac0c8" stroke-width="3.380" stroke-opacity="1.000" stroke-linecap="round" stroke-linejoin="round" d="M 2981.491 2595.935 Q 2979.272 2594.757 3011.585 2565.811 Q 3013.199 2566.616 3011.503 2577.257 Q 3009.807 2587.897 3007.558 2603.282 Q 3005.309 2618.667 3004.787 2626.841 Q 3004.265 2635.016 3004.043 2635.518 "></path>
    <path id="STROKE_579faa0e-cfbf-4e23-af0e-f19304cb121e" opacity="1.000" fill="none" stroke="#6ac0c8" stroke-width="3.400" stroke-opacity="1.000" stroke-linecap="round" stroke-linejoin="round" d="M 2975.330 2645.967 Q 2975.366 2646.727 2984.612 2645.120 Q 2993.857 2643.512 3003.074 2643.691 Q 3012.291 2643.869 3021.049 2645.961 Q 3029.808 2648.052 3031.112 2648.319 "></path>
    <path id="STROKE_6408bd7d-90c0-47a2-b738-d1dfcbaea0fa" opacity="1.000" fill="none" stroke="#f3ba38" stroke-width="1.153" stroke-opacity="1.000" stroke-linecap="round" stroke-linejoin="round" d="M 3195.502 2266.619 Q 3195.502 2266.567 3195.500 2266.181 Q 3198.107 2266.583 3198.394 2298.032 Q 3198.681 2329.482 3198.721 2346.306 Q 3198.761 2363.131 3198.354 2370.573 Q 3197.948 2378.016 3197.118 2389.485 Q 3196.287 2400.954 3195.562 2409.311 Q 3194.838 2417.669 3195.024 2430.182 Q 3195.211 2442.696 3194.306 2453.690 Q 3193.401 2464.684 3192.956 2473.928 Q 3192.511 2483.172 3192.481 2493.736 Q 3192.451 2504.300 3192.113 2516.880 Q 3191.775 2529.460 3191.953 2536.778 Q 3192.130 2544.095 3192.078 2548.206 Q 3192.025 2552.316 3191.996 2563.788 Q 3191.967 2575.260 3192.278 2583.180 Q 3192.588 2591.099 3192.950 2595.098 Q 3193.312 2599.096 3193.630 2601.007 Q 3193.948 2602.917 3193.904 2603.997 Q 3193.859 2605.076 3193.869 2605.614 Q 3193.878 2606.151 3193.883 2606.327 Q 3193.684 2606.846 3194.059 2604.156 Q 3194.435 2601.466 3194.758 2600.641 "></path>
    <path id="STROKE_82dfad21-78ba-41ab-b61a-ba6539e4075d" opacity="1.000" fill="none" stroke="#f3ba38" stroke-width="1.253" stroke-opacity="1.000" stroke-linecap="round" stroke-linejoin="round" d="M 3190.721 2604.151 Q 3191.632 2601.847 3191.266 2602.735 Q 3191.510 2602.565 3176.793 2602.845 Q 3162.077 2603.125 3152.589 2603.201 Q 3143.102 2603.277 3136.094 2602.714 Q 3129.085 2602.151 3121.297 2601.915 Q 3113.508 2601.678 3103.218 2604.311 Q 3104.207 2604.313 3103.737 2604.328 Q 3103.266 2604.343 3105.917 2604.261 Q 3108.569 2604.179 3109.426 2604.061 "></path>
    <path id="STROKE_969f2125-1a42-412d-944b-a228aca8b4a5" opacity="1.000" fill="none" stroke="#f3ba38" stroke-width="1.317" stroke-opacity="1.000" stroke-linecap="round" stroke-linejoin="round" d="M 3102.589 2577.674 Q 3103.221 2575.690 3104.671 2574.068 Q 3104.851 2575.860 3103.887 2627.014 L 3103.938 2627.014 Q 3103.959 2625.290 3103.915 2625.927 Q 3103.871 2626.563 3104.065 2623.517 Q 3104.601 2626.220 3094.016 2625.595 Q 3083.432 2624.970 3074.981 2623.853 Q 3066.530 2622.736 3051.867 2626.529 Q 3051.771 2626.973 3052.094 2625.492 Q 3052.417 2624.012 3052.985 2623.143 Q 3053.553 2622.274 3054.583 2622.078 Q 3055.613 2621.882 3057.001 2621.767 Q 3058.388 2621.652 3058.718 2621.390 Q 3059.048 2621.129 3059.776 2620.756 Q 3060.504 2620.383 3061.063 2620.060 Q 3061.622 2619.736 3062.161 2619.292 Q 3062.700 2618.849 3062.941 2619.067 Q 3063.183 2619.285 3072.890 2607.613 Q 3082.596 2595.941 3087.558 2589.690 Q 3092.521 2583.439 3094.427 2580.931 Q 3096.333 2578.423 3098.862 2576.431 Q 3101.392 2574.439 3103.912 2572.759 Q 3104.262 2572.652 3103.335 2575.607 Q 3102.409 2578.563 3101.400 2580.385 Q 3100.390 2582.206 3099.896 2582.928 "></path>
    <path id="STROKE_5a721a32-a004-4ae0-a5a9-ceecafdc2326" opacity="1.000" fill="none" stroke="#f3ba38" stroke-width="1.269" stroke-opacity="1.000" stroke-linecap="round" stroke-linejoin="round" d="M 3094.031 2594.850 Q 3094.031 2594.850 3094.080 2594.799 Q 3094.128 2594.748 3091.412 2597.679 Q 3088.696 2600.610 3085.159 2603.901 Q 3081.622 2607.193 3078.854 2608.887 Q 3076.087 2610.582 3075.894 2610.671 Q 3075.700 2610.760 3074.113 2611.553 Q 3072.526 2612.346 3070.191 2613.219 Q 3067.856 2614.093 3066.808 2615.587 Q 3065.761 2617.082 3066.337 2619.156 Q 3068.896 2619.323 3068.190 2619.254 Q 3070.354 2618.303 3076.085 2610.572 Q 3081.815 2602.840 3085.552 2592.794 Q 3084.305 2592.515 3079.388 2602.369 Q 3074.472 2612.222 3072.839 2625.321 Q 3072.615 2626.163 3075.397 2624.932 Q 3078.179 2623.701 3082.167 2616.765 Q 3086.156 2609.828 3095.987 2583.685 Q 3096.806 2583.652 3084.413 2613.111 Q 3085.387 2613.516 3090.274 2605.464 Q 3095.162 2597.411 3097.717 2590.548 Q 3100.272 2583.685 3101.622 2575.594 Q 3101.197 2575.627 3098.869 2583.028 Q 3096.541 2590.429 3095.448 2594.914 Q 3094.355 2599.398 3093.527 2601.925 Q 3092.699 2604.452 3089.892 2621.271 Q 3090.661 2623.141 3100.326 2594.934 L 3100.377 2594.934 Q 3100.469 2595.488 3096.966 2624.104 Q 3096.039 2622.083 3097.958 2619.560 Q 3099.878 2617.037 3100.203 2616.869 "></path>
    <path id="STROKE_b17f3c85-29b2-4025-80fd-de93b8990493" opacity="1.000" fill="none" stroke="#f3ba38" stroke-width="2.835" stroke-opacity="1.000" stroke-linecap="round" stroke-linejoin="round" d="M 2753.639 2737.377 Q 2753.639 2737.378 2753.665 2737.748 Q 2753.690 2738.117 2754.716 2752.749 Q 2755.742 2767.381 2754.985 2785.536 Q 2754.718 2785.346 2755.383 2782.540 Q 2756.048 2779.734 2756.474 2778.742 "></path>
    <path id="STROKE_6390df0e-5d85-4279-9cd3-54e2aab864e6" opacity="1.000" fill="none" stroke="#f3ba38" stroke-width="3.230" stroke-opacity="1.000" stroke-linecap="round" stroke-linejoin="round" d="M 2734.565 2736.664 Q 2734.565 2736.664 2735.839 2736.219 Q 2737.112 2735.775 2736.672 2735.951 Q 2734.856 2735.940 2743.925 2734.955 Q 2752.993 2733.970 2759.259 2733.500 Q 2765.524 2733.029 2768.704 2734.572 Q 2771.884 2736.115 2772.263 2736.551 "></path>
    <path id="STROKE_cb7a7594-fa7f-49d0-bc1a-5649a7fa0148" opacity="1.000" fill="none" stroke="#f3ba38" stroke-width="3.230" stroke-opacity="1.000" stroke-linecap="round" stroke-linejoin="round" d="M 2786.478 2752.552 Q 2786.136 2752.973 2784.030 2753.234 Q 2781.924 2753.496 2779.294 2754.327 Q 2776.664 2755.159 2775.453 2760.499 Q 2774.243 2765.840 2774.445 2770.180 Q 2774.646 2774.520 2776.643 2778.002 Q 2778.640 2781.485 2780.904 2783.196 Q 2783.168 2784.907 2786.296 2785.302 Q 2789.424 2785.698 2792.519 2784.381 Q 2795.614 2783.063 2796.780 2781.833 Q 2797.946 2780.602 2798.732 2779.430 Q 2799.518 2778.258 2800.876 2776.601 Q 2802.234 2774.944 2803.430 2770.188 Q 2804.626 2765.432 2804.765 2761.249 Q 2804.904 2757.066 2803.574 2754.530 Q 2802.245 2751.994 2800.773 2750.810 Q 2799.301 2749.626 2796.375 2748.965 Q 2793.450 2748.304 2791.668 2749.826 Q 2789.887 2751.347 2789.288 2752.004 "></path>
    <path id="STROKE_8dd72434-d672-4466-b82d-834b126a7610" opacity="1.000" fill="none" stroke="#f3ba38" stroke-width="3.230" stroke-opacity="1.000" stroke-linecap="round" stroke-linejoin="round" d="M 2851.097 2750.944 Q 2851.448 2750.489 2850.002 2749.272 Q 2848.556 2748.055 2847.032 2747.138 Q 2845.508 2746.220 2844.510 2747.292 Q 2843.511 2748.363 2841.646 2753.566 Q 2839.780 2758.770 2838.419 2764.772 Q 2837.058 2770.774 2836.905 2774.686 Q 2836.752 2778.598 2836.723 2780.833 Q 2836.693 2783.069 2838.072 2784.768 Q 2839.450 2786.468 2840.728 2787.000 Q 2842.005 2787.532 2844.796 2787.237 Q 2847.586 2786.941 2849.215 2786.563 "></path>
    <path id="STROKE_e34f28aa-8a27-4cf9-853d-662794f8d330" opacity="1.000" fill="none" stroke="#f3ba38" stroke-width="3.230" stroke-opacity="1.000" stroke-linecap="round" stroke-linejoin="round" d="M 2877.252 2756.650 Q 2875.559 2756.912 2875.512 2756.918 Q 2875.465 2756.925 2875.223 2757.007 Q 2874.981 2757.089 2875.207 2757.061 Q 2875.433 2757.032 2873.270 2757.185 Q 2871.108 2757.338 2869.441 2761.111 Q 2867.773 2764.885 2867.679 2768.920 Q 2867.584 2772.956 2868.186 2776.351 Q 2868.787 2779.746 2870.240 2781.985 Q 2871.692 2784.224 2873.911 2785.277 Q 2876.129 2786.331 2879.574 2785.390 Q 2883.020 2784.449 2886.650 2780.732 Q 2890.280 2777.015 2892.379 2774.519 Q 2894.478 2772.023 2894.828 2769.165 Q 2895.179 2766.306 2895.219 2764.520 Q 2895.258 2762.734 2892.678 2761.146 Q 2890.098 2759.558 2886.406 2759.036 Q 2882.713 2758.513 2879.928 2759.119 Q 2877.144 2759.726 2875.954 2760.760 Q 2874.764 2761.793 2874.354 2763.956 Q 2873.945 2766.118 2874.827 2767.095 Q 2875.708 2768.073 2876.430 2768.456 "></path>
    <path id="STROKE_3ff882c5-d024-4192-9cad-132851deb33b" opacity="1.000" fill="none" stroke="#f3ba38" stroke-width="3.230" stroke-opacity="1.000" stroke-linecap="round" stroke-linejoin="round" d="M 2918.516 2745.187 Q 2917.511 2746.043 2917.072 2746.555 Q 2916.633 2747.066 2916.581 2747.821 Q 2916.530 2748.576 2916.485 2748.878 Q 2916.440 2749.179 2916.417 2751.056 Q 2916.393 2752.933 2916.948 2782.361 Q 2917.895 2783.900 2921.125 2776.801 Q 2924.355 2769.701 2932.212 2754.094 Q 2933.278 2753.742 2930.750 2775.055 Q 2931.393 2777.012 2936.814 2770.218 Q 2942.234 2763.424 2945.592 2759.531 Q 2948.949 2755.639 2950.872 2753.682 Q 2952.794 2751.725 2955.376 2751.723 Q 2956.219 2753.811 2953.488 2774.113 Q 2953.745 2773.790 2954.001 2773.468 "></path>
    <path id="STROKE_bc560644-91ed-4c41-b37f-2803f5cab225" opacity="1.000" fill="none" stroke="#f3ba38" stroke-width="3.086" stroke-opacity="1.000" stroke-linecap="round" stroke-linejoin="round" d="M 2970.312 2756.808 Q 2970.667 2757.921 2965.737 2752.579 Q 2965.507 2751.792 2968.129 2760.286 Q 2970.750 2768.780 2968.188 2814.696 Q 2967.083 2815.831 2967.457 2799.891 Q 2967.830 2783.951 2967.769 2774.790 Q 2967.707 2765.629 2968.600 2759.549 Q 2969.493 2753.470 2970.591 2750.127 Q 2971.688 2746.785 2973.121 2744.752 Q 2974.555 2742.719 2975.424 2742.086 Q 2976.294 2741.452 2978.162 2741.140 Q 2980.029 2740.828 2983.112 2745.725 Q 2986.194 2750.621 2987.744 2753.508 Q 2989.294 2756.395 2989.689 2758.770 Q 2990.085 2761.144 2990.427 2763.813 Q 2990.768 2766.483 2988.358 2769.423 Q 2985.949 2772.364 2983.042 2774.221 Q 2980.136 2776.077 2977.078 2776.459 Q 2976.870 2776.579 2977.048 2775.664 Q 2977.227 2774.748 2977.431 2774.041 "></path>
    <path id="STROKE_b5060fd7-3d35-43d1-88b9-51f53e96e143" opacity="1.000" fill="none" stroke="#f3ba38" stroke-width="3.230" stroke-opacity="1.000" stroke-linecap="round" stroke-linejoin="round" d="M 3007.532 2745.896 Q 3008.187 2745.746 3006.928 2746.112 Q 3005.669 2746.478 3004.285 2747.124 Q 3002.901 2747.770 3001.981 2756.785 Q 3001.062 2765.800 3000.475 2770.707 Q 2999.889 2775.614 3000.026 2778.283 Q 3000.163 2780.953 3000.622 2781.456 Q 3001.082 2781.958 3001.458 2782.631 Q 3001.833 2783.305 3005.242 2782.800 Q 3008.651 2782.295 3014.493 2773.568 Q 3020.335 2764.841 3023.092 2759.230 Q 3025.849 2753.620 3026.428 2751.452 Q 3027.007 2749.283 3026.957 2749.232 "></path>
    <path id="STROKE_51300b88-5e33-47df-b687-7524b7348cd2" opacity="1.000" fill="none" stroke="#f3ba38" stroke-width="3.226" stroke-opacity="1.000" stroke-linecap="round" stroke-linejoin="round" d="M 3037.057 2743.081 Q 3037.247 2741.555 3038.097 2755.407 Q 3038.947 2769.260 3038.563 2777.158 Q 3038.178 2785.056 3037.973 2785.429 "></path>
    <path id="STROKE_82f83c91-77c7-4714-a14f-5034b7d0e839" opacity="1.000" fill="none" stroke="#f3ba38" stroke-width="3.230" stroke-opacity="1.000" stroke-linecap="round" stroke-linejoin="round" d="M 3025.358 2765.282 Q 3025.016 2765.919 3025.164 2766.121 Q 3025.312 2766.323 3025.718 2766.598 Q 3026.123 2766.873 3026.656 2767.189 Q 3027.189 2767.504 3027.485 2767.472 Q 3027.780 2767.440 3028.636 2767.386 Q 3029.492 2767.332 3034.527 2765.909 Q 3039.561 2764.486 3043.333 2764.871 Q 3047.105 2765.255 3048.135 2765.522 "></path>
    <path id="STROKE_ccee542c-73f9-4710-8ef9-2b242e0eb2f0" opacity="1.000" fill="none" stroke="#f3ba38" stroke-width="3.230" stroke-opacity="1.000" stroke-linecap="round" stroke-linejoin="round" d="M 3062.840 2762.110 Q 3062.840 2762.110 3063.627 2762.335 Q 3064.414 2762.561 3069.960 2763.224 Q 3075.505 2763.887 3079.533 2763.605 Q 3083.561 2763.322 3085.878 2762.028 Q 3088.195 2760.734 3089.117 2759.712 Q 3090.039 2758.691 3090.185 2756.729 Q 3090.331 2754.767 3089.785 2754.166 Q 3089.239 2753.565 3088.360 2752.906 Q 3087.480 2752.247 3084.041 2751.172 Q 3080.601 2750.097 3077.270 2749.859 Q 3073.939 2749.620 3070.182 2750.713 Q 3066.424 2751.806 3063.266 2755.081 Q 3060.109 2758.356 3057.914 2762.673 Q 3055.719 2766.990 3055.263 2770.372 Q 3054.808 2773.753 3055.568 2778.026 Q 3056.328 2782.299 3068.222 2781.570 Q 3080.116 2780.841 3081.213 2780.516 "></path>
    <path id="STROKE_d0061e47-7928-41f4-b615-ffb6346041ef" opacity="1.000" fill="none" stroke="#f3ba38" stroke-width="3.230" stroke-opacity="1.000" stroke-linecap="round" stroke-linejoin="round" d="M 3282.745 2761.010 Q 3281.884 2760.238 3279.544 2759.662 Q 3277.204 2759.086 3275.347 2759.783 Q 3273.490 2760.481 3271.670 2764.055 Q 3269.851 2767.629 3269.259 2771.851 Q 3268.667 2776.074 3268.769 2778.599 Q 3268.871 2781.124 3269.403 2782.679 Q 3269.934 2784.234 3271.635 2785.197 Q 3273.336 2786.160 3276.762 2785.763 Q 3280.187 2785.366 3284.921 2780.567 Q 3289.656 2775.769 3292.934 2770.893 Q 3296.211 2766.017 3296.576 2757.792 Q 3292.239 2755.302 3289.993 2763.427 Q 3287.747 2771.552 3287.589 2776.188 Q 3287.431 2780.824 3287.734 2782.734 Q 3288.037 2784.644 3289.555 2785.885 Q 3291.074 2787.126 3293.049 2786.685 Q 3295.025 2786.243 3299.492 2779.138 Q 3303.959 2772.033 3309.332 2762.010 Q 3309.110 2762.125 3308.786 2763.220 Q 3311.144 2763.213 3310.518 2763.215 Q 3311.450 2763.227 3318.522 2755.656 Q 3318.617 2758.185 3318.581 2758.010 Q 3318.075 2759.678 3314.188 2785.806 Q 3313.512 2787.489 3324.671 2770.063 Q 3325.400 2769.165 3324.385 2772.856 Q 3323.371 2776.547 3323.098 2777.036 "></path>
    <path id="STROKE_6a3dadf0-1f95-4948-98d8-810165afecb5" opacity="1.000" fill="none" stroke="#f3ba38" stroke-width="3.221" stroke-opacity="1.000" stroke-linecap="round" stroke-linejoin="round" d="M 3342.348 2768.133 Q 3341.075 2765.867 3341.302 2766.263 Q 3341.528 2766.659 3341.500 2766.600 Q 3341.473 2766.542 3341.228 2766.301 Q 3340.982 2766.061 3340.027 2765.522 Q 3339.071 2764.984 3339.247 2765.113 Q 3339.422 2765.243 3338.669 2765.038 Q 3337.916 2764.834 3336.725 2764.816 Q 3335.533 2764.798 3334.364 2765.229 Q 3333.194 2765.660 3331.198 2768.123 Q 3329.202 2770.585 3327.981 2774.312 Q 3326.761 2778.038 3326.535 2781.230 Q 3326.309 2784.423 3327.241 2786.096 Q 3328.174 2787.768 3330.391 2787.909 Q 3332.608 2788.050 3335.541 2785.748 Q 3338.474 2783.447 3342.324 2778.074 Q 3346.174 2772.702 3349.980 2765.673 Q 3353.787 2758.644 3356.442 2752.247 Q 3359.097 2745.850 3359.102 2738.666 Q 3356.912 2736.945 3352.869 2747.912 Q 3348.826 2758.880 3346.938 2765.205 Q 3345.049 2771.531 3344.596 2774.706 Q 3344.142 2777.881 3344.061 2778.932 Q 3343.979 2779.983 3343.972 2782.367 Q 3343.965 2784.751 3347.348 2785.800 Q 3350.730 2786.849 3356.616 2784.230 Q 3362.501 2781.611 3365.523 2779.120 Q 3368.545 2776.630 3369.195 2775.921 "></path>
    <path id="STROKE_bf7ab94d-652c-4115-ba3a-5f234aa165a0" opacity="1.000" fill="none" stroke="#f3ba38" stroke-width="3.134" stroke-opacity="1.000" stroke-linecap="round" stroke-linejoin="round" d="M 2935.595 2879.276 L 2945.467 2879.247 Q 2956.996 2879.212 2963.015 2879.194 Q 2972.466 2879.166 2980.563 2879.141 Q 2992.932 2879.104 2998.111 2879.088 Q 3008.918 2879.056 3015.660 2879.035 Q 3024.873 2879.008 3033.208 2878.982 Q 3043.211 2878.953 3050.755 2878.930 Q 3061.551 2878.897 3068.304 2878.877 Q 3079.664 2878.843 3085.853 2878.824 Q 3096.262 2878.792 3103.400 2878.771 Q 3113.667 2878.740 3120.949 2878.718 Q 3131.071 2878.688 3138.497 2878.666 Q 3149.475 2878.632 3156.045 2878.613 Q 3166.874 2878.580 3173.593 2878.560 Q 3183.993 2878.528 3191.142 2878.507 Q 3200.172 2878.480 3208.689 2878.454 Q 3219.124 2878.423 3226.238 2878.401 Q 3235.400 2878.374 3243.786 2878.349 Q 3253.514 2878.319 3261.334 2878.296 Q 3257.263 2878.308 3256.189 2878.311 L 3261.334 2878.296 "></path>
    <path id="STROKE_6af10d78-6ea5-4261-b721-3c1db07411dd" opacity="1.000" fill="none" stroke="#f3ba38" stroke-width="3.225" stroke-opacity="1.000" stroke-linecap="round" stroke-linejoin="round" d="M 2945.467 2879.248 L 2927.919 2879.301 Q 2938.688 2879.267 2945.467 2879.247 Q 2936.433 2879.274 2927.918 2879.300 L 2945.466 2879.247 "></path>
    <path id="STROKE_eb759be6-be80-4a01-aab5-45f2b4b86708" opacity="1.000" fill="none" stroke="#f3ba38" stroke-width="3.230" stroke-opacity="1.000" stroke-linecap="round" stroke-linejoin="round" d="M 2940.204 2879.264 L 2939.785 2879.265 L 2945.467 2879.248 L 2927.919 2879.301 L 2910.370 2879.353 Q 2908.591 2879.358 2906.942 2879.363 L 2910.370 2879.353 "></path>
    <path id="STROKE_fc05d6a4-ff88-49bb-9ba7-12561ccf953e" opacity="1.000" fill="none" stroke="#f3ba38" stroke-width="3.230" stroke-opacity="1.000" stroke-linecap="round" stroke-linejoin="round" d="M 2892.822 2879.405 L 2892.875 2896.954 Q 2892.883 2899.697 2892.927 2914.502 Q 2892.938 2918.394 2892.980 2932.049 Q 2893.002 2939.526 2893.032 2949.598 Q 2893.038 2951.534 2893.046 2954.409 L 2893.032 2949.597 L 2893.084 2967.145 Q 2893.097 2971.314 2893.105 2974.197 L 2893.084 2967.145 L 2893.107 2974.921 L 2893.084 2967.145 L 2893.109 2975.333 L 2893.084 2967.145 L 2893.137 2984.693 Q 2893.125 2980.986 2893.123 2980.165 "></path>
    <path id="STROKE_5a64c84d-faea-420c-b8a3-d304fb007d2a" opacity="1.000" fill="none" stroke="#f3ba38" stroke-width="2.719" stroke-opacity="1.000" stroke-linecap="round" stroke-linejoin="round" d="M 2893.139 2984.695 Q 2899.556 2984.675 2910.687 2984.642 Q 2921.891 2984.608 2928.235 2984.589 Q 2939.393 2984.556 2945.784 2984.536 Q 2955.895 2984.506 2963.332 2984.483 Q 2975.329 2984.447 2980.880 2984.431 Q 2991.734 2984.398 2998.428 2984.378 Q 3009.235 2984.345 3015.977 2984.325 Q 3026.124 2984.294 3033.525 2984.272 Q 3043.947 2984.241 3051.072 2984.219 Q 3061.254 2984.188 3068.621 2984.167 Q 3078.592 2984.136 3086.169 2984.114 Q 3100.672 2984.070 3121.266 2984.008 Q 3131.259 2983.978 3138.814 2983.955 Q 3149.178 2983.924 3156.362 2983.902 Q 3167.518 2983.869 3173.910 2983.850 Q 3183.698 2983.820 3191.458 2983.796 Q 3200.779 2983.769 3209.006 2983.744 Q 3219.828 2983.711 3226.555 2983.691 Q 3236.426 2983.661 3244.103 2983.638 Q 3253.122 2983.611 3261.651 2983.585 Q 3271.041 2983.557 3279.200 2983.532 L 3273.588 2983.549 L 3279.200 2983.532 "></path>
    <path id="STROKE_3689089d-31bd-4be8-ad0b-1a101d65546e" opacity="1.000" fill="none" stroke="#f3ba38" stroke-width="2.853" stroke-opacity="1.000" stroke-linecap="round" stroke-linejoin="round" d="M 3261.354 2885.167 L 3261.387 2895.845 Q 3261.408 2903.083 3261.439 2913.393 Q 3261.458 2919.451 3261.492 2930.940 L 3261.545 2948.488 Q 3261.562 2954.436 3261.597 2966.036 Q 3261.601 2967.448 3261.608 2969.826 L 3261.597 2966.035 L 3261.649 2983.583 Q 3261.650 2983.903 3261.661 2987.560 L 3261.649 2983.583 Q 3261.676 2992.585 3261.701 3001.130 "></path>
    <path id="STROKE_69fcd873-7ba1-4681-a502-278165b92c63" opacity="1.000" fill="none" stroke="#f3ba38" stroke-width="3.230" stroke-opacity="1.000" stroke-linecap="round" stroke-linejoin="round" d="M 3007.564 2879.061 L 3007.371 2879.062 L 3015.660 2879.036 L 2998.112 2879.089 L 3006.952 2879.062 L 2998.111 2879.088 L 3015.660 2879.035 "></path>
    <path id="STROKE_4084de86-81db-4fa3-8111-c5af820ac478" opacity="1.000" fill="none" stroke="#f3ba38" stroke-width="3.230" stroke-opacity="1.000" stroke-linecap="round" stroke-linejoin="round" d="M 2892.822 2879.405 Q 2902.946 2879.375 2910.370 2879.353 Q 2919.415 2879.325 2927.918 2879.300 "></path>
    <path id="STROKE_a37a1217-d209-443e-b960-f35fd307910f" opacity="1.000" fill="none" stroke="#f3ba38" stroke-width="3.230" stroke-opacity="1.000" stroke-linecap="round" stroke-linejoin="round" d="M 2998.130 2885.451 Q 2998.133 2886.587 2998.164 2896.637 Q 2998.180 2902.166 2998.216 2914.185 Q 2998.226 2917.464 2998.269 2931.732 Q 2998.278 2934.812 2998.284 2936.841 L 2998.269 2931.732 L 2998.321 2949.281 Q 2998.326 2950.737 2998.374 2966.828 L 2998.381 2969.265 L 2998.374 2966.828 Q 2998.381 2969.363 2998.426 2984.376 Q 2998.428 2984.970 2998.429 2985.478 L 2998.426 2984.375 "></path>
    <path id="STROKE_9d54ff21-333f-4dbd-91ca-de6887ec0dea" opacity="1.000" fill="none" stroke="#f3ba38" stroke-width="3.227" stroke-opacity="1.000" stroke-linecap="round" stroke-linejoin="round" d="M 3120.958 2881.795 L 3121.001 2896.267 Q 3121.019 2902.115 3121.054 2913.815 Q 3121.069 2919.148 3121.106 2931.362 Q 3121.134 2940.579 3121.159 2948.911 Q 3121.187 2958.241 3121.211 2966.458 Q 3121.238 2975.563 3121.263 2984.006 "></path>
    <path id="STROKE_4f004c0b-f0de-4b72-b78a-b62cf9e6658a" opacity="1.000" fill="none" stroke="#f3ba38" stroke-width="1.222" stroke-opacity="1.000" stroke-linecap="round" stroke-linejoin="round" d="M 3285.101 2147.357 Q 3294.578 2147.328 3303.466 2147.301 Q 3313.434 2147.271 3321.832 2147.246 Q 3332.255 2147.215 3340.198 2147.191 Q 3350.007 2147.161 3358.563 2147.135 Q 3369.483 2147.102 3376.929 2147.080 Q 3388.994 2147.044 3395.295 2147.025 Q 3405.652 2146.993 3413.662 2146.969 Q 3424.280 2146.937 3432.027 2146.914 Q 3442.976 2146.881 3450.393 2146.859 Q 3462.141 2146.823 3468.758 2146.803 Q 3480.308 2146.769 3487.124 2146.748 Q 3497.611 2146.717 3505.490 2146.693 Q 3515.778 2146.662 3523.856 2146.637 Q 3534.840 2146.605 3542.222 2146.582 Q 3551.593 2146.554 3560.588 2146.527 Q 3570.414 2146.497 3578.953 2146.472 Q 3588.167 2146.444 3597.319 2146.416 Q 3606.780 2146.388 3615.685 2146.361 Q 3625.188 2146.333 3634.051 2146.306 L 3626.601 2146.328 L 3634.051 2146.306 L 3626.050 2146.330 L 3634.051 2146.306 "></path>
    <path id="STROKE_963aba9a-4437-4a36-a491-c0f73c6dbe90" opacity="1.000" fill="none" stroke="#f3ba38" stroke-width="1.530" stroke-opacity="1.000" stroke-linecap="round" stroke-linejoin="round" d="M 3634.051 2146.306 L 3615.685 2146.361 Q 3628.808 2146.321 3634.050 2146.305 "></path>
    <path id="STROKE_a58a83a3-0860-425a-806f-635dee9b318c" opacity="1.000" fill="none" stroke="#f3ba38" stroke-width="0.963" stroke-opacity="1.000" stroke-linecap="round" stroke-linejoin="round" d="M 3634.050 2146.305 Q 3634.055 2147.844 3634.105 2164.672 Q 3634.120 2169.428 3634.161 2183.037 Q 3634.178 2188.834 3634.216 2201.402 Q 3634.226 2204.955 3634.270 2219.767 Q 3634.288 2225.837 3634.325 2238.133 Q 3634.346 2245.244 3634.380 2256.498 Q 3634.399 2263.126 3634.435 2274.864 Q 3634.454 2281.447 3634.490 2293.229 Q 3634.524 2304.832 3634.544 2311.594 Q 3634.581 2323.696 3634.600 2329.959 Q 3634.632 2341.034 3634.654 2348.325 Q 3634.689 2360.131 3634.709 2366.690 Q 3634.744 2378.451 3634.764 2385.055 Q 3634.803 2398.091 3634.819 2403.421 Q 3634.854 2415.327 3634.874 2421.786 Q 3634.913 2435.168 3634.982 2458.516 Q 3635.018 2470.315 3635.038 2476.882 Q 3635.075 2489.514 3635.093 2495.247 Q 3635.135 2509.257 3635.202 2531.978 Q 3635.245 2546.028 3635.313 2568.710 Q 3635.331 2574.763 3635.368 2587.075 Q 3635.383 2592.438 3635.422 2605.440 Q 3635.439 2611.430 3635.477 2623.806 Q 3635.494 2629.519 3635.532 2642.171 Q 3635.569 2654.868 3635.586 2660.536 Q 3635.625 2673.189 3635.642 2678.902 Q 3635.677 2690.864 3635.696 2697.267 Q 3635.726 2707.221 3635.751 2715.633 Q 3635.783 2726.084 3635.807 2733.998 Q 3635.835 2743.528 3635.861 2752.363 Q 3635.890 2762.081 3635.917 2770.729 Q 3635.947 2781.177 3635.971 2789.094 Q 3636.000 2798.955 3636.025 2807.459 Q 3636.054 2817.173 3636.080 2825.825 Q 3636.107 2835.054 3636.135 2844.190 Q 3636.167 2854.590 3636.190 2862.555 Q 3636.218 2872.135 3636.245 2880.921 Q 3636.275 2890.896 3636.300 2899.286 Q 3636.328 2908.803 3636.355 2917.652 "></path>
    <path id="STROKE_467591aa-7d9a-49ee-bd30-528032f6e5ef" opacity="1.000" fill="none" stroke="#f3ba38" stroke-width="1.205" stroke-opacity="1.000" stroke-linecap="round" stroke-linejoin="round" d="M 3636.267 2917.671 L 3636.373 2917.670 Q 3626.304 2917.700 3618.007 2917.725 Q 3607.897 2917.754 3599.641 2917.779 Q 3587.628 2917.815 3581.274 2917.834 L 3562.908 2917.889 Q 3555.122 2917.912 3544.542 2917.944 Q 3537.818 2917.964 3526.176 2917.999 Q 3518.445 2918.022 3507.809 2918.054 L 3489.443 2918.109 Q 3484.491 2918.123 3471.077 2918.163 Q 3466.083 2918.178 3452.711 2918.218 Q 3447.159 2918.235 3434.345 2918.273 L 3415.978 2918.328 Q 3414.015 2918.333 3414.261 2918.333 Q 3414.508 2918.332 3414.412 2918.332 L 3415.978 2918.327 L 3409.586 2918.346 L 3415.978 2918.327 L 3397.612 2918.383 Q 3396.517 2918.385 3379.246 2918.438 Q 3379.333 2918.437 3360.879 2918.493 Q 3356.604 2918.505 3355.915 2918.507 L 3360.878 2918.492 L 3354.950 2918.510 L 3360.878 2918.492 Q 3354.338 2918.512 3353.192 2918.515 L 3360.878 2918.492 "></path>
    <path id="STROKE_919225c9-0d87-473b-b115-f74094ef5f80" opacity="1.000" fill="none" stroke="#f3ba38" stroke-width="1.288" stroke-opacity="1.000" stroke-linecap="round" stroke-linejoin="round" d="M 3347.756 2898.897 Q 3346.277 2898.902 3346.670 2898.901 Q 3346.498 2898.901 3346.239 2898.902 Q 3346.245 2900.985 3346.244 2900.504 Q 3346.251 2903.059 3346.250 2902.545 Q 3347.016 2903.698 3347.278 2916.027 Q 3347.541 2928.356 3348.788 2944.115 Q 3348.703 2943.421 3348.820 2943.650 Q 3348.936 2943.879 3348.878 2943.778 Q 3348.820 2943.678 3348.267 2943.120 Q 3347.713 2942.562 3347.065 2942.028 Q 3346.417 2941.493 3345.648 2940.976 Q 3344.879 2940.459 3344.790 2940.508 Q 3344.701 2940.557 3344.435 2940.088 Q 3344.168 2939.620 3340.221 2937.675 Q 3336.274 2935.730 3331.618 2934.047 Q 3326.962 2932.365 3310.208 2930.239 Q 3310.138 2930.071 3310.136 2929.425 Q 3310.612 2930.254 3321.452 2921.775 Q 3332.291 2913.296 3346.686 2898.358 Q 3347.465 2897.791 3344.841 2901.004 Q 3342.217 2904.218 3336.629 2909.295 Q 3331.041 2914.371 3327.084 2917.852 Q 3323.126 2921.333 3315.443 2928.970 Q 3316.461 2929.930 3347.574 2907.141 Q 3346.230 2907.510 3340.102 2912.074 Q 3333.974 2916.638 3329.773 2920.082 Q 3325.572 2923.525 3323.481 2925.540 Q 3321.391 2927.555 3320.581 2929.393 Q 3322.615 2930.013 3330.922 2925.218 Q 3339.229 2920.423 3347.251 2914.481 Q 3346.384 2914.517 3330.341 2930.940 Q 3330.096 2932.257 3347.722 2921.844 Q 3348.169 2921.567 3346.856 2923.840 Q 3345.542 2926.113 3343.445 2928.421 Q 3341.348 2930.728 3338.749 2935.412 Q 3341.255 2935.457 3340.310 2935.528 Q 3339.366 2935.598 3342.856 2935.306 Q 3346.347 2935.014 3347.001 2934.689 "></path>
    <path id="STROKE_d1f1045e-b29c-4d8a-842c-bc079f6ff35c" opacity="1.000" fill="none" stroke="#f45e58" stroke-width="2.827" stroke-opacity="1.000" stroke-linecap="round" stroke-linejoin="round" d="M 2941.996 2956.323 Q 2942.048 2956.417 2942.891 2956.036 Q 2942.883 2953.444 2942.886 2954.214 Q 2943.018 2954.789 2942.929 2943.115 Q 2942.840 2931.442 2940.669 2916.480 Q 2940.669 2916.425 2940.672 2917.359 Q 2940.724 2917.359 2940.776 2917.358 Q 2940.776 2917.306 2940.774 2916.712 Q 2940.774 2916.867 2940.750 2917.307 Q 2940.725 2917.746 2940.674 2918.134 "></path>
    <path id="STROKE_6d4fe2ff-80dc-4574-a196-87cb5aef69d8" opacity="1.000" fill="none" stroke="#f45e58" stroke-width="3.060" stroke-opacity="1.000" stroke-linecap="round" stroke-linejoin="round" d="M 2923.270 2919.168 Q 2923.218 2919.220 2922.066 2919.948 Q 2922.137 2919.863 2922.007 2920.021 Q 2921.878 2920.180 2922.006 2919.938 Q 2922.134 2919.696 2923.097 2918.491 Q 2924.061 2917.286 2925.173 2915.987 Q 2926.286 2914.688 2926.696 2914.427 Q 2927.105 2914.166 2931.135 2909.054 Q 2935.166 2903.942 2937.823 2899.571 Q 2940.480 2895.199 2945.542 2892.097 Q 2946.486 2893.131 2946.536 2893.267 Q 2946.586 2893.404 2946.685 2893.646 Q 2946.784 2893.889 2946.866 2894.246 Q 2946.947 2894.603 2948.555 2901.533 Q 2950.164 2908.463 2953.352 2921.042 Q 2954.610 2920.571 2954.574 2920.397 Q 2954.538 2920.224 2954.813 2919.849 "></path>
    <path id="STROKE_26533f67-fa1e-4862-9738-2327b9226a6c" opacity="1.000" fill="none" stroke="#f45e58" stroke-width="2.769" stroke-opacity="1.000" stroke-linecap="round" stroke-linejoin="round" d="M 3048.656 2958.741 Q 3048.562 2958.869 3048.595 2959.004 Q 3048.628 2959.140 3048.854 2960.205 Q 3049.079 2961.270 3049.061 2961.207 Q 3049.352 2962.440 3049.323 2962.357 Q 3049.457 2962.682 3049.342 2962.452 Q 3049.227 2962.221 3049.240 2962.223 Q 3049.253 2962.224 3049.809 2963.615 Q 3050.364 2965.007 3050.278 2964.653 Q 3050.381 2964.653 3050.726 2964.548 Q 3051.139 2965.156 3051.169 2911.444 Q 3051.250 2913.368 3051.278 2913.292 Q 3050.918 2914.103 3051.463 2917.482 Q 3052.008 2920.861 3052.163 2921.080 "></path>
    <path id="STROKE_13e116bf-d1a9-4b75-89fa-d5f3ba80613a" opacity="1.000" fill="none" stroke="#f45e58" stroke-width="3.060" stroke-opacity="1.000" stroke-linecap="round" stroke-linejoin="round" d="M 3031.244 2922.694 Q 3031.611 2922.864 3029.829 2922.310 Q 3030.541 2920.294 3030.807 2920.602 Q 3031.007 2920.508 3032.741 2918.759 Q 3034.475 2917.010 3038.086 2911.281 Q 3041.696 2905.552 3044.095 2902.043 Q 3046.494 2898.533 3048.698 2897.216 Q 3050.901 2895.899 3052.027 2895.159 Q 3053.153 2894.419 3054.547 2894.095 Q 3054.429 2894.245 3056.204 2899.100 Q 3057.978 2903.956 3058.948 2907.471 Q 3059.918 2910.986 3061.078 2913.146 Q 3062.237 2915.305 3064.041 2916.680 Q 3065.844 2918.054 3066.890 2918.615 Q 3067.937 2919.177 3068.672 2919.260 Q 3069.407 2919.344 3069.310 2919.320 Q 3069.212 2919.295 3069.364 2919.586 Q 3069.516 2919.878 3069.672 2920.149 "></path>
    <path id="STROKE_b4d06c94-00c9-47f3-9149-598aa694b1b5" opacity="1.000" fill="none" stroke="#f3ba38" stroke-width="1.530" stroke-opacity="1.000" stroke-linecap="round" stroke-linejoin="round" d="M 2940.409 3047.493 Q 2940.409 3047.493 2940.409 3047.526 Q 2940.409 3047.558 2940.308 3048.062 Q 2940.255 3048.062 2940.204 3048.062 Q 2940.204 3047.911 2940.147 3029.173 Q 2940.198 3029.173 2940.302 3029.173 Q 2940.354 3029.289 2940.467 3029.508 Q 2940.580 3029.728 2940.805 3030.050 "></path>
    <path id="STROKE_7acf204c-de15-4ab1-a68c-80e684146abb" opacity="1.000" fill="none" stroke="#f3ba38" stroke-width="1.395" stroke-opacity="1.000" stroke-linecap="round" stroke-linejoin="round" d="M 2921.938 3026.721 Q 2921.938 3026.721 2922.231 3026.794 Q 2922.523 3026.867 2930.295 3027.450 Q 2938.066 3028.034 2942.278 3027.930 Q 2946.489 3027.825 2949.277 3027.392 Q 2952.064 3026.959 2951.804 3027.050 Q 2951.544 3027.140 2952.060 3026.991 Q 2952.576 3026.843 2952.848 3026.092 Q 2953.120 3025.341 2953.381 3024.705 Q 2953.643 3024.069 2953.487 3023.992 Q 2953.332 3023.915 2953.512 3024.106 Q 2953.693 3024.298 2953.254 3023.462 Q 2952.815 3022.627 2951.971 3022.070 Q 2951.126 3021.512 2950.590 3021.092 Q 2950.054 3020.671 2950.094 3020.698 Q 2950.134 3020.725 2950.205 3020.817 Q 2950.276 3020.909 2949.282 3019.844 Q 2948.289 3018.779 2948.424 3018.786 Q 2947.770 3017.089 2947.885 3017.353 Q 2947.770 3016.629 2947.068 3003.751 Q 2946.723 3003.527 2945.313 3004.251 Q 2943.904 3004.975 2942.773 3006.698 Q 2941.643 3008.421 2938.349 3011.990 Q 2935.056 3015.560 2929.579 3028.223 Q 2931.490 3030.649 2944.122 3009.625 Q 2943.066 3008.859 2934.457 3028.312 Q 2935.409 3029.348 2947.061 3018.402 Q 2947.634 3019.043 2946.896 3023.389 Q 2946.158 3027.734 2945.936 3028.278 "></path>
    <path id="STROKE_a1a491f5-91b8-4cff-9c7d-577e1256bd23" opacity="1.000" fill="none" stroke="#f3ba38" stroke-width="1.385" stroke-opacity="1.000" stroke-linecap="round" stroke-linejoin="round" d="M 3048.833 3051.353 Q 3048.022 3050.837 3050.561 3044.537 Q 3053.101 3038.237 3054.044 3030.588 Q 3053.779 3033.150 3053.742 3032.864 Q 3053.706 3032.578 3053.500 3033.018 "></path>
    <path id="STROKE_e856d994-02a4-4f15-8534-ca2cfdaca5ab" opacity="1.000" fill="none" stroke="#f3ba38" stroke-width="1.469" stroke-opacity="1.000" stroke-linecap="round" stroke-linejoin="round" d="M 3037.794 3026.036 Q 3037.612 3024.923 3066.001 3023.316 Q 3067.026 3023.482 3064.960 3019.013 Q 3062.895 3014.544 3062.055 3012.140 Q 3061.215 3009.736 3060.755 3007.974 Q 3060.295 3006.212 3060.126 3005.164 Q 3059.957 3004.117 3059.906 3003.919 Q 3059.856 3003.722 3059.262 3003.508 Q 3058.669 3003.295 3057.925 3003.168 Q 3057.181 3003.041 3057.107 3003.328 Q 3057.034 3003.615 3057.098 3003.458 Q 3057.162 3003.302 3056.692 3003.881 Q 3056.223 3004.461 3053.240 3009.797 Q 3050.258 3015.133 3044.482 3026.223 Q 3046.353 3026.969 3057.144 3006.779 Q 3055.165 3006.716 3050.159 3022.486 Q 3052.791 3022.328 3054.816 3021.383 Q 3056.840 3020.437 3057.391 3020.163 "></path>
    <path id="STROKE_0c80fdc1-d6bf-4a44-9a88-1de5e8de1d6b" opacity="1.000" fill="none" stroke="#f3ba38" stroke-width="1.530" stroke-opacity="1.000" stroke-linecap="round" stroke-linejoin="round" d="M 3195.585 3054.530 Q 3195.543 3054.899 3194.588 3055.075 Q 3194.275 3055.202 3197.031 3030.596 Q 3197.036 3032.190 3197.036 3032.271 Q 3197.036 3032.353 3197.038 3032.896 "></path>
    <path id="STROKE_1c7018e0-26a5-477d-932b-3559a82af454" opacity="1.000" fill="none" stroke="#f3ba38" stroke-width="1.435" stroke-opacity="1.000" stroke-linecap="round" stroke-linejoin="round" d="M 3174.826 3029.138 Q 3176.177 3028.505 3177.744 3028.071 Q 3179.312 3027.637 3205.627 3029.304 Q 3205.943 3028.334 3205.878 3026.286 Q 3205.813 3024.238 3205.479 3023.264 Q 3205.144 3022.290 3204.811 3020.527 Q 3204.479 3018.763 3204.292 3016.371 Q 3204.105 3013.978 3203.094 3010.971 Q 3202.083 3007.965 3199.044 3006.610 Q 3198.854 3006.805 3195.768 3010.357 Q 3192.682 3013.909 3185.644 3026.677 Q 3186.401 3027.273 3190.158 3022.973 Q 3193.915 3018.673 3198.320 3012.375 Q 3194.915 3014.153 3188.928 3029.845 Q 3191.200 3029.302 3193.437 3026.582 Q 3195.674 3023.862 3197.720 3023.743 Q 3199.767 3023.624 3200.217 3023.997 "></path>
    <path id="STROKE_b02197bc-ba5a-478b-b719-5ad8b20b2bed" opacity="1.000" fill="none" stroke="#f3ba38" stroke-width="3.230" stroke-opacity="1.000" stroke-linecap="round" stroke-linejoin="round" d="M 2753.220 3124.495 Q 2753.736 3125.121 2752.375 3123.177 Q 2752.855 3124.561 2751.982 3158.390 Q 2751.950 3158.188 2752.060 3157.672 Q 2752.170 3157.156 2752.360 3156.667 "></path>
    <path id="STROKE_37e39fe6-53b2-41f2-a09c-98438297fc3a" opacity="1.000" fill="none" stroke="#f3ba38" stroke-width="3.230" stroke-opacity="1.000" stroke-linecap="round" stroke-linejoin="round" d="M 2734.482 3118.353 Q 2734.299 3118.267 2743.866 3118.100 Q 2753.433 3117.934 2759.489 3118.005 Q 2765.545 3118.076 2768.103 3118.799 Q 2770.661 3119.521 2771.083 3119.821 "></path>
    <path id="STROKE_05514313-6c61-4850-87c4-85f93b0b3485" opacity="1.000" fill="none" stroke="#f3ba38" stroke-width="3.230" stroke-opacity="1.000" stroke-linecap="round" stroke-linejoin="round" d="M 2773.025 3116.285 Q 2772.950 3114.911 2773.319 3150.290 Q 2774.040 3153.281 2786.534 3133.779 Q 2786.861 3134.318 2786.772 3142.922 Q 2786.683 3151.527 2787.104 3151.827 "></path>
    <path id="STROKE_9737200b-7232-4267-9e0e-177dbbc48f5e" opacity="1.000" fill="none" stroke="#f3ba38" stroke-width="3.230" stroke-opacity="1.000" stroke-linecap="round" stroke-linejoin="round" d="M 2797.566 3142.642 Q 2798.686 3143.281 2801.103 3143.497 Q 2803.520 3143.712 2806.991 3141.170 Q 2810.463 3138.627 2811.963 3137.439 Q 2813.464 3136.251 2814.410 3134.243 Q 2815.356 3132.235 2815.667 3130.832 Q 2815.978 3129.428 2813.813 3128.537 Q 2811.649 3127.645 2809.469 3127.515 Q 2807.289 3127.385 2805.306 3127.536 Q 2803.323 3127.687 2800.900 3130.013 Q 2798.477 3132.339 2797.206 3134.357 Q 2795.936 3136.375 2795.318 3139.239 Q 2794.701 3142.102 2794.589 3144.354 Q 2794.478 3146.605 2794.491 3148.475 Q 2794.505 3150.345 2797.869 3151.414 Q 2801.233 3152.482 2803.748 3151.911 Q 2806.263 3151.339 2807.046 3150.791 "></path>
    <path id="STROKE_9fdc22d9-fa81-4796-aeaf-4b26e2652070" opacity="1.000" fill="none" stroke="#f3ba38" stroke-width="3.230" stroke-opacity="1.000" stroke-linecap="round" stroke-linejoin="round" d="M 2821.100 3126.873 Q 2821.042 3126.874 2820.181 3126.934 Q 2819.866 3128.217 2820.111 3148.198 Q 2821.401 3147.696 2828.444 3136.165 Q 2835.487 3124.635 2835.907 3124.390 "></path>
    <path id="STROKE_ae38c3c5-bd6c-41cd-a471-b56680db5cb1" opacity="1.000" fill="none" stroke="#f3ba38" stroke-width="3.230" stroke-opacity="1.000" stroke-linecap="round" stroke-linejoin="round" d="M 2835.605 3138.624 Q 2835.605 3138.624 2836.788 3137.677 Q 2837.971 3136.730 2838.045 3136.977 Q 2838.119 3137.224 2838.150 3137.158 Q 2838.181 3137.091 2837.765 3137.149 Q 2837.349 3137.207 2841.972 3137.268 Q 2846.596 3137.329 2849.760 3137.447 Q 2852.923 3137.565 2855.565 3136.492 Q 2858.208 3135.419 2859.129 3133.759 Q 2860.050 3132.098 2860.217 3130.632 Q 2860.383 3129.165 2859.447 3127.907 Q 2858.510 3126.650 2856.940 3126.406 Q 2855.370 3126.161 2852.686 3126.911 Q 2850.002 3127.661 2846.772 3131.894 Q 2843.542 3136.127 2841.628 3139.699 Q 2839.713 3143.270 2839.679 3145.282 Q 2839.645 3147.294 2840.134 3148.829 Q 2840.623 3150.364 2844.336 3151.068 Q 2848.048 3151.773 2848.891 3152.014 "></path>
    <path id="STROKE_7d28d888-8aa5-4e66-be96-c59515ec8685" opacity="1.000" fill="none" stroke="#f3ba38" stroke-width="3.230" stroke-opacity="1.000" stroke-linecap="round" stroke-linejoin="round" d="M 2886.876 3130.205 Q 2886.726 3129.688 2887.257 3126.575 Q 2887.788 3123.463 2887.356 3122.369 Q 2886.924 3121.276 2885.648 3120.763 Q 2884.372 3120.249 2883.717 3120.395 Q 2883.063 3120.540 2882.625 3120.971 Q 2882.188 3121.402 2880.697 3122.809 Q 2879.207 3124.216 2877.330 3129.624 Q 2875.453 3135.032 2875.273 3139.966 Q 2875.093 3144.899 2874.927 3147.224 Q 2874.760 3149.548 2875.542 3151.051 Q 2876.323 3152.554 2877.328 3153.022 Q 2878.334 3153.490 2878.832 3153.732 "></path>
    <path id="STROKE_4fd59f82-4b89-407d-b2af-b74abb8e0b92" opacity="1.000" fill="none" stroke="#f3ba38" stroke-width="3.230" stroke-opacity="1.000" stroke-linecap="round" stroke-linejoin="round" d="M 2864.337 3145.511 Q 2864.337 3145.511 2864.364 3145.511 Q 2864.391 3145.510 2870.088 3143.180 Q 2875.785 3140.849 2881.709 3140.215 Q 2887.633 3139.581 2891.302 3140.756 Q 2894.971 3141.932 2895.948 3142.489 "></path>
    <path id="STROKE_76d34823-545d-4d8c-b8a3-1962fc974975" opacity="1.000" fill="none" stroke="#f3ba38" stroke-width="3.230" stroke-opacity="1.000" stroke-linecap="round" stroke-linejoin="round" d="M 2901.867 3137.477 Q 2903.194 3137.873 2897.920 3136.385 Q 2897.685 3135.911 2896.773 3139.919 Q 2895.860 3143.926 2895.981 3146.623 Q 2896.102 3149.321 2897.085 3150.744 Q 2898.068 3152.168 2900.565 3153.325 Q 2903.062 3154.482 2906.353 3154.219 Q 2909.644 3153.955 2911.847 3152.718 Q 2914.050 3151.481 2915.518 3149.186 Q 2916.987 3146.891 2917.355 3143.607 Q 2917.723 3140.323 2916.630 3137.823 Q 2915.538 3135.323 2913.148 3134.016 Q 2910.758 3132.709 2908.698 3132.612 Q 2906.638 3132.514 2905.639 3133.831 Q 2904.641 3135.147 2904.998 3137.032 Q 2905.355 3138.916 2905.663 3139.647 "></path>
    <path id="STROKE_58993483-c0b8-4aa5-ac91-71ef7af3d7a0" opacity="1.000" fill="none" stroke="#f3ba38" stroke-width="3.230" stroke-opacity="1.000" stroke-linecap="round" stroke-linejoin="round" d="M 2930.789 3131.163 Q 2930.846 3131.163 2931.171 3131.162 Q 2931.173 3130.103 2931.186 3136.740 Q 2931.200 3143.377 2930.872 3158.942 Q 2931.609 3159.392 2935.099 3152.387 Q 2938.588 3145.382 2941.010 3139.819 Q 2943.433 3134.257 2946.354 3126.353 Q 2946.318 3126.686 2946.425 3127.316 Q 2946.531 3127.945 2946.706 3128.562 "></path>
    <path id="STROKE_0144fb78-e7c9-410d-b3ae-1460b6be46fc" opacity="1.000" fill="none" stroke="#f3ba38" stroke-width="3.230" stroke-opacity="1.000" stroke-linecap="round" stroke-linejoin="round" d="M 2952.950 3142.805 Q 2952.700 3142.509 2956.936 3142.802 Q 2961.172 3143.095 2965.950 3140.814 Q 2970.729 3138.534 2974.416 3135.444 Q 2978.104 3132.354 2977.555 3126.818 Q 2974.705 3126.195 2970.924 3125.820 Q 2967.144 3125.446 2962.820 3129.618 Q 2958.496 3133.790 2955.876 3138.468 Q 2953.257 3143.146 2952.344 3147.405 Q 2951.430 3151.664 2951.370 3154.449 Q 2951.311 3157.234 2952.878 3158.291 Q 2954.445 3159.348 2956.269 3159.940 Q 2958.092 3160.531 2967.704 3158.145 Q 2977.317 3155.760 2978.406 3155.154 "></path>
    <path id="STROKE_49ce977e-692c-42da-84ce-8e5785a84e1a" opacity="1.000" fill="none" stroke="#f3ba38" stroke-width="3.230" stroke-opacity="1.000" stroke-linecap="round" stroke-linejoin="round" d="M 2959.965 3222.227 Q 2959.965 3222.227 2959.904 3222.343 Q 2959.842 3222.460 2966.325 3222.525 Q 2972.809 3222.590 2980.600 3223.004 Q 2988.392 3223.419 2993.675 3224.306 Q 2998.957 3225.194 3000.132 3225.504 "></path>
    <path id="STROKE_36e0a975-62ba-4b1b-8332-4b981495cbe9" opacity="1.000" fill="none" stroke="#f3ba38" stroke-width="3.230" stroke-opacity="1.000" stroke-linecap="round" stroke-linejoin="round" d="M 2965.820 3233.995 Q 2965.681 3235.638 2965.359 3235.249 Q 2965.038 3234.861 2965.703 3235.665 Q 2966.369 3236.469 2967.705 3236.537 Q 2969.041 3236.606 2969.909 3236.754 Q 2970.778 3236.903 2977.530 3236.721 Q 2984.281 3236.539 2992.016 3237.078 Q 2999.750 3237.616 3000.876 3237.866 "></path>
    <path id="STROKE_f631213c-2fa2-4b02-a912-bd098f6a6edb" opacity="1.000" fill="none" stroke="#f3ba38" stroke-width="3.230" stroke-opacity="1.000" stroke-linecap="round" stroke-linejoin="round" d="M 3042.049 3212.073 Q 3042.722 3211.374 3041.449 3209.739 Q 3040.177 3208.104 3039.024 3207.497 Q 3037.872 3206.890 3037.154 3206.994 Q 3036.436 3207.097 3035.033 3207.864 Q 3033.630 3208.631 3031.110 3213.300 Q 3028.591 3217.970 3027.405 3222.093 Q 3026.219 3226.216 3025.994 3231.690 Q 3025.769 3237.165 3025.665 3240.217 Q 3025.562 3243.269 3026.983 3246.154 Q 3028.404 3249.040 3030.184 3251.949 Q 3031.963 3254.858 3034.590 3255.989 Q 3037.216 3257.120 3040.281 3257.139 Q 3043.346 3257.158 3047.091 3255.616 Q 3050.837 3254.073 3054.917 3250.220 Q 3058.998 3246.367 3062.354 3241.208 Q 3065.709 3236.049 3067.114 3231.811 Q 3068.519 3227.573 3068.805 3224.067 Q 3069.091 3220.562 3068.212 3218.563 Q 3067.332 3216.564 3065.158 3214.338 Q 3062.983 3212.113 3056.433 3209.831 Q 3049.882 3207.548 3044.844 3208.350 Q 3039.806 3209.152 3038.987 3209.504 "></path>
    <path id="STROKE_d1db2b75-0b3d-4c3a-ae34-cfcc7076459d" opacity="1.000" fill="none" stroke="#f3ba38" stroke-width="1.308" stroke-opacity="1.000" stroke-linecap="round" stroke-linejoin="round" d="M 3043.834 3121.470 Q 3043.977 3120.311 3043.976 3120.553 Q 3044.023 3120.408 3044.183 3119.950 Q 3045.958 3119.379 3046.081 3152.385 Q 3046.081 3152.337 3046.792 3150.823 Q 3047.502 3149.308 3047.806 3148.693 "></path>
    <path id="STROKE_8d6603e8-cd0e-4bc7-9e2f-4d73946e5784" opacity="1.000" fill="none" stroke="#f3ba38" stroke-width="1.470" stroke-opacity="1.000" stroke-linecap="round" stroke-linejoin="round" d="M 3028.417 3158.777 Q 3027.338 3158.802 3027.549 3158.732 Q 3029.719 3156.488 3029.329 3157.196 Q 3030.102 3155.950 3039.089 3155.248 Q 3048.076 3154.546 3063.740 3154.887 Q 3061.972 3154.441 3058.071 3157.549 Q 3054.169 3160.656 3051.373 3165.235 Q 3048.576 3169.813 3046.854 3172.947 Q 3045.132 3176.081 3044.658 3177.084 Q 3044.185 3178.087 3043.351 3178.843 Q 3042.516 3179.599 3042.562 3179.390 Q 3042.608 3179.182 3042.610 3179.261 Q 3042.612 3179.341 3041.432 3179.023 Q 3040.252 3178.706 3037.831 3170.491 Q 3035.411 3162.276 3034.313 3152.421 Q 3034.255 3152.511 3035.110 3155.353 Q 3035.966 3158.195 3036.924 3160.394 Q 3037.881 3162.593 3038.139 3162.845 "></path>
    <path id="STROKE_89220454-0462-40cd-9fad-51839e69385b" opacity="1.000" fill="none" stroke="#f3ba38" stroke-width="1.530" stroke-opacity="1.000" stroke-linecap="round" stroke-linejoin="round" d="M 3039.763 3157.418 Q 3039.762 3157.418 3039.751 3157.429 Q 3039.740 3157.441 3039.755 3157.277 Q 3039.770 3157.114 3038.773 3157.992 Q 3037.776 3158.871 3037.754 3159.143 Q 3037.733 3159.415 3037.219 3166.849 Q 3037.693 3169.251 3044.132 3156.368 Q 3043.914 3158.330 3043.784 3158.273 Q 3043.105 3159.615 3041.531 3168.259 Q 3041.204 3168.258 3048.545 3159.127 Q 3049.062 3155.993 3049.199 3173.465 Q 3049.150 3173.466 3049.103 3173.466 Q 3050.271 3173.381 3050.163 3173.294 Q 3049.946 3173.786 3050.543 3172.948 Q 3051.140 3172.110 3051.444 3171.699 "></path>
    <path id="STROKE_9f7c1ea1-d903-499b-bc27-f62097b139c0" opacity="1.000" fill="none" stroke="#f3ba38" stroke-width="2.944" stroke-opacity="1.000" stroke-linecap="round" stroke-linejoin="round" d="M 2957.563 3331.790 Q 2958.088 3333.508 2958.227 3333.036 Q 2959.670 3333.407 2961.419 3333.715 Q 2963.168 3334.023 2971.202 3333.819 Q 2979.235 3333.614 2989.173 3333.050 Q 2999.111 3332.486 2999.592 3332.810 "></path>
    <path id="STROKE_401a0760-04e6-44df-b54d-785ce47e0388" opacity="1.000" fill="none" stroke="#f3ba38" stroke-width="2.917" stroke-opacity="1.000" stroke-linecap="round" stroke-linejoin="round" d="M 2952.853 3351.571 Q 2952.853 3351.627 2952.853 3351.683 Q 2954.136 3352.511 2964.561 3350.886 Q 2974.986 3349.261 2981.336 3348.220 Q 2987.687 3347.179 2992.024 3346.931 Q 2996.361 3346.682 2999.135 3348.339 Q 3001.909 3349.995 3002.675 3350.566 "></path>
    <path id="STROKE_9a0294d3-547d-4d6d-8996-0f77ded69556" opacity="1.000" fill="none" stroke="#f3ba38" stroke-width="3.230" stroke-opacity="1.000" stroke-linecap="round" stroke-linejoin="round" d="M 3039.021 3327.250 Q 3040.045 3326.268 3040.098 3326.291 Q 3041.558 3324.587 3044.816 3323.848 Q 3045.742 3325.165 3042.132 3354.180 Q 3041.994 3354.086 3042.805 3351.432 Q 3043.616 3348.779 3043.944 3348.058 "></path>
    <path id="STROKE_bed4b6a5-b06c-4626-9523-abce1f1f6c63" opacity="1.000" fill="none" stroke="#f3ba38" stroke-width="3.230" stroke-opacity="1.000" stroke-linecap="round" stroke-linejoin="round" d="M 3026.757 3338.552 Q 3026.757 3338.553 3027.785 3338.092 Q 3028.812 3337.630 3044.033 3339.769 Q 3059.253 3341.907 3060.304 3342.005 "></path>
    <path id="STROKE_968095ed-5a2c-4f7f-8b48-1db3fef86f07" opacity="1.000" fill="none" stroke="#f3ba38" stroke-width="3.230" stroke-opacity="1.000" stroke-linecap="round" stroke-linejoin="round" d="M 3091.725 3296.735 Q 3091.770 3296.734 3092.084 3296.778 Q 3091.838 3296.481 3092.990 3323.332 Q 3093.125 3323.377 3093.417 3323.354 Q 3093.709 3323.330 3093.994 3323.284 "></path>
    <path id="STROKE_d3198d0f-baf4-495e-b6b9-2697c9b910dd" opacity="1.000" fill="none" stroke="#f3ba38" stroke-width="3.230" stroke-opacity="1.000" stroke-linecap="round" stroke-linejoin="round" d="M 3079.357 3333.717 Q 3081.338 3333.711 3081.007 3333.712 Q 3080.117 3333.087 3094.241 3333.555 Q 3108.365 3334.024 3109.085 3334.212 "></path>
    <path id="STROKE_2cdea782-5e09-42b4-a8d7-f089df7314b1" opacity="1.000" fill="none" stroke="#f3ba38" stroke-width="3.230" stroke-opacity="1.000" stroke-linecap="round" stroke-linejoin="round" d="M 3085.581 3348.517 Q 3085.673 3348.367 3088.420 3347.552 Q 3091.167 3346.737 3094.442 3346.712 Q 3097.718 3346.688 3100.081 3347.173 Q 3102.444 3347.657 3104.477 3348.912 Q 3106.510 3350.167 3107.738 3353.595 Q 3108.966 3357.023 3108.808 3360.664 Q 3108.650 3364.305 3106.668 3368.811 Q 3104.686 3373.316 3102.438 3376.492 Q 3100.191 3379.669 3098.337 3380.787 Q 3096.483 3381.906 3094.098 3382.539 Q 3091.712 3383.171 3090.019 3381.574 Q 3088.326 3379.978 3088.168 3377.869 Q 3088.011 3375.760 3087.965 3374.809 Q 3087.918 3373.858 3087.997 3372.243 Q 3088.075 3370.628 3088.399 3369.199 Q 3088.723 3367.770 3088.835 3367.532 Q 3088.946 3367.295 3089.185 3366.295 Q 3089.424 3365.296 3090.574 3364.559 Q 3091.725 3363.822 3094.339 3363.482 Q 3096.952 3363.142 3100.029 3363.687 Q 3103.105 3364.231 3105.969 3366.417 Q 3108.834 3368.604 3110.800 3369.662 Q 3112.765 3370.720 3113.486 3371.055 "></path>
    <path id="STROKE_558bfb15-6780-4ff5-9da7-4181a14fa96c" opacity="1.000" fill="none" stroke="#ff9adf" stroke-width="1.530" stroke-opacity="1.000" stroke-linecap="round" stroke-linejoin="round" d="M 3075.241 2893.055 Q 3074.788 2893.750 3074.289 2890.910 Q 3073.910 2891.148 3076.246 2889.723 Q 3078.583 2888.297 3083.017 2889.024 Q 3087.451 2889.750 3090.284 2891.239 Q 3093.117 2892.727 3094.364 2893.797 Q 3095.611 2894.868 3097.014 2897.095 Q 3098.418 2899.323 3098.975 2903.395 Q 3099.532 2907.466 3098.990 2909.414 Q 3098.447 2911.362 3095.947 2915.232 Q 3093.447 2919.102 3092.058 2921.397 Q 3090.668 2923.692 3090.380 2924.721 Q 3090.092 2925.751 3090.119 2926.073 Q 3090.146 2926.396 3090.166 2926.275 Q 3090.185 2926.153 3090.218 2926.427 Q 3090.250 2926.702 3091.360 2927.680 Q 3092.471 2928.658 3093.742 2929.237 Q 3095.013 2929.816 3095.741 2929.881 Q 3096.470 2929.946 3097.919 2930.229 Q 3099.369 2930.513 3099.993 2930.666 Q 3100.616 2930.819 3101.034 2931.197 Q 3101.453 2931.575 3101.692 2932.345 Q 3101.932 2933.115 3101.886 2933.470 Q 3101.841 2933.824 3101.945 2933.604 Q 3102.049 2933.384 3101.673 2933.831 Q 3101.297 2934.279 3097.043 2936.380 Q 3092.789 2938.481 3090.759 2938.777 Q 3088.729 2939.073 3087.086 2940.111 Q 3085.444 2941.148 3085.091 2943.202 Q 3084.737 2945.256 3084.908 2946.382 Q 3085.078 2947.507 3085.360 2948.436 Q 3085.642 2949.365 3087.197 2951.194 Q 3088.752 2953.023 3090.630 2954.939 Q 3092.508 2956.856 3093.143 2960.692 Q 3093.778 2964.529 3093.703 2966.931 Q 3093.628 2969.334 3092.885 2970.635 Q 3092.141 2971.936 3091.495 2972.391 Q 3090.850 2972.846 3090.672 2973.235 Q 3090.494 2973.625 3083.785 2971.239 Q 3083.784 2971.002 3083.969 2970.237 Q 3084.154 2969.472 3084.528 2968.943 "></path>
    <path id="STROKE_0d3dc10d-deaf-4935-81ee-12c63c90f103" opacity="1.000" fill="none" stroke="#ff9adf" stroke-width="1.112" stroke-opacity="1.000" stroke-linecap="round" stroke-linejoin="round" d="M 3111.472 2931.421 Q 3112.041 2930.622 3111.991 2930.617 Q 3111.942 2930.612 3111.934 2930.690 Q 3111.926 2930.767 3112.107 2930.400 Q 3112.289 2930.033 3113.386 2929.516 Q 3114.483 2928.999 3116.000 2928.815 Q 3117.516 2928.632 3117.793 2928.581 Q 3118.071 2928.530 3122.370 2928.078 Q 3126.670 2927.626 3132.024 2929.027 Q 3137.378 2930.428 3141.405 2932.393 Q 3145.433 2934.359 3151.002 2933.976 Q 3156.572 2933.593 3160.794 2932.648 Q 3165.016 2931.704 3170.160 2932.075 Q 3175.305 2932.447 3182.038 2934.054 Q 3188.772 2935.662 3192.720 2936.133 Q 3196.667 2936.603 3199.560 2938.745 Q 3202.453 2940.886 3205.640 2944.370 Q 3208.828 2947.854 3211.736 2950.311 Q 3214.644 2952.768 3216.154 2954.047 Q 3217.664 2955.325 3221.581 2958.596 Q 3225.498 2961.866 3229.488 2968.331 Q 3233.477 2974.797 3235.072 2978.614 Q 3236.667 2982.431 3241.947 2987.286 Q 3247.228 2992.141 3250.612 2994.649 Q 3253.996 2997.158 3257.913 3002.950 Q 3261.831 3008.741 3264.415 3013.128 Q 3266.999 3017.514 3271.843 3023.634 Q 3276.688 3029.753 3280.846 3036.553 Q 3285.004 3043.353 3291.647 3060.907 Q 3298.290 3078.461 3302.164 3088.307 Q 3306.039 3098.154 3307.864 3102.462 Q 3309.688 3106.769 3310.647 3109.395 Q 3311.606 3112.020 3314.520 3118.307 Q 3317.434 3124.594 3322.045 3134.574 Q 3326.656 3144.554 3329.917 3152.022 Q 3333.178 3159.490 3335.333 3168.426 Q 3337.488 3177.363 3338.316 3181.707 Q 3339.144 3186.052 3340.803 3197.898 Q 3342.462 3209.745 3343.239 3226.301 Q 3344.015 3242.857 3343.778 3251.880 Q 3343.541 3260.903 3343.749 3265.561 Q 3343.957 3270.218 3341.243 3280.044 Q 3338.530 3289.870 3334.928 3297.347 Q 3331.327 3304.823 3329.411 3308.596 Q 3327.494 3312.369 3324.100 3316.662 Q 3320.705 3320.954 3314.773 3324.342 Q 3308.842 3327.729 3305.266 3329.430 Q 3301.691 3331.130 3294.644 3332.625 Q 3287.598 3334.120 3280.010 3336.795 Q 3272.422 3339.469 3267.898 3341.073 Q 3263.373 3342.677 3261.250 3343.176 Q 3259.126 3343.674 3254.511 3344.496 Q 3249.896 3345.319 3240.907 3347.230 Q 3231.917 3349.141 3222.008 3349.852 Q 3212.098 3350.562 3207.077 3350.757 Q 3202.057 3350.952 3195.488 3351.973 Q 3188.919 3352.995 3182.996 3353.227 Q 3182.996 3353.172 3182.995 3353.081 Q 3184.439 3353.085 3184.180 3353.179 Q 3184.238 3353.113 3185.104 3354.007 Q 3185.970 3354.900 3186.460 3355.637 Q 3186.950 3356.375 3187.176 3356.711 "></path>
    <path id="STROKE_8cada623-099a-4398-8bfb-ef642d35da34" opacity="1.000" fill="none" stroke="#ff9adf" stroke-width="1.257" stroke-opacity="1.000" stroke-linecap="round" stroke-linejoin="round" d="M 3186.031 3325.278 Q 3186.031 3325.278 3186.008 3325.391 Q 3185.985 3325.505 3186.051 3325.793 Q 3186.116 3326.082 3186.245 3326.818 Q 3186.374 3327.554 3186.407 3328.065 Q 3186.440 3328.576 3186.585 3329.818 Q 3186.729 3331.060 3186.983 3338.612 Q 3187.237 3346.165 3183.536 3373.138 Q 3183.866 3372.584 3183.475 3369.033 Q 3183.083 3365.481 3183.406 3363.191 Q 3183.729 3360.900 3183.164 3360.122 Q 3182.599 3359.344 3181.930 3359.017 Q 3181.262 3358.690 3179.511 3358.440 Q 3177.760 3358.191 3176.312 3358.073 Q 3174.865 3357.955 3173.335 3357.690 Q 3171.804 3357.426 3149.254 3354.858 Q 3149.017 3354.744 3158.272 3347.605 Q 3167.526 3340.466 3186.724 3326.243 Q 3185.385 3326.905 3185.385 3327.002 Q 3185.385 3327.100 3185.328 3327.047 Q 3185.271 3326.994 3185.281 3327.244 Q 3185.292 3327.495 3179.606 3334.878 Q 3173.920 3342.262 3159.850 3357.266 Q 3160.008 3358.087 3164.094 3354.000 Q 3168.181 3349.913 3184.339 3331.220 Q 3183.915 3331.573 3180.931 3334.421 Q 3177.948 3337.269 3173.193 3342.910 Q 3168.438 3348.551 3165.847 3356.383 Q 3166.314 3358.243 3171.138 3352.694 Q 3175.963 3347.146 3179.149 3342.799 Q 3182.335 3338.453 3185.302 3332.307 Q 3183.767 3332.671 3180.258 3338.120 Q 3176.749 3343.569 3171.456 3356.175 Q 3171.716 3356.322 3185.805 3339.716 Q 3185.527 3341.053 3181.867 3346.771 Q 3178.208 3352.489 3177.337 3361.801 Q 3179.153 3363.411 3181.046 3358.893 Q 3182.939 3354.374 3183.268 3353.845 "></path>
    <path id="STROKE_1efba7c1-ac35-47a7-a645-e26aa1470e08" opacity="1.000" fill="none" stroke="#f45e58" stroke-width="2.984" stroke-opacity="1.000" stroke-linecap="round" stroke-linejoin="round" d="M 3145.745 2749.659 Q 3145.638 2748.314 3145.688 2748.737 Q 3145.657 2748.568 3145.585 2747.655 Q 3145.127 2748.097 3145.486 2758.508 Q 3145.845 2768.918 3148.414 2779.594 Q 3148.506 2779.599 3148.666 2779.567 Q 3149.457 2777.101 3150.635 2772.551 Q 3151.812 2768.001 3152.885 2764.232 Q 3153.958 2760.464 3154.557 2758.036 Q 3155.156 2755.607 3156.905 2753.217 Q 3158.654 2750.826 3160.144 2749.297 Q 3161.635 2747.768 3163.847 2747.503 Q 3165.487 2747.880 3166.207 2774.982 Q 3166.362 2773.515 3166.349 2773.764 Q 3166.550 2771.678 3166.510 2772.182 Q 3166.276 2771.607 3167.492 2766.934 Q 3168.708 2762.261 3170.401 2758.629 Q 3172.093 2754.996 3173.056 2753.147 Q 3174.018 2751.298 3174.604 2749.827 Q 3175.190 2748.356 3177.459 2747.520 Q 3179.729 2746.683 3180.959 2746.712 Q 3182.188 2746.741 3183.143 2746.666 Q 3184.098 2746.592 3184.873 2747.730 Q 3185.647 2748.868 3186.451 2754.222 Q 3187.254 2759.577 3186.409 2775.770 Q 3186.894 2775.009 3187.639 2772.986 Q 3188.385 2770.962 3188.715 2770.436 "></path>
    <path id="STROKE_42ea17e9-6db0-48a2-b1a1-063a1466955d" opacity="1.000" fill="none" stroke="#f45e58" stroke-width="2.958" stroke-opacity="1.000" stroke-linecap="round" stroke-linejoin="round" d="M 3192.128 2784.958 Q 3192.128 2784.958 3193.072 2784.992 Q 3194.016 2785.027 3193.484 2784.988 Q 3193.646 2784.946 3194.383 2784.388 Q 3195.120 2783.830 3195.035 2783.699 Q 3194.950 2783.569 3195.442 2783.312 Q 3195.934 2783.054 3199.832 2777.943 Q 3203.730 2772.832 3205.961 2768.793 Q 3208.192 2764.755 3208.714 2762.422 Q 3209.236 2760.089 3209.624 2758.346 Q 3210.012 2756.603 3208.575 2755.683 Q 3207.137 2754.762 3206.216 2754.491 Q 3205.294 2754.221 3204.496 2754.152 Q 3203.697 2754.083 3202.523 2755.998 Q 3201.350 2757.912 3200.585 2761.796 Q 3199.821 2765.679 3199.557 2768.835 Q 3199.292 2771.991 3199.189 2774.687 Q 3199.086 2777.382 3199.542 2779.303 Q 3199.997 2781.224 3201.168 2782.220 Q 3202.339 2783.216 3203.561 2783.514 Q 3204.783 2783.811 3206.166 2783.840 Q 3207.548 2783.869 3210.108 2783.875 Q 3212.667 2783.880 3214.271 2784.050 Q 3215.876 2784.220 3216.382 2784.375 "></path>
    <path id="STROKE_65344a38-8ffb-4906-9af4-c43c4bc24961" opacity="1.000" fill="none" stroke="#f45e58" stroke-width="2.959" stroke-opacity="1.000" stroke-linecap="round" stroke-linejoin="round" d="M 2845.210 3203.095 Q 2845.210 3203.095 2845.590 3203.700 Q 2845.970 3204.304 2845.826 3204.328 Q 2846.775 3206.656 2847.533 3212.257 Q 2848.291 3217.859 2848.463 3223.172 Q 2848.635 3228.485 2848.727 3231.056 Q 2848.820 3233.627 2849.241 3235.445 Q 2849.663 3237.264 2849.634 3237.161 Q 2849.604 3237.058 2850.371 3237.621 Q 2851.139 3238.184 2852.048 3236.941 Q 2852.958 3235.698 2855.307 3229.996 Q 2857.656 3224.293 2859.465 3219.894 Q 2861.275 3215.495 2862.336 3212.875 Q 2863.398 3210.255 2864.496 3207.486 Q 2865.594 3204.718 2866.236 3203.351 Q 2866.878 3201.985 2868.013 3201.067 Q 2869.147 3200.150 2869.849 3200.502 Q 2870.550 3200.855 2871.133 3201.232 Q 2871.716 3201.609 2872.799 3204.023 Q 2873.882 3206.437 2874.663 3210.582 Q 2875.444 3214.727 2876.782 3231.996 Q 2878.195 3231.974 2880.662 3222.726 Q 2883.128 3213.478 2884.656 3207.580 Q 2886.185 3201.681 2889.289 3198.029 Q 2889.631 3198.058 2891.093 3206.054 Q 2892.555 3214.051 2894.710 3220.949 Q 2896.865 3227.848 2897.541 3235.467 Q 2897.551 3235.703 2897.433 3234.750 Q 2897.314 3233.796 2897.143 3233.417 "></path>
    <path id="STROKE_f5eabb75-337d-494b-a160-7b37a350dda1" opacity="1.000" fill="none" stroke="#f45e58" stroke-width="2.973" stroke-opacity="1.000" stroke-linecap="round" stroke-linejoin="round" d="M 2903.811 3245.359 Q 2903.811 3245.359 2903.932 3245.490 Q 2904.052 3245.622 2906.818 3243.668 Q 2909.584 3241.715 2911.219 3239.709 Q 2912.854 3237.704 2914.713 3234.712 Q 2916.572 3231.719 2918.124 3228.281 Q 2919.676 3224.843 2919.951 3222.181 Q 2920.226 3219.518 2920.339 3217.847 Q 2920.452 3216.175 2919.870 3215.447 Q 2919.287 3214.718 2918.043 3214.383 Q 2916.798 3214.048 2916.144 3214.602 Q 2915.490 3215.156 2915.461 3215.516 Q 2915.431 3215.875 2915.211 3215.755 Q 2914.990 3215.635 2913.536 3219.721 Q 2912.082 3223.806 2911.899 3228.191 Q 2911.716 3232.575 2911.594 3234.835 Q 2911.471 3237.095 2911.987 3239.453 Q 2912.502 3241.811 2916.127 3243.973 Q 2919.752 3246.135 2922.205 3247.517 Q 2924.657 3248.899 2924.930 3249.121 "></path>
    <path id="STROKE_e6c27557-d008-47f6-baab-e113f6ab8000" opacity="1.000" fill="none" stroke="#f45e58" stroke-width="2.823" stroke-opacity="1.000" stroke-linecap="round" stroke-linejoin="round" d="M 2855.234 3321.464 Q 2855.211 3320.907 2855.163 3319.777 Q 2855.146 3319.630 2855.900 3327.784 Q 2856.654 3335.938 2858.131 3355.605 Q 2858.344 3355.534 2858.196 3355.633 Q 2858.048 3355.731 2858.826 3355.452 Q 2859.604 3355.172 2861.550 3350.470 Q 2863.497 3345.768 2874.078 3320.198 Q 2874.453 3320.232 2875.532 3326.813 Q 2876.612 3333.395 2875.441 3350.683 Q 2875.493 3349.933 2878.833 3341.420 Q 2882.174 3332.908 2883.745 3327.358 Q 2885.315 3321.809 2887.992 3318.620 Q 2889.025 3319.729 2888.823 3319.085 Q 2888.622 3318.441 2889.753 3321.606 Q 2890.883 3324.772 2891.201 3327.492 Q 2891.518 3330.212 2891.977 3333.616 Q 2892.435 3337.021 2893.585 3354.409 Q 2893.583 3354.374 2893.547 3353.935 Q 2893.510 3353.496 2893.461 3353.192 "></path>
    <path id="STROKE_5c804f9e-c648-4463-b12f-04a5e156d712" opacity="1.000" fill="none" stroke="#f45e58" stroke-width="3.060" stroke-opacity="1.000" stroke-linecap="round" stroke-linejoin="round" d="M 2916.622 3340.616 Q 2916.339 3340.479 2915.210 3339.844 Q 2914.082 3339.209 2912.496 3339.072 Q 2910.910 3338.934 2909.721 3339.858 Q 2908.532 3340.782 2908.028 3343.243 Q 2907.525 3345.703 2909.279 3347.999 Q 2911.032 3350.294 2912.685 3352.421 Q 2914.337 3354.548 2914.804 3356.918 Q 2915.270 3359.288 2915.506 3360.901 Q 2915.742 3362.513 2914.976 3363.712 Q 2914.210 3364.911 2914.072 3365.141 Q 2913.934 3365.372 2912.118 3365.834 Q 2910.303 3366.297 2908.898 3365.730 Q 2907.493 3365.164 2907.219 3364.906 "></path>
    <path id="STROKE_0baf81a2-9da6-48d0-8afe-9f398990ecaf" opacity="1.000" fill="none" stroke="#f45e58" stroke-width="3.060" stroke-opacity="1.000" stroke-linecap="round" stroke-linejoin="round" d="M 2907.056 3069.953 Q 2906.818 3069.963 2906.357 3069.982 Q 2906.615 3070.219 2914.623 3070.124 Q 2922.631 3070.029 2923.457 3070.159 "></path>
    <path id="STROKE_59f31bbb-862a-43af-a424-25ac667859a4" opacity="1.000" fill="none" stroke="#f45e58" stroke-width="3.060" stroke-opacity="1.000" stroke-linecap="round" stroke-linejoin="round" d="M 2935.711 3062.243 Q 2935.853 3062.409 2936.597 3060.849 Q 2937.341 3059.290 2944.618 3056.329 Q 2945.103 3055.964 2943.787 3065.299 Q 2942.471 3074.635 2942.300 3075.092 "></path>
    <path id="STROKE_f81ef185-e515-495d-9375-a311ede935f1" opacity="1.000" fill="none" stroke="#f45e58" stroke-width="2.840" stroke-opacity="1.000" stroke-linecap="round" stroke-linejoin="round" d="M 2929.528 3082.580 Q 2930.803 3082.526 2930.566 3082.536 Q 2931.833 3081.197 2945.124 3080.778 Q 2958.415 3080.359 2959.061 3080.489 "></path>
    <path id="STROKE_7ad63234-b188-4753-807e-c335673131c9" opacity="1.000" fill="none" stroke="#f45e58" stroke-width="3.060" stroke-opacity="1.000" stroke-linecap="round" stroke-linejoin="round" d="M 3051.777 3067.396 Q 3051.823 3068.529 3051.771 3062.039 Q 3050.982 3061.143 3049.113 3061.536 Q 3047.244 3061.930 3046.163 3062.731 Q 3045.082 3063.533 3044.358 3064.342 Q 3043.633 3065.151 3043.073 3065.708 Q 3042.513 3066.266 3041.526 3068.093 Q 3040.539 3069.921 3040.263 3072.487 Q 3039.987 3075.052 3040.337 3076.828 Q 3040.688 3078.604 3042.052 3080.396 Q 3043.416 3082.188 3046.051 3082.706 Q 3048.686 3083.224 3050.765 3082.739 Q 3052.844 3082.255 3054.346 3081.160 Q 3055.848 3080.064 3057.380 3078.541 Q 3058.913 3077.017 3060.193 3074.646 Q 3061.473 3072.276 3061.960 3069.719 Q 3062.448 3067.162 3061.411 3065.565 Q 3060.375 3063.968 3057.383 3062.441 Q 3054.391 3060.915 3052.199 3061.563 Q 3050.007 3062.211 3049.923 3062.373 "></path>
    <path id="STROKE_62fc42ff-1630-495e-bd10-c741a5d63723" opacity="1.000" fill="none" stroke="#f45e58" stroke-width="3.060" stroke-opacity="1.000" stroke-linecap="round" stroke-linejoin="round" d="M 3181.073 3077.270 Q 3181.227 3077.725 3180.833 3076.544 Q 3180.440 3075.363 3194.957 3063.178 Q 3195.282 3064.840 3195.174 3064.767 Q 3195.148 3065.567 3195.620 3072.350 Q 3196.093 3079.133 3195.911 3082.640 Q 3195.729 3086.147 3195.448 3086.354 "></path>
    <path id="STROKE_5a67df6d-fda2-4d55-ac18-1a73a6646f22" opacity="1.000" fill="none" stroke="#f45e58" stroke-width="3.060" stroke-opacity="1.000" stroke-linecap="round" stroke-linejoin="round" d="M 3181.106 3091.297 Q 3180.661 3091.712 3184.934 3091.423 Q 3189.207 3091.133 3197.864 3090.692 Q 3206.521 3090.251 3206.989 3089.946 "></path>
    <path id="STROKE_7add34f7-21f1-4441-a063-7ef27f3c453c" opacity="1.000" fill="none" stroke="#f45e58" stroke-width="3.060" stroke-opacity="1.000" stroke-linecap="round" stroke-linejoin="round" d="M 3161.456 3074.860 Q 3161.456 3074.860 3161.441 3074.860 Q 3161.426 3074.861 3161.396 3074.862 Q 3161.046 3073.637 3161.643 3091.101 Q 3161.543 3091.105 3161.444 3091.109 "></path>
    <path id="STROKE_c1f0c92b-e906-4f98-ae8e-e76ab19bdee8" opacity="1.000" fill="none" stroke="#f45e58" stroke-width="3.060" stroke-opacity="1.000" stroke-linecap="round" stroke-linejoin="round" d="M 3152.864 3083.700 Q 3152.625 3083.677 3157.126 3083.570 Q 3161.628 3083.463 3164.090 3084.035 Q 3166.552 3084.606 3166.781 3084.822 "></path>
    <path id="STROKE_e8775241-1284-4a52-af4b-4fd308d4fadb" opacity="1.000" fill="none" stroke="#ff9adf" stroke-width="1.196" stroke-opacity="1.000" stroke-linecap="round" stroke-linejoin="round" d="M 3077.700 3071.201 Q 3077.641 3070.020 3077.635 3070.298 Q 3077.448 3069.220 3077.476 3069.512 Q 3077.360 3068.817 3077.344 3068.914 Q 3077.309 3068.740 3077.245 3068.495 Q 3077.720 3068.858 3081.042 3069.215 Q 3084.365 3069.573 3088.619 3069.483 Q 3092.873 3069.394 3097.999 3070.303 Q 3103.124 3071.213 3107.499 3071.492 Q 3111.874 3071.772 3113.810 3071.638 Q 3115.747 3071.504 3117.210 3071.382 Q 3118.674 3071.260 3121.489 3070.949 Q 3124.305 3070.639 3127.078 3071.004 Q 3126.563 3070.752 3125.743 3075.543 Q 3124.923 3080.334 3124.758 3084.621 Q 3124.592 3088.907 3124.346 3095.263 Q 3124.101 3101.619 3123.070 3108.360 Q 3122.039 3115.101 3121.458 3121.409 Q 3120.878 3127.717 3120.507 3130.645 Q 3120.135 3133.573 3120.551 3139.387 Q 3120.966 3145.201 3121.586 3155.348 Q 3122.207 3165.495 3122.616 3171.313 Q 3123.024 3177.132 3123.280 3182.438 Q 3123.535 3187.744 3123.823 3192.177 Q 3124.111 3196.610 3123.772 3203.867 Q 3123.434 3211.124 3123.311 3214.772 Q 3123.187 3218.421 3123.131 3219.956 Q 3123.075 3221.491 3123.105 3224.159 Q 3123.135 3226.828 3123.167 3229.918 Q 3123.594 3229.939 3118.844 3229.878 Q 3114.093 3229.818 3111.513 3229.841 Q 3108.933 3229.865 3107.430 3229.671 Q 3105.927 3229.478 3105.757 3229.318 Q 3105.586 3229.158 3104.762 3229.374 Q 3103.938 3229.589 3103.373 3229.782 Q 3102.808 3229.974 3102.875 3229.931 Q 3102.942 3229.888 3102.933 3229.915 Q 3102.924 3229.941 3102.610 3230.116 Q 3102.295 3230.292 3101.988 3231.044 Q 3101.795 3231.052 3102.503 3231.005 Q 3103.211 3230.958 3103.415 3230.916 "></path>
    <path id="STROKE_7f212645-ee9c-47b9-8335-94c222191604" opacity="1.000" fill="none" stroke="#ff9adf" stroke-width="1.278" stroke-opacity="1.000" stroke-linecap="round" stroke-linejoin="round" d="M 3101.609 3222.103 Q 3101.450 3222.559 3101.743 3220.565 Q 3102.036 3218.572 3103.553 3216.206 Q 3103.609 3215.838 3104.110 3219.321 Q 3104.612 3222.805 3103.197 3240.567 Q 3103.280 3240.876 3103.270 3240.230 Q 3103.259 3239.584 3103.192 3239.198 Q 3103.126 3238.811 3102.747 3238.320 Q 3102.367 3237.828 3102.396 3237.883 Q 3102.426 3237.938 3102.375 3237.845 Q 3102.324 3237.752 3101.320 3237.234 Q 3100.316 3236.717 3096.518 3236.376 Q 3092.720 3236.036 3088.818 3234.334 Q 3088.757 3234.506 3088.825 3233.679 Q 3088.894 3232.852 3092.502 3229.319 Q 3096.111 3225.786 3103.416 3217.810 Q 3103.617 3218.194 3100.323 3223.468 Q 3097.028 3228.743 3094.117 3234.680 Q 3094.649 3235.649 3101.498 3222.000 Q 3100.969 3222.699 3099.174 3225.760 Q 3097.380 3228.821 3096.508 3230.938 Q 3095.637 3233.056 3095.431 3234.853 Q 3095.215 3235.405 3096.016 3234.474 Q 3096.816 3233.543 3097.927 3231.334 Q 3099.038 3229.124 3099.636 3227.756 Q 3100.233 3226.388 3101.776 3221.814 Q 3101.237 3222.677 3100.068 3225.327 Q 3098.900 3227.977 3096.098 3235.792 Q 3096.670 3236.639 3102.304 3226.237 Q 3101.311 3226.814 3100.132 3237.568 Q 3101.280 3236.985 3100.969 3237.015 Q 3101.204 3236.681 3102.129 3235.351 Q 3103.054 3234.020 3103.250 3233.783 "></path>
    <path id="STROKE_f6b6fb00-eb75-4f5c-b8a5-9ae4f2b57069" opacity="1.000" fill="none" stroke="#ff9adf" stroke-width="1.289" stroke-opacity="1.000" stroke-linecap="round" stroke-linejoin="round" d="M 3080.898 3062.123 Q 3080.857 3061.945 3080.882 3060.472 Q 3080.909 3060.470 3080.936 3060.469 Q 3081.147 3060.441 3080.552 3081.004 Q 3080.927 3081.620 3080.548 3080.006 Q 3080.170 3078.392 3080.062 3077.564 Q 3079.953 3076.738 3079.467 3076.137 Q 3078.980 3075.537 3078.555 3075.415 Q 3078.130 3075.292 3077.800 3075.128 Q 3077.469 3074.964 3076.982 3074.842 Q 3076.494 3074.721 3076.579 3074.660 Q 3076.663 3074.598 3074.748 3074.517 Q 3072.832 3074.436 3070.280 3074.913 Q 3070.281 3074.940 3070.283 3074.993 Q 3071.183 3074.158 3071.047 3074.196 Q 3071.602 3073.765 3074.253 3069.447 Q 3076.904 3065.129 3080.744 3061.444 Q 3080.817 3061.526 3078.505 3065.611 Q 3076.193 3069.695 3074.803 3075.554 Q 3075.075 3075.903 3080.474 3063.107 Q 3080.473 3063.192 3078.998 3066.587 Q 3077.524 3069.982 3076.345 3076.858 Q 3076.866 3076.810 3080.561 3065.158 Q 3080.168 3065.274 3078.464 3074.432 Q 3078.944 3074.148 3078.845 3074.127 Q 3079.202 3073.735 3079.171 3073.771 Q 3079.674 3073.539 3080.112 3072.169 Q 3080.549 3070.799 3080.673 3070.337 "></path>
    <path id="STROKE_87f51724-6e85-46a1-891f-59ed06446352" opacity="1.000" fill="none" stroke="#f45e58" stroke-width="2.912" stroke-opacity="1.000" stroke-linecap="round" stroke-linejoin="round" d="M 3400.314 2754.219 Q 3400.352 2754.278 3400.298 2753.894 Q 3400.244 2753.510 3399.865 2751.699 Q 3399.538 2751.704 3401.978 2780.458 Q 3402.621 2780.957 3415.754 2745.804 Q 3417.365 2745.600 3418.370 2774.313 Q 3418.769 2773.643 3418.625 2774.227 Q 3418.481 2774.811 3419.899 2771.568 Q 3421.317 2768.326 3423.625 2762.439 Q 3425.933 2756.552 3427.634 2752.209 Q 3429.335 2747.867 3433.003 2744.588 Q 3434.437 2741.953 3437.995 2771.228 Q 3439.840 2771.073 3439.609 2771.064 Q 3439.377 2771.055 3439.507 2770.993 "></path>
    <path id="STROKE_3af58c1b-48d1-4126-849c-59c7be6020fa" opacity="1.000" fill="none" stroke="#f45e58" stroke-width="3.060" stroke-opacity="1.000" stroke-linecap="round" stroke-linejoin="round" d="M 3459.702 2762.491 Q 3459.721 2763.089 3458.229 2762.051 Q 3456.736 2761.013 3455.038 2760.731 Q 3453.341 2760.449 3452.217 2761.242 Q 3451.094 2762.035 3450.727 2762.560 Q 3450.360 2763.084 3450.196 2763.547 Q 3450.033 2764.010 3450.074 2763.966 Q 3450.115 2763.923 3450.075 2763.858 Q 3450.034 2763.794 3449.879 2765.074 Q 3449.723 2766.353 3449.745 2767.762 Q 3449.766 2769.171 3450.021 2770.095 Q 3450.277 2771.019 3451.241 2771.795 Q 3452.206 2772.571 3451.985 2772.538 Q 3451.763 2772.504 3454.014 2773.204 Q 3456.265 2773.905 3459.279 2776.228 Q 3462.293 2778.552 3462.495 2780.872 Q 3462.696 2783.193 3462.957 2784.972 Q 3463.217 2786.751 3462.692 2787.803 Q 3462.168 2788.854 3460.605 2789.885 Q 3459.043 2790.915 3457.776 2790.852 Q 3456.510 2790.789 3455.882 2791.477 Q 3455.255 2792.165 3453.458 2789.554 Q 3451.659 2786.942 3451.392 2786.469 "></path>
  </g>
</svg>