<?xml version="1.0" encoding="UTF-8" standalone="yes"?>
<svg xmlns="http://www.w3.org/2000/svg" xmlns:xlink="http://www.w3.org/1999/xlink" width="768.283pt" height="638.353pt" version="1.1" viewBox="5997.830 4860.480 768.283 638.353">
  <!--
	Exported with Concepts: Smarter Sketching
	Version: 1059 on iOS 15.4
	https://concepts.app/
	-->
  <title>Untitled 1</title>
  <desc>Drawing exported from Concepts: Smarter Sketching</desc>
  <defs></defs>
  <g id="New_Layer_7" opacity="1.000">
    <path id="STROKE_8ac2f337-305f-4414-8a9f-648ae6cebf6e" opacity="1.000" fill="none" stroke="#f3ba38" stroke-width="4.388" stroke-opacity="1.000" stroke-linecap="round" stroke-linejoin="round" d="M 6229.988 4927.249 Q 6229.848 4926.083 6229.904 4926.319 Q 6229.904 4925.021 6229.904 4925.249 Q 6229.904 4923.809 6229.904 4924.124 Q 6229.744 4923.595 6229.931 4923.002 Q 6230.117 4922.410 6229.663 4922.122 Q 6229.209 4921.834 6228.051 4921.378 Q 6226.893 4920.922 6224.471 4922.258 Q 6222.048 4923.594 6220.624 4924.985 Q 6219.200 4926.377 6217.556 4928.306 Q 6215.913 4930.233 6213.694 4933.989 Q 6211.477 4937.745 6210.527 4941.148 Q 6209.578 4944.553 6209.150 4948.132 Q 6208.722 4951.711 6209.628 4954.396 Q 6210.534 4957.080 6211.658 4959.053 Q 6212.782 4961.025 6216.621 4961.537 Q 6220.460 4962.048 6224.688 4960.734 Q 6228.915 4959.420 6229.508 4959.092 "></path>
    <path id="STROKE_3a289d18-162e-4172-b4ca-fffc4ae09a42" opacity="1.000" fill="none" stroke="#f3ba38" stroke-width="4.356" stroke-opacity="1.000" stroke-linecap="round" stroke-linejoin="round" d="M 6243.015 4940.186 Q 6242.904 4940.012 6243.159 4939.312 Q 6243.414 4938.611 6241.733 4935.202 Q 6241.168 4934.433 6239.924 4938.483 Q 6238.679 4942.534 6238.587 4945.398 Q 6238.496 4948.262 6238.487 4950.058 Q 6238.479 4951.854 6239.388 4953.851 Q 6240.296 4955.848 6242.505 4956.678 Q 6244.714 4957.508 6246.671 4957.117 Q 6248.629 4956.727 6251.019 4953.795 Q 6253.409 4950.864 6255.178 4948.224 Q 6256.946 4945.584 6258.376 4933.280 Q 6258.345 4933.280 6258.189 4933.280 Q 6257.617 4933.382 6257.912 4939.827 Q 6258.206 4946.271 6258.519 4953.723 Q 6258.831 4961.174 6258.810 4966.357 Q 6258.789 4971.541 6258.512 4975.513 Q 6258.234 4979.485 6257.678 4981.933 Q 6257.122 4984.380 6256.446 4985.405 Q 6255.771 4986.430 6255.126 4987.148 Q 6254.481 4987.867 6253.032 4988.302 Q 6251.583 4988.737 6248.683 4987.865 Q 6245.782 4986.992 6244.116 4986.277 Q 6242.451 4985.562 6241.885 4985.122 Q 6241.319 4984.682 6241.239 4984.029 Q 6241.158 4983.376 6242.107 4982.395 Q 6243.057 4981.413 6243.349 4980.983 "></path>
    <path id="STROKE_d21927cc-3970-4df5-bbb2-d8e2677ac221" opacity="1.000" fill="none" stroke="#f3ba38" stroke-width="4.420" stroke-opacity="1.000" stroke-linecap="round" stroke-linejoin="round" d="M 6284.139 4935.874 Q 6284.342 4935.999 6284.077 4930.725 Q 6282.463 4929.642 6278.998 4933.307 Q 6275.532 4936.971 6273.171 4940.982 Q 6270.809 4944.994 6269.849 4947.208 Q 6268.888 4949.422 6268.332 4951.496 Q 6267.776 4953.570 6267.759 4955.533 Q 6267.743 4957.497 6267.938 4958.988 Q 6268.134 4960.479 6269.042 4962.058 Q 6269.950 4963.636 6271.321 4964.692 Q 6272.691 4965.750 6275.433 4966.125 Q 6278.174 4966.500 6281.597 4963.159 Q 6285.019 4959.819 6287.687 4955.940 Q 6290.354 4952.062 6291.728 4948.818 Q 6293.101 4945.575 6293.793 4943.408 Q 6294.484 4941.241 6295.078 4938.561 Q 6295.672 4935.881 6294.144 4933.405 Q 6292.948 4932.949 6292.103 4939.154 Q 6291.258 4945.359 6291.197 4948.969 Q 6291.136 4952.579 6291.179 4954.228 Q 6291.221 4955.876 6292.154 4957.146 Q 6293.087 4958.417 6295.639 4957.944 Q 6298.190 4957.471 6300.690 4955.594 Q 6303.190 4953.717 6303.753 4953.186 "></path>
    <path id="STROKE_23b6e731-c5ca-405d-a04d-39dc55cad9ed" opacity="1.000" fill="none" stroke="#f3ba38" stroke-width="4.420" stroke-opacity="1.000" stroke-linecap="round" stroke-linejoin="round" d="M 6316.259 4933.077 Q 6316.218 4933.281 6315.040 4931.561 Q 6315.123 4931.284 6314.987 4936.834 Q 6314.851 4942.384 6314.234 4947.800 Q 6313.618 4953.215 6313.612 4958.295 Q 6313.973 4957.919 6316.776 4950.972 Q 6319.580 4944.025 6321.104 4940.291 Q 6322.629 4936.556 6323.441 4934.780 Q 6324.253 4933.005 6325.764 4933.045 Q 6325.819 4933.222 6327.575 4937.214 Q 6329.332 4941.206 6328.119 4956.764 Q 6328.104 4956.890 6328.125 4956.021 Q 6328.145 4955.152 6328.372 4954.052 Q 6328.599 4952.952 6328.765 4952.389 "></path>
    <path id="STROKE_91ea7964-952a-4785-bfaa-412685f06ba3" opacity="1.000" fill="none" stroke="#f3ba38" stroke-width="4.420" stroke-opacity="1.000" stroke-linecap="round" stroke-linejoin="round" d="M 6340.896 4960.092 Q 6339.571 4959.307 6340.479 4953.246 Q 6341.386 4947.186 6341.625 4946.624 "></path>
    <path id="STROKE_e2e2cf6b-0abe-4963-b567-95ea40a63b70" opacity="1.000" fill="none" stroke="#f3ba38" stroke-width="4.420" stroke-opacity="1.000" stroke-linecap="round" stroke-linejoin="round" d="M 6342.751 4931.624 Q 6342.369 4931.721 6341.417 4931.327 Q 6341.417 4931.295 6341.500 4931.127 Q 6341.584 4930.959 6341.750 4930.827 "></path>
    <path id="STROKE_cfb402c3-e802-444d-a878-cee5f7c99101" opacity="1.000" fill="none" stroke="#f3ba38" stroke-width="4.363" stroke-opacity="1.000" stroke-linecap="round" stroke-linejoin="round" d="M 6367.117 4944.561 Q 6367.189 4944.554 6366.653 4943.621 Q 6366.118 4942.688 6365.726 4941.941 Q 6365.333 4941.193 6364.913 4940.788 Q 6364.493 4940.382 6364.643 4940.470 Q 6364.793 4940.558 6364.041 4940.067 Q 6363.289 4939.576 6362.072 4939.371 Q 6360.856 4939.167 6359.975 4939.946 Q 6359.094 4940.726 6358.092 4942.000 Q 6357.091 4943.275 6356.177 4945.348 Q 6355.264 4947.421 6354.971 4950.492 Q 6354.679 4953.563 6354.697 4955.568 Q 6354.716 4957.574 6355.225 4958.985 Q 6355.734 4960.396 6356.842 4961.052 Q 6357.951 4961.707 6359.910 4960.701 Q 6361.869 4959.695 6365.409 4954.462 Q 6368.950 4949.229 6372.327 4942.850 Q 6375.704 4936.469 6378.769 4920.811 Q 6377.972 4919.911 6376.174 4923.313 Q 6374.375 4926.716 6373.576 4929.422 Q 6372.777 4932.128 6372.263 4933.840 Q 6371.749 4935.552 6371.148 4939.619 Q 6370.548 4943.687 6370.516 4947.200 Q 6370.484 4950.713 6370.578 4952.728 Q 6370.671 4954.742 6372.214 4958.004 Q 6373.756 4961.265 6379.405 4957.210 Q 6385.053 4953.155 6385.855 4952.389 "></path>
    <path id="STROKE_40d390a3-9508-4058-9bb0-d62b50a4bb9c" opacity="1.000" fill="none" stroke="#f3ba38" stroke-width="4.420" stroke-opacity="1.000" stroke-linecap="round" stroke-linejoin="round" d="M 6393.005 4944.827 Q 6393.540 4946.719 6398.701 4945.193 Q 6403.862 4943.667 6407.669 4941.926 Q 6411.476 4940.185 6413.578 4938.589 Q 6415.680 4936.994 6416.794 4935.869 Q 6417.909 4934.745 6417.911 4933.289 Q 6417.913 4931.833 6417.686 4931.092 Q 6417.458 4930.351 6416.998 4929.771 Q 6416.538 4929.191 6415.909 4928.599 Q 6415.280 4928.006 6414.733 4927.709 Q 6414.187 4927.412 6412.733 4926.979 Q 6411.280 4926.547 6408.534 4927.552 Q 6405.787 4928.557 6403.156 4931.024 Q 6400.526 4933.493 6398.771 4936.098 Q 6397.016 4938.703 6396.374 4941.687 Q 6395.732 4944.671 6395.835 4947.147 Q 6395.938 4949.624 6396.700 4951.532 Q 6397.463 4953.441 6398.445 4954.935 Q 6399.427 4956.429 6401.653 4957.175 Q 6403.880 4957.921 6406.556 4958.115 Q 6409.231 4958.310 6412.488 4956.725 Q 6415.745 4955.139 6416.433 4954.639 "></path>
    <path id="STROKE_cffb464a-da0c-4901-9c13-0dfe2b7f755e" opacity="1.000" fill="none" stroke="#f3ba38" stroke-width="4.420" stroke-opacity="1.000" stroke-linecap="round" stroke-linejoin="round" d="M 6446.698 4934.811 Q 6447.826 4934.204 6456.441 4933.610 Q 6465.058 4933.016 6469.587 4933.863 Q 6474.117 4934.709 6474.253 4934.874 "></path>
    <path id="STROKE_61f4094c-b7a8-45d8-a240-0a5cf6a40a92" opacity="1.000" fill="none" stroke="#f3ba38" stroke-width="4.420" stroke-opacity="1.000" stroke-linecap="round" stroke-linejoin="round" d="M 6446.177 4948.202 Q 6445.580 4947.807 6447.060 4948.570 Q 6448.539 4949.333 6450.368 4949.929 Q 6452.198 4950.524 6453.449 4950.653 Q 6454.700 4950.782 6456.186 4950.846 Q 6457.671 4950.910 6460.319 4950.847 Q 6462.967 4950.784 6471.138 4949.532 Q 6479.308 4948.280 6480.464 4948.014 "></path>
    <path id="STROKE_a5973fa6-500b-4d05-acf7-7f86af1b0028" opacity="1.000" fill="none" stroke="#f3ba38" stroke-width="4.416" stroke-opacity="1.000" stroke-linecap="round" stroke-linejoin="round" d="M 6564.693 4915.170 Q 6564.321 4914.670 6562.172 4913.906 Q 6560.023 4913.141 6558.101 4913.237 Q 6556.178 4913.333 6553.113 4915.371 Q 6550.048 4917.409 6548.279 4918.832 Q 6546.510 4920.255 6543.744 4922.914 Q 6540.979 4925.573 6539.073 4929.190 Q 6537.167 4932.808 6536.311 4935.291 Q 6535.455 4937.774 6535.311 4940.756 Q 6535.166 4943.738 6535.896 4946.152 Q 6536.625 4948.567 6538.110 4950.321 Q 6539.595 4952.075 6542.144 4953.240 Q 6544.693 4954.405 6548.006 4954.593 Q 6551.318 4954.780 6554.532 4954.855 Q 6557.745 4954.931 6559.685 4954.639 Q 6561.624 4954.346 6562.476 4953.598 Q 6563.328 4952.850 6563.692 4952.389 "></path>
    <path id="STROKE_f681ea55-c1d3-4b17-a8ff-f170e5ebef85" opacity="1.000" fill="none" stroke="#f3ba38" stroke-width="3.710" stroke-opacity="1.000" stroke-linecap="round" stroke-linejoin="round" d="M 6583.244 4915.092 Q 6582.826 4913.753 6582.806 4914.038 Q 6581.937 4912.667 6582.631 4922.500 Q 6583.326 4932.333 6582.035 4952.858 Q 6582.088 4953.001 6582.462 4950.973 Q 6582.837 4948.944 6582.973 4948.280 "></path>
    <path id="STROKE_17b3de5a-d51f-400e-abe8-32d7b5390318" opacity="1.000" fill="none" stroke="#f3ba38" stroke-width="4.378" stroke-opacity="1.000" stroke-linecap="round" stroke-linejoin="round" d="M 6583.369 4915.233 Q 6583.369 4914.409 6583.369 4914.436 Q 6583.369 4914.303 6583.369 4913.905 Q 6583.541 4914.465 6588.228 4923.409 Q 6592.915 4932.354 6595.756 4937.454 Q 6598.597 4942.555 6601.165 4946.066 Q 6603.732 4949.577 6608.589 4959.827 Q 6608.725 4959.827 6608.829 4959.788 Q 6608.918 4960.160 6609.391 4950.824 Q 6609.862 4941.488 6611.063 4931.843 Q 6612.264 4922.197 6612.639 4916.835 Q 6613.013 4911.473 6615.155 4907.405 Q 6615.249 4907.405 6615.312 4907.405 Q 6615.383 4906.661 6615.498 4909.619 Q 6615.613 4912.577 6615.739 4913.045 "></path>
    <path id="STROKE_839bd302-0bdf-45ae-bc88-da40a8746c74" opacity="1.000" fill="none" stroke="#f45e58" stroke-width="3.543" stroke-opacity="1.000" stroke-linecap="round" stroke-linejoin="round" d="M 6175.753 5031.077 Q 6175.834 5031.097 6175.847 5027.327 Q 6177.269 5027.679 6178.419 5032.427 Q 6179.568 5037.175 6180.071 5040.275 Q 6180.574 5043.375 6180.751 5047.274 Q 6180.928 5051.173 6181.418 5053.486 Q 6181.908 5055.800 6182.473 5057.102 Q 6183.038 5058.404 6183.664 5058.646 Q 6184.289 5058.887 6184.513 5058.789 Q 6184.737 5058.691 6185.838 5057.308 Q 6186.938 5055.924 6189.419 5051.500 Q 6191.900 5047.076 6193.396 5044.338 Q 6194.894 5041.600 6196.016 5040.885 Q 6197.139 5040.170 6197.472 5040.108 "></path>
    <path id="STROKE_c84c0198-2058-412a-9ebf-2a7f589d3d2a" opacity="1.000" fill="none" stroke="#f45e58" stroke-width="3.570" stroke-opacity="1.000" stroke-linecap="round" stroke-linejoin="round" d="M 6215.877 5036.389 Q 6215.939 5036.217 6214.970 5036.241 Q 6214.000 5036.266 6212.871 5036.179 Q 6211.742 5036.092 6210.170 5039.173 Q 6208.599 5042.254 6207.312 5045.655 Q 6206.025 5049.057 6205.449 5052.163 Q 6204.872 5055.270 6205.011 5057.082 Q 6205.150 5058.895 6205.537 5059.916 Q 6205.923 5060.937 6206.861 5061.442 Q 6207.799 5061.948 6209.147 5061.975 Q 6210.496 5062.001 6212.771 5059.742 Q 6215.045 5057.482 6217.699 5052.822 Q 6220.353 5048.162 6220.775 5038.413 Q 6220.481 5038.234 6220.032 5038.294 Q 6219.583 5038.354 6218.762 5043.235 Q 6217.940 5048.117 6217.639 5051.632 Q 6217.338 5055.148 6217.346 5057.110 Q 6217.353 5059.072 6218.076 5060.053 Q 6218.800 5061.033 6220.324 5061.480 Q 6221.849 5061.928 6224.576 5059.321 Q 6227.302 5056.714 6228.624 5054.544 Q 6229.946 5052.374 6230.634 5051.311 "></path>
    <path id="STROKE_b5d7f366-9d06-426f-9fd1-4cab44bade12" opacity="1.000" fill="none" stroke="#f45e58" stroke-width="3.252" stroke-opacity="1.000" stroke-linecap="round" stroke-linejoin="round" d="M 6237.721 5028.889 Q 6236.376 5029.140 6236.137 5032.339 Q 6235.897 5035.537 6234.621 5042.655 Q 6233.345 5049.772 6233.250 5057.858 Q 6233.555 5057.841 6233.483 5057.978 Q 6233.412 5058.115 6233.998 5057.021 Q 6234.584 5055.928 6234.886 5055.436 "></path>
    <path id="STROKE_1cbe1253-586b-4052-a229-bae83d95224f" opacity="1.000" fill="none" stroke="#f45e58" stroke-width="3.570" stroke-opacity="1.000" stroke-linecap="round" stroke-linejoin="round" d="M 6244.016 5047.202 Q 6243.578 5047.202 6242.890 5047.202 Q 6243.666 5048.162 6247.235 5048.695 Q 6250.806 5049.229 6253.814 5048.602 Q 6256.823 5047.974 6258.688 5046.878 Q 6260.552 5045.781 6261.541 5044.721 Q 6262.529 5043.660 6262.811 5042.127 Q 6263.091 5040.594 6261.675 5039.555 Q 6260.258 5038.515 6258.965 5038.292 Q 6257.672 5038.069 6256.697 5037.883 Q 6255.722 5037.697 6253.617 5038.087 Q 6251.512 5038.478 6250.053 5039.181 Q 6248.594 5039.883 6247.203 5041.330 Q 6245.812 5042.777 6245.049 5044.359 Q 6244.286 5045.941 6243.859 5048.117 Q 6243.432 5050.292 6243.766 5052.157 Q 6244.099 5054.021 6245.667 5055.588 Q 6247.234 5057.155 6250.600 5057.174 Q 6253.966 5057.193 6257.933 5054.322 Q 6261.899 5051.452 6262.691 5050.717 "></path>
    <path id="STROKE_5879853c-e671-44f8-8579-0686abe2c7ed" opacity="1.000" fill="none" stroke="#f45e58" stroke-width="3.420" stroke-opacity="1.000" stroke-linecap="round" stroke-linejoin="round" d="M 6270.841 5033.342 Q 6270.438 5034.000 6270.386 5034.135 Q 6270.334 5034.269 6270.358 5034.272 Q 6270.382 5034.276 6270.339 5034.445 Q 6270.296 5034.614 6269.058 5040.329 Q 6267.818 5046.045 6266.878 5050.035 Q 6265.938 5054.025 6266.037 5056.991 Q 6266.398 5056.876 6266.593 5057.109 Q 6266.788 5057.343 6270.857 5050.801 Q 6274.926 5044.259 6281.127 5033.999 Q 6281.469 5034.635 6279.804 5053.506 Q 6280.576 5053.741 6280.940 5053.542 Q 6281.305 5053.342 6281.701 5053.108 "></path>
    <path id="STROKE_1596e7b9-1f1a-435c-aefb-0b6f64244afc" opacity="1.000" fill="none" stroke="#f45e58" stroke-width="3.570" stroke-opacity="1.000" stroke-linecap="round" stroke-linejoin="round" d="M 6294.811 5038.577 Q 6294.387 5038.685 6293.426 5038.278 Q 6292.464 5037.872 6291.488 5037.873 Q 6290.512 5037.875 6289.295 5040.007 Q 6288.078 5042.139 6287.342 5043.949 Q 6286.606 5045.759 6286.322 5047.981 Q 6286.039 5050.204 6286.028 5051.243 Q 6286.018 5052.282 6286.432 5053.741 Q 6286.846 5055.201 6289.080 5055.653 Q 6291.314 5056.105 6293.604 5054.989 Q 6295.895 5053.874 6296.458 5053.514 "></path>
    <path id="STROKE_8774f5e2-573c-4e9d-a08c-a8e7e65659fb" opacity="1.000" fill="none" stroke="#f45e58" stroke-width="3.570" stroke-opacity="1.000" stroke-linecap="round" stroke-linejoin="round" d="M 6302.877 5048.264 Q 6302.877 5048.295 6302.877 5048.530 Q 6303.679 5048.604 6307.770 5047.879 Q 6311.861 5047.154 6314.483 5046.153 Q 6317.104 5045.153 6318.200 5044.648 Q 6319.296 5044.143 6320.525 5042.246 Q 6321.754 5040.349 6320.432 5039.138 Q 6319.109 5037.926 6317.798 5037.566 Q 6316.488 5037.207 6314.668 5036.828 Q 6312.848 5036.450 6310.849 5037.031 Q 6308.849 5037.613 6307.653 5039.275 Q 6306.458 5040.938 6305.331 5043.621 Q 6304.204 5046.305 6303.658 5049.126 Q 6303.113 5051.947 6303.109 5053.527 Q 6303.105 5055.108 6303.474 5056.947 Q 6303.842 5058.786 6306.872 5058.639 Q 6309.902 5058.492 6311.986 5057.542 Q 6314.070 5056.592 6314.737 5056.233 "></path>
    <path id="STROKE_f9cd1f6b-427f-4e32-b0ac-496e9697ff94" opacity="1.000" fill="none" stroke="#f45e58" stroke-width="3.570" stroke-opacity="1.000" stroke-linecap="round" stroke-linejoin="round" d="M 6338.833 5051.124 Q 6338.786 5050.882 6338.906 5052.209 Q 6339.079 5052.486 6342.664 5052.699 Q 6346.249 5052.911 6349.434 5052.451 Q 6352.619 5051.990 6355.605 5050.732 Q 6358.592 5049.474 6360.649 5048.050 Q 6362.706 5046.626 6363.511 5045.332 Q 6364.315 5044.037 6364.555 5043.054 Q 6364.794 5042.071 6364.844 5041.452 Q 6364.893 5040.833 6364.578 5039.798 Q 6364.263 5038.763 6361.975 5037.905 Q 6359.688 5037.047 6357.276 5037.288 Q 6354.865 5037.529 6352.494 5039.050 Q 6350.123 5040.570 6348.728 5042.176 Q 6347.332 5043.781 6346.040 5045.333 Q 6344.748 5046.884 6343.668 5049.838 Q 6342.589 5052.792 6342.583 5055.163 Q 6342.577 5057.534 6342.954 5059.042 Q 6343.331 5060.549 6344.537 5061.754 Q 6345.744 5062.959 6348.368 5063.162 Q 6350.992 5063.364 6354.413 5062.190 Q 6357.833 5061.016 6362.882 5057.925 Q 6367.930 5054.834 6368.493 5054.374 "></path>
    <path id="STROKE_e7d1430f-5dfe-446a-96a6-abf9232f640d" opacity="1.000" fill="none" stroke="#f45e58" stroke-width="3.570" stroke-opacity="1.000" stroke-linecap="round" stroke-linejoin="round" d="M 6367.972 5028.561 Q 6368.930 5028.807 6375.668 5028.914 Q 6382.406 5029.022 6383.458 5029.092 "></path>
    <path id="STROKE_a7f3c572-0b4b-4299-a8bf-e5de1760bb70" opacity="1.000" fill="none" stroke="#f45e58" stroke-width="2.393" stroke-opacity="1.000" stroke-linecap="round" stroke-linejoin="round" d="M 6137.088 5074.467 Q 6137.088 5074.436 6136.546 5073.749 Q 6137.795 5073.455 6147.820 5074.223 Q 6157.846 5074.991 6174.775 5075.053 Q 6191.704 5075.116 6200.813 5074.926 Q 6209.923 5074.736 6214.048 5074.471 Q 6218.173 5074.206 6227.967 5073.351 Q 6237.762 5072.496 6244.689 5071.916 Q 6251.617 5071.336 6276.759 5070.853 Q 6301.901 5070.369 6315.343 5070.213 Q 6328.785 5070.058 6334.711 5070.181 Q 6340.636 5070.303 6344.589 5070.489 Q 6348.542 5070.676 6350.594 5070.847 Q 6352.646 5071.017 6365.480 5071.684 Q 6378.316 5072.350 6385.100 5072.770 Q 6391.883 5073.189 6395.976 5073.068 Q 6400.069 5072.947 6402.718 5073.202 Q 6405.366 5073.458 6406.782 5071.788 Q 6406.225 5071.016 6404.477 5071.831 Q 6402.729 5072.647 6402.593 5072.749 "></path>
    <path id="STROKE_99a09416-2f80-4ebf-99b6-7492d3177d78" opacity="1.000" fill="none" stroke="#f45e58" stroke-width="3.408" stroke-opacity="1.000" stroke-linecap="round" stroke-linejoin="round" d="M 6196.868 5105.061 Q 6197.079 5104.401 6196.792 5103.940 Q 6196.505 5103.479 6196.249 5103.245 Q 6195.993 5103.012 6195.630 5102.814 Q 6195.267 5102.618 6195.047 5102.534 Q 6194.828 5102.450 6193.728 5102.521 Q 6192.627 5102.593 6190.737 5104.162 Q 6188.847 5105.730 6186.668 5108.038 Q 6184.489 5110.345 6182.312 5113.458 Q 6180.136 5116.570 6178.974 5119.297 Q 6177.811 5122.023 6177.266 5125.044 Q 6176.721 5128.064 6176.583 5129.948 Q 6176.444 5131.831 6176.554 5133.813 Q 6176.663 5135.795 6178.472 5137.663 Q 6180.281 5139.531 6183.720 5140.043 Q 6187.159 5140.555 6192.358 5138.937 Q 6197.558 5137.319 6202.964 5134.491 Q 6203.204 5134.694 6203.371 5134.858 "></path>
    <path id="STROKE_3fd604c5-f47c-4951-8aaf-4ae4b70ff6f4" opacity="1.000" fill="none" stroke="#f45e58" stroke-width="3.361" stroke-opacity="1.000" stroke-linecap="round" stroke-linejoin="round" d="M 6213.751 5121.186 Q 6214.335 5119.724 6217.313 5120.266 Q 6220.292 5120.808 6222.475 5120.996 Q 6224.657 5121.185 6225.810 5121.475 Q 6226.961 5121.764 6237.981 5122.461 Q 6249.000 5123.158 6256.591 5122.402 Q 6264.182 5121.647 6264.421 5121.311 "></path>
    <path id="STROKE_aef4a5c8-289a-4f2c-ace0-4259f135c95c" opacity="1.000" fill="none" stroke="#f45e58" stroke-width="3.570" stroke-opacity="1.000" stroke-linecap="round" stroke-linejoin="round" d="M 6254.812 5114.483 Q 6254.426 5113.566 6258.408 5113.507 Q 6262.391 5113.449 6265.820 5114.203 Q 6269.249 5114.958 6271.597 5115.937 Q 6273.945 5116.916 6276.215 5118.689 Q 6278.485 5120.463 6279.238 5122.190 Q 6279.990 5123.918 6279.727 5125.020 Q 6279.464 5126.121 6274.015 5129.355 Q 6268.566 5132.589 6263.483 5136.905 Q 6263.515 5136.905 6263.864 5136.858 Q 6264.213 5136.811 6264.546 5136.717 "></path>
    <path id="STROKE_9ec6e8d8-c739-4ac1-8959-0f476449b95f" opacity="1.000" fill="none" stroke="#f45e58" stroke-width="3.570" stroke-opacity="1.000" stroke-linecap="round" stroke-linejoin="round" d="M 6311.944 5110.045 Q 6311.951 5109.702 6311.822 5108.839 Q 6311.693 5107.976 6311.632 5107.124 Q 6311.590 5107.124 6311.517 5107.124 Q 6311.577 5107.108 6310.705 5110.705 Q 6309.833 5114.301 6309.729 5116.717 Q 6309.624 5119.132 6309.751 5120.561 Q 6309.879 5121.990 6312.434 5122.979 Q 6314.988 5123.967 6319.245 5121.498 Q 6323.502 5119.030 6323.867 5118.733 "></path>
    <path id="STROKE_c8db5d37-ed86-4e68-9e8c-fd5b10767c89" opacity="1.000" fill="none" stroke="#f45e58" stroke-width="3.322" stroke-opacity="1.000" stroke-linecap="round" stroke-linejoin="round" d="M 6332.225 5103.077 Q 6332.226 5103.434 6332.278 5103.028 Q 6332.330 5102.623 6331.590 5104.058 Q 6330.851 5105.492 6330.786 5107.609 Q 6330.721 5109.726 6330.720 5114.134 Q 6330.719 5118.542 6329.130 5135.350 Q 6329.203 5135.389 6329.307 5135.389 Q 6329.203 5135.350 6329.099 5135.311 "></path>
    <path id="STROKE_13b5f2c3-d900-4e9c-bf5a-c86970f14bad" opacity="1.000" fill="none" stroke="#f45e58" stroke-width="2.944" stroke-opacity="1.000" stroke-linecap="round" stroke-linejoin="round" d="M 6174.231 5185.077 Q 6174.317 5185.130 6174.245 5184.855 Q 6174.172 5184.580 6173.857 5185.646 Q 6173.543 5186.712 6173.593 5188.237 Q 6173.642 5189.762 6173.637 5197.271 Q 6173.632 5204.780 6172.970 5223.374 Q 6173.075 5223.374 6173.200 5223.374 Q 6173.228 5223.036 6173.281 5221.045 Q 6173.335 5219.053 6173.439 5218.389 "></path>
    <path id="STROKE_416aa5c7-5dc9-485c-9ff6-7bc58bdb6492" opacity="1.000" fill="none" stroke="#f45e58" stroke-width="3.504" stroke-opacity="1.000" stroke-linecap="round" stroke-linejoin="round" d="M 6173.377 5188.405 Q 6173.535 5187.208 6173.502 5187.233 Q 6173.630 5186.464 6173.522 5186.599 Q 6173.415 5186.733 6173.909 5185.906 Q 6174.403 5185.080 6174.318 5185.202 Q 6174.234 5185.325 6174.201 5185.300 Q 6174.167 5185.275 6174.881 5185.326 Q 6175.596 5185.376 6179.173 5192.625 Q 6182.750 5199.873 6185.101 5205.212 Q 6187.452 5210.551 6189.114 5214.610 Q 6190.776 5218.670 6192.077 5220.470 Q 6193.378 5222.270 6194.146 5222.988 Q 6194.914 5223.707 6195.711 5223.670 Q 6196.193 5223.182 6197.190 5216.970 Q 6198.187 5210.758 6198.368 5204.458 Q 6198.550 5198.158 6198.718 5194.045 Q 6198.886 5189.933 6201.151 5186.405 Q 6201.313 5186.131 6201.597 5187.811 Q 6201.880 5189.491 6201.912 5189.920 "></path>
    <path id="STROKE_da111a2a-2454-4ec7-bc0c-d675f78a3727" opacity="1.000" fill="none" stroke="#f45e58" stroke-width="3.325" stroke-opacity="1.000" stroke-linecap="round" stroke-linejoin="round" d="M 6216.606 5210.233 Q 6216.650 5209.447 6216.700 5209.569 Q 6217.429 5208.954 6217.471 5209.100 Q 6217.191 5208.533 6223.562 5209.222 Q 6229.933 5209.911 6234.966 5210.262 Q 6240.000 5210.613 6246.367 5210.521 Q 6252.735 5210.429 6264.338 5210.561 Q 6264.171 5210.428 6264.004 5210.295 "></path>
    <path id="STROKE_d50d0b15-99c4-46cb-b603-951396696228" opacity="1.000" fill="none" stroke="#f45e58" stroke-width="3.570" stroke-opacity="1.000" stroke-linecap="round" stroke-linejoin="round" d="M 6258.710 5197.358 Q 6259.181 5197.093 6263.739 5198.036 Q 6268.298 5198.979 6271.302 5200.079 Q 6274.306 5201.179 6276.284 5202.435 Q 6278.263 5203.691 6279.174 5205.350 Q 6280.086 5207.009 6280.409 5208.949 Q 6280.733 5210.889 6278.415 5213.524 Q 6276.097 5216.159 6274.401 5217.494 Q 6272.706 5218.830 6271.474 5219.709 Q 6270.241 5220.589 6268.735 5221.540 Q 6267.229 5222.490 6264.415 5224.062 Q 6261.602 5225.633 6258.522 5227.952 Q 6258.235 5228.308 6259.718 5227.134 Q 6261.201 5225.959 6261.566 5225.561 "></path>
    <path id="STROKE_d8790093-5a92-4005-9d60-962d09cdce3c" opacity="1.000" fill="none" stroke="#f45e58" stroke-width="3.570" stroke-opacity="1.000" stroke-linecap="round" stroke-linejoin="round" d="M 6325.326 5191.842 Q 6325.371 5191.801 6323.805 5191.115 Q 6322.238 5190.429 6317.574 5190.768 Q 6312.910 5191.107 6310.702 5191.507 Q 6308.494 5191.907 6306.543 5192.247 Q 6304.593 5192.586 6304.570 5198.829 Q 6304.548 5205.071 6304.443 5208.872 Q 6304.338 5212.672 6304.848 5214.823 Q 6305.358 5216.974 6307.412 5217.431 Q 6309.465 5217.888 6312.301 5216.541 Q 6315.136 5215.193 6316.617 5214.103 Q 6318.098 5213.012 6319.789 5212.787 Q 6321.480 5212.562 6321.970 5213.426 Q 6322.459 5214.290 6322.661 5217.503 Q 6322.863 5220.717 6322.468 5224.567 Q 6322.073 5228.417 6321.405 5230.510 Q 6320.738 5232.603 6320.379 5233.335 Q 6320.021 5234.068 6318.887 5234.813 Q 6317.753 5235.559 6317.074 5235.507 Q 6316.394 5235.455 6315.971 5235.397 Q 6315.548 5235.341 6314.692 5234.931 Q 6313.836 5234.521 6313.586 5234.448 Q 6313.337 5234.375 6312.229 5233.645 Q 6311.121 5232.916 6310.592 5232.244 Q 6310.063 5231.572 6309.853 5231.018 Q 6309.642 5230.463 6309.767 5230.000 Q 6309.892 5229.538 6310.089 5229.342 "></path>
    <path id="STROKE_14f728c2-8de8-47d9-a0de-4db27d8e3d67" opacity="1.000" fill="none" stroke="#f45e58" stroke-width="3.570" stroke-opacity="1.000" stroke-linecap="round" stroke-linejoin="round" d="M 6152.450 5094.249 Q 6152.475 5094.271 6152.150 5093.723 Q 6151.827 5093.173 6151.624 5093.088 Q 6151.421 5093.002 6151.427 5092.823 Q 6151.433 5092.645 6149.689 5091.718 Q 6147.947 5090.792 6146.793 5090.573 Q 6145.640 5090.355 6144.712 5090.161 Q 6143.785 5089.967 6142.732 5090.501 Q 6141.679 5091.035 6140.980 5091.937 Q 6140.281 5092.839 6139.888 5093.475 Q 6139.494 5094.109 6139.119 5094.615 Q 6138.743 5095.121 6137.292 5097.714 Q 6135.840 5100.308 6134.978 5104.175 Q 6134.115 5108.043 6135.117 5112.203 Q 6136.118 5116.362 6137.584 5119.898 Q 6139.051 5123.434 6139.416 5127.629 Q 6139.782 5131.825 6139.691 5134.388 Q 6139.601 5136.952 6139.012 5138.684 Q 6138.423 5140.417 6136.163 5141.963 Q 6133.902 5143.510 6130.618 5144.333 Q 6127.334 5145.157 6125.703 5145.615 Q 6124.071 5146.074 6123.518 5146.254 Q 6122.964 5146.434 6122.685 5146.672 Q 6122.405 5146.909 6122.188 5147.997 Q 6121.971 5149.085 6122.288 5149.905 Q 6122.605 5150.725 6123.018 5151.130 Q 6123.429 5151.536 6123.474 5151.539 Q 6123.519 5151.542 6123.801 5151.809 Q 6124.083 5152.076 6125.539 5152.582 Q 6126.995 5153.088 6128.737 5153.554 Q 6130.479 5154.021 6132.034 5154.966 Q 6133.590 5155.912 6134.781 5159.662 Q 6135.973 5163.411 6136.664 5167.206 Q 6137.356 5171.000 6137.420 5173.938 Q 6137.484 5176.875 6135.705 5182.656 Q 6133.926 5188.438 6131.412 5193.711 Q 6128.897 5198.983 6127.622 5201.483 Q 6126.347 5203.983 6125.685 5205.833 Q 6125.022 5207.684 6124.969 5210.400 Q 6124.917 5213.118 6126.502 5217.205 Q 6128.088 5221.292 6129.034 5223.664 Q 6129.979 5226.037 6131.327 5227.462 Q 6132.676 5228.888 6135.359 5230.901 Q 6138.042 5232.914 6140.530 5234.138 Q 6143.019 5235.361 6145.546 5235.152 Q 6148.073 5234.944 6148.802 5234.717 "></path>
    <path id="STROKE_8f8e7853-d98f-4cac-a8b6-8795b037df8e" opacity="1.000" fill="none" stroke="#f45e58" stroke-width="3.233" stroke-opacity="1.000" stroke-linecap="round" stroke-linejoin="round" d="M 6103.447 5146.936 Q 6103.810 5147.190 6102.047 5145.555 Q 6100.284 5143.919 6099.032 5143.058 Q 6097.780 5142.197 6095.531 5142.023 Q 6093.282 5141.851 6091.884 5142.174 Q 6090.485 5142.498 6089.841 5143.007 Q 6089.196 5143.516 6088.582 5144.106 Q 6087.968 5144.696 6087.589 5145.376 Q 6087.210 5146.056 6086.985 5146.812 Q 6086.761 5147.568 6086.232 5148.854 Q 6085.704 5150.141 6085.300 5154.791 Q 6084.896 5159.441 6084.876 5163.412 Q 6084.856 5167.383 6085.206 5172.136 Q 6085.557 5176.888 6085.797 5183.310 Q 6086.037 5189.732 6085.962 5195.553 Q 6085.887 5201.375 6086.032 5207.131 Q 6086.178 5212.887 6086.460 5231.865 Q 6086.742 5250.844 6087.019 5260.898 Q 6087.294 5270.952 6087.470 5275.599 Q 6087.646 5280.246 6087.081 5289.026 Q 6086.517 5297.808 6086.172 5302.452 Q 6085.827 5307.097 6085.415 5309.377 Q 6085.004 5311.657 6084.809 5316.860 Q 6084.614 5322.064 6084.500 5327.108 Q 6085.967 5327.608 6090.061 5326.789 Q 6094.153 5325.969 6097.277 5326.004 Q 6100.400 5326.040 6102.042 5326.348 Q 6103.684 5326.656 6104.781 5327.207 Q 6105.879 5327.758 6108.470 5328.264 Q 6108.408 5328.163 6108.345 5328.061 "></path>
    <path id="STROKE_3230cf01-d8f9-449b-87e4-502d450d8fa4" opacity="1.000" fill="none" stroke="#f45e58" stroke-width="3.570" stroke-opacity="1.000" stroke-linecap="round" stroke-linejoin="round" d="M 6112.389 5315.795 Q 6112.191 5315.821 6112.681 5311.686 Q 6113.645 5311.504 6113.537 5318.685 Q 6113.428 5325.865 6113.537 5329.831 Q 6113.645 5333.797 6113.602 5335.529 Q 6113.559 5337.262 6114.018 5338.107 Q 6114.476 5338.952 6114.725 5338.936 Q 6114.974 5338.920 6116.129 5337.889 Q 6117.284 5336.856 6118.966 5335.270 Q 6120.648 5333.683 6123.546 5331.522 Q 6126.444 5329.362 6137.005 5330.256 Q 6136.943 5328.996 6136.807 5329.163 Q 6136.498 5328.383 6132.202 5324.423 Q 6127.906 5320.464 6125.498 5318.170 Q 6123.089 5315.876 6121.814 5314.817 Q 6120.539 5313.758 6118.475 5312.999 Q 6119.838 5313.680 6119.761 5313.614 Q 6119.684 5313.549 6119.777 5313.592 Q 6119.872 5313.635 6120.170 5313.737 Q 6120.469 5313.839 6121.291 5314.216 Q 6122.112 5314.592 6122.644 5314.858 "></path>
    <path id="STROKE_3ba3830c-a06d-4b71-9024-e43c02b7def9" opacity="1.000" fill="none" stroke="#f45e58" stroke-width="3.570" stroke-opacity="1.000" stroke-linecap="round" stroke-linejoin="round" d="M 6166.874 5324.014 Q 6166.581 5324.161 6166.179 5325.028 Q 6165.777 5325.895 6165.811 5326.731 Q 6165.845 5327.568 6167.011 5328.104 Q 6168.178 5328.641 6169.314 5328.948 Q 6170.451 5329.256 6172.979 5329.373 Q 6175.505 5329.490 6178.223 5328.986 Q 6180.940 5328.482 6183.324 5327.017 Q 6185.708 5325.551 6187.790 5323.135 Q 6189.872 5320.718 6189.972 5318.187 Q 6190.071 5315.655 6188.952 5314.311 Q 6187.833 5312.966 6184.841 5312.051 Q 6181.849 5311.136 6179.359 5311.508 Q 6176.870 5311.879 6174.905 5313.125 Q 6172.941 5314.371 6170.919 5317.218 Q 6168.897 5320.065 6168.274 5323.590 Q 6167.652 5327.115 6168.072 5329.794 Q 6168.493 5332.473 6169.580 5334.515 Q 6170.666 5336.557 6172.880 5338.229 Q 6175.093 5339.901 6178.874 5340.695 Q 6182.654 5341.490 6187.458 5339.139 Q 6192.261 5336.788 6192.824 5336.358 "></path>
    <path id="STROKE_670a779d-733c-4c97-8d88-ce5fb829d437" opacity="1.000" fill="none" stroke="#f45e58" stroke-width="3.570" stroke-opacity="1.000" stroke-linecap="round" stroke-linejoin="round" d="M 6199.119 5313.999 Q 6199.119 5313.329 6199.119 5313.264 Q 6199.703 5312.892 6200.390 5316.155 Q 6201.077 5319.418 6201.664 5323.816 Q 6202.252 5328.214 6202.858 5330.606 Q 6203.465 5332.999 6204.586 5335.159 Q 6205.707 5337.320 6207.919 5336.463 Q 6210.132 5335.606 6212.874 5329.365 Q 6215.616 5323.124 6215.877 5322.686 "></path>
    <path id="STROKE_bf09f676-b1c2-4904-845f-693cfac31f3f" opacity="1.000" fill="none" stroke="#f45e58" stroke-width="3.570" stroke-opacity="1.000" stroke-linecap="round" stroke-linejoin="round" d="M 6219.253 5325.342 Q 6219.385 5325.587 6219.002 5325.565 Q 6218.619 5325.544 6219.933 5325.827 Q 6221.247 5326.110 6222.771 5326.117 Q 6224.294 5326.123 6226.055 5326.144 Q 6227.815 5326.164 6229.797 5325.365 Q 6231.779 5324.567 6232.987 5323.818 Q 6234.195 5323.069 6234.696 5322.018 Q 6235.198 5320.966 6235.326 5320.104 Q 6235.454 5319.242 6235.448 5318.778 Q 6235.443 5318.314 6235.485 5317.821 Q 6235.527 5317.329 6235.274 5315.941 Q 6235.021 5314.553 6234.085 5313.713 Q 6233.150 5312.874 6231.618 5312.649 Q 6230.086 5312.426 6228.061 5313.922 Q 6226.035 5315.419 6223.993 5318.136 Q 6221.951 5320.853 6221.102 5324.057 Q 6220.251 5327.261 6220.046 5328.929 Q 6219.840 5330.597 6219.801 5331.731 Q 6219.762 5332.866 6220.511 5333.622 Q 6221.259 5334.379 6222.013 5334.497 Q 6222.767 5334.616 6224.571 5334.708 Q 6226.376 5334.799 6229.901 5333.192 Q 6233.427 5331.584 6234.094 5331.186 "></path>
    <path id="STROKE_4b1c8b1c-6574-4246-b73b-7613979fc022" opacity="1.000" fill="none" stroke="#f45e58" stroke-width="3.532" stroke-opacity="1.000" stroke-linecap="round" stroke-linejoin="round" d="M 6244.954 5314.467 Q 6244.979 5313.958 6243.724 5314.264 Q 6243.500 5314.782 6242.007 5321.417 Q 6240.515 5328.051 6240.347 5335.241 Q 6241.715 5336.117 6246.167 5330.361 Q 6250.619 5324.606 6252.879 5320.679 Q 6255.139 5316.750 6257.793 5314.733 Q 6258.384 5314.755 6257.437 5320.640 Q 6256.490 5326.523 6256.501 5331.983 Q 6257.221 5332.029 6257.402 5331.908 Q 6257.584 5331.788 6257.918 5331.592 "></path>
    <path id="STROKE_f41e18b2-b4af-4a64-8bca-be34c8fb1a3e" opacity="1.000" fill="none" stroke="#f45e58" stroke-width="3.570" stroke-opacity="1.000" stroke-linecap="round" stroke-linejoin="round" d="M 6287.266 5319.436 Q 6286.456 5318.942 6285.311 5318.166 Q 6284.167 5317.390 6283.118 5317.871 Q 6282.070 5318.352 6281.595 5319.312 Q 6281.120 5320.273 6280.689 5321.032 Q 6280.259 5321.791 6279.979 5323.930 Q 6279.700 5326.070 6279.750 5327.803 Q 6279.799 5329.535 6280.195 5330.608 Q 6280.591 5331.681 6282.059 5332.738 Q 6283.527 5333.795 6285.399 5333.845 Q 6287.271 5333.894 6288.934 5332.440 Q 6290.597 5330.987 6291.608 5329.104 Q 6292.620 5327.221 6293.003 5325.750 Q 6293.386 5324.279 6293.543 5322.707 Q 6293.700 5321.135 6293.461 5319.520 Q 6293.222 5317.904 6291.637 5316.917 Q 6290.052 5315.930 6287.809 5315.796 Q 6285.566 5315.663 6283.957 5316.204 Q 6282.348 5316.744 6281.982 5318.375 Q 6281.617 5320.006 6281.617 5320.374 "></path>
    <path id="STROKE_2b443883-370d-4961-980f-8f01d1557853" opacity="1.000" fill="none" stroke="#f45e58" stroke-width="3.570" stroke-opacity="1.000" stroke-linecap="round" stroke-linejoin="round" d="M 6321.616 5320.311 Q 6321.616 5319.024 6321.616 5319.139 Q 6321.718 5318.795 6321.693 5317.638 Q 6321.669 5316.480 6321.521 5315.803 Q 6321.372 5315.125 6320.912 5314.802 Q 6320.453 5314.479 6320.378 5314.517 Q 6320.303 5314.554 6319.258 5314.398 Q 6318.214 5314.243 6316.572 5315.646 Q 6314.931 5317.048 6313.854 5318.654 Q 6312.778 5320.260 6312.263 5323.133 Q 6311.747 5326.006 6311.837 5328.043 Q 6311.927 5330.080 6312.804 5331.834 Q 6313.681 5333.588 6315.544 5334.244 Q 6317.407 5334.900 6318.853 5334.858 Q 6320.298 5334.816 6321.744 5334.047 Q 6323.190 5333.277 6324.867 5331.098 Q 6326.543 5328.919 6327.622 5326.565 Q 6328.701 5324.211 6328.955 5322.313 Q 6329.210 5320.416 6329.194 5319.229 Q 6329.178 5318.042 6328.498 5316.827 Q 6327.818 5315.613 6327.107 5315.140 Q 6326.396 5314.666 6325.145 5314.274 Q 6323.894 5313.883 6323.050 5313.928 Q 6322.206 5313.974 6321.371 5314.848 Q 6320.536 5315.722 6320.586 5316.771 Q 6320.636 5317.819 6320.636 5318.249 "></path>
    <path id="STROKE_b81b6457-ee05-4240-bcb2-44885530b5a6" opacity="1.000" fill="none" stroke="#f45e58" stroke-width="3.525" stroke-opacity="1.000" stroke-linecap="round" stroke-linejoin="round" d="M 6350.817 5321.827 Q 6351.374 5322.521 6350.845 5320.521 Q 6350.315 5318.519 6350.020 5317.546 Q 6349.725 5316.572 6349.088 5315.960 Q 6348.451 5315.347 6347.047 5315.434 Q 6345.644 5315.520 6344.955 5315.860 Q 6344.266 5316.201 6342.266 5318.329 Q 6340.265 5320.457 6339.320 5323.856 Q 6338.375 5327.257 6338.255 5329.165 Q 6338.134 5331.073 6338.045 5332.026 Q 6337.957 5332.979 6338.468 5333.839 Q 6338.979 5334.699 6339.612 5335.335 Q 6340.244 5335.971 6341.821 5335.895 Q 6343.397 5335.818 6346.267 5333.552 Q 6349.136 5331.287 6352.834 5326.509 Q 6356.533 5321.731 6358.903 5317.643 Q 6361.273 5313.554 6362.609 5309.902 Q 6363.946 5306.250 6364.274 5304.043 Q 6364.602 5301.837 6364.564 5299.936 Q 6364.995 5299.309 6363.986 5300.258 Q 6362.979 5301.207 6361.961 5303.252 Q 6360.943 5305.296 6359.416 5308.388 Q 6357.889 5311.479 6356.071 5315.675 Q 6354.253 5319.870 6353.475 5322.953 Q 6352.697 5326.037 6352.653 5328.815 Q 6352.609 5331.594 6356.711 5330.909 Q 6360.812 5330.225 6361.344 5330.061 "></path>
    <path id="STROKE_2085e66c-6775-4ebd-8e0a-415323ac64a3" opacity="1.000" fill="none" stroke="#f45e58" stroke-width="3.439" stroke-opacity="1.000" stroke-linecap="round" stroke-linejoin="round" d="M 6376.518 5320.045 Q 6376.803 5320.109 6375.653 5314.897 Q 6375.829 5314.828 6375.017 5314.838 Q 6374.206 5314.848 6373.929 5314.960 Q 6373.651 5315.072 6371.617 5318.064 Q 6369.582 5321.057 6368.492 5324.857 Q 6367.402 5328.657 6367.163 5330.567 Q 6366.923 5332.478 6367.192 5333.940 Q 6367.461 5335.402 6368.838 5336.103 Q 6370.215 5336.802 6371.960 5336.878 Q 6373.705 5336.953 6375.262 5335.577 Q 6376.819 5334.200 6378.403 5332.485 Q 6379.988 5330.770 6382.894 5326.091 Q 6385.798 5321.411 6388.146 5315.836 Q 6390.495 5310.261 6391.377 5305.856 Q 6392.259 5301.452 6392.171 5297.842 Q 6390.744 5297.008 6387.752 5303.532 Q 6384.760 5310.056 6383.350 5314.556 Q 6381.939 5319.056 6381.554 5321.527 Q 6381.169 5323.998 6381.215 5325.505 Q 6381.261 5327.012 6381.403 5328.218 Q 6381.544 5329.424 6383.478 5330.400 Q 6385.412 5331.375 6390.282 5330.019 Q 6395.152 5328.663 6395.840 5328.327 "></path>
    <path id="STROKE_ff2594f0-75cc-446e-9cd8-57763629847f" opacity="1.000" fill="none" stroke="#f45e58" stroke-width="3.570" stroke-opacity="1.000" stroke-linecap="round" stroke-linejoin="round" d="M 6411.597 5317.514 Q 6411.557 5317.766 6411.702 5316.952 Q 6412.613 5316.671 6421.844 5316.761 Q 6431.076 5316.850 6431.669 5316.983 "></path>
    <path id="STROKE_4a767973-51a6-4322-9c03-67326170748f" opacity="1.000" fill="none" stroke="#f45e58" stroke-width="3.570" stroke-opacity="1.000" stroke-linecap="round" stroke-linejoin="round" d="M 6413.390 5326.217 Q 6413.776 5325.125 6421.732 5326.312 Q 6429.689 5327.499 6430.752 5327.795 "></path>
    <path id="STROKE_c0358186-3998-4f06-9bef-7c3412058219" opacity="1.000" fill="none" stroke="#f45e58" stroke-width="3.551" stroke-opacity="1.000" stroke-linecap="round" stroke-linejoin="round" d="M 6472.064 5317.389 Q 6472.012 5317.556 6472.123 5315.615 Q 6472.234 5313.675 6471.951 5312.781 Q 6471.667 5311.888 6471.401 5311.699 Q 6471.134 5311.511 6470.754 5311.226 Q 6470.375 5310.941 6469.045 5310.793 Q 6467.715 5310.645 6465.527 5312.104 Q 6463.339 5313.562 6461.257 5316.537 Q 6459.174 5319.511 6457.696 5323.093 Q 6456.217 5326.675 6455.952 5329.767 Q 6455.687 5332.859 6455.710 5334.755 Q 6455.734 5336.650 6456.493 5337.447 Q 6457.252 5338.243 6458.261 5338.512 Q 6459.271 5338.780 6461.518 5338.254 Q 6463.766 5337.728 6466.538 5335.129 Q 6469.311 5332.530 6470.791 5330.848 Q 6472.270 5329.165 6473.622 5326.995 Q 6474.974 5324.825 6475.655 5322.407 Q 6476.336 5319.989 6476.045 5318.363 Q 6475.755 5316.737 6474.421 5315.364 Q 6473.087 5313.992 6471.685 5313.691 Q 6470.283 5313.390 6469.088 5313.354 Q 6467.893 5313.317 6466.451 5314.948 Q 6465.009 5316.578 6464.842 5318.690 Q 6464.675 5320.803 6464.769 5321.233 "></path>
    <path id="STROKE_5b12835f-8043-4f9a-9dcd-72929e3b58b6" opacity="1.000" fill="none" stroke="#f45e58" stroke-width="3.467" stroke-opacity="1.000" stroke-linecap="round" stroke-linejoin="round" d="M 6495.972 5323.155 Q 6495.899 5322.769 6496.004 5321.008 Q 6496.108 5319.247 6495.440 5318.167 Q 6494.772 5317.087 6494.177 5316.895 Q 6493.581 5316.702 6493.104 5316.721 Q 6492.625 5316.741 6491.831 5316.791 Q 6491.036 5316.841 6488.947 5319.167 Q 6486.858 5321.494 6485.539 5324.571 Q 6484.220 5327.648 6483.953 5329.710 Q 6483.687 5331.772 6483.710 5333.176 Q 6483.733 5334.581 6484.284 5335.175 Q 6484.834 5335.769 6487.027 5336.189 Q 6489.220 5336.609 6492.478 5333.691 Q 6495.735 5330.773 6499.087 5326.232 Q 6502.439 5321.691 6505.307 5317.145 Q 6508.174 5312.598 6509.810 5309.202 Q 6511.445 5305.806 6511.490 5300.600 Q 6511.518 5300.652 6510.718 5300.364 Q 6509.917 5300.077 6506.268 5307.321 Q 6502.618 5314.564 6500.645 5318.947 Q 6498.670 5323.330 6497.978 5326.309 Q 6497.284 5329.289 6497.092 5331.159 Q 6496.899 5333.030 6498.653 5333.459 Q 6500.408 5333.887 6506.017 5332.123 Q 6511.625 5330.358 6512.521 5329.920 "></path>
    <path id="STROKE_71e4a81f-f9d8-4841-8500-1bc1d3117c16" opacity="1.000" fill="none" stroke="#f45e58" stroke-width="3.407" stroke-opacity="1.000" stroke-linecap="round" stroke-linejoin="round" d="M 6527.946 5324.155 Q 6527.588 5323.776 6527.402 5323.578 Q 6527.217 5323.379 6526.844 5322.931 Q 6526.472 5322.482 6526.647 5322.680 Q 6526.822 5322.877 6526.153 5321.872 Q 6525.483 5320.866 6524.926 5320.437 Q 6524.368 5320.008 6523.105 5319.636 Q 6521.843 5319.265 6520.416 5320.489 Q 6518.989 5321.714 6517.652 5324.804 Q 6516.314 5327.893 6515.820 5329.948 Q 6515.325 5332.004 6515.193 5332.974 Q 6515.062 5333.944 6515.239 5334.512 Q 6515.417 5335.079 6516.035 5335.511 Q 6516.652 5335.942 6517.381 5336.082 Q 6518.109 5336.223 6519.022 5336.216 Q 6519.935 5336.209 6521.360 5336.123 Q 6522.786 5336.038 6525.919 5334.548 Q 6529.051 5333.058 6532.013 5329.761 Q 6534.974 5326.463 6536.184 5324.291 Q 6537.395 5322.118 6538.339 5320.854 Q 6539.283 5319.590 6541.827 5312.782 Q 6544.372 5305.975 6545.830 5298.280 Q 6544.635 5298.740 6541.647 5302.604 Q 6538.660 5306.469 6536.456 5311.771 Q 6534.252 5317.074 6533.458 5320.407 Q 6532.665 5323.740 6532.493 5326.119 Q 6532.321 5328.499 6532.889 5330.674 Q 6533.457 5332.850 6536.541 5333.921 Q 6539.625 5334.991 6544.541 5334.211 Q 6549.457 5333.432 6552.041 5332.426 Q 6554.625 5331.420 6555.084 5331.124 "></path>
    <path id="STROKE_74e7bdbc-0ff9-4d94-8c18-6cff9090883d" opacity="1.000" fill="none" stroke="#f3ba38" stroke-width="4.420" stroke-opacity="1.000" stroke-linecap="round" stroke-linejoin="round" d="M 6192.614 4948.862 Q 6192.614 4948.862 6192.472 4948.765 Q 6192.330 4948.667 6185.892 4947.749 Q 6179.453 4946.831 6167.620 4946.851 Q 6155.788 4946.870 6146.575 4946.779 Q 6137.362 4946.688 6128.117 4946.188 Q 6118.872 4945.686 6111.160 4945.550 Q 6103.449 4945.414 6099.409 4945.430 Q 6095.368 4945.445 6093.160 4945.457 Q 6090.952 4945.469 6089.477 4945.521 Q 6088.002 4945.572 6087.294 4945.592 Q 6086.585 4945.611 6085.966 4945.630 Q 6085.346 4945.648 6085.134 4945.662 Q 6084.921 4945.675 6083.026 4945.778 Q 6081.131 4945.881 6072.841 4946.143 Q 6064.551 4946.404 6060.183 4946.468 Q 6055.814 4946.533 6053.745 4946.515 Q 6051.676 4946.497 6050.613 4946.504 Q 6049.550 4946.511 6048.996 4946.508 Q 6048.442 4946.504 6047.462 4946.569 Q 6046.482 4946.635 6044.787 4946.304 Q 6043.092 4945.974 6033.646 4948.487 Q 6034.722 4949.294 6034.634 4949.192 Q 6035.086 4949.459 6035.384 4949.611 "></path>
    <path id="STROKE_6e202b3f-6e12-4565-a020-1a03f3bda7fc" opacity="1.000" fill="none" stroke="#f3ba38" stroke-width="3.910" stroke-opacity="1.000" stroke-linecap="round" stroke-linejoin="round" d="M 6032.051 4948.934 Q 6030.183 4947.876 6030.451 4948.014 Q 6030.720 4948.151 6030.466 4947.989 Q 6030.212 4947.828 6030.227 4947.850 Q 6030.242 4947.873 6030.171 4947.577 Q 6030.133 4947.145 6030.215 4948.523 Q 6030.296 4949.902 6030.299 4952.317 Q 6030.301 4954.732 6030.355 4961.343 Q 6030.409 4967.954 6030.387 4976.163 Q 6030.364 4984.372 6030.442 5000.451 Q 6030.521 5016.530 6030.597 5024.808 Q 6030.673 5033.086 6030.408 5037.431 Q 6030.143 5041.776 6029.570 5045.979 Q 6028.997 5050.182 6028.699 5062.022 Q 6028.401 5073.863 6028.501 5080.665 Q 6028.600 5087.466 6029.274 5094.279 Q 6029.948 5101.092 6030.257 5112.750 Q 6030.566 5124.407 6030.387 5131.611 Q 6030.207 5138.815 6029.857 5143.249 Q 6029.507 5147.682 6027.170 5163.394 Q 6024.833 5179.106 6023.386 5189.183 Q 6021.938 5199.259 6021.416 5203.930 Q 6020.894 5208.601 6019.814 5223.452 Q 6018.735 5238.303 6018.017 5247.510 Q 6017.298 5256.716 6015.873 5271.040 Q 6014.448 5285.363 6013.532 5294.898 Q 6012.617 5304.433 6012.145 5317.340 Q 6011.673 5330.246 6011.703 5339.123 Q 6011.733 5348.000 6011.672 5354.622 Q 6011.612 5361.245 6011.527 5369.326 Q 6011.442 5377.407 6011.529 5382.000 Q 6011.616 5386.594 6011.032 5432.732 Q 6011.032 5432.741 6010.979 5430.635 Q 6010.925 5428.529 6010.817 5427.620 "></path>
    <path id="STROKE_1ff84d2f-ee46-41e9-8715-bebfc664c5d2" opacity="1.000" fill="none" stroke="#f3ba38" stroke-width="4.420" stroke-opacity="1.000" stroke-linecap="round" stroke-linejoin="round" d="M 6010.888 5422.534 Q 6010.889 5421.437 6010.829 5418.599 Q 6010.770 5415.762 6010.651 5414.361 "></path>
    <path id="STROKE_fb7f5d21-4719-4a9c-ac14-0e5504881e39" opacity="1.000" fill="none" stroke="#f3ba38" stroke-width="3.687" stroke-opacity="1.000" stroke-linecap="round" stroke-linejoin="round" d="M 6012.483 5430.885 Q 6011.332 5430.885 6011.603 5430.885 Q 6009.959 5430.885 6010.317 5430.885 Q 6010.091 5430.885 6009.746 5430.885 Q 6010.107 5431.047 6026.730 5430.882 Q 6043.354 5430.716 6064.081 5433.187 Q 6064.580 5432.824 6063.860 5434.125 Q 6063.140 5435.427 6062.831 5435.578 "></path>
    <path id="STROKE_f3b6dcec-7f8d-4f61-8acf-c7f39a5d5730" opacity="1.000" fill="none" stroke="#f3ba38" stroke-width="4.408" stroke-opacity="1.000" stroke-linecap="round" stroke-linejoin="round" d="M 6068.353 5412.541 Q 6067.111 5412.970 6067.400 5412.859 Q 6067.690 5412.749 6066.925 5412.987 Q 6067.692 5414.044 6067.822 5419.704 Q 6067.951 5425.364 6067.961 5429.669 Q 6067.971 5433.975 6067.763 5440.686 Q 6067.555 5447.397 6068.889 5453.994 Q 6069.008 5453.994 6069.258 5453.949 Q 6069.262 5454.042 6069.245 5454.096 Q 6069.228 5454.151 6069.383 5453.357 Q 6069.538 5452.563 6072.206 5449.918 Q 6074.874 5447.272 6077.425 5445.469 Q 6079.975 5443.666 6081.374 5442.989 Q 6082.773 5442.312 6085.230 5441.126 Q 6087.688 5439.940 6092.329 5437.959 Q 6096.971 5435.977 6099.376 5434.977 Q 6101.782 5433.977 6102.896 5433.688 Q 6104.011 5433.400 6104.727 5433.490 Q 6104.727 5433.562 6104.477 5433.830 Q 6104.220 5433.079 6104.274 5433.223 Q 6103.586 5431.673 6101.245 5430.509 Q 6098.903 5429.345 6092.321 5425.874 Q 6085.739 5422.403 6082.183 5420.488 Q 6078.626 5418.573 6076.337 5417.067 Q 6074.048 5415.562 6072.829 5412.844 Q 6072.916 5412.781 6073.795 5413.589 Q 6074.673 5414.396 6075.019 5414.593 "></path>
    <path id="STROKE_7cb307a4-6c93-4ab6-a5b7-da39dbbc64ff" opacity="1.000" fill="none" stroke="#f3ba38" stroke-width="4.420" stroke-opacity="1.000" stroke-linecap="round" stroke-linejoin="round" d="M 6071.995 5414.896 Q 6071.646 5414.456 6071.650 5414.468 Q 6071.579 5414.396 6071.543 5414.290 Q 6071.551 5415.732 6070.543 5442.395 Q 6070.784 5443.193 6071.822 5435.627 Q 6072.860 5428.061 6074.186 5412.684 Q 6074.005 5412.930 6072.745 5441.940 Q 6074.355 5441.767 6078.982 5423.747 L 6079.054 5423.747 Q 6079.194 5422.507 6078.530 5440.771 Q 6079.649 5441.595 6085.445 5427.388 Q 6085.445 5427.869 6085.481 5436.185 Q 6086.250 5436.179 6090.170 5429.975 Q 6090.503 5431.828 6090.408 5431.287 Q 6090.521 5432.444 6090.551 5432.357 Q 6091.683 5432.920 6091.772 5432.881 Q 6091.861 5432.843 6091.902 5432.844 Q 6091.942 5432.844 6091.951 5432.841 Q 6091.959 5432.838 6092.016 5432.850 Q 6092.072 5432.860 6093.068 5432.607 Q 6094.064 5432.354 6094.051 5432.375 Q 6094.037 5432.397 6094.099 5432.392 Q 6094.160 5432.387 6094.384 5432.365 Q 6094.607 5432.343 6095.912 5432.462 Q 6097.216 5432.580 6097.562 5432.616 "></path>
    <path id="STROKE_4bd28377-364e-4a42-bbaa-eba7741f5117" opacity="1.000" fill="none" stroke="#f3ba38" stroke-width="4.420" stroke-opacity="1.000" stroke-linecap="round" stroke-linejoin="round" d="M 6136.958 5414.665 Q 6137.129 5414.533 6136.411 5413.825 Q 6136.437 5413.113 6137.101 5443.109 Q 6137.256 5443.145 6137.405 5443.015 Q 6137.554 5442.886 6137.696 5442.627 "></path>
    <path id="STROKE_d48e765d-9dac-4bd7-8a9f-8f3c2f952842" opacity="1.000" fill="none" stroke="#f3ba38" stroke-width="4.420" stroke-opacity="1.000" stroke-linecap="round" stroke-linejoin="round" d="M 6118.795 5414.433 Q 6117.548 5414.002 6117.558 5413.941 Q 6116.718 5412.619 6117.947 5412.341 Q 6119.176 5412.062 6120.591 5411.724 Q 6122.006 5411.386 6122.970 5410.923 Q 6123.933 5410.461 6129.243 5409.549 Q 6134.554 5408.637 6138.434 5409.375 Q 6142.314 5410.114 6143.076 5410.417 "></path>
    <path id="STROKE_fb5e4692-79ba-4882-b819-1822b70754ad" opacity="1.000" fill="none" stroke="#f3ba38" stroke-width="4.302" stroke-opacity="1.000" stroke-linecap="round" stroke-linejoin="round" d="M 6154.264 5406.027 Q 6152.914 5406.216 6152.943 5406.286 Q 6151.921 5406.854 6151.836 5407.178 Q 6151.751 5407.502 6151.567 5407.952 Q 6151.383 5408.402 6151.393 5414.726 Q 6151.403 5421.050 6152.717 5437.167 Q 6154.540 5438.935 6165.988 5421.855 Q 6166.573 5421.850 6165.752 5427.197 Q 6164.932 5432.545 6165.048 5438.986 Q 6165.702 5439.071 6166.012 5439.104 Q 6166.321 5439.138 6166.738 5439.219 "></path>
    <path id="STROKE_d99bd7c3-3d21-4a1e-8bda-7d51a1d63b1e" opacity="1.000" fill="none" stroke="#f3ba38" stroke-width="4.420" stroke-opacity="1.000" stroke-linecap="round" stroke-linejoin="round" d="M 6176.569 5430.885 Q 6176.680 5431.189 6177.018 5431.423 Q 6177.355 5431.656 6178.016 5431.513 Q 6178.675 5431.369 6179.003 5431.680 Q 6179.331 5431.990 6183.416 5431.022 Q 6187.500 5430.055 6190.216 5428.554 Q 6192.932 5427.052 6194.365 5426.137 Q 6195.798 5425.222 6196.266 5424.455 Q 6196.734 5423.688 6196.829 5422.949 Q 6196.925 5422.211 6196.881 5421.761 Q 6196.837 5421.311 6196.615 5420.859 Q 6196.393 5420.408 6195.653 5419.938 Q 6194.914 5419.468 6193.581 5419.203 Q 6192.248 5418.937 6190.487 5418.770 Q 6188.726 5418.603 6186.379 5419.279 Q 6184.032 5419.956 6182.714 5420.885 Q 6181.395 5421.814 6179.769 5423.555 Q 6178.142 5425.295 6177.101 5428.038 Q 6176.061 5430.781 6175.823 5433.012 Q 6175.585 5435.243 6176.018 5436.902 Q 6176.449 5438.561 6177.308 5439.178 Q 6178.166 5439.794 6179.123 5440.009 Q 6180.080 5440.223 6181.304 5440.651 Q 6182.527 5441.080 6185.868 5438.820 Q 6189.209 5436.560 6189.971 5435.882 "></path>
    <path id="STROKE_2eb5a1dd-da18-4941-86bc-2de15db07d49" opacity="1.000" fill="none" stroke="#f3ba38" stroke-width="4.420" stroke-opacity="1.000" stroke-linecap="round" stroke-linejoin="round" d="M 6203.278 5417.091 Q 6203.278 5417.091 6203.295 5416.844 Q 6203.312 5416.598 6202.838 5421.295 Q 6202.364 5425.993 6202.064 5437.398 Q 6201.800 5437.251 6205.262 5431.848 Q 6208.725 5426.443 6211.241 5423.289 Q 6213.758 5420.135 6216.168 5418.376 Q 6216.225 5418.213 6216.196 5418.959 Q 6216.168 5419.705 6216.133 5420.125 "></path>
    <path id="STROKE_bb98d87b-d2a9-4558-9d42-d92a419a36d0" opacity="1.000" fill="none" stroke="#f3ba38" stroke-width="4.420" stroke-opacity="1.000" stroke-linecap="round" stroke-linejoin="round" d="M 6219.298 5427.763 Q 6219.327 5429.339 6219.273 5429.043 Q 6219.219 5428.748 6219.354 5429.055 Q 6219.489 5429.361 6220.165 5429.512 Q 6220.840 5429.662 6222.578 5429.756 Q 6224.316 5429.851 6227.271 5428.270 Q 6230.228 5426.689 6231.895 5424.817 Q 6233.562 5422.945 6234.294 5421.496 Q 6235.026 5420.047 6234.697 5418.919 Q 6234.368 5417.792 6231.737 5417.397 Q 6229.106 5417.002 6226.606 5417.656 Q 6224.106 5418.310 6222.414 5419.673 Q 6220.721 5421.037 6219.186 5423.059 Q 6217.649 5425.080 6216.897 5427.074 Q 6216.146 5429.067 6216.130 5430.920 Q 6216.114 5432.773 6216.123 5434.057 Q 6216.132 5435.341 6217.636 5436.457 Q 6219.140 5437.573 6223.433 5438.240 Q 6227.726 5438.906 6228.440 5439.129 "></path>
    <path id="STROKE_4fef12d0-f342-4c3d-b36f-3d882599bffa" opacity="1.000" fill="none" stroke="#f3ba38" stroke-width="4.420" stroke-opacity="1.000" stroke-linecap="round" stroke-linejoin="round" d="M 6259.766 5417.234 Q 6260.084 5417.172 6259.695 5415.342 Q 6259.305 5413.511 6258.769 5412.252 Q 6258.232 5410.994 6257.826 5410.691 Q 6257.419 5410.388 6256.307 5410.608 Q 6255.194 5410.828 6253.908 5414.429 Q 6252.621 5418.029 6252.056 5420.042 Q 6251.491 5422.054 6250.150 5427.894 Q 6248.810 5433.733 6248.308 5438.158 Q 6247.805 5442.582 6247.650 5442.770 "></path>
    <path id="STROKE_d35e134d-32d2-439b-bdf5-ed12788903d1" opacity="1.000" fill="none" stroke="#f3ba38" stroke-width="4.420" stroke-opacity="1.000" stroke-linecap="round" stroke-linejoin="round" d="M 6238.128 5430.885 Q 6238.653 5428.875 6244.611 5427.685 Q 6250.570 5426.495 6254.389 5426.848 Q 6258.208 5427.200 6259.005 5427.459 "></path>
    <path id="STROKE_0c9bc6c5-bfd4-480e-9e63-f866e3832e95" opacity="1.000" fill="none" stroke="#f3ba38" stroke-width="4.420" stroke-opacity="1.000" stroke-linecap="round" stroke-linejoin="round" d="M 6265.194 5425.264 Q 6265.346 5425.239 6263.778 5425.329 Q 6262.211 5425.419 6261.299 5426.105 Q 6260.388 5426.792 6260.343 5429.907 Q 6260.299 5433.022 6261.034 5434.938 Q 6261.770 5436.853 6263.723 5437.846 Q 6265.676 5438.840 6268.558 5438.240 Q 6271.440 5437.640 6273.486 5435.952 Q 6275.532 5434.263 6276.650 5432.314 Q 6277.769 5430.365 6277.911 5428.800 Q 6278.054 5427.235 6278.102 5426.300 Q 6278.148 5425.365 6277.840 5424.782 Q 6277.531 5424.199 6277.061 5423.695 Q 6276.589 5423.192 6275.123 5422.566 Q 6273.656 5421.940 6271.625 5421.557 Q 6269.594 5421.173 6267.678 5422.151 Q 6265.761 5423.130 6264.693 5423.973 Q 6263.626 5424.815 6263.220 5425.960 Q 6262.813 5427.106 6263.420 5427.965 Q 6264.027 5428.825 6265.146 5428.923 Q 6266.265 5429.021 6267.027 5429.065 "></path>
    <path id="STROKE_7f4a9365-0ffa-4fd0-bb07-2264c6ec0494" opacity="1.000" fill="none" stroke="#f3ba38" stroke-width="4.420" stroke-opacity="1.000" stroke-linecap="round" stroke-linejoin="round" d="M 6287.284 5416.788 Q 6287.328 5417.799 6287.342 5422.074 Q 6287.356 5426.350 6286.545 5430.899 Q 6285.734 5435.449 6284.643 5440.807 Q 6283.586 5441.189 6286.945 5435.465 Q 6290.304 5429.740 6292.396 5425.664 Q 6294.489 5421.588 6296.993 5420.018 Q 6299.497 5418.447 6299.997 5418.215 "></path>
    <path id="STROKE_60a746ec-85f5-409f-b5af-42dbb939fb69" opacity="1.000" fill="none" stroke="#f3ba38" stroke-width="4.420" stroke-opacity="1.000" stroke-linecap="round" stroke-linejoin="round" d="M 6300.591 5427.155 Q 6300.559 5427.023 6300.547 5427.207 Q 6300.535 5427.392 6300.468 5427.171 Q 6300.400 5426.950 6300.330 5428.869 Q 6300.169 5428.977 6303.583 5429.625 Q 6306.996 5430.274 6310.302 5429.689 Q 6313.609 5429.104 6316.698 5427.510 Q 6319.788 5425.917 6321.615 5424.677 Q 6323.442 5423.437 6324.074 5421.497 Q 6324.707 5419.558 6324.563 5418.690 Q 6324.420 5417.824 6324.289 5417.271 Q 6324.158 5416.717 6322.870 5416.094 Q 6321.582 5415.471 6319.924 5415.043 Q 6318.267 5414.615 6315.642 5415.942 Q 6313.017 5417.270 6311.588 5418.396 Q 6310.160 5419.522 6309.351 5420.262 Q 6308.542 5421.002 6308.020 5421.549 Q 6307.498 5422.095 6306.161 5423.669 Q 6304.825 5425.243 6303.350 5427.700 Q 6301.875 5430.157 6301.043 5432.930 Q 6300.211 5435.703 6300.399 5437.410 Q 6300.587 5439.118 6300.993 5440.765 Q 6301.398 5442.411 6309.279 5442.100 Q 6317.160 5441.788 6317.993 5441.556 "></path>
    <path id="STROKE_e887dba1-43ae-4814-9ea2-861909df1d35" opacity="1.000" fill="none" stroke="#f3ba38" stroke-width="4.420" stroke-opacity="1.000" stroke-linecap="round" stroke-linejoin="round" d="M 6626.169 4880.981 Q 6626.172 4880.914 6626.132 4880.800 Q 6626.091 4880.686 6626.512 4879.858 Q 6626.933 4879.032 6626.944 4879.124 Q 6626.955 4879.216 6626.784 4879.188 Q 6626.613 4879.159 6627.602 4879.045 Q 6628.591 4878.931 6630.041 4878.764 Q 6631.491 4878.596 6637.088 4882.676 Q 6642.685 4886.755 6648.208 4895.975 Q 6648.116 4895.975 6647.798 4895.935 Q 6647.481 4895.895 6647.177 4895.816 "></path>
    <path id="STROKE_5026080a-a8b4-4a4e-81db-16cd1a2dfc72" opacity="1.000" fill="none" stroke="#f3ba38" stroke-width="4.420" stroke-opacity="1.000" stroke-linecap="round" stroke-linejoin="round" d="M 6649.134 4872.393 Q 6647.738 4873.060 6643.181 4880.753 Q 6638.624 4888.445 6634.080 4900.021 Q 6634.041 4899.892 6634.001 4899.763 "></path>
    <path id="STROKE_5e95aaa4-8eae-4864-8106-d8bf450c24b9" opacity="1.000" fill="none" stroke="#f3ba38" stroke-width="4.420" stroke-opacity="1.000" stroke-linecap="round" stroke-linejoin="round" d="M 6382.685 5415.206 Q 6382.226 5415.133 6379.420 5415.304 Q 6376.615 5415.474 6374.458 5416.902 Q 6372.301 5418.331 6369.656 5421.112 Q 6367.011 5423.893 6365.638 5425.912 Q 6364.264 5427.931 6363.658 5430.079 Q 6363.052 5432.227 6362.947 5434.203 Q 6362.841 5436.179 6365.605 5438.423 Q 6368.370 5440.667 6372.551 5441.071 Q 6376.732 5441.475 6377.658 5441.564 "></path>
    <path id="STROKE_084b714a-6260-459a-ab18-b3ba7f75fc96" opacity="1.000" fill="none" stroke="#f3ba38" stroke-width="4.171" stroke-opacity="1.000" stroke-linecap="round" stroke-linejoin="round" d="M 6401.760 5420.343 Q 6401.561 5420.366 6400.480 5420.039 Q 6399.400 5419.711 6398.750 5419.771 Q 6398.101 5419.832 6397.578 5420.431 Q 6397.056 5421.029 6396.840 5421.833 Q 6396.624 5422.638 6396.154 5423.333 Q 6395.685 5424.028 6395.133 5427.496 Q 6394.581 5430.965 6394.858 5433.194 Q 6395.135 5435.424 6396.676 5437.295 Q 6398.218 5439.167 6399.520 5440.563 Q 6400.821 5441.960 6403.093 5443.349 Q 6405.365 5444.738 6406.840 5444.977 Q 6408.314 5445.215 6410.548 5445.434 Q 6412.782 5445.653 6414.369 5442.690 Q 6415.956 5439.727 6416.429 5435.654 Q 6416.901 5431.581 6417.042 5427.978 Q 6417.182 5424.375 6417.000 5422.290 Q 6416.818 5420.205 6415.228 5417.982 Q 6414.945 5420.291 6415.174 5429.746 Q 6415.402 5439.202 6415.132 5447.672 Q 6414.861 5456.143 6413.307 5463.253 Q 6411.753 5470.363 6410.813 5474.289 Q 6409.875 5478.214 6408.281 5481.056 Q 6406.688 5483.896 6404.855 5485.477 Q 6403.023 5487.058 6401.247 5486.944 Q 6399.470 5486.830 6398.945 5486.530 Q 6398.420 5486.231 6397.982 5485.314 Q 6397.545 5484.398 6397.033 5483.594 Q 6396.521 5482.789 6396.422 5482.577 Q 6396.323 5482.366 6394.912 5479.870 Q 6393.500 5477.375 6392.484 5475.068 Q 6391.469 5472.761 6391.257 5472.305 "></path>
    <path id="STROKE_f30ffa45-aa61-4194-8d66-3838a568702b" opacity="1.000" fill="none" stroke="#f3ba38" stroke-width="4.420" stroke-opacity="1.000" stroke-linecap="round" stroke-linejoin="round" d="M 6440.599 5423.278 Q 6440.862 5423.528 6440.155 5421.934 Q 6439.449 5420.340 6438.805 5419.410 Q 6438.160 5418.481 6437.286 5418.465 Q 6436.412 5418.448 6435.515 5419.087 Q 6434.617 5419.725 6433.636 5420.960 Q 6432.654 5422.194 6430.770 5425.478 Q 6428.884 5428.762 6427.854 5432.702 Q 6426.825 5436.642 6426.785 5439.107 Q 6426.746 5441.574 6426.811 5443.443 Q 6426.875 5445.313 6428.250 5445.893 Q 6429.624 5446.472 6430.645 5446.472 Q 6431.666 5446.473 6432.786 5446.168 Q 6433.907 5445.864 6437.421 5442.681 Q 6440.936 5439.498 6444.037 5435.608 Q 6447.138 5431.718 6449.412 5427.633 Q 6451.686 5423.548 6452.069 5418.518 Q 6452.494 5418.600 6451.459 5418.604 Q 6450.424 5418.610 6448.705 5423.497 Q 6446.985 5428.383 6446.311 5431.260 Q 6445.637 5434.136 6445.469 5436.582 Q 6445.301 5439.028 6445.302 5440.630 Q 6445.302 5442.232 6446.770 5442.998 Q 6448.238 5443.764 6450.353 5443.469 Q 6452.467 5443.174 6454.180 5441.799 Q 6455.892 5440.423 6456.818 5439.541 "></path>
    <path id="STROKE_c659f75f-f098-4a3b-ac1d-45d777808f1c" opacity="1.000" fill="none" stroke="#f3ba38" stroke-width="4.420" stroke-opacity="1.000" stroke-linecap="round" stroke-linejoin="round" d="M 6469.755 5418.320 Q 6469.965 5418.275 6469.930 5418.162 Q 6469.894 5418.049 6469.075 5418.728 Q 6468.257 5419.406 6468.185 5420.822 Q 6468.112 5422.237 6466.731 5428.525 Q 6465.351 5434.813 6465.178 5441.594 Q 6465.804 5443.730 6468.763 5439.097 Q 6471.721 5434.463 6473.252 5431.373 Q 6474.783 5428.282 6476.134 5426.041 Q 6477.485 5423.800 6478.517 5422.139 Q 6479.548 5420.478 6482.362 5419.410 Q 6483.330 5419.711 6482.222 5426.300 Q 6481.114 5432.889 6480.180 5442.060 Q 6480.180 5441.931 6480.199 5441.430 Q 6480.219 5440.929 6480.259 5440.552 "></path>
    <path id="STROKE_2864f234-a489-42a6-82e6-a99c4b9c186b" opacity="1.000" fill="none" stroke="#f3ba38" stroke-width="4.420" stroke-opacity="1.000" stroke-linecap="round" stroke-linejoin="round" d="M 6491.874 5441.644 Q 6491.793 5439.606 6491.794 5439.620 Q 6491.705 5438.526 6491.634 5435.332 Q 6491.562 5432.138 6492.009 5430.028 Q 6492.456 5427.918 6492.799 5427.165 "></path>
    <circle id="STROKE_932474a2-ed8e-4353-a994-ffb594d5b30c" opacity="1.000" fill="#f3ba38" stroke="#f3ba38" stroke-width="0.1" stroke-opacity="1.000" fill-opacity="1.000" cx="6495.657" cy="5416.217" r="2.210"></circle>
    <path id="STROKE_9dd56321-d21d-415a-bd98-7bd2bfdba616" opacity="1.000" fill="none" stroke="#f3ba38" stroke-width="4.416" stroke-opacity="1.000" stroke-linecap="round" stroke-linejoin="round" d="M 6522.881 5422.703 Q 6521.045 5422.455 6521.122 5422.276 Q 6520.522 5421.966 6518.955 5420.958 Q 6517.387 5419.949 6516.244 5419.222 Q 6515.101 5418.495 6513.602 5418.245 Q 6512.103 5417.996 6511.458 5418.461 Q 6510.814 5418.927 6509.508 5420.390 Q 6508.202 5421.853 6506.941 5426.016 Q 6505.680 5430.178 6505.496 5433.314 Q 6505.311 5436.451 6506.025 5439.230 Q 6506.740 5442.009 6509.438 5442.775 Q 6512.137 5443.542 6514.686 5442.581 Q 6517.235 5441.621 6520.912 5437.736 Q 6524.589 5433.852 6527.518 5429.246 Q 6530.447 5424.641 6531.730 5422.206 Q 6533.014 5419.771 6533.662 5418.195 Q 6534.311 5416.619 6534.918 5415.343 Q 6535.525 5414.066 6536.952 5409.044 Q 6538.378 5404.022 6536.917 5395.700 Q 6534.905 5395.721 6533.237 5401.890 Q 6531.570 5408.058 6530.131 5413.363 Q 6528.691 5418.669 6527.648 5423.068 Q 6526.606 5427.468 6526.525 5430.125 Q 6526.444 5432.782 6526.648 5434.483 Q 6526.853 5436.185 6528.355 5437.037 Q 6529.857 5437.889 6534.055 5435.155 Q 6538.253 5432.421 6538.755 5431.965 "></path>
    <path id="STROKE_4f3d0a48-cfef-4ede-8d47-cbefc7d08f20" opacity="1.000" fill="none" stroke="#f3ba38" stroke-width="4.420" stroke-opacity="1.000" stroke-linecap="round" stroke-linejoin="round" d="M 6545.660 5426.729 Q 6546.642 5428.283 6552.330 5426.567 Q 6558.018 5424.853 6561.143 5423.105 Q 6564.268 5421.357 6565.953 5420.468 Q 6567.638 5419.578 6569.010 5418.211 Q 6570.382 5416.844 6571.039 5414.602 Q 6571.697 5412.358 6569.791 5411.136 Q 6567.885 5409.913 6565.773 5409.653 Q 6563.662 5409.393 6561.318 5410.030 Q 6558.975 5410.667 6556.246 5414.560 Q 6553.518 5418.452 6551.368 5423.137 Q 6549.218 5427.823 6548.370 5431.592 Q 6547.522 5435.361 6547.411 5438.025 Q 6547.300 5440.689 6547.969 5441.531 Q 6548.638 5442.372 6550.071 5443.472 Q 6551.505 5444.572 6556.335 5442.181 Q 6561.165 5439.789 6561.879 5439.283 "></path>
    <path id="STROKE_b5180429-54ac-443e-8444-05c851060f02" opacity="1.000" fill="none" stroke="#f3ba38" stroke-width="4.420" stroke-opacity="1.000" stroke-linecap="round" stroke-linejoin="round" d="M 6591.537 5415.781 Q 6591.246 5415.418 6598.219 5415.221 Q 6605.192 5415.023 6615.072 5415.467 Q 6624.953 5415.910 6625.587 5416.118 "></path>
    <path id="STROKE_1fc41e94-694e-40f0-8af2-e50e8a7df21f" opacity="1.000" fill="none" stroke="#f3ba38" stroke-width="4.420" stroke-opacity="1.000" stroke-linecap="round" stroke-linejoin="round" d="M 6590.717 5432.123 Q 6591.538 5433.316 6606.545 5432.363 Q 6621.553 5431.409 6622.730 5431.191 "></path>
    <path id="STROKE_c7c2fa47-70b2-4126-bdd1-e8eeac71bd83" opacity="1.000" fill="none" stroke="#f3ba38" stroke-width="4.420" stroke-opacity="1.000" stroke-linecap="round" stroke-linejoin="round" d="M 6680.724 5402.136 Q 6680.750 5401.744 6679.742 5400.800 Q 6678.734 5399.856 6676.517 5399.597 Q 6674.298 5399.337 6671.610 5400.408 Q 6668.923 5401.479 6667.291 5402.661 Q 6665.660 5403.843 6662.901 5406.402 Q 6660.143 5408.962 6658.720 5412.249 Q 6657.297 5415.537 6657.065 5418.133 Q 6656.833 5420.730 6657.385 5423.150 Q 6657.936 5425.571 6660.127 5428.581 Q 6662.318 5431.590 6666.065 5432.964 Q 6669.813 5434.337 6672.972 5434.644 Q 6676.130 5434.950 6678.188 5434.752 Q 6680.246 5434.554 6681.451 5433.844 Q 6682.655 5433.135 6683.317 5432.718 "></path>
    <path id="STROKE_db5b5a65-e5b8-4eab-b589-a0384afebb7f" opacity="1.000" fill="none" stroke="#f3ba38" stroke-width="4.117" stroke-opacity="1.000" stroke-linecap="round" stroke-linejoin="round" d="M 6700.144 5399.538 Q 6700.144 5398.375 6700.144 5398.397 Q 6700.144 5398.229 6700.144 5398.189 Q 6700.054 5398.347 6699.445 5407.230 Q 6698.836 5416.113 6702.961 5431.707 L 6703.001 5431.707 Q 6702.946 5432.550 6703.159 5429.897 Q 6703.371 5427.244 6703.504 5426.570 "></path>
    <path id="STROKE_cd96d417-9394-4263-9149-b1339a867102" opacity="1.000" fill="none" stroke="#f3ba38" stroke-width="4.420" stroke-opacity="1.000" stroke-linecap="round" stroke-linejoin="round" d="M 6698.371 5399.955 Q 6698.385 5399.978 6698.396 5399.945 Q 6698.406 5399.912 6698.326 5400.009 Q 6698.247 5400.105 6698.247 5400.101 Q 6698.247 5400.097 6698.833 5399.343 Q 6699.418 5398.588 6700.084 5399.109 Q 6700.749 5399.630 6700.641 5399.690 Q 6700.532 5399.751 6700.610 5399.654 Q 6700.688 5399.557 6703.358 5406.854 Q 6706.027 5414.150 6709.368 5420.648 Q 6712.708 5427.146 6720.264 5437.102 Q 6720.874 5435.619 6721.567 5425.486 Q 6722.261 5415.354 6723.929 5396.166 Q 6723.923 5395.999 6723.800 5397.218 Q 6723.677 5398.437 6723.505 5398.863 "></path>
    <path id="STROKE_58e9de8c-cd4c-464e-a7af-00136c45c2f8" opacity="1.000" fill="none" stroke="#f3ba38" stroke-width="4.420" stroke-opacity="1.000" stroke-linecap="round" stroke-linejoin="round" d="M 6736.707 5390.354 Q 6736.667 5390.354 6736.443 5390.226 Q 6736.443 5390.137 6736.443 5389.889 Q 6737.850 5388.876 6745.553 5389.804 Q 6753.256 5390.731 6754.275 5391.108 "></path>
  </g>
</svg>