<?xml version="1.0" encoding="UTF-8" standalone="yes"?>
<svg xmlns="http://www.w3.org/2000/svg" xmlns:xlink="http://www.w3.org/1999/xlink" width="763.303pt" height="703.084pt" version="1.1" viewBox="6064.887 5557.904 763.303 703.084">
  <!--
	Exported with Concepts: Smarter Sketching
	Version: 1059 on iOS 15.4
	https://concepts.app/
	-->
  <title>Untitled 1</title>
  <desc>Drawing exported from Concepts: Smarter Sketching</desc>
  <defs></defs>
  <g id="New_Layer_7" opacity="1.000">
    <path id="STROKE_970a8e78-d3e4-46aa-a0c0-cbd4ae8a2cbe" opacity="1.000" fill="none" stroke="#f3ba38" stroke-width="4.420" stroke-opacity="1.000" stroke-linecap="round" stroke-linejoin="round" d="M 6277.202 5605.240 Q 6277.119 5605.726 6279.057 5599.068 Q 6279.355 5598.415 6276.128 5598.955 Q 6272.901 5599.495 6270.540 5600.605 Q 6268.180 5601.716 6266.374 5603.513 Q 6264.568 5605.310 6263.555 5606.734 Q 6262.541 5608.158 6261.364 5610.689 Q 6260.188 5613.221 6260.242 5616.577 Q 6260.295 5619.934 6260.462 5621.653 Q 6260.628 5623.372 6261.579 5624.935 Q 6262.530 5626.497 6264.345 5627.689 Q 6266.160 5628.882 6268.323 5629.616 Q 6270.487 5630.350 6273.144 5630.305 Q 6275.799 5630.259 6277.478 5630.318 Q 6279.157 5630.377 6281.668 5629.013 Q 6284.179 5627.649 6286.322 5625.420 Q 6288.464 5623.191 6290.146 5620.432 Q 6291.828 5617.672 6292.172 5614.957 Q 6292.516 5612.243 6292.391 5610.615 Q 6292.266 5608.987 6290.730 5607.242 Q 6289.195 5605.496 6285.623 5603.792 Q 6282.051 5602.088 6280.090 5601.194 Q 6278.128 5600.300 6276.373 5600.000 Q 6274.618 5599.700 6274.321 5600.681 Q 6274.023 5601.662 6273.888 5601.990 "></path>
    <path id="STROKE_f028d3c6-a864-4986-b94e-66d36edd914f" opacity="1.000" fill="none" stroke="#f3ba38" stroke-width="4.340" stroke-opacity="1.000" stroke-linecap="round" stroke-linejoin="round" d="M 6298.733 5601.928 Q 6297.677 5601.756 6297.931 5601.756 Q 6297.795 5601.693 6297.733 5601.521 Q 6298.929 5601.070 6301.833 5603.136 Q 6304.738 5605.201 6319.264 5629.662 Q 6319.196 5629.095 6319.063 5626.109 Q 6318.931 5623.123 6318.868 5622.553 "></path>
    <path id="STROKE_c2ee5db0-300c-4ee3-baab-2993319ff8aa" opacity="1.000" fill="none" stroke="#f3ba38" stroke-width="4.402" stroke-opacity="1.000" stroke-linecap="round" stroke-linejoin="round" d="M 6320.119 5599.803 Q 6320.083 5599.899 6320.275 5599.815 Q 6320.467 5599.732 6319.069 5599.735 Q 6317.671 5599.739 6317.150 5599.865 Q 6316.628 5599.990 6316.098 5601.171 Q 6315.567 5602.351 6314.887 5603.737 Q 6314.206 5605.123 6313.939 5605.764 Q 6313.673 5606.405 6309.731 5614.771 Q 6305.790 5623.138 6301.172 5634.443 Q 6300.877 5634.125 6302.041 5632.108 Q 6303.204 5630.092 6303.569 5629.662 "></path>
    <path id="STROKE_9352c309-1c9a-4bdc-a189-10bd3e6c1e74" opacity="1.000" fill="none" stroke="#f3ba38" stroke-width="4.420" stroke-opacity="1.000" stroke-linecap="round" stroke-linejoin="round" d="M 6344.089 5608.100 Q 6344.089 5606.890 6344.089 5606.896 Q 6344.286 5606.390 6343.958 5605.633 Q 6343.630 5604.875 6342.394 5604.423 Q 6341.157 5603.971 6340.592 5604.302 Q 6340.026 5604.633 6338.647 5605.680 Q 6337.269 5606.726 6335.276 5610.007 Q 6333.284 5613.288 6331.983 5616.258 Q 6330.683 5619.229 6330.231 5622.525 Q 6329.780 5625.821 6329.856 5627.747 Q 6329.933 5629.672 6330.905 5630.878 Q 6331.878 5632.084 6332.964 5632.568 Q 6334.051 5633.051 6334.853 5633.224 Q 6335.655 5633.397 6337.086 5633.317 Q 6338.517 5633.237 6340.439 5631.853 Q 6342.362 5630.468 6344.848 5627.461 Q 6347.334 5624.454 6350.007 5619.895 Q 6352.680 5615.334 6352.687 5604.350 Q 6351.817 5604.168 6351.895 5604.240 Q 6349.441 5605.634 6348.670 5611.689 Q 6347.898 5617.745 6347.806 5620.782 Q 6347.713 5623.820 6347.788 5625.610 Q 6347.862 5627.401 6348.697 5629.164 Q 6349.533 5630.926 6351.399 5631.527 Q 6353.265 5632.128 6356.385 5630.879 Q 6359.505 5629.630 6360.916 5627.837 Q 6362.327 5626.045 6362.827 5625.412 "></path>
    <path id="STROKE_78086718-9746-40a8-bf5f-758a9413eeb1" opacity="1.000" fill="none" stroke="#f3ba38" stroke-width="4.420" stroke-opacity="1.000" stroke-linecap="round" stroke-linejoin="round" d="M 6374.479 5598.803 Q 6374.579 5598.034 6374.541 5598.107 Q 6374.541 5597.873 6374.541 5597.475 Q 6374.801 5598.226 6372.760 5608.985 Q 6370.719 5619.745 6368.976 5630.787 Q 6369.080 5630.654 6370.242 5628.381 Q 6371.404 5626.107 6371.769 5625.350 "></path>
    <path id="STROKE_7460de16-1cc1-4c80-b154-5b4ec5149518" opacity="1.000" fill="none" stroke="#f3ba38" stroke-width="4.420" stroke-opacity="1.000" stroke-linecap="round" stroke-linejoin="round" d="M 6395.197 5608.959 Q 6395.311 5609.416 6394.521 5608.456 Q 6393.733 5607.496 6393.170 5607.000 Q 6392.607 5606.503 6391.893 5606.453 Q 6391.179 5606.403 6390.831 5606.749 Q 6390.483 5607.094 6390.367 5607.417 Q 6390.250 5607.740 6389.812 5608.340 Q 6389.374 5608.940 6388.016 5612.960 Q 6386.658 5616.981 6386.467 5620.946 Q 6386.275 5624.911 6386.173 5627.157 Q 6386.072 5629.403 6387.458 5630.341 Q 6388.844 5631.279 6390.805 5629.757 Q 6392.766 5628.235 6395.529 5623.951 Q 6398.293 5619.667 6400.283 5615.279 Q 6402.272 5610.892 6402.722 5604.209 Q 6401.295 5603.407 6399.692 5607.456 Q 6398.090 5611.505 6397.044 5614.665 Q 6395.997 5617.825 6395.527 5620.881 Q 6395.057 5623.938 6395.214 5626.190 Q 6395.370 5628.442 6398.027 5628.379 Q 6400.684 5628.316 6402.777 5628.047 Q 6404.870 5627.778 6407.303 5625.732 Q 6409.735 5623.686 6410.496 5622.959 "></path>
    <path id="STROKE_9dfb4a6c-ea2b-41c0-815f-65a24a4b27cf" opacity="1.000" fill="none" stroke="#f3ba38" stroke-width="4.420" stroke-opacity="1.000" stroke-linecap="round" stroke-linejoin="round" d="M 6427.984 5597.084 Q 6427.920 5597.106 6425.493 5597.053 Q 6426.054 5597.759 6424.003 5626.006 Q 6424.038 5625.378 6423.953 5625.181 Q 6423.867 5624.982 6423.732 5624.615 "></path>
    <path id="STROKE_ed721c24-876e-4162-907c-ab36f81b4862" opacity="1.000" fill="none" stroke="#f3ba38" stroke-width="4.420" stroke-opacity="1.000" stroke-linecap="round" stroke-linejoin="round" d="M 6411.684 5614.928 Q 6411.684 5614.928 6411.772 5614.954 Q 6411.860 5614.980 6417.302 5613.901 Q 6422.743 5612.821 6428.542 5612.910 Q 6434.341 5612.998 6435.467 5612.865 "></path>
    <path id="STROKE_97977e47-8ab4-40a7-9ce3-7dbb0e78da07" opacity="1.000" fill="none" stroke="#f3ba38" stroke-width="4.420" stroke-opacity="1.000" stroke-linecap="round" stroke-linejoin="round" d="M 6442.616 5610.412 Q 6441.622 5610.375 6441.824 5610.287 Q 6441.720 5610.186 6441.720 5609.990 Q 6441.766 5610.214 6447.744 5609.628 Q 6453.723 5609.042 6458.074 5608.006 Q 6462.424 5606.970 6464.721 5605.937 Q 6467.017 5604.903 6468.173 5604.102 Q 6469.328 5603.300 6469.333 5601.900 Q 6469.337 5600.501 6469.096 5599.375 Q 6468.854 5598.248 6467.275 5597.149 Q 6465.696 5596.051 6463.495 5595.707 Q 6461.293 5595.362 6458.956 5595.300 Q 6456.619 5595.238 6453.853 5597.310 Q 6451.087 5599.381 6448.612 5602.255 Q 6446.137 5605.129 6444.739 5607.792 Q 6443.341 5610.456 6442.840 5613.184 Q 6442.339 5615.912 6442.516 5617.502 Q 6442.692 5619.093 6443.571 5620.476 Q 6444.451 5621.858 6449.242 5622.622 Q 6454.034 5623.387 6458.038 5624.118 Q 6462.042 5624.850 6462.667 5625.021 "></path>
    <path id="STROKE_e2f1c0c2-ad40-49ca-bb48-7c6588364f4b" opacity="1.000" fill="none" stroke="#f3ba38" stroke-width="4.408" stroke-opacity="1.000" stroke-linecap="round" stroke-linejoin="round" d="M 6521.217 5603.053 Q 6521.509 5603.156 6520.056 5603.106 Q 6518.603 5603.057 6516.596 5602.462 Q 6514.588 5601.867 6513.162 5601.704 Q 6511.736 5601.541 6511.098 5601.725 Q 6510.459 5601.909 6510.209 5601.944 Q 6509.959 5601.980 6510.066 5601.966 Q 6510.172 5601.952 6509.832 5601.999 Q 6509.491 5602.045 6508.441 5602.114 Q 6507.393 5602.182 6507.065 5602.194 Q 6506.739 5602.207 6506.741 5602.193 Q 6506.647 5602.193 6506.585 5602.193 Q 6507.010 5602.270 6513.400 5602.117 Q 6519.791 5601.965 6530.316 5601.962 Q 6540.841 5601.959 6541.810 5601.990 "></path>
    <path id="STROKE_87995607-bba8-44dd-affd-b46f141d7db6" opacity="1.000" fill="none" stroke="#f3ba38" stroke-width="4.420" stroke-opacity="1.000" stroke-linecap="round" stroke-linejoin="round" d="M 6499.686 5616.193 Q 6499.693 5616.260 6500.192 5616.246 Q 6500.691 5616.231 6506.386 5615.918 Q 6512.080 5615.604 6518.659 5615.566 Q 6525.238 5615.529 6530.442 5615.864 Q 6535.647 5616.200 6538.463 5616.509 Q 6541.279 5616.818 6542.207 5616.990 "></path>
    <path id="STROKE_1236f645-9ce4-4783-b09b-e17c1bb6e39f" opacity="1.000" fill="none" stroke="#f3ba38" stroke-width="4.420" stroke-opacity="1.000" stroke-linecap="round" stroke-linejoin="round" d="M 6599.484 5596.490 Q 6599.523 5596.016 6599.173 5595.090 Q 6598.823 5594.165 6598.397 5593.796 Q 6597.972 5593.428 6597.797 5593.478 Q 6597.621 5593.528 6596.801 5593.456 Q 6595.980 5593.383 6594.979 5593.747 Q 6593.978 5594.110 6593.372 5594.392 Q 6592.767 5594.673 6590.735 5595.931 Q 6588.704 5597.189 6586.852 5598.915 Q 6585.000 5600.641 6583.967 5601.604 Q 6582.934 5602.567 6581.007 5604.956 Q 6579.080 5607.345 6578.075 5609.916 Q 6577.071 5612.487 6576.735 5615.100 Q 6576.400 5617.711 6577.101 5619.721 Q 6577.801 5621.730 6579.589 5623.910 Q 6581.378 5626.090 6584.423 5627.425 Q 6587.467 5628.759 6590.597 5629.264 Q 6593.727 5629.768 6596.679 5628.203 Q 6599.630 5626.639 6600.193 5626.271 "></path>
    <path id="STROKE_0082bb09-6b32-44ec-9b7c-963f868c0f13" opacity="1.000" fill="none" stroke="#f3ba38" stroke-width="4.420" stroke-opacity="1.000" stroke-linecap="round" stroke-linejoin="round" d="M 6608.155 5625.553 Q 6607.973 5625.131 6608.844 5623.119 Q 6609.714 5621.107 6611.093 5619.359 Q 6612.472 5617.610 6614.528 5616.757 Q 6616.584 5615.903 6617.784 5615.925 Q 6618.983 5615.946 6620.082 5616.633 Q 6621.182 5617.319 6622.646 5619.795 Q 6624.109 5622.271 6624.715 5626.316 Q 6625.321 5630.363 6624.708 5634.357 Q 6624.095 5638.353 6622.719 5641.271 Q 6621.343 5644.189 6620.400 5645.648 Q 6619.458 5647.107 6618.112 5647.484 Q 6616.765 5647.860 6615.645 5647.857 Q 6614.524 5647.855 6613.203 5646.755 Q 6611.882 5645.656 6611.235 5643.475 Q 6610.588 5641.293 6610.566 5640.007 Q 6610.544 5638.720 6610.969 5637.309 Q 6611.393 5635.897 6613.450 5635.705 Q 6615.507 5635.513 6617.896 5635.442 Q 6620.287 5635.372 6623.464 5637.993 Q 6626.642 5640.615 6628.273 5642.863 Q 6629.904 5645.111 6631.280 5645.695 Q 6632.657 5646.279 6632.855 5646.381 "></path>
    <circle id="STROKE_c7546d9f-8150-4103-b642-9baf4e185a53" opacity="1.000" fill="#f3ba38" stroke="#f3ba38" stroke-width="0.1" stroke-opacity="1.000" fill-opacity="1.000" cx="6633.438" cy="5644.459" r="2.210"></circle>
    <path id="STROKE_b0f05673-c144-40ce-93a1-1e83c5ea94a7" opacity="1.000" fill="none" stroke="#f3ba38" stroke-width="4.420" stroke-opacity="1.000" stroke-linecap="round" stroke-linejoin="round" d="M 6663.432 5599.209 Q 6663.389 5600.070 6663.457 5598.479 Q 6663.524 5596.888 6663.343 5595.717 Q 6663.162 5594.546 6662.368 5593.703 Q 6661.574 5592.860 6660.535 5592.526 Q 6659.496 5592.191 6657.453 5593.672 Q 6655.411 5595.153 6654.494 5596.296 Q 6653.577 5597.439 6652.255 5599.403 Q 6650.934 5601.366 6649.608 5604.140 Q 6648.283 5606.914 6647.945 5610.816 Q 6647.607 5614.718 6647.890 5617.615 Q 6648.173 5620.511 6649.244 5622.674 Q 6650.314 5624.836 6651.913 5626.732 Q 6653.511 5628.629 6655.498 5629.662 Q 6657.485 5630.695 6659.904 5630.933 Q 6662.324 5631.171 6664.839 5630.711 Q 6667.354 5630.251 6669.859 5628.417 Q 6672.365 5626.582 6674.446 5622.983 Q 6676.528 5619.385 6677.343 5616.957 Q 6678.158 5614.529 6678.385 5613.290 Q 6678.612 5612.052 6678.753 5610.004 Q 6678.893 5607.956 6678.684 5605.999 Q 6678.475 5604.042 6674.937 5601.035 Q 6671.399 5598.029 6668.969 5596.435 Q 6666.540 5594.841 6664.450 5594.191 Q 6662.360 5593.542 6660.696 5593.815 Q 6659.032 5594.089 6658.334 5594.561 Q 6657.636 5595.032 6657.824 5595.707 Q 6658.013 5596.381 6658.346 5596.615 "></path>
    <path id="STROKE_eebd0e18-2297-43c4-86f6-43beb392b9fc" opacity="1.000" fill="none" stroke="#f3ba38" stroke-width="4.420" stroke-opacity="1.000" stroke-linecap="round" stroke-linejoin="round" d="M 6690.445 5624.225 Q 6690.443 5624.993 6690.487 5622.100 Q 6689.928 5621.634 6689.712 5624.852 Q 6689.496 5628.069 6690.104 5630.312 Q 6690.713 5632.557 6691.368 5633.801 Q 6692.023 5635.045 6693.644 5636.669 Q 6695.264 5638.293 6697.575 5638.545 Q 6699.887 5638.796 6702.487 5636.749 Q 6705.088 5634.701 6705.557 5634.240 "></path>
    <path id="STROKE_1ea1e596-4326-4f75-80d4-3dcb67871772" opacity="1.000" fill="none" stroke="#f3ba38" stroke-width="4.420" stroke-opacity="1.000" stroke-linecap="round" stroke-linejoin="round" d="M 6709.663 5617.381 Q 6709.643 5617.604 6709.614 5621.416 Q 6709.586 5625.228 6708.820 5631.990 Q 6708.054 5638.753 6707.455 5643.200 Q 6706.857 5647.646 6706.759 5650.152 Q 6706.661 5652.658 6706.453 5654.297 Q 6706.245 5655.936 6706.078 5656.131 "></path>
    <path id="STROKE_8de04105-0e28-492a-ae19-4585e24f50dd" opacity="1.000" fill="none" stroke="#f45e58" stroke-width="3.570" stroke-opacity="1.000" stroke-linecap="round" stroke-linejoin="round" d="M 6283.830 5700.850 Q 6283.831 5699.431 6283.830 5697.803 Q 6284.441 5697.805 6285.097 5700.939 Q 6285.753 5704.074 6286.840 5708.536 Q 6287.927 5712.999 6288.709 5715.211 Q 6289.491 5717.423 6290.544 5719.303 Q 6291.598 5721.182 6292.264 5722.049 Q 6292.929 5722.917 6293.200 5723.167 Q 6293.472 5723.417 6294.462 5723.464 Q 6295.452 5723.510 6295.419 5723.297 Q 6295.386 5723.084 6295.621 5722.801 Q 6295.857 5722.519 6296.060 5722.166 Q 6296.262 5721.813 6296.589 5721.227 Q 6296.917 5720.640 6297.332 5719.986 Q 6297.747 5719.333 6299.093 5716.959 Q 6300.439 5714.586 6301.262 5712.695 Q 6302.083 5710.805 6305.945 5702.381 L 6306.039 5702.381 Q 6306.269 5703.136 6306.274 5703.239 Q 6306.279 5703.342 6306.341 5703.646 "></path>
    <path id="STROKE_7b4d8db7-f035-4760-bafc-328cf972d107" opacity="1.000" fill="none" stroke="#f45e58" stroke-width="3.570" stroke-opacity="1.000" stroke-linecap="round" stroke-linejoin="round" d="M 6318.055 5705.896 Q 6318.427 5705.627 6317.529 5705.771 Q 6316.631 5705.917 6315.458 5706.273 Q 6314.286 5706.629 6313.254 5708.905 Q 6312.223 5711.180 6311.760 5712.721 Q 6311.297 5714.262 6311.226 5716.307 Q 6311.154 5718.353 6311.229 5720.003 Q 6311.303 5721.654 6312.443 5722.779 Q 6313.583 5723.903 6314.906 5724.174 Q 6316.229 5724.444 6318.269 5722.708 Q 6320.308 5720.973 6322.499 5717.732 Q 6324.689 5714.492 6325.550 5710.779 Q 6326.411 5707.067 6325.851 5703.670 Q 6324.546 5703.214 6324.050 5705.396 Q 6323.554 5707.579 6323.235 5710.776 Q 6322.917 5713.974 6322.945 5715.877 Q 6322.973 5717.780 6322.870 5719.113 Q 6322.766 5720.447 6323.527 5721.043 Q 6324.288 5721.639 6325.724 5721.823 Q 6327.160 5722.007 6328.204 5720.370 Q 6329.248 5718.732 6329.644 5718.100 "></path>
    <path id="STROKE_ca9f5645-e6f9-4aeb-995f-ed60a83db9cc" opacity="1.000" fill="none" stroke="#f45e58" stroke-width="3.352" stroke-opacity="1.000" stroke-linecap="round" stroke-linejoin="round" d="M 6338.523 5696.678 Q 6338.523 5696.678 6338.592 5696.354 Q 6338.661 5696.031 6335.751 5723.943 Q 6335.783 5722.742 6335.790 5722.870 Q 6335.797 5722.999 6335.873 5722.741 Q 6335.950 5722.482 6336.147 5722.084 "></path>
    <path id="STROKE_69242519-0517-4c5b-9151-a6947778b513" opacity="1.000" fill="none" stroke="#f45e58" stroke-width="3.570" stroke-opacity="1.000" stroke-linecap="round" stroke-linejoin="round" d="M 6344.756 5713.396 Q 6344.756 5713.396 6344.650 5713.726 Q 6344.544 5714.055 6347.915 5714.168 Q 6351.286 5714.281 6353.164 5714.080 Q 6355.042 5713.879 6357.852 5712.867 Q 6360.661 5711.854 6362.360 5710.692 Q 6364.060 5709.530 6364.759 5708.201 Q 6365.459 5706.872 6365.182 5705.538 Q 6364.904 5704.205 6363.245 5702.935 Q 6361.585 5701.665 6358.943 5701.482 Q 6356.301 5701.300 6354.525 5701.430 Q 6352.750 5701.560 6350.777 5702.994 Q 6348.806 5704.428 6347.297 5707.001 Q 6345.788 5709.574 6345.258 5712.626 Q 6344.729 5715.678 6344.841 5717.914 Q 6344.952 5720.149 6345.691 5721.461 Q 6346.430 5722.772 6347.439 5723.526 Q 6348.449 5724.281 6350.460 5724.471 Q 6352.471 5724.660 6355.349 5723.486 Q 6358.227 5722.312 6361.121 5720.077 Q 6364.015 5717.842 6364.682 5717.178 "></path>
    <path id="STROKE_1f93c9e0-ac42-40ee-bc9d-fc1c5735ccce" opacity="1.000" fill="none" stroke="#f45e58" stroke-width="3.552" stroke-opacity="1.000" stroke-linecap="round" stroke-linejoin="round" d="M 6370.435 5703.834 Q 6370.485 5703.864 6370.581 5703.303 Q 6370.837 5703.991 6369.341 5720.256 Q 6370.229 5721.061 6373.683 5715.401 Q 6377.135 5709.741 6382.086 5704.443 Q 6382.372 5705.683 6381.399 5722.318 Q 6382.076 5722.380 6382.826 5721.506 Q 6383.577 5720.631 6384.004 5720.100 "></path>
    <path id="STROKE_9cbd5482-94aa-49be-9de5-1a49579e017e" opacity="1.000" fill="none" stroke="#f45e58" stroke-width="3.570" stroke-opacity="1.000" stroke-linecap="round" stroke-linejoin="round" d="M 6399.303 5705.162 Q 6399.919 5705.241 6398.390 5705.189 Q 6396.861 5705.138 6395.673 5705.362 Q 6394.485 5705.586 6393.705 5708.593 Q 6392.926 5711.601 6392.624 5714.273 Q 6392.321 5716.945 6392.244 5718.802 Q 6392.167 5720.658 6394.117 5721.706 Q 6396.067 5722.754 6398.519 5722.103 Q 6400.971 5721.451 6401.700 5721.084 "></path>
    <path id="STROKE_7d067340-75af-44a4-8861-01333299e40a" opacity="1.000" fill="none" stroke="#f45e58" stroke-width="3.570" stroke-opacity="1.000" stroke-linecap="round" stroke-linejoin="round" d="M 6408.120 5712.662 Q 6408.089 5712.662 6407.787 5713.068 Q 6406.854 5713.000 6409.689 5713.124 Q 6412.524 5713.247 6415.932 5712.006 Q 6419.339 5710.766 6421.446 5709.583 Q 6423.554 5708.400 6424.226 5707.568 Q 6424.896 5706.737 6425.134 5705.513 Q 6425.372 5704.289 6421.813 5704.041 Q 6418.254 5703.792 6415.967 5703.769 Q 6413.680 5703.745 6411.614 5704.684 Q 6409.549 5705.623 6407.667 5707.312 Q 6405.784 5709.001 6404.979 5711.868 Q 6404.174 5714.735 6404.135 5716.726 Q 6404.096 5718.716 6404.600 5720.615 Q 6405.103 5722.514 6407.813 5724.156 Q 6410.524 5725.798 6414.783 5723.843 Q 6419.042 5721.889 6419.563 5721.428 "></path>
    <path id="STROKE_d3664d71-4778-4037-ad16-4f6b885aa9ed" opacity="1.000" fill="none" stroke="#f45e58" stroke-width="3.570" stroke-opacity="1.000" stroke-linecap="round" stroke-linejoin="round" d="M 6448.244 5713.990 Q 6447.800 5714.608 6452.390 5715.189 Q 6456.980 5715.771 6460.355 5715.711 Q 6463.730 5715.651 6466.070 5714.876 Q 6468.411 5714.101 6469.877 5712.927 Q 6471.343 5711.754 6471.779 5710.461 Q 6472.214 5709.168 6471.517 5707.973 Q 6470.818 5706.777 6470.016 5706.312 Q 6469.213 5705.847 6468.570 5705.561 Q 6467.928 5705.274 6467.436 5705.130 Q 6466.943 5704.986 6465.673 5704.738 Q 6464.403 5704.491 6462.434 5704.453 Q 6460.465 5704.415 6459.035 5704.475 Q 6457.605 5704.534 6455.854 5705.577 Q 6454.104 5706.620 6452.560 5708.575 Q 6451.016 5710.530 6450.417 5713.558 Q 6449.818 5716.586 6449.926 5719.404 Q 6450.034 5722.221 6451.071 5724.414 Q 6452.108 5726.606 6453.167 5728.348 Q 6454.227 5730.089 6457.142 5730.227 Q 6460.056 5730.364 6461.983 5729.985 Q 6463.911 5729.607 6465.241 5728.983 Q 6466.572 5728.359 6470.302 5725.922 Q 6474.032 5723.485 6475.833 5721.425 Q 6477.633 5719.365 6478.029 5718.709 "></path>
    <path id="STROKE_cd1aba3e-52c1-4e31-b7f6-f9046d018b67" opacity="1.000" fill="none" stroke="#f45e58" stroke-width="3.569" stroke-opacity="1.000" stroke-linecap="round" stroke-linejoin="round" d="M 6473.610 5698.006 Q 6473.610 5698.006 6473.311 5698.070 Q 6473.011 5698.134 6478.517 5697.632 Q 6484.021 5697.130 6489.144 5696.771 Q 6494.266 5696.412 6495.455 5696.146 "></path>
    <path id="STROKE_ce2617ce-575c-46a6-87b8-2dcf2c5e8a26" opacity="1.000" fill="none" stroke="#f45e58" stroke-width="2.865" stroke-opacity="1.000" stroke-linecap="round" stroke-linejoin="round" d="M 6214.805 5734.879 L 6224.805 5734.879 Q 6230.992 5734.879 6234.805 5734.879 Q 6243.051 5734.879 6284.805 5734.879 Q 6293.293 5734.879 6304.805 5734.879 Q 6310.113 5734.879 6314.805 5734.879 Q 6321.119 5734.879 6324.805 5734.879 Q 6330.186 5734.879 6334.805 5734.879 Q 6341.629 5734.879 6344.805 5734.879 Q 6351.571 5734.879 6354.805 5734.879 Q 6361.097 5734.879 6364.805 5734.879 Q 6371.164 5734.879 6374.805 5734.879 Q 6380.043 5734.879 6384.805 5734.879 Q 6393.432 5734.879 6424.805 5734.879 Q 6431.485 5734.879 6434.805 5734.879 Q 6441.678 5734.879 6454.805 5734.879 Q 6460.750 5734.879 6464.805 5734.879 Q 6472.309 5734.879 6534.805 5734.879 Q 6539.809 5734.879 6544.805 5734.879 Q 6551.335 5734.879 6554.805 5734.879 Q 6562.161 5734.879 6574.805 5734.879 Q 6582.663 5734.879 6594.805 5734.879 Q 6600.192 5734.879 6604.805 5734.879 Q 6610.802 5734.879 6614.805 5734.879 Q 6620.265 5734.879 6624.805 5734.879 Q 6631.729 5734.879 6634.805 5734.879 Q 6641.379 5734.879 6644.805 5734.879 Q 6651.196 5734.879 6654.805 5734.879 Q 6659.867 5734.879 6664.805 5734.879 Q 6661.452 5734.879 6661.118 5734.879 "></path>
    <path id="STROKE_2914f860-0908-4764-b825-d72b8d96c929" opacity="1.000" fill="none" stroke="#f45e58" stroke-width="3.570" stroke-opacity="1.000" stroke-linecap="round" stroke-linejoin="round" d="M 6330.249 5783.787 Q 6330.064 5782.668 6329.915 5782.732 Q 6329.254 5781.833 6329.247 5781.857 Q 6329.239 5781.883 6329.187 5781.901 Q 6329.134 5781.919 6329.090 5781.640 Q 6329.046 5781.360 6327.302 5781.316 Q 6325.558 5781.273 6322.338 5784.151 Q 6319.119 5787.030 6317.119 5789.408 Q 6315.120 5791.787 6313.678 5794.267 Q 6312.237 5796.746 6311.734 5799.404 Q 6311.232 5802.062 6311.296 5803.821 Q 6311.360 5805.581 6312.238 5807.065 Q 6313.117 5808.549 6316.383 5809.182 Q 6319.649 5809.815 6325.110 5808.348 Q 6330.572 5806.881 6331.104 5806.615 "></path>
    <path id="STROKE_4c43de4a-58de-4fc6-8c54-0893ce1ef820" opacity="1.000" fill="none" stroke="#f45e58" stroke-width="2.681" stroke-opacity="1.000" stroke-linecap="round" stroke-linejoin="round" d="M 6344.485 5797.334 Q 6344.485 5797.365 6344.485 5797.490 Q 6345.067 5797.781 6356.312 5796.739 Q 6367.557 5795.697 6374.957 5795.668 Q 6382.357 5795.639 6384.150 5795.475 "></path>
    <path id="STROKE_dce5eca2-aa5e-4df8-9ee0-e094ed9ff651" opacity="1.000" fill="none" stroke="#f45e58" stroke-width="3.555" stroke-opacity="1.000" stroke-linecap="round" stroke-linejoin="round" d="M 6382.024 5787.646 Q 6383.365 5787.646 6383.118 5787.646 Q 6384.786 5787.667 6384.379 5787.678 Q 6385.082 5788.195 6391.709 5789.451 Q 6398.336 5790.707 6401.738 5791.289 Q 6405.139 5791.871 6406.719 5792.377 Q 6408.299 5792.882 6408.977 5793.319 Q 6409.654 5793.756 6409.732 5795.077 Q 6409.811 5796.397 6403.713 5800.404 Q 6397.616 5804.411 6393.128 5807.774 Q 6388.640 5811.138 6385.526 5814.115 Q 6385.859 5814.084 6386.193 5814.053 "></path>
    <path id="STROKE_7d1308ef-eb12-42de-92ff-61d57262f7b4" opacity="1.000" fill="none" stroke="#f45e58" stroke-width="3.570" stroke-opacity="1.000" stroke-linecap="round" stroke-linejoin="round" d="M 6429.047 5786.381 Q 6429.060 5786.288 6428.317 5784.850 Q 6428.411 5785.131 6428.271 5789.342 Q 6428.130 5793.553 6428.960 5796.388 Q 6429.789 5799.222 6430.439 5800.727 Q 6431.090 5802.230 6432.276 5803.174 Q 6433.462 5804.117 6434.576 5804.192 Q 6435.690 5804.269 6436.760 5803.820 Q 6437.829 5803.372 6439.431 5801.892 Q 6441.032 5800.412 6441.428 5799.912 "></path>
    <path id="STROKE_279272fd-6566-46e2-bb48-87b335a716ff" opacity="1.000" fill="none" stroke="#f45e58" stroke-width="3.570" stroke-opacity="1.000" stroke-linecap="round" stroke-linejoin="round" d="M 6450.620 5779.943 Q 6449.950 5780.127 6449.234 5785.109 Q 6448.519 5790.091 6448.359 5799.546 Q 6448.199 5809.002 6447.471 5814.160 Q 6446.743 5819.318 6446.576 5819.615 "></path>
    <path id="STROKE_2667d153-13c6-41fd-bc04-2d3f2aecc7cc" opacity="1.000" fill="none" stroke="#f45e58" stroke-width="3.570" stroke-opacity="1.000" stroke-linecap="round" stroke-linejoin="round" d="M 6330.582 5864.615 Q 6330.463 5864.539 6330.047 5864.083 Q 6329.631 5863.627 6328.603 5862.438 Q 6327.574 5861.249 6326.363 5860.608 Q 6325.153 5859.968 6323.644 5860.080 Q 6322.135 5860.192 6321.272 5860.843 Q 6320.409 5861.494 6319.774 5861.763 Q 6319.139 5862.032 6316.800 5864.611 Q 6314.460 5867.191 6313.124 5870.021 Q 6311.788 5872.852 6311.447 5875.141 Q 6311.106 5877.429 6311.129 5879.111 Q 6311.153 5880.793 6312.421 5882.931 Q 6313.689 5885.068 6316.863 5885.812 Q 6320.037 5886.556 6323.096 5886.613 Q 6326.154 5886.671 6329.293 5885.881 Q 6332.432 5885.091 6334.253 5884.402 Q 6336.075 5883.714 6338.000 5881.848 Q 6339.925 5879.981 6340.853 5878.506 Q 6341.781 5877.031 6342.197 5874.437 Q 6342.614 5871.842 6342.367 5869.370 Q 6342.120 5866.897 6339.288 5863.055 Q 6336.457 5859.213 6334.211 5856.959 Q 6331.965 5854.706 6329.974 5853.501 Q 6327.982 5852.296 6326.562 5851.998 Q 6325.143 5851.699 6324.210 5851.776 Q 6323.277 5851.853 6323.714 5853.289 Q 6324.152 5854.725 6324.621 5855.193 "></path>
    <path id="STROKE_0a2fa9cc-6cd7-49b6-a351-65903da2aa13" opacity="1.000" fill="none" stroke="#f45e58" stroke-width="3.169" stroke-opacity="1.000" stroke-linecap="round" stroke-linejoin="round" d="M 6358.659 5874.428 Q 6357.999 5874.272 6356.741 5874.889 Q 6356.211 5876.208 6381.004 5876.279 Q 6405.796 5876.350 6406.661 5876.146 "></path>
    <path id="STROKE_c047f4c8-41c9-422b-8792-d50311241ff0" opacity="1.000" fill="none" stroke="#f45e58" stroke-width="3.538" stroke-opacity="1.000" stroke-linecap="round" stroke-linejoin="round" d="M 6401.492 5863.943 Q 6401.809 5864.165 6403.393 5863.456 Q 6404.977 5862.748 6407.873 5864.452 Q 6410.769 5866.156 6413.248 5868.331 Q 6415.727 5870.505 6417.496 5872.551 Q 6419.266 5874.597 6419.871 5876.594 Q 6420.477 5878.591 6420.673 5879.903 Q 6420.870 5881.215 6416.754 5884.185 Q 6412.638 5887.154 6408.690 5889.509 Q 6404.743 5891.864 6397.386 5895.459 Q 6398.234 5895.142 6398.940 5894.687 Q 6399.647 5894.232 6400.241 5893.865 "></path>
    <path id="STROKE_459bf1e7-9dd1-48d3-8b02-ae193ecac0f0" opacity="1.000" fill="none" stroke="#f45e58" stroke-width="3.309" stroke-opacity="1.000" stroke-linecap="round" stroke-linejoin="round" d="M 6456.581 5856.318 Q 6456.812 5855.757 6456.301 5855.055 Q 6455.790 5854.353 6455.391 5854.116 Q 6454.991 5853.880 6454.392 5853.948 Q 6453.792 5854.017 6453.507 5853.925 Q 6453.222 5853.833 6450.872 5856.908 Q 6448.521 5859.982 6446.304 5865.150 Q 6444.086 5870.317 6442.887 5873.381 Q 6441.687 5876.445 6441.010 5879.973 Q 6440.334 5883.501 6440.391 5886.138 Q 6440.448 5888.774 6441.619 5890.738 Q 6442.789 5892.702 6445.021 5894.460 Q 6447.253 5896.218 6450.106 5897.034 Q 6452.959 5897.851 6454.367 5897.902 Q 6455.774 5897.955 6456.663 5897.860 Q 6457.551 5897.766 6458.990 5896.498 Q 6460.430 5895.229 6460.585 5892.710 Q 6460.741 5890.190 6460.924 5888.469 Q 6461.106 5886.747 6459.874 5884.851 Q 6458.642 5882.956 6456.511 5882.084 Q 6454.380 5881.213 6452.745 5881.030 Q 6451.110 5880.848 6450.467 5880.712 Q 6449.823 5880.577 6448.256 5881.155 Q 6446.688 5881.733 6445.389 5882.803 Q 6444.089 5883.872 6443.562 5884.617 Q 6443.035 5885.363 6442.437 5886.867 Q 6441.838 5888.371 6442.259 5889.810 Q 6442.679 5891.248 6443.075 5891.615 "></path>
    <path id="STROKE_337fdcf8-b008-4a5f-a4d6-a3dea384a9e6" opacity="1.000" fill="none" stroke="#f45e58" stroke-width="3.570" stroke-opacity="1.000" stroke-linecap="round" stroke-linejoin="round" d="M 6260.590 5770.131 Q 6260.497 5769.752 6259.062 5768.735 Q 6257.627 5767.718 6255.520 5767.266 Q 6253.411 5766.813 6250.523 5768.021 Q 6247.635 5769.229 6245.310 5771.455 Q 6242.984 5773.681 6241.970 5775.065 Q 6240.956 5776.449 6240.103 5778.612 Q 6239.249 5780.775 6241.989 5786.472 Q 6244.729 5792.168 6246.358 5795.524 Q 6247.988 5798.880 6248.936 5802.188 Q 6249.884 5805.497 6250.286 5807.331 Q 6250.689 5809.166 6250.620 5813.495 Q 6250.550 5817.825 6249.832 5820.785 Q 6249.114 5823.744 6248.461 5825.028 Q 6247.808 5826.313 6247.200 5827.116 Q 6246.591 5827.920 6245.460 5828.660 Q 6244.329 5829.401 6242.924 5829.939 Q 6241.520 5830.478 6238.403 5831.627 Q 6235.288 5832.777 6232.325 5834.406 Q 6229.362 5836.036 6227.521 5838.561 Q 6227.193 5838.732 6228.670 5839.454 Q 6230.147 5840.176 6232.190 5841.565 Q 6234.234 5842.955 6236.374 5846.875 Q 6238.513 5850.794 6239.354 5855.419 Q 6240.194 5860.045 6240.369 5863.160 Q 6240.544 5866.274 6239.322 5869.679 Q 6238.100 5873.083 6235.920 5875.975 Q 6233.740 5878.867 6232.601 5880.412 Q 6231.461 5881.958 6230.528 5885.060 Q 6229.595 5888.162 6229.288 5891.604 Q 6228.981 5895.045 6228.833 5897.738 Q 6228.684 5900.432 6230.219 5902.992 Q 6231.754 5905.553 6233.863 5907.993 Q 6235.973 5910.433 6237.716 5911.890 Q 6239.458 5913.347 6241.969 5914.534 Q 6244.479 5915.721 6247.271 5915.527 Q 6250.064 5915.334 6250.918 5915.162 "></path>
    <path id="STROKE_042cbc73-a709-4918-95f8-0ed1702c0da8" opacity="1.000" fill="none" stroke="#f45e58" stroke-width="3.251" stroke-opacity="1.000" stroke-linecap="round" stroke-linejoin="round" d="M 6201.916 5831.959 Q 6202.023 5831.110 6201.855 5830.965 Q 6201.688 5830.819 6200.612 5830.617 Q 6199.537 5830.416 6198.186 5830.395 Q 6196.835 5830.374 6194.644 5830.422 Q 6192.452 5830.469 6185.271 5829.494 Q 6178.090 5828.520 6174.658 5827.852 Q 6171.226 5827.185 6169.276 5826.864 Q 6167.327 5826.543 6165.580 5826.822 Q 6163.834 5827.101 6161.751 5830.018 Q 6159.667 5832.934 6158.810 5835.307 Q 6157.952 5837.680 6157.212 5839.524 Q 6156.472 5841.368 6155.456 5848.052 Q 6154.441 5854.735 6154.360 5865.011 Q 6154.279 5875.287 6154.286 5881.134 Q 6154.292 5886.980 6154.366 5889.681 Q 6154.440 5892.382 6154.033 5901.900 Q 6153.626 5911.418 6153.435 5916.637 Q 6153.243 5921.855 6152.502 5927.980 Q 6151.761 5934.104 6151.462 5939.976 Q 6151.163 5945.847 6151.479 5954.247 Q 6151.795 5962.646 6151.515 5968.117 Q 6151.235 5973.588 6150.888 5979.389 Q 6150.541 5985.190 6150.688 5988.120 Q 6150.834 5991.051 6150.958 5992.838 Q 6151.082 5994.625 6150.536 5998.303 Q 6150.469 5998.422 6154.565 5998.151 Q 6158.661 5997.880 6161.551 5997.857 Q 6164.441 5997.834 6167.426 5998.818 Q 6170.410 5999.803 6171.275 6000.100 "></path>
    <path id="STROKE_e04c7ba3-714c-44a0-a33e-1b1118a2004b" opacity="1.000" fill="none" stroke="#f45e58" stroke-width="3.464" stroke-opacity="1.000" stroke-linecap="round" stroke-linejoin="round" d="M 6178.279 5987.428 Q 6178.279 5987.282 6178.216 5986.693 Q 6178.290 5986.696 6179.279 6014.592 Q 6180.311 6015.184 6181.117 6014.050 Q 6181.924 6012.917 6183.129 6011.642 Q 6184.333 6010.367 6185.461 6009.867 Q 6186.589 6009.368 6189.940 6008.715 Q 6193.291 6008.062 6196.666 6006.720 Q 6200.040 6005.378 6202.035 6004.281 Q 6204.030 6003.185 6204.389 6002.698 Q 6204.748 6002.212 6204.609 6001.648 Q 6204.471 6001.085 6203.646 6000.456 Q 6202.822 5999.826 6202.395 5999.428 "></path>
    <path id="STROKE_a5cbf27d-f35a-4f5f-aa7c-280782a4216d" opacity="1.000" fill="none" stroke="#f45e58" stroke-width="3.570" stroke-opacity="1.000" stroke-linecap="round" stroke-linejoin="round" d="M 6200.665 5998.834 Q 6200.362 5998.467 6199.685 5997.674 Q 6199.008 5996.881 6198.539 5996.381 "></path>
    <path id="STROKE_9279b91d-e798-486d-8d5f-fd3c4ad731b1" opacity="1.000" fill="none" stroke="#f45e58" stroke-width="3.570" stroke-opacity="1.000" stroke-linecap="round" stroke-linejoin="round" d="M 6197.747 5995.459 Q 6197.356 5994.888 6193.979 5992.418 Q 6190.604 5989.949 6184.448 5988.615 Q 6184.755 5988.514 6185.707 5988.713 Q 6186.658 5988.912 6187.096 5989.146 "></path>
    <path id="STROKE_538b91fb-2829-43f0-b656-2eace23397cb" opacity="1.000" fill="none" stroke="#f45e58" stroke-width="3.120" stroke-opacity="1.000" stroke-linecap="round" stroke-linejoin="round" d="M 6472.339 5797.600 Q 6472.041 5797.600 6471.484 5797.600 Q 6471.984 5797.189 6491.384 5797.027 Q 6510.785 5796.865 6512.275 5796.662 "></path>
    <path id="STROKE_17c70c5d-6652-4e94-b0df-ea1a22f5ea76" opacity="1.000" fill="none" stroke="#f45e58" stroke-width="3.570" stroke-opacity="1.000" stroke-linecap="round" stroke-linejoin="round" d="M 6506.585 5785.053 Q 6507.333 5784.866 6509.050 5784.979 Q 6510.768 5785.092 6515.716 5787.514 Q 6520.664 5789.936 6523.667 5791.412 Q 6526.670 5792.889 6528.346 5794.210 Q 6530.021 5795.532 6530.530 5798.109 Q 6531.040 5800.687 6523.064 5806.276 Q 6515.089 5811.865 6514.860 5812.131 "></path>
    <path id="STROKE_7328d926-1bbe-4de6-8cad-c5f6277252be" opacity="1.000" fill="none" stroke="#f45e58" stroke-width="3.570" stroke-opacity="1.000" stroke-linecap="round" stroke-linejoin="round" d="M 6554.921 5795.475 Q 6554.821 5795.065 6553.086 5794.873 Q 6552.921 5795.030 6552.885 5795.602 Q 6552.850 5796.173 6555.871 5796.488 Q 6558.893 5796.803 6562.864 5796.010 Q 6566.834 5795.217 6570.064 5793.623 Q 6573.293 5792.029 6575.281 5790.629 Q 6577.268 5789.229 6578.355 5787.928 Q 6579.443 5786.627 6579.580 5784.631 Q 6579.716 5782.635 6579.104 5781.891 Q 6578.491 5781.147 6577.840 5780.606 Q 6577.189 5780.065 6574.488 5779.602 Q 6571.788 5779.137 6569.271 5779.119 Q 6566.754 5779.101 6564.458 5780.431 Q 6562.163 5781.761 6560.909 5782.953 Q 6559.655 5784.145 6557.699 5786.707 Q 6555.744 5789.269 6554.779 5792.034 Q 6553.814 5794.798 6553.806 5797.124 Q 6553.796 5799.449 6553.939 5800.938 Q 6554.082 5802.429 6555.728 5803.784 Q 6557.373 5805.140 6558.781 5805.941 Q 6560.190 5806.742 6563.778 5806.728 Q 6567.366 5806.712 6569.940 5806.202 Q 6572.516 5805.691 6576.062 5804.013 Q 6579.610 5802.334 6580.538 5801.771 "></path>
    <path id="STROKE_ab4902fb-0959-4502-ac5c-0a84696dbf2d" opacity="1.000" fill="none" stroke="#f45e58" stroke-width="3.570" stroke-opacity="1.000" stroke-linecap="round" stroke-linejoin="round" d="M 6593.252 5779.475 Q 6592.979 5779.474 6592.825 5776.889 Q 6592.246 5776.902 6593.556 5776.801 Q 6594.865 5776.700 6595.960 5783.159 Q 6597.055 5789.618 6597.453 5793.303 Q 6597.852 5796.987 6598.457 5798.835 Q 6599.062 5800.684 6600.329 5801.568 Q 6601.312 5801.560 6604.765 5792.806 Q 6608.218 5784.053 6608.551 5783.256 "></path>
    <path id="STROKE_e41ba4d0-0e1b-4def-8efb-60508b44a74f" opacity="1.000" fill="none" stroke="#f45e58" stroke-width="3.570" stroke-opacity="1.000" stroke-linecap="round" stroke-linejoin="round" d="M 6614.179 5787.381 Q 6615.176 5788.440 6615.138 5788.068 Q 6616.095 5788.187 6618.677 5787.885 Q 6621.259 5787.583 6623.506 5786.309 Q 6625.752 5785.036 6627.144 5783.962 Q 6628.536 5782.889 6629.359 5781.290 Q 6630.183 5779.691 6630.185 5778.721 Q 6630.186 5777.751 6630.213 5777.467 Q 6630.241 5777.182 6629.690 5776.751 Q 6629.140 5776.320 6628.488 5776.212 Q 6627.837 5776.104 6627.335 5776.084 Q 6626.834 5776.064 6625.477 5776.256 Q 6624.119 5776.447 6622.416 5780.011 Q 6620.714 5783.575 6619.967 5786.799 Q 6619.220 5790.023 6619.352 5791.761 Q 6619.483 5793.498 6619.566 5794.463 Q 6619.650 5795.428 6621.504 5795.604 Q 6623.358 5795.779 6625.340 5794.248 Q 6627.321 5792.717 6628.019 5792.084 "></path>
    <path id="STROKE_9c0d42d4-c52d-42b0-8ea5-1dc8474d8b34" opacity="1.000" fill="none" stroke="#f45e58" stroke-width="3.465" stroke-opacity="1.000" stroke-linecap="round" stroke-linejoin="round" d="M 6650.197 5773.506 Q 6649.693 5773.955 6647.354 5775.709 Q 6645.015 5777.464 6644.830 5788.631 Q 6644.906 5789.583 6650.222 5782.369 Q 6655.537 5775.155 6662.411 5767.865 Q 6663.199 5767.784 6661.872 5775.073 Q 6660.546 5782.362 6660.202 5793.881 Q 6660.027 5792.900 6659.896 5792.844 Q 6659.764 5792.787 6659.535 5792.490 "></path>
    <path id="STROKE_1029853a-011b-41b8-85ac-5ef28183833c" opacity="1.000" fill="none" stroke="#f45e58" stroke-width="2.803" stroke-opacity="1.000" stroke-linecap="round" stroke-linejoin="round" d="M 6478.300 5886.631 Q 6478.626 5887.122 6487.678 5886.589 Q 6496.729 5886.057 6503.231 5885.093 Q 6509.734 5884.129 6513.970 5884.040 Q 6518.205 5883.951 6519.299 5883.912 "></path>
    <path id="STROKE_77bc4435-c65b-4c5d-93e1-fbd2a4c2350c" opacity="1.000" fill="none" stroke="#f45e58" stroke-width="3.570" stroke-opacity="1.000" stroke-linecap="round" stroke-linejoin="round" d="M 6513.067 5875.162 Q 6513.348 5875.191 6515.313 5874.393 Q 6517.278 5873.594 6519.697 5874.988 Q 6522.116 5876.382 6525.051 5878.729 Q 6527.986 5881.077 6530.015 5882.361 Q 6532.043 5883.646 6533.018 5884.461 Q 6533.992 5885.276 6534.430 5886.913 Q 6534.868 5888.550 6514.463 5901.303 Q 6514.693 5901.303 6515.615 5901.104 Q 6516.538 5900.904 6517.236 5900.568 "></path>
    <path id="STROKE_2ce4a740-61ee-4782-8667-a064b901b496" opacity="1.000" fill="none" stroke="#f45e58" stroke-width="3.570" stroke-opacity="1.000" stroke-linecap="round" stroke-linejoin="round" d="M 6237.474 5986.037 Q 6236.704 5986.037 6236.818 5986.037 Q 6235.915 5985.896 6235.771 5988.342 Q 6235.626 5990.788 6235.782 5992.945 Q 6235.938 5995.103 6237.237 5996.692 Q 6238.536 5998.281 6240.876 5999.608 Q 6243.217 6000.935 6245.841 6001.486 Q 6248.465 6002.037 6250.406 6000.803 Q 6252.346 5999.568 6252.586 5999.240 "></path>
    <path id="STROKE_d82875e6-56c2-4ad0-b6e0-2a662047498d" opacity="1.000" fill="none" stroke="#f45e58" stroke-width="3.329" stroke-opacity="1.000" stroke-linecap="round" stroke-linejoin="round" d="M 6258.610 5980.131 Q 6258.383 5979.794 6257.745 5979.459 Q 6257.649 5979.319 6256.400 5989.043 Q 6255.151 5998.768 6254.489 6005.562 Q 6253.827 6012.354 6254.795 6017.209 Q 6254.853 6017.396 6255.105 6016.974 Q 6255.358 6016.553 6255.629 6016.084 "></path>
    <path id="STROKE_31ebd16f-dee1-4440-aea9-cf98fba13657" opacity="1.000" fill="none" stroke="#f45e58" stroke-width="3.570" stroke-opacity="1.000" stroke-linecap="round" stroke-linejoin="round" d="M 6256.025 6015.287 Q 6256.390 6014.131 6256.754 6012.975 "></path>
    <path id="STROKE_d6827ae4-4c4b-4a6a-a5b9-af02069b426e" opacity="1.000" fill="none" stroke="#f45e58" stroke-width="3.570" stroke-opacity="1.000" stroke-linecap="round" stroke-linejoin="round" d="M 6269.928 6005.865 Q 6269.928 6005.865 6269.928 6005.850 Q 6269.928 6005.834 6269.865 6005.475 Q 6270.517 6005.310 6274.427 6006.713 Q 6278.336 6008.116 6282.280 6008.225 Q 6286.225 6008.333 6289.023 6008.022 Q 6291.823 6007.711 6293.938 6006.493 Q 6296.052 6005.275 6297.392 6003.947 Q 6298.732 6002.620 6299.074 6000.595 Q 6299.416 5998.570 6299.211 5997.064 Q 6299.007 5995.559 6297.558 5993.953 Q 6296.107 5992.348 6294.313 5991.374 Q 6292.519 5990.400 6289.507 5990.064 Q 6286.496 5989.729 6284.101 5989.752 Q 6281.706 5989.776 6279.320 5991.235 Q 6276.936 5992.694 6274.594 5995.139 Q 6272.252 5997.583 6270.904 5999.488 Q 6269.556 6001.393 6269.147 6003.627 Q 6268.738 6005.861 6268.758 6007.551 Q 6268.777 6009.241 6269.957 6011.048 Q 6271.137 6012.856 6272.625 6014.489 Q 6274.113 6016.122 6277.157 6016.948 Q 6280.201 6017.773 6283.379 6017.994 Q 6286.557 6018.215 6289.062 6017.858 Q 6291.567 6017.501 6294.687 6015.004 Q 6297.806 6012.506 6298.400 6011.975 "></path>
    <path id="STROKE_aaaa3df6-43b9-42ee-889b-7c5bd3de1af4" opacity="1.000" fill="none" stroke="#f45e58" stroke-width="3.570" stroke-opacity="1.000" stroke-linecap="round" stroke-linejoin="round" d="M 6309.259 5992.068 Q 6309.273 5991.407 6309.197 5989.084 Q 6309.186 5989.217 6309.222 5989.071 Q 6309.257 5988.926 6309.489 5994.186 Q 6309.721 5999.445 6309.805 6002.339 Q 6309.890 6005.232 6310.698 6007.595 Q 6311.506 6009.958 6312.065 6011.009 Q 6312.625 6012.060 6313.133 6012.586 Q 6313.641 6013.112 6314.585 6013.606 Q 6315.529 6014.101 6316.328 6013.415 Q 6317.126 6012.729 6318.704 6008.528 Q 6320.281 6004.328 6321.935 6001.499 Q 6323.589 5998.670 6323.892 5998.365 "></path>
    <path id="STROKE_caaaf3ec-8d95-48b5-987e-5662539a9665" opacity="1.000" fill="none" stroke="#f45e58" stroke-width="3.570" stroke-opacity="1.000" stroke-linecap="round" stroke-linejoin="round" d="M 6328.185 6000.959 Q 6328.151 6000.750 6328.104 6001.570 Q 6328.058 6002.391 6328.127 6003.089 Q 6328.197 6003.788 6328.740 6003.957 Q 6329.283 6004.126 6329.966 6004.187 Q 6330.649 6004.247 6331.817 6004.192 Q 6332.986 6004.138 6333.783 6004.194 Q 6334.581 6004.250 6337.198 6003.172 Q 6339.816 6002.095 6341.449 6001.038 Q 6343.082 5999.982 6344.386 5998.438 Q 6345.691 5996.894 6345.825 5995.437 Q 6345.960 5993.980 6345.673 5992.775 Q 6345.386 5991.571 6343.554 5990.878 Q 6341.721 5990.185 6339.989 5990.064 Q 6338.257 5989.944 6336.662 5990.677 Q 6335.067 5991.410 6333.382 5993.665 Q 6331.698 5995.919 6330.700 5998.797 Q 6329.702 6001.676 6329.547 6004.393 Q 6329.392 6007.110 6329.427 6008.868 Q 6329.462 6010.626 6330.436 6011.889 Q 6331.410 6013.151 6333.394 6013.731 Q 6335.377 6014.312 6338.049 6013.390 Q 6340.721 6012.468 6342.738 6009.350 Q 6344.756 6006.232 6345.152 6005.600 "></path>
    <path id="STROKE_6358b9e9-e4ae-4c1c-80a1-35390056173f" opacity="1.000" fill="none" stroke="#f45e58" stroke-width="3.570" stroke-opacity="1.000" stroke-linecap="round" stroke-linejoin="round" d="M 6350.113 5989.475 Q 6350.144 5989.475 6350.478 5989.209 Q 6350.683 5988.301 6350.269 6012.240 Q 6350.541 6012.606 6352.207 6009.463 Q 6353.874 6006.320 6356.598 6001.788 Q 6359.322 5997.256 6360.922 5994.449 Q 6362.522 5991.643 6365.068 5990.537 Q 6366.097 5990.601 6365.599 6011.646 Q 6365.498 6011.742 6365.799 6010.683 Q 6366.100 6009.623 6366.329 6009.256 "></path>
    <path id="STROKE_1ef57fc6-44eb-4b33-87d7-f19c95a7f0d1" opacity="1.000" fill="none" stroke="#f45e58" stroke-width="3.570" stroke-opacity="1.000" stroke-linecap="round" stroke-linejoin="round" d="M 6424.274 5991.475 Q 6424.354 5991.744 6423.418 5990.467 Q 6422.483 5989.189 6421.586 5988.199 Q 6420.689 5987.209 6419.534 5986.779 Q 6418.378 5986.350 6416.990 5986.866 Q 6415.603 5987.382 6414.920 5987.981 Q 6414.238 5988.582 6413.264 5989.695 Q 6412.289 5990.810 6411.680 5991.917 Q 6411.071 5993.023 6410.685 5993.986 Q 6410.299 5994.949 6410.024 5995.548 Q 6409.750 5996.146 6409.163 5998.963 Q 6408.576 6001.779 6408.892 6004.290 Q 6409.207 6006.801 6410.521 6008.692 Q 6411.834 6010.583 6414.364 6011.886 Q 6416.895 6013.189 6419.296 6013.293 Q 6421.697 6013.397 6423.097 6013.081 Q 6424.498 6012.764 6425.520 6012.349 Q 6426.542 6011.934 6428.818 6010.222 Q 6431.095 6008.509 6432.562 6006.204 Q 6434.029 6003.898 6434.546 6001.286 Q 6435.062 5998.673 6434.969 5996.959 Q 6434.875 5995.245 6433.307 5993.504 Q 6431.739 5991.764 6428.547 5990.585 Q 6425.354 5989.406 6422.861 5989.119 Q 6420.368 5988.833 6418.684 5988.932 Q 6417.000 5989.031 6416.697 5989.972 Q 6416.395 5990.912 6416.333 5991.146 "></path>
    <path id="STROKE_a6811dac-679b-4655-aa93-1ca1b81fd966" opacity="1.000" fill="none" stroke="#f45e58" stroke-width="3.534" stroke-opacity="1.000" stroke-linecap="round" stroke-linejoin="round" d="M 6559.448 5882.714 Q 6559.291 5882.718 6559.260 5882.789 Q 6559.228 5882.861 6559.237 5882.902 Q 6559.246 5882.944 6559.285 5882.806 Q 6559.324 5882.667 6559.719 5883.316 Q 6560.114 5883.965 6564.739 5884.360 Q 6569.365 5884.755 6573.013 5884.718 Q 6576.660 5884.681 6580.074 5883.388 Q 6583.489 5882.095 6585.316 5880.934 Q 6587.144 5879.773 6588.065 5878.952 Q 6588.987 5878.131 6589.463 5876.509 Q 6589.939 5874.887 6590.100 5873.568 Q 6590.259 5872.249 6589.105 5870.936 Q 6587.952 5869.623 6586.985 5869.098 Q 6586.019 5868.572 6585.312 5868.465 Q 6584.607 5868.358 6582.007 5868.207 Q 6579.407 5868.056 6576.286 5868.676 Q 6573.164 5869.296 6570.146 5871.330 Q 6567.126 5873.365 6564.729 5876.411 Q 6562.332 5879.458 6561.430 5882.799 Q 6560.529 5886.140 6560.400 5888.351 Q 6560.271 5890.562 6561.137 5892.621 Q 6562.003 5894.681 6564.017 5895.781 Q 6566.030 5896.882 6571.251 5897.127 Q 6576.472 5897.371 6582.937 5895.257 Q 6589.402 5893.143 6590.213 5892.665 "></path>
    <path id="STROKE_81c2b133-daeb-4e15-8cf3-2814c04bfab2" opacity="1.000" fill="none" stroke="#f45e58" stroke-width="3.503" stroke-opacity="1.000" stroke-linecap="round" stroke-linejoin="round" d="M 6606.337 5868.630 Q 6606.189 5868.236 6605.897 5867.084 Q 6605.587 5867.645 6607.372 5876.593 Q 6609.157 5885.541 6611.781 5896.798 Q 6611.965 5898.014 6614.684 5892.396 Q 6617.403 5886.780 6619.022 5883.271 Q 6620.643 5879.762 6620.978 5879.241 "></path>
    <path id="STROKE_d79bfc57-aa49-477a-863c-b9dbc711ab97" opacity="1.000" fill="none" stroke="#f45e58" stroke-width="3.570" stroke-opacity="1.000" stroke-linecap="round" stroke-linejoin="round" d="M 6630.037 5881.672 Q 6630.037 5881.716 6630.002 5882.054 Q 6631.337 5882.573 6636.652 5881.437 Q 6641.968 5880.300 6645.194 5878.884 Q 6648.420 5877.469 6649.928 5876.535 Q 6651.436 5875.601 6651.783 5874.977 Q 6652.130 5874.353 6652.533 5873.494 Q 6652.936 5872.635 6651.218 5871.160 Q 6649.499 5869.686 6647.214 5869.019 Q 6644.929 5868.352 6643.304 5868.650 Q 6641.679 5868.949 6640.238 5870.115 Q 6638.797 5871.281 6636.923 5874.526 Q 6635.048 5877.771 6634.292 5881.049 Q 6633.536 5884.327 6633.361 5886.156 Q 6633.186 5887.985 6633.452 5889.569 Q 6633.718 5891.153 6635.532 5891.820 Q 6637.347 5892.488 6638.395 5892.416 Q 6639.442 5892.343 6640.659 5892.208 Q 6641.875 5892.073 6642.981 5891.505 Q 6644.087 5890.938 6644.748 5890.390 "></path>
    <path id="STROKE_016613e7-f45a-42f3-8a36-68b1711461b0" opacity="1.000" fill="none" stroke="#f45e58" stroke-width="3.508" stroke-opacity="1.000" stroke-linecap="round" stroke-linejoin="round" d="M 6662.192 5867.519 Q 6662.192 5867.484 6662.192 5866.998 Q 6662.558 5866.111 6660.569 5872.624 Q 6658.582 5879.137 6658.034 5889.131 Q 6659.372 5890.202 6662.045 5886.053 Q 6664.717 5881.904 6668.643 5878.138 Q 6672.568 5874.372 6675.693 5872.276 Q 6678.819 5870.181 6683.459 5870.801 Q 6683.842 5872.265 6683.854 5875.765 Q 6683.867 5879.265 6682.577 5882.275 Q 6681.287 5885.285 6680.033 5886.249 Q 6678.779 5887.212 6678.594 5887.212 "></path>
    <path id="STROKE_d8bb7535-8f57-4a2e-8443-068b38434363" opacity="1.000" fill="none" stroke="#f45e58" stroke-width="3.517" stroke-opacity="1.000" stroke-linecap="round" stroke-linejoin="round" d="M 6474.148 5977.918 Q 6474.274 5977.882 6474.089 5976.782 Q 6473.904 5975.682 6473.710 5975.361 Q 6473.516 5975.042 6473.500 5975.117 Q 6473.484 5975.192 6473.128 5974.998 Q 6472.771 5974.804 6472.593 5974.812 Q 6472.415 5974.820 6471.853 5974.821 Q 6471.290 5974.823 6470.519 5975.670 Q 6469.748 5976.518 6467.947 5978.874 Q 6466.147 5981.230 6463.839 5985.362 Q 6461.532 5989.494 6460.554 5994.521 Q 6459.576 5999.547 6459.742 6002.794 Q 6459.908 6006.041 6460.988 6008.175 Q 6462.069 6010.309 6463.861 6011.827 Q 6465.653 6013.346 6467.981 6014.388 Q 6470.309 6015.429 6472.914 6015.349 Q 6475.520 6015.270 6476.898 6014.667 Q 6478.278 6014.065 6480.141 6012.359 Q 6482.004 6010.652 6482.659 6008.958 Q 6483.313 6007.264 6483.424 6006.125 Q 6483.535 6004.987 6483.502 6004.548 Q 6483.469 6004.109 6481.807 6003.138 Q 6480.144 6002.167 6477.361 6001.993 Q 6474.578 6001.820 6472.507 6001.910 Q 6470.435 6002.000 6468.957 6003.053 Q 6467.479 6004.106 6467.224 6004.744 Q 6466.969 6005.381 6466.507 6006.569 Q 6466.045 6007.757 6466.649 6009.461 Q 6467.252 6011.166 6468.823 6011.561 Q 6470.395 6011.957 6471.205 6012.217 "></path>
    <path id="STROKE_849c5cb7-9128-4f75-b9f0-62c647037244" opacity="1.000" fill="none" stroke="#f45e58" stroke-width="3.570" stroke-opacity="1.000" stroke-linecap="round" stroke-linejoin="round" d="M 6498.520 6001.519 Q 6498.687 6001.641 6501.896 6002.089 Q 6505.104 6002.536 6508.555 6001.955 Q 6512.005 6001.373 6514.825 5999.552 Q 6517.644 5997.730 6519.314 5996.464 Q 6520.985 5995.198 6521.462 5993.774 Q 6521.938 5992.350 6521.854 5991.151 Q 6521.768 5989.953 6520.424 5989.188 Q 6519.080 5988.424 6518.086 5988.130 Q 6517.092 5987.837 6515.708 5987.537 Q 6514.323 5987.238 6511.447 5987.421 Q 6508.570 5987.605 6505.939 5988.913 Q 6503.308 5990.221 6501.048 5992.271 Q 6498.788 5994.321 6497.652 5996.320 Q 6496.517 5998.320 6496.368 6000.425 Q 6496.220 6002.530 6497.028 6004.446 Q 6497.835 6006.362 6500.310 6007.971 Q 6502.785 6009.581 6506.597 6010.143 Q 6510.409 6010.706 6513.371 6010.520 Q 6516.333 6010.333 6518.928 6008.340 Q 6521.523 6006.347 6522.149 6005.722 "></path>
    <path id="STROKE_d30c1fc8-fd74-4329-84a7-ca259d67fe62" opacity="1.000" fill="none" stroke="#f45e58" stroke-width="3.570" stroke-opacity="1.000" stroke-linecap="round" stroke-linejoin="round" d="M 6532.436 5988.459 Q 6533.175 5988.624 6530.095 5987.834 Q 6530.028 5988.229 6529.885 5991.677 Q 6529.741 5995.124 6531.084 5998.993 Q 6532.426 6002.863 6533.966 6004.950 Q 6535.505 6007.037 6536.456 6007.765 Q 6537.407 6008.492 6539.159 6008.621 Q 6540.912 6008.750 6543.184 6005.259 Q 6545.456 6001.769 6546.897 5997.311 Q 6548.339 5992.853 6548.490 5992.367 "></path>
    <path id="STROKE_89dbaa84-089f-4248-99f2-d22e5ac1592f" opacity="1.000" fill="none" stroke="#f45e58" stroke-width="3.570" stroke-opacity="1.000" stroke-linecap="round" stroke-linejoin="round" d="M 6553.934 5997.750 Q 6553.416 5998.600 6559.000 5996.805 Q 6564.584 5995.011 6568.372 5993.040 Q 6572.159 5991.069 6574.108 5989.937 Q 6576.058 5988.804 6576.637 5986.731 Q 6574.898 5986.191 6571.502 5986.216 Q 6568.106 5986.242 6565.280 5986.260 Q 6562.455 5986.278 6560.144 5987.257 Q 6557.832 5988.236 6556.034 5990.266 Q 6554.236 5992.295 6553.751 5994.650 Q 6553.266 5997.006 6553.453 5998.527 Q 6553.640 6000.049 6554.903 6001.260 Q 6556.167 6002.470 6559.937 6003.110 Q 6563.707 6003.750 6566.759 6003.651 Q 6569.812 6003.553 6571.389 6002.354 Q 6572.965 6001.154 6573.371 6000.564 "></path>
    <path id="STROKE_9206b913-0c81-4de8-945d-52eb46490868" opacity="1.000" fill="none" stroke="#f45e58" stroke-width="3.493" stroke-opacity="1.000" stroke-linecap="round" stroke-linejoin="round" d="M 6583.449 5984.187 Q 6583.180 5984.754 6584.062 5982.190 L 6584.097 5982.190 Q 6584.225 5982.589 6584.128 5988.000 Q 6584.032 5993.411 6583.958 5996.369 Q 6583.883 5999.328 6584.093 6000.521 Q 6584.303 6001.713 6584.808 6002.618 Q 6585.312 6003.522 6587.162 6003.021 Q 6589.012 6002.518 6593.397 5996.458 Q 6597.782 5990.398 6603.349 5983.527 Q 6604.136 5983.381 6602.422 6003.221 Q 6603.150 6002.956 6605.404 6000.761 Q 6607.658 5998.567 6608.330 5997.907 "></path>
    <path id="STROKE_542bc714-3879-4458-9eb5-dd1bae40bf20" opacity="1.000" fill="none" stroke="#f45e58" stroke-width="3.240" stroke-opacity="1.000" stroke-linecap="round" stroke-linejoin="round" d="M 6621.048 5993.773 Q 6621.145 5993.749 6618.986 5994.694 L 6618.986 5994.729 Q 6619.622 5994.390 6626.903 5993.534 Q 6634.184 5992.678 6639.751 5993.194 Q 6645.319 5993.711 6652.758 5993.997 Q 6660.197 5994.283 6665.574 5994.122 Q 6670.951 5993.961 6674.841 5993.252 Q 6674.586 5993.252 6672.971 5993.309 Q 6671.354 5993.365 6670.810 5993.479 "></path>
    <path id="STROKE_ab6ed119-b439-4061-b7dd-ff7aeafccf2c" opacity="1.000" fill="none" stroke="#f45e58" stroke-width="3.065" stroke-opacity="1.000" stroke-linecap="round" stroke-linejoin="round" d="M 6621.488 5982.642 Q 6621.152 5982.694 6619.866 5982.416 Q 6619.426 5982.729 6629.429 5982.758 Q 6639.431 5982.786 6646.347 5982.724 Q 6653.262 5982.661 6668.818 5980.575 Q 6668.804 5980.595 6668.973 5981.323 Q 6669.142 5982.051 6669.397 5982.346 "></path>
    <path id="STROKE_93da6914-6495-48f9-a5f9-2facb0bbef6d" opacity="1.000" fill="none" stroke="#f45e58" stroke-width="3.570" stroke-opacity="1.000" stroke-linecap="round" stroke-linejoin="round" d="M 6664.996 5969.582 Q 6664.889 5969.364 6663.651 5968.105 Q 6663.951 5967.909 6667.889 5971.355 Q 6671.826 5974.802 6676.040 5978.058 Q 6680.255 5981.314 6683.206 5982.850 Q 6686.157 5984.385 6687.548 5984.892 Q 6688.939 5985.398 6689.433 5985.896 Q 6689.926 5986.394 6689.255 5988.095 Q 6688.583 5989.796 6686.942 5992.089 Q 6685.301 5994.382 6683.797 5996.813 Q 6682.293 5999.244 6680.629 6001.682 Q 6678.965 6004.119 6672.872 6009.265 Q 6673.038 6009.265 6673.801 6009.226 Q 6674.563 6009.187 6674.934 6009.108 "></path>
    <path id="STROKE_e7c86bee-e9d5-4b9e-8c1f-033d8fb20355" opacity="1.000" fill="none" stroke="#f45e58" stroke-width="3.458" stroke-opacity="1.000" stroke-linecap="round" stroke-linejoin="round" d="M 6712.464 5986.844 Q 6712.171 5986.844 6710.981 5986.844 Q 6711.075 5987.262 6716.577 5987.686 Q 6722.079 5988.110 6726.931 5987.423 Q 6731.782 5986.735 6735.110 5985.665 Q 6738.438 5984.595 6739.966 5983.775 Q 6741.494 5982.956 6742.833 5981.065 Q 6744.172 5979.175 6741.636 5977.029 Q 6739.100 5974.883 6737.112 5973.891 Q 6735.125 5972.898 6733.910 5972.451 Q 6732.696 5972.005 6730.241 5971.644 Q 6727.786 5971.282 6724.788 5972.219 Q 6721.791 5973.155 6719.082 5975.777 Q 6716.372 5978.400 6714.640 5981.235 Q 6712.907 5984.070 6712.398 5986.597 Q 6711.890 5989.125 6712.186 5990.771 Q 6712.481 5992.417 6712.907 5993.761 Q 6713.333 5995.105 6716.021 5996.336 Q 6718.707 5997.567 6722.712 5997.765 Q 6726.718 5997.962 6730.111 5997.433 Q 6733.505 5996.903 6736.265 5995.469 Q 6739.024 5994.034 6739.754 5993.548 "></path>
    <path id="STROKE_66ea5f25-5e65-4623-90bf-d4b9d86915f4" opacity="1.000" fill="none" stroke="#f45e58" stroke-width="3.570" stroke-opacity="1.000" stroke-linecap="round" stroke-linejoin="round" d="M 6755.207 5971.579 Q 6754.771 5972.568 6754.732 5972.500 Q 6754.008 5972.622 6754.171 5976.884 Q 6754.333 5981.146 6754.287 5983.869 Q 6754.240 5986.591 6755.126 5989.851 Q 6756.012 5993.111 6759.110 5995.284 Q 6759.141 5994.988 6760.874 5992.601 Q 6762.607 5990.214 6763.885 5988.898 Q 6765.163 5987.582 6767.071 5985.759 Q 6768.979 5983.936 6769.500 5983.458 "></path>
    <path id="STROKE_97c72b0f-3d3a-45e8-91b2-5567b98c9aca" opacity="1.000" fill="none" stroke="#f45e58" stroke-width="3.570" stroke-opacity="1.000" stroke-linecap="round" stroke-linejoin="round" d="M 6772.443 5987.435 Q 6772.306 5987.188 6772.345 5987.283 Q 6772.384 5987.378 6772.751 5988.053 Q 6773.118 5988.727 6773.375 5988.666 Q 6773.633 5988.605 6773.980 5988.553 Q 6774.327 5988.500 6775.165 5988.631 Q 6776.003 5988.762 6779.885 5986.947 Q 6783.766 5985.133 6786.394 5983.126 Q 6789.022 5981.120 6790.312 5979.854 Q 6791.602 5978.588 6792.140 5977.109 Q 6792.677 5975.630 6792.229 5974.649 Q 6791.781 5973.669 6790.269 5973.400 Q 6788.757 5973.131 6787.301 5973.225 Q 6785.846 5973.317 6783.195 5976.357 Q 6780.545 5979.397 6778.879 5981.947 Q 6777.213 5984.497 6776.310 5986.562 Q 6775.405 5988.628 6775.324 5990.392 Q 6775.243 5992.155 6775.351 5993.400 Q 6775.459 5994.646 6778.179 5995.299 Q 6780.898 5995.952 6783.730 5994.272 Q 6786.563 5992.593 6787.223 5992.072 "></path>
    <path id="STROKE_13771ea4-1510-42a6-9898-117582208f04" opacity="1.000" fill="none" stroke="#f45e58" stroke-width="3.570" stroke-opacity="1.000" stroke-linecap="round" stroke-linejoin="round" d="M 6801.425 5973.715 Q 6799.729 5973.508 6798.064 5978.537 Q 6796.399 5983.566 6796.826 5990.057 Q 6798.261 5989.356 6797.810 5989.538 Q 6797.357 5989.720 6799.824 5985.757 Q 6802.291 5981.793 6804.962 5978.511 Q 6807.634 5975.229 6809.191 5973.604 Q 6810.749 5971.978 6811.673 5971.527 Q 6812.597 5971.077 6813.362 5971.785 Q 6814.128 5972.493 6815.125 5976.129 Q 6816.123 5979.765 6816.569 5982.891 Q 6817.015 5986.016 6817.147 5988.479 Q 6817.279 5990.942 6814.050 5994.000 Q 6813.435 5993.343 6812.914 5991.844 Q 6812.394 5990.344 6812.174 5989.936 "></path>
    <path id="STROKE_57bff659-3bcd-40ce-a784-0f21c68b6e6b" opacity="1.000" fill="none" stroke="#f3ba38" stroke-width="3.956" stroke-opacity="1.000" stroke-linecap="round" stroke-linejoin="round" d="M 6227.538 5614.644 Q 6227.387 5614.571 6226.895 5614.303 Q 6226.403 5614.034 6226.297 5614.024 Q 6226.191 5614.015 6225.452 5613.725 Q 6224.714 5613.435 6219.292 5613.476 Q 6213.870 5613.516 6209.336 5613.445 Q 6204.801 5613.375 6185.362 5615.072 Q 6165.923 5616.770 6155.755 5617.727 Q 6145.588 5618.685 6141.173 5618.850 Q 6136.759 5619.015 6134.650 5619.187 Q 6132.541 5619.358 6122.619 5619.327 Q 6112.697 5619.296 6092.776 5621.469 Q 6092.877 5621.834 6094.655 5623.657 Q 6096.433 5625.481 6097.131 5626.631 Q 6097.829 5627.782 6098.438 5629.767 Q 6099.045 5631.752 6099.198 5635.930 Q 6099.350 5640.107 6097.776 5647.147 Q 6096.202 5654.188 6094.841 5664.590 Q 6093.479 5674.991 6092.708 5680.079 Q 6091.937 5685.166 6091.529 5687.522 Q 6091.121 5689.879 6090.773 5692.172 Q 6090.426 5694.465 6089.887 5698.255 Q 6089.349 5702.044 6088.913 5705.660 Q 6088.478 5709.275 6088.426 5714.031 Q 6088.374 5718.787 6088.232 5725.977 Q 6088.091 5733.167 6087.163 5741.927 Q 6086.234 5750.687 6085.771 5755.894 Q 6085.307 5761.101 6085.338 5764.759 Q 6085.370 5768.416 6085.293 5783.173 Q 6085.216 5797.930 6084.899 5807.868 Q 6084.583 5817.806 6084.743 5824.630 Q 6084.904 5831.453 6085.397 5836.408 Q 6085.890 5841.363 6086.244 5850.789 Q 6086.598 5860.216 6085.521 5878.003 Q 6084.443 5895.790 6084.186 5904.907 Q 6083.929 5914.024 6083.642 5919.228 Q 6083.355 5924.431 6083.012 5931.993 Q 6082.668 5939.556 6082.465 5949.019 Q 6082.262 5958.482 6081.956 5965.523 Q 6081.650 5972.564 6081.260 5979.652 Q 6080.871 5986.741 6080.742 5991.583 Q 6080.614 5996.424 6080.334 6004.114 Q 6080.055 6011.805 6079.879 6018.938 Q 6079.703 6026.072 6079.659 6033.478 Q 6079.615 6040.884 6079.322 6046.877 Q 6079.029 6052.871 6078.570 6057.906 Q 6078.111 6062.942 6077.628 6066.039 Q 6077.144 6069.135 6076.789 6073.142 Q 6076.434 6077.148 6077.825 6082.465 Q 6079.216 6087.781 6079.792 6090.428 Q 6080.369 6093.075 6080.941 6094.489 Q 6081.514 6095.904 6082.148 6096.180 Q 6082.784 6096.456 6084.762 6096.626 Q 6086.739 6096.796 6088.126 6096.505 Q 6089.513 6096.214 6094.763 6094.525 Q 6100.013 6092.837 6104.019 6092.215 Q 6108.024 6091.594 6111.819 6091.283 Q 6115.614 6090.973 6118.551 6090.916 Q 6121.489 6090.858 6124.006 6090.807 Q 6126.522 6090.755 6133.696 6090.544 Q 6140.869 6090.332 6144.805 6090.712 Q 6148.741 6091.091 6150.847 6089.726 Q 6152.952 6088.361 6153.288 6088.178 "></path>
    <path id="STROKE_2dcac6e5-6095-40cd-a04b-7582e924e3df" opacity="1.000" fill="none" stroke="#f3ba38" stroke-width="4.401" stroke-opacity="1.000" stroke-linecap="round" stroke-linejoin="round" d="M 6154.748 6074.962 Q 6154.407 6073.583 6154.388 6073.686 Q 6154.073 6072.857 6154.168 6073.018 L 6154.168 6072.982 Q 6153.719 6072.422 6155.810 6077.217 Q 6157.901 6082.012 6158.767 6105.719 Q 6159.716 6105.737 6161.018 6103.951 Q 6162.320 6102.165 6163.458 6101.072 Q 6164.597 6099.980 6165.203 6099.560 Q 6165.809 6099.139 6168.379 6097.764 Q 6170.949 6096.388 6173.037 6095.430 Q 6175.124 6094.471 6176.963 6093.349 Q 6178.801 6092.227 6179.729 6091.594 Q 6180.657 6090.961 6181.040 6090.098 Q 6181.423 6089.235 6177.931 6085.680 Q 6174.438 6082.124 6170.548 6079.506 Q 6166.657 6076.888 6164.265 6075.292 Q 6161.872 6073.697 6156.068 6073.052 Q 6156.068 6073.130 6156.108 6073.278 Q 6156.149 6073.425 6156.230 6073.643 "></path>
    <path id="STROKE_806ce1be-2f22-4996-80b6-3b79726b1454" opacity="1.000" fill="none" stroke="#f3ba38" stroke-width="4.420" stroke-opacity="1.000" stroke-linecap="round" stroke-linejoin="round" d="M 6203.329 6074.754 Q 6203.328 6074.754 6202.855 6074.947 Q 6202.383 6075.141 6202.798 6088.754 Q 6203.212 6102.367 6203.467 6102.401 "></path>
    <path id="STROKE_f1eed54f-73b3-43dd-b259-d9a7c5304a79" opacity="1.000" fill="none" stroke="#f3ba38" stroke-width="4.420" stroke-opacity="1.000" stroke-linecap="round" stroke-linejoin="round" d="M 6189.127 6071.142 Q 6188.832 6071.335 6192.246 6071.014 Q 6195.661 6070.693 6202.089 6072.428 Q 6208.517 6074.164 6209.282 6074.528 "></path>
    <path id="STROKE_e4b83692-7410-4f91-afe9-2dae33be43a1" opacity="1.000" fill="none" stroke="#f3ba38" stroke-width="4.420" stroke-opacity="1.000" stroke-linecap="round" stroke-linejoin="round" d="M 6217.599 6070.395 Q 6217.742 6070.773 6217.453 6079.032 Q 6217.165 6087.291 6218.746 6096.323 Q 6218.960 6096.626 6220.288 6095.737 Q 6221.616 6094.848 6222.683 6093.298 Q 6223.750 6091.749 6224.666 6090.372 Q 6225.583 6088.995 6230.630 6083.159 Q 6231.022 6084.604 6230.957 6084.587 Q 6230.891 6084.569 6230.894 6085.120 Q 6230.897 6085.670 6230.940 6086.232 Q 6230.984 6086.793 6230.730 6088.506 Q 6230.478 6090.218 6230.026 6092.872 Q 6229.576 6095.526 6230.039 6099.232 Q 6230.651 6099.777 6231.544 6098.932 Q 6232.437 6098.086 6232.773 6097.608 "></path>
    <path id="STROKE_2ea0cfbb-88b5-48b9-9513-a091bf13f8f0" opacity="1.000" fill="none" stroke="#f3ba38" stroke-width="4.420" stroke-opacity="1.000" stroke-linecap="round" stroke-linejoin="round" d="M 6236.966 6090.975 Q 6236.817 6091.116 6237.057 6091.688 Q 6237.297 6092.261 6237.602 6092.459 Q 6237.907 6092.656 6238.693 6093.068 Q 6239.480 6093.480 6242.678 6093.582 Q 6245.875 6093.683 6248.324 6093.305 Q 6250.772 6092.928 6252.987 6091.879 Q 6255.202 6090.831 6256.329 6089.800 Q 6257.456 6088.770 6257.574 6088.176 Q 6257.692 6087.581 6257.721 6086.581 Q 6257.750 6085.581 6256.254 6083.922 Q 6254.758 6082.264 6252.753 6081.271 Q 6250.748 6080.279 6249.099 6080.153 Q 6247.450 6080.028 6246.287 6080.303 Q 6245.124 6080.578 6244.395 6081.319 Q 6243.667 6082.060 6242.725 6083.012 Q 6241.783 6083.964 6241.178 6086.704 Q 6240.573 6089.443 6240.535 6091.817 Q 6240.497 6094.192 6241.417 6095.811 Q 6242.337 6097.430 6245.924 6097.684 Q 6249.511 6097.938 6250.287 6097.904 "></path>
    <path id="STROKE_4bd66b6f-a17c-426a-a80a-4b350b97103d" opacity="1.000" fill="none" stroke="#f3ba38" stroke-width="4.420" stroke-opacity="1.000" stroke-linecap="round" stroke-linejoin="round" d="M 6264.558 6080.572 Q 6263.866 6079.821 6263.462 6085.574 Q 6263.059 6091.326 6264.118 6099.605 Q 6264.823 6099.957 6265.527 6098.952 Q 6266.231 6097.948 6266.909 6096.921 Q 6267.587 6095.895 6269.123 6093.268 Q 6270.658 6090.640 6272.646 6086.809 Q 6274.635 6082.977 6275.006 6082.569 "></path>
    <path id="STROKE_99ec3c05-8650-48e6-97db-e3b96b7a056e" opacity="1.000" fill="none" stroke="#f3ba38" stroke-width="4.420" stroke-opacity="1.000" stroke-linecap="round" stroke-linejoin="round" d="M 6278.458 6091.113 Q 6279.606 6093.349 6284.050 6092.255 Q 6288.494 6091.161 6290.874 6090.295 Q 6293.254 6089.429 6294.121 6088.858 Q 6294.987 6088.288 6295.274 6088.026 Q 6295.561 6087.764 6295.685 6087.368 Q 6295.808 6086.973 6295.730 6086.491 Q 6295.653 6086.010 6295.444 6085.256 Q 6295.235 6084.501 6293.231 6084.051 Q 6291.228 6083.600 6289.674 6083.431 Q 6288.120 6083.261 6285.734 6084.657 Q 6283.349 6086.053 6281.543 6088.258 Q 6279.738 6090.462 6278.552 6092.460 Q 6277.367 6094.458 6277.182 6097.113 Q 6276.997 6099.769 6276.922 6101.252 Q 6276.847 6102.735 6278.342 6103.765 Q 6279.836 6104.794 6282.391 6104.501 Q 6284.944 6104.208 6285.454 6103.947 "></path>
    <path id="STROKE_23253999-22cb-48aa-843b-bd56d2d88a31" opacity="1.000" fill="none" stroke="#f3ba38" stroke-width="4.420" stroke-opacity="1.000" stroke-linecap="round" stroke-linejoin="round" d="M 6322.267 6091.860 Q 6322.484 6091.353 6322.013 6089.060 Q 6321.542 6086.767 6320.448 6085.407 Q 6319.354 6084.047 6318.423 6083.371 Q 6317.492 6082.694 6317.069 6082.567 Q 6316.647 6082.439 6316.408 6082.387 Q 6316.170 6082.335 6315.646 6082.079 Q 6315.123 6081.823 6313.641 6083.409 Q 6312.160 6084.995 6311.220 6088.036 Q 6310.280 6091.078 6309.528 6093.966 Q 6308.777 6096.853 6308.414 6099.521 Q 6308.050 6102.189 6307.941 6104.306 Q 6307.833 6106.422 6307.833 6106.969 "></path>
    <path id="STROKE_9d6dd1f7-caef-4b17-8509-58b134a7380f" opacity="1.000" fill="none" stroke="#f3ba38" stroke-width="4.420" stroke-opacity="1.000" stroke-linecap="round" stroke-linejoin="round" d="M 6297.965 6095.107 Q 6297.881 6095.040 6297.896 6095.083 Q 6297.911 6095.126 6298.206 6096.183 Q 6298.501 6097.239 6302.244 6097.355 Q 6305.986 6097.472 6312.632 6097.375 Q 6319.277 6097.278 6320.274 6097.174 "></path>
    <path id="STROKE_33227702-b5ed-4898-a7ca-806b9e34a279" opacity="1.000" fill="none" stroke="#f3ba38" stroke-width="4.420" stroke-opacity="1.000" stroke-linecap="round" stroke-linejoin="round" d="M 6325.487 6093.927 Q 6325.460 6093.895 6323.775 6094.440 Q 6322.091 6094.987 6321.048 6096.482 Q 6320.004 6097.978 6319.821 6099.660 Q 6319.639 6101.342 6319.954 6102.815 Q 6320.270 6104.288 6322.108 6105.339 Q 6323.947 6106.391 6326.563 6106.737 Q 6329.179 6107.084 6331.740 6106.212 Q 6334.301 6105.339 6335.793 6104.237 Q 6337.284 6103.134 6338.396 6101.275 Q 6339.509 6099.416 6339.758 6098.192 Q 6340.008 6096.969 6340.333 6095.631 Q 6340.659 6094.293 6339.876 6093.055 Q 6339.093 6091.816 6338.140 6091.075 Q 6337.186 6090.334 6335.384 6089.809 Q 6333.582 6089.284 6332.141 6089.387 Q 6330.699 6089.489 6329.370 6090.244 Q 6328.042 6090.999 6327.355 6093.084 Q 6326.668 6095.170 6326.800 6096.442 Q 6326.932 6097.715 6327.941 6098.348 Q 6328.950 6098.980 6329.541 6099.241 "></path>
    <path id="STROKE_43470ac3-ef8e-4226-b478-5b89527a0282" opacity="1.000" fill="none" stroke="#f3ba38" stroke-width="4.420" stroke-opacity="1.000" stroke-linecap="round" stroke-linejoin="round" d="M 6351.619 6085.816 Q 6350.272 6086.274 6349.350 6090.222 Q 6348.427 6094.170 6347.727 6106.309 Q 6347.682 6106.384 6350.543 6100.876 Q 6353.405 6095.368 6355.131 6091.426 Q 6356.856 6087.484 6358.454 6086.146 Q 6360.051 6084.809 6360.306 6084.774 "></path>
    <path id="STROKE_f82bf55f-8cce-4e08-be9f-63a9396da1a0" opacity="1.000" fill="none" stroke="#f3ba38" stroke-width="4.420" stroke-opacity="1.000" stroke-linecap="round" stroke-linejoin="round" d="M 6365.009 6097.539 Q 6364.961 6097.321 6368.216 6097.314 Q 6371.470 6097.307 6373.625 6097.368 Q 6375.781 6097.429 6378.692 6096.038 Q 6381.604 6094.646 6383.463 6093.510 Q 6385.322 6092.373 6385.222 6089.576 Q 6384.774 6089.174 6382.057 6088.970 Q 6379.339 6088.766 6376.791 6089.678 Q 6374.243 6090.589 6372.186 6092.621 Q 6370.129 6094.652 6368.489 6097.118 Q 6366.849 6099.584 6366.255 6101.665 Q 6365.662 6103.747 6365.929 6105.515 Q 6366.196 6107.283 6366.994 6108.220 Q 6367.792 6109.156 6370.609 6109.485 Q 6373.426 6109.815 6376.781 6108.522 Q 6380.137 6107.229 6381.133 6106.674 "></path>
    <path id="STROKE_2711a346-48c7-4a67-b31b-97ce1ddd7155" opacity="1.000" fill="none" stroke="#f3ba38" stroke-width="4.402" stroke-opacity="1.000" stroke-linecap="round" stroke-linejoin="round" d="M 6407.915 6092.972 Q 6407.956 6092.802 6408.424 6091.794 Q 6408.892 6090.787 6409.594 6089.841 Q 6410.295 6088.896 6411.324 6087.943 Q 6412.353 6086.992 6415.492 6084.519 Q 6418.632 6082.045 6421.242 6080.391 Q 6423.853 6078.737 6427.061 6079.252 Q 6429.468 6081.802 6423.528 6110.737 Q 6423.743 6109.750 6427.165 6106.378 Q 6427.161 6106.354 6427.367 6106.810 Q 6427.573 6107.267 6427.667 6107.462 Q 6427.761 6107.657 6427.812 6107.686 Q 6427.862 6107.714 6427.763 6107.640 Q 6427.663 6107.565 6428.039 6108.089 Q 6428.415 6108.614 6428.719 6109.081 Q 6429.023 6109.549 6430.155 6109.917 Q 6431.288 6110.285 6433.732 6108.800 Q 6436.176 6107.315 6438.061 6105.089 Q 6439.945 6102.862 6440.920 6101.575 Q 6441.895 6100.288 6444.314 6095.576 Q 6446.733 6090.864 6448.177 6079.912 Q 6448.480 6080.470 6447.977 6084.824 Q 6447.474 6089.179 6446.653 6092.486 Q 6445.833 6095.794 6445.280 6098.039 Q 6444.728 6100.285 6444.480 6101.346 Q 6444.233 6102.406 6444.041 6103.777 Q 6443.849 6105.148 6443.950 6107.056 Q 6444.226 6108.173 6448.975 6101.325 Q 6453.724 6094.477 6459.912 6087.727 Q 6460.542 6087.616 6458.951 6093.210 Q 6457.361 6098.804 6457.166 6105.128 Q 6457.714 6104.921 6458.831 6102.965 Q 6459.947 6101.009 6461.111 6099.752 Q 6462.274 6098.494 6462.819 6097.973 "></path>
    <path id="STROKE_b0fa737c-aa10-44be-8fd6-9bd764ec46c8" opacity="1.000" fill="none" stroke="#f3ba38" stroke-width="4.420" stroke-opacity="1.000" stroke-linecap="round" stroke-linejoin="round" d="M 6471.275 6098.355 Q 6471.275 6098.355 6471.361 6097.993 Q 6471.448 6097.631 6475.729 6097.065 Q 6480.009 6096.499 6482.846 6095.479 Q 6485.682 6094.458 6487.104 6093.753 Q 6488.527 6093.048 6489.263 6092.294 Q 6489.998 6091.540 6490.062 6090.625 Q 6490.125 6089.710 6489.818 6089.424 Q 6489.510 6089.137 6489.240 6088.982 Q 6488.970 6088.827 6488.756 6088.676 Q 6488.543 6088.525 6485.656 6087.901 Q 6482.770 6087.278 6480.485 6087.476 Q 6478.201 6087.672 6477.143 6088.130 Q 6476.085 6088.587 6474.508 6090.333 Q 6472.931 6092.080 6472.244 6093.380 Q 6471.557 6094.680 6470.756 6096.856 Q 6469.956 6099.034 6469.907 6101.434 Q 6469.859 6103.834 6470.207 6105.538 Q 6470.555 6107.241 6472.323 6108.256 Q 6474.092 6109.271 6477.105 6109.945 Q 6480.119 6110.620 6484.755 6108.374 Q 6489.391 6106.127 6490.132 6105.580 "></path>
    <path id="STROKE_e94a9686-ad5a-4863-8f93-bc3a691375a0" opacity="1.000" fill="none" stroke="#f3ba38" stroke-width="4.420" stroke-opacity="1.000" stroke-linecap="round" stroke-linejoin="round" d="M 6409.096 6097.018 Q 6409.381 6095.906 6413.958 6095.512 Q 6418.535 6095.117 6423.312 6095.085 Q 6428.089 6095.053 6433.146 6096.070 Q 6438.204 6097.087 6439.281 6097.383 "></path>
    <path id="STROKE_3db5285e-6c21-4dd6-b09f-f8d1e3fffb7d" opacity="1.000" fill="none" stroke="#f3ba38" stroke-width="4.420" stroke-opacity="1.000" stroke-linecap="round" stroke-linejoin="round" d="M 6545.038 6092.225 Q 6545.316 6092.214 6545.717 6090.090 Q 6546.119 6087.966 6545.904 6086.046 Q 6545.689 6084.125 6545.001 6083.214 Q 6544.312 6082.302 6542.453 6080.971 Q 6540.593 6079.640 6538.325 6079.231 Q 6536.058 6078.823 6534.256 6078.744 Q 6532.455 6078.665 6530.409 6081.917 Q 6528.362 6085.170 6527.780 6088.833 Q 6527.199 6092.497 6527.199 6095.117 Q 6527.200 6097.737 6526.931 6100.988 Q 6526.663 6104.240 6528.280 6107.285 Q 6529.898 6110.330 6530.373 6110.876 "></path>
    <path id="STROKE_863c2205-21b5-41d6-8c6a-72b97a6cd79c" opacity="1.000" fill="none" stroke="#f3ba38" stroke-width="4.420" stroke-opacity="1.000" stroke-linecap="round" stroke-linejoin="round" d="M 6515.733 6100.404 Q 6515.396 6100.478 6525.832 6099.742 Q 6536.269 6099.006 6537.230 6098.859 "></path>
    <path id="STROKE_cc9f9071-1494-425e-a208-9678a34efe66" opacity="1.000" fill="none" stroke="#f3ba38" stroke-width="4.420" stroke-opacity="1.000" stroke-linecap="round" stroke-linejoin="round" d="M 6547.169 6091.634 Q 6546.092 6091.762 6544.147 6092.443 Q 6542.202 6093.124 6541.501 6095.491 Q 6540.799 6097.858 6540.830 6100.200 Q 6540.861 6102.542 6541.821 6104.709 Q 6542.782 6106.876 6543.913 6108.248 Q 6545.043 6109.621 6547.118 6110.107 Q 6549.193 6110.594 6551.826 6109.995 Q 6554.458 6109.396 6556.859 6107.261 Q 6559.260 6105.125 6560.279 6102.496 Q 6561.299 6099.866 6561.409 6098.103 Q 6561.519 6096.339 6560.624 6094.720 Q 6559.729 6093.100 6556.736 6092.559 Q 6553.743 6092.018 6551.810 6092.131 Q 6549.876 6092.244 6548.425 6093.230 Q 6546.975 6094.216 6547.101 6095.839 Q 6547.227 6097.461 6547.447 6097.904 "></path>
    <path id="STROKE_2e47dd25-afd0-45f4-9461-091e01261a20" opacity="1.000" fill="none" stroke="#f3ba38" stroke-width="4.420" stroke-opacity="1.000" stroke-linecap="round" stroke-linejoin="round" d="M 6567.765 6085.435 Q 6568.263 6086.505 6567.426 6092.045 Q 6566.590 6097.585 6566.460 6100.729 Q 6566.331 6103.874 6566.275 6105.200 Q 6566.219 6106.526 6566.662 6107.480 Q 6567.105 6108.435 6567.490 6108.491 Q 6567.874 6108.547 6568.235 6108.305 Q 6568.597 6108.063 6568.947 6107.520 Q 6569.297 6106.977 6569.915 6106.031 Q 6570.532 6105.086 6571.192 6103.898 Q 6571.854 6102.711 6572.321 6101.814 Q 6572.788 6100.917 6574.108 6098.163 Q 6575.428 6095.409 6577.204 6092.842 Q 6578.980 6090.275 6580.352 6089.183 Q 6581.722 6088.091 6582.197 6087.796 "></path>
    <path id="STROKE_8b6afb3c-b9b5-42e7-99f2-a182524bbee7" opacity="1.000" fill="none" stroke="#f3ba38" stroke-width="4.420" stroke-opacity="1.000" stroke-linecap="round" stroke-linejoin="round" d="M 6588.082 6087.362 Q 6588.063 6087.296 6586.390 6087.579 Q 6586.333 6087.744 6586.185 6088.568 Q 6586.037 6089.392 6586.109 6089.075 Q 6586.182 6088.758 6586.118 6089.432 Q 6586.055 6090.105 6585.873 6095.375 Q 6585.691 6100.646 6587.271 6107.160 Q 6588.450 6107.938 6598.634 6085.886 Q 6599.292 6085.746 6598.248 6091.577 Q 6597.203 6097.407 6596.978 6103.739 Q 6598.201 6103.058 6600.889 6098.453 Q 6603.577 6093.849 6605.214 6091.691 Q 6606.851 6089.534 6607.692 6088.453 Q 6608.535 6087.373 6610.496 6086.771 Q 6610.990 6087.650 6610.021 6104.104 Q 6610.021 6104.069 6610.055 6103.882 Q 6610.090 6103.695 6610.160 6103.357 "></path>
    <path id="STROKE_4c3ff69a-ca5b-40c3-b918-d105b5a84c51" opacity="1.000" fill="none" stroke="#f3ba38" stroke-width="4.420" stroke-opacity="1.000" stroke-linecap="round" stroke-linejoin="round" d="M 6622.670 6088.248 Q 6622.300 6088.133 6622.306 6088.219 Q 6622.312 6088.304 6621.718 6088.375 Q 6621.124 6088.445 6620.962 6091.676 Q 6620.801 6094.906 6620.858 6097.381 Q 6620.916 6099.855 6621.860 6101.634 Q 6622.805 6103.413 6623.871 6104.376 Q 6624.937 6105.340 6627.210 6105.507 Q 6629.483 6105.674 6631.729 6104.518 Q 6633.976 6103.362 6636.436 6100.784 Q 6638.895 6098.206 6639.099 6093.613 Q 6639.303 6089.021 6639.164 6088.474 "></path>
    <path id="STROKE_70a991a5-7d3f-4d8e-a1f0-ef115d350ad6" opacity="1.000" fill="none" stroke="#f3ba38" stroke-width="4.420" stroke-opacity="1.000" stroke-linecap="round" stroke-linejoin="round" d="M 6648.362 6078.436 Q 6649.612 6079.300 6647.724 6101.221 Q 6647.944 6101.333 6648.147 6101.429 Q 6648.350 6101.524 6648.640 6101.672 "></path>
    <path id="STROKE_4574da93-c347-4948-863f-2160af6fb484" opacity="1.000" fill="none" stroke="#f3ba38" stroke-width="4.420" stroke-opacity="1.000" stroke-linecap="round" stroke-linejoin="round" d="M 6668.077 6088.682 Q 6668.344 6088.421 6667.644 6086.622 Q 6666.943 6084.822 6665.399 6084.283 Q 6663.856 6083.745 6663.001 6083.926 Q 6662.146 6084.107 6661.577 6084.764 Q 6661.007 6085.421 6659.743 6088.075 Q 6658.479 6090.730 6658.138 6093.346 Q 6657.798 6095.961 6657.850 6097.149 Q 6657.902 6098.337 6658.146 6099.184 Q 6658.390 6100.030 6658.976 6100.389 Q 6659.562 6100.748 6660.129 6100.903 Q 6660.696 6101.060 6662.467 6101.231 Q 6664.237 6101.403 6666.968 6099.950 Q 6669.699 6098.497 6672.305 6095.304 Q 6674.910 6092.111 6676.159 6088.466 Q 6677.408 6084.820 6676.439 6081.275 Q 6674.945 6080.918 6674.029 6086.732 Q 6673.113 6092.546 6673.067 6096.041 Q 6673.022 6099.537 6673.467 6101.540 Q 6673.913 6103.544 6676.071 6104.101 Q 6678.229 6104.657 6681.395 6101.502 Q 6684.560 6098.347 6685.220 6097.539 "></path>
    <path id="STROKE_fae27d83-251b-4448-9afc-183f0a9602eb" opacity="1.000" fill="none" stroke="#f3ba38" stroke-width="4.257" stroke-opacity="1.000" stroke-linecap="round" stroke-linejoin="round" d="M 6719.600 6099.605 Q 6719.452 6099.429 6719.084 6099.761 Q 6718.716 6100.094 6718.393 6100.495 Q 6718.070 6100.896 6718.040 6101.445 Q 6718.010 6101.995 6718.100 6102.035 Q 6718.189 6102.076 6718.622 6102.357 Q 6719.055 6102.639 6720.625 6102.808 Q 6722.194 6102.977 6724.125 6102.604 Q 6726.057 6102.230 6727.380 6101.494 Q 6728.704 6100.757 6730.177 6100.293 Q 6731.649 6099.829 6735.562 6096.611 Q 6739.475 6093.394 6741.787 6091.190 Q 6744.099 6088.988 6745.905 6086.655 Q 6747.711 6084.322 6749.090 6082.005 Q 6750.469 6079.688 6749.843 6074.676 Q 6749.540 6074.604 6746.997 6074.134 Q 6744.453 6073.664 6740.562 6078.812 Q 6736.671 6083.959 6733.991 6089.234 Q 6731.312 6094.508 6729.788 6098.117 Q 6728.265 6101.725 6726.649 6107.119 Q 6725.034 6112.513 6724.591 6118.168 Q 6724.149 6123.824 6724.467 6127.359 Q 6724.785 6130.894 6725.302 6132.734 Q 6725.819 6134.575 6726.425 6135.681 Q 6727.032 6136.787 6727.593 6137.759 Q 6728.154 6138.731 6729.488 6139.255 Q 6730.823 6139.778 6732.465 6140.107 Q 6734.107 6140.437 6736.293 6137.148 Q 6738.479 6133.859 6739.888 6130.958 Q 6741.297 6128.056 6741.957 6126.471 Q 6742.618 6124.886 6743.075 6123.763 Q 6743.532 6122.640 6743.722 6122.189 Q 6743.913 6121.739 6744.609 6119.495 Q 6745.306 6117.252 6745.601 6115.245 Q 6745.895 6113.238 6745.648 6111.339 Q 6745.402 6109.441 6742.386 6107.233 Q 6739.370 6105.025 6734.530 6104.095 Q 6733.854 6103.375 6733.279 6108.523 Q 6733.355 6108.856 6736.098 6108.803 Q 6738.839 6108.749 6739.546 6108.671 "></path>
    <path id="STROKE_52f8012c-14b5-4dbf-95b2-0e13550fdf1b" opacity="1.000" fill="none" stroke="#f3ba38" stroke-width="4.420" stroke-opacity="1.000" stroke-linecap="round" stroke-linejoin="round" d="M 6762.366 6088.908 Q 6761.874 6088.846 6758.976 6089.168 Q 6756.077 6089.490 6753.891 6091.341 Q 6751.705 6093.191 6750.399 6095.229 Q 6749.093 6097.268 6748.805 6099.556 Q 6748.517 6101.843 6748.858 6103.632 Q 6749.200 6105.420 6751.269 6107.176 Q 6753.337 6108.931 6755.639 6109.650 Q 6757.940 6110.370 6761.186 6110.055 Q 6764.432 6109.739 6767.562 6107.419 Q 6770.692 6105.100 6772.515 6102.326 Q 6774.338 6099.552 6774.765 6096.901 Q 6775.191 6094.250 6774.967 6092.592 Q 6774.742 6090.933 6773.270 6089.115 Q 6771.796 6087.297 6769.053 6086.618 Q 6766.310 6085.939 6764.844 6086.133 Q 6763.377 6086.327 6761.850 6086.607 Q 6760.323 6086.888 6759.095 6089.417 Q 6757.868 6091.946 6757.660 6094.001 Q 6757.453 6096.056 6757.523 6097.452 Q 6757.593 6098.849 6758.938 6099.316 Q 6760.282 6099.785 6763.293 6098.786 Q 6766.304 6097.787 6768.429 6096.647 Q 6770.555 6095.507 6771.400 6094.951 "></path>
    <path id="STROKE_49b2b69a-cf9e-4ed2-8b36-b7400153d640" opacity="1.000" fill="none" stroke="#f3ba38" stroke-width="4.420" stroke-opacity="1.000" stroke-linecap="round" stroke-linejoin="round" d="M 6769.130 6091.270 Q 6768.614 6091.858 6768.539 6094.040 Q 6769.065 6094.110 6771.052 6094.468 Q 6773.038 6094.825 6777.119 6092.632 Q 6781.200 6090.439 6785.084 6087.022 Q 6788.969 6083.605 6790.979 6080.879 Q 6792.990 6078.153 6793.038 6075.153 Q 6792.864 6075.084 6792.494 6075.084 Q 6792.461 6074.943 6792.298 6076.363 Q 6792.134 6077.782 6792.171 6079.438 Q 6792.208 6081.092 6795.553 6082.000 Q 6798.898 6082.909 6800.970 6083.277 Q 6803.042 6083.645 6804.501 6084.513 Q 6805.959 6085.380 6805.970 6085.617 Q 6805.980 6085.854 6806.292 6086.255 Q 6806.604 6086.655 6805.770 6088.537 Q 6804.934 6090.420 6787.223 6104.920 Q 6787.334 6104.926 6788.553 6104.293 Q 6789.771 6103.661 6790.328 6103.218 "></path>
    <path id="STROKE_f97d1ead-169c-4362-9dbb-2d2be22f3680" opacity="1.000" fill="none" stroke="#f3ba38" stroke-width="4.420" stroke-opacity="1.000" stroke-linecap="round" stroke-linejoin="round" d="M 6187.714 6171.798 Q 6187.928 6172.132 6185.641 6171.472 Q 6183.354 6170.812 6181.129 6171.636 Q 6178.905 6172.460 6176.812 6174.528 Q 6174.718 6176.596 6173.273 6179.617 Q 6171.828 6182.639 6171.290 6185.381 Q 6170.752 6188.123 6170.831 6190.249 Q 6170.910 6192.374 6171.307 6193.371 Q 6171.704 6194.368 6172.113 6195.198 Q 6172.522 6196.029 6174.062 6197.738 Q 6175.603 6199.448 6177.908 6200.407 Q 6180.213 6201.366 6183.138 6201.555 Q 6186.063 6201.743 6188.397 6201.566 Q 6190.731 6201.389 6192.853 6199.960 Q 6194.975 6198.532 6196.874 6196.304 Q 6198.772 6194.075 6199.438 6190.800 Q 6200.105 6187.524 6200.000 6185.314 Q 6199.896 6183.104 6197.599 6180.029 Q 6195.302 6176.955 6192.045 6174.860 Q 6188.788 6172.766 6186.757 6172.162 Q 6184.727 6171.557 6182.933 6171.452 Q 6181.138 6171.346 6180.527 6172.657 Q 6179.916 6173.967 6180.728 6174.967 Q 6181.540 6175.966 6182.061 6176.366 "></path>
    <path id="STROKE_0def6cd1-e8ad-444a-b157-3b67fdec163a" opacity="1.000" fill="none" stroke="#f3ba38" stroke-width="4.420" stroke-opacity="1.000" stroke-linecap="round" stroke-linejoin="round" d="M 6203.537 6172.754 Q 6203.709 6172.710 6205.879 6172.237 Q 6208.048 6171.764 6210.770 6172.908 Q 6213.492 6174.052 6215.218 6175.548 Q 6216.944 6177.044 6217.769 6178.716 Q 6218.593 6180.388 6218.837 6182.503 Q 6219.081 6184.618 6217.788 6187.805 Q 6216.495 6190.991 6205.390 6196.025 L 6205.390 6196.060 Q 6205.375 6196.060 6206.413 6195.895 Q 6207.452 6195.729 6207.961 6195.400 "></path>
    <path id="STROKE_ad5ad1cd-6626-4930-9208-b87a61c2ea82" opacity="1.000" fill="none" stroke="#f3ba38" stroke-width="4.420" stroke-opacity="1.000" stroke-linecap="round" stroke-linejoin="round" d="M 6231.083 6173.796 Q 6230.355 6173.382 6229.514 6173.041 Q 6228.673 6172.700 6227.652 6173.185 Q 6226.632 6173.670 6225.585 6174.799 Q 6224.539 6175.927 6223.015 6178.016 Q 6221.491 6180.104 6220.701 6182.604 Q 6219.911 6185.105 6219.802 6187.348 Q 6219.692 6189.591 6220.100 6191.219 Q 6220.507 6192.846 6221.361 6193.916 Q 6222.215 6194.986 6225.814 6195.727 Q 6229.414 6196.468 6230.109 6196.650 "></path>
    <path id="STROKE_2912d656-6bd0-4dd6-a064-b29d754bd3df" opacity="1.000" fill="none" stroke="#f3ba38" stroke-width="4.420" stroke-opacity="1.000" stroke-linecap="round" stroke-linejoin="round" d="M 6259.108 6178.593 Q 6258.450 6177.465 6258.406 6177.501 Q 6257.567 6176.247 6255.911 6175.605 Q 6254.255 6174.964 6251.650 6177.342 Q 6249.046 6179.719 6246.445 6183.408 Q 6243.845 6187.097 6242.312 6190.337 Q 6240.780 6193.578 6240.370 6196.820 Q 6239.960 6200.062 6240.480 6201.806 Q 6241.001 6203.550 6243.636 6204.022 Q 6246.271 6204.495 6249.130 6202.935 Q 6251.989 6201.374 6254.672 6198.886 Q 6257.355 6196.397 6260.417 6192.582 Q 6263.479 6188.766 6265.848 6179.777 Q 6264.762 6178.671 6262.505 6181.992 Q 6260.247 6185.313 6259.481 6188.412 Q 6258.716 6191.510 6258.610 6192.385 Q 6258.505 6193.260 6258.576 6194.920 Q 6258.647 6196.581 6260.760 6196.625 Q 6262.874 6196.669 6263.354 6196.595 "></path>
    <path id="STROKE_12bb6693-4710-4906-94a0-fd9e8c3d3963" opacity="1.000" fill="none" stroke="#f3ba38" stroke-width="4.360" stroke-opacity="1.000" stroke-linecap="round" stroke-linejoin="round" d="M 6265.230 6190.545 Q 6265.259 6190.511 6263.609 6191.155 Q 6261.960 6191.800 6261.392 6192.498 Q 6260.824 6193.196 6260.545 6194.308 Q 6260.266 6195.419 6260.335 6195.520 Q 6260.405 6195.620 6260.388 6195.833 Q 6260.371 6196.046 6260.382 6196.047 Q 6260.393 6196.047 6260.301 6196.063 Q 6260.209 6196.080 6260.359 6196.660 Q 6260.509 6197.240 6260.729 6197.692 Q 6260.950 6198.146 6261.298 6198.321 Q 6261.646 6198.497 6262.081 6198.752 Q 6262.516 6199.007 6262.288 6198.833 Q 6262.060 6198.658 6263.241 6199.310 Q 6264.422 6199.961 6268.229 6197.944 Q 6272.035 6195.927 6274.093 6194.438 Q 6276.150 6192.949 6280.063 6189.941 Q 6283.978 6186.933 6288.236 6181.483 Q 6292.495 6176.033 6296.097 6170.643 Q 6299.700 6165.251 6301.291 6156.908 Q 6300.758 6157.728 6297.279 6162.269 Q 6293.800 6166.810 6290.800 6171.386 Q 6287.800 6175.961 6286.082 6179.704 Q 6284.365 6183.446 6283.622 6186.961 Q 6282.879 6190.477 6282.877 6192.467 Q 6282.875 6194.457 6282.899 6195.099 Q 6282.923 6195.741 6284.932 6197.406 Q 6286.940 6199.072 6291.746 6196.220 Q 6296.551 6193.367 6297.144 6192.969 "></path>
    <path id="STROKE_b60886b9-f5fa-443b-99e4-ba437d97652e" opacity="1.000" fill="none" stroke="#f3ba38" stroke-width="4.420" stroke-opacity="1.000" stroke-linecap="round" stroke-linejoin="round" d="M 6320.122 6178.999 Q 6320.187 6178.809 6319.892 6177.903 Q 6319.596 6176.997 6318.134 6175.991 Q 6316.672 6174.984 6314.826 6175.465 Q 6312.979 6175.946 6311.746 6176.843 Q 6310.512 6177.740 6308.031 6180.698 Q 6305.551 6183.656 6303.986 6186.860 Q 6302.421 6190.065 6301.976 6192.741 Q 6301.530 6195.418 6301.504 6197.095 Q 6301.478 6198.772 6303.574 6200.017 Q 6305.670 6201.261 6308.525 6200.497 Q 6311.381 6199.734 6314.562 6196.724 Q 6317.742 6193.714 6321.058 6189.083 Q 6324.374 6184.453 6325.207 6176.280 Q 6321.577 6174.543 6319.266 6180.671 Q 6316.954 6186.798 6315.834 6191.239 Q 6314.713 6195.680 6315.951 6199.657 Q 6318.070 6201.681 6323.088 6196.858 Q 6328.107 6192.035 6328.884 6191.248 "></path>
    <path id="STROKE_b94c11c9-d955-4162-8595-57fdd27f7a10" opacity="1.000" fill="none" stroke="#f3ba38" stroke-width="4.380" stroke-opacity="1.000" stroke-linecap="round" stroke-linejoin="round" d="M 6326.934 6195.097 Q 6327.625 6194.478 6325.694 6196.125 Q 6323.763 6197.773 6323.045 6198.974 Q 6322.328 6200.174 6322.319 6201.499 Q 6322.998 6202.529 6330.319 6196.929 Q 6337.641 6191.328 6342.044 6187.716 Q 6346.447 6184.103 6350.467 6179.834 Q 6354.487 6175.566 6356.581 6172.838 Q 6358.676 6170.109 6359.309 6169.047 Q 6359.941 6167.984 6360.255 6165.400 Q 6360.105 6165.316 6358.390 6165.185 Q 6356.674 6165.053 6354.342 6166.342 Q 6352.010 6167.632 6348.948 6170.085 Q 6345.886 6172.538 6343.572 6175.923 Q 6341.259 6179.308 6340.130 6183.694 Q 6339.001 6188.080 6339.209 6190.951 Q 6339.417 6193.821 6340.275 6196.193 Q 6341.133 6198.566 6343.261 6199.179 Q 6345.388 6199.792 6347.025 6199.839 Q 6348.662 6199.886 6350.588 6198.525 Q 6352.513 6197.165 6354.292 6194.794 Q 6356.071 6192.423 6356.503 6191.711 "></path>
    <path id="STROKE_a968964c-1ac0-4af0-967d-2778663390fc" opacity="1.000" fill="none" stroke="#f3ba38" stroke-width="4.420" stroke-opacity="1.000" stroke-linecap="round" stroke-linejoin="round" d="M 6335.646 6179.388 Q 6335.702 6180.396 6335.833 6180.249 Q 6335.799 6182.133 6351.871 6181.954 Q 6367.943 6181.775 6369.189 6181.498 "></path>
    <path id="STROKE_e8f94571-cf7b-4811-8145-0f10fbd549f0" opacity="1.000" fill="none" stroke="#f3ba38" stroke-width="4.420" stroke-opacity="1.000" stroke-linecap="round" stroke-linejoin="round" d="M 6373.508 6184.494 Q 6373.509 6184.495 6373.630 6184.407 Q 6373.751 6184.319 6380.083 6184.556 Q 6386.415 6184.793 6390.118 6184.565 Q 6393.821 6184.337 6395.679 6184.376 Q 6397.537 6184.414 6398.418 6182.755 Q 6399.299 6181.097 6399.280 6180.075 Q 6399.260 6179.054 6399.190 6177.072 Q 6399.121 6175.091 6396.613 6173.744 Q 6394.105 6172.396 6389.492 6172.011 Q 6384.878 6171.625 6381.549 6171.830 Q 6378.219 6172.036 6375.310 6173.447 Q 6372.399 6174.858 6370.304 6176.617 Q 6368.208 6178.376 6367.484 6181.677 Q 6366.759 6184.977 6366.859 6186.993 Q 6366.959 6189.010 6367.485 6190.688 Q 6368.011 6192.365 6369.044 6193.693 Q 6370.078 6195.022 6372.208 6196.168 Q 6374.337 6197.313 6378.346 6197.583 Q 6382.354 6197.852 6387.360 6196.178 Q 6392.366 6194.504 6393.575 6193.838 "></path>
    <path id="STROKE_edbf3cfa-0d03-41b3-8d19-b82652d878c1" opacity="1.000" fill="none" stroke="#f3ba38" stroke-width="4.248" stroke-opacity="1.000" stroke-linecap="round" stroke-linejoin="round" d="M 6421.638 6183.070 Q 6422.488 6181.728 6422.588 6182.173 Q 6422.905 6181.500 6430.896 6183.331 Q 6438.888 6185.161 6445.208 6186.202 Q 6451.527 6187.242 6452.391 6187.474 "></path>
    <path id="STROKE_e35fde67-5cda-45a5-a810-c26e8233b0ca" opacity="1.000" fill="none" stroke="#f3ba38" stroke-width="4.420" stroke-opacity="1.000" stroke-linecap="round" stroke-linejoin="round" d="M 6423.291 6197.613 Q 6423.188 6196.843 6436.414 6198.130 Q 6449.639 6199.417 6450.886 6199.648 "></path>
    <path id="STROKE_af0b3d4f-ff7a-4e89-afaf-f5dca2b235d4" opacity="1.000" fill="none" stroke="#f3ba38" stroke-width="4.420" stroke-opacity="1.000" stroke-linecap="round" stroke-linejoin="round" d="M 6712.856 5576.051 Q 6713.043 5577.021 6711.598 5572.554 Q 6712.133 5571.614 6716.720 5574.384 Q 6721.307 5577.153 6725.638 5581.900 Q 6729.969 5586.647 6732.237 5590.162 Q 6734.505 5593.677 6738.649 5602.527 Q 6739.099 5603.068 6737.738 5601.192 Q 6736.378 5599.317 6736.057 5598.845 "></path>
    <path id="STROKE_7cf32343-20f4-4b0c-be91-766e4241a5e3" opacity="1.000" fill="none" stroke="#f3ba38" stroke-width="4.420" stroke-opacity="1.000" stroke-linecap="round" stroke-linejoin="round" d="M 6737.932 5569.371 Q 6736.664 5569.161 6732.845 5573.458 Q 6729.026 5577.756 6725.623 5583.054 Q 6722.220 5588.352 6719.949 5591.292 Q 6717.679 5594.233 6718.027 5597.855 Q 6718.179 5597.959 6718.831 5598.023 Q 6719.483 5598.087 6719.841 5598.124 "></path>
    <path id="STROKE_bcfb2692-a20a-4a05-ab9c-4343c6b4ba68" opacity="1.000" fill="none" stroke="#f3ba38" stroke-width="4.374" stroke-opacity="1.000" stroke-linecap="round" stroke-linejoin="round" d="M 6502.791 6181.275 Q 6502.667 6181.495 6503.451 6180.327 Q 6504.235 6179.160 6505.197 6178.025 Q 6506.159 6176.891 6506.333 6174.087 Q 6506.646 6174.065 6504.587 6173.586 Q 6502.527 6173.107 6500.192 6173.708 Q 6497.857 6174.310 6495.080 6176.439 Q 6492.302 6178.570 6489.521 6182.374 Q 6486.740 6186.177 6485.146 6189.535 Q 6483.551 6192.893 6483.272 6196.302 Q 6482.993 6199.712 6483.796 6202.556 Q 6484.599 6205.400 6489.098 6207.961 Q 6493.598 6210.523 6498.472 6211.515 Q 6503.347 6212.507 6504.371 6212.785 "></path>
    <path id="STROKE_df7e1b4e-996b-4b08-bfb5-7dd2dc59f8c5" opacity="1.000" fill="none" stroke="#f3ba38" stroke-width="4.326" stroke-opacity="1.000" stroke-linecap="round" stroke-linejoin="round" d="M 6525.547 6204.533 Q 6526.208 6203.501 6526.251 6203.543 Q 6526.683 6202.717 6528.108 6201.661 Q 6529.533 6200.605 6531.420 6200.706 Q 6533.306 6200.807 6534.986 6201.021 Q 6536.667 6201.235 6538.228 6202.876 Q 6539.790 6204.517 6540.422 6209.062 Q 6541.054 6213.607 6540.504 6219.003 Q 6539.955 6224.398 6538.428 6229.539 Q 6536.901 6234.679 6535.625 6237.645 Q 6534.349 6240.611 6532.772 6242.113 Q 6531.196 6243.615 6529.630 6243.993 Q 6528.063 6244.371 6526.517 6243.327 Q 6524.971 6242.284 6524.421 6239.021 Q 6523.872 6235.759 6524.515 6232.957 Q 6525.158 6230.154 6525.497 6228.750 Q 6525.835 6227.346 6527.213 6226.768 Q 6528.590 6226.189 6532.760 6227.709 Q 6536.930 6229.229 6539.600 6230.706 Q 6542.269 6232.183 6543.658 6233.566 Q 6545.047 6234.950 6545.546 6235.700 Q 6546.045 6236.450 6546.786 6236.713 Q 6547.526 6236.976 6547.958 6237.134 "></path>
    <path id="STROKE_48b1eed2-238c-403b-b96b-6bd2670b36ae" opacity="1.000" fill="none" stroke="#f3ba38" stroke-width="4.420" stroke-opacity="1.000" stroke-linecap="round" stroke-linejoin="round" d="M 6578.390 6176.798 Q 6578.845 6176.824 6576.819 6175.836 Q 6574.793 6174.848 6573.140 6174.875 Q 6571.487 6174.903 6570.191 6175.212 Q 6568.896 6175.521 6566.663 6177.185 Q 6564.430 6178.849 6562.379 6181.641 Q 6560.328 6184.433 6559.364 6187.768 Q 6558.400 6191.103 6558.454 6193.350 Q 6558.507 6195.596 6558.667 6197.083 Q 6558.827 6198.569 6559.505 6200.311 Q 6560.183 6202.053 6561.785 6203.812 Q 6563.386 6205.570 6566.046 6206.562 Q 6568.706 6207.554 6572.765 6207.941 Q 6576.823 6208.328 6579.868 6207.923 Q 6582.912 6207.517 6585.296 6206.067 Q 6587.680 6204.618 6589.954 6201.648 Q 6592.229 6198.679 6593.354 6195.980 Q 6594.479 6193.281 6594.772 6190.385 Q 6595.065 6187.488 6593.872 6184.303 Q 6592.679 6181.118 6590.324 6178.413 Q 6587.969 6175.708 6585.734 6174.387 Q 6583.500 6173.066 6581.298 6172.726 Q 6579.095 6172.385 6577.353 6173.016 Q 6575.609 6173.646 6574.643 6175.023 Q 6573.677 6176.400 6573.356 6176.946 "></path>
    <path id="STROKE_157cbdcd-da6e-4274-8707-5ef9972469c2" opacity="1.000" fill="none" stroke="#f3ba38" stroke-width="4.420" stroke-opacity="1.000" stroke-linecap="round" stroke-linejoin="round" d="M 6602.134 6208.381 Q 6599.406 6208.477 6598.400 6212.869 Q 6597.395 6217.261 6597.413 6219.606 Q 6597.432 6221.952 6597.851 6224.388 Q 6598.270 6226.824 6600.348 6228.391 Q 6602.425 6229.958 6610.752 6227.847 Q 6619.079 6225.736 6619.708 6225.422 "></path>
    <path id="STROKE_7b797b70-fa53-4f99-b09c-e4488997d84d" opacity="1.000" fill="none" stroke="#f3ba38" stroke-width="4.420" stroke-opacity="1.000" stroke-linecap="round" stroke-linejoin="round" d="M 6624.644 6209.787 Q 6622.748 6210.088 6622.012 6219.121 Q 6621.275 6228.154 6620.582 6234.849 Q 6619.888 6241.543 6619.165 6249.234 Q 6619.409 6248.539 6619.731 6247.707 Q 6620.054 6246.875 6620.325 6246.163 "></path>
    <path id="STROKE_7034771f-89d1-40e2-8a07-3f1dd5fb9db4" opacity="1.000" fill="none" stroke="#f3ba38" stroke-width="4.420" stroke-opacity="1.000" stroke-linecap="round" stroke-linejoin="round" d="M 6607.934 6164.697 Q 6607.741 6164.915 6607.007 6163.874 Q 6606.273 6162.833 6605.462 6161.879 Q 6604.650 6160.926 6606.674 6159.452 Q 6608.698 6157.979 6609.906 6157.453 Q 6611.114 6156.927 6613.302 6156.667 Q 6615.491 6156.407 6617.171 6156.953 Q 6618.851 6157.499 6620.082 6160.073 Q 6621.314 6162.647 6621.497 6166.822 Q 6621.680 6170.997 6620.000 6174.929 Q 6618.319 6178.861 6616.738 6181.164 Q 6615.157 6183.467 6613.894 6184.451 Q 6612.631 6185.435 6611.314 6185.816 Q 6609.998 6186.198 6609.028 6185.655 Q 6608.058 6185.113 6607.674 6182.078 Q 6607.289 6179.043 6607.487 6176.845 Q 6607.685 6174.646 6608.839 6173.241 Q 6609.993 6171.837 6610.681 6171.188 Q 6611.369 6170.538 6611.961 6170.418 Q 6612.553 6170.299 6613.517 6170.232 Q 6614.480 6170.165 6614.929 6170.059 Q 6615.378 6169.953 6617.037 6172.047 Q 6618.695 6174.140 6620.153 6175.591 Q 6621.612 6177.041 6622.751 6177.369 Q 6623.890 6177.698 6624.513 6177.600 Q 6625.136 6177.501 6625.359 6177.626 Q 6625.583 6177.750 6626.132 6177.450 Q 6626.681 6177.149 6626.989 6176.798 "></path>
    <path id="STROKE_3e25ce3d-7e04-4eab-9dcb-c91938d9ab4e" opacity="1.000" fill="none" stroke="#f3ba38" stroke-width="4.420" stroke-opacity="1.000" stroke-linecap="round" stroke-linejoin="round" d="M 6636.639 6166.899 Q 6636.945 6167.318 6645.616 6166.729 Q 6654.287 6166.141 6655.694 6165.789 "></path>
  </g>
</svg>