<?xml version="1.0" encoding="UTF-8" standalone="yes"?>
<svg xmlns="http://www.w3.org/2000/svg" xmlns:xlink="http://www.w3.org/1999/xlink" width="1046.288pt" height="421.582pt" version="1.1" viewBox="7491.851 1454.198 1046.288 421.582">
  <!--
	Exported with Concepts: Smarter Sketching
	Version: 1059 on iOS 15.4
	https://concepts.app/
	-->
  <title>Untitled</title>
  <desc>Drawing exported from Concepts: Smarter Sketching</desc>
  <defs></defs>
  <g id="Background" opacity="1.000">
    <path id="STROKE_c6fd0276-0300-401e-878e-7b4963829f80" opacity="1.000" fill="none" stroke="#6ac0c8" stroke-width="6.970" stroke-opacity="1.000" stroke-linecap="round" stroke-linejoin="round" d="M 7542.835 1478.759 Q 7542.305 1478.782 7540.955 1477.650 Q 7539.604 1476.518 7537.234 1475.504 Q 7534.864 1474.489 7531.526 1476.462 Q 7528.188 1478.434 7524.776 1482.154 Q 7521.364 1485.875 7518.406 1489.853 Q 7515.448 1493.832 7514.000 1499.177 Q 7512.553 1504.522 7512.667 1515.348 Q 7512.782 1526.173 7513.262 1532.232 Q 7513.741 1538.291 7514.693 1541.885 Q 7515.645 1545.480 7517.251 1547.411 Q 7518.857 1549.343 7522.415 1550.314 Q 7525.973 1551.286 7531.519 1549.710 Q 7537.065 1548.133 7544.584 1543.125 Q 7552.103 1538.118 7557.385 1533.519 Q 7562.668 1528.920 7566.588 1524.410 Q 7570.508 1519.901 7572.020 1517.520 Q 7573.531 1515.138 7574.353 1512.189 Q 7575.174 1509.240 7575.169 1505.035 Q 7575.164 1500.830 7574.523 1498.809 Q 7573.883 1496.787 7571.454 1492.680 Q 7569.024 1488.573 7566.563 1486.028 Q 7564.102 1483.483 7562.087 1481.835 Q 7560.073 1480.188 7556.054 1478.745 Q 7552.034 1477.302 7546.341 1477.042 Q 7540.647 1476.783 7537.448 1476.852 Q 7534.249 1476.922 7533.104 1477.643 Q 7531.960 1478.364 7531.599 1478.507 "></path>
    <path id="STROKE_4c02a125-4a89-495f-a146-cf4ae3769d99" opacity="1.000" fill="none" stroke="#6ac0c8" stroke-width="6.970" stroke-opacity="1.000" stroke-linecap="round" stroke-linejoin="round" d="M 7650.009 1481.857 Q 7649.594 1482.059 7647.019 1480.508 Q 7644.443 1478.957 7642.688 1477.257 Q 7640.932 1475.558 7638.813 1475.152 Q 7636.695 1474.747 7634.599 1475.092 Q 7632.502 1475.438 7630.275 1476.458 Q 7628.049 1477.478 7624.825 1481.315 Q 7621.601 1485.151 7619.833 1487.809 Q 7618.065 1490.468 7616.455 1494.896 Q 7614.844 1499.325 7613.814 1505.335 Q 7612.784 1511.345 7612.738 1517.550 Q 7612.692 1523.756 7612.953 1527.443 Q 7613.214 1531.130 7615.783 1535.131 Q 7618.353 1539.132 7621.401 1541.843 Q 7624.449 1544.555 7629.692 1545.991 Q 7634.935 1547.427 7640.204 1547.387 Q 7645.474 1547.347 7653.643 1544.205 Q 7661.812 1541.062 7668.815 1536.334 Q 7675.817 1531.606 7679.766 1527.777 Q 7683.714 1523.948 7685.620 1521.295 Q 7687.526 1518.642 7688.200 1515.578 Q 7688.874 1512.513 7689.073 1510.346 Q 7689.272 1508.180 7685.811 1504.472 Q 7682.350 1500.763 7676.337 1493.174 Q 7670.325 1485.585 7667.079 1481.126 Q 7663.833 1476.668 7661.262 1474.751 Q 7658.690 1472.835 7655.289 1472.443 Q 7651.888 1472.050 7646.388 1473.297 Q 7640.888 1474.544 7637.444 1477.513 Q 7634.001 1480.482 7633.475 1480.734 "></path>
    <path id="STROKE_137d054e-1da8-498e-9e75-d6297e8cb5ae" opacity="1.000" fill="none" stroke="#6ac0c8" stroke-width="6.970" stroke-opacity="1.000" stroke-linecap="round" stroke-linejoin="round" d="M 7758.877 1483.108 Q 7758.631 1482.766 7757.947 1480.430 Q 7757.264 1478.094 7754.659 1475.953 Q 7752.054 1473.812 7751.001 1473.286 Q 7749.949 1472.761 7747.315 1472.365 Q 7744.682 1471.969 7742.171 1472.681 Q 7739.660 1473.394 7737.733 1475.651 Q 7735.807 1477.908 7734.268 1480.356 Q 7732.729 1482.805 7730.456 1488.596 Q 7728.184 1494.387 7726.581 1499.704 Q 7724.979 1505.020 7724.397 1513.894 Q 7723.816 1522.768 7723.562 1527.624 Q 7723.309 1532.480 7724.520 1537.507 Q 7725.730 1542.534 7727.145 1545.677 Q 7728.560 1548.821 7730.319 1551.129 Q 7732.078 1553.438 7734.596 1554.922 Q 7737.114 1556.406 7740.757 1556.672 Q 7744.400 1556.938 7746.319 1556.562 Q 7748.238 1556.186 7749.517 1556.021 Q 7750.795 1555.856 7757.343 1552.122 Q 7763.891 1548.388 7769.373 1544.047 Q 7774.855 1539.707 7777.895 1536.265 Q 7780.934 1532.823 7783.129 1530.101 Q 7785.325 1527.380 7786.255 1523.370 Q 7787.186 1519.361 7787.820 1515.396 Q 7788.454 1511.432 7780.814 1502.666 Q 7773.174 1493.901 7769.143 1489.191 Q 7765.112 1484.480 7763.053 1482.626 Q 7760.994 1480.772 7759.419 1479.859 Q 7757.845 1478.946 7755.828 1478.708 Q 7753.812 1478.470 7750.475 1478.892 Q 7747.138 1479.313 7745.125 1483.441 Q 7743.113 1487.569 7742.895 1488.033 "></path>
    <path id="STROKE_de3e9e8b-a036-4b77-a603-18a74851430e" opacity="1.000" fill="none" stroke="#6ac0c8" stroke-width="6.966" stroke-opacity="1.000" stroke-linecap="round" stroke-linejoin="round" d="M 7856.552 1480.275 Q 7855.201 1478.364 7853.602 1476.467 Q 7852.002 1474.569 7848.405 1473.679 Q 7844.809 1472.789 7841.604 1473.451 Q 7838.399 1474.114 7836.338 1475.468 Q 7834.277 1476.821 7831.177 1479.946 Q 7828.077 1483.071 7825.977 1489.965 Q 7823.876 1496.860 7822.845 1501.490 Q 7821.814 1506.120 7821.015 1515.197 Q 7820.215 1524.275 7820.119 1529.067 Q 7820.023 1533.860 7820.642 1537.117 Q 7821.260 1540.374 7822.993 1542.910 Q 7824.727 1545.445 7827.878 1547.220 Q 7831.029 1548.995 7837.620 1549.635 Q 7844.211 1550.276 7850.234 1549.423 Q 7856.258 1548.570 7860.850 1547.065 Q 7865.442 1545.560 7870.070 1541.691 Q 7874.698 1537.822 7876.780 1534.998 Q 7878.862 1532.174 7880.275 1530.182 Q 7881.688 1528.190 7882.985 1525.274 Q 7884.282 1522.359 7884.393 1517.320 Q 7884.503 1512.281 7884.473 1509.493 Q 7884.443 1506.706 7880.360 1501.077 Q 7876.277 1495.448 7872.593 1491.442 Q 7868.909 1487.435 7864.812 1484.027 Q 7860.715 1480.618 7857.080 1478.784 Q 7853.445 1476.949 7850.107 1476.321 Q 7846.770 1475.692 7841.959 1478.886 Q 7837.149 1482.079 7836.306 1482.843 "></path>
    <path id="STROKE_00f9efd2-4831-4d87-a26d-c2f3f2f256fb" opacity="1.000" fill="none" stroke="#6ac0c8" stroke-width="6.970" stroke-opacity="1.000" stroke-linecap="round" stroke-linejoin="round" d="M 7547.163 1581.014 Q 7546.475 1579.755 7543.762 1577.078 Q 7541.049 1574.401 7538.524 1573.277 Q 7536.000 1572.154 7534.312 1572.131 Q 7532.624 1572.107 7531.777 1571.721 Q 7530.931 1571.335 7526.688 1575.761 Q 7522.446 1580.188 7520.019 1584.785 Q 7517.592 1589.383 7516.411 1591.588 Q 7515.230 1593.793 7513.509 1599.382 Q 7511.788 1604.972 7511.373 1610.757 Q 7510.958 1616.543 7512.251 1621.333 Q 7513.544 1626.122 7515.962 1630.595 Q 7518.381 1635.069 7521.144 1638.100 Q 7523.906 1641.132 7527.726 1642.852 Q 7531.545 1644.572 7535.123 1644.909 Q 7538.700 1645.246 7543.414 1642.429 Q 7548.128 1639.612 7551.916 1636.024 Q 7555.704 1632.436 7559.146 1627.468 Q 7562.588 1622.500 7564.433 1619.224 Q 7566.277 1615.947 7568.121 1612.113 Q 7569.964 1608.279 7570.810 1602.938 Q 7571.656 1597.598 7571.328 1594.018 Q 7571.000 1590.437 7569.883 1587.778 Q 7568.766 1585.118 7564.503 1581.970 Q 7560.241 1578.823 7555.610 1577.341 Q 7550.979 1575.860 7547.029 1574.934 Q 7543.078 1574.008 7539.179 1573.637 Q 7535.279 1573.266 7532.440 1573.820 Q 7529.601 1574.375 7527.924 1576.537 Q 7526.247 1578.699 7526.753 1581.228 Q 7527.260 1583.757 7527.660 1584.548 "></path>
    <path id="STROKE_0aaff5b6-1a26-4b2d-bde2-50ff6122f22c" opacity="1.000" fill="none" stroke="#6ac0c8" stroke-width="6.970" stroke-opacity="1.000" stroke-linecap="round" stroke-linejoin="round" d="M 7648.183 1578.121 Q 7648.183 1578.121 7648.125 1578.120 Q 7648.068 1578.118 7648.303 1578.129 Q 7648.537 1578.140 7647.556 1578.101 Q 7646.575 1578.063 7641.845 1578.413 Q 7637.115 1578.762 7633.721 1579.017 Q 7630.327 1579.272 7626.061 1581.418 Q 7621.795 1583.565 7618.017 1588.505 Q 7614.239 1593.445 7612.162 1597.552 Q 7610.085 1601.658 7608.982 1608.130 Q 7607.879 1614.601 7607.592 1618.322 Q 7607.306 1622.042 7608.312 1626.227 Q 7609.317 1630.412 7611.857 1635.261 Q 7614.396 1640.111 7616.890 1643.828 Q 7619.384 1647.545 7623.610 1649.818 Q 7627.837 1652.091 7632.703 1652.768 Q 7637.569 1653.445 7644.608 1651.639 Q 7651.646 1649.832 7658.003 1646.438 Q 7664.359 1643.043 7669.157 1638.507 Q 7673.955 1633.970 7676.992 1630.746 Q 7680.029 1627.522 7681.239 1621.906 Q 7682.449 1616.290 7681.954 1611.170 Q 7681.458 1606.050 7678.572 1600.623 Q 7675.686 1595.196 7670.579 1590.838 Q 7665.472 1586.480 7661.377 1584.232 Q 7657.283 1581.984 7653.177 1580.735 Q 7649.070 1579.486 7644.828 1579.115 Q 7640.586 1578.745 7637.176 1578.279 Q 7633.766 1577.813 7633.203 1581.212 Q 7632.641 1584.611 7632.473 1585.138 "></path>
    <path id="STROKE_c9295cdd-7c67-4c85-856b-060fbc9a6822" opacity="1.000" fill="none" stroke="#6ac0c8" stroke-width="6.970" stroke-opacity="1.000" stroke-linecap="round" stroke-linejoin="round" d="M 7761.443 1584.728 Q 7761.112 1584.481 7754.780 1583.145 Q 7748.447 1581.809 7743.480 1581.911 Q 7738.513 1582.014 7735.461 1582.737 Q 7732.410 1583.460 7729.341 1585.435 Q 7726.271 1587.410 7723.621 1592.440 Q 7720.970 1597.470 7719.624 1605.123 Q 7718.277 1612.776 7718.043 1618.081 Q 7717.809 1623.386 7717.724 1628.660 Q 7717.640 1633.934 7719.118 1638.705 Q 7720.597 1643.475 7723.135 1647.820 Q 7725.674 1652.166 7729.676 1654.057 Q 7733.679 1655.949 7739.042 1656.199 Q 7744.404 1656.448 7747.285 1656.127 Q 7750.166 1655.805 7752.986 1654.696 Q 7755.806 1653.586 7761.687 1649.552 Q 7767.567 1645.517 7772.392 1640.612 Q 7777.216 1635.707 7779.968 1630.424 Q 7782.721 1625.140 7783.728 1620.747 Q 7784.735 1616.354 7784.427 1612.465 Q 7784.118 1608.577 7782.434 1604.953 Q 7780.750 1601.329 7775.018 1596.895 Q 7769.286 1592.461 7763.704 1588.859 Q 7758.122 1585.258 7753.888 1583.479 Q 7749.654 1581.701 7746.571 1581.564 Q 7743.487 1581.426 7741.542 1581.807 Q 7739.597 1582.188 7738.866 1582.993 Q 7738.136 1583.799 7737.329 1586.497 Q 7736.522 1589.194 7736.086 1590.184 "></path>
    <path id="STROKE_1451191a-96f4-43f5-967b-3e7a385dd00b" opacity="1.000" fill="none" stroke="#6ac0c8" stroke-width="6.970" stroke-opacity="1.000" stroke-linecap="round" stroke-linejoin="round" d="M 7862.541 1583.482 Q 7863.392 1583.897 7861.291 1580.980 Q 7859.189 1578.064 7857.656 1576.487 Q 7856.123 1574.909 7854.928 1574.198 Q 7853.733 1573.486 7852.691 1573.079 Q 7851.648 1572.672 7848.571 1572.086 Q 7845.493 1571.501 7841.292 1572.985 Q 7837.091 1574.469 7832.946 1578.205 Q 7828.802 1581.940 7825.833 1586.017 Q 7822.865 1590.094 7820.758 1596.234 Q 7818.650 1602.373 7817.899 1608.746 Q 7817.148 1615.119 7818.091 1621.037 Q 7819.033 1626.954 7821.394 1631.457 Q 7823.755 1635.960 7828.100 1639.970 Q 7832.445 1643.980 7836.945 1646.057 Q 7841.444 1648.134 7846.365 1648.613 Q 7851.286 1649.091 7855.753 1648.206 Q 7860.221 1647.322 7863.870 1644.694 Q 7867.520 1642.066 7870.518 1639.808 Q 7873.517 1637.551 7877.062 1633.059 Q 7880.606 1628.566 7882.056 1626.153 Q 7883.506 1623.740 7884.478 1618.760 Q 7885.449 1613.780 7885.431 1608.736 Q 7885.413 1603.691 7883.280 1599.930 Q 7881.147 1596.169 7876.746 1591.461 Q 7872.345 1586.753 7868.340 1583.807 Q 7864.335 1580.861 7860.271 1578.479 Q 7856.206 1576.097 7853.568 1575.173 Q 7850.931 1574.249 7847.687 1573.914 Q 7844.443 1573.580 7842.925 1576.408 Q 7841.406 1579.236 7841.022 1579.919 "></path>
    <path id="STROKE_6a153c7c-2d08-434a-a2da-53fab3f447e9" opacity="1.000" fill="none" stroke="#ff9adf" stroke-width="6.800" stroke-opacity="1.000" stroke-linecap="round" stroke-linejoin="round" d="M 7553.981 1686.342 Q 7551.656 1685.142 7552.225 1685.278 Q 7550.631 1684.213 7550.652 1684.312 Q 7550.674 1684.412 7551.086 1684.425 Q 7551.499 1684.437 7548.324 1683.584 Q 7545.148 1682.731 7541.744 1682.184 Q 7538.339 1681.637 7535.780 1682.287 Q 7533.221 1682.938 7530.192 1684.813 Q 7527.163 1686.689 7523.319 1690.819 Q 7519.475 1694.949 7516.305 1700.261 Q 7513.136 1705.573 7510.787 1711.647 Q 7508.438 1717.721 7507.791 1721.957 Q 7507.145 1726.193 7506.848 1729.703 Q 7506.552 1733.213 7509.670 1737.472 Q 7512.789 1741.730 7515.292 1744.013 Q 7517.795 1746.296 7520.935 1748.713 Q 7524.074 1751.131 7528.961 1752.454 Q 7533.848 1753.778 7538.627 1753.717 Q 7543.406 1753.657 7547.478 1751.337 Q 7551.550 1749.018 7553.911 1747.762 Q 7556.271 1746.506 7559.503 1738.141 Q 7562.735 1729.777 7564.189 1723.805 Q 7565.643 1717.833 7566.742 1714.758 Q 7567.841 1711.682 7565.581 1707.844 Q 7563.320 1704.005 7561.263 1701.166 Q 7559.206 1698.326 7557.328 1695.297 Q 7555.450 1692.269 7553.187 1689.788 Q 7550.924 1687.307 7549.075 1686.317 Q 7547.226 1685.327 7545.624 1684.869 Q 7544.021 1684.411 7542.788 1685.017 Q 7541.555 1685.622 7541.074 1686.096 "></path>
    <path id="STROKE_0d6a63ad-1f72-4636-9bf5-bbf485a53f8f" opacity="1.000" fill="none" stroke="#ff9adf" stroke-width="6.800" stroke-opacity="1.000" stroke-linecap="round" stroke-linejoin="round" d="M 7656.825 1695.654 Q 7656.261 1695.361 7654.798 1692.453 Q 7653.335 1689.545 7649.228 1688.011 Q 7645.121 1686.477 7641.390 1686.433 Q 7637.659 1686.388 7635.421 1687.082 Q 7633.184 1687.776 7631.641 1688.524 Q 7630.099 1689.272 7626.518 1691.969 Q 7622.938 1694.665 7620.081 1699.090 Q 7617.224 1703.516 7616.058 1706.096 Q 7614.893 1708.677 7613.748 1711.862 Q 7612.603 1715.047 7612.353 1720.993 Q 7612.104 1726.939 7612.940 1731.359 Q 7613.777 1735.778 7616.317 1740.952 Q 7618.856 1746.126 7621.265 1749.903 Q 7623.674 1753.679 7628.612 1755.665 Q 7633.550 1757.650 7638.377 1758.419 Q 7643.205 1759.189 7650.089 1756.760 Q 7656.973 1754.330 7660.660 1752.571 Q 7664.348 1750.811 7666.802 1749.202 Q 7669.257 1747.593 7672.239 1745.295 Q 7675.222 1742.997 7678.592 1739.717 Q 7681.962 1736.437 7683.309 1733.290 Q 7684.655 1730.143 7685.391 1727.208 Q 7686.126 1724.273 7682.272 1717.127 Q 7678.418 1709.981 7676.168 1705.228 Q 7673.918 1700.476 7672.572 1697.563 Q 7671.226 1694.651 7668.973 1691.014 Q 7666.721 1687.376 7664.429 1685.177 Q 7662.137 1682.977 7658.644 1682.347 Q 7655.150 1681.718 7651.409 1682.549 Q 7647.667 1683.380 7644.422 1686.062 Q 7641.178 1688.744 7640.646 1689.303 "></path>
    <path id="STROKE_94bf46c2-aa1d-4b58-bb06-f79d6fa4d330" opacity="1.000" fill="none" stroke="#ff9adf" stroke-width="6.800" stroke-opacity="1.000" stroke-linecap="round" stroke-linejoin="round" d="M 7759.930 1690.894 Q 7759.940 1690.038 7758.573 1688.738 Q 7757.205 1687.438 7752.280 1685.393 Q 7747.354 1683.349 7743.312 1682.394 Q 7739.271 1681.439 7736.724 1681.543 Q 7734.177 1681.647 7731.304 1683.433 Q 7728.431 1685.218 7724.637 1690.713 Q 7720.843 1696.208 7718.253 1702.239 Q 7715.663 1708.270 7714.687 1713.984 Q 7713.711 1719.699 7713.662 1725.156 Q 7713.613 1730.612 7715.997 1736.812 Q 7718.380 1743.012 7720.625 1747.139 Q 7722.869 1751.266 7726.948 1754.109 Q 7731.026 1756.952 7735.612 1758.418 Q 7740.197 1759.885 7745.135 1759.782 Q 7750.073 1759.679 7755.012 1757.730 Q 7759.950 1755.782 7764.379 1752.281 Q 7768.809 1748.779 7771.195 1745.882 Q 7773.581 1742.985 7776.393 1738.552 Q 7779.205 1734.119 7780.508 1729.067 Q 7781.812 1724.015 7781.899 1720.207 Q 7781.986 1716.399 7781.741 1714.069 Q 7781.496 1711.740 7780.707 1709.762 Q 7779.917 1707.783 7776.927 1703.749 Q 7773.937 1699.715 7766.761 1694.968 Q 7759.586 1690.220 7752.604 1687.151 Q 7745.621 1684.083 7735.747 1683.886 Q 7735.544 1684.584 7735.505 1685.038 Q 7735.467 1685.492 7735.409 1686.118 "></path>
    <path id="STROKE_eac7cf13-3c0c-4d1b-8071-fcb0dbe55b48" opacity="1.000" fill="none" stroke="#ff9adf" stroke-width="6.800" stroke-opacity="1.000" stroke-linecap="round" stroke-linejoin="round" d="M 7858.624 1687.754 Q 7859.276 1687.798 7858.612 1685.726 Q 7857.947 1683.654 7857.396 1683.168 Q 7856.845 1682.683 7855.702 1681.988 Q 7854.559 1681.294 7848.972 1680.423 Q 7843.386 1679.552 7839.967 1679.688 Q 7836.548 1679.824 7833.550 1680.459 Q 7830.552 1681.094 7826.664 1684.227 Q 7822.775 1687.360 7819.285 1693.094 Q 7815.795 1698.829 7814.145 1703.197 Q 7812.495 1707.566 7811.612 1713.361 Q 7810.729 1719.155 7811.606 1725.584 Q 7812.484 1732.013 7815.253 1737.436 Q 7818.021 1742.858 7821.880 1746.950 Q 7825.738 1751.041 7829.424 1753.045 Q 7833.109 1755.049 7838.586 1755.802 Q 7844.063 1756.556 7848.518 1756.562 Q 7852.972 1756.568 7858.314 1754.083 Q 7863.657 1751.599 7865.739 1750.295 Q 7867.820 1748.990 7871.806 1745.506 Q 7875.791 1742.021 7877.454 1735.376 Q 7879.117 1728.731 7879.077 1724.921 Q 7879.036 1721.111 7879.392 1718.685 Q 7879.748 1716.259 7878.002 1711.348 Q 7876.256 1706.437 7872.676 1701.471 Q 7869.097 1696.505 7865.546 1693.135 Q 7861.996 1689.766 7859.553 1687.923 Q 7857.109 1686.080 7853.734 1685.053 Q 7850.359 1684.025 7847.173 1683.650 Q 7843.987 1683.275 7840.394 1686.273 Q 7836.801 1689.272 7835.689 1690.414 "></path>
    <path id="STROKE_ab6ad719-9c52-4623-8a70-9c5037e631b3" opacity="1.000" fill="none" stroke="#ff9adf" stroke-width="6.800" stroke-opacity="1.000" stroke-linecap="round" stroke-linejoin="round" d="M 7551.688 1794.686 Q 7551.878 1793.967 7551.624 1792.587 Q 7551.369 1791.207 7551.335 1790.682 Q 7551.301 1790.158 7550.363 1788.061 Q 7549.425 1785.965 7548.750 1784.796 Q 7548.075 1783.628 7547.619 1782.995 Q 7547.163 1782.363 7546.825 1781.899 Q 7546.486 1781.436 7545.737 1780.672 Q 7544.987 1779.907 7545.139 1779.875 Q 7545.291 1779.841 7542.103 1778.320 Q 7538.915 1776.799 7534.603 1777.409 Q 7530.290 1778.018 7526.178 1780.515 Q 7522.066 1783.013 7518.598 1786.488 Q 7515.129 1789.962 7513.073 1794.048 Q 7511.017 1798.133 7509.506 1807.782 Q 7507.995 1817.432 7507.578 1823.315 Q 7507.161 1829.199 7507.286 1832.098 Q 7507.411 1834.996 7507.549 1836.691 Q 7507.688 1838.385 7511.217 1841.695 Q 7514.746 1845.005 7521.558 1846.445 Q 7528.369 1847.886 7533.236 1847.956 Q 7538.103 1848.026 7543.418 1847.206 Q 7548.733 1846.385 7553.357 1844.154 Q 7557.981 1841.923 7561.448 1839.038 Q 7564.914 1836.153 7567.279 1831.777 Q 7569.645 1827.402 7570.273 1822.638 Q 7570.901 1817.875 7570.874 1813.679 Q 7570.846 1809.482 7566.711 1802.144 Q 7562.577 1794.806 7558.664 1789.867 Q 7554.750 1784.928 7551.411 1782.109 Q 7548.071 1779.289 7545.113 1777.742 Q 7542.155 1776.196 7538.669 1775.994 Q 7535.183 1775.792 7532.867 1776.821 Q 7530.552 1777.851 7529.594 1778.466 "></path>
    <path id="STROKE_694ba934-9d9a-486a-94cf-c7dd5677902b" opacity="1.000" fill="none" stroke="#ff9adf" stroke-width="6.800" stroke-opacity="1.000" stroke-linecap="round" stroke-linejoin="round" d="M 7655.717 1783.575 Q 7656.371 1782.998 7654.271 1781.630 Q 7652.172 1780.263 7650.532 1779.845 Q 7648.893 1779.426 7647.129 1779.301 Q 7645.366 1779.177 7642.505 1779.361 Q 7639.645 1779.545 7635.203 1782.462 Q 7630.761 1785.380 7626.967 1791.026 Q 7623.174 1796.673 7621.312 1802.285 Q 7619.450 1807.897 7618.664 1814.002 Q 7617.878 1820.106 7618.162 1826.467 Q 7618.445 1832.827 7620.445 1838.190 Q 7622.444 1843.553 7624.124 1846.354 Q 7625.803 1849.155 7628.710 1851.489 Q 7631.617 1853.822 7635.991 1854.853 Q 7640.365 1855.884 7646.272 1854.234 Q 7652.179 1852.583 7658.327 1848.042 Q 7664.476 1843.500 7667.942 1840.075 Q 7671.408 1836.651 7674.757 1832.556 Q 7678.105 1828.461 7680.476 1823.296 Q 7682.847 1818.131 7683.140 1814.175 Q 7683.433 1810.218 7683.335 1808.105 Q 7683.237 1805.991 7680.396 1802.285 Q 7677.554 1798.578 7671.354 1795.750 Q 7665.153 1792.923 7658.923 1791.036 Q 7652.693 1789.150 7648.855 1787.585 Q 7645.018 1786.020 7638.852 1787.029 Q 7638.581 1787.800 7638.395 1788.319 Q 7638.209 1788.839 7637.956 1789.413 "></path>
    <path id="STROKE_4d5fd948-653c-458c-915d-dacb5abe41f6" opacity="1.000" fill="none" stroke="#ff9adf" stroke-width="6.800" stroke-opacity="1.000" stroke-linecap="round" stroke-linejoin="round" d="M 7760.843 1791.046 Q 7761.541 1791.602 7760.746 1782.325 Q 7760.050 1781.535 7754.852 1781.023 Q 7749.653 1780.510 7746.006 1780.797 Q 7742.359 1781.084 7738.915 1782.244 Q 7735.471 1783.404 7731.982 1786.816 Q 7728.494 1790.229 7725.639 1796.815 Q 7722.784 1803.401 7720.621 1812.600 Q 7718.457 1821.799 7717.949 1828.334 Q 7717.440 1834.869 7717.353 1838.886 Q 7717.265 1842.903 7718.761 1846.759 Q 7720.257 1850.614 7724.761 1853.732 Q 7729.265 1856.850 7738.152 1857.945 Q 7747.040 1859.040 7752.163 1859.225 Q 7757.285 1859.410 7761.480 1858.710 Q 7765.676 1858.011 7769.253 1856.225 Q 7772.831 1854.440 7776.165 1850.332 Q 7779.498 1846.225 7781.013 1840.046 Q 7782.528 1833.867 7782.827 1827.868 Q 7783.125 1821.869 7782.263 1816.852 Q 7781.400 1811.835 7777.098 1805.381 Q 7772.795 1798.926 7769.578 1795.277 Q 7766.360 1791.628 7762.873 1788.985 Q 7759.385 1786.342 7757.363 1784.813 Q 7755.342 1783.284 7751.382 1782.837 Q 7747.422 1782.390 7743.980 1783.534 Q 7740.538 1784.677 7738.356 1786.108 Q 7736.175 1787.539 7734.969 1789.102 Q 7733.763 1790.664 7733.181 1791.903 Q 7732.600 1793.142 7733.738 1794.911 Q 7734.877 1796.680 7735.605 1797.413 "></path>
    <path id="STROKE_953b201d-1b37-424b-877d-d87f888decef" opacity="1.000" fill="none" stroke="#ff9adf" stroke-width="6.750" stroke-opacity="1.000" stroke-linecap="round" stroke-linejoin="round" d="M 7833.301 1790.085 Q 7833.300 1789.230 7833.443 1787.166 Q 7833.587 1785.102 7833.473 1783.902 Q 7833.359 1782.702 7833.039 1781.934 Q 7832.718 1781.166 7832.396 1781.226 Q 7832.075 1781.287 7831.385 1781.120 Q 7830.695 1780.954 7828.634 1780.852 Q 7826.573 1780.750 7824.159 1781.763 Q 7821.744 1782.777 7818.378 1785.299 Q 7815.013 1787.821 7811.747 1793.247 Q 7808.481 1798.672 7807.163 1809.615 Q 7805.845 1820.558 7805.700 1828.549 Q 7805.556 1836.539 7806.238 1841.975 Q 7806.920 1847.411 7808.558 1850.800 Q 7810.196 1854.189 7811.374 1855.893 Q 7812.552 1857.597 7815.422 1859.033 Q 7818.292 1860.469 7823.659 1860.761 Q 7829.026 1861.053 7836.896 1859.217 Q 7844.765 1857.381 7850.882 1854.544 Q 7856.999 1851.708 7861.417 1848.083 Q 7865.835 1844.459 7868.404 1840.418 Q 7870.974 1836.377 7871.925 1832.605 Q 7872.876 1828.833 7872.777 1825.792 Q 7872.678 1822.751 7871.710 1818.488 Q 7870.743 1814.225 7865.244 1808.911 Q 7859.744 1803.597 7856.551 1801.266 Q 7853.358 1798.936 7849.347 1795.851 Q 7845.335 1792.765 7840.248 1788.376 Q 7835.160 1783.986 7832.314 1781.769 Q 7829.468 1779.551 7826.463 1779.114 Q 7826.090 1779.805 7825.774 1782.561 Q 7825.458 1785.316 7825.347 1786.359 "></path>
    <path id="STROKE_60c57213-b07b-4b78-8eda-7104496d5c68" opacity="1.000" fill="none" stroke="#f3ba38" stroke-width="4.250" stroke-opacity="1.000" stroke-linecap="round" stroke-linejoin="round" d="M 7902.930 1474.200 Q 7902.619 1474.378 7903.867 1472.648 Q 7905.116 1470.918 7906.383 1469.804 Q 7907.650 1468.690 7907.930 1468.708 Q 7908.209 1468.725 7908.631 1468.607 Q 7909.053 1468.489 7909.075 1468.492 Q 7909.098 1468.494 7908.900 1468.624 Q 7908.703 1468.753 7910.097 1468.476 Q 7911.490 1468.199 7917.631 1467.940 Q 7923.771 1467.682 7929.574 1470.997 Q 7935.377 1474.312 7938.364 1477.405 Q 7941.352 1480.498 7942.039 1482.724 Q 7942.726 1484.951 7942.946 1486.630 Q 7943.166 1488.309 7943.328 1489.725 Q 7943.490 1491.141 7943.760 1494.212 Q 7944.029 1497.283 7943.301 1500.529 Q 7942.572 1503.776 7941.783 1504.291 Q 7940.994 1504.805 7938.294 1509.626 Q 7935.595 1514.448 7932.315 1520.988 Q 7929.036 1527.528 7927.992 1532.172 Q 7926.949 1536.815 7926.854 1540.302 Q 7926.761 1543.788 7929.132 1546.735 Q 7931.504 1549.681 7933.405 1552.407 Q 7935.307 1555.133 7938.929 1559.381 Q 7942.551 1563.629 7944.217 1565.509 Q 7945.883 1567.388 7947.717 1568.050 Q 7949.551 1568.713 7950.485 1568.598 Q 7951.419 1568.483 7951.829 1568.212 Q 7952.238 1567.942 7953.348 1566.760 Q 7954.457 1565.579 7954.196 1565.694 Q 7953.936 1565.809 7954.013 1566.060 Q 7954.089 1566.311 7954.131 1564.184 Q 7953.577 1564.404 7950.377 1564.284 Q 7947.178 1564.165 7942.354 1565.989 Q 7937.531 1567.812 7932.745 1570.823 Q 7927.959 1573.835 7928.713 1584.588 Q 7929.466 1595.341 7930.267 1600.809 Q 7931.067 1606.278 7931.837 1608.940 Q 7932.606 1611.602 7934.139 1619.637 Q 7935.672 1627.672 7935.903 1634.401 Q 7936.134 1641.129 7936.189 1644.641 Q 7936.245 1648.153 7934.816 1650.810 Q 7933.387 1653.467 7917.434 1650.751 Q 7916.299 1650.587 7918.328 1648.762 Q 7920.357 1646.937 7921.071 1646.264 "></path>
    <path id="STROKE_9b6ab0dc-3558-41de-a23d-6835176ceb31" opacity="1.000" fill="none" stroke="#f3ba38" stroke-width="3.813" stroke-opacity="1.000" stroke-linecap="round" stroke-linejoin="round" d="M 8086.133 1638.015 Q 8086.768 1640.498 8084.982 1631.871 Q 8085.918 1632.412 8081.759 1680.677 Q 8083.378 1680.877 8084.883 1679.345 Q 8086.387 1677.812 8087.192 1677.018 "></path>
    <path id="STROKE_ae42ee6e-e89a-4d07-a3d3-3b133e1c7204" opacity="1.000" fill="none" stroke="#f3ba38" stroke-width="4.213" stroke-opacity="1.000" stroke-linecap="round" stroke-linejoin="round" d="M 8102.111 1651.200 Q 8102.111 1651.200 8100.930 1651.021 Q 8099.748 1650.842 8100.407 1651.148 Q 8099.493 1651.950 8097.979 1659.953 Q 8096.466 1667.955 8096.685 1673.125 Q 8096.903 1678.294 8097.739 1680.567 Q 8098.576 1682.840 8102.711 1684.850 Q 8106.847 1686.861 8110.412 1685.359 Q 8113.978 1683.858 8118.089 1678.613 Q 8122.200 1673.369 8124.131 1667.104 Q 8126.061 1660.840 8126.169 1657.351 Q 8126.277 1653.862 8125.960 1652.079 Q 8125.644 1650.296 8123.438 1648.382 Q 8121.230 1646.468 8117.045 1645.147 Q 8112.859 1643.826 8110.155 1644.717 Q 8107.452 1645.608 8105.953 1648.994 Q 8104.455 1652.380 8103.828 1656.248 Q 8103.202 1660.116 8105.246 1662.147 Q 8107.291 1664.178 8108.235 1664.696 "></path>
    <path id="STROKE_4b270ef2-9ba3-4b78-9c26-297d378edc79" opacity="1.000" fill="none" stroke="#f3ba38" stroke-width="4.250" stroke-opacity="1.000" stroke-linecap="round" stroke-linejoin="round" d="M 8137.335 1646.230 Q 8137.112 1646.418 8134.207 1647.120 Q 8131.302 1647.822 8130.076 1651.927 Q 8128.850 1656.033 8128.586 1661.235 Q 8128.323 1666.437 8129.146 1669.764 Q 8129.968 1673.091 8131.150 1674.569 Q 8132.333 1676.047 8134.704 1676.516 Q 8137.075 1676.985 8140.063 1674.841 Q 8143.051 1672.697 8146.049 1670.000 Q 8149.046 1667.304 8150.380 1665.834 Q 8151.714 1664.365 8153.316 1660.762 Q 8154.919 1657.159 8148.024 1653.633 Q 8141.130 1650.108 8136.424 1649.998 Q 8131.718 1649.888 8131.349 1650.337 "></path>
    <path id="STROKE_f162c5e3-130a-47df-83ba-17595afa5d66" opacity="1.000" fill="none" stroke="#f3ba38" stroke-width="4.250" stroke-opacity="1.000" stroke-linecap="round" stroke-linejoin="round" d="M 8166.158 1630.249 Q 8165.211 1629.981 8164.829 1629.733 Q 8164.447 1629.485 8164.479 1629.524 Q 8163.662 1631.222 8162.753 1643.124 Q 8161.845 1655.025 8161.568 1661.282 Q 8161.292 1667.539 8161.479 1670.531 Q 8161.665 1673.524 8162.496 1674.695 Q 8163.327 1675.866 8164.097 1676.165 Q 8164.866 1676.464 8165.328 1676.335 Q 8165.791 1676.207 8166.297 1676.121 "></path>
    <path id="STROKE_08d05f3b-052a-42b7-b62e-ddca39d14cca" opacity="1.000" fill="none" stroke="#f3ba38" stroke-width="4.250" stroke-opacity="1.000" stroke-linecap="round" stroke-linejoin="round" d="M 8164.686 1656.654 Q 8167.162 1653.072 8166.873 1653.927 Q 8166.926 1653.245 8172.908 1650.324 Q 8178.890 1647.403 8179.604 1646.954 "></path>
    <path id="STROKE_022be446-89c7-49be-af10-e64860cc3adb" opacity="1.000" fill="none" stroke="#f3ba38" stroke-width="4.250" stroke-opacity="1.000" stroke-linecap="round" stroke-linejoin="round" d="M 8168.046 1652.098 Q 8167.559 1654.367 8167.471 1654.220 Q 8167.182 1654.774 8167.051 1659.015 Q 8166.919 1663.257 8174.263 1668.964 Q 8181.607 1674.671 8182.413 1675.258 "></path>
    <path id="STROKE_6055ed13-b7f9-4e0e-a26a-92e1b0264f56" opacity="1.000" fill="none" stroke="#f3ba38" stroke-width="4.095" stroke-opacity="1.000" stroke-linecap="round" stroke-linejoin="round" d="M 8237.527 1640.086 Q 8238.164 1641.054 8236.951 1637.486 Q 8235.737 1633.917 8233.348 1632.548 Q 8230.957 1631.178 8229.603 1631.246 Q 8228.248 1631.313 8226.877 1632.177 Q 8225.506 1633.041 8223.528 1636.665 Q 8221.551 1640.289 8219.562 1648.089 Q 8217.574 1655.889 8217.417 1661.950 Q 8217.260 1668.010 8217.141 1670.644 Q 8217.021 1673.277 8217.422 1674.498 Q 8217.822 1675.719 8219.188 1676.603 Q 8220.555 1677.488 8221.950 1677.322 Q 8223.346 1677.156 8224.083 1676.708 "></path>
    <path id="STROKE_b50cf302-a44f-44a2-a208-45b3799041f1" opacity="1.000" fill="none" stroke="#f3ba38" stroke-width="4.250" stroke-opacity="1.000" stroke-linecap="round" stroke-linejoin="round" d="M 8207.691 1655.308 Q 8207.359 1654.978 8205.803 1658.984 Q 8204.545 1660.312 8216.869 1659.682 Q 8229.193 1659.052 8230.805 1658.966 "></path>
    <path id="STROKE_cae52351-f614-4e19-91a9-15c3b90d5380" opacity="1.000" fill="none" stroke="#f3ba38" stroke-width="4.250" stroke-opacity="1.000" stroke-linecap="round" stroke-linejoin="round" d="M 8241.947 1649.613 Q 8241.393 1650.393 8241.029 1650.055 Q 8240.666 1649.717 8238.591 1651.937 Q 8236.516 1654.157 8236.326 1657.841 Q 8236.137 1661.525 8236.330 1664.933 Q 8236.524 1668.341 8238.000 1669.979 Q 8239.475 1671.616 8240.619 1671.873 Q 8241.763 1672.130 8244.689 1672.626 Q 8247.615 1673.121 8251.467 1670.365 Q 8255.317 1667.610 8256.672 1666.097 Q 8258.026 1664.584 8258.883 1663.292 Q 8259.740 1662.001 8259.860 1661.132 Q 8259.980 1660.263 8260.016 1659.562 Q 8260.052 1658.860 8260.139 1657.866 Q 8260.225 1656.872 8260.076 1655.889 Q 8259.927 1654.906 8258.279 1653.094 Q 8256.632 1651.282 8254.055 1650.323 Q 8251.479 1649.365 8247.926 1648.897 Q 8244.373 1648.430 8243.070 1648.446 Q 8241.768 1648.462 8240.225 1650.240 Q 8238.681 1652.017 8239.129 1653.162 Q 8239.576 1654.307 8239.876 1654.893 "></path>
    <path id="STROKE_d02ba5ee-c152-4686-8b7c-dd2ac44f79fc" opacity="1.000" fill="none" stroke="#f3ba38" stroke-width="4.250" stroke-opacity="1.000" stroke-linecap="round" stroke-linejoin="round" d="M 8266.950 1642.847 Q 8266.946 1644.742 8267.020 1644.400 Q 8267.579 1646.436 8267.660 1646.781 Q 8267.742 1647.125 8267.961 1650.521 Q 8268.180 1653.917 8268.102 1674.361 Q 8268.441 1675.449 8271.098 1666.722 Q 8273.753 1657.996 8275.938 1652.953 Q 8278.121 1647.911 8279.291 1645.993 Q 8280.460 1644.076 8282.480 1643.226 Q 8284.502 1642.377 8288.089 1644.407 Q 8291.676 1646.437 8292.413 1647.093 "></path>
    <path id="STROKE_fc7d1e00-4da6-4331-8cd1-385c0a4ad658" opacity="1.000" fill="none" stroke="#f3ba38" stroke-width="4.250" stroke-opacity="1.000" stroke-linecap="round" stroke-linejoin="round" d="M 8345.502 1639.913 Q 8343.481 1639.601 8343.522 1639.568 Q 8342.616 1638.498 8338.293 1639.821 Q 8333.970 1641.144 8331.074 1645.580 Q 8328.180 1650.016 8326.651 1656.183 Q 8325.123 1662.351 8325.506 1666.272 Q 8325.888 1670.194 8326.109 1672.700 Q 8326.330 1675.206 8329.961 1675.916 Q 8333.593 1676.625 8336.611 1676.086 Q 8339.630 1675.547 8342.048 1674.220 Q 8344.466 1672.894 8345.778 1672.013 "></path>
    <path id="STROKE_e7b375c5-5024-4510-a632-86cc7bc71020" opacity="1.000" fill="none" stroke="#f3ba38" stroke-width="4.077" stroke-opacity="1.000" stroke-linecap="round" stroke-linejoin="round" d="M 8365.255 1635.081 Q 8364.000 1634.428 8362.603 1634.674 Q 8361.205 1634.919 8361.294 1634.734 Q 8361.383 1634.549 8360.707 1635.606 Q 8360.031 1636.662 8359.487 1639.222 Q 8358.943 1641.782 8358.413 1643.705 Q 8357.883 1645.627 8356.760 1675.707 Q 8357.160 1676.742 8359.228 1675.301 Q 8361.295 1673.860 8362.170 1673.049 "></path>
    <path id="STROKE_eef0921c-7f1d-417c-92f7-f22ab27c002f" opacity="1.000" fill="none" stroke="#f3ba38" stroke-width="4.250" stroke-opacity="1.000" stroke-linecap="round" stroke-linejoin="round" d="M 8377.227 1643.158 Q 8377.031 1643.380 8377.278 1643.148 Q 8377.525 1642.916 8375.805 1642.906 Q 8374.085 1642.895 8373.849 1646.203 Q 8373.612 1649.511 8373.512 1652.213 Q 8373.410 1654.914 8373.461 1656.496 Q 8373.512 1658.077 8373.397 1662.217 Q 8373.283 1666.357 8374.174 1669.678 Q 8375.064 1672.998 8376.128 1674.474 Q 8377.191 1675.950 8379.490 1676.300 Q 8381.790 1676.649 8384.206 1675.026 Q 8386.622 1673.403 8389.201 1669.135 Q 8391.781 1664.867 8393.658 1660.823 Q 8395.534 1656.778 8396.633 1651.270 Q 8397.732 1645.762 8397.417 1639.482 Q 8397.288 1639.604 8397.346 1639.250 Q 8397.403 1638.895 8396.311 1639.479 Q 8395.217 1640.063 8394.118 1641.645 Q 8393.020 1643.227 8392.283 1644.331 "></path>
    <path id="STROKE_9312d1b7-98f3-47f9-ba72-f53aa16d25f9" opacity="1.000" fill="none" stroke="#f3ba38" stroke-width="4.250" stroke-opacity="1.000" stroke-linecap="round" stroke-linejoin="round" d="M 8417.883 1636.841 Q 8417.617 1636.895 8414.473 1636.755 Q 8411.328 1636.615 8407.767 1638.116 Q 8404.205 1639.618 8402.832 1642.662 Q 8401.458 1645.706 8401.439 1646.405 Q 8401.420 1647.104 8401.525 1649.150 Q 8401.630 1651.195 8405.588 1652.759 Q 8409.547 1654.324 8411.350 1655.608 Q 8413.152 1656.892 8413.990 1657.999 Q 8414.828 1659.105 8415.264 1660.294 Q 8415.700 1661.483 8415.873 1662.978 Q 8416.047 1664.474 8416.014 1664.823 Q 8415.979 1665.174 8415.956 1666.250 Q 8415.933 1667.327 8416.086 1667.044 Q 8416.240 1666.761 8415.772 1668.103 Q 8415.305 1669.445 8412.024 1671.946 Q 8408.744 1674.447 8408.076 1675.120 "></path>
    <path id="STROKE_b6c53fb5-de91-453d-8858-858a332c7d87" opacity="1.000" fill="none" stroke="#f3ba38" stroke-width="4.250" stroke-opacity="1.000" stroke-linecap="round" stroke-linejoin="round" d="M 8427.691 1635.979 Q 8430.630 1637.841 8432.623 1647.697 Q 8434.615 1657.554 8434.111 1663.291 Q 8433.608 1669.028 8432.940 1669.977 "></path>
    <path id="STROKE_6918db57-e770-40b1-85a6-0feb8b09b61c" opacity="1.000" fill="none" stroke="#f3ba38" stroke-width="4.250" stroke-opacity="1.000" stroke-linecap="round" stroke-linejoin="round" d="M 8418.759 1653.271 Q 8418.759 1653.271 8419.871 1653.274 Q 8420.983 1653.277 8420.946 1653.202 Q 8422.053 1652.700 8428.199 1652.398 Q 8434.345 1652.097 8435.150 1652.097 "></path>
    <path id="STROKE_eba67d44-dc30-43fc-bacb-f56737a03351" opacity="1.000" fill="none" stroke="#f3ba38" stroke-width="4.250" stroke-opacity="1.000" stroke-linecap="round" stroke-linejoin="round" d="M 8448.319 1650.475 Q 8448.300 1650.211 8445.557 1653.116 L 8445.626 1653.340 Q 8448.321 1655.326 8455.972 1651.821 Q 8463.622 1648.316 8467.350 1646.122 Q 8471.077 1643.928 8472.912 1642.546 Q 8474.746 1641.164 8475.525 1639.303 Q 8476.304 1637.443 8475.869 1635.954 Q 8475.435 1634.465 8470.782 1633.199 Q 8466.130 1631.934 8462.114 1632.829 Q 8458.099 1633.723 8455.924 1635.234 Q 8453.750 1636.745 8451.232 1639.584 Q 8448.716 1642.424 8447.527 1647.546 Q 8446.338 1652.669 8446.304 1655.709 Q 8446.270 1658.750 8446.561 1661.916 Q 8446.853 1665.082 8454.826 1664.526 Q 8462.801 1663.971 8464.112 1663.246 "></path>
    <path id="STROKE_c7a05098-d446-4ae9-a57f-d58a9c8ebc45" opacity="1.000" fill="none" stroke="#f3ba38" stroke-width="4.250" stroke-opacity="1.000" stroke-linecap="round" stroke-linejoin="round" d="M 8484.465 1631.146 Q 8484.795 1629.241 8483.695 1638.743 Q 8482.597 1648.245 8482.715 1662.211 Q 8482.237 1664.036 8485.268 1656.658 Q 8488.297 1649.280 8490.812 1644.651 Q 8493.327 1640.021 8495.564 1637.258 Q 8497.803 1634.495 8500.228 1633.735 Q 8502.652 1632.975 8503.896 1632.458 "></path>
    <path id="STROKE_260589ae-37e2-4153-86b0-d486da59b9ea" opacity="1.000" fill="none" stroke="#f3ba38" stroke-width="4.250" stroke-opacity="1.000" stroke-linecap="round" stroke-linejoin="round" d="M 8524.523 1628.212 Q 8523.536 1628.374 8519.584 1628.152 Q 8515.633 1627.930 8512.290 1628.950 Q 8508.947 1629.969 8506.900 1631.968 Q 8504.854 1633.966 8504.144 1636.530 Q 8503.434 1639.093 8504.182 1640.774 Q 8504.931 1642.455 8508.680 1644.480 Q 8512.430 1646.506 8515.297 1647.783 Q 8518.165 1649.060 8519.648 1650.888 Q 8521.133 1652.716 8521.230 1654.683 Q 8521.328 1656.650 8521.001 1657.546 Q 8520.674 1658.441 8519.676 1659.127 Q 8518.677 1659.812 8517.926 1660.104 Q 8517.174 1660.396 8516.520 1660.565 Q 8515.865 1660.735 8514.128 1661.214 Q 8512.391 1661.693 8511.677 1662.073 "></path>
    <path id="STROKE_d7c4fdaa-6eee-4c4c-9e6a-043fe31e0af9" opacity="1.000" fill="none" stroke="#f3ba38" stroke-width="4.250" stroke-opacity="1.000" stroke-linecap="round" stroke-linejoin="round" d="M 7899.292 1678.089 Q 7900.038 1676.408 7899.821 1676.846 Q 7900.001 1676.119 7899.703 1676.233 Q 7899.404 1676.347 7899.618 1676.253 Q 7899.832 1676.159 7899.721 1676.252 Q 7899.610 1676.346 7900.810 1675.929 Q 7902.009 1675.512 7903.569 1675.274 Q 7905.130 1675.036 7905.760 1674.958 Q 7906.389 1674.879 7906.951 1674.854 Q 7907.514 1674.829 7906.794 1674.740 Q 7906.075 1674.650 7910.311 1674.557 Q 7914.546 1674.465 7917.647 1674.240 Q 7920.748 1674.015 7923.471 1675.389 Q 7926.194 1676.764 7927.402 1677.840 Q 7928.610 1678.915 7930.120 1682.687 Q 7931.629 1686.458 7931.582 1690.896 Q 7931.535 1695.335 7931.472 1699.672 Q 7931.408 1704.010 7930.539 1707.888 Q 7929.669 1711.766 7929.655 1713.784 Q 7929.642 1715.803 7929.436 1717.125 Q 7929.229 1718.448 7930.437 1719.364 Q 7931.644 1720.279 7932.416 1720.784 Q 7933.188 1721.289 7933.075 1721.177 Q 7932.963 1721.065 7934.560 1721.922 Q 7936.156 1722.778 7942.896 1722.787 Q 7942.896 1722.718 7942.896 1722.649 Q 7943.000 1722.262 7938.460 1723.703 Q 7933.920 1725.144 7930.590 1728.998 Q 7927.261 1732.852 7925.861 1734.881 Q 7924.461 1736.910 7923.642 1741.414 Q 7922.821 1745.918 7923.650 1753.511 Q 7924.479 1761.104 7926.116 1768.327 Q 7927.752 1775.550 7928.504 1780.625 Q 7929.256 1785.700 7929.827 1787.910 Q 7930.398 1790.119 7932.271 1799.613 Q 7934.144 1809.107 7934.733 1815.241 Q 7935.322 1821.375 7935.594 1823.558 Q 7935.865 1825.740 7935.164 1827.433 Q 7934.463 1829.126 7934.185 1829.120 Q 7933.907 1829.113 7933.956 1829.084 Q 7934.005 1829.055 7933.390 1829.251 Q 7932.774 1829.446 7931.700 1829.478 Q 7930.626 1829.509 7929.630 1829.505 Q 7928.635 1829.501 7928.265 1829.427 Q 7927.896 1829.354 7927.523 1829.243 Q 7927.150 1829.133 7913.335 1824.732 Q 7913.167 1824.479 7915.887 1823.354 Q 7918.607 1822.229 7919.644 1821.573 "></path>
    <path id="STROKE_afae1df8-55c7-4ae8-8d73-e02d7d622ad6" opacity="1.000" fill="none" stroke="#f3ba38" stroke-width="4.250" stroke-opacity="1.000" stroke-linecap="round" stroke-linejoin="round" d="M 8073.202 1647.024 Q 8073.202 1647.024 8073.202 1647.618 Q 8073.202 1648.213 8073.202 1647.721 Q 8073.202 1647.229 8073.202 1650.234 Q 8073.731 1650.100 8072.409 1650.327 Q 8071.087 1650.555 8064.501 1648.448 Q 8057.916 1646.340 8054.941 1645.576 Q 8051.966 1644.812 8048.757 1642.399 Q 8045.548 1639.987 8043.400 1638.101 Q 8041.252 1636.215 8040.192 1634.607 Q 8039.132 1633.000 8038.873 1630.520 Q 8038.613 1628.040 8038.646 1626.832 Q 8038.680 1625.624 8038.672 1625.868 Q 8038.665 1626.112 8038.667 1624.562 Q 8038.670 1623.012 8038.681 1621.414 Q 8038.691 1619.817 8038.672 1618.044 Q 8038.654 1616.271 8038.397 1615.687 Q 8038.142 1615.103 8041.041 1610.158 Q 8043.940 1605.213 8045.642 1601.259 Q 8047.342 1597.306 8048.212 1594.084 Q 8049.083 1590.862 8048.994 1590.077 Q 8048.905 1589.293 8048.926 1588.882 Q 8048.946 1588.472 8048.879 1588.502 Q 8048.812 1588.532 8048.955 1588.356 Q 8049.098 1588.180 8049.146 1585.295 Q 8049.195 1582.410 8048.648 1580.797 Q 8048.102 1579.185 8047.371 1578.071 Q 8046.641 1576.957 8046.475 1576.686 Q 8046.308 1576.415 8045.928 1576.004 Q 8045.547 1575.594 8044.944 1575.020 Q 8044.342 1574.447 8044.014 1574.309 Q 8043.686 1574.171 8044.259 1574.158 Q 8044.832 1574.145 8041.639 1572.739 Q 8038.446 1571.333 8036.414 1570.850 Q 8034.382 1570.367 8034.227 1570.322 Q 8034.071 1570.277 8033.114 1569.883 Q 8032.158 1569.488 8025.687 1569.647 Q 8019.215 1569.805 8015.293 1569.374 Q 8011.371 1568.944 8010.193 1569.290 Q 8009.015 1569.637 8002.984 1573.883 Q 8005.721 1572.730 8005.286 1573.055 Q 8006.092 1572.848 8006.633 1572.589 Q 8007.174 1572.330 8007.819 1571.950 "></path>
    <path id="STROKE_dae3ed42-237d-4551-bc82-c64b120fc150" opacity="1.000" fill="none" stroke="#f3ba38" stroke-width="4.196" stroke-opacity="1.000" stroke-linecap="round" stroke-linejoin="round" d="M 8009.430 1554.657 Q 8009.428 1555.124 8009.422 1554.642 Q 8009.416 1554.159 8009.474 1557.678 Q 8009.532 1561.198 8009.205 1563.702 Q 8008.877 1566.207 8007.948 1569.071 Q 8007.019 1571.935 8004.319 1595.283 Q 8003.768 1595.255 8004.472 1593.897 Q 8005.175 1592.539 8002.971 1589.719 Q 8000.767 1586.898 7997.176 1585.477 Q 7993.585 1584.055 7991.593 1582.792 Q 7989.602 1581.528 7986.204 1579.264 Q 7982.807 1577.000 7981.101 1575.942 Q 7979.395 1574.884 7978.581 1574.090 Q 7979.045 1576.139 8006.438 1558.040 Q 8006.592 1559.992 8006.529 1559.576 Q 8004.939 1562.062 7991.013 1587.793 Q 7993.090 1585.188 8003.651 1562.009 L 8003.721 1562.009 Q 8004.236 1565.193 7995.249 1586.930 Q 7992.980 1590.037 8003.651 1567.567 L 8003.790 1567.567 Q 8003.924 1567.539 8004.007 1575.725 Q 8004.089 1583.910 8004.458 1584.273 "></path>
    <path id="STROKE_38748e42-e48e-4de9-beae-0f3dcde5b4ea" opacity="1.000" fill="none" stroke="#f3ba38" stroke-width="4.250" stroke-opacity="1.000" stroke-linecap="round" stroke-linejoin="round" d="M 8055.659 1666.491 Q 8056.117 1666.975 8054.555 1666.210 Q 8052.994 1665.446 8050.323 1666.052 Q 8047.653 1666.658 8046.580 1668.019 Q 8045.506 1669.380 8045.047 1669.744 Q 8044.588 1670.107 8043.408 1671.198 Q 8042.229 1672.288 8040.969 1677.381 Q 8039.709 1682.474 8038.781 1691.068 Q 8037.853 1699.661 8037.792 1705.994 Q 8037.730 1712.328 8038.831 1721.366 Q 8039.931 1730.405 8039.797 1738.613 Q 8036.911 1739.088 8037.218 1738.906 Q 8035.134 1738.906 8035.261 1738.906 Q 8033.805 1738.786 8026.064 1736.475 Q 8018.323 1734.164 8012.871 1733.140 Q 8007.419 1732.116 8005.022 1732.239 Q 8002.625 1732.362 7994.098 1733.349 Q 7995.485 1733.571 7998.118 1732.649 Q 8000.751 1731.727 8001.557 1731.140 "></path>
    <path id="STROKE_1b4915db-329d-4c3b-af42-37eaeddd5c0d" opacity="1.000" fill="none" stroke="#f3ba38" stroke-width="4.180" stroke-opacity="1.000" stroke-linecap="round" stroke-linejoin="round" d="M 7990.552 1706.944 Q 7990.552 1706.944 7990.207 1705.851 Q 7989.862 1704.758 7993.361 1754.750 Q 7993.361 1753.631 7993.361 1753.645 Q 7993.361 1750.684 7993.361 1751.453 Q 7993.423 1750.677 7992.056 1749.384 Q 7990.689 1748.090 7991.043 1748.588 Q 7991.396 1749.086 7991.306 1748.267 Q 7991.216 1747.448 7963.662 1745.948 Q 7964.846 1745.862 7987.997 1703.872 L 7988.065 1703.872 Q 7988.439 1706.054 7982.797 1717.888 Q 7977.154 1729.722 7973.470 1745.085 Q 7973.618 1744.616 7973.469 1745.298 Q 7973.320 1745.981 7975.148 1742.583 Q 7976.977 1739.186 7982.679 1721.924 Q 7982.979 1721.329 7975.634 1746.396 Q 7977.027 1747.420 7986.983 1719.129 L 7987.053 1719.129 Q 7987.405 1721.914 7982.679 1745.361 Q 7980.653 1746.465 7988.825 1735.386 Q 7989.122 1732.369 7993.200 1749.986 Q 7993.316 1751.693 7995.491 1748.458 Q 7997.666 1745.223 7998.334 1744.049 "></path>
  </g>
</svg>