<?xml version="1.0" encoding="UTF-8" standalone="yes"?>
<svg xmlns="http://www.w3.org/2000/svg" xmlns:xlink="http://www.w3.org/1999/xlink" width="566.368pt" height="478.309pt" version="1.1" viewBox="585.967 -958.948 566.368 478.309">
  <!--
	Exported with Concepts: Smarter Sketching
	Version: 1059 on iOS 15.4
	https://concepts.app/
	-->
  <title>Untitled 3</title>
  <desc>Drawing exported from Concepts: Smarter Sketching</desc>
  <defs></defs>
  <g id="Pen" opacity="1.000">
    <path id="STROKE_e0945a71-8ba6-400e-8fa7-8247669d9fc9" opacity="1.000" fill="none" stroke="#f3ba38" stroke-width="4.420" stroke-opacity="1.000" stroke-linecap="round" stroke-linejoin="round" d="M 708.639 -815.468 Q 708.639 -815.367 708.243 -814.937 Q 708.334 -814.960 712.009 -818.659 Q 715.683 -822.358 717.854 -824.681 Q 720.024 -827.005 722.489 -827.843 Q 723.565 -827.496 721.562 -805.375 Q 721.593 -805.375 721.624 -805.375 Q 721.593 -805.281 721.562 -805.187 "></path>
    <path id="STROKE_3339be17-fcfa-4e44-9f8a-4574392ba26c" opacity="1.000" fill="none" stroke="#f3ba38" stroke-width="4.420" stroke-opacity="1.000" stroke-linecap="round" stroke-linejoin="round" d="M 708.118 -799.734 Q 708.388 -799.609 708.291 -799.283 Q 708.194 -798.956 719.145 -799.263 Q 730.097 -799.570 730.900 -799.734 "></path>
    <path id="STROKE_674777ea-7ff9-4cfb-9560-9ca965bccfb1" opacity="1.000" fill="none" stroke="#f3ba38" stroke-width="4.420" stroke-opacity="1.000" stroke-linecap="round" stroke-linejoin="round" d="M 749.638 -824.828 Q 750.083 -825.051 748.784 -825.511 Q 747.484 -825.971 746.608 -826.118 Q 745.732 -826.266 744.497 -825.713 Q 743.263 -825.160 742.664 -824.200 Q 742.066 -823.240 741.782 -822.395 Q 741.498 -821.550 741.427 -820.884 Q 741.357 -820.218 743.182 -819.094 Q 745.007 -817.971 746.567 -817.337 Q 748.126 -816.703 749.789 -814.885 Q 751.452 -813.066 751.994 -811.505 Q 752.535 -809.944 752.815 -808.344 Q 753.095 -806.743 751.965 -804.475 Q 750.835 -802.208 748.559 -800.480 Q 746.282 -798.753 742.718 -798.976 Q 742.233 -799.292 742.871 -801.489 Q 743.510 -803.687 743.802 -804.250 "></path>
    <path id="STROKE_112e850f-f413-4158-8b61-015ef0fd1078" opacity="1.000" fill="none" stroke="#f3ba38" stroke-width="4.420" stroke-opacity="1.000" stroke-linecap="round" stroke-linejoin="round" d="M 756.329 -840.421 Q 754.874 -840.971 755.391 -840.976 Q 755.622 -842.617 755.651 -842.140 Q 755.904 -842.387 756.094 -842.551 Q 756.284 -842.714 756.680 -843.025 Q 757.075 -843.336 757.541 -843.658 Q 758.007 -843.980 758.196 -844.038 Q 758.385 -844.096 758.486 -844.300 Q 758.586 -844.505 759.731 -844.771 Q 760.877 -845.037 762.031 -844.991 Q 763.185 -844.944 764.868 -842.604 Q 766.550 -840.264 767.168 -837.359 Q 767.786 -834.454 767.668 -831.816 Q 767.551 -829.178 766.790 -827.222 Q 766.029 -825.266 765.022 -824.044 Q 764.015 -822.823 763.038 -822.481 Q 762.060 -822.139 761.827 -822.069 Q 761.594 -821.999 761.005 -822.426 Q 760.416 -822.852 760.227 -824.793 Q 760.038 -826.735 760.136 -828.323 Q 760.234 -829.912 760.824 -831.584 Q 761.414 -833.256 761.742 -833.556 Q 762.070 -833.855 762.197 -834.090 Q 762.325 -834.326 763.841 -834.521 Q 765.357 -834.715 766.750 -834.289 Q 768.143 -833.862 768.991 -833.482 Q 769.839 -833.103 771.255 -832.597 Q 772.672 -832.092 773.734 -831.734 Q 774.796 -831.376 775.890 -831.036 Q 776.985 -830.695 777.714 -830.468 "></path>
    <path id="STROKE_a6a5f574-77a8-4bad-9529-6b99d35e60cd" opacity="1.000" fill="none" stroke="#f3ba38" stroke-width="4.420" stroke-opacity="1.000" stroke-linecap="round" stroke-linejoin="round" d="M 706.992 -760.593 Q 706.369 -760.616 707.848 -762.890 Q 709.328 -765.165 710.712 -766.205 Q 712.097 -767.246 714.073 -768.161 Q 716.048 -769.076 717.519 -769.307 Q 718.991 -769.539 721.328 -767.736 Q 723.665 -765.933 724.595 -762.684 Q 725.524 -759.434 725.696 -756.826 Q 725.869 -754.217 725.591 -752.770 Q 725.314 -751.323 724.994 -750.690 Q 724.673 -750.056 723.515 -748.152 Q 722.356 -746.247 720.441 -744.821 Q 718.526 -743.395 716.538 -743.193 Q 714.551 -742.991 712.994 -743.668 Q 711.436 -744.345 710.652 -746.802 Q 709.868 -749.260 709.975 -750.754 Q 710.081 -752.248 710.822 -753.195 Q 711.564 -754.142 713.858 -754.477 Q 716.152 -754.812 717.956 -754.267 Q 719.760 -753.721 721.435 -752.809 Q 723.109 -751.897 724.717 -750.966 Q 726.325 -750.035 727.955 -748.667 Q 729.586 -747.298 730.478 -746.521 Q 731.371 -745.744 731.990 -746.020 Q 732.609 -746.296 732.942 -746.531 "></path>
    <path id="STROKE_9c967111-4afe-4e70-9336-0f99607bb102" opacity="1.000" fill="none" stroke="#f3ba38" stroke-width="4.420" stroke-opacity="1.000" stroke-linecap="round" stroke-linejoin="round" d="M 750.284 -764.640 Q 750.230 -764.164 750.276 -765.310 Q 750.322 -766.455 750.010 -767.202 Q 749.699 -767.949 749.096 -768.684 Q 748.493 -769.419 746.630 -769.054 Q 744.767 -768.688 743.295 -767.446 Q 741.823 -766.204 741.202 -764.677 Q 740.581 -763.151 740.642 -762.549 Q 740.703 -761.947 740.917 -761.285 Q 741.132 -760.623 741.912 -759.713 Q 742.692 -758.802 743.524 -758.173 Q 744.356 -757.543 745.933 -756.563 Q 747.510 -755.582 749.170 -754.245 Q 750.830 -752.907 751.929 -751.551 Q 753.029 -750.194 753.373 -747.810 Q 753.718 -745.425 751.817 -743.455 Q 749.915 -741.485 747.512 -740.555 Q 745.109 -739.624 742.280 -739.757 Q 741.883 -740.012 742.660 -743.174 Q 743.437 -746.335 743.739 -747.265 "></path>
    <path id="STROKE_12c8dd0b-a403-4593-afe7-c87f86cd1c33" opacity="1.000" fill="none" stroke="#f3ba38" stroke-width="4.420" stroke-opacity="1.000" stroke-linecap="round" stroke-linejoin="round" d="M 755.453 -785.812 Q 755.387 -785.140 755.545 -786.505 Q 755.703 -787.871 756.913 -788.893 Q 758.123 -789.914 759.207 -790.046 Q 760.291 -790.177 761.707 -790.017 Q 763.123 -789.856 764.566 -786.876 Q 766.009 -783.896 766.367 -781.000 Q 766.724 -778.103 766.387 -775.498 Q 766.050 -772.893 765.356 -771.666 Q 764.661 -770.439 763.425 -768.704 Q 762.190 -766.968 760.979 -766.481 Q 759.769 -765.995 759.253 -765.960 Q 758.737 -765.925 757.904 -766.097 Q 757.071 -766.269 756.729 -767.769 Q 756.387 -769.270 756.662 -771.725 Q 756.938 -774.179 758.145 -775.509 Q 759.352 -776.839 760.357 -777.722 Q 761.362 -778.605 762.868 -778.464 Q 764.373 -778.323 764.979 -777.391 Q 765.585 -776.459 768.737 -774.479 Q 771.888 -772.500 772.420 -772.265 "></path>
    <path id="STROKE_24ebb5bb-dfb4-4aa6-b1a8-5d1e90d848d5" opacity="1.000" fill="none" stroke="#f3ba38" stroke-width="4.420" stroke-opacity="1.000" stroke-linecap="round" stroke-linejoin="round" d="M 708.055 -705.187 Q 708.055 -705.187 708.390 -705.137 Q 708.725 -705.087 708.680 -705.125 Q 710.377 -705.144 709.973 -705.156 Q 710.419 -705.291 712.904 -705.971 Q 715.389 -706.650 717.214 -706.617 Q 719.039 -706.584 720.222 -706.074 Q 721.405 -705.564 721.321 -704.233 Q 721.236 -702.903 720.426 -701.815 Q 719.615 -700.728 710.827 -695.968 Q 711.219 -695.904 714.214 -696.118 Q 717.208 -696.333 718.890 -696.429 Q 720.571 -696.526 721.758 -696.221 Q 722.946 -695.915 724.062 -694.923 Q 725.178 -693.930 725.702 -692.265 Q 726.226 -690.600 725.664 -688.357 Q 725.102 -686.114 722.924 -684.226 Q 720.746 -682.338 718.785 -681.889 Q 716.824 -681.439 715.807 -681.237 Q 714.789 -681.035 714.277 -681.515 Q 713.764 -681.995 713.444 -682.690 Q 713.123 -683.385 713.142 -683.828 Q 713.160 -684.272 713.146 -684.679 Q 713.131 -685.086 713.170 -685.536 Q 713.209 -685.987 713.477 -686.333 Q 713.745 -686.679 714.141 -687.140 "></path>
    <path id="STROKE_08a45f2f-fb08-4db9-970f-f4d779f482da" opacity="1.000" fill="none" stroke="#f3ba38" stroke-width="4.420" stroke-opacity="1.000" stroke-linecap="round" stroke-linejoin="round" d="M 756.245 -701.140 Q 755.672 -701.793 753.458 -702.579 Q 751.243 -703.365 748.946 -703.331 Q 746.648 -703.296 745.059 -702.391 Q 743.469 -701.486 743.069 -700.160 Q 742.669 -698.835 742.596 -697.750 Q 742.523 -696.664 744.399 -695.803 Q 746.275 -694.941 749.146 -693.372 Q 752.018 -691.803 753.854 -690.453 Q 755.691 -689.103 756.610 -687.460 Q 757.528 -685.818 757.666 -685.016 Q 757.804 -684.213 757.897 -683.402 Q 757.989 -682.591 756.873 -681.269 Q 755.756 -679.947 753.933 -679.307 Q 752.109 -678.668 749.986 -678.379 Q 747.864 -678.090 746.098 -678.446 Q 744.331 -678.802 743.879 -679.432 Q 743.426 -680.063 743.214 -681.193 Q 743.003 -682.323 743.736 -684.087 Q 744.469 -685.851 744.865 -686.687 "></path>
    <path id="STROKE_fe6eb233-b39d-4196-8df9-daee216d56e8" opacity="1.000" fill="none" stroke="#f3ba38" stroke-width="4.420" stroke-opacity="1.000" stroke-linecap="round" stroke-linejoin="round" d="M 762.207 -719.859 Q 761.840 -719.631 762.536 -720.849 Q 763.232 -722.067 764.567 -722.866 Q 765.902 -723.666 766.523 -723.839 Q 767.143 -724.012 768.045 -724.136 Q 768.947 -724.260 770.341 -724.296 Q 771.735 -724.333 772.940 -723.331 Q 774.145 -722.330 774.914 -719.744 Q 775.683 -717.158 775.318 -714.309 Q 774.954 -711.459 774.148 -709.805 Q 773.342 -708.150 772.001 -706.327 Q 770.660 -704.503 769.561 -703.560 Q 768.462 -702.616 767.175 -702.639 Q 765.887 -702.662 765.188 -702.648 Q 764.489 -702.634 764.174 -704.560 Q 763.860 -706.487 764.326 -708.217 Q 764.791 -709.948 766.004 -711.156 Q 767.216 -712.364 769.610 -712.988 Q 772.003 -713.612 776.792 -712.173 Q 781.581 -710.734 782.216 -710.500 "></path>
    <path id="STROKE_f4735473-efc2-407f-8a2d-02f1e8b342bf" opacity="1.000" fill="none" stroke="#f3ba38" stroke-width="4.420" stroke-opacity="1.000" stroke-linecap="round" stroke-linejoin="round" d="M 709.577 -647.000 Q 708.947 -647.736 708.983 -647.632 Q 709.051 -647.752 708.183 -647.852 Q 707.316 -647.952 706.839 -645.503 Q 706.361 -643.054 706.585 -640.882 Q 706.809 -638.709 707.538 -637.228 Q 708.267 -635.748 709.648 -634.177 Q 711.029 -632.605 713.094 -631.685 Q 715.160 -630.766 717.047 -630.891 Q 718.934 -631.017 720.938 -631.972 Q 722.941 -632.927 724.315 -634.869 Q 725.689 -636.812 725.918 -637.375 "></path>
    <path id="STROKE_bbc0ad34-5900-4abf-bd70-250f5813d10d" opacity="1.000" fill="none" stroke="#f3ba38" stroke-width="4.420" stroke-opacity="1.000" stroke-linecap="round" stroke-linejoin="round" d="M 727.773 -648.328 Q 726.873 -647.712 727.127 -615.812 Q 727.127 -615.851 727.158 -616.414 Q 727.189 -616.976 727.252 -617.546 "></path>
    <path id="STROKE_7589746c-832c-4242-a1e1-ab9564a8f1e0" opacity="1.000" fill="none" stroke="#f3ba38" stroke-width="4.420" stroke-opacity="1.000" stroke-linecap="round" stroke-linejoin="round" d="M 751.159 -644.875 Q 750.884 -644.875 748.782 -644.830 Q 746.681 -644.785 744.875 -643.765 Q 743.070 -642.745 742.270 -641.564 Q 741.471 -640.384 741.204 -639.085 Q 740.938 -637.785 741.763 -636.539 Q 742.587 -635.293 745.715 -634.351 Q 748.842 -633.410 751.374 -631.947 Q 753.906 -630.484 755.012 -629.545 Q 756.119 -628.605 756.974 -626.026 Q 757.829 -623.447 756.812 -621.469 Q 755.795 -619.490 752.165 -617.557 Q 748.535 -615.624 744.198 -615.687 Q 743.637 -616.337 744.913 -618.368 Q 746.188 -620.398 746.595 -621.125 "></path>
    <path id="STROKE_c6e271f3-2c70-4b92-8522-20314246ce29" opacity="1.000" fill="none" stroke="#f3ba38" stroke-width="4.420" stroke-opacity="1.000" stroke-linecap="round" stroke-linejoin="round" d="M 761.352 -662.203 Q 761.542 -663.518 762.065 -664.711 Q 762.589 -665.904 764.273 -665.102 Q 765.958 -664.301 766.505 -663.633 Q 767.051 -662.966 768.761 -660.092 Q 770.471 -657.219 771.172 -654.859 Q 771.872 -652.500 772.249 -650.344 Q 772.626 -648.189 771.541 -646.388 Q 770.457 -644.587 769.401 -643.715 Q 768.345 -642.843 767.539 -642.569 Q 766.733 -642.296 765.459 -642.054 Q 764.185 -641.813 763.179 -642.449 Q 762.173 -643.086 761.914 -644.177 Q 761.656 -645.269 762.115 -646.768 Q 762.575 -648.268 764.888 -649.721 Q 767.200 -651.174 769.017 -651.762 Q 770.833 -652.351 772.742 -652.117 Q 774.651 -651.884 776.079 -650.965 Q 777.506 -650.046 777.964 -649.781 "></path>
    <path id="STROKE_f8602b17-445d-489e-b409-dbaa6082e270" opacity="1.000" fill="none" stroke="#f3ba38" stroke-width="4.420" stroke-opacity="1.000" stroke-linecap="round" stroke-linejoin="round" d="M 733.401 -579.593 Q 732.116 -580.127 732.546 -579.953 Q 730.758 -580.201 731.400 -580.111 Q 732.043 -580.022 730.292 -580.241 Q 728.540 -580.460 723.750 -579.218 Q 723.750 -578.907 723.750 -578.859 Q 723.915 -578.611 721.358 -578.700 Q 718.800 -578.788 716.829 -579.260 Q 714.859 -579.732 713.654 -579.394 Q 712.449 -579.057 712.011 -576.045 Q 711.572 -573.033 711.656 -570.699 Q 711.740 -568.365 711.877 -566.807 Q 712.014 -565.249 713.741 -563.870 Q 715.467 -562.490 718.527 -562.006 Q 721.586 -561.521 723.536 -561.329 Q 725.485 -561.136 726.572 -560.113 Q 727.659 -559.090 726.794 -556.950 Q 725.930 -554.810 724.901 -553.905 Q 723.872 -552.999 722.416 -551.976 Q 720.959 -550.954 719.471 -550.805 Q 717.984 -550.657 716.892 -551.035 Q 715.801 -551.413 715.736 -552.447 Q 715.670 -553.481 716.328 -554.127 Q 716.987 -554.773 717.456 -555.234 "></path>
    <path id="STROKE_9a2b50bd-ea44-4e5a-8cdf-b7a419f4f3f2" opacity="1.000" fill="none" stroke="#f3ba38" stroke-width="4.420" stroke-opacity="1.000" stroke-linecap="round" stroke-linejoin="round" d="M 757.183 -575.875 Q 756.951 -576.152 755.308 -576.913 Q 753.665 -577.674 752.015 -577.304 Q 750.365 -576.933 749.407 -575.505 Q 748.448 -574.078 748.211 -572.242 Q 747.974 -570.405 748.736 -568.993 Q 749.499 -567.581 750.589 -566.874 Q 751.680 -566.168 753.142 -564.587 Q 754.604 -563.006 755.664 -561.862 Q 756.724 -560.718 757.187 -558.692 Q 757.650 -556.666 757.713 -555.633 Q 757.777 -554.601 757.129 -552.878 Q 756.482 -551.156 745.136 -549.437 Q 744.754 -549.688 746.383 -552.231 Q 748.012 -554.773 748.575 -555.703 "></path>
    <path id="STROKE_476e0479-2f3c-4af5-9e6f-bc74a6090e6b" opacity="1.000" fill="none" stroke="#f3ba38" stroke-width="4.420" stroke-opacity="1.000" stroke-linecap="round" stroke-linejoin="round" d="M 764.854 -593.984 Q 764.854 -595.198 764.854 -595.148 Q 764.854 -596.428 764.854 -596.078 Q 764.854 -596.242 764.854 -596.578 Q 765.220 -596.611 765.594 -596.577 Q 765.967 -596.544 767.353 -595.171 Q 768.739 -593.799 769.452 -592.819 Q 770.165 -591.838 771.065 -590.440 Q 771.965 -589.042 772.849 -586.970 Q 773.733 -584.897 774.174 -583.446 Q 774.615 -581.994 774.357 -580.176 Q 774.099 -578.358 772.599 -576.811 Q 771.098 -575.265 768.864 -574.433 Q 766.631 -573.601 765.435 -574.378 Q 764.239 -575.156 763.732 -577.286 Q 763.226 -579.417 763.058 -581.387 Q 762.891 -583.357 762.891 -584.198 Q 762.892 -585.039 763.168 -586.255 Q 763.445 -587.471 767.336 -587.969 Q 771.226 -588.467 773.389 -588.595 Q 775.552 -588.724 778.563 -587.124 Q 781.574 -585.523 783.547 -584.859 Q 785.520 -584.195 786.052 -584.093 "></path>
    <path id="STROKE_5a23d484-61bb-4ba8-b3eb-9c3be70dee1c" opacity="1.000" fill="none" stroke="#f3ba38" stroke-width="4.420" stroke-opacity="1.000" stroke-linecap="round" stroke-linejoin="round" d="M 802.143 -770.218 Q 801.483 -770.965 801.715 -770.914 Q 801.662 -772.556 801.684 -772.070 Q 802.446 -773.199 803.322 -773.806 Q 804.198 -774.412 806.511 -774.898 Q 808.824 -775.385 810.479 -775.194 Q 812.133 -775.002 813.259 -774.344 Q 814.385 -773.685 815.808 -771.293 Q 817.230 -768.902 817.578 -765.994 Q 817.925 -763.086 817.834 -760.861 Q 817.744 -758.636 815.926 -756.101 Q 814.109 -753.565 812.508 -752.294 Q 810.906 -751.024 809.581 -750.807 Q 808.256 -750.591 807.433 -750.430 Q 806.609 -750.268 806.139 -751.227 Q 805.668 -752.186 805.291 -753.235 Q 804.914 -754.283 804.841 -756.335 Q 804.768 -758.386 805.251 -760.130 Q 805.733 -761.875 807.293 -762.746 Q 808.853 -763.617 810.510 -763.631 Q 812.168 -763.645 813.550 -763.278 Q 814.933 -762.911 817.649 -761.193 Q 820.366 -759.475 822.129 -758.725 Q 823.893 -757.976 824.383 -757.812 "></path>
    <path id="STROKE_9b7c1889-0aca-4c98-9eb8-9a0c4ec10b68" opacity="1.000" fill="none" stroke="#f3ba38" stroke-width="4.420" stroke-opacity="1.000" stroke-linecap="round" stroke-linejoin="round" d="M 832.658 -774.921 Q 833.189 -775.941 833.450 -777.109 Q 833.546 -777.546 835.513 -738.625 Q 836.044 -739.040 835.280 -747.691 Q 834.516 -756.341 833.690 -761.298 Q 832.864 -766.254 832.963 -769.501 Q 833.061 -772.748 832.934 -774.075 Q 832.807 -775.402 833.831 -777.571 Q 834.856 -779.740 836.807 -780.911 Q 838.758 -782.083 840.285 -782.014 Q 841.812 -781.945 843.079 -782.001 Q 844.346 -782.056 845.717 -779.952 Q 847.089 -777.848 847.480 -776.391 Q 847.872 -774.935 848.089 -772.150 Q 848.305 -769.366 847.920 -766.882 Q 847.534 -764.399 846.292 -762.407 Q 845.051 -760.416 843.282 -759.840 Q 841.514 -759.265 839.805 -759.224 Q 838.096 -759.184 837.420 -759.724 Q 836.744 -760.264 836.453 -761.179 Q 836.162 -762.093 836.227 -763.528 Q 836.292 -764.963 837.044 -766.427 Q 837.795 -767.890 838.285 -768.750 "></path>
    <path id="STROKE_c361a949-e2a9-4ea5-9be0-1d03e4b8208c" opacity="1.000" fill="none" stroke="#f3ba38" stroke-width="4.420" stroke-opacity="1.000" stroke-linecap="round" stroke-linejoin="round" d="M 862.589 -805.109 Q 862.803 -804.693 862.036 -808.859 Q 861.421 -809.198 859.981 -806.658 Q 858.540 -804.118 857.494 -800.456 Q 856.448 -796.793 856.236 -794.629 Q 856.024 -792.466 856.014 -790.043 Q 856.004 -787.620 856.627 -785.428 Q 857.250 -783.237 858.629 -782.267 Q 860.008 -781.298 861.480 -780.860 Q 862.952 -780.422 865.036 -781.385 Q 867.119 -782.347 868.178 -783.715 Q 869.237 -785.084 869.702 -786.178 Q 870.167 -787.273 870.305 -788.627 Q 870.443 -789.982 870.221 -790.731 Q 869.999 -791.480 868.169 -792.375 Q 866.339 -793.271 864.376 -793.556 Q 862.414 -793.841 860.811 -792.099 Q 859.209 -790.356 858.403 -788.958 Q 857.596 -787.559 857.058 -785.780 Q 856.519 -784.001 856.997 -782.665 Q 857.474 -781.329 858.494 -780.832 Q 859.514 -780.335 859.942 -780.109 "></path>
    <path id="STROKE_ae5c8d1b-71c2-42fc-8556-976563b4ac03" opacity="1.000" fill="none" stroke="#f3ba38" stroke-width="4.420" stroke-opacity="1.000" stroke-linecap="round" stroke-linejoin="round" d="M 802.268 -717.000 Q 801.674 -717.596 801.778 -719.296 Q 801.430 -719.320 804.442 -719.480 Q 807.453 -719.640 810.035 -719.360 Q 812.617 -719.080 814.172 -718.633 Q 815.726 -718.187 816.786 -717.138 Q 817.846 -716.089 817.773 -714.765 Q 817.700 -713.441 814.648 -711.195 Q 811.595 -708.948 805.311 -705.820 Q 805.258 -705.551 806.342 -705.579 Q 807.425 -705.608 809.715 -705.440 Q 812.004 -705.271 813.609 -704.907 Q 815.214 -704.543 816.535 -703.681 Q 817.857 -702.818 818.432 -701.827 Q 819.006 -700.835 819.171 -699.770 Q 819.336 -698.705 819.550 -697.784 Q 819.763 -696.864 818.645 -694.569 Q 817.527 -692.273 815.449 -690.373 Q 813.371 -688.473 810.511 -687.968 Q 809.742 -689.342 811.085 -692.159 Q 812.429 -694.976 812.794 -695.578 "></path>
    <path id="STROKE_7f5a4449-4778-424a-acc0-0a93eda3ead4" opacity="1.000" fill="none" stroke="#f3ba38" stroke-width="4.420" stroke-opacity="1.000" stroke-linecap="round" stroke-linejoin="round" d="M 830.886 -716.875 Q 830.886 -716.937 830.886 -717.734 Q 830.756 -716.667 830.503 -707.684 Q 830.250 -698.702 830.316 -692.663 Q 830.382 -686.625 831.046 -681.826 Q 831.710 -677.026 831.901 -674.225 Q 832.092 -671.425 831.897 -668.968 Q 831.200 -668.425 831.411 -676.438 Q 831.621 -684.451 831.302 -692.011 Q 830.983 -699.570 830.762 -703.532 Q 830.540 -707.495 830.630 -709.598 Q 830.720 -711.702 831.937 -714.347 Q 833.153 -716.992 834.698 -718.638 Q 836.244 -720.285 837.346 -720.935 Q 838.448 -721.585 839.233 -721.555 Q 840.017 -721.526 840.444 -721.683 Q 840.871 -721.840 842.789 -720.466 Q 844.708 -719.092 845.393 -715.469 Q 846.077 -711.847 846.165 -709.663 Q 846.254 -707.480 845.690 -705.243 Q 845.126 -703.007 843.608 -701.178 Q 842.090 -699.350 839.977 -698.479 Q 837.865 -697.608 836.280 -697.657 Q 834.695 -697.706 834.116 -698.963 Q 833.536 -700.220 834.014 -702.672 Q 834.492 -705.125 834.659 -705.593 "></path>
    <path id="STROKE_107c3c38-707b-4ac0-9cd5-0f17f9dde8c2" opacity="1.000" fill="none" stroke="#f3ba38" stroke-width="4.420" stroke-opacity="1.000" stroke-linecap="round" stroke-linejoin="round" d="M 799.621 -651.312 Q 799.687 -651.351 799.459 -652.133 Q 799.231 -652.915 798.894 -653.630 Q 798.556 -654.345 797.703 -654.968 Q 797.123 -654.350 796.994 -650.516 Q 796.865 -646.682 797.848 -643.334 Q 798.831 -639.985 800.078 -637.507 Q 801.326 -635.029 802.427 -634.126 Q 803.527 -633.224 804.422 -632.844 Q 805.316 -632.464 805.886 -632.636 Q 806.457 -632.808 807.326 -633.145 Q 808.195 -633.482 809.101 -634.401 Q 810.008 -635.320 810.893 -636.349 Q 811.777 -637.378 812.306 -639.302 Q 812.835 -641.226 813.002 -641.828 "></path>
    <path id="STROKE_29b9050a-e8e9-49b1-bede-d2d0db0a87bf" opacity="1.000" fill="none" stroke="#f3ba38" stroke-width="4.362" stroke-opacity="1.000" stroke-linecap="round" stroke-linejoin="round" d="M 813.732 -651.843 Q 813.790 -651.889 812.398 -651.648 Q 812.151 -651.500 811.481 -619.398 Q 812.543 -619.431 812.887 -621.223 Q 813.231 -623.015 813.461 -623.640 "></path>
    <path id="STROKE_336992fc-0c1c-4fcf-a61f-d64f8c1055fe" opacity="1.000" fill="none" stroke="#f3ba38" stroke-width="4.344" stroke-opacity="1.000" stroke-linecap="round" stroke-linejoin="round" d="M 826.780 -646.734 Q 826.780 -646.734 826.709 -645.916 Q 826.638 -645.098 826.696 -645.437 Q 826.800 -646.236 825.143 -610.671 Q 825.216 -610.640 825.352 -610.640 Q 825.589 -611.070 826.192 -616.003 Q 826.795 -620.937 826.829 -625.624 Q 826.864 -630.311 826.847 -632.820 Q 826.830 -635.329 826.885 -637.637 Q 826.941 -639.946 826.809 -642.614 Q 826.677 -645.281 827.070 -647.898 Q 827.464 -650.514 828.171 -651.929 Q 828.878 -653.344 830.262 -654.253 Q 831.647 -655.161 832.582 -655.359 Q 833.516 -655.557 834.452 -655.193 Q 835.387 -654.829 835.931 -654.232 Q 836.475 -653.635 837.504 -651.454 Q 838.532 -649.272 838.919 -646.039 Q 839.305 -642.806 839.382 -640.144 Q 839.459 -637.482 838.847 -636.196 Q 838.236 -634.910 837.302 -633.622 Q 836.369 -632.334 835.404 -631.798 Q 834.439 -631.263 833.372 -631.130 Q 832.305 -630.997 831.557 -631.531 Q 830.810 -632.065 830.631 -632.710 Q 830.452 -633.355 830.433 -633.669 Q 830.415 -633.984 830.379 -635.019 Q 830.344 -636.054 830.281 -636.515 "></path>
    <path id="STROKE_8a7632a4-4463-4a35-a491-ffed022c42d7" opacity="1.000" fill="none" stroke="#f3ba38" stroke-width="4.420" stroke-opacity="1.000" stroke-linecap="round" stroke-linejoin="round" d="M 859.546 -669.625 Q 858.522 -669.625 858.454 -669.625 Q 858.387 -669.625 858.460 -669.527 Q 858.532 -669.430 857.758 -669.743 Q 856.985 -670.057 855.746 -667.687 Q 854.508 -665.317 853.906 -663.243 Q 853.304 -661.170 853.117 -659.344 Q 852.930 -657.518 852.929 -655.024 Q 852.927 -652.531 853.948 -650.357 Q 854.969 -648.182 856.739 -646.904 Q 858.509 -645.626 860.216 -645.347 Q 861.923 -645.067 863.260 -645.149 Q 864.597 -645.230 865.579 -646.284 Q 866.560 -647.337 867.054 -649.103 Q 867.548 -650.868 866.931 -652.263 Q 866.313 -653.658 865.178 -654.739 Q 864.044 -655.820 862.785 -655.849 Q 861.527 -655.879 860.436 -655.827 Q 859.344 -655.775 858.857 -654.289 Q 858.369 -652.804 858.117 -651.448 Q 857.865 -650.091 860.050 -649.459 Q 862.234 -648.828 862.797 -648.734 "></path>
    <path id="STROKE_24a20db8-7012-447e-a14a-ff5ce394e9cd" opacity="1.000" fill="none" stroke="#f3ba38" stroke-width="4.420" stroke-opacity="1.000" stroke-linecap="round" stroke-linejoin="round" d="M 863.652 -734.843 Q 863.678 -734.576 863.355 -735.069 Q 863.031 -735.563 862.704 -736.191 Q 862.377 -736.820 861.954 -737.331 Q 861.530 -737.843 861.585 -737.773 Q 861.640 -737.703 861.067 -737.590 Q 860.494 -737.477 859.242 -735.423 Q 857.990 -733.369 857.613 -730.824 Q 857.237 -728.279 857.204 -726.042 Q 857.170 -723.804 858.427 -722.527 Q 859.683 -721.250 861.692 -720.997 Q 863.700 -720.744 865.436 -721.617 Q 867.172 -722.491 868.148 -723.313 Q 869.125 -724.136 869.375 -725.550 Q 869.624 -726.964 869.641 -727.936 Q 869.657 -728.908 867.313 -729.371 Q 864.968 -729.834 863.029 -729.456 Q 861.091 -729.078 860.319 -728.270 Q 859.548 -727.461 858.601 -726.178 Q 857.655 -724.895 858.386 -722.971 Q 859.118 -721.046 859.421 -720.718 "></path>
    <path id="STROKE_b633e879-b8e8-41a8-b384-369970a9327c" opacity="1.000" fill="none" stroke="#f3ba38" stroke-width="4.420" stroke-opacity="1.000" stroke-linecap="round" stroke-linejoin="round" d="M 817.504 -578.390 Q 817.536 -578.390 817.838 -578.390 Q 817.838 -578.429 817.807 -578.593 Q 818.033 -578.737 814.544 -579.224 Q 811.055 -579.710 809.049 -579.831 Q 807.043 -579.953 805.177 -579.393 Q 803.311 -578.833 802.266 -577.934 Q 801.220 -577.035 800.503 -575.045 Q 799.786 -573.056 799.764 -571.703 Q 799.742 -570.350 800.131 -569.026 Q 800.520 -567.702 803.937 -567.061 Q 807.354 -566.419 809.493 -566.524 Q 811.632 -566.628 813.706 -565.618 Q 815.779 -564.607 815.914 -561.852 Q 816.049 -559.097 815.114 -556.502 Q 814.179 -553.906 812.921 -552.130 Q 811.663 -550.354 810.916 -549.417 Q 810.168 -548.479 808.617 -548.189 Q 807.065 -547.898 805.918 -548.306 Q 804.771 -548.713 803.787 -549.897 Q 802.803 -551.082 803.067 -552.412 Q 803.331 -553.742 803.602 -554.171 "></path>
    <path id="STROKE_efbb7556-07e6-4c66-9dc3-6f28402519a2" opacity="1.000" fill="none" stroke="#f3ba38" stroke-width="4.277" stroke-opacity="1.000" stroke-linecap="round" stroke-linejoin="round" d="M 828.635 -577.328 Q 828.556 -577.778 829.062 -579.984 Q 829.855 -579.508 829.895 -569.850 Q 829.934 -560.193 829.515 -553.742 Q 829.096 -547.290 828.527 -541.046 Q 827.957 -534.801 827.697 -520.609 Q 827.666 -520.609 827.634 -520.609 Q 827.182 -520.075 827.300 -527.819 Q 827.418 -535.563 827.256 -540.941 Q 827.093 -546.318 826.691 -551.884 Q 826.288 -557.450 826.272 -561.286 Q 826.255 -565.122 827.018 -568.654 Q 827.780 -572.186 829.088 -575.632 Q 830.395 -579.079 832.154 -581.413 Q 833.913 -583.746 835.384 -584.950 Q 836.856 -586.154 837.732 -586.055 Q 838.608 -585.956 840.093 -582.864 Q 841.578 -579.772 841.929 -575.331 Q 842.280 -570.890 842.237 -568.466 Q 842.194 -566.043 841.877 -564.680 Q 841.560 -563.317 840.827 -561.591 Q 840.093 -559.864 838.918 -558.662 Q 837.742 -557.461 835.966 -557.237 Q 834.190 -557.014 832.566 -557.893 Q 830.942 -558.772 830.695 -560.624 Q 830.448 -562.476 830.406 -562.875 "></path>
    <path id="STROKE_0b277f14-b6c5-4184-9ebe-4a7024dadeb5" opacity="1.000" fill="none" stroke="#f3ba38" stroke-width="4.420" stroke-opacity="1.000" stroke-linecap="round" stroke-linejoin="round" d="M 858.691 -600.625 Q 858.857 -600.476 858.638 -601.197 Q 858.420 -601.918 858.088 -602.201 Q 857.756 -602.483 857.479 -602.426 Q 857.203 -602.370 856.845 -602.189 Q 856.488 -602.008 856.328 -601.697 Q 856.169 -601.386 856.056 -601.216 Q 855.944 -601.046 855.465 -600.438 Q 854.986 -599.831 853.446 -597.085 Q 851.905 -594.339 851.250 -591.169 Q 850.595 -587.998 850.712 -585.855 Q 850.829 -583.712 851.779 -581.845 Q 852.729 -579.979 854.824 -578.763 Q 856.919 -577.548 859.033 -577.244 Q 861.146 -576.939 862.633 -577.499 Q 864.121 -578.058 864.770 -579.020 Q 865.419 -579.983 865.641 -581.173 Q 865.862 -582.363 865.727 -583.571 Q 865.592 -584.780 864.271 -585.701 Q 862.951 -586.621 861.318 -586.996 Q 859.684 -587.372 858.393 -586.721 Q 857.101 -586.071 856.593 -585.563 Q 856.085 -585.055 855.672 -584.080 Q 855.259 -583.105 856.345 -582.224 Q 857.430 -581.343 857.899 -581.109 "></path>
    <path id="STROKE_fc7276e9-e9a6-43f7-b44b-3d4f4836b2a4" opacity="1.000" fill="none" stroke="#f3ba38" stroke-width="4.420" stroke-opacity="1.000" stroke-linecap="round" stroke-linejoin="round" d="M 896.230 -717.203 Q 896.121 -717.300 895.772 -717.671 Q 897.025 -717.777 896.595 -717.734 Q 898.412 -717.734 897.856 -717.734 Q 897.730 -718.089 899.950 -717.815 Q 902.171 -717.542 903.975 -717.014 Q 905.779 -716.487 907.727 -715.364 Q 909.676 -714.240 910.861 -712.626 Q 912.047 -711.013 911.989 -710.312 Q 911.931 -709.611 910.820 -708.997 Q 909.709 -708.383 908.273 -707.840 Q 906.836 -707.297 904.945 -706.828 Q 903.053 -706.359 901.509 -706.161 Q 899.965 -705.964 898.544 -705.859 Q 897.401 -705.698 900.425 -705.866 Q 903.449 -706.035 905.490 -705.941 Q 907.531 -705.848 908.464 -705.329 Q 909.397 -704.810 910.143 -702.986 Q 910.889 -701.162 909.531 -699.050 Q 908.174 -696.939 905.960 -694.691 Q 903.745 -692.443 899.607 -691.328 Q 898.706 -691.031 900.069 -693.882 Q 901.431 -696.734 901.795 -697.359 "></path>
    <path id="STROKE_106de392-5509-467a-846a-eb3c4f80a32a" opacity="1.000" fill="none" stroke="#f3ba38" stroke-width="4.420" stroke-opacity="1.000" stroke-linecap="round" stroke-linejoin="round" d="M 936.625 -707.578 Q 936.735 -708.456 936.577 -709.448 Q 936.419 -710.439 935.838 -711.047 Q 935.257 -711.655 934.675 -711.852 Q 934.093 -712.048 933.495 -712.046 Q 932.897 -712.043 932.744 -712.031 Q 932.592 -712.020 931.397 -712.025 Q 930.202 -712.030 928.192 -710.492 Q 926.182 -708.954 924.914 -706.862 Q 923.646 -704.771 923.265 -702.337 Q 922.884 -699.903 923.036 -698.468 Q 923.188 -697.033 923.964 -695.814 Q 924.739 -694.594 926.540 -694.297 Q 928.340 -694.000 930.384 -694.255 Q 932.427 -694.510 935.620 -698.634 Q 938.813 -702.758 941.909 -708.284 Q 945.005 -713.809 946.620 -716.788 Q 948.235 -719.768 949.478 -724.855 Q 950.722 -729.942 950.434 -734.578 Q 949.452 -733.933 949.607 -733.922 Q 949.761 -733.911 948.832 -732.819 Q 947.903 -731.727 945.764 -728.390 Q 943.624 -725.052 941.658 -720.212 Q 939.692 -715.372 939.136 -710.078 Q 938.579 -704.784 938.622 -702.010 Q 938.664 -699.236 939.152 -697.442 Q 939.640 -695.647 940.510 -694.687 Q 941.380 -693.727 943.782 -693.530 Q 946.185 -693.333 948.005 -694.213 Q 949.825 -695.093 950.984 -696.675 Q 952.143 -698.257 952.508 -698.687 "></path>
    <path id="STROKE_de620dfc-2a0d-4275-9ce0-0b3a2bd983a4" opacity="1.000" fill="none" stroke="#f3ba38" stroke-width="4.420" stroke-opacity="1.000" stroke-linecap="round" stroke-linejoin="round" d="M 961.992 -750.437 Q 962.491 -751.242 962.700 -752.109 L 962.742 -752.109 Q 962.814 -751.905 962.846 -729.671 Q 963.983 -729.633 964.509 -730.898 Q 965.035 -732.164 965.431 -732.859 "></path>
    <path id="STROKE_a7c3265d-6d8c-4208-8339-6986637569c9" opacity="1.000" fill="none" stroke="#f3ba38" stroke-width="4.420" stroke-opacity="1.000" stroke-linecap="round" stroke-linejoin="round" d="M 975.811 -750.109 Q 975.115 -750.849 975.227 -750.773 Q 974.970 -751.014 974.956 -751.109 Q 975.244 -750.784 974.675 -746.380 Q 974.106 -741.975 974.057 -739.517 Q 974.008 -737.059 974.118 -735.912 Q 974.228 -734.765 974.668 -734.058 Q 975.108 -733.350 975.398 -733.054 Q 975.689 -732.757 976.188 -732.330 Q 976.687 -731.903 976.963 -731.737 Q 977.239 -731.571 977.498 -731.464 Q 977.757 -731.357 978.285 -730.888 Q 978.814 -730.419 979.980 -730.174 Q 981.146 -729.928 982.204 -730.133 Q 983.262 -730.339 985.792 -733.774 Q 988.322 -737.208 989.509 -739.892 Q 990.695 -742.576 991.216 -744.178 Q 991.738 -745.780 990.729 -747.244 Q 989.719 -748.707 985.944 -749.669 Q 982.169 -750.631 978.406 -750.476 Q 978.302 -750.242 978.218 -750.058 Q 978.135 -749.875 977.999 -749.640 "></path>
    <path id="STROKE_fb3cdd5f-c0d3-4993-b5fc-ac9f668f35f0" opacity="1.000" fill="none" stroke="#f3ba38" stroke-width="4.420" stroke-opacity="1.000" stroke-linecap="round" stroke-linejoin="round" d="M 892.187 -646.531 Q 892.379 -646.654 891.697 -648.265 Q 891.333 -648.180 890.842 -644.201 Q 890.351 -640.221 890.457 -637.940 Q 890.563 -635.660 890.607 -634.644 Q 890.651 -633.629 891.151 -632.598 Q 891.650 -631.567 892.081 -631.102 Q 892.513 -630.638 893.695 -629.872 Q 894.878 -629.106 897.091 -629.236 Q 899.305 -629.367 900.702 -629.871 Q 902.100 -630.374 905.126 -632.503 Q 908.153 -634.632 908.549 -635.000 "></path>
    <path id="STROKE_cf34e4dd-755c-498f-986b-0cebdb7127b3" opacity="1.000" fill="none" stroke="#f3ba38" stroke-width="4.420" stroke-opacity="1.000" stroke-linecap="round" stroke-linejoin="round" d="M 907.694 -647.671 Q 908.094 -647.699 906.162 -647.601 Q 905.748 -645.896 905.902 -616.343 Q 906.037 -616.546 906.173 -616.750 "></path>
    <path id="STROKE_9fd92fcb-231b-495e-9394-a7c2d6279a0b" opacity="1.000" fill="none" stroke="#f3ba38" stroke-width="4.420" stroke-opacity="1.000" stroke-linecap="round" stroke-linejoin="round" d="M 933.040 -628.093 Q 933.125 -628.327 932.209 -630.465 Q 931.294 -632.602 930.377 -633.876 Q 929.460 -635.149 928.372 -635.495 Q 927.285 -635.840 926.953 -635.902 Q 926.621 -635.965 925.005 -635.391 Q 923.389 -634.816 922.167 -631.418 Q 920.946 -628.021 920.471 -625.956 Q 919.996 -623.891 919.952 -622.174 Q 919.908 -620.457 919.871 -619.301 Q 919.833 -618.146 920.569 -617.579 Q 921.304 -617.012 922.977 -616.817 Q 924.650 -616.622 927.435 -618.832 Q 930.220 -621.043 933.278 -625.669 Q 936.335 -630.296 938.053 -633.257 Q 939.771 -636.219 941.842 -642.623 Q 943.913 -649.027 945.025 -655.421 Q 945.275 -654.617 942.555 -648.189 Q 939.834 -641.762 938.567 -636.610 Q 937.300 -631.459 936.902 -628.051 Q 936.503 -624.643 936.743 -622.329 Q 936.983 -620.015 938.041 -618.272 Q 939.099 -616.530 940.867 -615.864 Q 942.636 -615.198 944.591 -615.569 Q 946.547 -615.940 948.423 -617.587 Q 950.298 -619.234 951.195 -619.937 "></path>
    <path id="STROKE_35013dc9-198f-4cb4-b8f7-47f7b21e63df" opacity="1.000" fill="none" stroke="#f3ba38" stroke-width="4.420" stroke-opacity="1.000" stroke-linecap="round" stroke-linejoin="round" d="M 959.532 -664.578 Q 960.149 -663.680 959.928 -663.851 Q 959.928 -662.311 959.928 -662.625 Q 959.968 -661.844 959.232 -657.532 Q 958.497 -653.219 958.938 -648.523 Q 959.576 -648.311 959.815 -648.370 Q 960.053 -648.429 960.449 -648.468 "></path>
    <path id="STROKE_eff7b397-1855-4647-8e7b-2f155edf8fab" opacity="1.000" fill="none" stroke="#f3ba38" stroke-width="4.420" stroke-opacity="1.000" stroke-linecap="round" stroke-linejoin="round" d="M 973.977 -668.625 Q 973.757 -668.260 973.170 -668.127 Q 972.583 -667.995 972.319 -665.318 Q 972.055 -662.641 972.048 -659.758 Q 972.040 -656.876 972.206 -655.021 Q 972.372 -653.165 973.159 -651.774 Q 973.947 -650.382 975.626 -649.375 Q 977.305 -648.369 978.703 -648.457 Q 980.100 -648.545 981.559 -649.887 Q 983.018 -651.230 983.870 -653.841 Q 984.723 -656.452 984.836 -658.752 Q 984.949 -661.052 983.921 -663.023 Q 982.893 -664.993 980.933 -666.012 Q 978.973 -667.031 977.418 -667.255 Q 975.863 -667.478 974.348 -666.909 Q 972.834 -666.340 971.811 -664.896 Q 970.787 -663.453 970.454 -662.921 "></path>
    <path id="STROKE_22cb28e1-2251-4408-b26c-aa601bc47474" opacity="1.000" fill="none" stroke="#f3ba38" stroke-width="4.420" stroke-opacity="1.000" stroke-linecap="round" stroke-linejoin="round" d="M 908.820 -577.265 Q 908.776 -577.277 903.323 -577.672 Q 897.869 -578.067 894.672 -577.990 Q 891.475 -577.914 890.195 -577.881 Q 888.915 -577.849 887.216 -577.893 Q 885.517 -577.937 885.336 -573.788 Q 885.154 -569.640 885.037 -567.238 Q 884.919 -564.835 885.743 -563.448 Q 886.566 -562.061 887.405 -561.460 Q 888.244 -560.859 889.389 -560.644 Q 890.534 -560.429 893.441 -560.478 Q 896.348 -560.527 897.902 -560.489 Q 899.457 -560.452 900.891 -559.961 Q 902.326 -559.470 902.804 -557.045 Q 903.282 -554.619 902.460 -551.989 Q 901.638 -549.359 900.386 -547.104 Q 899.134 -544.849 897.543 -544.469 Q 895.951 -544.089 894.909 -544.280 Q 893.868 -544.472 892.863 -545.225 Q 891.858 -545.978 891.466 -546.943 Q 891.075 -547.908 890.952 -548.792 Q 890.828 -549.675 891.148 -550.564 Q 891.468 -551.453 891.728 -551.984 "></path>
    <path id="STROKE_04fe279c-e5bf-41ee-bf4c-a200d973918c" opacity="1.000" fill="none" stroke="#f3ba38" stroke-width="4.405" stroke-opacity="1.000" stroke-linecap="round" stroke-linejoin="round" d="M 933.040 -558.218 Q 932.930 -558.294 932.491 -558.767 Q 932.052 -559.241 932.249 -559.005 Q 932.446 -558.769 932.034 -559.270 Q 931.621 -559.770 930.253 -560.985 Q 928.885 -562.200 927.436 -562.865 Q 925.988 -563.531 925.096 -563.472 Q 924.205 -563.413 923.643 -563.250 Q 923.081 -563.087 922.642 -562.682 Q 922.204 -562.277 921.877 -561.960 Q 921.551 -561.643 920.546 -560.140 Q 919.540 -558.636 918.884 -555.157 Q 918.229 -551.677 918.316 -549.200 Q 918.404 -546.723 918.916 -545.294 Q 919.427 -543.865 920.584 -542.696 Q 921.742 -541.526 923.217 -541.455 Q 924.692 -541.385 926.180 -542.127 Q 927.667 -542.868 929.504 -544.914 Q 931.342 -546.959 933.314 -549.846 Q 935.285 -552.732 937.077 -555.831 Q 938.868 -558.930 940.603 -562.154 Q 942.337 -565.378 943.887 -568.659 Q 945.437 -571.940 946.407 -575.102 Q 947.378 -578.263 947.585 -580.420 Q 947.792 -582.576 947.433 -583.687 Q 947.074 -584.798 946.751 -585.131 Q 946.427 -585.464 945.751 -585.598 Q 945.075 -585.731 942.918 -580.587 Q 940.761 -575.442 939.281 -570.746 Q 937.801 -566.050 937.162 -562.216 Q 936.523 -558.381 936.439 -555.302 Q 936.355 -552.222 936.547 -549.833 Q 936.740 -547.444 937.421 -546.114 Q 938.102 -544.784 939.083 -543.706 Q 940.063 -542.628 942.460 -541.974 Q 944.856 -541.320 948.666 -544.199 Q 952.476 -547.078 952.904 -547.546 "></path>
    <path id="STROKE_1ab2121f-3b87-417d-a3ba-897ba2bf7fe6" opacity="1.000" fill="none" stroke="#f3ba38" stroke-width="4.420" stroke-opacity="1.000" stroke-linecap="round" stroke-linejoin="round" d="M 959.657 -594.578 Q 959.618 -594.576 960.532 -595.906 Q 960.851 -596.354 960.071 -590.332 Q 959.290 -584.309 959.448 -580.291 Q 959.605 -576.273 959.803 -576.078 "></path>
    <path id="STROKE_22b0ef67-25a7-49a3-a256-e02acae1da9d" opacity="1.000" fill="none" stroke="#f3ba38" stroke-width="4.420" stroke-opacity="1.000" stroke-linecap="round" stroke-linejoin="round" d="M 970.996 -594.515 Q 970.580 -594.108 970.096 -592.667 Q 969.612 -591.225 969.385 -587.213 Q 969.159 -583.201 969.147 -580.542 Q 969.136 -577.883 969.902 -576.335 Q 970.668 -574.787 971.396 -574.236 Q 972.125 -573.686 974.094 -573.831 Q 976.062 -573.976 977.923 -575.791 Q 979.785 -577.606 980.512 -581.149 Q 981.239 -584.692 981.193 -586.505 Q 981.146 -588.317 980.778 -589.582 Q 980.409 -590.847 979.395 -591.881 Q 978.381 -592.915 976.910 -593.304 Q 975.438 -593.693 973.522 -593.647 Q 971.607 -593.600 970.619 -592.483 Q 969.631 -591.367 969.328 -591.000 "></path>
    <path id="STROKE_dd475a4a-45cc-48fe-a9f7-0cf40e59b9cd" opacity="1.000" fill="none" stroke="#f3ba38" stroke-width="4.420" stroke-opacity="1.000" stroke-linecap="round" stroke-linejoin="round" d="M 1006.472 -652.046 Q 1006.346 -652.746 1006.284 -652.609 Q 1005.364 -651.856 1004.906 -648.472 Q 1004.448 -645.087 1004.392 -643.216 Q 1004.335 -641.345 1004.502 -640.447 Q 1004.668 -639.549 1005.757 -638.560 Q 1006.846 -637.571 1009.058 -637.342 Q 1011.271 -637.113 1013.126 -637.406 Q 1014.981 -637.699 1017.099 -639.213 Q 1019.217 -640.726 1019.645 -641.093 "></path>
    <path id="STROKE_4588aec8-887f-4181-9549-6208716abee5" opacity="1.000" fill="none" stroke="#f3ba38" stroke-width="4.177" stroke-opacity="1.000" stroke-linecap="round" stroke-linejoin="round" d="M 1022.438 -654.562 Q 1021.403 -654.826 1021.769 -644.230 Q 1022.134 -633.634 1021.802 -620.390 Q 1021.865 -620.390 1021.937 -620.390 Q 1022.031 -620.204 1022.120 -621.508 Q 1022.208 -622.812 1022.313 -623.312 "></path>
    <path id="STROKE_87ed97a4-7034-41f6-809c-d81d5531d93f" opacity="1.000" fill="none" stroke="#f3ba38" stroke-width="4.420" stroke-opacity="1.000" stroke-linecap="round" stroke-linejoin="round" d="M 1050.701 -651.515 Q 1050.725 -652.079 1050.752 -653.562 Q 1050.780 -655.044 1049.990 -655.959 Q 1049.200 -656.874 1048.164 -656.949 Q 1047.128 -657.025 1046.000 -656.910 Q 1044.873 -656.796 1044.057 -656.430 Q 1043.240 -656.064 1042.314 -653.859 Q 1041.387 -651.653 1041.539 -648.837 Q 1041.690 -646.022 1043.036 -642.154 Q 1044.381 -638.285 1044.942 -634.892 Q 1045.503 -631.499 1045.509 -628.678 Q 1045.514 -625.858 1044.805 -623.234 Q 1044.096 -620.610 1043.226 -618.862 Q 1042.356 -617.114 1041.410 -616.415 Q 1040.463 -615.715 1039.465 -615.603 Q 1038.466 -615.490 1037.874 -616.946 Q 1037.282 -618.402 1037.139 -619.712 Q 1036.997 -621.023 1036.861 -621.656 "></path>
    <path id="STROKE_60beff0c-5990-4bb5-be09-8674ac0d81ad" opacity="1.000" fill="none" stroke="#f3ba38" stroke-width="4.420" stroke-opacity="1.000" stroke-linecap="round" stroke-linejoin="round" d="M 1031.713 -638.968 Q 1031.701 -639.047 1031.744 -638.406 Q 1032.827 -638.114 1039.091 -638.520 Q 1045.356 -638.926 1049.139 -638.303 Q 1052.921 -637.679 1053.682 -637.453 "></path>
    <path id="STROKE_44d3f98e-be15-4d27-8deb-f8c9d9368b0c" opacity="1.000" fill="none" stroke="#f3ba38" stroke-width="4.420" stroke-opacity="1.000" stroke-linecap="round" stroke-linejoin="round" d="M 1064.083 -670.625 Q 1064.224 -669.625 1064.208 -669.726 Q 1064.347 -668.758 1064.292 -668.828 Q 1064.552 -668.322 1063.687 -650.921 Q 1063.663 -651.902 1063.972 -652.439 Q 1064.281 -652.976 1064.479 -653.375 "></path>
    <path id="STROKE_e759a670-a8a2-45ff-b7e7-df542b617cf6" opacity="1.000" fill="none" stroke="#f3ba38" stroke-width="4.420" stroke-opacity="1.000" stroke-linecap="round" stroke-linejoin="round" d="M 1072.691 -673.937 Q 1072.245 -674.305 1071.934 -671.599 Q 1071.624 -668.893 1071.732 -666.961 Q 1071.841 -665.028 1072.546 -663.772 Q 1073.251 -662.516 1074.968 -661.513 Q 1076.686 -660.510 1079.307 -661.290 Q 1081.929 -662.069 1083.881 -663.956 Q 1085.833 -665.843 1086.260 -666.375 "></path>
    <path id="STROKE_7899a0e7-5a96-4856-846c-af64bdaaba77" opacity="1.000" fill="none" stroke="#f3ba38" stroke-width="4.420" stroke-opacity="1.000" stroke-linecap="round" stroke-linejoin="round" d="M 1086.198 -677.328 Q 1084.470 -677.148 1084.645 -648.734 L 1084.676 -648.734 Q 1084.708 -648.828 1084.739 -648.921 "></path>
    <path id="STROKE_92af55a7-aa96-4f8e-a8ca-05586bdcbd25" opacity="1.000" fill="none" stroke="#b1fa7e" stroke-width="4.760" stroke-opacity="1.000" stroke-linecap="round" stroke-linejoin="round" d="M 594.562 -828.000 Q 594.562 -828.039 594.500 -828.406 Q 594.458 -828.406 594.416 -828.406 Q 594.213 -827.731 595.782 -804.453 Q 595.969 -804.740 598.779 -812.872 Q 601.589 -821.005 606.902 -829.000 Q 607.322 -828.974 608.077 -826.315 Q 608.833 -823.656 609.381 -821.473 Q 609.929 -819.289 610.234 -818.076 Q 610.539 -816.863 610.950 -813.965 Q 611.361 -811.066 611.873 -807.968 Q 612.117 -807.903 612.339 -808.365 Q 612.561 -808.828 612.759 -809.093 "></path>
    <path id="STROKE_2c09c09b-7fc5-436c-b4a1-02e22403be6a" opacity="1.000" fill="none" stroke="#b1fa7e" stroke-width="4.760" stroke-opacity="1.000" stroke-linecap="round" stroke-linejoin="round" d="M 621.971 -823.625 Q 623.221 -822.098 622.961 -822.671 Q 622.193 -822.172 630.508 -822.816 Q 638.823 -823.460 639.313 -823.562 "></path>
    <path id="STROKE_5a2659c8-14ba-4db3-a62e-51aba9eb18d1" opacity="1.000" fill="none" stroke="#b1fa7e" stroke-width="4.760" stroke-opacity="1.000" stroke-linecap="round" stroke-linejoin="round" d="M 626.265 -812.156 Q 626.265 -812.117 626.265 -812.015 Q 626.744 -811.716 633.310 -813.143 Q 639.876 -814.570 640.772 -814.796 "></path>
    <path id="STROKE_97c0ca38-f804-4eb5-95a7-7b2aae5fd7cf" opacity="1.000" fill="none" stroke="#b1fa7e" stroke-width="4.760" stroke-opacity="1.000" stroke-linecap="round" stroke-linejoin="round" d="M 655.342 -821.765 Q 655.311 -821.765 655.217 -821.804 Q 655.390 -821.601 654.977 -822.288 Q 654.564 -822.974 666.035 -833.984 Q 666.611 -832.636 665.526 -825.963 Q 664.440 -819.289 663.867 -813.316 Q 663.294 -807.343 663.033 -807.109 "></path>
    <path id="STROKE_a269a521-708d-4382-a99f-2bb21fb9db40" opacity="1.000" fill="none" stroke="#b1fa7e" stroke-width="4.760" stroke-opacity="1.000" stroke-linecap="round" stroke-linejoin="round" d="M 650.840 -800.078 Q 651.815 -800.083 651.767 -800.140 Q 652.753 -800.427 658.114 -801.801 Q 663.475 -803.174 668.085 -803.235 Q 672.694 -803.296 673.622 -803.265 "></path>
    <path id="STROKE_3aac9634-f05a-4a46-b9d5-c94ed8fb9025" opacity="1.000" fill="none" stroke="#b1fa7e" stroke-width="4.760" stroke-opacity="1.000" stroke-linecap="round" stroke-linejoin="round" d="M 594.750 -771.546 Q 595.021 -770.962 594.990 -771.046 Q 595.219 -769.112 595.173 -769.337 Q 595.127 -769.562 595.143 -768.984 Q 595.160 -768.407 595.183 -768.014 Q 595.205 -767.620 595.224 -767.197 Q 595.243 -766.774 595.267 -765.533 Q 595.291 -764.292 595.216 -758.548 Q 595.141 -752.803 595.907 -745.859 Q 596.676 -746.507 596.663 -746.582 Q 596.649 -746.658 596.771 -746.770 Q 596.893 -746.881 596.971 -747.218 Q 597.049 -747.555 599.915 -754.146 Q 602.781 -760.737 607.965 -767.234 Q 608.675 -766.314 609.555 -762.469 Q 610.435 -758.625 609.851 -746.125 Q 610.826 -746.125 610.612 -746.125 Q 611.605 -746.162 611.510 -746.171 Q 611.415 -746.180 611.576 -746.254 Q 611.737 -746.328 612.029 -746.531 "></path>
    <path id="STROKE_c2d36649-8849-4c3b-8c17-af82725926a1" opacity="1.000" fill="none" stroke="#b1fa7e" stroke-width="4.760" stroke-opacity="1.000" stroke-linecap="round" stroke-linejoin="round" d="M 620.512 -759.062 Q 619.560 -759.634 628.363 -758.836 Q 637.166 -758.039 637.938 -757.812 "></path>
    <path id="STROKE_a27b4cf2-aba6-4692-be61-923c08c46d78" opacity="1.000" fill="none" stroke="#b1fa7e" stroke-width="4.760" stroke-opacity="1.000" stroke-linecap="round" stroke-linejoin="round" d="M 623.222 -748.578 Q 623.353 -748.417 626.909 -748.755 Q 630.464 -749.092 634.175 -749.339 Q 637.885 -749.585 638.646 -749.718 "></path>
    <path id="STROKE_5a99af80-4a47-4813-bdf2-f86f0722376c" opacity="1.000" fill="none" stroke="#b1fa7e" stroke-width="4.760" stroke-opacity="1.000" stroke-linecap="round" stroke-linejoin="round" d="M 653.487 -761.453 Q 653.384 -761.948 653.354 -762.542 Q 653.323 -763.136 653.614 -763.745 Q 653.905 -764.354 655.042 -764.931 Q 656.179 -765.507 657.003 -765.786 Q 657.827 -766.066 658.454 -766.110 Q 659.081 -766.153 659.683 -766.152 Q 660.284 -766.150 661.657 -766.321 Q 663.031 -766.491 665.216 -765.052 Q 667.402 -763.613 668.917 -760.774 Q 670.432 -757.936 670.688 -755.554 Q 670.944 -753.172 670.788 -751.291 Q 670.632 -749.410 669.085 -746.714 Q 667.538 -744.017 665.780 -742.078 Q 664.021 -740.138 662.535 -739.219 Q 661.048 -738.301 659.134 -738.230 Q 657.220 -738.159 656.194 -739.240 Q 655.167 -740.322 654.850 -742.520 Q 654.532 -744.718 654.541 -746.205 Q 654.549 -747.692 655.111 -748.325 Q 655.673 -748.958 656.545 -749.288 Q 657.417 -749.618 660.166 -749.634 Q 662.916 -749.651 667.143 -747.021 Q 671.370 -744.390 673.335 -742.390 Q 675.299 -740.390 675.727 -739.953 "></path>
    <path id="STROKE_a3d96d5c-6861-4c16-afd0-78c9020e5f86" opacity="1.000" fill="none" stroke="#b1fa7e" stroke-width="4.760" stroke-opacity="1.000" stroke-linecap="round" stroke-linejoin="round" d="M 595.479 -711.687 Q 595.155 -711.232 595.036 -703.028 Q 594.917 -694.823 595.782 -686.250 Q 596.642 -686.513 596.929 -687.287 Q 597.216 -688.061 597.493 -688.554 Q 597.769 -689.047 597.984 -689.477 Q 598.198 -689.906 599.914 -694.018 Q 601.630 -698.129 603.242 -701.654 Q 604.855 -705.180 605.870 -706.901 Q 606.886 -708.622 607.358 -709.294 Q 607.830 -709.966 609.150 -709.055 Q 610.470 -708.144 611.936 -704.764 Q 613.402 -701.383 612.394 -686.546 L 612.363 -686.546 Q 611.842 -686.383 612.785 -688.558 Q 613.728 -690.734 614.030 -691.265 "></path>
    <path id="STROKE_15c2652e-2384-40d3-921c-20cb0f0df711" opacity="1.000" fill="none" stroke="#b1fa7e" stroke-width="4.760" stroke-opacity="1.000" stroke-linecap="round" stroke-linejoin="round" d="M 627.787 -705.328 Q 627.558 -705.019 627.474 -704.093 Q 627.225 -703.841 635.609 -703.721 Q 643.993 -703.601 644.420 -703.531 "></path>
    <path id="STROKE_070c8586-a3ad-4e01-9a7e-ed6d779eaffc" opacity="1.000" fill="none" stroke="#b1fa7e" stroke-width="4.760" stroke-opacity="1.000" stroke-linecap="round" stroke-linejoin="round" d="M 626.015 -694.312 Q 626.238 -694.731 634.302 -694.170 Q 642.367 -693.609 643.294 -693.375 "></path>
    <path id="STROKE_46c40c2d-3582-4c9e-9436-ca00845a580b" opacity="1.000" fill="none" stroke="#b1fa7e" stroke-width="4.760" stroke-opacity="1.000" stroke-linecap="round" stroke-linejoin="round" d="M 657.864 -710.890 Q 657.864 -710.890 658.484 -710.890 Q 659.105 -710.890 658.750 -710.890 Q 659.573 -711.027 662.413 -711.183 Q 665.253 -711.340 667.407 -710.927 Q 669.561 -710.515 670.624 -709.867 Q 671.687 -709.219 672.047 -708.621 Q 672.407 -708.023 672.482 -707.606 Q 672.556 -707.188 672.091 -705.815 Q 671.626 -704.441 658.114 -699.656 Q 658.114 -699.585 658.114 -699.484 Q 658.322 -699.363 661.310 -698.874 Q 664.297 -698.385 666.472 -697.610 Q 668.646 -696.835 669.909 -695.507 Q 671.172 -694.180 671.354 -692.317 Q 671.536 -690.453 671.578 -689.610 Q 671.620 -688.766 670.309 -686.941 Q 668.997 -685.116 667.044 -683.940 Q 665.092 -682.764 663.611 -682.304 Q 662.131 -681.843 661.083 -681.777 Q 660.034 -681.711 659.653 -681.817 Q 659.272 -681.924 659.061 -682.279 Q 658.851 -682.634 658.809 -682.960 Q 658.768 -683.287 658.676 -683.936 Q 658.583 -684.585 658.448 -685.015 "></path>
    <path id="STROKE_981bca20-a048-4eb1-9232-b6ba8095cc1e" opacity="1.000" fill="none" stroke="#b1fa7e" stroke-width="4.760" stroke-opacity="1.000" stroke-linecap="round" stroke-linejoin="round" d="M 601.774 -652.171 Q 602.002 -652.244 601.336 -646.042 Q 600.669 -639.841 600.140 -634.099 Q 599.611 -628.358 600.544 -623.640 Q 600.469 -623.512 600.535 -623.517 Q 600.601 -623.522 600.945 -623.782 Q 601.290 -624.043 601.832 -624.594 Q 602.373 -625.145 602.561 -625.558 Q 602.748 -625.972 603.133 -626.478 Q 603.519 -626.985 605.783 -631.721 Q 608.047 -636.458 613.561 -646.796 Q 613.405 -646.571 613.546 -646.967 Q 613.686 -647.363 615.294 -643.896 Q 616.901 -640.429 617.104 -628.421 Q 617.167 -628.421 617.355 -628.621 Q 617.542 -628.820 617.740 -629.156 "></path>
    <path id="STROKE_c6fc88d6-7afb-45dd-9d6d-a9996e7800df" opacity="1.000" fill="none" stroke="#b1fa7e" stroke-width="4.760" stroke-opacity="1.000" stroke-linecap="round" stroke-linejoin="round" d="M 632.622 -642.953 Q 633.976 -642.904 633.821 -642.859 Q 634.441 -642.739 641.781 -641.768 Q 649.120 -640.796 649.652 -640.703 "></path>
    <path id="STROKE_d0db4e5b-210b-4790-807f-e0bfd6dccfc5" opacity="1.000" fill="none" stroke="#b1fa7e" stroke-width="4.760" stroke-opacity="1.000" stroke-linecap="round" stroke-linejoin="round" d="M 631.893 -632.531 Q 632.674 -632.109 641.080 -631.808 Q 649.485 -631.507 650.319 -631.406 "></path>
    <path id="STROKE_07979d5f-8edc-4281-85d0-db5551d994a2" opacity="1.000" fill="none" stroke="#b1fa7e" stroke-width="4.760" stroke-opacity="1.000" stroke-linecap="round" stroke-linejoin="round" d="M 667.452 -649.453 Q 666.636 -649.359 665.992 -649.231 Q 665.347 -649.104 665.364 -645.980 Q 665.381 -642.856 665.298 -641.071 Q 665.215 -639.286 665.900 -637.456 Q 666.584 -635.625 667.599 -634.622 Q 668.615 -633.618 670.544 -633.266 Q 672.474 -632.915 673.913 -633.023 Q 675.353 -633.132 676.884 -634.343 Q 678.416 -635.554 678.853 -636.046 "></path>
    <path id="STROKE_fb0ed5e1-1b6a-425b-9f5d-2fed28d7c249" opacity="1.000" fill="none" stroke="#b1fa7e" stroke-width="4.760" stroke-opacity="1.000" stroke-linecap="round" stroke-linejoin="round" d="M 682.355 -651.984 Q 682.475 -652.153 681.495 -645.398 Q 680.515 -638.643 679.299 -630.001 Q 678.082 -621.359 677.853 -620.734 "></path>
    <path id="STROKE_9694610c-542a-475c-9e44-0edcfbbd5df7" opacity="1.000" fill="none" stroke="#b1fa7e" stroke-width="4.760" stroke-opacity="1.000" stroke-linecap="round" stroke-linejoin="round" d="M 600.252 -585.031 Q 600.352 -585.579 599.888 -559.546 Q 600.197 -559.850 602.727 -565.294 Q 605.257 -570.738 606.954 -574.331 Q 608.651 -577.923 610.716 -579.781 Q 612.221 -578.031 611.675 -558.921 Q 612.413 -558.797 612.523 -558.976 Q 612.634 -559.156 612.904 -559.421 "></path>
    <path id="STROKE_83b1a061-354d-4b2b-9866-0872e6e27f43" opacity="1.000" fill="none" stroke="#b1fa7e" stroke-width="4.760" stroke-opacity="1.000" stroke-linecap="round" stroke-linejoin="round" d="M 629.392 -572.562 Q 629.360 -572.562 629.183 -572.484 Q 629.183 -572.453 629.183 -572.421 Q 629.982 -572.939 639.614 -572.282 Q 649.245 -571.625 649.839 -571.421 "></path>
    <path id="STROKE_9bd2813d-89be-4b05-86cc-6ea57974459c" opacity="1.000" fill="none" stroke="#b1fa7e" stroke-width="4.760" stroke-opacity="1.000" stroke-linecap="round" stroke-linejoin="round" d="M 628.600 -564.203 Q 628.445 -564.044 636.677 -562.760 Q 644.910 -561.476 645.733 -561.281 "></path>
    <path id="STROKE_24915b85-a86b-4ec5-8b8e-c38aa39d7b5f" opacity="1.000" fill="none" stroke="#b1fa7e" stroke-width="4.760" stroke-opacity="1.000" stroke-linecap="round" stroke-linejoin="round" d="M 677.457 -582.578 Q 676.257 -582.359 673.563 -582.955 Q 670.870 -583.551 669.359 -583.639 Q 667.847 -583.728 666.742 -583.073 Q 665.637 -582.418 665.096 -581.798 Q 664.556 -581.177 664.539 -581.110 Q 664.522 -581.043 664.151 -580.502 Q 663.780 -579.960 663.463 -577.282 Q 663.147 -574.604 663.921 -572.545 Q 664.695 -570.487 665.415 -569.810 Q 666.135 -569.134 667.600 -568.705 Q 669.065 -568.276 670.560 -568.411 Q 672.055 -568.547 673.897 -568.110 Q 675.738 -567.673 676.323 -567.180 Q 676.907 -566.686 677.497 -565.419 Q 678.087 -564.151 677.980 -561.852 Q 677.874 -559.553 676.649 -557.222 Q 675.424 -554.891 674.040 -553.079 Q 672.656 -551.267 671.335 -550.292 Q 670.015 -549.316 669.061 -549.213 Q 668.108 -549.110 667.799 -549.554 Q 667.489 -549.998 667.129 -551.597 Q 666.770 -553.197 666.695 -554.086 Q 666.621 -554.976 666.281 -555.671 Q 665.941 -556.367 665.743 -556.703 "></path>
    <path id="STROKE_6f54b4f0-1d67-4796-8436-1d695740417b" opacity="0.510" fill="none" stroke="#ff9adf" stroke-width="4.000" stroke-opacity="1.000" stroke-linecap="round" stroke-linejoin="round" stroke-dasharray="0.400,6.000" d="M 692.031 -884.830 Q 692.134 -885.061 692.009 -884.766 Q 691.883 -884.471 692.838 -886.835 L 692.867 -886.835 Q 692.973 -886.377 693.063 -881.576 Q 693.153 -876.774 692.994 -871.763 Q 692.835 -866.752 692.808 -856.438 Q 692.781 -846.123 693.143 -840.548 Q 693.504 -834.972 693.385 -832.507 Q 693.266 -830.042 692.754 -819.654 Q 692.242 -809.266 691.907 -803.657 Q 691.571 -798.048 691.748 -794.186 Q 691.925 -790.324 692.030 -777.081 Q 692.135 -763.837 692.006 -756.163 Q 691.877 -748.490 691.638 -744.545 Q 691.399 -740.601 691.132 -739.255 Q 690.865 -737.909 690.563 -721.798 Q 690.262 -705.688 690.298 -696.721 Q 690.333 -687.754 690.019 -683.671 Q 689.704 -679.587 689.630 -677.903 Q 689.556 -676.218 689.516 -674.779 Q 689.476 -673.339 689.382 -671.055 Q 689.289 -668.771 689.267 -661.136 Q 689.245 -653.501 689.322 -647.025 Q 689.400 -640.550 689.077 -630.699 Q 688.754 -620.849 688.597 -615.788 Q 688.440 -610.726 688.427 -608.322 Q 688.413 -605.919 688.180 -602.246 Q 687.946 -598.573 687.822 -588.339 Q 687.699 -578.104 688.178 -564.369 Q 688.657 -550.633 688.907 -543.841 Q 689.156 -537.048 689.251 -527.513 Q 689.346 -517.977 689.490 -513.154 Q 689.635 -508.331 689.710 -504.381 Q 689.785 -500.432 689.906 -489.870 Q 689.936 -489.870 689.995 -489.870 Q 690.203 -490.413 690.197 -493.427 Q 690.191 -496.441 690.221 -497.378 "></path>
    <path id="STROKE_a49ac0f3-7101-41e1-938d-ad03d435aece" opacity="0.510" fill="none" stroke="#ff9adf" stroke-width="4.000" stroke-opacity="1.000" stroke-linecap="round" stroke-linejoin="round" stroke-dasharray="0.400,6.000" d="M 794.107 -889.343 Q 795.099 -889.977 794.845 -889.837 Q 795.455 -890.234 795.317 -890.184 Q 794.960 -890.046 796.006 -890.523 Q 796.432 -889.928 796.356 -879.843 Q 796.280 -869.757 796.396 -864.276 Q 796.512 -858.794 796.148 -853.980 Q 795.785 -849.166 795.461 -846.452 Q 795.137 -843.739 794.519 -838.679 Q 793.901 -833.619 793.304 -827.897 Q 792.707 -822.175 792.347 -812.826 Q 791.988 -803.476 792.022 -798.978 Q 792.056 -794.479 792.097 -790.863 Q 792.138 -787.248 791.999 -777.372 Q 791.861 -767.496 792.387 -757.483 Q 792.913 -747.470 793.354 -742.334 Q 793.795 -737.199 793.596 -734.656 Q 793.397 -732.114 793.842 -723.039 Q 794.288 -713.965 794.859 -699.190 Q 795.429 -684.415 795.565 -676.477 Q 795.701 -668.539 795.683 -661.394 Q 795.665 -654.250 795.656 -650.704 Q 795.648 -647.159 795.468 -641.169 Q 795.288 -635.179 795.154 -630.677 Q 795.021 -626.175 794.938 -622.562 Q 794.855 -618.950 794.794 -616.192 Q 794.734 -613.434 794.715 -607.645 Q 794.696 -601.856 794.635 -596.951 Q 794.574 -592.045 794.604 -590.097 Q 794.635 -588.148 794.617 -564.389 Q 794.600 -540.630 794.484 -525.333 Q 794.368 -510.036 793.792 -494.192 Q 793.847 -493.686 793.397 -497.726 Q 792.946 -501.766 792.730 -502.835 "></path>
    <path id="STROKE_ede67fb9-80d7-4400-bd21-76e96c780ccf" opacity="0.510" fill="none" stroke="#ff9adf" stroke-width="4.000" stroke-opacity="1.000" stroke-linecap="round" stroke-linejoin="round" stroke-dasharray="0.400,6.000" d="M 892.229 -887.396 Q 892.229 -887.426 892.229 -887.706 Q 892.570 -887.292 893.203 -879.122 Q 893.836 -870.953 893.686 -865.472 Q 893.535 -859.990 893.349 -857.195 Q 893.162 -854.400 892.854 -849.095 Q 892.545 -843.789 892.417 -839.608 Q 892.289 -835.426 891.448 -827.295 Q 890.607 -819.165 890.210 -813.785 Q 889.814 -808.405 889.945 -805.069 Q 890.076 -801.732 890.124 -790.153 Q 890.172 -778.574 890.026 -771.730 Q 889.879 -764.886 889.854 -759.682 Q 889.829 -754.479 889.875 -750.671 Q 889.922 -746.863 889.784 -735.238 Q 889.646 -723.613 888.579 -708.547 Q 887.512 -693.480 886.708 -685.566 Q 885.904 -677.652 884.926 -670.425 Q 883.947 -663.198 883.346 -658.088 Q 882.745 -652.978 882.189 -643.508 Q 881.633 -634.038 881.262 -629.172 Q 880.891 -624.307 880.408 -617.123 Q 879.924 -609.939 879.734 -606.265 Q 879.544 -602.591 879.483 -600.237 Q 879.423 -597.882 879.310 -592.314 Q 879.198 -586.745 878.622 -578.245 Q 878.046 -569.746 877.774 -562.860 Q 877.503 -555.974 877.202 -543.930 Q 876.900 -531.886 875.288 -502.643 Q 875.288 -502.673 874.521 -508.152 Q 873.754 -513.632 873.537 -514.354 "></path>
    <path id="STROKE_3dcac0d0-e979-4d2c-b30f-71e3ce80345a" opacity="0.510" fill="none" stroke="#ff9adf" stroke-width="4.000" stroke-opacity="1.000" stroke-linecap="round" stroke-linejoin="round" stroke-dasharray="0.400,6.000" d="M 1000.857 -879.756 Q 1001.532 -879.637 1001.516 -879.638 Q 1001.351 -879.847 1001.422 -879.768 Q 1001.493 -879.689 1001.815 -879.444 Q 1002.136 -879.198 1002.467 -878.023 Q 1002.798 -876.849 1003.409 -873.084 Q 1004.020 -869.320 1004.274 -866.985 Q 1004.528 -864.650 1004.890 -858.300 Q 1005.252 -851.950 1005.454 -844.491 Q 1005.657 -837.032 1005.908 -832.457 Q 1006.160 -827.882 1005.304 -822.173 Q 1004.449 -816.465 1002.756 -809.997 Q 1001.062 -803.529 1000.340 -797.390 Q 999.618 -791.251 999.269 -786.951 Q 998.919 -782.651 998.135 -775.508 Q 997.350 -768.364 997.249 -760.410 Q 997.148 -752.456 997.168 -748.624 Q 997.188 -744.792 997.173 -742.966 Q 997.159 -741.141 997.218 -739.787 Q 997.277 -738.432 996.697 -731.352 Q 996.118 -724.273 995.655 -712.753 Q 995.192 -701.232 994.713 -695.384 Q 994.234 -689.536 993.969 -685.900 Q 993.705 -682.264 993.160 -673.653 Q 992.615 -665.042 992.247 -660.522 Q 991.880 -656.002 991.427 -651.117 Q 990.975 -646.232 990.813 -643.817 Q 990.652 -641.403 990.382 -638.035 Q 990.111 -634.667 989.807 -632.229 Q 989.504 -629.792 988.828 -618.653 Q 988.151 -607.513 987.700 -601.476 Q 987.248 -595.438 987.111 -592.517 Q 986.974 -589.596 986.887 -588.145 Q 986.801 -586.694 986.678 -573.749 Q 986.554 -560.804 986.310 -550.230 Q 986.065 -539.656 985.777 -531.910 Q 985.490 -524.164 985.422 -520.130 Q 985.354 -516.097 985.179 -511.499 Q 985.005 -506.901 984.772 -496.257 L 984.743 -496.257 Q 984.747 -497.839 984.758 -497.419 Q 984.770 -497.000 984.707 -500.931 Q 984.644 -504.863 984.546 -505.460 "></path>
    <path id="STROKE_934f4825-087e-48f2-8af8-1cec5d2fecf2" opacity="1.000" fill="none" stroke="#ff9adf" stroke-width="3.374" stroke-opacity="1.000" stroke-linecap="round" stroke-linejoin="round" d="M 693.916 -923.235 Q 693.843 -922.916 693.542 -922.399 Q 693.241 -921.882 693.280 -921.497 Q 693.318 -921.111 693.278 -920.892 Q 693.239 -920.672 694.297 -920.380 Q 695.355 -920.087 697.087 -921.168 Q 698.820 -922.248 700.162 -923.502 Q 701.505 -924.756 703.111 -927.228 Q 704.717 -929.701 705.744 -932.137 Q 706.770 -934.574 707.218 -935.912 Q 707.666 -937.251 707.956 -937.947 Q 708.245 -938.644 708.690 -940.558 Q 709.135 -942.472 709.200 -943.705 Q 709.265 -944.938 709.211 -945.762 Q 709.157 -946.586 708.544 -947.236 Q 707.931 -947.886 707.315 -948.131 Q 706.699 -948.375 706.118 -947.651 Q 705.536 -946.927 704.765 -944.416 Q 703.993 -941.905 703.414 -938.094 Q 702.835 -934.282 702.694 -931.213 Q 702.553 -928.144 702.688 -926.356 Q 702.822 -924.569 703.044 -923.693 Q 703.265 -922.818 703.847 -922.020 Q 704.429 -921.221 705.528 -920.811 Q 706.627 -920.401 708.196 -920.592 Q 709.765 -920.783 712.028 -921.854 Q 714.292 -922.925 714.655 -923.159 "></path>
    <path id="STROKE_74b1a72f-2886-47e2-b797-af6a44497263" opacity="1.000" fill="none" stroke="#ff9adf" stroke-width="3.400" stroke-opacity="1.000" stroke-linecap="round" stroke-linejoin="round" d="M 723.554 -935.990 Q 723.335 -935.758 724.247 -935.552 Q 725.159 -935.345 726.608 -935.244 Q 728.057 -935.143 729.155 -935.141 Q 730.254 -935.140 735.167 -935.198 Q 740.080 -935.257 742.780 -935.098 Q 745.479 -934.940 745.768 -934.833 "></path>
    <path id="STROKE_cc05708b-fd35-4cc1-9b11-2eb7a1e626af" opacity="1.000" fill="none" stroke="#ff9adf" stroke-width="3.400" stroke-opacity="1.000" stroke-linecap="round" stroke-linejoin="round" d="M 727.379 -926.230 Q 727.905 -925.849 736.766 -926.086 Q 745.626 -926.324 746.676 -926.418 "></path>
    <path id="STROKE_c1665916-b6b9-4d5b-9e36-d8559296af7e" opacity="1.000" fill="none" stroke="#ff9adf" stroke-width="3.395" stroke-opacity="1.000" stroke-linecap="round" stroke-linejoin="round" d="M 768.448 -942.670 Q 767.786 -943.165 767.073 -943.236 Q 766.361 -943.307 766.004 -943.261 Q 765.648 -943.215 764.971 -942.161 Q 764.293 -941.107 763.699 -939.461 Q 763.105 -937.815 762.671 -936.464 Q 762.237 -935.112 761.971 -932.335 Q 761.706 -929.559 761.753 -927.741 Q 761.801 -925.923 762.155 -924.489 Q 762.510 -923.056 763.103 -922.064 Q 763.696 -921.073 764.947 -920.675 Q 766.199 -920.276 767.409 -920.183 Q 768.620 -920.091 770.104 -920.883 Q 771.589 -921.676 773.302 -923.291 Q 775.015 -924.905 776.167 -927.251 Q 777.319 -929.597 777.839 -931.053 Q 778.359 -932.510 778.536 -933.780 Q 778.713 -935.050 778.480 -936.164 Q 778.247 -937.278 777.272 -938.591 Q 776.298 -939.903 775.123 -940.668 Q 773.948 -941.432 772.418 -941.709 Q 770.888 -941.987 769.612 -941.661 Q 768.336 -941.334 767.799 -940.675 Q 767.262 -940.015 767.006 -939.743 "></path>
    <path id="STROKE_99965c44-2fb2-4bff-a624-1cceba060979" opacity="1.000" fill="none" stroke="#ff9adf" stroke-width="3.288" stroke-opacity="1.000" stroke-linecap="round" stroke-linejoin="round" d="M 817.349 -922.835 Q 817.293 -922.510 817.065 -920.776 Q 817.797 -920.285 821.460 -924.210 Q 825.123 -928.134 827.191 -930.976 Q 829.259 -933.819 830.184 -935.213 Q 831.110 -936.608 832.094 -938.286 Q 833.078 -939.964 833.682 -941.563 Q 834.286 -943.162 834.356 -945.267 Q 834.425 -947.371 834.303 -948.470 Q 834.181 -949.569 833.986 -950.310 Q 833.791 -951.050 833.551 -951.187 Q 833.311 -951.323 832.662 -950.952 Q 832.014 -950.581 830.686 -947.899 Q 829.358 -945.218 828.626 -942.860 Q 827.894 -940.502 827.409 -938.976 Q 826.923 -937.449 826.312 -934.822 Q 825.701 -932.194 825.504 -930.062 Q 825.307 -927.930 825.352 -926.818 Q 825.398 -925.707 825.410 -925.082 Q 825.421 -924.457 826.045 -923.730 Q 826.668 -923.002 827.193 -922.542 Q 827.718 -922.082 829.430 -922.025 Q 831.141 -921.968 832.604 -921.956 Q 834.066 -921.944 835.049 -921.972 Q 836.033 -922.000 836.589 -922.345 Q 837.145 -922.691 837.474 -922.980 "></path>
    <path id="STROKE_b68f6a51-38ad-47b1-be0a-d3579f6a9b90" opacity="1.000" fill="none" stroke="#ff9adf" stroke-width="3.357" stroke-opacity="1.000" stroke-linecap="round" stroke-linejoin="round" d="M 844.137 -937.616 Q 843.897 -937.692 848.842 -937.323 Q 853.786 -936.953 858.548 -937.718 Q 863.310 -938.484 863.798 -938.662 "></path>
    <path id="STROKE_eb6c5d27-fb3d-4751-9f74-cc290c3d7959" opacity="1.000" fill="none" stroke="#ff9adf" stroke-width="3.400" stroke-opacity="1.000" stroke-linecap="round" stroke-linejoin="round" d="M 843.956 -928.511 Q 843.882 -928.112 847.992 -928.740 Q 852.103 -929.367 854.311 -929.826 Q 856.519 -930.284 857.993 -930.494 Q 859.466 -930.704 860.854 -930.879 Q 862.243 -931.055 863.105 -931.183 "></path>
    <path id="STROKE_28943036-07b7-45b7-ace3-bad7b623b401" opacity="1.000" fill="none" stroke="#ff9adf" stroke-width="3.400" stroke-opacity="1.000" stroke-linecap="round" stroke-linejoin="round" d="M 867.509 -940.466 Q 867.907 -941.206 868.647 -942.623 Q 869.387 -944.041 870.139 -945.057 Q 870.891 -946.073 871.721 -946.702 Q 872.552 -947.332 873.074 -946.272 Q 873.597 -945.213 873.856 -940.929 Q 874.114 -936.645 874.304 -933.850 Q 874.493 -931.056 874.775 -929.475 Q 875.058 -927.894 875.149 -927.566 "></path>
    <path id="STROKE_e4cb177e-87da-4617-b75a-f569e11f8c2e" opacity="1.000" fill="none" stroke="#ff9adf" stroke-width="3.400" stroke-opacity="1.000" stroke-linecap="round" stroke-linejoin="round" d="M 865.126 -919.874 Q 865.653 -919.695 869.611 -920.595 Q 873.569 -921.494 878.840 -921.541 Q 884.111 -921.589 884.956 -921.644 "></path>
    <path id="STROKE_f8a4a0a3-2f1f-427b-a71f-ac52565de25f" opacity="1.000" fill="none" stroke="#ff9adf" stroke-width="3.353" stroke-opacity="1.000" stroke-linecap="round" stroke-linejoin="round" d="M 907.034 -924.427 Q 907.132 -924.278 907.192 -924.109 Q 907.252 -923.940 907.208 -924.005 Q 907.165 -924.070 907.544 -923.746 Q 907.922 -923.422 908.664 -923.606 Q 909.405 -923.789 910.718 -924.873 Q 912.031 -925.957 913.430 -927.481 Q 914.829 -929.005 915.893 -930.283 Q 916.956 -931.561 918.307 -933.540 Q 919.659 -935.518 920.756 -937.451 Q 921.854 -939.384 922.496 -941.426 Q 923.138 -943.468 923.219 -945.392 Q 923.299 -947.317 923.305 -948.549 Q 923.310 -949.781 923.067 -950.247 Q 922.823 -950.714 922.413 -950.830 Q 922.003 -950.946 921.233 -950.689 Q 920.462 -950.433 919.240 -948.752 Q 918.018 -947.072 916.712 -943.845 Q 915.405 -940.619 914.658 -937.627 Q 913.912 -934.635 913.862 -932.403 Q 913.813 -930.170 913.771 -928.876 Q 913.730 -927.582 914.214 -926.381 Q 914.698 -925.179 915.456 -924.351 Q 916.213 -923.523 917.511 -922.894 Q 918.810 -922.265 921.431 -922.640 Q 924.053 -923.015 925.721 -923.503 Q 927.389 -923.990 928.568 -924.308 Q 929.748 -924.626 930.361 -924.826 "></path>
    <path id="STROKE_08506503-086b-4f3a-9595-7514898ca57b" opacity="1.000" fill="none" stroke="#ff9adf" stroke-width="3.400" stroke-opacity="1.000" stroke-linecap="round" stroke-linejoin="round" d="M 939.885 -939.496 Q 939.701 -939.354 945.845 -939.263 Q 951.988 -939.172 955.417 -938.862 Q 958.847 -938.552 959.068 -938.407 "></path>
    <path id="STROKE_b50999dd-b402-4552-af0c-a0c6656a1619" opacity="1.000" fill="none" stroke="#ff9adf" stroke-width="3.400" stroke-opacity="1.000" stroke-linecap="round" stroke-linejoin="round" d="M 938.976 -928.766 Q 939.008 -928.569 944.457 -929.308 Q 949.907 -930.048 953.168 -930.445 Q 956.429 -930.842 957.331 -930.970 "></path>
    <path id="STROKE_62762d77-a654-49b1-90aa-d655afcfd6c2" opacity="1.000" fill="none" stroke="#ff9adf" stroke-width="3.400" stroke-opacity="1.000" stroke-linecap="round" stroke-linejoin="round" d="M 969.012 -943.002 Q 969.110 -943.422 969.731 -944.258 Q 970.352 -945.094 971.052 -945.453 Q 971.751 -945.811 973.115 -946.031 Q 974.478 -946.252 976.007 -945.696 Q 977.536 -945.141 978.724 -943.708 Q 979.913 -942.275 980.568 -940.190 Q 981.224 -938.105 981.403 -936.133 Q 981.582 -934.161 980.964 -931.746 Q 980.346 -929.330 979.771 -927.898 Q 979.195 -926.465 978.261 -924.823 Q 977.327 -923.181 976.494 -922.216 Q 975.661 -921.252 975.069 -920.946 Q 974.478 -920.640 974.149 -920.496 Q 973.820 -920.352 972.883 -920.352 Q 971.946 -920.351 971.143 -920.548 Q 970.339 -920.745 969.890 -921.141 Q 969.441 -921.537 968.930 -922.071 Q 968.418 -922.605 968.083 -923.424 Q 967.747 -924.243 967.601 -925.444 Q 967.455 -926.645 967.543 -927.391 Q 967.631 -928.137 968.012 -928.782 Q 968.393 -929.427 969.861 -929.553 Q 971.329 -929.680 972.967 -929.141 Q 974.605 -928.602 977.772 -927.991 Q 980.938 -927.380 983.339 -926.875 Q 985.739 -926.370 988.005 -926.013 Q 990.272 -925.656 990.692 -925.618 "></path>
    <path id="STROKE_375cca18-4809-4dc1-9981-1d662b40a821" opacity="1.000" fill="none" stroke="#ff9adf" stroke-width="3.279" stroke-opacity="1.000" stroke-linecap="round" stroke-linejoin="round" d="M 1022.271 -916.257 Q 1022.280 -916.351 1022.291 -915.737 Q 1022.302 -915.123 1022.235 -914.408 Q 1022.169 -913.694 1022.473 -913.437 Q 1022.776 -913.179 1023.614 -913.111 Q 1024.452 -913.042 1025.852 -913.438 Q 1027.252 -913.833 1029.552 -915.712 Q 1031.853 -917.590 1033.109 -918.989 Q 1034.365 -920.388 1035.281 -921.443 Q 1036.197 -922.499 1037.972 -924.865 Q 1039.747 -927.231 1041.210 -930.144 Q 1042.672 -933.057 1043.267 -935.862 Q 1043.863 -938.666 1043.903 -940.243 Q 1043.943 -941.820 1043.951 -942.771 Q 1043.958 -943.721 1043.936 -944.180 Q 1043.914 -944.640 1043.862 -944.709 Q 1043.811 -944.779 1043.492 -945.049 Q 1043.174 -945.320 1042.812 -945.005 Q 1042.449 -944.691 1041.174 -942.707 Q 1039.898 -940.724 1038.600 -937.143 Q 1037.303 -933.562 1036.732 -931.667 Q 1036.161 -929.772 1035.953 -928.568 Q 1035.745 -927.365 1035.613 -925.942 Q 1035.481 -924.518 1035.391 -923.077 Q 1035.301 -921.636 1035.847 -920.168 Q 1036.394 -918.701 1037.379 -917.411 Q 1038.364 -916.120 1039.855 -915.179 Q 1041.347 -914.238 1043.245 -914.109 Q 1045.143 -913.981 1046.368 -913.919 Q 1047.594 -913.858 1048.781 -914.634 Q 1049.968 -915.411 1050.399 -915.756 "></path>
    <path id="STROKE_e9352630-2df5-4979-a3e0-6b8347011262" opacity="1.000" fill="none" stroke="#ff9adf" stroke-width="3.400" stroke-opacity="1.000" stroke-linecap="round" stroke-linejoin="round" d="M 1056.461 -930.426 Q 1056.461 -930.408 1056.461 -930.298 Q 1056.648 -929.805 1065.687 -930.124 Q 1074.725 -930.443 1075.065 -930.391 "></path>
    <path id="STROKE_566b0f4e-e373-4f32-913c-edfb9aba08fe" opacity="1.000" fill="none" stroke="#ff9adf" stroke-width="3.396" stroke-opacity="1.000" stroke-linecap="round" stroke-linejoin="round" d="M 1054.656 -920.742 Q 1054.594 -920.812 1059.067 -921.042 Q 1063.539 -921.273 1068.499 -921.286 Q 1073.459 -921.299 1074.521 -921.389 "></path>
    <path id="STROKE_521a7421-0c61-43be-9b04-6fe7d63547c8" opacity="1.000" fill="none" stroke="#ff9adf" stroke-width="3.400" stroke-opacity="1.000" stroke-linecap="round" stroke-linejoin="round" d="M 1086.496 -936.535 Q 1086.496 -936.535 1086.407 -936.819 Q 1086.317 -937.102 1088.999 -937.363 Q 1091.681 -937.623 1094.155 -937.352 Q 1096.628 -937.081 1097.766 -936.783 Q 1098.905 -936.485 1099.161 -936.289 Q 1099.418 -936.093 1099.857 -935.899 Q 1100.297 -935.705 1100.549 -935.025 Q 1100.802 -934.345 1098.102 -932.659 Q 1095.402 -930.973 1089.459 -928.656 L 1089.459 -928.617 Q 1089.674 -928.591 1091.269 -928.156 Q 1092.865 -927.721 1094.398 -926.799 Q 1095.932 -925.876 1096.899 -924.361 Q 1097.866 -922.846 1098.188 -921.751 Q 1098.511 -920.656 1098.653 -919.980 Q 1098.795 -919.304 1098.728 -918.572 Q 1098.662 -917.841 1097.959 -917.064 Q 1097.257 -916.288 1095.493 -915.684 Q 1093.729 -915.079 1091.803 -915.339 Q 1091.688 -915.745 1091.762 -916.146 Q 1091.837 -916.547 1091.945 -916.870 "></path>
  </g>
  <g id="Wire" opacity="1.000">
    <circle id="STROKE_b0c38be3-f58a-45ef-8927-a0ebf02af032" opacity="1.000" fill="#f45e58" stroke="#f45e58" stroke-width="0.1" stroke-opacity="1.000" fill-opacity="1.000" cx="1145.783" cy="-855.536" r="0.500"></circle>
    <path id="STROKE_89e561b6-4c78-403a-9eba-14318fd646d8" opacity="1.000" fill="none" stroke="#f45e58" stroke-width="1.000" stroke-opacity="1.000" stroke-linecap="round" stroke-linejoin="round" d="M 792.715 -856.005 Q 792.592 -856.025 791.115 -856.007 Q 789.639 -855.989 782.750 -851.156 Q 775.860 -846.323 769.536 -842.205 Q 763.211 -838.087 757.495 -833.763 Q 751.778 -829.440 747.470 -826.228 Q 743.162 -823.016 735.301 -817.332 Q 727.439 -811.648 720.543 -806.087 Q 713.647 -800.525 710.317 -797.914 Q 706.987 -795.302 702.271 -792.018 Q 697.556 -788.733 693.395 -785.083 Q 694.558 -784.795 694.260 -784.849 Q 694.427 -784.778 694.818 -784.661 Q 695.209 -784.544 695.375 -784.411 "></path>
    <path id="STROKE_8c851815-f7bc-4a9d-b744-6fa319925117" opacity="1.000" fill="none" stroke="#f45e58" stroke-width="1.000" stroke-opacity="1.000" stroke-linecap="round" stroke-linejoin="round" d="M 694.250 -795.833 Q 694.396 -796.354 694.292 -799.575 Q 694.281 -799.598 693.816 -799.612 Q 693.351 -799.625 693.543 -799.617 Q 693.734 -799.609 692.881 -799.403 Q 692.028 -799.196 688.761 -794.459 Q 685.494 -789.722 683.688 -786.646 Q 681.882 -783.571 680.775 -781.136 Q 679.668 -778.701 679.459 -777.514 Q 679.250 -776.328 679.536 -775.756 Q 679.822 -775.184 681.567 -774.927 Q 683.312 -774.670 691.485 -775.958 Q 699.659 -777.247 700.420 -777.442 "></path>
    <path id="STROKE_4f7462b5-509c-43cd-b098-524bea64b204" opacity="1.000" fill="none" stroke="#f45e58" stroke-width="1.000" stroke-opacity="1.000" stroke-linecap="round" stroke-linejoin="round" d="M 780.000 -792.771 Q 780.035 -792.709 781.793 -794.692 Q 782.832 -793.975 771.510 -784.884 Q 760.187 -775.793 753.820 -771.145 Q 747.453 -766.497 744.535 -764.293 Q 741.616 -762.090 738.935 -759.860 Q 736.254 -757.631 733.189 -755.104 Q 730.123 -752.577 727.219 -750.420 Q 724.315 -748.263 711.467 -736.833 Q 712.444 -737.025 712.622 -737.179 Q 712.801 -737.333 713.197 -737.567 "></path>
    <path id="STROKE_13e52a21-057d-4f11-839e-2ceb034c6154" opacity="1.000" fill="none" stroke="#f45e58" stroke-width="1.000" stroke-opacity="1.000" stroke-linecap="round" stroke-linejoin="round" d="M 710.341 -751.567 Q 710.955 -751.568 709.857 -751.544 Q 708.759 -751.521 707.596 -751.516 Q 706.433 -751.512 703.553 -747.958 Q 700.673 -744.404 698.377 -741.218 Q 696.080 -738.032 694.649 -735.395 Q 693.217 -732.758 692.743 -730.486 Q 692.268 -728.214 692.779 -727.111 Q 693.291 -726.009 696.179 -725.328 Q 699.068 -724.647 703.334 -725.931 Q 707.600 -727.216 708.486 -727.552 "></path>
    <path id="STROKE_b208adbf-b27f-481e-9269-ec6f5090f5cf" opacity="1.000" fill="none" stroke="#f45e58" stroke-width="1.000" stroke-opacity="1.000" stroke-linecap="round" stroke-linejoin="round" d="M 891.304 -813.614 Q 891.362 -813.695 893.034 -815.536 Q 892.852 -815.195 890.003 -812.752 Q 887.154 -810.309 883.243 -807.384 Q 879.331 -804.458 874.822 -801.367 Q 870.312 -798.277 860.565 -790.927 Q 850.817 -783.577 843.151 -777.749 Q 835.485 -771.921 831.153 -768.821 Q 826.821 -765.721 821.416 -761.423 Q 816.012 -757.124 812.535 -754.595 Q 809.058 -752.067 806.133 -749.682 Q 803.208 -747.298 800.314 -744.711 Q 797.419 -742.125 789.023 -735.279 Q 780.628 -728.434 774.707 -723.301 Q 768.785 -718.168 765.008 -714.981 Q 761.230 -711.793 755.967 -708.096 Q 750.704 -704.398 745.842 -700.942 Q 740.979 -697.485 738.587 -695.525 Q 736.194 -693.565 733.558 -691.620 Q 730.923 -689.674 728.362 -688.008 Q 725.800 -686.342 722.299 -683.846 Q 718.797 -681.350 711.342 -672.708 Q 712.053 -672.329 713.200 -672.615 Q 714.348 -672.902 715.330 -673.821 Q 716.313 -674.739 716.844 -675.271 "></path>
    <path id="STROKE_c004cef4-4808-47a4-9082-859c24ef746a" opacity="1.000" fill="none" stroke="#f45e58" stroke-width="1.000" stroke-opacity="1.000" stroke-linecap="round" stroke-linejoin="round" d="M 698.168 -682.427 Q 699.108 -683.461 700.910 -686.271 Q 702.712 -689.081 706.047 -690.989 Q 707.169 -691.283 702.583 -685.190 Q 697.997 -679.098 695.235 -674.104 Q 692.473 -669.109 690.899 -666.208 Q 689.324 -663.306 689.654 -659.575 Q 689.924 -658.983 692.070 -659.499 Q 694.217 -660.014 695.941 -660.232 Q 697.666 -660.449 699.145 -660.044 Q 700.623 -659.639 701.793 -659.228 Q 702.962 -658.817 703.650 -658.552 "></path>
    <path id="STROKE_0d7cc631-1529-476f-a7d1-18b5764af66d" opacity="1.000" fill="none" stroke="#f45e58" stroke-width="1.000" stroke-opacity="1.000" stroke-linecap="round" stroke-linejoin="round" d="M 904.561 -755.411 Q 904.673 -755.183 902.992 -756.063 Q 901.312 -756.943 898.105 -755.136 Q 894.898 -753.328 891.803 -751.013 Q 888.708 -748.698 882.805 -744.325 Q 876.903 -739.952 869.984 -734.967 Q 863.065 -729.983 854.376 -723.969 Q 845.688 -717.955 839.741 -713.646 Q 833.793 -709.337 830.514 -707.155 Q 827.234 -704.974 822.991 -701.553 Q 818.747 -698.132 813.807 -694.740 Q 808.866 -691.348 799.443 -683.579 Q 790.021 -675.810 785.231 -671.566 Q 780.441 -667.321 778.178 -665.097 Q 775.916 -662.874 767.633 -655.556 Q 759.351 -648.238 754.806 -644.311 Q 750.261 -640.385 746.754 -637.444 Q 743.247 -634.504 737.256 -629.043 Q 731.265 -623.582 728.049 -621.061 Q 724.834 -618.541 723.206 -617.018 Q 721.578 -615.496 721.116 -614.395 Q 720.654 -613.294 720.663 -612.259 Q 720.672 -611.223 716.052 -608.458 Q 716.072 -608.612 718.657 -610.023 Q 721.242 -611.435 721.930 -611.896 "></path>
    <path id="STROKE_a75730bd-7b70-47f8-b3fd-2cb5df24ccf8" opacity="1.000" fill="none" stroke="#f45e58" stroke-width="1.000" stroke-opacity="1.000" stroke-linecap="round" stroke-linejoin="round" d="M 712.467 -624.302 Q 713.159 -624.082 709.914 -624.872 Q 709.032 -624.277 706.172 -618.132 Q 703.313 -611.986 701.920 -608.349 Q 700.527 -604.712 700.029 -602.180 Q 699.532 -599.648 699.631 -597.886 Q 699.731 -596.123 705.331 -597.511 Q 710.930 -598.899 714.658 -599.776 Q 718.387 -600.653 718.887 -600.958 "></path>
    <path id="STROKE_c1e93eb9-4cea-4d2f-9174-39c1d0ef4c47" opacity="1.000" fill="none" stroke="#f45e58" stroke-width="1.000" stroke-opacity="1.000" stroke-linecap="round" stroke-linejoin="round" d="M 1004.860 -762.380 Q 1003.011 -764.040 1000.000 -761.675 Q 996.988 -759.310 986.197 -752.241 Q 975.406 -745.173 969.542 -741.540 Q 963.679 -737.906 959.439 -735.407 Q 955.199 -732.907 952.445 -731.343 Q 949.691 -729.778 943.448 -725.631 Q 937.204 -721.483 925.091 -712.807 Q 912.977 -704.131 906.954 -699.530 Q 900.931 -694.930 894.912 -690.936 Q 888.892 -686.942 880.238 -681.057 Q 871.584 -675.173 865.963 -671.376 Q 860.342 -667.578 856.548 -665.475 Q 852.754 -663.372 849.109 -661.057 Q 845.464 -658.742 835.714 -652.133 Q 825.964 -645.524 820.654 -642.304 Q 815.344 -639.084 809.064 -634.098 Q 802.784 -629.111 798.564 -625.563 Q 794.344 -622.015 792.157 -620.231 Q 789.970 -618.447 784.457 -613.909 Q 778.945 -609.371 772.993 -605.170 Q 767.041 -600.970 762.602 -597.278 Q 758.163 -593.587 755.813 -591.600 Q 753.464 -589.612 750.264 -587.320 Q 747.065 -585.027 744.886 -583.378 Q 742.707 -581.728 741.443 -580.756 Q 740.180 -579.783 739.273 -579.021 Q 738.365 -578.258 735.877 -576.363 Q 733.389 -574.468 729.906 -571.415 Q 726.423 -568.361 724.572 -566.731 Q 722.721 -565.100 721.294 -562.199 Q 719.867 -559.299 712.009 -551.458 Q 712.277 -552.204 713.711 -553.956 Q 715.146 -555.708 715.573 -556.239 "></path>
    <path id="STROKE_dd4c5a6c-7bac-4874-baf9-368d5c49dd86" opacity="1.000" fill="none" stroke="#f45e58" stroke-width="1.000" stroke-opacity="1.000" stroke-linecap="round" stroke-linejoin="round" d="M 706.110 -567.911 Q 706.018 -567.476 707.631 -573.411 Q 707.796 -573.187 704.186 -566.645 Q 700.576 -560.103 698.080 -554.484 Q 695.584 -548.864 694.773 -545.350 Q 693.962 -541.836 693.726 -540.034 Q 693.491 -538.231 693.695 -537.179 Q 693.899 -536.127 694.308 -536.021 Q 694.716 -535.914 694.828 -535.927 Q 694.940 -535.939 695.481 -535.684 Q 696.022 -535.428 698.901 -536.345 Q 701.781 -537.261 703.821 -537.776 Q 705.862 -538.290 707.225 -538.216 Q 708.588 -538.142 709.386 -537.800 Q 710.185 -537.458 710.675 -537.255 "></path>
    <path id="STROKE_adf5f19d-e6a3-4e0f-8f36-43cee2ca1b19" opacity="1.000" fill="none" stroke="#f45e58" stroke-width="1.000" stroke-opacity="1.000" stroke-linecap="round" stroke-linejoin="round" d="M 1005.193 -693.052 Q 1003.873 -693.052 1004.172 -693.052 Q 1003.324 -693.206 997.284 -688.299 Q 991.243 -683.393 987.918 -680.732 Q 984.593 -678.072 978.133 -673.559 Q 971.673 -669.046 965.749 -665.391 Q 959.825 -661.737 949.137 -655.124 Q 938.448 -648.511 932.924 -645.183 Q 927.400 -641.855 921.910 -638.387 Q 916.420 -634.920 912.873 -632.561 Q 909.326 -630.202 905.985 -628.271 Q 902.643 -626.341 888.571 -616.937 Q 874.499 -607.534 866.344 -601.700 Q 858.188 -595.866 851.629 -590.742 Q 845.069 -585.618 838.944 -580.580 Q 832.819 -575.541 829.852 -572.730 Q 826.886 -569.919 823.025 -566.082 Q 819.164 -562.245 816.188 -559.602 Q 813.212 -556.959 811.459 -555.449 Q 809.706 -553.939 805.784 -550.213 Q 801.862 -546.487 798.618 -543.852 Q 795.374 -541.218 792.118 -538.982 Q 788.861 -536.745 785.899 -534.802 Q 785.930 -534.802 786.024 -534.802 Q 785.582 -535.608 785.860 -535.725 Q 786.138 -535.843 786.069 -535.797 Q 786.000 -535.751 786.158 -535.849 Q 786.316 -535.948 786.847 -536.285 Q 787.379 -536.622 787.941 -536.989 "></path>
    <path id="STROKE_50675b3c-01f4-4dbe-aafb-a9e46ce1f79c" opacity="1.000" fill="none" stroke="#f45e58" stroke-width="1.000" stroke-opacity="1.000" stroke-linecap="round" stroke-linejoin="round" d="M 779.208 -547.536 Q 779.208 -547.903 779.208 -549.630 Q 777.784 -549.541 774.479 -543.376 Q 771.174 -537.211 768.357 -531.746 Q 765.540 -526.281 764.183 -523.502 Q 762.827 -520.722 762.414 -519.289 Q 762.001 -517.855 762.076 -517.178 Q 762.150 -516.501 772.451 -517.390 Q 782.751 -518.278 783.648 -518.349 "></path>
    <path id="STROKE_fd6d4c1c-ca4c-4c75-8a87-e1c8581158be" opacity="1.000" fill="none" stroke="#f45e58" stroke-width="1.000" stroke-opacity="1.000" stroke-linecap="round" stroke-linejoin="round" d="M 1119.020 -688.802 Q 1117.792 -689.150 1118.030 -689.099 Q 1117.285 -690.476 1108.837 -684.880 Q 1100.389 -679.284 1095.817 -676.181 Q 1091.245 -673.078 1087.276 -670.745 Q 1083.306 -668.411 1074.836 -663.137 Q 1066.366 -657.862 1058.823 -652.899 Q 1051.280 -647.936 1045.360 -644.266 Q 1039.441 -640.596 1027.504 -632.407 Q 1015.568 -624.218 1004.596 -616.503 Q 993.624 -608.788 985.050 -602.875 Q 976.476 -596.962 972.051 -593.619 Q 967.625 -590.276 960.314 -585.016 Q 953.003 -579.756 948.837 -576.717 Q 944.671 -573.677 938.744 -569.271 Q 932.817 -564.866 928.180 -561.231 Q 923.543 -557.596 920.941 -555.682 Q 918.339 -553.767 910.248 -546.550 Q 902.157 -539.333 896.744 -534.841 Q 891.330 -530.349 887.889 -527.628 Q 884.448 -524.907 882.607 -523.175 Q 880.766 -521.443 878.590 -520.005 Q 878.689 -519.806 880.599 -520.472 Q 882.508 -521.138 883.238 -521.536 "></path>
    <path id="STROKE_4d55f7ef-078e-4169-ba21-6d552b0cf2af" opacity="1.000" fill="none" stroke="#f45e58" stroke-width="1.000" stroke-opacity="1.000" stroke-linecap="round" stroke-linejoin="round" d="M 880.111 -537.052 Q 880.000 -535.833 880.445 -540.505 Q 880.536 -540.260 876.535 -532.896 Q 872.533 -525.532 870.130 -520.788 Q 867.726 -516.044 866.796 -513.147 Q 865.865 -510.250 865.637 -508.766 Q 865.409 -507.283 865.447 -506.587 Q 865.484 -505.891 866.242 -505.210 Q 867.000 -504.528 869.264 -504.559 Q 871.528 -504.589 872.849 -504.737 Q 874.170 -504.886 877.761 -505.215 Q 881.352 -505.544 881.779 -505.614 "></path>
  </g>
</svg>