<?xml version="1.0" encoding="UTF-8" standalone="yes"?>
<svg xmlns="http://www.w3.org/2000/svg" xmlns:xlink="http://www.w3.org/1999/xlink" width="801.205pt" height="425.744pt" version="1.1" viewBox="7500.810 2058.026 801.205 425.744">
  <!--
	Exported with Concepts: Smarter Sketching
	Version: 1059 on iOS 15.4
	https://concepts.app/
	-->
  <title>Untitled</title>
  <desc>Drawing exported from Concepts: Smarter Sketching</desc>
  <defs></defs>
  <g id="Background" opacity="1.000">
    <path id="STROKE_ab692327-3d8e-4417-80b7-dda52fc9d9cb" opacity="1.000" fill="none" stroke="#6ac0c8" stroke-width="6.970" stroke-opacity="1.000" stroke-linecap="round" stroke-linejoin="round" d="M 7569.048 2087.339 Q 7569.048 2087.339 7569.086 2087.339 Q 7569.125 2087.339 7569.201 2087.339 Q 7569.640 2084.015 7567.931 2082.688 Q 7566.221 2081.360 7564.235 2080.342 Q 7562.250 2079.324 7560.221 2078.801 Q 7558.192 2078.277 7557.303 2078.427 Q 7556.413 2078.577 7554.127 2077.941 Q 7551.842 2077.306 7545.239 2079.376 Q 7538.636 2081.446 7531.627 2085.188 Q 7524.617 2088.931 7520.606 2095.212 Q 7516.596 2101.492 7514.937 2109.544 Q 7513.277 2117.597 7513.511 2123.024 Q 7513.746 2128.452 7513.838 2133.059 Q 7513.931 2137.666 7515.316 2142.479 Q 7516.701 2147.292 7520.285 2151.019 Q 7523.869 2154.747 7526.308 2156.858 Q 7528.746 2158.969 7534.227 2159.381 Q 7539.708 2159.793 7544.794 2159.283 Q 7549.881 2158.772 7559.523 2152.126 Q 7569.166 2145.480 7574.881 2139.569 Q 7580.596 2133.658 7583.325 2129.282 Q 7586.054 2124.906 7586.105 2116.010 Q 7586.156 2107.114 7584.531 2101.062 Q 7582.907 2095.009 7579.501 2088.700 Q 7576.096 2082.391 7548.567 2079.415 Q 7548.074 2082.307 7548.168 2082.432 Q 7548.263 2082.558 7548.263 2083.301 "></path>
    <path id="STROKE_27d8c0d6-f736-4f3b-b56e-4fc8990d68f0" opacity="1.000" fill="none" stroke="#6ac0c8" stroke-width="6.970" stroke-opacity="1.000" stroke-linecap="round" stroke-linejoin="round" d="M 7753.429 2084.900 Q 7753.415 2084.871 7753.522 2085.000 Q 7753.630 2085.128 7752.806 2084.687 Q 7751.982 2084.245 7750.751 2083.500 Q 7749.520 2082.755 7748.360 2082.153 Q 7747.201 2081.551 7747.751 2081.951 Q 7748.301 2082.352 7747.230 2081.574 Q 7746.160 2080.797 7740.702 2080.734 Q 7735.245 2080.671 7731.040 2080.339 Q 7726.835 2080.006 7724.467 2081.408 Q 7722.099 2082.810 7719.961 2085.266 Q 7717.823 2087.723 7716.196 2090.002 Q 7714.570 2092.282 7711.445 2098.083 Q 7708.320 2103.885 7707.657 2113.959 Q 7706.995 2124.032 7706.924 2130.666 Q 7706.854 2137.300 7709.375 2142.782 Q 7711.896 2148.263 7715.737 2152.867 Q 7719.578 2157.470 7724.309 2159.252 Q 7729.040 2161.034 7733.874 2160.914 Q 7738.709 2160.793 7745.686 2158.602 Q 7752.663 2156.411 7758.291 2153.933 Q 7763.920 2151.455 7769.614 2145.657 Q 7775.308 2139.859 7777.188 2129.762 Q 7779.068 2119.666 7779.378 2113.700 Q 7779.688 2107.735 7779.287 2101.527 Q 7778.886 2095.319 7775.328 2090.231 Q 7771.771 2085.143 7767.689 2080.940 Q 7763.608 2076.737 7754.449 2075.488 Q 7745.290 2074.239 7734.371 2076.824 Q 7734.344 2079.906 7734.319 2079.660 Q 7734.294 2079.415 7734.218 2080.062 "></path>
    <path id="STROKE_74b84426-9bab-4b26-b251-21dd3aef86ca" opacity="1.000" fill="none" stroke="#ff9adf" stroke-width="6.800" stroke-opacity="1.000" stroke-linecap="round" stroke-linejoin="round" d="M 7659.815 2084.748 Q 7657.101 2084.739 7657.783 2084.672 Q 7658.480 2085.367 7657.620 2084.205 Q 7656.760 2083.042 7655.097 2081.905 Q 7653.434 2080.768 7653.447 2080.793 Q 7653.459 2080.818 7653.441 2080.934 Q 7653.423 2081.049 7653.705 2080.967 Q 7653.986 2080.884 7649.663 2080.187 Q 7645.341 2079.490 7639.228 2083.386 Q 7633.114 2087.282 7629.268 2091.907 Q 7625.422 2096.533 7622.049 2102.634 Q 7618.676 2108.735 7617.622 2115.448 Q 7616.567 2122.161 7617.941 2128.944 Q 7619.316 2135.727 7621.315 2138.912 Q 7623.314 2142.097 7629.415 2146.360 Q 7635.516 2150.623 7638.988 2153.190 Q 7642.461 2155.758 7645.866 2156.879 Q 7649.270 2158.001 7654.460 2157.236 Q 7659.649 2156.471 7665.177 2149.814 Q 7670.704 2143.158 7674.112 2135.332 Q 7677.520 2127.506 7678.089 2116.669 Q 7678.658 2105.832 7679.062 2100.440 Q 7679.466 2095.047 7679.181 2091.241 Q 7678.895 2087.435 7675.745 2083.865 Q 7672.595 2080.294 7669.758 2078.841 Q 7666.922 2077.388 7665.433 2076.794 Q 7663.944 2076.201 7658.131 2076.649 Q 7652.318 2077.098 7648.799 2079.628 Q 7645.280 2082.158 7644.467 2082.805 "></path>
    <path id="STROKE_0639c4fa-c4d9-4819-9657-43dbca61c65e" opacity="1.000" fill="none" stroke="#ff9adf" stroke-width="6.800" stroke-opacity="1.000" stroke-linecap="round" stroke-linejoin="round" d="M 7855.936 2082.462 Q 7856.387 2082.896 7856.105 2081.457 Q 7855.823 2080.018 7854.667 2077.849 Q 7853.510 2075.680 7852.184 2074.944 Q 7850.857 2074.208 7847.456 2074.096 Q 7844.055 2073.983 7843.206 2073.997 Q 7842.357 2074.010 7838.163 2075.778 Q 7833.968 2077.547 7828.792 2085.274 Q 7823.615 2093.000 7821.584 2098.701 Q 7819.553 2104.401 7817.028 2110.096 Q 7814.504 2115.792 7812.326 2123.168 Q 7810.148 2130.544 7810.163 2134.831 Q 7810.177 2139.117 7810.186 2141.159 Q 7810.194 2143.202 7811.522 2146.215 Q 7812.851 2149.228 7824.555 2150.754 Q 7836.258 2152.281 7843.163 2152.521 Q 7850.067 2152.762 7854.977 2152.169 Q 7859.886 2151.577 7865.188 2146.870 Q 7870.490 2142.163 7873.023 2138.575 Q 7875.557 2134.988 7876.690 2132.377 Q 7877.823 2129.767 7879.145 2124.569 Q 7880.466 2119.371 7877.708 2110.941 Q 7874.951 2102.512 7870.788 2095.091 Q 7866.626 2087.670 7863.740 2083.681 Q 7860.854 2079.692 7858.777 2077.462 Q 7856.700 2075.231 7848.701 2073.963 Q 7840.701 2072.696 7828.187 2073.814 Q 7828.187 2074.138 7828.187 2074.510 Q 7828.187 2074.881 7828.187 2075.376 "></path>
    <path id="STROKE_86ad6472-d43c-4406-9344-1be5fd15ffce" opacity="1.000" fill="none" stroke="#ff9adf" stroke-width="6.800" stroke-opacity="1.000" stroke-linecap="round" stroke-linejoin="round" d="M 7557.105 2185.364 Q 7556.642 2186.188 7554.685 2183.965 Q 7552.728 2181.742 7552.061 2180.204 Q 7551.393 2178.667 7550.012 2177.228 Q 7548.630 2175.790 7548.526 2175.938 Q 7548.421 2176.086 7548.731 2176.154 Q 7549.041 2176.223 7546.994 2175.725 Q 7544.947 2175.226 7541.906 2175.295 Q 7538.866 2175.365 7535.576 2176.578 Q 7532.287 2177.790 7528.748 2181.130 Q 7525.209 2184.470 7521.464 2190.392 Q 7517.719 2196.313 7516.934 2208.762 Q 7516.149 2221.211 7516.248 2228.533 Q 7516.347 2235.854 7517.338 2239.483 Q 7518.329 2243.113 7520.069 2246.185 Q 7521.810 2249.257 7525.632 2250.736 Q 7529.455 2252.215 7534.970 2252.233 Q 7540.485 2252.252 7545.546 2251.705 Q 7550.607 2251.157 7557.175 2246.553 Q 7563.742 2241.950 7569.610 2234.047 Q 7575.478 2226.144 7578.567 2221.306 Q 7581.657 2216.468 7582.703 2213.696 Q 7583.749 2210.923 7583.085 2208.081 Q 7582.422 2205.239 7577.663 2198.620 Q 7572.905 2192.000 7565.480 2186.592 Q 7558.056 2181.183 7554.410 2178.711 Q 7550.763 2176.240 7548.378 2174.968 Q 7545.992 2173.695 7544.218 2176.129 Q 7542.443 2178.563 7541.960 2179.535 "></path>
    <path id="STROKE_66e2f04a-eed6-4658-9a88-d71baa7aeebb" opacity="1.000" fill="none" stroke="#ff9adf" stroke-width="6.800" stroke-opacity="1.000" stroke-linecap="round" stroke-linejoin="round" d="M 7762.779 2193.631 Q 7761.897 2193.265 7760.691 2192.192 Q 7759.485 2191.120 7759.616 2191.013 Q 7759.747 2190.907 7759.359 2190.734 Q 7758.971 2190.560 7758.877 2188.675 Q 7758.782 2186.789 7756.129 2183.745 Q 7753.475 2180.700 7752.502 2179.956 Q 7751.528 2179.212 7747.566 2178.352 Q 7743.604 2177.491 7739.103 2177.692 Q 7734.601 2177.893 7729.214 2181.937 Q 7723.826 2185.982 7720.724 2189.398 Q 7717.622 2192.814 7715.318 2196.237 Q 7713.015 2199.659 7711.275 2207.102 Q 7709.535 2214.545 7709.526 2222.562 Q 7709.518 2230.578 7709.758 2237.427 Q 7709.998 2244.275 7713.331 2247.956 Q 7716.665 2251.636 7724.281 2255.495 Q 7731.897 2259.354 7738.467 2261.929 Q 7745.036 2264.503 7750.871 2264.728 Q 7756.707 2264.954 7758.931 2264.516 Q 7761.155 2264.079 7765.868 2260.580 Q 7770.580 2257.082 7773.216 2253.205 Q 7775.853 2249.328 7777.971 2241.492 Q 7780.089 2233.656 7779.668 2221.970 Q 7779.246 2210.284 7778.405 2204.350 Q 7777.564 2198.416 7775.862 2195.469 Q 7774.161 2192.521 7772.938 2191.194 Q 7771.715 2189.866 7770.629 2189.106 Q 7769.542 2188.346 7768.449 2187.702 Q 7767.355 2187.058 7766.797 2186.750 Q 7766.238 2186.441 7764.745 2185.850 Q 7763.251 2185.260 7744.694 2179.130 Q 7726.138 2173.001 7725.324 2172.753 "></path>
    <path id="STROKE_04f9736a-f836-4d1a-9d6d-c53f935bb535" opacity="1.000" fill="none" stroke="#6ac0c8" stroke-width="6.970" stroke-opacity="1.000" stroke-linecap="round" stroke-linejoin="round" d="M 7659.460 2186.506 Q 7659.295 2188.073 7659.552 2184.739 Q 7659.809 2181.406 7659.295 2179.285 Q 7658.781 2177.164 7656.827 2175.666 Q 7654.873 2174.169 7653.188 2174.078 Q 7651.504 2173.986 7649.604 2173.527 Q 7647.705 2173.069 7642.075 2175.594 Q 7636.445 2178.120 7630.022 2185.106 Q 7623.599 2192.093 7619.833 2198.622 Q 7616.066 2205.151 7614.981 2212.608 Q 7613.896 2220.065 7613.826 2225.311 Q 7613.756 2230.557 7617.611 2235.402 Q 7621.466 2240.247 7624.259 2242.598 Q 7627.052 2244.948 7631.783 2247.166 Q 7636.514 2249.383 7639.385 2250.046 Q 7642.256 2250.709 7644.564 2250.901 Q 7646.872 2251.093 7648.388 2251.092 Q 7649.903 2251.091 7654.580 2251.297 Q 7659.257 2251.503 7665.455 2248.119 Q 7671.652 2244.735 7676.289 2239.495 Q 7680.925 2234.255 7683.744 2228.099 Q 7686.563 2221.942 7684.607 2214.146 Q 7682.650 2206.349 7678.773 2198.774 Q 7674.896 2191.199 7671.083 2186.720 Q 7667.269 2182.241 7661.454 2179.415 Q 7655.639 2176.588 7642.688 2176.887 Q 7642.460 2177.458 7642.371 2178.506 Q 7642.282 2179.554 7642.181 2180.373 "></path>
    <path id="STROKE_b0ac4570-5ae3-4386-8d71-fb833b70b67f" opacity="1.000" fill="none" stroke="#6ac0c8" stroke-width="6.970" stroke-opacity="1.000" stroke-linecap="round" stroke-linejoin="round" d="M 7843.992 2183.763 Q 7843.773 2180.781 7844.030 2181.274 Q 7844.288 2181.767 7843.476 2179.371 Q 7842.664 2176.974 7841.495 2175.911 Q 7840.326 2174.848 7839.354 2173.987 Q 7838.381 2173.126 7835.533 2172.394 Q 7832.686 2171.662 7830.067 2171.794 Q 7827.448 2171.926 7825.463 2172.509 Q 7823.478 2173.091 7820.194 2175.566 Q 7816.911 2178.041 7813.580 2185.224 Q 7810.249 2192.407 7809.395 2202.645 Q 7808.542 2212.883 7808.745 2219.342 Q 7808.948 2225.800 7810.282 2231.465 Q 7811.616 2237.130 7814.184 2241.672 Q 7816.750 2246.213 7820.425 2248.547 Q 7824.099 2250.880 7831.110 2251.783 Q 7838.123 2252.686 7847.648 2249.690 Q 7857.174 2246.695 7862.253 2244.606 Q 7867.332 2242.517 7871.597 2239.332 Q 7875.861 2236.146 7877.170 2225.461 Q 7878.479 2214.775 7879.003 2208.851 Q 7879.526 2202.927 7878.132 2196.726 Q 7876.737 2190.524 7870.573 2184.221 Q 7864.408 2177.918 7852.987 2174.725 Q 7841.567 2171.531 7824.146 2175.096 Q 7823.969 2175.896 7823.931 2176.544 Q 7823.893 2177.192 7823.816 2178.087 "></path>
    <path id="STROKE_4aa04ac5-aa0d-4d22-96b1-a960e1df6f72" opacity="1.000" fill="none" stroke="#6ac0c8" stroke-width="6.970" stroke-opacity="1.000" stroke-linecap="round" stroke-linejoin="round" d="M 7562.747 2290.055 Q 7562.309 2291.669 7562.365 2275.731 Q 7559.472 2275.402 7560.649 2275.393 Q 7561.826 2275.384 7557.076 2275.313 Q 7552.325 2275.243 7547.589 2279.113 Q 7542.854 2282.983 7537.731 2289.842 Q 7532.609 2296.700 7529.792 2303.988 Q 7526.974 2311.276 7526.253 2320.861 Q 7525.532 2330.446 7525.972 2335.771 Q 7526.413 2341.096 7527.905 2344.883 Q 7529.397 2348.671 7533.146 2352.216 Q 7536.895 2355.761 7542.850 2356.133 Q 7548.804 2356.505 7553.500 2356.411 Q 7558.195 2356.317 7565.963 2351.502 Q 7573.731 2346.687 7579.313 2341.115 Q 7584.896 2335.543 7588.060 2328.188 Q 7591.224 2320.833 7592.163 2316.838 Q 7593.102 2312.843 7593.259 2308.702 Q 7593.416 2304.560 7592.130 2300.039 Q 7590.844 2295.518 7587.712 2289.218 Q 7584.580 2282.919 7580.677 2279.070 Q 7576.773 2275.222 7574.354 2273.465 Q 7571.935 2271.708 7549.228 2270.969 Q 7549.899 2272.652 7551.368 2273.544 Q 7552.836 2274.436 7553.903 2275.159 "></path>
    <path id="STROKE_375eecf0-09c3-4a26-a1d5-5b807e4d414b" opacity="1.000" fill="none" stroke="#6ac0c8" stroke-width="6.970" stroke-opacity="1.000" stroke-linecap="round" stroke-linejoin="round" d="M 7770.047 2287.274 Q 7769.877 2288.266 7766.903 2284.127 Q 7763.930 2279.988 7761.032 2278.031 Q 7758.134 2276.074 7756.824 2276.097 Q 7755.514 2276.120 7754.024 2276.137 Q 7752.535 2276.154 7750.332 2275.719 Q 7748.130 2275.285 7741.501 2278.368 Q 7734.872 2281.450 7729.291 2285.372 Q 7723.710 2289.293 7719.309 2296.122 Q 7714.907 2302.950 7712.996 2312.051 Q 7711.085 2321.152 7710.960 2326.873 Q 7710.835 2332.594 7711.566 2335.962 Q 7712.297 2339.330 7716.153 2343.380 Q 7720.008 2347.430 7725.774 2350.658 Q 7731.541 2353.886 7737.248 2355.560 Q 7742.955 2357.234 7748.909 2356.942 Q 7754.863 2356.650 7759.169 2355.665 Q 7763.476 2354.680 7767.926 2350.675 Q 7772.375 2346.670 7775.242 2338.903 Q 7778.109 2331.136 7779.131 2326.568 Q 7780.153 2322.000 7781.145 2315.782 Q 7782.136 2309.563 7780.861 2302.338 Q 7779.586 2295.113 7776.089 2289.837 Q 7772.591 2284.560 7767.583 2281.531 Q 7762.575 2278.502 7759.754 2277.680 Q 7756.933 2276.858 7755.654 2276.404 Q 7754.375 2275.950 7751.036 2275.521 Q 7747.697 2275.091 7745.722 2275.735 Q 7743.747 2276.378 7742.959 2277.102 "></path>
    <path id="STROKE_bc05306d-a1d4-4d58-b6d0-def8fe1b6df9" opacity="1.000" fill="none" stroke="#6ac0c8" stroke-width="6.970" stroke-opacity="1.000" stroke-linecap="round" stroke-linejoin="round" d="M 7660.273 2389.375 Q 7660.853 2390.477 7659.956 2388.774 Q 7659.060 2387.071 7658.195 2385.425 Q 7657.331 2383.779 7656.431 2382.250 Q 7655.530 2380.722 7655.637 2380.984 Q 7655.744 2381.247 7654.434 2379.042 Q 7653.123 2376.838 7649.127 2375.878 Q 7645.130 2374.918 7642.798 2375.752 Q 7640.465 2376.586 7637.530 2378.054 Q 7634.594 2379.523 7631.423 2383.020 Q 7628.252 2386.516 7623.877 2394.706 Q 7619.502 2402.895 7616.423 2411.297 Q 7613.343 2419.699 7612.102 2425.266 Q 7610.859 2430.832 7611.076 2434.506 Q 7611.292 2438.180 7612.809 2439.859 Q 7614.326 2441.538 7616.164 2443.016 Q 7618.002 2444.494 7627.040 2451.169 Q 7636.078 2457.845 7640.595 2461.628 Q 7645.112 2465.410 7649.299 2466.286 Q 7653.486 2467.163 7657.277 2467.695 Q 7661.067 2468.228 7665.562 2465.129 Q 7670.056 2462.031 7674.654 2453.839 Q 7679.253 2445.647 7681.040 2434.986 Q 7682.827 2424.325 7683.007 2417.803 Q 7683.188 2411.282 7680.191 2403.626 Q 7677.195 2395.970 7672.918 2389.408 Q 7668.641 2382.846 7664.549 2380.037 Q 7660.456 2377.228 7657.957 2376.420 Q 7655.458 2375.613 7653.188 2375.747 Q 7650.917 2375.880 7648.423 2377.098 Q 7645.930 2378.316 7644.106 2383.446 Q 7642.282 2388.576 7642.028 2389.375 "></path>
    <path id="STROKE_6901bb1a-37b3-40f6-a54c-6b8e627e6b70" opacity="1.000" fill="none" stroke="#6ac0c8" stroke-width="6.970" stroke-opacity="1.000" stroke-linecap="round" stroke-linejoin="round" d="M 7841.604 2386.290 Q 7841.604 2383.804 7841.600 2383.660 Q 7841.595 2383.516 7841.477 2383.568 Q 7841.357 2383.620 7841.794 2382.553 Q 7842.230 2381.485 7840.958 2379.416 Q 7839.687 2377.346 7838.950 2376.306 Q 7838.214 2375.266 7836.820 2374.694 Q 7835.427 2374.122 7834.072 2373.809 Q 7832.718 2373.496 7831.747 2373.341 Q 7830.775 2373.186 7829.638 2373.139 Q 7828.500 2373.092 7826.304 2372.919 Q 7824.108 2372.746 7820.710 2372.809 Q 7817.312 2372.873 7815.106 2373.997 Q 7812.899 2375.122 7810.549 2377.396 Q 7808.198 2379.670 7804.574 2387.395 Q 7800.950 2395.120 7799.322 2404.553 Q 7797.694 2413.986 7797.262 2420.622 Q 7796.829 2427.258 7802.912 2438.196 Q 7808.994 2449.134 7812.977 2454.868 Q 7816.960 2460.601 7819.862 2464.283 Q 7822.764 2467.965 7828.395 2469.956 Q 7834.026 2471.947 7840.821 2470.490 Q 7847.616 2469.033 7853.176 2465.339 Q 7858.735 2461.646 7864.003 2457.457 Q 7869.271 2453.268 7871.737 2442.060 Q 7874.203 2430.853 7874.588 2423.892 Q 7874.974 2416.930 7875.466 2411.703 Q 7875.958 2406.476 7872.153 2401.902 Q 7868.348 2397.328 7864.002 2393.565 Q 7859.657 2389.802 7854.785 2385.516 Q 7849.914 2381.230 7844.710 2378.605 Q 7839.506 2375.980 7835.832 2375.640 Q 7832.158 2375.300 7829.969 2377.880 Q 7827.780 2380.461 7827.374 2381.108 "></path>
    <path id="STROKE_378f4106-6219-4532-8f3b-0e5af67727c3" opacity="1.000" fill="none" stroke="#ff9adf" stroke-width="6.970" stroke-opacity="1.000" stroke-linecap="round" stroke-linejoin="round" d="M 7644.163 2281.141 Q 7644.168 2281.413 7640.923 2279.816 Q 7637.678 2278.219 7633.500 2277.750 Q 7629.323 2277.280 7625.602 2278.168 Q 7621.880 2279.056 7617.805 2283.265 Q 7613.729 2287.474 7610.980 2295.861 Q 7608.232 2304.248 7607.764 2312.157 Q 7607.296 2320.067 7607.335 2327.257 Q 7607.373 2334.448 7607.985 2338.755 Q 7608.598 2343.062 7610.912 2346.386 Q 7613.227 2349.710 7618.051 2350.383 Q 7622.875 2351.055 7628.096 2350.847 Q 7633.316 2350.639 7637.011 2350.367 Q 7640.706 2350.096 7647.400 2348.210 Q 7654.094 2346.325 7660.015 2342.978 Q 7665.935 2339.631 7669.596 2333.412 Q 7673.257 2327.192 7673.867 2319.983 Q 7674.478 2312.774 7673.074 2305.969 Q 7671.671 2299.163 7668.651 2293.515 Q 7665.632 2287.868 7660.349 2282.843 Q 7655.064 2277.819 7648.637 2276.345 Q 7642.209 2274.872 7635.825 2274.172 Q 7629.441 2273.471 7627.890 2275.518 Q 7626.338 2277.565 7626.967 2281.096 Q 7627.595 2284.626 7628.154 2285.827 "></path>
    <path id="STROKE_1d15fb3a-9188-4b25-b11a-28406904961f" opacity="1.000" fill="none" stroke="#ff9adf" stroke-width="6.970" stroke-opacity="1.000" stroke-linecap="round" stroke-linejoin="round" d="M 7854.157 2282.779 Q 7853.712 2280.200 7852.885 2278.516 Q 7852.057 2276.831 7850.705 2275.798 Q 7849.353 2274.764 7844.909 2274.084 Q 7840.466 2273.404 7835.470 2277.514 Q 7830.475 2281.624 7827.307 2284.792 Q 7824.139 2287.960 7820.506 2296.110 Q 7816.874 2304.260 7816.172 2312.679 Q 7815.469 2321.099 7815.626 2327.083 Q 7815.784 2333.067 7817.801 2337.902 Q 7819.817 2342.738 7823.754 2346.894 Q 7827.690 2351.050 7836.312 2352.491 Q 7844.932 2353.931 7850.807 2353.586 Q 7856.681 2353.241 7861.635 2349.902 Q 7866.589 2346.562 7870.594 2341.652 Q 7874.599 2336.742 7876.690 2328.114 Q 7878.782 2319.486 7879.078 2312.730 Q 7879.374 2305.974 7876.260 2299.613 Q 7873.146 2293.252 7870.689 2291.211 Q 7868.233 2289.171 7866.774 2287.349 Q 7865.314 2285.526 7860.120 2283.355 Q 7854.925 2281.184 7849.974 2280.623 Q 7845.023 2280.061 7840.755 2281.342 Q 7836.488 2282.623 7834.396 2284.548 Q 7832.303 2286.474 7831.439 2287.274 "></path>
    <path id="STROKE_0966f37f-b640-4f9a-9abc-63010a25b49e" opacity="1.000" fill="none" stroke="#ff9adf" stroke-width="6.970" stroke-opacity="1.000" stroke-linecap="round" stroke-linejoin="round" d="M 7565.999 2382.747 Q 7565.355 2382.257 7562.682 2378.321 Q 7560.009 2374.385 7558.033 2373.573 Q 7556.058 2372.761 7553.498 2374.118 Q 7550.938 2375.475 7549.437 2377.061 Q 7547.934 2378.647 7545.209 2381.645 Q 7542.484 2384.643 7538.385 2391.765 Q 7534.285 2398.888 7532.415 2406.542 Q 7530.545 2414.196 7530.781 2420.267 Q 7531.017 2426.337 7531.635 2429.791 Q 7532.253 2433.245 7535.182 2437.922 Q 7538.110 2442.599 7542.216 2445.703 Q 7546.321 2448.808 7551.377 2450.678 Q 7556.432 2452.549 7561.385 2452.946 Q 7566.338 2453.344 7570.142 2452.709 Q 7573.946 2452.075 7577.576 2448.319 Q 7581.205 2444.563 7583.001 2441.624 Q 7584.798 2438.684 7587.498 2431.289 Q 7590.199 2423.894 7590.682 2413.089 Q 7591.164 2402.284 7591.398 2395.684 Q 7591.633 2389.084 7589.433 2383.500 Q 7587.231 2377.915 7584.812 2374.110 Q 7582.391 2370.304 7576.027 2368.470 Q 7569.664 2366.636 7564.256 2367.475 Q 7558.848 2368.313 7554.857 2370.283 Q 7550.866 2372.253 7551.686 2377.576 Q 7552.506 2382.899 7553.396 2384.194 "></path>
    <path id="STROKE_7a1f9ddc-4212-4d87-81f0-8ea05f02396d" opacity="1.000" fill="none" stroke="#ff9adf" stroke-width="6.970" stroke-opacity="1.000" stroke-linecap="round" stroke-linejoin="round" d="M 7739.402 2392.766 Q 7739.232 2392.401 7739.681 2388.585 Q 7740.130 2384.770 7737.370 2381.416 Q 7734.611 2378.063 7732.367 2376.786 Q 7730.123 2375.509 7728.698 2375.604 Q 7727.273 2375.699 7725.851 2375.335 Q 7724.428 2374.971 7720.436 2375.630 Q 7716.444 2376.289 7712.904 2383.801 Q 7709.365 2391.312 7708.771 2403.306 Q 7708.178 2415.300 7708.185 2422.927 Q 7708.191 2430.555 7710.605 2437.108 Q 7713.019 2443.662 7716.884 2448.760 Q 7720.749 2453.859 7728.949 2454.728 Q 7737.149 2455.596 7743.397 2454.757 Q 7749.646 2453.918 7755.940 2450.305 Q 7762.236 2446.691 7766.849 2440.756 Q 7771.461 2434.820 7772.791 2428.431 Q 7774.121 2422.042 7774.645 2416.114 Q 7775.168 2410.185 7769.956 2402.970 Q 7764.744 2395.754 7757.053 2388.974 Q 7749.362 2382.194 7743.406 2377.312 Q 7737.451 2372.431 7732.526 2370.142 Q 7727.602 2367.852 7721.612 2367.280 Q 7715.624 2366.708 7715.887 2373.070 Q 7716.151 2379.432 7716.481 2380.804 "></path>
    <path id="STROKE_04026a0a-52d5-4a82-b699-7746f4b8f5e8" opacity="1.000" fill="none" stroke="#f3ba38" stroke-width="4.250" stroke-opacity="1.000" stroke-linecap="round" stroke-linejoin="round" d="M 7912.366 2071.639 Q 7912.366 2071.639 7911.923 2071.949 Q 7911.480 2072.260 7910.596 2070.522 Q 7909.150 2070.244 7918.691 2069.716 Q 7928.231 2069.189 7933.883 2069.389 Q 7939.534 2069.588 7945.121 2071.351 Q 7950.707 2073.114 7954.426 2081.761 Q 7958.145 2090.409 7959.429 2102.896 Q 7960.712 2115.382 7960.215 2124.952 Q 7959.718 2134.521 7956.316 2148.521 Q 7952.914 2162.521 7951.647 2169.961 Q 7950.381 2177.401 7949.627 2181.513 Q 7948.874 2185.626 7948.283 2194.815 Q 7947.693 2204.004 7948.026 2212.318 Q 7948.358 2220.632 7950.641 2227.518 Q 7952.924 2234.405 7954.638 2237.827 Q 7956.352 2241.249 7959.511 2243.664 Q 7962.670 2246.078 7963.905 2246.178 Q 7965.140 2246.278 7966.665 2246.759 Q 7968.190 2247.241 7969.510 2247.580 Q 7970.830 2247.919 7971.806 2248.136 Q 7972.782 2248.354 7975.221 2248.919 Q 7977.659 2249.483 7979.704 2250.410 Q 7979.704 2250.480 7979.704 2250.550 Q 7977.965 2250.550 7978.144 2250.550 Q 7974.842 2250.312 7975.839 2250.410 Q 7973.266 2250.410 7973.697 2250.410 Q 7970.675 2250.410 7971.252 2250.410 Q 7971.544 2250.033 7965.876 2251.840 Q 7960.208 2253.647 7956.748 2257.479 Q 7953.288 2261.311 7950.517 2265.064 Q 7947.747 2268.817 7946.195 2274.552 Q 7944.643 2280.286 7944.171 2286.665 Q 7943.698 2293.044 7942.541 2297.037 Q 7941.383 2301.029 7940.653 2308.052 Q 7939.923 2315.074 7939.867 2319.374 Q 7939.811 2323.674 7939.827 2328.829 Q 7939.842 2333.984 7940.084 2339.371 Q 7940.326 2344.759 7941.329 2355.750 Q 7942.333 2366.741 7943.793 2383.842 Q 7945.254 2400.942 7945.135 2409.937 Q 7945.016 2418.933 7945.562 2423.761 Q 7946.107 2428.589 7943.991 2436.880 Q 7941.876 2445.172 7940.120 2449.140 Q 7938.364 2453.108 7937.903 2454.705 Q 7937.442 2456.303 7936.052 2457.039 Q 7934.662 2457.774 7931.762 2457.768 Q 7928.862 2457.761 7927.458 2457.312 Q 7926.053 2456.863 7926.001 2456.646 Q 7925.948 2456.429 7925.921 2457.057 Q 7925.894 2457.685 7917.721 2449.499 Q 7917.469 2448.943 7920.250 2450.408 Q 7923.030 2451.872 7923.636 2452.326 "></path>
    <path id="STROKE_1eb19f39-5607-4f9e-9753-d04d7b91f16e" opacity="1.000" fill="none" stroke="#f3ba38" stroke-width="3.744" stroke-opacity="1.000" stroke-linecap="round" stroke-linejoin="round" d="M 8018.156 2136.935 Q 8016.629 2135.376 8016.033 2131.983 Q 8018.700 2132.606 8019.269 2146.822 Q 8019.838 2161.038 8021.270 2181.534 Q 8021.474 2181.153 8021.643 2178.266 Q 8021.812 2175.380 8022.024 2173.895 "></path>
    <path id="STROKE_d837db8b-f522-4c2e-8b1c-03d3efac6861" opacity="1.000" fill="none" stroke="#f3ba38" stroke-width="4.151" stroke-opacity="1.000" stroke-linecap="round" stroke-linejoin="round" d="M 8018.439 2132.584 Q 8018.439 2132.584 8018.403 2132.584 Q 8018.368 2132.584 8017.684 2132.584 Q 8017.640 2132.367 8017.584 2132.366 Q 8017.527 2132.364 8017.503 2132.439 Q 8017.479 2132.514 8017.632 2132.923 Q 8017.785 2133.332 8018.501 2134.673 Q 8019.218 2136.014 8019.630 2136.481 Q 8020.042 2136.949 8020.713 2137.977 Q 8021.385 2139.004 8022.576 2139.971 Q 8023.767 2140.939 8030.957 2151.439 Q 8038.147 2161.939 8045.874 2177.042 Q 8050.135 2178.895 8051.260 2154.007 Q 8052.385 2129.118 8052.456 2128.977 "></path>
    <path id="STROKE_280b0a83-d9bc-494e-aafb-23d4f4767a87" opacity="1.000" fill="none" stroke="#f3ba38" stroke-width="4.250" stroke-opacity="1.000" stroke-linecap="round" stroke-linejoin="round" d="M 8072.979 2135.732 Q 8072.427 2135.293 8069.556 2138.019 Q 8066.685 2140.745 8066.338 2147.303 Q 8065.991 2153.861 8066.037 2158.844 Q 8066.083 2163.827 8068.698 2168.204 Q 8071.314 2172.581 8074.173 2173.374 Q 8077.032 2174.167 8079.263 2171.684 Q 8081.494 2169.201 8082.852 2162.144 Q 8084.208 2155.086 8084.105 2150.258 Q 8084.002 2145.429 8083.538 2144.008 Q 8083.074 2142.586 8081.441 2140.785 Q 8079.809 2138.984 8077.346 2138.826 Q 8074.882 2138.668 8072.135 2139.621 Q 8069.389 2140.573 8068.875 2146.767 Q 8069.630 2146.838 8070.337 2146.802 Q 8071.045 2146.767 8071.941 2146.696 "></path>
    <path id="STROKE_08b1afde-947d-4c86-888c-6268839250be" opacity="1.000" fill="none" stroke="#f3ba38" stroke-width="4.027" stroke-opacity="1.000" stroke-linecap="round" stroke-linejoin="round" d="M 8106.289 2127.456 Q 8104.193 2128.171 8103.484 2142.555 Q 8102.776 2156.940 8102.916 2175.062 Q 8103.128 2175.062 8103.494 2174.363 Q 8103.859 2173.665 8104.166 2172.692 "></path>
    <path id="STROKE_66ed1508-a4b6-4ff8-aebb-26cb6e4b7349" opacity="1.000" fill="none" stroke="#f3ba38" stroke-width="4.250" stroke-opacity="1.000" stroke-linecap="round" stroke-linejoin="round" d="M 8087.841 2150.586 Q 8087.111 2151.465 8095.561 2151.614 Q 8104.010 2151.764 8109.006 2153.439 Q 8114.003 2155.114 8114.829 2155.715 "></path>
    <path id="STROKE_ffe2340b-2d28-47d8-b73f-e496e559cf0c" opacity="1.000" fill="none" stroke="#f3ba38" stroke-width="4.250" stroke-opacity="1.000" stroke-linecap="round" stroke-linejoin="round" d="M 8127.096 2170.287 Q 8125.977 2169.924 8124.833 2167.725 Q 8123.689 2165.527 8123.482 2162.416 Q 8123.274 2159.305 8123.038 2158.403 "></path>
    <path id="STROKE_854be797-c36c-482c-b75b-d11af0e42776" opacity="1.000" fill="none" stroke="#f3ba38" stroke-width="4.250" stroke-opacity="1.000" stroke-linecap="round" stroke-linejoin="round" d="M 8122.000 2147.439 Q 8122.088 2145.712 8122.236 2145.865 Q 8122.652 2144.565 8122.928 2144.234 Q 8123.203 2143.902 8123.651 2143.372 "></path>
    <path id="STROKE_d8bbcb79-e44b-4b02-9c8b-b1e0daf97eb9" opacity="1.000" fill="none" stroke="#f3ba38" stroke-width="4.250" stroke-opacity="1.000" stroke-linecap="round" stroke-linejoin="round" d="M 8152.573 2133.610 Q 8152.551 2134.021 8150.583 2133.493 Q 8148.616 2132.964 8146.187 2134.324 Q 8143.758 2135.683 8142.016 2139.353 Q 8140.273 2143.023 8139.562 2146.114 Q 8138.853 2149.206 8138.206 2151.403 Q 8137.559 2153.600 8137.182 2158.666 Q 8136.805 2163.732 8137.235 2167.538 Q 8137.665 2171.344 8142.807 2173.698 Q 8147.950 2176.052 8148.846 2176.441 "></path>
    <path id="STROKE_11ac2557-52b1-43f5-800e-9ffc715e4f20" opacity="1.000" fill="none" stroke="#f3ba38" stroke-width="4.250" stroke-opacity="1.000" stroke-linecap="round" stroke-linejoin="round" d="M 8163.802 2157.802 Q 8163.802 2157.802 8164.229 2158.155 Q 8164.655 2158.508 8172.754 2156.205 Q 8180.854 2153.901 8185.633 2152.728 Q 8190.412 2151.555 8192.828 2150.448 Q 8195.245 2149.341 8195.590 2147.351 Q 8195.934 2145.361 8195.496 2143.796 Q 8195.058 2142.231 8194.167 2141.049 Q 8193.276 2139.867 8190.711 2138.620 Q 8188.146 2137.373 8186.205 2137.135 Q 8184.264 2136.897 8181.654 2136.664 Q 8179.045 2136.431 8176.119 2139.069 Q 8173.192 2141.708 8171.482 2147.017 Q 8169.771 2152.325 8169.899 2157.944 Q 8170.028 2163.563 8170.231 2166.352 Q 8170.434 2169.141 8173.226 2172.163 Q 8176.018 2175.186 8179.771 2176.105 Q 8183.523 2177.024 8184.656 2177.325 "></path>
    <path id="STROKE_f2867eff-7e4d-46f3-83d6-dcf46d5fa8af" opacity="1.000" fill="none" stroke="#f3ba38" stroke-width="4.250" stroke-opacity="1.000" stroke-linecap="round" stroke-linejoin="round" d="M 8066.988 2211.880 Q 8065.230 2212.007 8065.168 2212.017 Q 8065.106 2212.027 8068.441 2230.460 Q 8071.776 2248.893 8072.225 2249.865 "></path>
    <path id="STROKE_08a554e7-62d1-4ef8-a26b-c06e4112d4aa" opacity="1.000" fill="none" stroke="#f3ba38" stroke-width="4.250" stroke-opacity="1.000" stroke-linecap="round" stroke-linejoin="round" d="M 8049.625 2224.329 Q 8050.594 2224.873 8049.705 2223.684 Q 8048.816 2222.495 8064.991 2220.901 Q 8081.166 2219.307 8082.604 2218.918 "></path>
    <path id="STROKE_f494c8e7-76a7-4163-8a49-1fcf69a495d6" opacity="1.000" fill="none" stroke="#f3ba38" stroke-width="4.229" stroke-opacity="1.000" stroke-linecap="round" stroke-linejoin="round" d="M 8091.002 2216.089 Q 8090.130 2215.522 8089.349 2223.236 Q 8088.567 2230.950 8094.423 2245.303 Q 8094.943 2245.357 8096.379 2245.366 Q 8097.814 2245.374 8100.761 2238.694 Q 8103.708 2232.014 8106.101 2224.330 Q 8106.198 2224.088 8105.959 2243.110 Q 8105.278 2243.525 8107.199 2242.531 Q 8109.120 2241.536 8109.875 2240.563 "></path>
    <path id="STROKE_98ca3512-3e68-4a6a-a839-3422c029f4ed" opacity="1.000" fill="none" stroke="#f3ba38" stroke-width="4.250" stroke-opacity="1.000" stroke-linecap="round" stroke-linejoin="round" d="M 8126.058 2232.287 Q 8125.692 2233.076 8125.570 2234.024 Q 8125.449 2234.972 8126.100 2235.804 Q 8126.750 2236.636 8126.703 2236.677 Q 8126.655 2236.717 8131.006 2237.478 Q 8135.356 2238.239 8138.970 2237.536 Q 8142.583 2236.833 8145.102 2234.455 Q 8147.620 2232.076 8147.885 2228.319 Q 8148.150 2224.562 8148.181 2221.450 Q 8148.211 2218.339 8146.391 2217.263 Q 8144.570 2216.188 8143.548 2216.133 Q 8142.526 2216.079 8139.854 2216.663 Q 8137.181 2217.248 8133.506 2222.016 Q 8129.831 2226.784 8127.829 2231.167 Q 8125.826 2235.549 8125.183 2240.164 Q 8124.540 2244.778 8125.542 2248.771 Q 8126.545 2252.764 8129.884 2254.356 Q 8133.223 2255.948 8137.661 2256.223 Q 8142.099 2256.497 8142.996 2256.797 "></path>
    <path id="STROKE_d9226ab5-3bc3-4c19-a91a-d2a1113e0487" opacity="1.000" fill="none" stroke="#f3ba38" stroke-width="4.250" stroke-opacity="1.000" stroke-linecap="round" stroke-linejoin="round" d="M 8017.542 2290.432 Q 8017.820 2290.175 8016.104 2289.230 Q 8015.482 2292.108 8015.679 2291.847 Q 8014.781 2295.969 8016.126 2304.406 Q 8017.472 2312.844 8021.160 2318.190 Q 8024.848 2323.536 8027.454 2325.810 Q 8030.061 2328.083 8033.167 2328.566 Q 8036.272 2329.050 8038.773 2329.222 Q 8041.274 2329.394 8044.695 2322.938 Q 8048.115 2316.481 8048.870 2314.766 "></path>
    <path id="STROKE_6ccc8420-2d3e-405c-bb84-dd79483bacb3" opacity="1.000" fill="none" stroke="#f3ba38" stroke-width="4.020" stroke-opacity="1.000" stroke-linecap="round" stroke-linejoin="round" d="M 8055.334 2286.224 Q 8054.825 2286.097 8055.813 2299.646 Q 8056.801 2313.196 8058.920 2327.534 Q 8060.769 2327.510 8064.349 2315.544 Q 8067.930 2303.579 8078.476 2288.028 Q 8081.046 2285.606 8081.991 2323.467 Q 8081.542 2323.852 8082.781 2320.962 Q 8084.020 2318.073 8084.681 2317.171 "></path>
    <path id="STROKE_6fa09dae-d15e-4561-ae0c-66aeb5eb2a85" opacity="1.000" fill="none" stroke="#f3ba38" stroke-width="4.250" stroke-opacity="1.000" stroke-linecap="round" stroke-linejoin="round" d="M 8093.833 2322.865 Q 8092.409 2322.252 8093.239 2313.770 Q 8094.069 2305.287 8094.447 2304.226 "></path>
    <circle id="STROKE_15438add-02b5-490b-a70d-2920689a6e97" opacity="1.000" fill="#f3ba38" stroke="#f3ba38" stroke-width="0.1" stroke-opacity="1.000" fill-opacity="1.000" cx="8092.654" cy="2294.182" r="2.125"></circle>
    <path id="STROKE_1eec147b-f3d8-4678-afe8-8baa05dbdd6c" opacity="1.000" fill="none" stroke="#f3ba38" stroke-width="4.048" stroke-opacity="1.000" stroke-linecap="round" stroke-linejoin="round" d="M 8135.211 2278.124 Q 8134.207 2277.233 8131.938 2276.803 Q 8129.670 2276.374 8127.912 2276.883 Q 8126.154 2277.393 8126.376 2278.088 Q 8126.599 2278.784 8125.584 2279.398 Q 8124.568 2280.011 8122.865 2289.115 Q 8121.163 2298.218 8121.434 2304.659 Q 8121.706 2311.100 8121.554 2316.030 Q 8121.402 2320.959 8126.718 2323.024 Q 8127.780 2321.822 8128.464 2320.779 "></path>
    <path id="STROKE_6878a9b4-0d0c-41df-93a1-d3e6ea5ec3af" opacity="1.000" fill="none" stroke="#f3ba38" stroke-width="4.250" stroke-opacity="1.000" stroke-linecap="round" stroke-linejoin="round" d="M 8106.572 2302.139 Q 8106.572 2302.140 8107.362 2302.296 Q 8108.153 2302.453 8108.129 2302.511 Q 8106.868 2302.108 8121.370 2303.017 Q 8135.872 2303.926 8137.146 2304.226 "></path>
    <path id="STROKE_af686a3b-5250-43b7-b6e3-4866dad97541" opacity="1.000" fill="none" stroke="#f3ba38" stroke-width="4.250" stroke-opacity="1.000" stroke-linecap="round" stroke-linejoin="round" d="M 8143.421 2293.120 Q 8143.177 2293.495 8141.883 2293.148 Q 8140.589 2292.801 8139.119 2292.996 Q 8137.649 2293.190 8136.984 2299.980 Q 8136.318 2306.769 8136.402 2311.225 Q 8136.486 2315.682 8139.023 2317.438 Q 8141.560 2319.195 8144.313 2319.098 Q 8147.067 2319.001 8148.426 2318.746 Q 8149.784 2318.491 8152.143 2314.779 Q 8154.502 2311.068 8154.536 2307.370 Q 8154.569 2303.673 8154.238 2302.125 Q 8153.907 2300.577 8153.112 2299.333 Q 8152.317 2298.088 8150.657 2296.474 Q 8148.997 2294.860 8146.739 2295.263 Q 8144.482 2295.667 8143.892 2296.269 "></path>
    <path id="STROKE_36addb0f-6feb-4a78-a57e-6507245b4cb3" opacity="1.000" fill="none" stroke="#f3ba38" stroke-width="4.162" stroke-opacity="1.000" stroke-linecap="round" stroke-linejoin="round" d="M 8159.320 2283.819 Q 8161.318 2284.348 8158.896 2319.859 Q 8158.870 2317.678 8171.847 2288.098 Q 8172.266 2288.018 8173.708 2288.138 Q 8175.149 2288.258 8176.116 2288.487 "></path>
    <path id="STROKE_f3697881-544e-4c5d-90d0-0421f6b573a9" opacity="1.000" fill="none" stroke="#f3ba38" stroke-width="4.248" stroke-opacity="1.000" stroke-linecap="round" stroke-linejoin="round" d="M 8186.308 2288.310 Q 8186.253 2288.259 8185.956 2288.535 Q 8185.659 2288.811 8185.100 2289.377 Q 8184.540 2289.944 8183.869 2290.838 Q 8183.197 2291.733 8183.414 2291.567 Q 8183.630 2291.402 8182.827 2291.946 Q 8182.024 2292.491 8181.141 2316.641 Q 8182.773 2316.563 8184.474 2312.062 Q 8186.175 2307.562 8187.470 2304.158 Q 8188.766 2300.754 8189.843 2297.981 Q 8190.920 2295.208 8191.156 2294.714 Q 8191.393 2294.220 8192.117 2292.328 Q 8192.842 2290.435 8196.734 2288.771 Q 8198.123 2288.941 8197.867 2314.589 Q 8197.307 2314.233 8201.568 2306.267 Q 8205.829 2298.302 8212.610 2294.040 Q 8213.521 2296.661 8212.875 2302.538 Q 8212.229 2308.415 8214.448 2311.095 Q 8216.668 2313.776 8217.494 2314.306 "></path>
    <path id="STROKE_2b3c3117-842c-4566-b850-b1f4bfe1d40c" opacity="1.000" fill="none" stroke="#f3ba38" stroke-width="4.250" stroke-opacity="1.000" stroke-linecap="round" stroke-linejoin="round" d="M 8225.137 2319.717 Q 8223.078 2320.499 8221.981 2317.043 Q 8220.885 2313.588 8223.271 2309.102 Q 8225.656 2304.615 8226.316 2303.943 "></path>
    <path id="STROKE_fc158f61-b94f-4ff6-be5f-1f68a10da18e" opacity="1.000" fill="none" stroke="#f3ba38" stroke-width="4.250" stroke-opacity="1.000" stroke-linecap="round" stroke-linejoin="round" d="M 8229.478 2290.892 Q 8230.096 2291.374 8226.458 2290.114 Q 8226.553 2290.114 8227.036 2290.114 Q 8227.520 2290.114 8228.109 2290.114 "></path>
    <path id="STROKE_b555a0bd-6062-4b20-8a98-bf0bb423ddc1" opacity="1.000" fill="none" stroke="#f3ba38" stroke-width="4.241" stroke-opacity="1.000" stroke-linecap="round" stroke-linejoin="round" d="M 8254.200 2283.500 Q 8254.215 2283.760 8252.049 2290.838 Q 8249.883 2297.916 8248.066 2325.730 Q 8248.066 2325.642 8248.031 2325.191 Q 8247.996 2324.740 8247.926 2323.926 "></path>
    <path id="STROKE_21cc3870-1a82-4e94-a65f-4a820685c3bd" opacity="1.000" fill="none" stroke="#f3ba38" stroke-width="4.250" stroke-opacity="1.000" stroke-linecap="round" stroke-linejoin="round" d="M 8233.677 2303.943 Q 8235.385 2305.062 8235.470 2304.757 Q 8236.693 2305.215 8241.053 2305.019 Q 8245.413 2304.823 8250.125 2305.092 Q 8254.838 2305.361 8257.031 2306.376 Q 8259.225 2307.392 8260.192 2307.834 "></path>
    <path id="STROKE_9bbfbf2f-46bd-49f7-92ad-731e8d64c3e2" opacity="1.000" fill="none" stroke="#f3ba38" stroke-width="3.810" stroke-opacity="1.000" stroke-linecap="round" stroke-linejoin="round" d="M 8271.610 2293.120 Q 8269.052 2291.047 8268.449 2290.291 Q 8268.465 2289.979 8268.025 2297.456 Q 8267.586 2304.932 8268.019 2309.854 Q 8268.451 2314.776 8271.436 2318.050 Q 8274.419 2321.324 8277.066 2321.095 Q 8279.714 2320.866 8282.361 2319.372 Q 8285.009 2317.878 8290.624 2288.912 Q 8290.778 2288.050 8290.500 2304.332 Q 8290.223 2320.614 8276.163 2362.142 Q 8275.968 2362.247 8275.053 2361.737 Q 8274.139 2361.227 8274.157 2360.909 Q 8274.176 2360.592 8273.896 2360.251 Q 8273.618 2359.911 8271.789 2354.413 Q 8269.959 2348.914 8269.204 2347.340 "></path>
  </g>
</svg>