<?xml version="1.0" encoding="UTF-8" standalone="yes"?>
<svg xmlns="http://www.w3.org/2000/svg" xmlns:xlink="http://www.w3.org/1999/xlink" width="545.871pt" height="315.338pt" version="1.1" viewBox="9272.064 4622.977 545.871 315.338">
  <!--
	Exported with Concepts: Smarter Sketching
	Version: 1059 on iOS 15.4
	https://concepts.app/
	-->
  <title>Untitled</title>
  <desc>Drawing exported from Concepts: Smarter Sketching</desc>
  <defs></defs>
  <g id="Background" opacity="1.000">
    <path id="STROKE_a5b509de-0c33-4263-a0b4-8d5a5ff14898" opacity="1.000" fill="none" stroke="#f3ba38" stroke-width="4.250" stroke-opacity="1.000" stroke-linecap="round" stroke-linejoin="round" d="M 9299.999 4668.000 Q 9299.999 4673.558 9299.999 4678.000 Q 9299.999 4683.011 9299.999 4688.000 Q 9299.999 4695.599 9299.999 4708.000 Q 9299.999 4714.422 9299.999 4718.000 "></path>
    <path id="STROKE_1bead49c-bbff-4537-abce-db236adca454" opacity="1.000" fill="none" stroke="#f3ba38" stroke-width="4.250" stroke-opacity="1.000" stroke-linecap="round" stroke-linejoin="round" d="M 9299.999 4728.000 Q 9299.999 4733.312 9299.999 4738.000 Q 9299.999 4744.771 9299.999 4748.000 Q 9299.999 4754.494 9299.999 4758.000 Q 9299.999 4763.223 9299.999 4768.000 Q 9299.999 4774.598 9299.999 4778.000 Q 9299.999 4783.192 9299.999 4788.000 Q 9299.999 4793.993 9299.999 4798.000 Q 9299.999 4803.160 9299.999 4808.000 Q 9299.999 4813.895 9299.999 4818.000 Q 9299.999 4824.258 9299.999 4828.000 Q 9299.999 4833.560 9299.999 4838.000 Q 9299.999 4843.300 9299.999 4848.000 Q 9299.999 4853.242 9299.999 4858.000 Q 9299.999 4863.049 9299.999 4868.000 "></path>
    <path id="STROKE_0b2b8f2c-ee22-4515-b0f9-1497e9a110db" opacity="1.000" fill="none" stroke="#f3ba38" stroke-width="4.250" stroke-opacity="1.000" stroke-linecap="round" stroke-linejoin="round" d="M 9299.999 4708.000 Q 9299.999 4710.421 9299.999 4711.300 Q 9299.999 4712.179 9299.999 4718.000 Q 9299.999 4724.297 9299.999 4728.000 Q 9299.999 4733.379 9299.999 4738.000 Q 9299.999 4743.625 9299.999 4748.000 "></path>
    <circle id="STROKE_9f2314fd-2e7c-4229-b30d-fcf5336c4eea" opacity="1.000" fill="#f3ba38" stroke="#f3ba38" stroke-width="0.1" stroke-opacity="1.000" fill-opacity="1.000" cx="9299.999" cy="4745.058" r="2.125"></circle>
    <path id="STROKE_84868d18-7eba-4c40-b8cc-1593888e46da" opacity="1.000" fill="none" stroke="#f3ba38" stroke-width="3.345" stroke-opacity="1.000" stroke-linecap="round" stroke-linejoin="round" d="M 9280.000 4768.000 Q 9283.646 4768.000 9289.999 4768.000 Q 9295.783 4768.000 9299.999 4768.000 Q 9305.136 4768.000 9309.999 4768.000 Q 9315.475 4768.000 9319.999 4768.000 Q 9327.188 4768.000 9330.000 4768.000 Q 9335.842 4768.000 9340.000 4768.000 Q 9345.754 4768.000 9350.000 4768.000 Q 9355.213 4768.000 9358.974 4768.000 Q 9362.734 4768.000 9366.939 4768.000 Q 9371.144 4768.000 9373.832 4768.000 Q 9376.521 4768.000 9379.576 4768.000 Q 9382.633 4768.000 9387.605 4768.000 Q 9392.577 4768.000 9398.674 4768.000 Q 9404.770 4768.000 9420.000 4768.000 Q 9428.085 4768.000 9450.000 4768.000 Q 9455.528 4768.000 9462.516 4768.000 Q 9469.503 4768.000 9479.999 4768.000 Q 9484.867 4768.000 9489.370 4768.000 Q 9493.873 4768.000 9498.567 4768.000 Q 9503.262 4768.000 9508.098 4768.000 Q 9512.935 4768.000 9516.656 4768.000 Q 9520.379 4768.000 9523.243 4768.000 Q 9526.107 4768.000 9535.556 4768.000 Q 9545.004 4768.000 9551.619 4768.000 Q 9558.235 4768.000 9561.875 4768.000 Q 9565.516 4768.000 9574.369 4768.000 Q 9583.223 4768.000 9590.028 4768.000 Q 9596.834 4768.000 9600.820 4768.000 Q 9604.806 4768.000 9611.907 4768.000 Q 9619.009 4768.000 9622.473 4768.000 Q 9625.936 4768.000 9629.939 4768.000 Q 9633.942 4768.000 9635.830 4768.000 Q 9637.717 4768.000 9645.221 4768.000 Q 9652.726 4768.000 9670.000 4768.000 Q 9677.256 4768.000 9690.000 4768.000 Q 9698.095 4768.000 9719.999 4768.000 Q 9727.519 4768.000 9739.999 4768.000 Q 9746.222 4768.000 9750.000 4768.000 Q 9755.304 4768.000 9760.000 4768.000 Q 9765.217 4768.000 9770.000 4768.000 Q 9776.659 4768.000 9780.000 4768.000 Q 9785.651 4768.000 9789.999 4768.000 Q 9795.788 4768.000 9799.999 4768.000 Q 9805.500 4768.000 9809.999 4768.000 "></path>
    <circle id="STROKE_df3b0d08-b074-4caa-81c1-665833b01eb1" opacity="1.000" fill="#6ac0c8" stroke="#6ac0c8" stroke-width="0.1" stroke-opacity="1.000" fill-opacity="1.000" cx="9302.640" cy="4767.386" r="1.700"></circle>
    <circle id="STROKE_d724e783-8df2-4219-a0a0-2273be322f57" opacity="1.000" fill="#6ac0c8" stroke="#6ac0c8" stroke-width="0.1" stroke-opacity="1.000" fill-opacity="1.000" cx="9300.977" cy="4766.880" r="1.700"></circle>
    <path id="STROKE_cfa17789-0f34-4cab-a7f0-9dc8238f5920" opacity="1.000" fill="none" stroke="#6ac0c8" stroke-width="3.400" stroke-opacity="1.000" stroke-linecap="round" stroke-linejoin="round" d="M 9301.066 4766.729 Q 9300.953 4767.104 9301.527 4761.587 Q 9302.101 4756.070 9302.280 4755.354 "></path>
    <path id="STROKE_31382539-47df-441a-b3fb-da3c4504fb93" opacity="1.000" fill="none" stroke="#6ac0c8" stroke-width="3.400" stroke-opacity="1.000" stroke-linecap="round" stroke-linejoin="round" d="M 9302.414 4752.708 Q 9302.413 4752.514 9302.802 4750.623 Q 9303.190 4748.731 9303.404 4748.125 "></path>
    <path id="STROKE_113c81df-1e95-4816-87ae-a48f5d8e6f55" opacity="1.000" fill="none" stroke="#6ac0c8" stroke-width="3.400" stroke-opacity="1.000" stroke-linecap="round" stroke-linejoin="round" d="M 9303.764 4746.204 Q 9303.794 4745.965 9304.406 4744.142 Q 9305.020 4742.317 9305.449 4741.127 Q 9305.879 4739.937 9306.154 4739.018 Q 9306.431 4738.098 9306.596 4737.430 Q 9306.762 4736.761 9306.926 4736.354 Q 9307.089 4735.947 9307.551 4734.161 Q 9308.012 4732.374 9308.232 4731.151 Q 9308.452 4729.928 9308.567 4729.384 Q 9308.683 4728.840 9308.920 4727.525 Q 9309.158 4726.211 9309.379 4725.426 Q 9309.600 4724.642 9309.880 4723.938 Q 9310.160 4723.233 9310.348 4722.755 Q 9310.535 4722.277 9310.912 4721.482 Q 9311.288 4720.688 9312.092 4719.432 Q 9312.896 4718.175 9314.162 4715.245 Q 9315.429 4712.314 9315.964 4710.681 Q 9316.499 4709.048 9316.789 4708.163 Q 9317.079 4707.278 9317.402 4706.610 Q 9317.725 4705.942 9317.912 4705.575 Q 9318.099 4705.208 9318.140 4705.150 Q 9318.181 4705.092 9318.461 4704.677 Q 9318.740 4704.263 9318.964 4703.922 Q 9319.188 4703.581 9319.502 4703.240 Q 9319.816 4702.899 9320.220 4702.472 Q 9320.623 4702.045 9320.983 4701.683 "></path>
    <path id="STROKE_269b119f-b23b-48ce-9f57-1c4e85578141" opacity="1.000" fill="none" stroke="#6ac0c8" stroke-width="3.400" stroke-opacity="1.000" stroke-linecap="round" stroke-linejoin="round" d="M 9321.409 4701.548 Q 9321.593 4700.965 9322.771 4699.352 Q 9323.948 4697.738 9324.799 4696.673 Q 9325.648 4695.608 9326.152 4695.123 Q 9326.655 4694.638 9326.900 4694.465 Q 9327.146 4694.293 9327.283 4694.188 Q 9327.421 4694.083 9327.461 4694.069 Q 9327.502 4694.056 9327.402 4694.083 Q 9327.303 4694.110 9327.477 4693.994 Q 9327.649 4693.878 9328.061 4693.719 Q 9328.471 4693.560 9328.734 4693.443 Q 9328.998 4693.327 9329.188 4693.227 Q 9329.379 4693.127 9329.524 4693.038 Q 9329.670 4692.948 9329.895 4692.822 Q 9330.118 4692.696 9330.758 4692.268 Q 9331.398 4691.840 9331.645 4691.716 Q 9331.890 4691.592 9332.526 4690.989 Q 9333.163 4690.387 9334.500 4689.650 Q 9335.836 4688.914 9337.013 4688.727 Q 9338.189 4688.540 9338.762 4688.570 Q 9339.333 4688.601 9339.518 4688.593 Q 9339.702 4688.586 9339.973 4688.588 Q 9340.243 4688.590 9340.443 4688.590 Q 9340.643 4688.589 9340.961 4688.589 Q 9341.279 4688.589 9341.254 4688.564 Q 9341.228 4688.539 9341.366 4688.620 Q 9341.505 4688.701 9344.180 4688.479 Q 9346.854 4688.257 9348.447 4687.981 Q 9350.042 4687.706 9351.201 4687.725 Q 9352.360 4687.744 9352.990 4687.737 Q 9353.620 4687.730 9354.424 4687.734 Q 9355.228 4687.738 9355.745 4687.711 Q 9356.263 4687.684 9356.490 4687.713 Q 9356.718 4687.743 9356.705 4687.743 Q 9356.691 4687.743 9357.080 4687.873 Q 9357.470 4688.003 9357.955 4688.134 Q 9358.440 4688.264 9358.811 4688.344 Q 9359.181 4688.424 9359.445 4688.548 Q 9359.709 4688.672 9359.865 4688.743 Q 9360.021 4688.814 9360.146 4688.866 Q 9360.271 4688.919 9360.594 4689.083 Q 9360.916 4689.248 9361.240 4689.400 Q 9361.565 4689.552 9361.933 4689.710 Q 9362.300 4689.869 9362.334 4689.908 Q 9362.367 4689.948 9362.493 4690.023 Q 9362.619 4690.099 9363.168 4690.440 Q 9363.716 4690.782 9363.764 4690.832 Q 9363.812 4690.882 9364.320 4691.226 Q 9364.828 4691.569 9365.122 4691.889 Q 9365.416 4692.209 9365.807 4692.516 Q 9366.198 4692.823 9366.420 4693.033 Q 9366.641 4693.243 9366.941 4693.565 Q 9367.241 4693.887 9367.363 4694.037 Q 9367.484 4694.188 9367.770 4694.555 Q 9368.056 4694.921 9368.334 4695.259 Q 9368.613 4695.596 9368.792 4695.863 Q 9368.971 4696.130 9368.967 4696.117 Q 9368.963 4696.104 9368.911 4696.061 Q 9368.859 4696.017 9369.355 4696.721 Q 9369.852 4697.426 9370.389 4698.094 Q 9370.925 4698.763 9370.908 4698.727 Q 9370.893 4698.690 9371.369 4699.106 Q 9371.845 4699.522 9372.243 4699.900 Q 9372.642 4700.278 9373.805 4701.665 Q 9374.967 4703.052 9375.666 4704.010 Q 9376.365 4704.968 9376.658 4705.345 Q 9376.950 4705.721 9377.053 4705.830 Q 9377.156 4705.939 9377.383 4706.221 Q 9377.610 4706.502 9378.045 4707.146 Q 9378.480 4707.789 9378.710 4708.126 Q 9378.939 4708.463 9379.107 4708.690 Q 9379.274 4708.918 9379.528 4709.311 Q 9379.782 4709.703 9380.141 4710.271 Q 9380.498 4710.839 9380.619 4711.024 Q 9380.741 4711.210 9381.081 4711.851 Q 9381.421 4712.491 9381.546 4712.729 Q 9381.671 4712.967 9382.033 4713.745 Q 9382.395 4714.522 9383.226 4716.363 Q 9384.057 4718.204 9384.698 4719.650 Q 9385.340 4721.098 9385.703 4721.935 Q 9386.067 4722.771 9386.252 4723.323 Q 9386.436 4723.874 9386.572 4724.146 Q 9386.709 4724.419 9386.949 4724.981 Q 9387.190 4725.544 9387.453 4726.113 Q 9387.715 4726.682 9387.935 4727.229 Q 9388.154 4727.776 9388.238 4728.027 Q 9388.321 4728.278 9388.418 4728.508 Q 9388.516 4728.738 9389.107 4730.193 Q 9389.699 4731.649 9390.030 4732.379 Q 9390.361 4733.109 9390.516 4733.484 Q 9390.670 4733.859 9390.976 4734.616 Q 9391.281 4735.374 9391.394 4735.846 Q 9391.506 4736.317 9391.564 4736.556 Q 9391.624 4736.795 9391.691 4737.034 Q 9391.758 4737.272 9391.820 4737.557 Q 9391.884 4737.841 9391.946 4738.135 Q 9392.009 4738.429 9392.096 4738.854 Q 9392.183 4739.279 9392.389 4739.975 Q 9392.595 4740.670 9392.896 4742.082 Q 9393.196 4743.494 9393.310 4744.372 Q 9393.423 4745.250 9393.497 4745.634 Q 9393.571 4746.018 9393.618 4746.389 Q 9393.665 4746.761 9393.707 4747.730 Q 9393.750 4748.699 9393.829 4749.708 Q 9393.908 4750.716 9393.966 4751.277 Q 9394.023 4751.838 9394.061 4752.092 Q 9394.098 4752.346 9394.117 4752.415 Q 9394.136 4752.484 9394.179 4752.808 Q 9394.222 4753.131 9394.226 4753.382 Q 9394.229 4753.633 9394.295 4754.316 Q 9394.359 4754.999 9394.389 4755.460 Q 9394.419 4755.921 9394.432 4756.200 Q 9394.443 4756.479 9394.473 4756.735 Q 9394.501 4756.991 9394.592 4758.336 Q 9394.684 4759.681 9394.759 4760.593 Q 9394.834 4761.506 9394.863 4762.126 Q 9394.894 4762.746 9394.930 4763.300 Q 9394.965 4763.854 9394.994 4764.163 Q 9395.023 4764.473 9395.029 4764.720 Q 9395.036 4764.967 9395.071 4765.268 Q 9395.106 4765.569 9395.131 4765.750 Q 9395.155 4765.932 9395.139 4765.796 Q 9395.122 4765.660 9395.205 4766.627 Q 9395.288 4767.595 9395.423 4768.666 L 9395.457 4768.666 Q 9395.431 4768.673 9395.438 4768.475 Q 9395.443 4768.277 9395.720 4767.633 Q 9395.996 4766.989 9396.243 4766.593 "></path>
    <path id="STROKE_af1ee5e5-5730-4477-8ca0-27eaa7e86612" opacity="1.000" fill="none" stroke="#6ac0c8" stroke-width="3.400" stroke-opacity="1.000" stroke-linecap="round" stroke-linejoin="round" d="M 9396.670 4764.807 Q 9396.057 4765.035 9394.603 4764.437 L 9394.637 4764.437 Q 9394.791 4764.933 9395.359 4766.942 Q 9395.929 4768.953 9396.176 4769.525 "></path>
    <path id="STROKE_7146b1b4-66d6-4158-a369-8ac9681bb6c8" opacity="1.000" fill="none" stroke="#6ac0c8" stroke-width="3.400" stroke-opacity="1.000" stroke-linecap="round" stroke-linejoin="round" d="M 9397.029 4773.536 Q 9397.014 4773.315 9397.477 4774.472 Q 9397.938 4775.628 9398.223 4776.454 Q 9398.507 4777.280 9398.654 4777.849 Q 9398.801 4778.417 9398.869 4778.661 Q 9398.938 4778.905 9399.062 4779.218 Q 9399.188 4779.530 9399.506 4781.137 Q 9399.823 4782.744 9400.029 4783.925 Q 9400.235 4785.105 9400.379 4785.882 Q 9400.523 4786.658 9400.627 4787.279 Q 9400.731 4787.899 9400.801 4788.448 Q 9400.870 4788.998 9400.983 4789.795 Q 9401.097 4790.592 9401.202 4791.270 Q 9401.308 4791.948 9401.369 4792.491 Q 9401.432 4793.034 9401.533 4793.777 Q 9401.634 4794.521 9401.863 4795.857 Q 9402.093 4797.192 9402.223 4798.075 Q 9402.352 4798.958 9402.421 4799.457 Q 9402.490 4799.957 9402.534 4800.379 Q 9402.578 4800.801 9402.658 4801.483 Q 9402.737 4802.167 9402.789 4802.582 Q 9402.842 4802.997 9402.948 4804.250 Q 9403.055 4805.503 9403.297 4806.691 Q 9403.538 4807.879 9403.752 4808.519 "></path>
    <path id="STROKE_ad86954d-8952-4800-b4d9-b8e5f9f9fd04" opacity="1.000" fill="none" stroke="#6ac0c8" stroke-width="3.400" stroke-opacity="1.000" stroke-linecap="round" stroke-linejoin="round" d="M 9403.752 4808.957 Q 9403.724 4809.071 9403.883 4810.425 Q 9404.041 4811.779 9404.146 4812.597 Q 9404.253 4813.414 9404.334 4814.087 Q 9404.415 4814.760 9404.479 4815.305 Q 9404.543 4815.850 9404.614 4816.483 Q 9404.686 4817.116 9404.798 4817.641 Q 9404.910 4818.165 9405.035 4818.827 Q 9405.161 4819.489 9405.257 4820.002 Q 9405.353 4820.516 9405.659 4821.372 Q 9405.966 4822.228 9406.180 4822.624 "></path>
    <path id="STROKE_37779548-b395-4020-8d02-0fd03a32c47e" opacity="1.000" fill="none" stroke="#6ac0c8" stroke-width="3.400" stroke-opacity="1.000" stroke-linecap="round" stroke-linejoin="round" d="M 9406.180 4822.623 Q 9406.354 4823.476 9406.531 4824.002 Q 9406.707 4824.528 9406.848 4825.047 Q 9406.989 4825.566 9407.098 4825.976 Q 9407.205 4826.385 9407.427 4827.142 Q 9407.648 4827.898 9407.816 4828.448 Q 9407.984 4828.998 9408.163 4829.577 Q 9408.342 4830.156 9408.469 4830.533 Q 9408.597 4830.909 9408.707 4831.222 Q 9408.816 4831.535 9409.037 4831.933 Q 9409.258 4832.330 9409.753 4833.093 Q 9410.248 4833.855 9410.540 4834.217 "></path>
    <path id="STROKE_01254a43-306c-4a4e-877f-cd18ddc62f5c" opacity="1.000" fill="none" stroke="#6ac0c8" stroke-width="3.400" stroke-opacity="1.000" stroke-linecap="round" stroke-linejoin="round" d="M 9410.878 4834.217 Q 9412.002 4834.663 9411.776 4834.782 Q 9412.193 4835.375 9412.631 4836.118 Q 9413.068 4836.862 9413.173 4837.070 Q 9413.277 4837.279 9413.526 4837.673 Q 9413.775 4838.066 9413.923 4838.292 Q 9414.070 4838.518 9414.305 4838.970 Q 9414.538 4839.423 9415.532 4840.657 Q 9416.526 4841.892 9417.418 4842.822 Q 9418.311 4843.751 9418.921 4844.408 Q 9419.531 4845.065 9419.713 4845.229 Q 9419.896 4845.394 9420.064 4845.548 Q 9420.233 4845.703 9420.271 4845.749 Q 9420.311 4845.795 9420.963 4846.393 Q 9421.615 4846.990 9422.212 4847.425 Q 9422.809 4847.860 9423.248 4848.193 Q 9423.688 4848.527 9424.330 4848.996 Q 9424.973 4849.466 9425.531 4849.857 Q 9426.089 4850.249 9426.614 4850.650 Q 9427.140 4851.051 9427.638 4851.372 Q 9428.136 4851.693 9428.839 4852.119 Q 9429.542 4852.546 9430.750 4853.159 Q 9431.957 4853.771 9432.408 4853.996 Q 9432.858 4854.220 9433.570 4854.470 Q 9434.281 4854.721 9434.867 4854.929 Q 9435.453 4855.137 9436.208 4855.266 Q 9436.963 4855.395 9437.479 4855.439 Q 9437.993 4855.483 9438.622 4855.506 Q 9439.251 4855.528 9439.814 4855.533 Q 9440.379 4855.537 9440.584 4855.536 Q 9440.789 4855.535 9441.135 4855.526 Q 9441.481 4855.518 9442.224 4855.545 Q 9442.966 4855.572 9443.659 4855.517 Q 9444.353 4855.462 9444.900 4855.251 Q 9445.447 4855.040 9445.912 4854.946 Q 9446.378 4854.853 9451.045 4852.625 Q 9455.713 4850.397 9458.955 4848.816 Q 9462.197 4847.235 9465.367 4844.311 Q 9468.538 4841.387 9471.182 4838.749 Q 9473.824 4836.111 9476.097 4831.570 Q 9478.369 4827.028 9480.629 4821.481 Q 9482.888 4815.935 9484.385 4811.049 Q 9485.882 4806.163 9486.541 4803.641 Q 9487.200 4801.119 9487.377 4800.123 Q 9487.553 4799.126 9488.367 4795.682 Q 9489.183 4792.237 9489.703 4790.393 Q 9490.224 4788.548 9490.470 4787.825 Q 9490.716 4787.103 9490.896 4786.418 Q 9491.078 4785.732 9491.207 4785.253 Q 9491.337 4784.774 9491.438 4784.128 Q 9491.537 4783.482 9491.558 4783.365 Q 9491.578 4783.249 9491.608 4783.073 Q 9491.639 4782.897 9491.693 4782.489 Q 9491.749 4782.081 9491.859 4781.430 Q 9491.971 4780.778 9492.047 4780.404 Q 9492.122 4780.031 9492.188 4779.642 Q 9492.252 4779.252 9492.383 4778.821 Q 9492.514 4778.391 9492.573 4778.233 Q 9492.633 4778.076 9492.639 4778.002 Q 9492.644 4777.929 9492.756 4777.596 Q 9492.867 4777.264 9492.989 4776.969 Q 9493.111 4776.674 9493.350 4776.094 Q 9493.587 4775.513 9493.729 4775.137 Q 9493.872 4774.761 9493.869 4774.775 Q 9493.865 4774.789 9494.008 4774.349 Q 9494.149 4773.908 9494.158 4773.876 Q 9494.166 4773.844 9494.180 4773.820 Q 9494.193 4773.796 9494.243 4773.567 Q 9494.293 4773.339 9494.441 4772.830 Q 9494.591 4772.321 9494.706 4772.041 Q 9494.821 4771.760 9494.840 4771.725 Q 9494.859 4771.690 9495.010 4771.286 Q 9495.160 4770.882 9495.195 4770.787 Q 9495.230 4770.692 9495.232 4770.687 Q 9495.235 4770.681 9495.252 4770.635 Q 9495.270 4770.589 9495.268 4770.603 Q 9495.266 4770.616 9495.561 4769.946 Q 9495.855 4769.275 9495.822 4769.340 Q 9495.790 4769.404 9495.816 4769.295 Q 9495.844 4769.187 9495.861 4768.776 Q 9495.879 4768.365 9495.874 4768.439 Q 9495.869 4768.513 9495.871 4768.509 Q 9495.872 4768.506 9495.871 4768.380 Q 9495.838 4768.523 9495.804 4768.666 "></path>
    <path id="STROKE_2d9adaf8-7d26-4230-9544-fb64368c7ef4" opacity="1.000" fill="none" stroke="#6ac0c8" stroke-width="3.400" stroke-opacity="1.000" stroke-linecap="round" stroke-linejoin="round" d="M 9392.895 4762.802 Q 9392.860 4762.802 9392.760 4762.802 Q 9392.761 4763.050 9392.752 4763.010 Q 9392.744 4762.971 9392.747 4762.955 Q 9392.750 4762.939 9392.720 4762.934 Q 9392.689 4762.928 9392.909 4763.605 Q 9393.129 4764.282 9393.286 4764.472 Q 9393.443 4764.661 9393.539 4764.870 Q 9393.636 4765.080 9393.746 4765.260 Q 9393.856 4765.440 9394.363 4766.760 Q 9394.870 4768.079 9395.185 4769.061 Q 9395.499 4770.043 9395.723 4770.892 Q 9395.946 4771.740 9396.434 4774.181 Q 9396.922 4776.622 9397.459 4778.293 Q 9397.997 4779.965 9398.244 4780.395 "></path>
    <path id="STROKE_9728021c-7d80-4478-979e-9e256db2b3ae" opacity="1.000" fill="none" stroke="#6ac0c8" stroke-width="3.400" stroke-opacity="1.000" stroke-linecap="round" stroke-linejoin="round" d="M 9398.244 4780.327 Q 9398.032 4779.779 9398.638 4781.405 Q 9398.750 4781.405 9398.963 4781.245 Q 9399.177 4781.085 9399.391 4780.765 "></path>
    <path id="STROKE_cabd7f72-d4ca-4e49-bfce-27d26516c594" opacity="1.000" fill="none" stroke="#6ac0c8" stroke-width="3.400" stroke-opacity="1.000" stroke-linecap="round" stroke-linejoin="round" d="M 9493.150 4781.692 Q 9493.434 4781.818 9492.297 4778.676 Q 9492.297 4779.628 9492.331 4779.510 Q 9492.545 4779.796 9492.725 4779.906 "></path>
    <path id="STROKE_0e5fe7ba-78d5-42f7-802d-b416cdbad1c6" opacity="1.000" fill="none" stroke="#6ac0c8" stroke-width="3.400" stroke-opacity="1.000" stroke-linecap="round" stroke-linejoin="round" d="M 9492.791 4779.973 Q 9492.802 4779.987 9492.828 4779.993 Q 9492.854 4779.999 9492.859 4779.965 Q 9492.865 4779.931 9492.850 4779.977 Q 9492.835 4780.023 9493.002 4779.869 Q 9493.168 4779.714 9493.188 4779.654 Q 9493.206 4779.594 9493.185 4779.671 Q 9493.163 4779.749 9493.225 4779.511 Q 9493.285 4779.272 9493.518 4777.538 Q 9493.750 4775.804 9493.905 4774.819 Q 9494.061 4773.833 9494.160 4772.812 Q 9494.259 4771.791 9494.578 4769.382 Q 9494.896 4766.974 9495.254 4765.340 Q 9495.611 4763.705 9496.551 4761.167 Q 9497.490 4758.628 9498.152 4757.057 Q 9498.815 4755.485 9499.383 4754.200 Q 9499.950 4752.915 9500.557 4750.927 Q 9501.164 4748.938 9501.495 4747.127 Q 9501.826 4745.315 9502.551 4742.611 Q 9503.276 4739.906 9503.762 4738.475 Q 9504.246 4737.043 9504.598 4736.343 Q 9504.948 4735.644 9506.238 4732.388 Q 9507.528 4729.132 9508.533 4725.202 Q 9509.539 4721.272 9510.153 4719.009 Q 9510.768 4716.746 9511.352 4715.488 Q 9511.935 4714.229 9512.561 4712.950 Q 9513.187 4711.671 9513.554 4711.011 Q 9513.921 4710.350 9514.428 4709.576 Q 9514.936 4708.802 9515.409 4708.185 Q 9515.883 4707.567 9516.295 4707.087 Q 9516.707 4706.607 9516.685 4706.670 Q 9516.662 4706.732 9517.889 4705.230 Q 9519.115 4703.729 9520.872 4701.259 Q 9522.629 4698.790 9524.541 4696.893 Q 9526.453 4694.996 9527.967 4693.665 Q 9529.479 4692.334 9530.274 4691.650 Q 9531.069 4690.966 9531.494 4690.605 Q 9531.920 4690.245 9532.287 4689.917 Q 9532.654 4689.589 9533.151 4689.235 Q 9533.648 4688.880 9534.388 4688.377 Q 9535.127 4687.873 9535.496 4687.622 Q 9535.865 4687.371 9536.559 4686.987 Q 9537.252 4686.604 9539.392 4685.379 Q 9541.531 4684.155 9542.624 4683.378 Q 9543.717 4682.601 9544.552 4682.036 Q 9545.387 4681.471 9545.631 4681.304 Q 9545.876 4681.136 9547.037 4680.563 Q 9548.197 4679.991 9548.803 4679.779 Q 9549.408 4679.567 9549.932 4679.375 Q 9550.455 4679.183 9550.737 4679.124 Q 9551.020 4679.066 9551.326 4679.006 Q 9551.633 4678.946 9551.859 4678.905 Q 9552.087 4678.864 9552.432 4678.815 Q 9552.777 4678.766 9553.025 4678.731 Q 9553.273 4678.697 9553.547 4678.662 Q 9553.820 4678.628 9554.264 4678.599 Q 9554.708 4678.570 9555.121 4678.542 Q 9555.534 4678.515 9556.010 4678.501 Q 9556.484 4678.488 9557.006 4678.509 Q 9557.526 4678.530 9557.768 4678.455 Q 9558.008 4678.379 9558.985 4678.587 Q 9559.963 4678.796 9560.305 4678.985 Q 9560.646 4679.175 9560.922 4679.270 Q 9561.197 4679.365 9561.657 4679.551 Q 9562.117 4679.736 9562.591 4679.902 Q 9563.064 4680.067 9563.113 4680.108 Q 9563.161 4680.149 9563.251 4680.090 Q 9563.341 4680.031 9564.779 4680.808 Q 9566.218 4681.585 9567.150 4682.418 Q 9568.083 4683.251 9568.808 4684.012 Q 9569.532 4684.772 9570.720 4685.899 Q 9571.907 4687.026 9572.599 4687.601 Q 9573.290 4688.175 9574.307 4689.533 Q 9575.322 4690.891 9577.215 4694.089 Q 9579.107 4697.288 9580.177 4698.740 Q 9581.246 4700.192 9581.735 4700.768 Q 9582.225 4701.344 9583.066 4702.789 Q 9583.908 4704.233 9584.223 4705.100 Q 9584.537 4705.966 9585.068 4708.083 Q 9585.599 4710.200 9585.963 4711.667 Q 9586.328 4713.134 9586.590 4713.958 Q 9586.853 4714.781 9587.025 4715.312 Q 9587.197 4715.843 9587.368 4716.317 Q 9587.539 4716.791 9587.797 4717.425 Q 9588.054 4718.059 9588.279 4718.623 Q 9588.506 4719.188 9588.747 4719.810 Q 9588.988 4720.431 9589.100 4720.735 Q 9589.211 4721.040 9589.418 4721.596 Q 9589.625 4722.152 9589.738 4722.485 Q 9589.853 4722.817 9589.994 4723.321 Q 9590.137 4723.826 9590.275 4724.315 Q 9590.413 4724.806 9590.516 4725.128 Q 9590.617 4725.450 9590.738 4725.782 Q 9590.858 4726.114 9590.949 4726.375 Q 9591.039 4726.635 9591.121 4726.873 Q 9591.204 4727.111 9591.453 4727.751 Q 9591.702 4728.391 9591.963 4728.880 Q 9592.225 4729.370 9592.750 4730.403 Q 9593.275 4731.437 9593.598 4732.078 Q 9593.921 4732.719 9594.140 4733.261 Q 9594.358 4733.802 9594.551 4734.354 Q 9594.744 4734.906 9594.932 4735.663 Q 9595.118 4736.420 9595.911 4739.285 Q 9596.704 4742.149 9597.399 4744.209 Q 9598.095 4746.269 9598.450 4747.412 Q 9598.806 4748.556 9599.104 4749.995 Q 9599.402 4751.435 9599.562 4752.291 Q 9599.723 4753.147 9599.852 4753.822 Q 9599.981 4754.497 9600.062 4754.999 Q 9600.142 4755.500 9600.197 4756.127 Q 9600.254 4756.753 9600.279 4757.047 Q 9600.306 4757.340 9600.398 4758.282 Q 9600.492 4759.225 9600.525 4759.671 Q 9600.559 4760.118 9600.595 4760.419 Q 9600.631 4760.721 9600.633 4762.215 Q 9600.636 4763.708 9600.681 4764.476 Q 9600.726 4765.243 9600.816 4765.741 Q 9600.908 4766.239 9601.011 4766.617 Q 9601.113 4766.996 9601.139 4767.160 Q 9601.163 4767.324 9601.254 4767.858 Q 9601.346 4768.392 9601.347 4768.493 Q 9601.348 4768.594 9601.345 4768.505 Q 9601.342 4768.416 9601.344 4769.087 Q 9601.320 4768.609 9601.383 4768.246 Q 9601.445 4767.883 9601.546 4767.739 "></path>
    <circle id="STROKE_e8d7cc26-5b67-4ce5-8941-32c810220fbb" opacity="1.000" fill="#6ac0c8" stroke="#6ac0c8" stroke-width="0.1" stroke-opacity="1.000" fill-opacity="1.000" cx="9599.118" cy="4773.890" r="1.700"></circle>
    <path id="STROKE_b3c7d8e4-6a86-4c52-afcf-2ab60a0dd15a" opacity="1.000" fill="none" stroke="#6ac0c8" stroke-width="3.400" stroke-opacity="1.000" stroke-linecap="round" stroke-linejoin="round" d="M 9599.838 4772.812 Q 9599.907 4772.125 9599.994 4771.323 Q 9600.082 4770.522 9600.070 4770.095 Q 9600.059 4769.668 9600.062 4769.679 Q 9600.064 4769.689 9600.063 4769.676 Q 9600.062 4769.663 9600.063 4769.739 Q 9600.064 4769.815 9600.070 4769.798 Q 9600.076 4769.780 9600.062 4769.690 Q 9600.048 4769.601 9600.080 4769.754 Q 9600.113 4769.907 9600.098 4769.809 Q 9600.081 4769.711 9599.920 4768.993 Q 9599.758 4768.274 9599.730 4768.283 Q 9599.703 4768.292 9599.708 4768.275 Q 9599.713 4768.259 9599.598 4767.712 Q 9599.482 4767.166 9599.527 4767.379 Q 9599.573 4767.593 9599.546 4767.234 Q 9599.591 4767.234 9599.771 4767.234 Q 9599.647 4766.688 9602.133 4773.932 Q 9604.617 4781.175 9606.915 4786.664 Q 9609.213 4792.153 9610.639 4794.637 Q 9612.063 4797.121 9612.511 4798.521 Q 9612.958 4799.920 9613.336 4800.894 Q 9613.715 4801.867 9614.561 4805.673 Q 9615.407 4809.479 9615.969 4811.817 Q 9616.530 4814.155 9617.136 4816.122 Q 9617.741 4818.089 9617.955 4818.692 Q 9618.169 4819.296 9619.543 4822.050 Q 9620.916 4824.805 9621.749 4826.321 Q 9622.582 4827.838 9623.162 4828.715 Q 9623.743 4829.592 9624.209 4830.402 Q 9624.674 4831.211 9624.987 4831.739 Q 9625.301 4832.268 9625.898 4833.207 Q 9626.497 4834.146 9627.289 4835.281 Q 9628.080 4836.416 9629.438 4837.914 Q 9630.797 4839.411 9631.734 4840.242 Q 9632.672 4841.073 9633.205 4841.440 Q 9633.739 4841.807 9636.082 4844.713 Q 9638.426 4847.619 9641.463 4849.532 Q 9644.501 4851.446 9646.633 4852.124 Q 9648.764 4852.803 9649.791 4853.126 Q 9650.819 4853.449 9651.578 4853.456 Q 9652.338 4853.463 9652.913 4853.461 Q 9653.488 4853.459 9653.947 4853.456 Q 9654.406 4853.454 9654.660 4853.471 Q 9654.915 4853.488 9655.260 4853.479 Q 9655.604 4853.469 9656.153 4853.373 Q 9656.702 4853.277 9657.047 4853.156 Q 9657.392 4853.034 9657.793 4853.060 Q 9658.193 4853.084 9659.732 4852.332 Q 9661.272 4851.580 9662.311 4850.884 Q 9663.350 4850.188 9664.043 4849.634 Q 9664.735 4849.081 9665.291 4848.639 Q 9665.848 4848.196 9666.317 4847.816 Q 9666.787 4847.436 9667.543 4846.779 Q 9668.300 4846.124 9669.285 4845.277 Q 9670.270 4844.432 9671.072 4843.812 Q 9671.875 4843.191 9672.385 4842.841 Q 9672.894 4842.490 9673.147 4842.329 Q 9673.401 4842.168 9674.600 4841.379 Q 9675.799 4840.589 9677.127 4838.986 Q 9678.455 4837.383 9679.229 4836.224 Q 9680.003 4835.064 9680.834 4833.742 Q 9681.666 4832.420 9683.763 4828.744 Q 9685.859 4825.067 9686.902 4821.670 Q 9687.946 4818.273 9688.326 4814.895 Q 9688.706 4811.517 9689.105 4808.976 Q 9689.505 4806.436 9689.783 4804.828 Q 9690.062 4803.221 9690.263 4802.421 Q 9690.463 4801.622 9690.955 4799.745 Q 9691.446 4797.869 9691.773 4796.674 Q 9692.100 4795.479 9692.297 4794.681 Q 9692.494 4793.882 9692.787 4792.681 Q 9693.081 4791.479 9693.342 4789.821 Q 9693.603 4788.162 9693.698 4787.087 Q 9693.794 4786.012 9693.845 4785.357 Q 9693.896 4784.703 9693.946 4784.202 Q 9693.997 4783.702 9694.123 4782.972 Q 9694.249 4782.241 9694.533 4781.239 Q 9694.816 4780.236 9695.432 4777.886 Q 9696.047 4775.535 9696.237 4774.390 Q 9696.428 4773.246 9696.530 4772.863 Q 9696.633 4772.480 9696.768 4772.120 Q 9696.901 4771.760 9696.885 4771.780 Q 9696.868 4771.800 9696.877 4771.791 Q 9696.886 4771.782 9696.883 4771.699 Q 9696.879 4771.616 9696.881 4771.379 Q 9696.667 4771.632 9696.453 4771.885 "></path>
    <path id="STROKE_ddd70768-6444-4ad3-95e1-451238dd6571" opacity="1.000" fill="none" stroke="#6ac0c8" stroke-width="3.384" stroke-opacity="1.000" stroke-linecap="round" stroke-linejoin="round" d="M 9699.308 4767.874 Q 9698.811 4769.024 9698.915 4768.775 Q 9698.529 4769.783 9698.580 4769.585 Q 9698.632 4769.387 9698.608 4769.565 Q 9698.585 4769.743 9698.607 4769.493 Q 9698.630 4769.244 9698.454 4770.671 Q 9698.502 4769.259 9698.566 4769.239 Q 9698.516 4768.275 9699.342 4764.234 Q 9700.168 4760.193 9700.733 4757.807 Q 9701.299 4755.419 9701.609 4754.095 Q 9701.920 4752.771 9702.245 4751.574 Q 9702.570 4750.378 9703.040 4748.627 Q 9703.510 4746.876 9705.904 4738.118 Q 9708.299 4729.359 9709.812 4723.842 Q 9711.324 4718.324 9713.646 4713.772 Q 9715.968 4709.220 9717.484 4706.664 Q 9719.001 4704.109 9719.935 4702.312 Q 9720.868 4700.516 9722.717 4697.463 Q 9724.566 4694.411 9726.070 4692.606 Q 9727.575 4690.801 9728.396 4689.839 Q 9729.219 4688.876 9729.736 4688.267 Q 9730.254 4687.657 9730.592 4687.270 Q 9730.931 4686.883 9731.831 4685.864 Q 9732.731 4684.845 9733.126 4684.349 Q 9733.521 4683.854 9735.025 4681.987 Q 9736.530 4680.120 9737.857 4678.643 Q 9739.185 4677.165 9743.020 4675.196 Q 9746.854 4673.228 9749.004 4672.404 Q 9751.154 4671.581 9752.566 4671.343 Q 9753.978 4671.105 9754.656 4671.069 Q 9755.334 4671.034 9755.825 4671.013 Q 9756.316 4670.992 9757.129 4670.995 Q 9757.940 4670.998 9758.715 4670.997 Q 9759.489 4670.996 9759.902 4670.998 Q 9760.316 4671.000 9760.736 4670.990 Q 9761.155 4670.979 9761.548 4670.986 Q 9761.940 4670.993 9762.688 4671.102 Q 9763.436 4671.210 9764.080 4671.333 Q 9764.726 4671.457 9765.299 4671.590 Q 9765.871 4671.723 9766.078 4671.749 Q 9766.286 4671.775 9768.664 4672.510 Q 9771.043 4673.245 9772.556 4674.034 Q 9774.068 4674.823 9774.336 4675.044 Q 9774.604 4675.265 9775.273 4676.009 Q 9775.942 4676.753 9776.055 4676.921 Q 9776.166 4677.088 9776.408 4677.415 Q 9776.651 4677.741 9777.045 4678.423 Q 9777.438 4679.104 9777.686 4679.638 Q 9777.933 4680.171 9778.322 4681.012 Q 9778.712 4681.854 9779.057 4682.580 Q 9779.402 4683.306 9779.515 4683.514 Q 9779.627 4683.722 9779.963 4684.519 Q 9780.300 4685.315 9782.496 4688.625 Q 9784.692 4691.935 9786.170 4694.747 Q 9787.647 4697.560 9788.139 4700.404 Q 9788.629 4703.249 9789.359 4707.067 Q 9790.091 4710.887 9791.281 4713.321 Q 9792.471 4715.756 9793.112 4716.971 Q 9793.754 4718.186 9794.260 4721.385 Q 9794.767 4724.583 9794.893 4728.146 Q 9795.019 4731.709 9795.191 4733.661 Q 9795.363 4735.612 9795.448 4736.731 Q 9795.533 4737.851 9795.568 4738.516 Q 9795.604 4739.181 9795.643 4739.906 Q 9795.683 4740.631 9795.723 4741.370 Q 9795.763 4742.109 9795.779 4742.733 Q 9795.795 4743.357 9795.822 4744.309 Q 9795.851 4745.260 9795.883 4746.182 Q 9795.914 4747.103 9795.959 4747.771 Q 9796.004 4748.438 9796.104 4749.468 Q 9796.205 4750.498 9796.631 4752.707 Q 9797.056 4754.916 9797.263 4757.081 Q 9797.470 4759.246 9797.486 4760.542 Q 9797.504 4761.837 9797.500 4762.580 Q 9797.495 4763.322 9797.496 4763.840 Q 9797.498 4764.358 9797.498 4764.812 Q 9797.497 4765.268 9797.498 4765.261 Q 9797.498 4765.254 9797.498 4765.582 Q 9797.499 4764.960 9797.554 4765.187 Q 9797.608 4765.414 9797.361 4764.302 Q 9797.115 4763.189 9796.936 4762.869 "></path>
    <path id="STROKE_353ba14a-2e75-4af8-a2ff-ff8675189905" opacity="1.000" fill="none" stroke="#71c047" stroke-width="2.040" stroke-opacity="1.000" stroke-linecap="round" stroke-linejoin="round" d="M 9751.325 4709.216 Q 9751.325 4709.188 9751.325 4709.691 Q 9751.285 4709.760 9751.494 4708.164 Q 9751.703 4706.567 9751.785 4705.409 Q 9751.867 4704.250 9751.893 4703.618 Q 9751.919 4702.985 9751.943 4702.511 Q 9751.969 4702.036 9751.960 4701.565 Q 9751.951 4701.094 9752.122 4693.211 Q 9752.156 4693.211 9752.235 4693.211 Q 9752.247 4693.241 9752.217 4693.147 Q 9752.188 4693.054 9752.273 4693.360 Q 9752.359 4693.667 9752.424 4693.775 "></path>
    <path id="STROKE_9ed209e7-54e1-45e0-8f5b-7a1b89c1d646" opacity="1.000" fill="none" stroke="#71c047" stroke-width="2.021" stroke-opacity="1.000" stroke-linecap="round" stroke-linejoin="round" d="M 9746.286 4692.610 Q 9746.277 4692.341 9746.228 4691.979 Q 9746.232 4692.051 9748.514 4691.995 Q 9750.795 4691.939 9752.281 4691.907 Q 9753.768 4691.875 9754.953 4692.206 Q 9756.139 4692.536 9756.888 4692.803 Q 9756.683 4692.954 9756.148 4690.674 Q 9755.613 4688.393 9755.270 4686.395 Q 9754.926 4684.396 9754.781 4683.271 Q 9754.638 4682.146 9754.518 4681.220 Q 9754.368 4681.177 9754.031 4681.225 Q 9753.693 4681.273 9753.502 4681.457 Q 9753.311 4681.640 9753.104 4681.840 Q 9752.896 4682.040 9752.715 4682.223 Q 9752.535 4682.405 9752.418 4682.522 Q 9752.301 4682.640 9752.072 4682.856 Q 9751.845 4683.073 9751.367 4683.571 Q 9750.891 4684.069 9750.531 4684.459 Q 9750.173 4684.849 9749.871 4685.191 Q 9749.569 4685.534 9749.242 4685.931 Q 9748.915 4686.327 9748.684 4686.625 Q 9748.452 4686.922 9748.198 4687.286 Q 9747.944 4687.650 9747.729 4687.966 Q 9747.514 4688.281 9747.305 4688.607 Q 9747.097 4688.933 9746.904 4689.269 Q 9746.712 4689.605 9746.572 4689.912 Q 9746.434 4690.219 9746.330 4690.484 Q 9746.228 4690.750 9746.164 4690.975 Q 9746.101 4691.198 9746.085 4691.346 Q 9746.069 4691.494 9746.066 4691.643 Q 9746.063 4691.792 9746.084 4692.168 Q 9746.210 4692.209 9746.419 4692.211 Q 9746.628 4692.213 9746.723 4692.158 Q 9746.818 4692.104 9746.890 4692.050 Q 9746.961 4691.996 9747.084 4691.946 Q 9747.206 4691.897 9748.442 4690.312 Q 9749.679 4688.728 9750.561 4687.539 Q 9751.443 4686.350 9753.582 4683.914 Q 9753.584 4683.976 9751.982 4685.979 Q 9750.380 4687.983 9749.499 4691.260 Q 9749.990 4691.662 9751.904 4689.151 Q 9753.817 4686.640 9754.968 4683.350 Q 9754.846 4683.100 9752.582 4691.727 Q 9752.674 4691.627 9753.553 4690.844 Q 9754.433 4690.062 9754.592 4689.998 "></path>
    <path id="STROKE_97dcbaeb-e7b1-4ce7-bc96-4a9e437eb4f7" opacity="1.000" fill="none" stroke="#71c047" stroke-width="1.878" stroke-opacity="1.000" stroke-linecap="round" stroke-linejoin="round" d="M 9717.266 4733.927 Q 9716.996 4733.817 9716.703 4734.990 Q 9716.749 4735.394 9718.699 4730.904 Q 9720.649 4726.415 9722.544 4721.255 Q 9722.992 4721.352 9722.925 4721.388 Q 9723.396 4721.780 9723.326 4721.705 Q 9723.988 4721.498 9724.460 4725.708 Q 9724.932 4729.918 9725.572 4735.458 Q 9725.572 4735.439 9725.549 4734.958 Q 9725.524 4734.478 9725.478 4734.263 "></path>
    <path id="STROKE_242181e5-c177-4d5a-b7ec-04e65d03f0d5" opacity="1.000" fill="none" stroke="#71c047" stroke-width="2.040" stroke-opacity="1.000" stroke-linecap="round" stroke-linejoin="round" d="M 9719.454 4729.052 Q 9719.454 4729.052 9719.454 4729.060 Q 9719.454 4729.068 9719.454 4729.083 Q 9719.741 4728.985 9723.006 4729.136 Q 9726.270 4729.287 9726.635 4729.388 "></path>
    <path id="STROKE_3e874df8-d935-4dcb-9e5b-acb1700ba5dc" opacity="1.000" fill="none" stroke="#71c047" stroke-width="2.040" stroke-opacity="1.000" stroke-linecap="round" stroke-linejoin="round" d="M 9730.271 4726.865 Q 9730.062 4726.717 9729.553 4726.068 Q 9729.659 4726.100 9729.802 4726.322 Q 9729.944 4726.543 9729.923 4726.524 Q 9729.901 4726.506 9729.961 4726.680 Q 9730.021 4726.854 9730.108 4726.885 Q 9730.196 4726.915 9730.175 4729.382 Q 9730.153 4731.850 9730.741 4734.326 Q 9730.707 4734.571 9733.920 4725.802 Q 9734.185 4725.229 9734.284 4733.130 Q 9734.559 4733.273 9735.469 4731.009 Q 9736.379 4728.744 9737.974 4727.029 Q 9738.205 4727.479 9738.500 4734.630 Q 9738.604 4734.641 9738.916 4734.103 Q 9739.229 4733.564 9739.412 4733.232 "></path>
    <path id="STROKE_ae7c6622-6522-407e-82ab-b8b24b868d55" opacity="1.000" fill="none" stroke="#71c047" stroke-width="1.960" stroke-opacity="1.000" stroke-linecap="round" stroke-linejoin="round" d="M 9741.235 4726.998 Q 9740.977 4727.050 9740.568 4726.896 Q 9740.568 4727.809 9740.568 4727.611 Q 9740.727 4728.292 9741.004 4733.482 Q 9741.280 4738.673 9741.453 4742.247 Q 9741.626 4745.820 9742.476 4748.458 L 9742.513 4748.458 Q 9742.459 4748.542 9742.556 4745.110 Q 9742.652 4741.678 9742.332 4737.822 Q 9742.011 4733.966 9741.714 4732.048 Q 9741.417 4730.130 9741.457 4729.022 Q 9741.496 4727.915 9741.541 4727.254 Q 9741.586 4726.592 9741.770 4726.334 Q 9741.954 4726.077 9742.011 4725.997 Q 9742.067 4725.918 9742.338 4725.638 Q 9742.609 4725.357 9742.944 4725.159 Q 9743.279 4724.961 9743.630 4724.908 Q 9743.980 4724.855 9743.995 4724.859 Q 9744.010 4724.862 9744.176 4724.917 Q 9744.342 4724.971 9744.612 4725.245 Q 9744.883 4725.519 9745.426 4726.633 Q 9745.968 4727.748 9746.189 4728.312 Q 9746.412 4728.875 9746.592 4729.996 Q 9746.771 4731.118 9746.750 4732.233 Q 9746.729 4733.348 9746.410 4733.939 Q 9746.092 4734.530 9745.571 4734.634 Q 9745.051 4734.738 9744.705 4734.637 Q 9744.360 4734.536 9744.181 4734.255 Q 9744.001 4733.975 9743.932 4733.876 Q 9743.863 4733.778 9743.834 4733.681 Q 9743.806 4733.584 9743.764 4733.400 Q 9743.722 4733.216 9743.653 4733.037 "></path>
    <path id="STROKE_fb9374f7-22bf-45a9-89ea-ea6a34cac752" opacity="1.000" fill="none" stroke="#71c047" stroke-width="2.040" stroke-opacity="1.000" stroke-linecap="round" stroke-linejoin="round" d="M 9750.104 4724.873 Q 9749.803 4724.938 9749.899 4724.893 Q 9749.996 4724.847 9749.858 4724.799 Q 9749.721 4724.750 9749.503 4725.592 Q 9749.285 4726.433 9749.191 4727.852 Q 9749.099 4729.270 9748.963 4735.162 Q 9749.060 4735.162 9749.377 4734.672 Q 9749.693 4734.181 9749.844 4733.966 "></path>
    <path id="STROKE_e6e6553d-1996-4548-87e8-1db95de7fb34" opacity="1.000" fill="none" stroke="#71c047" stroke-width="2.040" stroke-opacity="1.000" stroke-linecap="round" stroke-linejoin="round" d="M 9753.022 4735.294 Q 9752.896 4734.642 9752.793 4734.915 Q 9752.689 4735.189 9752.988 4732.976 Q 9753.288 4730.763 9753.388 4730.513 "></path>
    <path id="STROKE_a397c061-ccdd-411f-b2b9-83841c031481" opacity="1.000" fill="none" stroke="#71c047" stroke-width="2.040" stroke-opacity="1.000" stroke-linecap="round" stroke-linejoin="round" d="M 9753.783 4727.591 Q 9753.425 4727.510 9753.361 4727.037 Q 9753.299 4726.564 9753.314 4726.498 "></path>
    <path id="STROKE_8cc145ff-c62e-48fc-a285-b06716055ebf" opacity="1.000" fill="none" stroke="#71c047" stroke-width="2.040" stroke-opacity="1.000" stroke-linecap="round" stroke-linejoin="round" d="M 9760.172 4723.912 Q 9759.896 4723.812 9759.906 4723.841 Q 9759.854 4723.841 9759.823 4723.841 Q 9759.615 4723.618 9759.711 4729.188 Q 9759.808 4734.759 9759.870 4734.857 "></path>
    <path id="STROKE_f65dc640-4b60-462f-86a1-1137ec0cf083" opacity="1.000" fill="none" stroke="#71c047" stroke-width="2.040" stroke-opacity="1.000" stroke-linecap="round" stroke-linejoin="round" d="M 9755.670 4729.451 Q 9755.670 4729.451 9755.597 4729.296 Q 9755.523 4729.142 9756.557 4729.147 Q 9757.591 4729.152 9758.543 4729.150 Q 9759.496 4729.147 9760.225 4729.514 Q 9760.953 4729.880 9761.204 4730.013 "></path>
    <path id="STROKE_f0b69ea5-b3be-4f27-b143-d786a7a5cb8b" opacity="1.000" fill="none" stroke="#71c047" stroke-width="2.040" stroke-opacity="1.000" stroke-linecap="round" stroke-linejoin="round" d="M 9765.570 4726.529 Q 9765.538 4726.404 9765.514 4726.390 Q 9765.488 4726.375 9764.919 4726.099 Q 9764.665 4726.525 9764.545 4728.527 Q 9764.426 4730.530 9764.410 4731.642 Q 9764.395 4732.754 9764.770 4733.612 Q 9765.144 4734.471 9765.520 4734.497 Q 9765.895 4734.523 9766.432 4734.494 Q 9766.969 4734.465 9767.646 4733.634 Q 9768.322 4732.802 9769.267 4730.986 Q 9770.211 4729.171 9770.364 4726.115 Q 9770.332 4726.005 9770.168 4726.185 Q 9770.005 4726.365 9769.875 4726.529 "></path>
    <path id="STROKE_feb79211-6d2e-4325-a674-631f7f683b02" opacity="1.000" fill="none" stroke="#71c047" stroke-width="2.007" stroke-opacity="1.000" stroke-linecap="round" stroke-linejoin="round" d="M 9775.794 4729.083 Q 9775.696 4728.719 9775.585 4728.119 Q 9775.474 4727.519 9775.254 4727.169 Q 9775.034 4726.819 9774.854 4726.835 Q 9774.674 4726.851 9774.534 4726.848 Q 9774.395 4726.846 9774.324 4726.979 Q 9774.255 4727.114 9774.005 4727.435 Q 9773.755 4727.756 9773.356 4728.962 Q 9772.958 4730.168 9772.754 4731.713 Q 9772.549 4733.258 9772.505 4734.222 Q 9772.461 4735.186 9772.742 4735.545 Q 9773.022 4735.904 9773.243 4736.048 Q 9773.464 4736.191 9774.138 4735.654 Q 9774.812 4735.116 9775.506 4734.186 Q 9776.201 4733.255 9777.236 4731.004 Q 9778.271 4728.754 9778.876 4726.692 Q 9779.480 4724.630 9780.005 4722.185 Q 9779.910 4722.534 9778.979 4725.029 Q 9778.046 4727.523 9777.734 4729.543 Q 9777.424 4731.562 9777.410 4732.679 Q 9777.397 4733.795 9777.557 4734.338 Q 9777.715 4734.882 9777.912 4735.134 Q 9778.109 4735.387 9778.218 4735.480 Q 9778.326 4735.574 9778.576 4735.697 Q 9778.825 4735.821 9778.956 4735.838 Q 9779.087 4735.856 9779.298 4735.870 Q 9779.509 4735.884 9780.027 4735.812 Q 9780.547 4735.740 9780.828 4735.623 "></path>
    <path id="STROKE_be802f3c-66c2-4e3a-b926-170faad854d2" opacity="1.000" fill="none" stroke="#71c047" stroke-width="2.040" stroke-opacity="1.000" stroke-linecap="round" stroke-linejoin="round" d="M 9783.350 4731.873 Q 9782.885 4731.873 9782.852 4731.873 Q 9782.818 4731.873 9782.896 4731.873 L 9782.881 4731.873 Q 9782.791 4732.076 9784.067 4731.655 Q 9785.344 4731.235 9786.078 4730.785 Q 9786.813 4730.335 9787.219 4729.557 Q 9787.624 4728.778 9787.230 4728.223 Q 9786.836 4727.667 9785.830 4727.572 Q 9784.825 4727.477 9784.290 4727.629 Q 9783.755 4727.780 9783.135 4728.461 Q 9782.514 4729.143 9782.000 4730.390 Q 9781.485 4731.638 9781.261 4732.938 Q 9781.036 4734.240 9781.059 4734.781 Q 9781.081 4735.323 9781.367 4736.105 Q 9781.652 4736.888 9783.335 4736.388 Q 9785.018 4735.888 9785.268 4735.755 "></path>
    <path id="STROKE_f7357724-d73f-46a9-9970-40945ecee98c" opacity="1.000" fill="none" stroke="#71c047" stroke-width="2.028" stroke-opacity="1.000" stroke-linecap="round" stroke-linejoin="round" d="M 9751.032 4742.951 Q 9751.022 4743.131 9750.938 4742.521 Q 9751.025 4742.782 9751.105 4754.701 Q 9751.105 4754.646 9751.209 4753.726 Q 9751.313 4752.806 9751.428 4752.576 "></path>
    <path id="STROKE_27e98898-c23d-41bc-85ec-36b650448b5e" opacity="1.000" fill="none" stroke="#71c047" stroke-width="2.040" stroke-opacity="1.000" stroke-linecap="round" stroke-linejoin="round" d="M 9745.112 4755.130 Q 9745.585 4755.209 9749.535 4755.172 Q 9753.486 4755.136 9757.983 4754.201 Q 9757.718 4754.035 9756.514 4755.284 Q 9755.310 4756.533 9754.534 4757.890 Q 9753.759 4759.246 9752.246 4763.255 Q 9752.048 4763.383 9752.113 4763.086 Q 9752.178 4762.790 9751.803 4761.817 Q 9751.429 4760.844 9749.804 4758.901 Q 9748.179 4756.959 9746.634 4754.732 Q 9746.477 4754.859 9746.845 4755.351 Q 9747.213 4755.841 9747.363 4755.990 "></path>
    <path id="STROKE_201212d2-9783-4195-bcc8-16ad40c1f407" opacity="1.000" fill="none" stroke="#71c047" stroke-width="2.040" stroke-opacity="1.000" stroke-linecap="round" stroke-linejoin="round" d="M 9749.511 4756.060 Q 9749.516 4755.848 9749.161 4755.591 Q 9749.178 4755.832 9749.104 4756.499 Q 9749.030 4757.166 9749.160 4757.746 Q 9749.291 4758.326 9749.385 4758.564 Q 9749.479 4758.803 9749.677 4759.039 Q 9749.875 4759.275 9750.211 4759.164 Q 9750.547 4759.053 9751.730 4757.919 Q 9751.730 4758.640 9751.730 4758.416 Q 9751.730 4758.482 9751.777 4758.615 Q 9751.964 4758.588 9751.832 4758.644 Q 9751.700 4758.699 9752.611 4758.248 Q 9752.604 4758.250 9753.304 4760.091 Q 9753.060 4760.691 9754.342 4759.472 Q 9755.623 4758.251 9755.837 4758.052 "></path>
    <path id="STROKE_b5e480cd-1072-45ae-83a7-e2d7550bf834" opacity="1.000" fill="none" stroke="#71c047" stroke-width="2.040" stroke-opacity="1.000" stroke-linecap="round" stroke-linejoin="round" d="M 9756.993 4756.162 Q 9756.596 4756.417 9755.592 4756.768 Q 9754.589 4757.120 9753.605 4757.427 Q 9752.623 4757.733 9751.663 4757.833 Q 9751.953 4758.163 9750.178 4755.232 Q 9750.278 4755.018 9750.948 4755.628 Q 9751.618 4756.239 9752.055 4756.732 Q 9752.491 4757.225 9752.420 4757.452 Q 9752.349 4757.679 9752.312 4757.873 Q 9752.276 4758.067 9752.191 4758.249 Q 9752.105 4758.431 9752.072 4758.484 Q 9752.040 4758.537 9752.083 4758.509 Q 9752.126 4758.481 9751.897 4758.646 Q 9751.887 4758.397 9752.072 4758.158 Q 9752.257 4757.919 9752.387 4757.787 "></path>
    <path id="STROKE_d59830c8-ec02-4073-8485-0174f470f9ca" opacity="0.510" fill="none" stroke="#f66640" stroke-width="4.000" stroke-opacity="1.000" stroke-linecap="round" stroke-linejoin="round" stroke-dasharray="0.400,6.000" d="M 9400.000 4668.000 Q 9400.000 4670.306 9400.000 4671.405 L 9400.000 4668.000 Q 9400.000 4672.375 9400.000 4678.000 Q 9400.000 4683.280 9400.000 4688.000 Q 9400.000 4694.322 9400.000 4698.000 Q 9400.000 4703.185 9400.000 4708.000 Q 9400.000 4714.136 9400.000 4718.000 Q 9400.000 4723.192 9400.000 4728.000 Q 9400.000 4733.847 9400.000 4738.000 Q 9400.000 4744.021 9400.000 4748.000 Q 9400.000 4753.466 9400.000 4758.000 Q 9400.000 4764.166 9400.000 4768.000 Q 9400.000 4773.907 9400.000 4778.000 Q 9400.000 4784.367 9400.000 4788.000 Q 9400.000 4793.140 9400.000 4798.000 Q 9400.000 4803.303 9400.000 4808.000 Q 9400.000 4813.192 9400.000 4818.000 Q 9400.000 4823.174 9400.000 4828.000 Q 9400.000 4833.782 9400.000 4838.000 Q 9400.000 4843.318 9400.000 4848.000 Q 9400.000 4853.105 9400.000 4858.000 Q 9400.000 4863.086 9400.000 4868.000 "></path>
    <path id="STROKE_3ce119b8-f376-41be-8119-f5ddff177fc4" opacity="0.510" fill="none" stroke="#f66640" stroke-width="4.000" stroke-opacity="1.000" stroke-linecap="round" stroke-linejoin="round" stroke-dasharray="0.400,6.000" d="M 9500.000 4672.044 Q 9500.000 4671.987 9500.000 4668.000 Q 9500.000 4671.074 9500.000 4678.000 Q 9500.000 4684.146 9500.000 4688.000 Q 9500.000 4693.307 9500.000 4698.000 Q 9500.000 4704.200 9500.000 4708.000 Q 9500.000 4714.033 9500.000 4718.000 Q 9500.000 4723.626 9500.000 4728.000 Q 9500.000 4734.280 9500.000 4738.000 Q 9500.000 4744.603 9500.000 4748.000 Q 9500.000 4754.196 9500.000 4758.000 Q 9500.000 4764.314 9500.000 4768.000 Q 9500.000 4774.102 9500.000 4778.000 Q 9500.000 4784.128 9500.000 4788.000 Q 9500.000 4794.394 9500.000 4798.000 Q 9500.000 4803.885 9500.000 4808.000 Q 9500.000 4813.717 9500.000 4818.000 Q 9500.000 4823.774 9500.000 4828.000 Q 9500.000 4833.337 9500.000 4838.000 Q 9500.000 4843.079 9500.000 4848.000 Q 9500.000 4853.254 9500.000 4858.000 Q 9500.000 4863.029 9500.000 4868.000 Q 9500.000 4866.825 9500.000 4858.000 "></path>
    <path id="STROKE_7673c37d-b18f-4d72-b624-cccb04fb3e80" opacity="0.510" fill="none" stroke="#f66640" stroke-width="4.000" stroke-opacity="1.000" stroke-linecap="round" stroke-linejoin="round" stroke-dasharray="0.400,6.000" d="M 9600.000 4668.000 L 9597.701 4668.000 L 9600.000 4668.000 L 9599.238 4668.000 L 9600.000 4668.000 "></path>
    <path id="STROKE_3736cd9e-5bab-4f08-bd65-beb0dec1f8fc" opacity="0.510" fill="none" stroke="#f66640" stroke-width="4.000" stroke-opacity="1.000" stroke-linecap="round" stroke-linejoin="round" stroke-dasharray="0.400,6.000" d="M 9600.000 4668.000 Q 9600.000 4668.213 9600.000 4678.000 Q 9600.000 4683.086 9600.000 4688.000 Q 9600.000 4694.516 9600.000 4698.000 Q 9600.000 4704.976 9600.000 4708.000 Q 9600.000 4714.078 9600.000 4718.000 Q 9600.000 4723.752 9600.000 4728.000 Q 9600.000 4733.698 9600.000 4738.000 Q 9600.000 4743.291 9600.000 4748.000 Q 9600.000 4754.333 9600.000 4758.000 Q 9600.000 4763.299 9600.000 4768.000 Q 9600.000 4773.280 9600.000 4778.000 Q 9600.000 4783.934 9600.000 4788.000 Q 9600.000 4793.036 9600.000 4798.000 Q 9600.000 4803.885 9600.000 4808.000 Q 9600.000 4813.386 9600.000 4818.000 Q 9600.000 4823.698 9600.000 4828.000 Q 9600.000 4833.246 9600.000 4838.000 Q 9600.000 4843.706 9600.000 4848.000 Q 9600.000 4853.151 9600.000 4858.000 Q 9600.000 4863.520 9600.000 4868.000 Q 9600.000 4867.561 9600.000 4858.000 "></path>
    <path id="STROKE_1905f7b7-ddb7-47b2-a88e-76bbb5d7d060" opacity="0.510" fill="none" stroke="#f66640" stroke-width="4.000" stroke-opacity="1.000" stroke-linecap="round" stroke-linejoin="round" stroke-dasharray="0.400,6.000" d="M 9700.000 4668.000 Q 9700.000 4669.408 9700.000 4678.000 Q 9700.000 4683.861 9700.000 4688.000 Q 9700.000 4693.158 9700.000 4698.000 Q 9700.000 4703.139 9700.000 4708.000 Q 9700.000 4714.272 9700.000 4718.000 Q 9700.000 4724.162 9700.000 4728.000 Q 9700.000 4734.530 9700.000 4738.000 Q 9700.000 4744.455 9700.000 4748.000 Q 9700.000 4753.854 9700.000 4758.000 Q 9700.000 4763.778 9700.000 4768.000 Q 9700.000 4773.223 9700.000 4778.000 Q 9700.000 4784.219 9700.000 4788.000 Q 9700.000 4793.831 9700.000 4798.000 Q 9700.000 4803.063 9700.000 4808.000 Q 9700.000 4813.866 9700.000 4818.000 Q 9700.000 4823.504 9700.000 4828.000 Q 9700.000 4833.395 9700.000 4838.000 Q 9700.000 4843.079 9700.000 4848.000 Q 9700.000 4853.299 9700.000 4858.000 Q 9700.000 4863.029 9700.000 4868.000 "></path>
    <path id="STROKE_d735ce8d-4300-4017-87ae-9a77874107d4" opacity="0.510" fill="none" stroke="#f66640" stroke-width="4.000" stroke-opacity="1.000" stroke-linecap="round" stroke-linejoin="round" stroke-dasharray="0.400,6.000" d="M 9800.000 4670.048 L 9800.000 4678.000 Q 9800.000 4683.953 9800.000 4688.000 Q 9800.000 4693.397 9800.000 4698.000 Q 9800.000 4704.930 9800.000 4708.000 Q 9800.000 4713.405 9800.000 4718.000 Q 9800.000 4723.341 9800.000 4728.000 Q 9800.000 4733.413 9800.000 4738.000 Q 9800.000 4744.558 9800.000 4748.000 Q 9800.000 4753.512 9800.000 4758.000 Q 9800.000 4764.269 9800.000 4768.000 Q 9800.000 4774.489 9800.000 4778.000 Q 9800.000 4783.638 9800.000 4788.000 Q 9800.000 4794.109 9800.000 4798.000 Q 9800.000 4804.330 9800.000 4808.000 Q 9800.000 4813.238 9800.000 4818.000 Q 9800.000 4823.117 9800.000 4828.000 Q 9800.000 4833.052 9800.000 4838.000 Q 9800.000 4843.033 9800.000 4848.000 Q 9800.000 4853.391 9800.000 4858.000 Q 9800.000 4863.223 9800.000 4868.000 "></path>
    <path id="STROKE_ed860eb0-e096-44f1-8676-317aa1a990b5" opacity="1.000" fill="none" stroke="#ff9adf" stroke-width="2.550" stroke-opacity="1.000" stroke-linecap="round" stroke-linejoin="round" d="M 9300.667 4652.346 Q 9300.590 4652.470 9300.309 4652.855 Q 9300.109 4653.037 9301.429 4651.652 Q 9302.748 4650.269 9303.716 4649.249 Q 9304.684 4648.229 9305.301 4647.593 Q 9305.918 4646.957 9306.807 4645.660 Q 9306.600 4645.991 9306.600 4646.008 Q 9306.599 4646.025 9306.601 4645.963 Q 9306.393 4646.121 9306.371 4646.127 Q 9306.350 4646.134 9306.324 4646.159 Q 9306.299 4646.184 9306.227 4646.244 "></path>
    <path id="STROKE_2b389916-7c5b-4d85-8b34-7c74c90c2b6b" opacity="1.000" fill="none" stroke="#ff9adf" stroke-width="2.550" stroke-opacity="1.000" stroke-linecap="round" stroke-linejoin="round" d="M 9300.230 4652.466 Q 9300.231 4652.429 9300.243 4652.163 Q 9300.271 4652.209 9300.343 4652.093 Q 9300.415 4651.977 9301.896 4653.627 Q 9303.379 4655.277 9304.226 4656.523 Q 9305.072 4657.769 9305.506 4658.585 Q 9305.939 4659.402 9306.069 4659.708 Q 9306.199 4660.014 9306.272 4660.028 "></path>
    <path id="STROKE_5aa9d610-5362-452f-8d0b-06f964818c5b" opacity="1.000" fill="none" stroke="#ff9adf" stroke-width="2.550" stroke-opacity="1.000" stroke-linecap="round" stroke-linejoin="round" d="M 9301.224 4653.096 Q 9301.163 4653.092 9300.599 4653.170 Q 9300.599 4653.208 9300.609 4653.279 Q 9300.698 4653.473 9303.700 4653.089 Q 9306.702 4652.706 9310.238 4652.895 Q 9313.775 4653.084 9316.461 4653.176 Q 9319.146 4653.268 9320.590 4653.224 Q 9322.032 4653.180 9325.559 4653.273 Q 9329.086 4653.367 9332.795 4653.331 Q 9336.505 4653.294 9338.496 4653.305 Q 9340.486 4653.315 9341.363 4653.403 Q 9342.241 4653.492 9344.844 4653.650 Q 9347.445 4653.808 9351.518 4653.889 Q 9355.591 4653.970 9358.023 4654.148 Q 9360.455 4654.326 9362.154 4654.262 Q 9363.853 4654.197 9365.502 4654.334 Q 9367.152 4654.472 9369.338 4654.623 Q 9371.522 4654.773 9372.684 4654.796 Q 9373.844 4654.819 9374.527 4654.861 Q 9375.211 4654.903 9379.507 4654.714 Q 9383.803 4654.524 9385.993 4654.394 Q 9388.184 4654.263 9388.971 4654.258 Q 9389.757 4654.253 9390.645 4654.355 Q 9391.533 4654.457 9392.569 4654.520 Q 9393.605 4654.583 9394.096 4654.589 Q 9394.587 4654.595 9394.807 4654.553 Q 9395.025 4654.511 9395.424 4654.475 Q 9395.822 4654.438 9396.299 4654.470 Q 9396.299 4654.496 9396.299 4654.521 Q 9396.203 4654.556 9396.069 4654.610 Q 9395.936 4654.665 9395.764 4654.750 "></path>
    <path id="STROKE_2f16276f-e7f6-4d28-829d-e619294622cb" opacity="1.000" fill="none" stroke="#ff9adf" stroke-width="2.550" stroke-opacity="1.000" stroke-linecap="round" stroke-linejoin="round" d="M 9394.382 4650.131 Q 9394.404 4649.935 9394.370 4649.977 Q 9394.336 4650.020 9394.348 4650.023 Q 9394.358 4650.027 9394.403 4649.840 Q 9394.448 4649.653 9395.339 4649.626 Q 9396.229 4649.600 9397.795 4650.049 Q 9399.360 4650.499 9400.369 4651.002 Q 9401.378 4651.505 9401.997 4651.991 Q 9402.616 4652.478 9402.759 4653.009 Q 9402.901 4653.539 9402.977 4653.878 Q 9403.052 4654.218 9401.224 4654.990 Q 9399.396 4655.763 9397.896 4656.460 Q 9396.396 4657.158 9395.500 4657.574 Q 9394.604 4657.991 9394.416 4658.700 Q 9394.159 4658.747 9394.769 4658.725 Q 9395.378 4658.703 9395.474 4658.666 "></path>
    <path id="STROKE_568ce5e3-e375-4aea-b4e5-b8b16e4aad4a" opacity="1.000" fill="none" stroke="#ff9adf" stroke-width="2.550" stroke-opacity="1.000" stroke-linecap="round" stroke-linejoin="round" d="M 9315.245 4632.413 Q 9314.977 4632.211 9314.409 4631.875 Q 9314.239 4632.028 9314.501 4633.652 Q 9314.763 4635.276 9315.190 4636.515 Q 9315.618 4637.754 9315.953 4638.388 Q 9316.289 4639.021 9316.743 4639.442 Q 9317.197 4639.864 9317.875 4639.954 Q 9318.552 4640.045 9319.178 4639.354 Q 9319.805 4638.662 9320.400 4637.483 Q 9320.995 4636.304 9321.071 4632.413 Q 9321.071 4632.833 9321.083 4632.825 Q 9321.140 4632.971 9321.490 4634.396 Q 9321.840 4635.821 9322.094 4636.791 Q 9322.348 4637.761 9322.677 4638.194 Q 9323.006 4638.628 9323.273 4638.809 Q 9323.542 4638.989 9324.197 4639.000 Q 9324.854 4639.011 9327.624 4631.097 Q 9327.550 4631.168 9327.822 4631.838 Q 9328.094 4632.508 9328.228 4632.654 "></path>
    <path id="STROKE_1632762b-9732-46aa-9f77-72bb70b5847b" opacity="1.000" fill="none" stroke="#ff9adf" stroke-width="2.550" stroke-opacity="1.000" stroke-linecap="round" stroke-linejoin="round" d="M 9331.625 4631.320 Q 9331.958 4631.358 9330.289 4631.283 Q 9330.154 4631.866 9330.122 4633.589 Q 9330.090 4635.312 9330.105 4636.337 Q 9330.122 4637.361 9330.203 4637.755 Q 9330.284 4638.149 9330.504 4638.557 Q 9330.723 4638.964 9331.314 4638.944 Q 9331.907 4638.925 9332.260 4638.528 Q 9332.613 4638.132 9333.057 4637.610 Q 9333.499 4637.089 9334.114 4635.716 Q 9334.729 4634.344 9334.752 4631.646 Q 9334.302 4631.539 9334.401 4631.583 Q 9334.047 4631.552 9333.985 4632.970 Q 9333.924 4634.388 9333.943 4635.391 Q 9333.964 4636.394 9334.152 4637.109 Q 9334.341 4637.826 9334.770 4638.216 Q 9335.199 4638.606 9335.925 4638.677 Q 9336.650 4638.748 9337.346 4638.266 Q 9338.040 4637.783 9338.292 4637.565 "></path>
    <path id="STROKE_ec65dee4-537c-4295-9cbc-8522e711f455" opacity="1.000" fill="none" stroke="#ff9adf" stroke-width="2.550" stroke-opacity="1.000" stroke-linecap="round" stroke-linejoin="round" d="M 9339.438 4631.148 Q 9339.438 4631.148 9339.416 4631.189 Q 9339.395 4631.230 9339.557 4631.818 Q 9339.719 4632.406 9339.910 4633.013 Q 9340.103 4633.620 9340.450 4634.635 Q 9340.798 4635.649 9342.648 4639.266 Q 9343.094 4639.035 9343.273 4637.876 Q 9343.454 4636.718 9343.992 4635.622 Q 9344.531 4634.525 9344.676 4634.354 "></path>
    <path id="STROKE_09472122-1071-4ca9-b9f4-8119e1a5f9c0" opacity="1.000" fill="none" stroke="#ff9adf" stroke-width="2.550" stroke-opacity="1.000" stroke-linecap="round" stroke-linejoin="round" d="M 9346.227 4634.308 Q 9346.227 4634.308 9346.448 4634.442 Q 9346.670 4634.577 9346.615 4634.503 Q 9346.906 4634.604 9348.289 4634.625 Q 9349.671 4634.645 9350.488 4634.564 Q 9351.306 4634.484 9351.604 4634.350 Q 9351.900 4634.216 9352.128 4634.070 Q 9352.355 4633.924 9352.512 4633.724 Q 9352.667 4633.523 9352.746 4633.345 Q 9352.824 4633.167 9352.836 4632.642 Q 9352.848 4632.117 9352.438 4631.733 Q 9352.027 4631.349 9351.422 4631.228 Q 9350.816 4631.106 9350.253 4631.043 Q 9349.689 4630.980 9349.211 4631.311 Q 9348.732 4631.640 9348.357 4632.141 Q 9347.983 4632.641 9347.688 4634.080 Q 9347.392 4635.520 9347.320 4636.533 Q 9347.248 4637.546 9347.381 4638.218 Q 9347.515 4638.891 9348.077 4639.189 Q 9348.640 4639.488 9349.943 4639.396 Q 9351.247 4639.303 9351.442 4639.266 "></path>
    <path id="STROKE_57e88945-9fda-430d-8cd8-796b6a20e229" opacity="1.000" fill="none" stroke="#ff9adf" stroke-width="2.550" stroke-opacity="1.000" stroke-linecap="round" stroke-linejoin="round" d="M 9358.017 4631.343 Q 9358.017 4631.343 9358.012 4631.343 Q 9358.006 4631.343 9357.994 4631.343 Q 9358.036 4631.572 9357.959 4633.994 Q 9357.883 4636.415 9358.234 4638.928 Q 9358.342 4639.078 9358.742 4638.704 Q 9359.144 4638.330 9359.300 4638.149 "></path>
    <path id="STROKE_59450029-a3ab-416b-b10c-9643e8a04eb4" opacity="1.000" fill="none" stroke="#ff9adf" stroke-width="2.550" stroke-opacity="1.000" stroke-linecap="round" stroke-linejoin="round" d="M 9361.171 4636.787 Q 9361.048 4636.751 9361.604 4636.891 Q 9362.158 4637.031 9362.827 4637.062 Q 9363.496 4637.092 9363.961 4637.014 Q 9364.426 4636.936 9364.854 4636.621 Q 9365.281 4636.307 9365.707 4635.623 Q 9366.132 4634.939 9365.915 4634.367 Q 9365.698 4633.794 9365.143 4633.571 Q 9364.586 4633.349 9364.213 4633.265 Q 9363.841 4633.181 9363.277 4633.463 Q 9362.715 4633.745 9362.111 4634.786 Q 9361.508 4635.827 9361.361 4636.987 Q 9361.215 4638.147 9361.305 4638.829 Q 9361.396 4639.511 9361.537 4639.908 Q 9361.679 4640.305 9362.224 4640.470 Q 9362.769 4640.635 9363.424 4640.549 Q 9364.079 4640.464 9364.706 4639.799 Q 9365.333 4639.134 9365.562 4638.831 "></path>
    <path id="STROKE_dc27e52d-eb2d-4691-890f-9b58958ddb89" opacity="1.000" fill="none" stroke="#ff9adf" stroke-width="2.550" stroke-opacity="1.000" stroke-linecap="round" stroke-linejoin="round" d="M 9369.640 4632.413 Q 9369.408 4632.659 9369.430 4632.656 Q 9368.964 4632.516 9368.960 4640.216 Q 9369.045 4639.929 9369.807 4638.291 Q 9370.567 4636.653 9371.244 4635.497 Q 9371.921 4634.340 9372.923 4633.575 Q 9373.300 4633.884 9373.039 4636.696 Q 9372.778 4639.509 9372.862 4639.581 "></path>
    <path id="STROKE_9fa6a12a-0157-4b04-906c-ef7dfd427b8f" opacity="1.000" fill="none" stroke="#ff9adf" stroke-width="2.550" stroke-opacity="1.000" stroke-linecap="round" stroke-linejoin="round" d="M 9378.543 4634.577 Q 9378.699 4634.585 9377.738 4633.821 Q 9377.491 4633.955 9377.040 4635.396 Q 9376.589 4636.835 9376.509 4637.700 Q 9376.429 4638.565 9376.432 4639.113 Q 9376.436 4639.662 9376.577 4639.924 Q 9376.719 4640.186 9377.027 4640.474 Q 9377.335 4640.763 9378.201 4640.875 Q 9379.068 4640.987 9379.799 4640.357 Q 9380.529 4639.728 9381.389 4638.574 Q 9382.248 4637.421 9382.847 4634.039 L 9382.812 4634.039 Q 9382.689 4634.078 9382.715 4635.981 Q 9382.741 4637.886 9382.623 4639.709 Q 9382.506 4641.532 9382.215 4642.848 Q 9381.925 4644.163 9381.598 4645.029 Q 9381.270 4645.896 9380.789 4646.427 Q 9380.310 4646.958 9379.888 4647.029 Q 9379.466 4647.100 9379.381 4647.086 Q 9379.296 4647.073 9378.955 4646.832 Q 9378.613 4646.591 9378.662 4646.625 Q 9378.711 4646.659 9378.638 4646.487 Q 9378.564 4646.315 9378.582 4646.091 Q 9378.601 4645.866 9378.612 4645.683 "></path>
    <path id="STROKE_51c9c506-11e8-4add-8411-e48105d82913" opacity="1.000" fill="none" stroke="#ff9adf" stroke-width="2.460" stroke-opacity="1.000" stroke-linecap="round" stroke-linejoin="round" d="M 9388.463 4630.198 Q 9388.394 4630.255 9388.597 4630.078 Q 9388.959 4630.394 9388.876 4641.018 Q 9388.876 4641.006 9388.857 4640.933 Q 9388.838 4640.860 9388.800 4640.726 "></path>
    <path id="STROKE_2406fd41-c736-4428-b5b7-e357edd70c9e" opacity="1.000" fill="none" stroke="#ff9adf" stroke-width="2.550" stroke-opacity="1.000" stroke-linecap="round" stroke-linejoin="round" d="M 9385.164 4635.768 Q 9385.041 4635.794 9384.653 4635.911 Q 9384.265 4636.110 9386.186 4636.349 Q 9388.107 4636.587 9390.214 4636.054 Q 9392.320 4635.521 9392.610 4635.401 "></path>
    <path id="STROKE_d29155fe-0999-404a-8cf7-78614e6a45d9" opacity="1.000" fill="none" stroke="#ff9adf" stroke-width="2.550" stroke-opacity="1.000" stroke-linecap="round" stroke-linejoin="round" d="M 9394.649 4630.444 Q 9394.592 4630.653 9394.695 4632.831 Q 9394.798 4635.009 9394.875 4636.201 Q 9394.952 4637.392 9395.164 4638.289 Q 9395.375 4639.187 9395.738 4639.285 Q 9396.102 4639.383 9397.078 4637.470 Q 9398.054 4635.557 9398.636 4634.386 Q 9399.218 4633.215 9399.574 4632.650 Q 9399.932 4632.086 9400.460 4631.984 Q 9400.742 4631.890 9400.683 4634.476 Q 9400.623 4637.062 9400.056 4640.096 Q 9400.032 4640.070 9400.010 4640.044 "></path>
    <path id="STROKE_34955770-9280-42ea-87ab-63fbe345ccf2" opacity="1.000" fill="none" stroke="#71c047" stroke-width="1.727" stroke-opacity="1.000" stroke-linecap="round" stroke-linejoin="round" d="M 9299.477 4897.182 Q 9299.533 4897.094 9299.660 4896.889 Q 9299.786 4896.685 9299.826 4896.667 Q 9299.865 4896.650 9299.920 4896.570 Q 9299.975 4896.491 9300.193 4896.373 Q 9300.412 4896.254 9302.767 4896.274 Q 9305.121 4896.294 9306.462 4896.294 Q 9307.803 4896.293 9308.498 4896.262 Q 9309.192 4896.230 9311.453 4896.266 Q 9313.714 4896.301 9315.104 4896.353 Q 9316.493 4896.404 9317.865 4896.552 Q 9319.238 4896.700 9321.459 4897.091 Q 9323.679 4897.483 9332.400 4897.123 Q 9341.121 4896.763 9345.911 4896.584 Q 9350.701 4896.405 9352.859 4896.330 Q 9355.019 4896.255 9360.402 4896.066 Q 9365.785 4895.877 9372.518 4895.528 Q 9379.251 4895.179 9383.053 4895.085 Q 9386.854 4894.992 9390.973 4894.945 Q 9395.091 4894.898 9399.222 4894.781 Q 9403.353 4894.665 9410.064 4894.285 Q 9416.775 4893.906 9420.158 4893.846 Q 9423.542 4893.785 9425.027 4893.842 Q 9426.512 4893.898 9433.094 4893.865 Q 9439.676 4893.832 9443.155 4893.560 Q 9446.635 4893.287 9450.029 4893.833 Q 9453.425 4894.380 9457.455 4894.556 Q 9461.485 4894.731 9464.496 4894.661 Q 9467.507 4894.592 9469.293 4894.749 Q 9471.079 4894.907 9474.439 4895.204 Q 9477.800 4895.501 9480.258 4895.592 Q 9482.717 4895.682 9484.652 4895.896 Q 9486.588 4896.110 9487.885 4896.565 Q 9489.181 4897.021 9489.953 4897.142 Q 9490.725 4897.262 9492.585 4897.304 Q 9494.445 4897.346 9495.848 4897.326 Q 9497.249 4897.307 9498.276 4897.428 Q 9498.276 4897.445 9498.276 4897.480 Q 9498.259 4897.480 9498.119 4897.454 Q 9497.979 4897.428 9497.902 4897.375 "></path>
    <path id="STROKE_c9d95fb4-cc9d-4bbf-8c91-7b6974a62e69" opacity="1.000" fill="none" stroke="#71c047" stroke-width="2.040" stroke-opacity="1.000" stroke-linecap="round" stroke-linejoin="round" d="M 9494.112 4890.254 Q 9493.989 4890.291 9492.557 4889.571 Q 9492.557 4889.536 9492.557 4889.474 Q 9492.646 4889.323 9493.430 4889.692 Q 9494.212 4890.061 9496.215 4891.389 Q 9498.217 4892.716 9499.446 4893.571 Q 9500.676 4894.427 9501.551 4895.185 Q 9502.426 4895.942 9502.887 4896.649 Q 9503.348 4897.357 9503.439 4898.013 Q 9503.530 4898.669 9502.148 4899.346 Q 9500.766 4900.022 9497.797 4901.160 Q 9494.829 4902.298 9492.077 4903.588 Q 9492.108 4903.844 9492.510 4903.958 Q 9492.911 4904.072 9492.896 4904.054 Q 9492.881 4904.036 9492.838 4904.033 Q 9492.796 4904.030 9493.021 4904.052 Q 9493.247 4904.074 9493.375 4904.109 "></path>
    <path id="STROKE_c2ecc368-c0b5-4bef-ad86-a22de094f427" opacity="1.000" fill="none" stroke="#71c047" stroke-width="2.040" stroke-opacity="1.000" stroke-linecap="round" stroke-linejoin="round" d="M 9302.705 4888.992 Q 9302.705 4888.992 9302.680 4888.542 Q 9302.653 4888.091 9302.664 4888.248 Q 9302.674 4888.405 9302.672 4888.378 Q 9302.669 4888.350 9302.669 4888.333 Q 9302.669 4888.315 9302.705 4888.211 Q 9302.883 4888.456 9301.850 4890.665 Q 9300.816 4892.874 9300.316 4894.242 Q 9299.816 4895.610 9299.605 4896.508 Q 9299.396 4897.406 9299.405 4897.973 Q 9299.415 4898.540 9299.729 4898.938 Q 9300.044 4899.336 9300.359 4899.536 Q 9300.675 4899.735 9300.842 4899.846 Q 9301.010 4899.956 9300.889 4899.860 Q 9300.767 4899.765 9302.141 4900.625 Q 9303.516 4901.484 9305.107 4903.292 Q 9306.699 4905.101 9306.904 4905.267 "></path>
    <path id="STROKE_3d846296-0f29-4183-8b5a-8904eecece4c" opacity="1.000" fill="none" stroke="#71c047" stroke-width="1.910" stroke-opacity="1.000" stroke-linecap="round" stroke-linejoin="round" d="M 9349.190 4910.555 Q 9349.187 4910.465 9349.208 4909.283 Q 9349.243 4909.283 9349.325 4909.305 Q 9349.632 4909.475 9350.010 4922.060 Q 9350.126 4921.993 9350.272 4920.834 Q 9350.419 4919.674 9350.454 4919.376 "></path>
    <path id="STROKE_5673401a-7e0a-4aef-ba41-68e1001ebfe5" opacity="1.000" fill="none" stroke="#71c047" stroke-width="2.040" stroke-opacity="1.000" stroke-linecap="round" stroke-linejoin="round" d="M 9343.985 4909.511 Q 9343.968 4909.511 9343.880 4909.511 Q 9344.124 4909.285 9346.652 4908.933 Q 9349.180 4908.581 9350.666 4908.589 Q 9352.151 4908.596 9352.959 4908.711 Q 9353.768 4908.827 9354.018 4909.034 Q 9354.268 4909.242 9354.468 4909.470 Q 9354.668 4909.699 9355.152 4909.967 Q 9355.637 4910.234 9355.800 4910.292 "></path>
    <path id="STROKE_7c165b2c-38ee-437d-afd4-1f40ef548143" opacity="1.000" fill="none" stroke="#71c047" stroke-width="2.040" stroke-opacity="1.000" stroke-linecap="round" stroke-linejoin="round" d="M 9359.263 4921.016 Q 9359.379 4921.116 9359.077 4920.521 Q 9358.775 4919.927 9358.852 4918.779 Q 9358.929 4917.631 9359.005 4917.333 "></path>
    <path id="STROKE_d7000f1d-0fe1-4778-b4e5-ae7d512d9f01" opacity="1.000" fill="none" stroke="#71c047" stroke-width="2.040" stroke-opacity="1.000" stroke-linecap="round" stroke-linejoin="round" d="M 9359.298 4912.300 Q 9359.395 4911.843 9359.005 4910.371 "></path>
    <path id="STROKE_0861c77c-84f0-461b-b3d5-81db4a1b71ea" opacity="1.000" fill="none" stroke="#71c047" stroke-width="2.040" stroke-opacity="1.000" stroke-linecap="round" stroke-linejoin="round" d="M 9362.012 4910.774 Q 9362.518 4910.918 9363.239 4921.498 Q 9363.180 4921.634 9363.191 4921.610 Q 9363.204 4921.585 9363.412 4921.229 Q 9363.620 4920.872 9363.890 4920.372 Q 9364.159 4919.871 9364.945 4917.777 Q 9365.732 4915.684 9366.357 4914.264 Q 9366.981 4912.843 9367.559 4912.062 Q 9368.135 4911.280 9368.465 4911.210 Q 9368.796 4911.141 9369.420 4911.669 Q 9370.044 4912.198 9370.282 4914.502 Q 9370.521 4916.806 9370.036 4920.499 Q 9369.890 4920.654 9370.617 4918.344 Q 9371.346 4916.034 9372.170 4914.714 Q 9372.994 4913.394 9373.441 4912.701 Q 9373.889 4912.007 9375.130 4912.247 Q 9375.368 4912.560 9375.721 4919.455 Q 9375.874 4919.475 9375.955 4919.428 Q 9376.037 4919.380 9376.165 4919.306 "></path>
    <path id="STROKE_107a24cd-1fa5-4dc1-a83e-185fd5d374ea" opacity="1.000" fill="none" stroke="#71c047" stroke-width="2.040" stroke-opacity="1.000" stroke-linecap="round" stroke-linejoin="round" d="M 9378.996 4915.211 Q 9378.908 4915.077 9378.952 4915.542 Q 9378.996 4916.008 9380.703 4916.078 Q 9382.409 4916.148 9383.400 4916.082 Q 9384.392 4916.015 9385.051 4915.835 Q 9385.710 4915.655 9385.971 4915.059 Q 9386.231 4914.462 9386.158 4913.989 Q 9386.085 4913.516 9385.664 4912.931 Q 9385.243 4912.346 9384.490 4911.986 Q 9383.736 4911.627 9382.692 4911.539 Q 9381.648 4911.452 9381.080 4912.763 Q 9380.513 4914.074 9380.362 4915.417 Q 9380.212 4916.761 9380.253 4917.501 Q 9380.294 4918.242 9380.255 4918.654 Q 9380.216 4919.067 9381.036 4919.502 Q 9381.856 4919.937 9382.518 4919.879 Q 9383.178 4919.821 9383.648 4919.851 Q 9384.120 4919.880 9384.377 4919.902 "></path>
    <path id="STROKE_1bbc48c1-f7b2-45c1-8250-eb2d3e37c207" opacity="1.000" fill="none" stroke="#71c047" stroke-width="1.923" stroke-opacity="1.000" stroke-linecap="round" stroke-linejoin="round" d="M 9398.543 4912.493 Q 9397.771 4912.322 9398.017 4912.361 Q 9397.946 4912.322 9397.759 4912.265 Q 9397.753 4912.313 9398.100 4917.148 Q 9398.447 4921.984 9398.635 4924.703 Q 9398.821 4927.421 9399.009 4928.868 Q 9399.196 4930.315 9399.970 4931.477 Q 9400.010 4930.613 9399.993 4930.885 Q 9399.924 4931.096 9400.155 4929.284 Q 9400.387 4927.471 9400.461 4925.701 Q 9400.536 4923.931 9400.512 4922.896 Q 9400.487 4921.860 9399.938 4919.968 Q 9399.389 4918.075 9399.307 4916.410 Q 9399.225 4914.744 9399.391 4914.089 Q 9399.557 4913.434 9400.143 4912.004 Q 9400.729 4910.574 9401.080 4909.860 Q 9401.433 4909.146 9401.687 4908.868 Q 9401.940 4908.590 9402.695 4908.586 Q 9403.450 4908.582 9404.271 4909.243 Q 9405.094 4909.905 9406.064 4911.021 Q 9407.035 4912.138 9407.299 4913.734 Q 9407.562 4915.331 9407.705 4916.288 Q 9407.848 4917.244 9407.131 4917.883 Q 9406.414 4918.521 9405.862 4918.771 Q 9405.311 4919.020 9403.274 4918.745 Q 9403.256 4918.741 9403.256 4918.520 Q 9403.257 4918.297 9403.257 4918.113 "></path>
    <path id="STROKE_e23ba5cf-9729-426e-a02e-825b27955932" opacity="1.000" fill="none" stroke="#71c047" stroke-width="2.040" stroke-opacity="1.000" stroke-linecap="round" stroke-linejoin="round" d="M 9410.358 4913.755 Q 9410.595 4913.875 9410.888 4914.021 Q 9411.181 4914.167 9411.269 4914.170 Q 9411.356 4914.172 9411.205 4914.160 Q 9411.053 4914.148 9412.297 4914.606 Q 9413.541 4915.065 9414.590 4915.220 Q 9415.639 4915.375 9416.575 4915.367 Q 9417.512 4915.359 9418.070 4914.629 Q 9418.629 4913.899 9418.805 4912.722 Q 9418.979 4911.545 9418.726 4910.632 Q 9418.472 4909.718 9417.773 4909.084 Q 9417.074 4908.451 9416.410 4908.358 Q 9415.746 4908.265 9415.081 4908.285 Q 9414.416 4908.305 9413.732 4908.928 Q 9413.049 4909.551 9412.523 4911.147 Q 9411.998 4912.744 9411.913 4914.543 Q 9411.828 4916.342 9411.871 4917.351 Q 9411.915 4918.359 9412.363 4919.202 Q 9412.811 4920.045 9413.527 4920.502 Q 9414.243 4920.958 9415.384 4920.902 Q 9416.524 4920.845 9417.881 4919.376 Q 9419.236 4917.907 9419.458 4917.552 "></path>
    <path id="STROKE_d9ec5505-8ba8-4b13-99a0-3eaa659adb9d" opacity="1.000" fill="none" stroke="#71c047" stroke-width="2.040" stroke-opacity="1.000" stroke-linecap="round" stroke-linejoin="round" d="M 9421.764 4908.503 Q 9421.763 4907.922 9421.763 4907.963 Q 9421.763 4907.762 9421.763 4907.538 Q 9421.809 4907.712 9421.992 4911.326 Q 9422.176 4914.939 9421.880 4921.612 Q 9421.693 4921.470 9426.003 4909.809 Q 9426.062 4909.827 9426.170 4910.105 Q 9426.278 4910.384 9426.406 4910.625 "></path>
    <path id="STROKE_a194777a-e062-431c-ad94-c237999e7d9e" opacity="1.000" fill="none" stroke="#71c047" stroke-width="2.040" stroke-opacity="1.000" stroke-linecap="round" stroke-linejoin="round" d="M 9429.495 4919.376 Q 9429.471 4919.687 9429.234 4918.307 Q 9428.998 4916.927 9429.273 4916.021 Q 9429.548 4915.114 9429.717 4914.913 "></path>
    <path id="STROKE_5708f29d-cc79-44c3-acbb-4432232180ba" opacity="1.000" fill="none" stroke="#71c047" stroke-width="2.040" stroke-opacity="1.000" stroke-linecap="round" stroke-linejoin="round" d="M 9430.467 4911.037 Q 9430.381 4911.075 9430.301 4910.543 Q 9430.220 4910.011 9430.161 4909.879 "></path>
    <path id="STROKE_c2a512b6-1b89-444a-bfff-ec962d604ed4" opacity="1.000" fill="none" stroke="#71c047" stroke-width="2.040" stroke-opacity="1.000" stroke-linecap="round" stroke-linejoin="round" d="M 9436.479 4911.405 Q 9436.254 4911.181 9436.256 4911.204 Q 9436.209 4911.204 9435.740 4911.050 Q 9435.272 4910.896 9434.431 4911.360 Q 9433.589 4911.824 9432.922 4913.364 Q 9432.254 4914.904 9432.152 4916.402 Q 9432.052 4917.900 9432.302 4919.086 Q 9432.552 4920.272 9433.945 4920.622 Q 9435.340 4920.972 9436.262 4920.133 Q 9437.185 4919.294 9437.774 4918.327 Q 9438.364 4917.360 9438.709 4915.940 Q 9439.053 4914.520 9439.084 4913.787 Q 9439.116 4913.053 9438.920 4912.624 Q 9438.725 4912.194 9437.882 4911.816 Q 9437.039 4911.439 9436.469 4911.475 Q 9435.899 4911.510 9435.402 4911.927 Q 9434.906 4912.344 9434.709 4913.422 Q 9434.513 4914.500 9434.479 4914.685 "></path>
    <path id="STROKE_c7c77367-9169-43da-8442-555dc62ed95e" opacity="1.000" fill="none" stroke="#71c047" stroke-width="1.999" stroke-opacity="1.000" stroke-linecap="round" stroke-linejoin="round" d="M 9445.403 4916.175 Q 9445.239 4915.973 9445.321 4911.765 Q 9444.803 4911.398 9443.866 4912.687 Q 9442.930 4913.975 9442.646 4915.933 Q 9442.364 4917.890 9442.395 4919.038 Q 9442.424 4920.187 9442.561 4920.745 Q 9442.697 4921.303 9443.703 4921.780 Q 9444.708 4922.258 9446.217 4920.324 Q 9447.726 4918.390 9448.472 4916.882 Q 9449.218 4915.374 9449.625 4914.427 Q 9450.032 4913.481 9450.182 4913.042 Q 9450.332 4912.604 9450.428 4912.216 Q 9450.524 4911.828 9450.734 4911.573 Q 9450.944 4911.318 9451.907 4904.373 Q 9451.729 4904.559 9450.994 4907.438 Q 9450.258 4910.318 9450.000 4912.535 Q 9449.742 4914.751 9449.766 4916.058 Q 9449.789 4917.363 9450.224 4918.344 Q 9450.658 4919.325 9451.855 4919.685 Q 9453.053 4920.044 9454.295 4919.828 Q 9455.538 4919.611 9456.422 4918.805 Q 9457.306 4918.000 9457.476 4917.815 "></path>
  </g>
</svg>