<?xml version="1.0" encoding="UTF-8" standalone="yes"?>
<svg xmlns="http://www.w3.org/2000/svg" xmlns:xlink="http://www.w3.org/1999/xlink" width="1477.516pt" height="485.600pt" version="1.1" viewBox="5886.623 7174.476 1477.516 485.600">
  <!--
	Exported with Concepts: Smarter Sketching
	Version: 1059 on iOS 15.4
	https://concepts.app/
	-->
  <title>Untitled</title>
  <desc>Drawing exported from Concepts: Smarter Sketching</desc>
  <defs></defs>
  <g id="Custom" opacity="1.000">
    <path id="STROKE_525dbaed-71dd-4bf2-997d-94a5fb37a832" opacity="1.000" fill="none" stroke="#f3ba38" stroke-width="1.870" stroke-opacity="1.000" stroke-linecap="round" stroke-linejoin="round" d="M 6391.202 7266.104 Q 6390.042 7266.101 6386.742 7266.090 Q 6386.850 7266.091 6398.876 7266.127 Q 6444.326 7266.267 6485.156 7266.392 Q 6533.093 7266.539 6571.435 7266.657 Q 6617.184 7266.797 6657.714 7266.921 Q 6705.735 7267.068 6743.993 7267.186 Q 6793.387 7267.337 6830.272 7267.450 Q 6884.096 7267.615 6916.551 7267.714 Q 6965.921 7267.866 7002.830 7267.979 Q 7048.646 7268.120 7089.109 7268.244 Q 7136.046 7268.388 7175.388 7268.508 Q 7228.482 7268.671 7261.667 7268.772 L 7285.169 7268.845 "></path>
    <path id="STROKE_64434bd5-6754-4631-9142-0dccff4f0460" opacity="1.000" fill="none" stroke="#f3ba38" stroke-width="1.847" stroke-opacity="1.000" stroke-linecap="round" stroke-linejoin="round" d="M 7285.168 7268.845 L 7261.667 7268.772 Q 7214.095 7268.627 7175.388 7268.508 Q 7124.393 7268.352 7089.109 7268.244 Q 7036.417 7268.082 7002.830 7267.979 Q 6948.333 7267.812 6916.551 7267.714 Q 6863.883 7267.553 6830.272 7267.450 Q 6784.935 7267.311 6743.993 7267.186 Q 6699.480 7267.049 6657.714 7266.921 Q 6608.624 7266.771 6571.435 7266.657 Q 6527.949 7266.523 6485.156 7266.392 Q 6437.924 7266.248 6398.876 7266.127 Q 6351.423 7265.982 6312.598 7265.863 Q 6272.967 7265.742 6268.806 7265.729 Q 6270.132 7265.733 6274.633 7265.747 "></path>
    <path id="STROKE_763a1a8a-81a2-4fc5-b747-bb6ffd857e31" opacity="1.000" fill="none" stroke="#f3ba38" stroke-width="3.400" stroke-opacity="1.000" stroke-linecap="round" stroke-linejoin="round" d="M 6353.418 7260.079 Q 6353.418 7259.325 6353.418 7259.345 Q 6353.418 7259.084 6353.418 7258.845 Q 6353.418 7258.606 6353.418 7258.061 Q 6354.096 7257.680 6352.994 7277.731 L 6353.059 7277.731 Q 6353.186 7277.933 6353.579 7275.344 Q 6353.973 7272.755 6355.579 7258.244 Q 6355.633 7258.368 6354.860 7264.086 Q 6354.087 7269.804 6353.793 7276.036 Q 6353.780 7276.184 6353.797 7273.448 Q 6353.814 7270.713 6353.836 7270.390 "></path>
    <path id="STROKE_5fe650c4-f99e-4724-b271-f05a75176ab8" opacity="1.000" fill="none" stroke="#f3ba38" stroke-width="3.319" stroke-opacity="1.000" stroke-linecap="round" stroke-linejoin="round" d="M 6548.643 7255.534 Q 6548.545 7253.634 6548.501 7253.994 Q 6548.184 7252.570 6548.274 7252.868 Q 6548.232 7252.592 6548.189 7252.008 Q 6549.465 7252.120 6549.805 7282.492 Q 6550.413 7280.729 6551.619 7252.900 Q 6550.796 7252.276 6549.635 7278.265 Q 6549.635 7277.562 6549.564 7275.380 Q 6549.493 7273.198 6549.352 7272.656 "></path>
    <path id="STROKE_24f756d2-820f-4cdf-87db-ffba36e83566" opacity="1.000" fill="none" stroke="#f3ba38" stroke-width="3.316" stroke-opacity="1.000" stroke-linecap="round" stroke-linejoin="round" d="M 6634.450 7257.003 Q 6634.450 7258.854 6634.450 7252.744 Q 6634.436 7255.846 6635.348 7278.619 L 6635.446 7278.619 Q 6635.932 7278.322 6637.356 7255.975 Q 6637.514 7257.438 6637.062 7280.503 Q 6636.676 7280.290 6637.588 7273.139 Q 6638.499 7265.987 6638.695 7265.522 "></path>
    <path id="STROKE_ab7b8833-e896-4e7a-8b80-ee7ad0d16163" opacity="1.000" fill="none" stroke="#f3ba38" stroke-width="3.383" stroke-opacity="1.000" stroke-linecap="round" stroke-linejoin="round" d="M 6158.162 7265.542 Q 6157.079 7266.792 6156.309 7267.053 Q 6155.538 7267.313 6140.686 7267.124 Q 6125.833 7266.935 6117.317 7266.733 Q 6108.802 7266.532 6098.953 7266.572 Q 6089.104 7266.611 6079.010 7266.987 Q 6068.916 7267.364 6060.676 7267.830 Q 6052.436 7268.296 6048.468 7268.808 Q 6044.499 7269.320 6041.745 7269.462 Q 6038.991 7269.604 6038.015 7269.680 Q 6037.040 7269.755 6034.329 7269.228 Q 6031.619 7268.700 6029.485 7269.460 "></path>
    <path id="STROKE_09ba0d79-64f3-4590-866f-08b0001c09e0" opacity="1.000" fill="none" stroke="#f3ba38" stroke-width="3.288" stroke-opacity="1.000" stroke-linecap="round" stroke-linejoin="round" d="M 6818.648 7265.670 Q 6818.606 7265.670 6818.070 7265.626 Q 6817.824 7265.108 6819.143 7251.654 Q 6819.880 7251.821 6821.450 7276.398 Q 6823.185 7275.606 6824.140 7268.269 Q 6825.095 7260.932 6823.214 7253.019 L 6823.129 7253.019 Q 6822.894 7255.132 6822.974 7276.233 Q 6823.919 7276.007 6823.846 7270.212 Q 6823.771 7264.417 6823.504 7264.057 "></path>
    <path id="STROKE_93c17e63-c4d7-4ee5-8b22-8a43d7219f67" opacity="1.000" fill="none" stroke="#f3ba38" stroke-width="1.882" stroke-opacity="1.000" stroke-linecap="round" stroke-linejoin="round" d="M 6154.573 7265.379 L 6157.295 7265.387 Q 6162.491 7265.403 6165.923 7265.414 Q 6171.170 7265.430 6174.551 7265.440 Q 6179.558 7265.455 6183.179 7265.466 Q 6188.420 7265.482 6191.807 7265.493 Q 6196.708 7265.508 6200.435 7265.519 Q 6206.323 7265.537 6303.970 7265.836 Q 6308.693 7265.851 6416.114 7266.181 Q 6523.535 7266.510 6579.512 7266.682 Q 6635.489 7266.853 6659.155 7266.926 Q 6682.821 7266.998 6700.810 7267.053 Q 6718.799 7267.108 6769.271 7267.263 Q 6819.745 7267.418 6867.962 7267.565 Q 6916.179 7267.713 6939.777 7267.786 Q 6963.375 7267.858 6989.896 7267.939 Q 7016.416 7268.021 7030.738 7268.064 Q 7045.060 7268.108 7060.355 7268.155 Q 7075.650 7268.202 7089.597 7268.245 Q 7103.544 7268.288 7112.188 7268.314 Q 7120.831 7268.341 7131.564 7268.374 Q 7142.297 7268.407 7196.317 7268.572 Q 7250.338 7268.738 7285.168 7268.845 "></path>
    <path id="STROKE_af2d6bfd-ce00-4494-9398-72143625103c" opacity="1.000" fill="none" stroke="#ff9adf" stroke-width="3.393" stroke-opacity="1.000" stroke-linecap="round" stroke-linejoin="round" d="M 6046.365 7213.889 Q 6046.510 7213.833 6046.341 7213.047 Q 6046.173 7212.261 6045.892 7211.752 Q 6045.611 7211.243 6045.575 7211.201 Q 6045.540 7211.159 6045.723 7211.173 Q 6045.906 7211.187 6044.632 7210.841 Q 6043.908 7210.909 6042.107 7218.097 Q 6040.307 7225.285 6039.830 7229.814 Q 6039.353 7234.343 6039.389 7236.947 Q 6039.425 7239.552 6039.866 7240.686 Q 6040.306 7241.819 6042.472 7242.730 Q 6044.637 7243.643 6049.662 7239.014 Q 6054.687 7234.385 6057.636 7231.483 Q 6060.585 7228.583 6062.214 7226.204 Q 6062.892 7225.684 6057.587 7225.580 Q 6052.282 7225.477 6044.308 7228.594 Q 6045.024 7228.476 6045.383 7228.240 Q 6045.741 7228.005 6046.226 7227.710 "></path>
    <path id="STROKE_91c43fb6-607d-423b-be24-2276978f04f3" opacity="1.000" fill="none" stroke="#ff9adf" stroke-width="3.400" stroke-opacity="1.000" stroke-linecap="round" stroke-linejoin="round" d="M 6071.387 7225.944 Q 6070.600 7225.677 6067.948 7225.482 Q 6065.297 7225.287 6064.752 7225.079 Q 6064.208 7224.872 6063.291 7227.648 Q 6062.374 7230.425 6062.386 7233.200 Q 6062.398 7235.975 6062.625 7237.817 Q 6062.853 7239.661 6063.921 7240.848 Q 6064.990 7242.034 6066.932 7242.186 Q 6068.874 7242.336 6070.239 7241.197 Q 6071.604 7240.059 6073.538 7237.516 Q 6075.471 7234.973 6076.373 7232.860 Q 6077.276 7230.747 6077.708 7228.455 Q 6078.140 7226.162 6077.860 7224.814 Q 6077.580 7223.467 6076.965 7223.182 Q 6076.351 7222.897 6075.507 7222.951 Q 6074.664 7223.005 6074.048 7226.827 Q 6073.432 7230.649 6073.449 7233.479 Q 6073.466 7236.308 6073.940 7237.721 Q 6074.414 7239.134 6074.717 7239.567 Q 6075.021 7240.001 6076.756 7240.660 Q 6078.491 7241.319 6080.469 7240.680 Q 6082.446 7240.040 6083.779 7238.088 Q 6085.111 7236.137 6085.481 7235.505 "></path>
    <path id="STROKE_10b7f651-e34a-4b66-93a7-60a7044801e3" opacity="1.000" fill="none" stroke="#ff9adf" stroke-width="3.400" stroke-opacity="1.000" stroke-linecap="round" stroke-linejoin="round" d="M 6089.525 7223.744 Q 6088.728 7224.149 6088.474 7224.250 Q 6088.220 7224.350 6088.200 7224.394 Q 6088.179 7224.437 6088.263 7224.496 Q 6088.346 7224.555 6088.204 7224.196 Q 6088.062 7223.837 6087.957 7228.139 Q 6087.852 7232.441 6087.953 7235.609 Q 6088.055 7238.778 6089.120 7241.255 Q 6089.889 7242.436 6097.669 7220.211 L 6097.784 7220.211 Q 6097.915 7220.282 6098.052 7226.219 Q 6098.189 7232.156 6100.199 7238.016 Q 6099.995 7239.305 6102.104 7234.503 Q 6104.212 7229.700 6105.390 7226.562 Q 6106.566 7223.425 6109.048 7221.501 Q 6109.585 7221.679 6108.748 7238.969 Q 6109.072 7239.073 6110.654 7235.821 Q 6112.236 7232.569 6112.722 7231.607 "></path>
    <path id="STROKE_f0d19b67-8b34-401e-b14a-ad5ace646570" opacity="1.000" fill="none" stroke="#ff9adf" stroke-width="3.400" stroke-opacity="1.000" stroke-linecap="round" stroke-linejoin="round" d="M 6119.769 7221.164 Q 6119.894 7221.283 6119.751 7221.440 Q 6119.607 7221.598 6119.570 7221.671 Q 6119.532 7221.744 6119.195 7222.345 Q 6118.859 7222.946 6118.612 7223.825 Q 6118.366 7224.704 6118.150 7225.544 Q 6117.935 7226.385 6117.669 7227.732 Q 6117.402 7229.079 6117.213 7230.242 Q 6117.023 7231.405 6116.932 7232.283 Q 6116.841 7233.161 6116.938 7238.345 Q 6117.900 7238.576 6119.180 7234.977 Q 6120.458 7231.378 6124.458 7222.497 L 6124.562 7222.497 Q 6125.127 7223.531 6123.350 7237.497 Q 6123.935 7237.208 6126.227 7232.989 Q 6128.518 7228.770 6130.740 7225.614 Q 6132.962 7222.459 6135.942 7220.869 Q 6137.411 7221.717 6134.140 7234.777 Q 6134.220 7234.665 6134.463 7234.409 Q 6134.706 7234.154 6135.110 7233.755 "></path>
    <path id="STROKE_4597744a-40fa-4f1d-8d04-e1552dd7e826" opacity="1.000" fill="none" stroke="#ff9adf" stroke-width="3.400" stroke-opacity="1.000" stroke-linecap="round" stroke-linejoin="round" d="M 6146.986 7220.436 Q 6146.636 7220.766 6146.611 7220.675 Q 6146.587 7220.583 6145.754 7221.695 Q 6144.921 7222.808 6143.936 7223.922 Q 6142.950 7225.037 6141.831 7227.948 Q 6140.712 7230.858 6140.555 7232.836 Q 6140.396 7234.813 6140.680 7235.816 Q 6140.962 7236.819 6141.975 7237.468 Q 6142.987 7238.117 6146.051 7235.852 Q 6149.114 7233.587 6152.785 7223.017 Q 6152.835 7223.141 6152.524 7223.090 Q 6152.213 7223.039 6151.336 7226.346 Q 6150.459 7229.653 6150.628 7231.830 Q 6150.797 7234.007 6151.108 7235.451 Q 6151.419 7236.895 6153.948 7237.813 Q 6156.476 7238.732 6158.616 7238.062 Q 6160.756 7237.393 6161.380 7237.063 "></path>
    <path id="STROKE_13e8a116-9283-474e-92e9-9c7db968deb8" opacity="1.000" fill="none" stroke="#ff9adf" stroke-width="3.160" stroke-opacity="1.000" stroke-linecap="round" stroke-linejoin="round" d="M 6192.803 7208.745 Q 6192.802 7208.351 6192.803 7206.979 Q 6192.875 7207.055 6192.722 7235.661 Q 6193.057 7235.626 6193.311 7235.591 "></path>
    <path id="STROKE_e95296a0-21b9-4ed6-899b-a652ac71b37b" opacity="1.000" fill="none" stroke="#ff9adf" stroke-width="3.400" stroke-opacity="1.000" stroke-linecap="round" stroke-linejoin="round" d="M 6191.833 7210.875 Q 6192.302 7210.246 6192.672 7209.756 Q 6193.042 7209.265 6194.074 7208.714 Q 6195.105 7208.164 6196.690 7208.782 Q 6198.276 7209.401 6199.702 7210.707 Q 6201.128 7212.013 6202.013 7213.599 Q 6202.897 7215.185 6202.939 7216.393 Q 6202.981 7217.600 6202.856 7218.353 Q 6202.732 7219.106 6201.282 7220.549 Q 6199.832 7221.992 6193.819 7220.800 Q 6194.357 7222.198 6196.948 7225.520 Q 6199.539 7228.841 6201.784 7230.816 Q 6204.029 7232.792 6205.364 7233.031 Q 6206.700 7233.271 6206.966 7233.375 "></path>
    <path id="STROKE_8a488360-7ec9-42f6-8a64-9c54c106cf89" opacity="1.000" fill="none" stroke="#ff9adf" stroke-width="3.399" stroke-opacity="1.000" stroke-linecap="round" stroke-linejoin="round" d="M 6218.033 7222.723 Q 6218.250 7223.141 6213.608 7221.614 Q 6213.606 7221.027 6213.580 7224.439 Q 6213.554 7227.851 6214.062 7230.182 Q 6214.571 7232.514 6215.114 7233.864 Q 6215.657 7235.215 6217.430 7235.183 Q 6219.202 7235.150 6221.523 7231.526 Q 6223.844 7227.903 6224.421 7217.899 Q 6223.478 7218.729 6223.388 7218.947 Q 6223.298 7219.165 6223.182 7219.729 Q 6223.066 7220.292 6222.666 7220.805 Q 6222.265 7221.318 6222.076 7233.271 Q 6223.025 7234.226 6224.492 7232.536 Q 6225.958 7230.846 6226.397 7230.292 "></path>
    <path id="STROKE_d8941f51-d475-4ac1-81b4-24031d76818d" opacity="1.000" fill="none" stroke="#ff9adf" stroke-width="3.395" stroke-opacity="1.000" stroke-linecap="round" stroke-linejoin="round" d="M 6234.553 7220.800 Q 6234.213 7220.135 6233.017 7218.808 Q 6232.675 7218.849 6232.304 7221.769 Q 6231.933 7224.689 6232.198 7226.580 Q 6232.463 7228.470 6233.724 7229.896 Q 6234.984 7231.323 6237.281 7230.977 Q 6239.579 7230.631 6241.105 7226.896 Q 6242.633 7223.160 6243.037 7220.874 Q 6243.442 7218.588 6243.554 7216.974 Q 6243.665 7215.360 6243.728 7214.971 Q 6243.791 7214.582 6243.922 7214.409 Q 6244.308 7214.404 6244.288 7222.307 Q 6244.268 7230.210 6243.094 7237.273 Q 6241.919 7244.337 6240.971 7248.602 Q 6240.021 7252.866 6237.499 7255.302 Q 6236.440 7254.888 6236.600 7249.873 Q 6236.759 7244.857 6236.979 7243.905 "></path>
    <path id="STROKE_50c6e55c-d41c-42e4-8191-e5dd4cbb3935" opacity="1.000" fill="none" stroke="#ff9adf" stroke-width="3.400" stroke-opacity="1.000" stroke-linecap="round" stroke-linejoin="round" d="M 6258.050 7215.725 Q 6256.879 7214.510 6256.330 7213.967 Q 6255.781 7213.424 6255.083 7213.073 Q 6254.386 7212.723 6253.309 7213.178 Q 6252.231 7213.632 6251.822 7216.015 Q 6251.414 7218.398 6251.682 7219.817 Q 6251.949 7221.236 6254.613 7223.203 Q 6257.276 7225.169 6259.168 7226.533 Q 6261.060 7227.897 6261.769 7230.019 Q 6262.477 7232.141 6261.656 7234.218 Q 6260.835 7236.295 6258.353 7238.782 Q 6255.871 7241.270 6252.540 7242.138 Q 6252.228 7241.668 6252.366 7240.687 Q 6252.505 7239.705 6252.621 7239.333 "></path>
    <path id="STROKE_67c02fb0-77c9-4491-9323-719b6e2d5c04" opacity="1.000" fill="none" stroke="#ff9adf" stroke-width="3.400" stroke-opacity="1.000" stroke-linecap="round" stroke-linejoin="round" d="M 6014.365 7328.410 Q 6014.364 7328.948 6014.364 7329.293 Q 6015.237 7329.671 6028.089 7315.021 Q 6028.608 7314.967 6028.502 7324.963 Q 6028.396 7334.958 6027.789 7346.873 Q 6027.844 7346.705 6028.019 7344.741 Q 6028.193 7342.777 6028.297 7342.300 "></path>
    <path id="STROKE_c1c7dea0-c32c-48b7-9660-03fc9ce1eac8" opacity="1.000" fill="none" stroke="#ff9adf" stroke-width="3.400" stroke-opacity="1.000" stroke-linecap="round" stroke-linejoin="round" d="M 6013.856 7349.143 Q 6013.749 7349.230 6015.267 7349.520 Q 6016.786 7349.810 6020.744 7349.002 Q 6024.702 7348.194 6026.966 7347.672 Q 6029.230 7347.150 6031.194 7347.175 Q 6033.157 7347.200 6034.678 7346.612 Q 6036.198 7346.024 6036.522 7345.765 "></path>
    <path id="STROKE_69c1f75f-5951-4cb5-829e-5da77f127ebf" opacity="1.000" fill="none" stroke="#ff9adf" stroke-width="3.400" stroke-opacity="1.000" stroke-linecap="round" stroke-linejoin="round" d="M 6047.174 7318.763 Q 6045.783 7318.757 6046.076 7318.728 Q 6045.086 7318.561 6045.186 7318.624 Q 6043.661 7318.971 6043.946 7318.819 Q 6044.232 7318.668 6043.879 7319.284 Q 6043.526 7319.899 6043.020 7320.529 Q 6042.513 7321.159 6041.705 7327.089 Q 6040.896 7333.019 6040.979 7337.176 Q 6041.062 7341.333 6041.210 7343.287 Q 6041.358 7345.242 6042.327 7346.638 Q 6043.295 7348.034 6044.909 7348.291 Q 6046.522 7348.547 6048.326 7348.259 Q 6050.131 7347.970 6052.382 7345.571 Q 6054.632 7343.172 6056.123 7340.357 Q 6057.614 7337.543 6058.365 7333.935 Q 6059.116 7330.327 6059.086 7327.845 Q 6059.056 7325.362 6058.781 7323.957 Q 6058.506 7322.551 6056.637 7321.478 Q 6054.769 7320.404 6053.519 7320.210 Q 6052.270 7320.016 6051.508 7319.832 Q 6050.747 7319.648 6050.147 7319.585 Q 6049.548 7319.521 6048.383 7319.221 Q 6047.218 7318.920 6046.404 7318.625 Q 6045.591 7318.330 6045.255 7318.104 "></path>
    <path id="STROKE_60b6557c-74b6-4c4e-9245-32a69990e8d2" opacity="1.000" fill="none" stroke="#ff9adf" stroke-width="3.400" stroke-opacity="1.000" stroke-linecap="round" stroke-linejoin="round" d="M 6049.668 7307.660 Q 6049.668 7307.660 6049.751 7307.656 Q 6049.833 7307.653 6049.479 7307.632 Q 6049.125 7307.610 6054.734 7307.727 Q 6060.343 7307.842 6061.036 7308.024 "></path>
    <path id="STROKE_cd98e000-70f1-49f8-894c-7f6bedd1e8e1" opacity="1.000" fill="none" stroke="#ff9adf" stroke-width="3.400" stroke-opacity="1.000" stroke-linecap="round" stroke-linejoin="round" d="M 6071.688 7293.025 Q 6071.688 7292.990 6071.688 7292.505 Q 6071.722 7293.808 6071.668 7300.168 Q 6071.614 7306.528 6071.653 7314.242 Q 6072.363 7314.294 6073.163 7312.817 Q 6073.963 7311.341 6074.483 7310.535 "></path>
    <path id="STROKE_0582587a-b9d1-4af9-b711-dc60db9d38b4" opacity="1.000" fill="none" stroke="#ff9adf" stroke-width="3.400" stroke-opacity="1.000" stroke-linecap="round" stroke-linejoin="round" d="M 6084.164 7292.731 Q 6084.164 7292.669 6084.164 7291.483 Q 6083.577 7292.179 6082.954 7296.731 Q 6082.332 7301.284 6082.338 7304.484 Q 6082.344 7307.685 6082.594 7309.396 Q 6082.843 7311.107 6083.957 7312.512 Q 6085.071 7313.916 6086.725 7314.390 Q 6088.378 7314.864 6089.951 7314.255 Q 6091.523 7313.647 6093.359 7311.673 Q 6095.194 7309.700 6095.427 7307.967 Q 6095.660 7306.234 6095.642 7304.634 Q 6095.624 7303.034 6094.528 7302.605 Q 6093.433 7302.177 6091.649 7302.290 Q 6089.865 7302.403 6088.120 7303.452 Q 6086.376 7304.500 6085.491 7305.256 Q 6084.606 7306.012 6084.553 7306.598 Q 6084.499 7307.184 6084.534 7307.435 "></path>
    <path id="STROKE_fab2955a-a24a-4a7d-87a7-b8ab2212b1ff" opacity="1.000" fill="none" stroke="#ff9adf" stroke-width="3.400" stroke-opacity="1.000" stroke-linecap="round" stroke-linejoin="round" d="M 6136.565 7336.567 Q 6136.103 7336.567 6135.988 7336.567 Q 6135.898 7336.311 6147.879 7336.996 Q 6159.859 7337.681 6168.477 7337.595 Q 6177.095 7337.509 6180.609 7337.655 Q 6184.124 7337.802 6187.660 7336.921 Q 6191.197 7336.040 6196.014 7337.312 Q 6196.014 7337.347 6196.014 7337.382 Q 6195.979 7337.382 6195.817 7337.507 Q 6195.656 7337.633 6195.506 7337.814 "></path>
    <path id="STROKE_1e21644b-1536-4f1f-817d-b1c0b7bc55f9" opacity="1.000" fill="none" stroke="#ff9adf" stroke-width="2.809" stroke-opacity="1.000" stroke-linecap="round" stroke-linejoin="round" d="M 6233.375 7319.213 Q 6233.576 7319.233 6232.358 7317.152 Q 6232.682 7317.189 6232.104 7330.078 Q 6231.528 7342.966 6231.665 7356.581 Q 6232.863 7356.723 6232.612 7356.391 Q 6232.942 7355.782 6234.412 7352.904 Q 6235.881 7350.025 6236.401 7349.142 "></path>
    <path id="STROKE_faad3751-93c6-476b-9e88-bc4e833af580" opacity="1.000" fill="none" stroke="#ff9adf" stroke-width="3.324" stroke-opacity="1.000" stroke-linecap="round" stroke-linejoin="round" d="M 6246.822 7321.499 Q 6246.821 7321.856 6246.821 7319.213 Q 6246.820 7319.667 6246.312 7327.899 Q 6245.804 7336.132 6245.557 7340.701 Q 6245.311 7345.269 6245.505 7347.980 Q 6245.699 7350.692 6246.519 7352.362 Q 6247.339 7354.032 6249.459 7354.470 Q 6251.580 7354.907 6254.469 7353.201 Q 6257.358 7351.495 6259.393 7348.170 Q 6261.427 7344.845 6262.216 7340.878 Q 6263.004 7336.912 6263.030 7333.732 Q 6263.057 7330.553 6261.389 7326.906 Q 6259.722 7323.258 6258.133 7321.165 Q 6256.544 7319.072 6255.545 7318.057 Q 6254.545 7317.042 6253.304 7316.488 Q 6252.062 7315.935 6250.518 7316.118 Q 6248.973 7316.301 6248.057 7316.646 Q 6247.141 7316.993 6245.878 7319.428 Q 6244.615 7321.863 6244.396 7322.227 "></path>
    <path id="STROKE_94bddf25-ff37-4d07-b6cc-53ccccc17b1f" opacity="1.000" fill="none" stroke="#ff9adf" stroke-width="3.400" stroke-opacity="1.000" stroke-linecap="round" stroke-linejoin="round" d="M 6244.165 7301.772 Q 6244.862 7301.070 6244.633 7301.208 Q 6244.404 7301.346 6244.838 7301.011 Q 6245.272 7300.676 6245.885 7300.256 Q 6246.498 7299.836 6246.890 7299.758 Q 6247.281 7299.680 6247.577 7299.637 Q 6247.874 7299.593 6250.084 7299.312 Q 6252.295 7299.032 6257.113 7300.203 Q 6261.932 7301.373 6262.163 7301.477 "></path>
    <path id="STROKE_7d84fadf-dcb7-4b53-9c07-4a64448a88c0" opacity="1.000" fill="none" stroke="#ff9adf" stroke-width="3.400" stroke-opacity="1.000" stroke-linecap="round" stroke-linejoin="round" d="M 6272.953 7286.929 Q 6273.080 7287.052 6271.439 7286.478 Q 6270.702 7287.204 6273.161 7310.761 Q 6273.860 7311.057 6274.521 7309.268 Q 6275.183 7307.479 6275.448 7306.777 "></path>
    <path id="STROKE_3da49f2d-a7db-4068-bc94-f1edfff4c7ca" opacity="1.000" fill="none" stroke="#ff9adf" stroke-width="3.400" stroke-opacity="1.000" stroke-linecap="round" stroke-linejoin="round" d="M 6279.029 7288.540 Q 6279.871 7287.570 6279.979 7287.463 Q 6280.088 7287.356 6280.127 7287.404 Q 6279.720 7287.466 6281.664 7286.925 Q 6283.607 7286.383 6285.047 7287.261 Q 6286.486 7288.140 6287.616 7290.509 Q 6288.747 7292.879 6289.055 7296.271 Q 6289.362 7299.662 6289.177 7302.222 Q 6288.991 7304.781 6287.990 7306.389 Q 6286.989 7307.997 6286.264 7308.628 Q 6285.540 7309.258 6284.562 7309.148 Q 6283.584 7309.039 6283.153 7308.391 Q 6282.723 7307.743 6282.413 7305.110 Q 6282.104 7302.479 6282.407 7300.483 Q 6282.709 7298.488 6283.130 7297.639 Q 6283.550 7296.789 6285.218 7296.787 Q 6286.886 7296.785 6288.248 7298.019 Q 6289.610 7299.252 6294.064 7301.360 Q 6298.519 7303.469 6298.854 7303.694 "></path>
    <path id="STROKE_2768aa72-36cd-4696-bbd0-eaad63794648" opacity="1.000" fill="none" stroke="#6ac0c8" stroke-width="3.221" stroke-opacity="1.000" stroke-linecap="round" stroke-linejoin="round" d="M 6419.012 7316.123 Q 6418.643 7316.303 6419.803 7312.528 Q 6420.958 7312.699 6420.552 7318.044 Q 6420.146 7323.390 6419.616 7326.845 Q 6419.086 7330.299 6418.989 7332.747 Q 6418.893 7335.194 6418.676 7337.638 Q 6418.458 7340.082 6419.853 7345.439 Q 6419.959 7345.439 6420.091 7345.415 Q 6419.939 7345.196 6421.388 7342.498 Q 6422.835 7339.800 6423.148 7339.250 "></path>
    <path id="STROKE_a1d2ebd3-c20c-4059-8ef3-19f9d25a5865" opacity="1.000" fill="none" stroke="#6ac0c8" stroke-width="3.383" stroke-opacity="1.000" stroke-linecap="round" stroke-linejoin="round" d="M 6436.811 7314.072 Q 6436.811 7313.310 6436.811 7313.312 Q 6436.811 7312.078 6436.811 7312.472 Q 6436.811 7312.312 6436.811 7312.182 Q 6436.797 7312.274 6435.425 7318.028 Q 6434.053 7323.782 6433.274 7327.741 Q 6432.495 7331.700 6432.310 7334.256 Q 6432.124 7336.812 6432.223 7338.239 Q 6432.321 7339.666 6432.932 7341.424 Q 6433.543 7343.183 6435.473 7344.245 Q 6437.402 7345.308 6439.388 7345.591 Q 6441.375 7345.875 6443.467 7345.366 Q 6445.560 7344.858 6447.228 7342.771 Q 6448.896 7340.683 6449.747 7337.477 Q 6450.597 7334.271 6450.669 7331.387 Q 6450.741 7328.501 6450.407 7326.899 Q 6450.074 7325.297 6448.856 7322.673 Q 6447.639 7320.048 6446.561 7318.060 Q 6445.482 7316.070 6444.256 7314.467 Q 6443.029 7312.863 6441.654 7312.077 Q 6440.280 7311.292 6439.357 7311.866 Q 6438.434 7312.441 6438.278 7312.651 "></path>
    <path id="STROKE_41323919-4066-4a22-b9a5-8a1618a77fcb" opacity="1.000" fill="none" stroke="#6ac0c8" stroke-width="3.400" stroke-opacity="1.000" stroke-linecap="round" stroke-linejoin="round" d="M 6436.877 7302.051 Q 6437.084 7302.061 6437.553 7301.843 Q 6438.021 7301.625 6438.994 7301.169 Q 6439.967 7300.713 6445.393 7300.703 Q 6450.819 7300.692 6451.215 7300.853 "></path>
    <path id="STROKE_e9fe4dae-ad41-41a9-824c-0884156189b0" opacity="1.000" fill="none" stroke="#6ac0c8" stroke-width="3.400" stroke-opacity="1.000" stroke-linecap="round" stroke-linejoin="round" d="M 6462.882 7290.562 Q 6462.844 7290.295 6461.362 7291.447 Q 6459.880 7292.598 6459.649 7295.969 Q 6459.418 7299.340 6459.452 7301.946 Q 6459.485 7304.551 6460.633 7306.745 Q 6461.782 7308.938 6463.396 7310.273 Q 6465.009 7311.608 6466.040 7312.084 Q 6467.071 7312.560 6468.582 7312.687 Q 6470.093 7312.813 6471.303 7312.691 Q 6472.513 7312.569 6473.767 7311.403 Q 6475.020 7310.237 6475.652 7308.369 Q 6476.284 7306.501 6476.154 7304.628 Q 6476.023 7302.755 6474.982 7301.405 Q 6473.942 7300.056 6472.817 7299.548 Q 6471.692 7299.040 6470.728 7298.911 Q 6469.763 7298.782 6468.113 7299.578 Q 6466.463 7300.374 6465.802 7304.588 Q 6465.141 7308.803 6465.141 7309.143 "></path>
    <path id="STROKE_a6d5bccd-29a7-4dae-8624-5c81501e7579" opacity="1.000" fill="none" stroke="#6ac0c8" stroke-width="3.400" stroke-opacity="1.000" stroke-linecap="round" stroke-linejoin="round" d="M 6380.918 7218.500 Q 6380.918 7218.500 6380.906 7218.500 Q 6380.894 7218.500 6380.871 7218.500 L 6380.871 7218.529 Q 6380.732 7218.485 6382.589 7219.087 Q 6384.445 7219.688 6386.438 7221.281 Q 6388.431 7222.874 6390.039 7225.657 Q 6391.648 7228.441 6392.919 7231.064 Q 6394.191 7233.688 6397.876 7234.659 Q 6397.828 7234.982 6398.069 7234.012 Q 6398.311 7233.042 6398.429 7232.740 "></path>
    <path id="STROKE_062280a0-82ef-455e-8e5c-2db8e4463a78" opacity="1.000" fill="none" stroke="#6ac0c8" stroke-width="3.334" stroke-opacity="1.000" stroke-linecap="round" stroke-linejoin="round" d="M 6397.086 7216.900 Q 6397.371 7217.017 6396.739 7216.894 Q 6396.107 7216.771 6395.336 7217.208 Q 6394.564 7217.646 6393.217 7220.370 Q 6391.869 7223.095 6391.079 7224.629 Q 6390.289 7226.162 6388.026 7230.080 Q 6385.763 7233.997 6384.332 7237.977 Q 6384.614 7238.075 6386.228 7235.961 Q 6387.840 7233.848 6388.141 7233.392 "></path>
    <path id="STROKE_f0975e25-3874-4f35-8289-d0980a4b3ec5" opacity="1.000" fill="none" stroke="#6ac0c8" stroke-width="3.400" stroke-opacity="1.000" stroke-linecap="round" stroke-linejoin="round" d="M 6404.103 7224.186 Q 6404.456 7224.464 6406.994 7225.113 Q 6409.532 7225.762 6413.273 7225.856 Q 6417.015 7225.951 6417.568 7226.105 "></path>
    <path id="STROKE_87e875e9-c808-492d-9a85-48b9f6b3b0b3" opacity="1.000" fill="none" stroke="#6ac0c8" stroke-width="3.400" stroke-opacity="1.000" stroke-linecap="round" stroke-linejoin="round" d="M 6432.883 7215.833 Q 6432.809 7215.856 6432.743 7215.845 Q 6432.677 7215.833 6431.666 7215.585 Q 6431.494 7216.151 6432.954 7235.862 Q 6433.986 7235.239 6433.842 7235.269 Q 6433.699 7235.298 6433.903 7234.971 Q 6434.107 7234.644 6434.202 7234.506 Q 6434.296 7234.368 6435.912 7230.333 Q 6437.527 7226.297 6438.421 7224.160 Q 6439.314 7222.023 6439.960 7220.962 Q 6440.605 7219.900 6441.310 7219.366 Q 6442.015 7218.832 6443.197 7218.867 Q 6444.380 7218.902 6444.783 7218.902 "></path>
    <path id="STROKE_6c6124d3-6913-4aa7-ad6b-bb86df6f5451" opacity="1.000" fill="none" stroke="#6ac0c8" stroke-width="3.400" stroke-opacity="1.000" stroke-linecap="round" stroke-linejoin="round" d="M 6450.853 7217.600 Q 6450.339 7217.846 6449.476 7218.194 Q 6448.612 7218.542 6447.203 7220.399 Q 6445.795 7222.257 6445.427 7224.500 Q 6445.059 7226.744 6445.101 7228.377 Q 6445.143 7230.009 6445.718 7230.359 Q 6446.292 7230.710 6447.011 7230.801 Q 6447.730 7230.893 6449.859 7228.852 Q 6451.989 7226.812 6453.943 7224.071 Q 6455.898 7221.331 6456.573 7217.706 Q 6455.644 7217.732 6454.703 7220.743 Q 6453.763 7223.754 6453.673 7225.605 Q 6453.583 7227.456 6453.664 7228.573 Q 6453.746 7229.690 6454.550 7230.255 Q 6455.354 7230.820 6457.474 7230.468 Q 6459.594 7230.116 6461.711 7228.398 Q 6463.827 7226.680 6464.459 7226.153 "></path>
    <path id="STROKE_83918b4d-50e9-40a7-8601-ca584a1df6f4" opacity="1.000" fill="none" stroke="#6ac0c8" stroke-width="3.380" stroke-opacity="1.000" stroke-linecap="round" stroke-linejoin="round" d="M 6466.609 7217.753 Q 6466.695 7218.321 6464.412 7216.592 Q 6464.509 7215.904 6464.431 7218.445 Q 6464.353 7220.987 6464.384 7222.844 Q 6464.416 7224.700 6464.864 7225.961 Q 6465.312 7227.222 6465.787 7228.062 Q 6466.262 7228.902 6466.971 7229.948 Q 6467.680 7230.993 6468.625 7231.864 Q 6469.570 7232.734 6470.410 7232.964 Q 6471.250 7233.194 6471.878 7233.197 Q 6472.507 7233.200 6472.796 7232.501 Q 6473.085 7231.803 6473.333 7230.286 Q 6473.580 7228.769 6473.710 7224.694 Q 6473.841 7220.620 6475.673 7211.462 L 6475.696 7211.462 Q 6475.822 7210.950 6476.050 7215.227 Q 6476.277 7219.503 6476.388 7222.891 Q 6476.499 7226.278 6476.247 7230.643 Q 6475.996 7235.008 6475.215 7238.259 Q 6474.434 7241.509 6473.912 7243.107 Q 6473.390 7244.706 6472.968 7245.567 Q 6472.546 7246.429 6471.879 7247.128 Q 6471.211 7247.826 6467.699 7247.585 Q 6467.643 7247.821 6467.608 7246.243 Q 6467.573 7244.665 6467.621 7244.007 "></path>
    <path id="STROKE_34fb9ce1-cdd6-4fdf-882c-a19f971fae83" opacity="1.000" fill="none" stroke="#6ac0c8" stroke-width="3.400" stroke-opacity="1.000" stroke-linecap="round" stroke-linejoin="round" d="M 6488.150 7211.309 Q 6488.471 7211.401 6487.080 7211.295 Q 6485.690 7211.188 6484.563 7211.583 Q 6483.437 7211.977 6483.039 7213.351 Q 6482.641 7214.725 6482.669 7215.647 Q 6482.697 7216.570 6483.046 7217.415 Q 6483.396 7218.261 6483.872 7218.880 Q 6484.348 7219.499 6485.030 7220.259 Q 6485.712 7221.020 6487.001 7222.377 Q 6488.290 7223.734 6489.058 7225.345 Q 6489.826 7226.955 6490.085 7229.184 Q 6490.344 7231.413 6489.630 7233.592 Q 6488.916 7235.771 6487.711 7237.688 Q 6486.506 7239.604 6483.891 7240.441 Q 6483.540 7240.196 6483.577 7238.695 Q 6483.614 7237.195 6483.741 7236.815 "></path>
    <path id="STROKE_cf8a2eb1-e252-4f60-9ff9-479565002e52" opacity="1.000" fill="none" stroke="#71c047" stroke-width="3.400" stroke-opacity="1.000" stroke-linecap="round" stroke-linejoin="round" d="M 6568.278 7219.306 Q 6567.988 7219.775 6568.855 7216.438 Q 6569.175 7217.588 6569.061 7217.451 Q 6569.097 7217.822 6569.223 7221.258 Q 6569.349 7224.693 6569.877 7227.233 Q 6570.404 7229.773 6571.081 7231.212 Q 6571.758 7232.650 6572.233 7233.313 Q 6572.708 7233.976 6574.024 7234.713 Q 6575.341 7235.450 6577.556 7234.963 Q 6579.770 7234.476 6581.557 7233.589 Q 6583.343 7232.702 6584.660 7231.194 Q 6585.977 7229.687 6586.619 7227.619 Q 6587.261 7225.552 6587.486 7223.077 Q 6587.712 7220.602 6587.783 7219.532 Q 6587.853 7218.462 6587.510 7217.535 Q 6587.166 7216.608 6587.085 7215.662 Q 6587.141 7215.632 6587.228 7215.697 Q 6587.314 7215.763 6587.417 7215.893 "></path>
    <path id="STROKE_7868baae-4eae-486d-95d4-dc3e4d89ea31" opacity="1.000" fill="none" stroke="#71c047" stroke-width="3.400" stroke-opacity="1.000" stroke-linecap="round" stroke-linejoin="round" d="M 6593.833 7215.833 Q 6593.249 7215.833 6593.312 7215.833 Q 6593.162 7215.833 6592.933 7215.833 Q 6594.793 7215.402 6595.963 7219.562 Q 6597.133 7223.723 6597.934 7226.534 Q 6598.734 7229.344 6599.370 7230.681 Q 6600.006 7232.017 6600.289 7232.521 Q 6600.572 7233.026 6600.606 7232.868 Q 6600.641 7232.710 6600.980 7233.164 Q 6601.319 7233.617 6602.055 7233.378 Q 6602.791 7233.138 6603.062 7232.432 Q 6603.333 7231.725 6603.767 7231.019 Q 6604.200 7230.312 6604.335 7229.985 Q 6604.470 7229.658 6604.755 7229.210 Q 6605.040 7228.761 6606.504 7225.035 Q 6607.969 7221.308 6608.900 7218.796 Q 6609.831 7216.283 6611.511 7214.685 Q 6611.583 7214.352 6611.646 7215.374 Q 6611.708 7216.396 6611.756 7216.699 "></path>
    <path id="STROKE_13c2faa5-db90-4b72-b23b-7c280fbd97c0" opacity="1.000" fill="none" stroke="#71c047" stroke-width="3.400" stroke-opacity="1.000" stroke-linecap="round" stroke-linejoin="round" d="M 6576.465 7310.519 Q 6576.465 7310.787 6576.465 7309.464 Q 6576.728 7309.408 6576.719 7316.272 Q 6576.710 7323.136 6576.762 7326.759 Q 6576.813 7330.381 6576.860 7332.309 Q 6576.908 7334.235 6577.571 7336.026 Q 6577.505 7335.050 6577.688 7334.496 Q 6577.871 7333.941 6578.077 7333.515 "></path>
    <path id="STROKE_f681a97c-f173-4e34-8a8d-95ad19a6def1" opacity="1.000" fill="none" stroke="#71c047" stroke-width="3.400" stroke-opacity="1.000" stroke-linecap="round" stroke-linejoin="round" d="M 6590.879 7309.215 Q 6590.090 7309.012 6590.277 7308.990 Q 6590.465 7308.969 6589.952 7309.044 Q 6589.440 7309.119 6589.251 7309.726 Q 6589.063 7310.333 6588.417 7312.755 Q 6587.771 7315.177 6587.337 7317.147 Q 6586.903 7319.118 6586.313 7323.136 Q 6585.724 7327.154 6585.655 7329.321 Q 6585.586 7331.489 6585.851 7333.092 Q 6586.114 7334.694 6586.933 7335.574 Q 6587.752 7336.454 6589.009 7336.570 Q 6590.266 7336.686 6591.271 7336.428 Q 6592.276 7336.170 6594.111 7334.348 Q 6595.947 7332.526 6597.733 7329.474 Q 6599.520 7326.421 6600.409 7323.276 Q 6601.298 7320.130 6601.506 7318.354 Q 6601.713 7316.577 6601.630 7315.229 Q 6601.546 7313.880 6600.293 7312.679 Q 6599.039 7311.477 6598.234 7310.849 Q 6597.429 7310.220 6597.045 7309.963 Q 6596.661 7309.705 6596.396 7309.511 Q 6596.130 7309.316 6595.205 7308.565 Q 6594.280 7307.814 6593.093 7308.213 Q 6591.905 7308.611 6591.684 7308.812 "></path>
    <path id="STROKE_66c6f06e-8109-403f-944b-b0f2abc74e28" opacity="1.000" fill="none" stroke="#71c047" stroke-width="3.400" stroke-opacity="1.000" stroke-linecap="round" stroke-linejoin="round" d="M 6594.640 7300.413 Q 6594.271 7299.910 6598.085 7299.490 Q 6601.899 7299.071 6604.307 7299.553 Q 6606.714 7300.034 6607.093 7300.211 "></path>
    <path id="STROKE_360fdd0d-20c5-4f18-92b6-70921aa27197" opacity="1.000" fill="none" stroke="#71c047" stroke-width="3.400" stroke-opacity="1.000" stroke-linecap="round" stroke-linejoin="round" d="M 6616.639 7289.489 Q 6616.320 7289.692 6615.069 7289.892 Q 6613.819 7290.091 6612.897 7290.975 Q 6611.976 7291.859 6611.792 7292.933 Q 6611.607 7294.007 6611.659 7295.111 Q 6611.711 7296.215 6613.298 7296.920 Q 6614.884 7297.625 6616.961 7298.390 Q 6619.038 7299.155 6620.331 7299.827 Q 6621.625 7300.500 6622.394 7301.319 Q 6623.163 7302.139 6623.239 7303.193 Q 6623.316 7304.248 6623.238 7304.853 Q 6623.159 7305.458 6622.579 7306.514 Q 6621.998 7307.569 6620.518 7308.590 Q 6619.038 7309.612 6618.149 7309.904 Q 6617.260 7310.196 6616.393 7310.303 Q 6615.526 7310.409 6614.955 7309.141 Q 6614.383 7307.873 6614.812 7305.075 Q 6615.241 7302.276 6616.566 7299.770 Q 6617.893 7297.262 6618.650 7295.599 Q 6619.407 7293.936 6623.909 7290.496 Q 6623.909 7290.404 6623.909 7290.776 Q 6623.909 7291.148 6623.909 7291.349 "></path>
    <path id="STROKE_91a31f4b-1e69-48d5-8379-199c2457838e" opacity="1.000" fill="none" stroke="#71c047" stroke-width="3.400" stroke-opacity="1.000" stroke-linecap="round" stroke-linejoin="round" d="M 6566.381 7266.754 Q 6566.362 7266.556 6566.706 7263.377 L 6566.729 7263.377 Q 6566.632 7264.284 6567.456 7276.967 Q 6567.726 7277.592 6568.088 7262.524 Q 6567.499 7263.938 6566.824 7274.953 Q 6566.815 7274.845 6566.831 7273.438 Q 6566.848 7272.032 6566.872 7271.777 "></path>
    <path id="STROKE_bd2db994-9d94-456a-88ea-917f0fb96e61" opacity="1.000" fill="none" stroke="#6ac0c8" stroke-width="3.385" stroke-opacity="1.000" stroke-linecap="round" stroke-linejoin="round" d="M 6410.693 7269.266 Q 6410.733 7268.259 6410.716 7268.516 Q 6410.699 7268.772 6410.752 7268.339 Q 6410.805 7267.905 6411.689 7264.586 Q 6411.842 7264.338 6411.215 7270.135 Q 6410.588 7275.932 6410.812 7282.452 Q 6411.776 7282.462 6413.491 7263.935 Q 6413.604 7263.971 6412.147 7280.391 Q 6412.044 7280.568 6412.400 7266.801 Q 6412.491 7266.043 6412.252 7272.396 Q 6412.013 7278.750 6412.084 7279.075 "></path>
    <path id="STROKE_48a0ca75-6cb8-4910-b556-c62008da0b27" opacity="1.000" fill="none" stroke="#ff9adf" stroke-width="3.289" stroke-opacity="1.000" stroke-linecap="round" stroke-linejoin="round" d="M 6043.973 7263.690 Q 6043.876 7263.127 6044.325 7261.062 Q 6044.917 7260.482 6045.177 7265.823 Q 6045.438 7271.164 6043.750 7285.142 Q 6045.050 7284.955 6046.336 7263.034 Q 6045.820 7263.712 6044.575 7279.228 Q 6043.982 7279.334 6044.820 7277.301 Q 6045.657 7275.267 6046.035 7274.745 "></path>
    <path id="STROKE_75a25827-12d2-427e-8b88-64f294fbf1f8" opacity="1.000" fill="none" stroke="#ff9adf" stroke-width="3.400" stroke-opacity="1.000" stroke-linecap="round" stroke-linejoin="round" d="M 6254.658 7267.749 Q 6254.659 7267.579 6254.606 7262.982 Q 6254.632 7262.982 6254.684 7262.982 Q 6254.743 7263.208 6254.512 7280.156 Q 6255.009 7280.971 6256.239 7262.441 Q 6256.137 7263.938 6254.709 7278.520 Q 6254.994 7278.283 6254.714 7275.010 Q 6254.435 7271.736 6254.709 7271.459 "></path>
    <path id="STROKE_34936ff8-d96f-47f7-b17f-5b22bf57c23d" opacity="1.000" fill="none" stroke="#ff9adf" stroke-width="3.400" stroke-opacity="1.000" stroke-linecap="round" stroke-linejoin="round" d="M 6711.708 7264.839 Q 6711.710 7264.008 6711.709 7264.264 Q 6711.711 7263.596 6711.711 7263.742 Q 6711.711 7263.650 6711.712 7263.426 Q 6711.812 7263.793 6711.610 7267.342 Q 6711.408 7270.891 6712.454 7275.409 Q 6713.077 7275.816 6713.564 7272.366 Q 6714.052 7268.916 6714.176 7266.301 Q 6714.299 7263.687 6713.352 7261.308 Q 6712.999 7261.379 6712.197 7273.302 Q 6712.203 7272.475 6712.209 7272.581 Q 6712.216 7272.688 6712.234 7272.591 "></path>
    <path id="STROKE_8d6b205c-4090-43d2-bbee-3be5762be29d" opacity="1.000" fill="none" stroke="#ff9adf" stroke-width="3.400" stroke-opacity="1.000" stroke-linecap="round" stroke-linejoin="round" d="M 6699.382 7305.913 Q 6699.381 7305.913 6699.681 7305.740 Q 6699.981 7305.567 6701.398 7304.531 Q 6702.816 7303.495 6703.735 7302.655 Q 6704.655 7301.815 6705.143 7301.336 Q 6705.631 7300.856 6705.943 7300.457 Q 6706.149 7300.765 6704.988 7317.779 Q 6705.012 7317.779 6705.080 7317.802 Q 6705.147 7317.824 6705.223 7317.824 "></path>
    <path id="STROKE_01148e0c-4bb9-4887-bbd7-8b54e2cced83" opacity="1.000" fill="none" stroke="#ff9adf" stroke-width="3.400" stroke-opacity="1.000" stroke-linecap="round" stroke-linejoin="round" d="M 6698.112 7319.215 Q 6698.111 7319.215 6697.983 7319.100 Q 6697.855 7318.984 6703.042 7318.836 Q 6708.229 7318.689 6708.452 7318.615 "></path>
    <path id="STROKE_c8cddfc3-a3e7-4e47-849d-c567178a7ad6" opacity="1.000" fill="none" stroke="#ff9adf" stroke-width="3.400" stroke-opacity="1.000" stroke-linecap="round" stroke-linejoin="round" d="M 6716.119 7303.990 Q 6715.206 7303.987 6715.451 7303.988 Q 6714.368 7303.609 6713.460 7306.407 Q 6712.553 7309.205 6712.293 7311.369 Q 6712.033 7313.534 6712.078 7314.749 Q 6712.122 7315.965 6712.484 7316.831 Q 6712.847 7317.698 6714.094 7317.973 Q 6715.341 7318.247 6716.332 7318.147 Q 6717.323 7318.047 6718.495 7316.923 Q 6719.668 7315.799 6720.420 7313.702 Q 6721.173 7311.604 6721.370 7309.654 Q 6721.567 7307.704 6721.442 7306.458 Q 6721.318 7305.211 6720.479 7304.502 Q 6719.641 7303.794 6717.988 7303.419 Q 6716.335 7303.044 6715.087 7302.917 Q 6713.839 7302.789 6713.559 7302.674 "></path>
    <path id="STROKE_8bda339c-fe6b-4f88-acce-006351b05235" opacity="1.000" fill="none" stroke="#ff9adf" stroke-width="3.400" stroke-opacity="1.000" stroke-linecap="round" stroke-linejoin="round" d="M 6714.100 7294.258 Q 6714.234 7293.993 6716.430 7293.827 Q 6718.625 7293.662 6720.176 7293.648 Q 6721.727 7293.635 6722.529 7293.931 Q 6723.332 7294.226 6723.595 7294.358 "></path>
    <path id="STROKE_965a460c-f361-45cf-bae3-11e1341e63b7" opacity="1.000" fill="none" stroke="#ff9adf" stroke-width="3.400" stroke-opacity="1.000" stroke-linecap="round" stroke-linejoin="round" d="M 6733.328 7285.891 Q 6733.210 7285.502 6732.920 7284.925 Q 6732.497 7284.569 6731.749 7287.807 Q 6731.000 7291.044 6730.614 7292.986 Q 6730.229 7294.929 6730.198 7296.168 Q 6730.167 7297.408 6730.216 7298.391 Q 6730.264 7299.374 6730.444 7299.969 Q 6730.624 7300.563 6731.567 7301.173 Q 6732.511 7301.783 6733.667 7301.572 Q 6734.823 7301.361 6735.894 7300.375 Q 6736.964 7299.389 6737.635 7298.367 Q 6738.306 7297.345 6738.479 7296.202 Q 6738.654 7295.060 6738.688 7294.521 Q 6738.723 7293.981 6738.211 7293.762 Q 6737.700 7293.542 6737.116 7293.457 Q 6736.533 7293.373 6735.271 7293.761 Q 6734.010 7294.149 6733.098 7294.709 Q 6732.185 7295.270 6731.703 7295.716 Q 6731.221 7296.163 6731.260 7296.438 Q 6731.298 7296.712 6731.350 7296.839 "></path>
    <path id="STROKE_18904f49-a2f0-446f-a95e-5b1afa62345f" opacity="1.000" fill="none" stroke="#ff9adf" stroke-width="3.400" stroke-opacity="1.000" stroke-linecap="round" stroke-linejoin="round" d="M 6797.439 7263.838 Q 6797.327 7263.243 6797.289 7263.333 Q 6796.998 7262.913 6796.998 7262.920 Q 6796.945 7262.845 6796.828 7262.757 Q 6796.811 7262.639 6796.722 7274.324 L 6796.757 7274.343 Q 6797.580 7274.213 6798.162 7259.496 Q 6798.103 7259.479 6798.067 7259.478 Q 6798.063 7259.085 6798.031 7259.844 Q 6797.999 7260.602 6798.111 7263.008 Q 6798.224 7265.415 6797.356 7273.861 Q 6797.315 7273.879 6797.292 7273.896 Q 6797.239 7274.010 6797.270 7263.689 L 6797.235 7263.688 Q 6797.182 7263.895 6797.030 7264.675 Q 6796.878 7265.456 6796.766 7265.811 "></path>
    <path id="STROKE_56482c38-8f19-4668-9866-1aa1b3b9b5f9" opacity="1.000" fill="none" stroke="#ff9adf" stroke-width="3.400" stroke-opacity="1.000" stroke-linecap="round" stroke-linejoin="round" d="M 6776.008 7303.611 Q 6775.962 7303.337 6776.082 7302.532 Q 6776.215 7302.636 6776.257 7305.715 Q 6776.299 7308.794 6775.971 7312.667 Q 6775.642 7316.540 6775.452 7318.759 Q 6775.263 7320.978 6775.722 7322.569 Q 6775.798 7322.587 6775.933 7322.570 Q 6775.758 7322.576 6776.170 7321.630 Q 6776.583 7320.685 6776.729 7320.422 "></path>
    <path id="STROKE_424c5f8e-1e80-4700-b87c-2c6a3af10dfd" opacity="1.000" fill="none" stroke="#ff9adf" stroke-width="3.400" stroke-opacity="1.000" stroke-linecap="round" stroke-linejoin="round" d="M 6784.229 7303.381 Q 6784.432 7303.342 6783.770 7303.703 Q 6783.106 7304.063 6782.661 7307.711 Q 6782.216 7311.358 6782.097 7313.592 Q 6781.978 7315.826 6781.939 7316.961 Q 6781.900 7318.097 6781.989 7318.859 Q 6782.079 7319.622 6782.705 7320.328 Q 6783.332 7321.034 6784.358 7321.177 Q 6785.384 7321.321 6786.538 7320.522 Q 6787.691 7319.724 6788.203 7319.114 Q 6788.715 7318.504 6789.384 7317.765 Q 6790.053 7317.026 6790.615 7315.272 Q 6791.178 7313.519 6791.240 7311.881 Q 6791.303 7310.243 6791.095 7309.164 Q 6790.886 7308.084 6789.993 7306.840 Q 6789.101 7305.597 6788.343 7304.887 Q 6787.585 7304.177 6786.607 7303.725 Q 6785.630 7303.273 6784.881 7303.716 Q 6784.132 7304.159 6784.003 7304.268 "></path>
    <path id="STROKE_db9e33c9-45fb-4b38-a376-f29570c89aec" opacity="1.000" fill="none" stroke="#ff9adf" stroke-width="3.400" stroke-opacity="1.000" stroke-linecap="round" stroke-linejoin="round" d="M 6787.732 7298.802 Q 6788.185 7298.804 6788.147 7298.804 Q 6788.719 7298.806 6788.704 7298.805 Q 6789.482 7298.355 6793.344 7298.128 Q 6797.206 7297.901 6797.487 7297.902 "></path>
    <path id="STROKE_7ff7e023-e480-49f1-b052-6b6a03c0ad9d" opacity="1.000" fill="none" stroke="#ff9adf" stroke-width="3.400" stroke-opacity="1.000" stroke-linecap="round" stroke-linejoin="round" d="M 6802.452 7290.351 Q 6802.454 7290.144 6801.933 7291.527 Q 6801.412 7292.910 6801.611 7294.187 Q 6801.810 7295.464 6802.240 7296.308 Q 6802.670 7297.152 6803.309 7297.680 Q 6803.948 7298.207 6805.114 7298.252 Q 6806.279 7298.297 6807.231 7297.203 Q 6808.183 7296.109 6808.383 7295.812 "></path>
    <path id="STROKE_23b00fe6-b34c-4fc7-8588-b1e420cd5874" opacity="1.000" fill="none" stroke="#ff9adf" stroke-width="3.400" stroke-opacity="1.000" stroke-linecap="round" stroke-linejoin="round" d="M 6809.415 7287.730 Q 6809.412 7288.590 6809.412 7288.582 Q 6809.729 7289.317 6809.072 7293.722 Q 6808.416 7298.126 6807.964 7300.847 Q 6807.512 7303.568 6807.581 7305.350 Q 6807.611 7305.295 6807.737 7304.895 Q 6807.864 7304.495 6807.958 7304.236 "></path>
    <path id="STROKE_85a798c1-ec04-4095-9821-00a4d2b4cdd3" opacity="1.000" fill="none" stroke="#ff9adf" stroke-width="3.400" stroke-opacity="1.000" stroke-linecap="round" stroke-linejoin="round" d="M 6727.554 7219.835 Q 6727.532 7219.835 6727.216 7219.880 Q 6727.232 7219.639 6747.799 7219.424 Q 6747.822 7219.476 6747.821 7219.551 Q 6747.565 7219.629 6746.513 7219.586 Q 6745.461 7219.544 6745.239 7219.497 "></path>
    <path id="STROKE_bf29b89b-ab13-4056-9d67-13b25ea626cc" opacity="1.000" fill="none" stroke="#ff9adf" stroke-width="3.247" stroke-opacity="1.000" stroke-linecap="round" stroke-linejoin="round" d="M 6735.811 7220.252 Q 6735.788 7220.252 6735.342 7220.250 Q 6735.249 7220.503 6735.930 7225.378 Q 6736.610 7230.253 6736.624 7240.956 Q 6736.646 7240.956 6736.670 7240.957 Q 6736.823 7239.578 6736.979 7239.326 Q 6737.137 7239.074 6737.260 7238.803 "></path>
    <path id="STROKE_859286de-45d6-42d4-8af6-8f0c4a28c3be" opacity="1.000" fill="none" stroke="#ff9adf" stroke-width="3.388" stroke-opacity="1.000" stroke-linecap="round" stroke-linejoin="round" d="M 6724.752 7241.508 Q 6724.751 7241.508 6724.894 7241.613 Q 6725.035 7241.718 6732.106 7240.826 Q 6739.178 7239.934 6743.885 7239.673 Q 6748.592 7239.411 6752.044 7239.044 Q 6752.068 7238.946 6752.068 7238.698 Q 6752.045 7238.698 6752.022 7238.698 Q 6752.022 7238.675 6751.907 7238.651 Q 6751.792 7238.628 6751.669 7238.605 "></path>
    <path id="STROKE_b804b3e3-9207-4e06-ba36-483ca91003a0" opacity="1.000" fill="none" stroke="#ff9adf" stroke-width="3.392" stroke-opacity="1.000" stroke-linecap="round" stroke-linejoin="round" d="M 6760.195 7215.913 Q 6760.195 7215.912 6760.255 7216.125 Q 6760.315 7216.337 6760.267 7222.297 Q 6760.218 7228.258 6761.396 7240.445 Q 6761.347 7240.160 6761.540 7239.285 Q 6761.733 7238.411 6761.881 7237.945 "></path>
    <path id="STROKE_c93a30fa-b294-41d4-9d90-3c96aec529f6" opacity="1.000" fill="none" stroke="#ff9adf" stroke-width="3.400" stroke-opacity="1.000" stroke-linecap="round" stroke-linejoin="round" d="M 6758.390 7218.062 Q 6758.359 7218.062 6757.990 7218.061 Q 6759.037 7218.103 6761.311 7218.416 Q 6763.585 7218.729 6765.360 7219.299 Q 6767.135 7219.869 6768.603 7220.823 Q 6770.071 7221.777 6770.768 7223.337 Q 6771.464 7224.897 6771.408 7226.044 Q 6771.352 7227.191 6770.833 7228.276 Q 6770.314 7229.361 6768.378 7229.745 Q 6766.441 7230.129 6761.970 7228.896 Q 6762.930 7228.377 6765.724 7230.895 Q 6768.518 7233.412 6770.483 7235.844 Q 6772.448 7238.275 6773.922 7240.020 Q 6775.396 7241.764 6777.408 7243.963 Q 6777.408 7243.865 6777.103 7243.268 Q 6776.797 7242.670 6776.628 7242.405 "></path>
    <path id="STROKE_613892de-b3b1-480c-be21-81f7f55e6030" opacity="1.000" fill="none" stroke="#f66640" stroke-width="2.892" stroke-opacity="1.000" stroke-linecap="round" stroke-linejoin="round" d="M 6998.614 7193.666 Q 6998.614 7193.490 6998.646 7191.751 Q 6998.701 7191.725 6998.754 7191.725 Q 6999.073 7193.552 6999.131 7196.675 Q 6999.189 7199.797 6999.206 7204.811 Q 6999.224 7209.824 6999.048 7216.404 Q 6998.872 7222.985 6999.898 7229.395 Q 7000.042 7229.449 7000.239 7229.396 Q 7000.285 7229.363 7000.259 7226.131 Q 7000.232 7222.898 7000.181 7222.184 "></path>
    <path id="STROKE_87c1418d-1f2f-48fd-a7be-55d3b977bbef" opacity="1.000" fill="none" stroke="#f66640" stroke-width="3.400" stroke-opacity="1.000" stroke-linecap="round" stroke-linejoin="round" d="M 6996.310 7194.346 Q 6996.360 7194.787 6996.209 7193.827 Q 6996.058 7192.868 6996.333 7192.465 Q 6996.609 7192.062 6996.972 7191.914 Q 6997.334 7191.767 6997.646 7191.762 Q 6997.958 7191.756 6998.574 7191.628 Q 6999.191 7191.500 7000.971 7191.729 Q 7002.751 7191.960 7004.672 7192.833 Q 7006.592 7193.706 7008.345 7195.549 Q 7010.097 7197.392 7010.909 7199.680 Q 7011.722 7201.968 7011.913 7203.358 Q 7012.104 7204.749 7012.085 7206.709 Q 7012.066 7208.668 7011.879 7209.870 Q 7011.691 7211.072 7010.265 7211.588 Q 7008.839 7212.105 7008.066 7211.950 Q 7007.293 7211.796 7006.837 7211.824 Q 7006.380 7211.852 7004.938 7210.789 Q 7003.497 7209.726 7002.652 7208.753 Q 7001.809 7207.780 7001.487 7206.697 Q 7002.067 7206.153 7003.903 7208.783 Q 7005.740 7211.412 7007.617 7215.265 Q 7009.495 7219.117 7010.982 7221.557 Q 7012.470 7223.996 7014.028 7225.821 Q 7015.586 7227.646 7017.073 7227.932 Q 7018.560 7228.218 7018.901 7228.253 "></path>
    <path id="STROKE_4fc8482e-2e8b-4341-b312-73da28d6b33f" opacity="1.000" fill="none" stroke="#f66640" stroke-width="3.400" stroke-opacity="1.000" stroke-linecap="round" stroke-linejoin="round" d="M 7027.646 7209.218 Q 7027.881 7209.240 7027.318 7209.312 Q 7026.755 7209.382 7025.713 7209.412 Q 7024.672 7209.442 7024.198 7211.394 Q 7023.725 7213.346 7023.528 7214.824 Q 7023.332 7216.302 7023.256 7218.493 Q 7023.181 7220.685 7023.230 7221.770 Q 7023.280 7222.854 7023.442 7223.781 Q 7023.605 7224.708 7024.425 7225.386 Q 7025.245 7226.064 7026.423 7226.060 Q 7027.601 7226.056 7029.237 7224.343 Q 7030.874 7222.630 7032.001 7220.971 Q 7033.128 7219.312 7034.044 7216.520 Q 7034.960 7213.728 7035.065 7211.580 Q 7035.170 7209.432 7035.190 7208.364 Q 7035.211 7207.296 7034.748 7206.767 Q 7034.284 7206.237 7033.987 7206.146 Q 7033.691 7206.055 7033.394 7206.236 Q 7033.096 7206.417 7032.832 7206.918 Q 7032.567 7207.419 7032.381 7208.083 Q 7032.195 7208.748 7031.863 7209.436 Q 7031.531 7210.124 7031.155 7213.119 Q 7030.780 7216.115 7030.859 7217.825 Q 7030.938 7219.535 7031.015 7220.509 Q 7031.091 7221.482 7032.014 7222.081 Q 7032.937 7222.679 7035.780 7221.917 Q 7038.625 7221.155 7039.372 7220.875 "></path>
    <path id="STROKE_48666469-05e1-4564-8821-5312123b1853" opacity="1.000" fill="none" stroke="#f66640" stroke-width="3.315" stroke-opacity="1.000" stroke-linecap="round" stroke-linejoin="round" d="M 7057.063 7210.669 Q 7057.034 7211.001 7055.918 7209.712 Q 7054.802 7208.423 7053.936 7207.724 Q 7053.069 7207.024 7051.953 7206.828 Q 7050.836 7206.632 7050.177 7208.000 Q 7049.518 7209.367 7048.985 7211.178 Q 7048.453 7212.989 7048.168 7215.734 Q 7047.884 7218.479 7047.895 7220.200 Q 7047.906 7221.920 7048.304 7222.990 Q 7048.703 7224.061 7050.240 7224.398 Q 7051.778 7224.735 7053.997 7223.054 Q 7056.215 7221.372 7058.021 7218.822 Q 7059.828 7216.271 7061.121 7213.157 Q 7062.413 7210.043 7063.171 7208.002 Q 7063.929 7205.960 7064.600 7201.541 Q 7065.270 7197.122 7064.708 7192.210 Q 7064.017 7192.509 7063.527 7193.916 Q 7063.038 7195.323 7062.099 7198.117 Q 7061.161 7200.910 7060.055 7204.849 Q 7058.949 7208.787 7058.624 7212.243 Q 7058.298 7215.700 7058.259 7217.401 Q 7058.219 7219.102 7058.271 7220.121 Q 7058.322 7221.140 7059.434 7222.436 Q 7060.545 7223.731 7065.242 7223.380 Q 7065.027 7223.227 7065.760 7221.738 Q 7066.492 7220.250 7068.150 7217.746 Q 7069.809 7215.242 7071.069 7211.033 Q 7072.329 7206.825 7072.845 7201.334 Q 7073.108 7201.352 7072.019 7205.510 Q 7070.929 7209.667 7070.613 7212.847 Q 7070.298 7216.025 7070.353 7217.985 Q 7070.408 7219.944 7071.275 7221.704 Q 7072.143 7223.463 7073.624 7223.811 Q 7075.105 7224.158 7076.318 7223.663 Q 7077.531 7223.167 7078.179 7220.932 Q 7078.826 7218.697 7078.962 7218.070 "></path>
    <path id="STROKE_74e2b14d-5f0f-412f-b500-f4296262a620" opacity="1.000" fill="none" stroke="#f66640" stroke-width="3.400" stroke-opacity="1.000" stroke-linecap="round" stroke-linejoin="round" d="M 7075.854 7193.848 Q 7074.856 7193.882 7074.978 7195.266 Q 7075.098 7196.650 7075.323 7196.826 "></path>
    <path id="STROKE_1592612e-c084-46a7-9227-7c34e08b583c" opacity="1.000" fill="none" stroke="#f66640" stroke-width="3.346" stroke-opacity="1.000" stroke-linecap="round" stroke-linejoin="round" d="M 7089.305 7199.902 Q 7089.541 7199.893 7089.140 7199.324 Q 7088.739 7198.755 7087.859 7198.909 Q 7086.979 7199.063 7085.380 7201.502 Q 7083.781 7203.941 7082.842 7205.835 Q 7081.903 7207.730 7081.361 7209.175 Q 7080.819 7210.620 7080.363 7212.150 Q 7079.908 7213.680 7079.686 7216.495 Q 7079.463 7219.310 7079.651 7221.477 Q 7079.839 7223.644 7081.505 7224.174 Q 7083.170 7224.705 7084.821 7224.759 Q 7086.472 7224.812 7088.488 7222.987 Q 7090.504 7221.161 7091.734 7218.794 Q 7092.964 7216.428 7094.122 7213.309 Q 7095.279 7210.190 7095.610 7207.754 Q 7095.941 7205.319 7095.927 7203.720 Q 7095.912 7202.121 7095.402 7200.612 Q 7094.893 7199.104 7089.055 7199.153 Q 7088.535 7200.263 7088.771 7201.881 Q 7089.008 7203.499 7090.313 7204.427 Q 7091.618 7205.354 7093.723 7205.574 Q 7095.827 7205.794 7097.842 7204.937 Q 7099.857 7204.080 7100.659 7203.712 "></path>
    <path id="STROKE_93081802-39b6-4702-a523-becfc7f3bd9a" opacity="1.000" fill="none" stroke="#f66640" stroke-width="3.348" stroke-opacity="1.000" stroke-linecap="round" stroke-linejoin="round" d="M 6880.350 7264.861 Q 6879.750 7266.057 6881.440 7258.448 Q 6881.494 7258.448 6881.521 7258.448 Q 6881.464 7258.062 6881.741 7280.558 Q 6883.047 7280.200 6882.855 7260.124 Q 6882.412 7259.825 6881.285 7276.660 Q 6881.328 7276.726 6881.680 7276.536 Q 6882.032 7276.346 6882.258 7276.083 "></path>
    <path id="STROKE_0c94d1c7-e934-4dbe-8c65-c295f1e67b00" opacity="1.000" fill="none" stroke="#f66640" stroke-width="3.400" stroke-opacity="1.000" stroke-linecap="round" stroke-linejoin="round" d="M 6871.318 7307.488 Q 6871.121 7307.877 6869.779 7304.841 Q 6870.192 7305.232 6870.156 7309.713 Q 6870.121 7314.193 6870.013 7316.567 Q 6869.906 7318.940 6870.104 7319.858 Q 6870.301 7320.776 6870.553 7321.311 Q 6870.805 7321.845 6871.147 7321.899 Q 6871.490 7321.954 6872.112 7321.604 Q 6872.734 7321.254 6873.248 7320.553 Q 6873.761 7319.852 6874.195 7319.280 "></path>
    <path id="STROKE_638559e1-1cd6-433a-93c7-d2ef35f530b4" opacity="1.000" fill="none" stroke="#f66640" stroke-width="3.400" stroke-opacity="1.000" stroke-linecap="round" stroke-linejoin="round" d="M 6880.170 7305.911 Q 6880.809 7305.722 6879.447 7306.658 Q 6878.085 7307.593 6877.699 7310.981 Q 6877.313 7314.370 6877.304 7316.896 Q 6877.293 7319.420 6877.666 7321.550 Q 6878.039 7323.679 6878.730 7325.036 Q 6879.422 7326.394 6880.028 7327.215 Q 6880.634 7328.037 6882.564 7328.474 Q 6884.496 7328.910 6886.642 7327.726 Q 6888.787 7326.541 6890.711 7324.123 Q 6892.635 7321.705 6893.439 7318.685 Q 6894.243 7315.665 6894.421 7313.636 Q 6894.600 7311.607 6894.001 7309.489 Q 6893.401 7307.372 6891.471 7305.609 Q 6889.541 7303.848 6888.179 7302.923 Q 6886.816 7301.999 6885.376 7301.799 Q 6883.936 7301.600 6882.722 7302.177 Q 6881.508 7302.753 6880.756 7303.759 Q 6880.003 7304.765 6879.832 7304.994 "></path>
    <path id="STROKE_646aaa63-8bd2-41b0-9fd6-b2a8a51ace72" opacity="1.000" fill="none" stroke="#f66640" stroke-width="3.400" stroke-opacity="1.000" stroke-linecap="round" stroke-linejoin="round" d="M 6884.904 7292.930 Q 6886.145 7292.926 6885.957 7292.906 Q 6886.875 7292.360 6892.142 7291.619 Q 6897.409 7290.878 6897.751 7290.853 "></path>
    <path id="STROKE_e18fee1a-4f95-4eca-a409-ead3e2079718" opacity="1.000" fill="none" stroke="#f66640" stroke-width="3.400" stroke-opacity="1.000" stroke-linecap="round" stroke-linejoin="round" d="M 6902.645 7284.342 Q 6903.509 7283.599 6904.562 7282.945 Q 6905.615 7282.292 6906.931 7283.409 Q 6908.247 7284.525 6909.529 7286.594 Q 6910.812 7288.662 6911.425 7291.414 Q 6912.037 7294.166 6911.951 7295.947 Q 6911.865 7297.728 6911.502 7298.903 Q 6911.140 7300.079 6910.213 7300.935 Q 6909.287 7301.790 6907.703 7301.463 Q 6906.119 7301.136 6905.337 7300.285 Q 6904.555 7299.434 6903.880 7298.227 Q 6903.206 7297.019 6903.347 7296.024 Q 6903.487 7295.030 6904.195 7294.441 Q 6904.903 7293.852 6905.317 7293.777 Q 6905.731 7293.703 6907.466 7293.588 Q 6909.201 7293.472 6911.944 7294.411 Q 6914.688 7295.350 6917.344 7295.495 Q 6920.000 7295.640 6920.827 7295.723 "></path>
    <path id="STROKE_0dd828a4-002c-42f7-997f-e5ef2673077d" opacity="1.000" fill="none" stroke="#f66640" stroke-width="3.375" stroke-opacity="1.000" stroke-linecap="round" stroke-linejoin="round" d="M 7186.274 7265.840 Q 7186.226 7265.223 7186.313 7264.203 Q 7186.401 7263.184 7186.169 7261.899 Q 7185.938 7260.615 7185.711 7259.906 Q 7185.484 7259.197 7185.610 7259.537 Q 7185.736 7259.876 7185.396 7259.177 Q 7185.346 7258.262 7185.250 7283.065 Q 7185.935 7281.732 7185.803 7281.876 Q 7185.672 7282.021 7185.919 7280.288 Q 7186.166 7278.556 7186.296 7274.090 Q 7186.426 7269.624 7186.512 7258.722 Q 7186.798 7259.973 7185.437 7280.828 Q 7185.436 7281.199 7185.413 7279.720 Q 7185.391 7278.240 7185.339 7277.727 "></path>
    <path id="STROKE_6eb675fd-86e8-4bf0-9bc8-ed4d15d04870" opacity="1.000" fill="none" stroke="#f66640" stroke-width="3.396" stroke-opacity="1.000" stroke-linecap="round" stroke-linejoin="round" d="M 7158.439 7316.093 Q 7158.359 7316.238 7157.862 7317.081 Q 7158.529 7317.130 7161.408 7314.133 Q 7164.288 7311.135 7166.373 7309.232 Q 7168.457 7307.330 7170.760 7306.581 Q 7171.812 7307.134 7171.318 7313.800 Q 7170.824 7320.466 7171.021 7324.517 Q 7171.217 7328.568 7171.062 7328.728 "></path>
    <path id="STROKE_6e7b2360-8a19-4289-b533-eb596ea27201" opacity="1.000" fill="none" stroke="#f66640" stroke-width="3.400" stroke-opacity="1.000" stroke-linecap="round" stroke-linejoin="round" d="M 7159.898 7332.114 Q 7159.898 7332.114 7159.744 7331.599 Q 7159.591 7331.083 7167.521 7330.751 Q 7175.452 7330.418 7176.083 7330.401 "></path>
    <path id="STROKE_babd5ee6-64ee-4255-bfb7-5cf2e10624ff" opacity="1.000" fill="none" stroke="#f66640" stroke-width="3.400" stroke-opacity="1.000" stroke-linecap="round" stroke-linejoin="round" d="M 7191.905 7308.583 Q 7190.600 7308.567 7190.602 7308.492 Q 7190.677 7308.477 7190.021 7308.402 Q 7189.364 7308.327 7188.252 7308.875 Q 7187.140 7309.422 7185.788 7312.396 Q 7184.435 7315.368 7184.191 7318.646 Q 7183.948 7321.923 7184.105 7324.076 Q 7184.264 7326.228 7184.992 7327.132 Q 7185.721 7328.036 7187.943 7328.300 Q 7190.166 7328.564 7192.419 7327.549 Q 7194.673 7326.534 7196.203 7325.356 Q 7197.734 7324.179 7199.290 7322.019 Q 7200.845 7319.857 7201.337 7317.541 Q 7201.830 7315.224 7201.826 7313.720 Q 7201.823 7312.216 7201.075 7310.936 Q 7200.327 7309.655 7197.123 7308.280 Q 7193.918 7306.905 7187.605 7308.083 Q 7187.133 7308.689 7187.634 7309.252 Q 7188.135 7309.814 7188.487 7309.890 "></path>
    <path id="STROKE_6631a6ae-43aa-47b2-a763-34dd607a7b51" opacity="1.000" fill="none" stroke="#f66640" stroke-width="3.400" stroke-opacity="1.000" stroke-linecap="round" stroke-linejoin="round" d="M 7215.153 7293.403 Q 7214.510 7292.918 7213.845 7292.425 Q 7213.180 7291.933 7211.891 7291.644 Q 7210.602 7291.354 7209.453 7291.768 Q 7208.304 7292.182 7207.656 7293.199 Q 7207.007 7294.216 7206.819 7295.354 Q 7206.632 7296.493 7206.659 7298.704 Q 7206.686 7300.914 7208.769 7301.657 Q 7210.851 7302.399 7212.813 7302.687 Q 7214.775 7302.975 7216.033 7303.423 Q 7217.290 7303.871 7218.088 7304.855 Q 7218.886 7305.840 7218.922 7306.204 Q 7218.958 7306.568 7218.738 7307.548 Q 7218.518 7308.529 7217.500 7309.751 Q 7216.481 7310.973 7214.835 7311.971 Q 7213.188 7312.969 7211.778 7313.267 Q 7210.368 7313.564 7209.631 7313.516 Q 7208.894 7313.467 7208.008 7312.382 Q 7207.123 7311.297 7207.384 7309.545 Q 7207.646 7307.792 7208.299 7306.746 Q 7208.952 7305.699 7211.483 7302.553 Q 7214.014 7299.407 7215.821 7297.432 Q 7217.629 7295.457 7218.062 7293.680 Q 7217.310 7293.062 7216.604 7294.011 Q 7215.899 7294.961 7215.757 7295.235 "></path>
    <path id="STROKE_c5dda027-d4f6-4094-a696-5949ea9c6788" opacity="1.000" fill="none" stroke="#f3ba38" stroke-width="3.400" stroke-opacity="1.000" stroke-linecap="round" stroke-linejoin="round" d="M 6673.938 7260.465 Q 6673.939 7259.324 6673.939 7257.115 Q 6674.186 7258.480 6675.012 7277.039 L 6675.101 7277.039 Q 6675.425 7278.111 6675.232 7258.702 L 6675.188 7258.702 Q 6675.113 7259.900 6675.145 7273.754 Q 6675.145 7272.946 6675.145 7272.188 Q 6675.145 7271.430 6675.145 7270.779 "></path>
    <path id="STROKE_2594ee13-0c94-45b7-9f8f-e270a9aa268f" opacity="1.000" fill="none" stroke="#ffe15c" stroke-width="3.400" stroke-opacity="1.000" stroke-linecap="round" stroke-linejoin="round" d="M 6645.539 7259.827 Q 6645.045 7258.010 6645.127 7258.559 Q 6644.551 7257.676 6644.657 7257.854 Q 6644.554 7257.710 6644.510 7257.490 Q 6645.096 7258.960 6644.805 7275.166 Q 6644.513 7291.371 6644.345 7299.537 Q 6644.176 7307.702 6643.303 7313.565 Q 6642.429 7319.428 6641.851 7326.443 Q 6641.272 7333.459 6641.320 7336.806 Q 6641.368 7340.153 6641.031 7345.608 Q 6640.695 7351.063 6640.593 7355.196 Q 6640.491 7359.328 6640.427 7364.704 Q 6640.363 7370.080 6640.500 7374.785 Q 6640.637 7379.490 6640.919 7382.479 Q 6641.202 7385.469 6641.386 7393.874 Q 6641.570 7402.279 6641.894 7410.881 L 6641.899 7411.103 "></path>
    <path id="STROKE_aaceac99-fb25-4502-bb13-ea4942f5b0ea" opacity="1.000" fill="none" stroke="#ffe15c" stroke-width="3.400" stroke-opacity="1.000" stroke-linecap="round" stroke-linejoin="round" d="M 6641.900 7411.104 Q 6641.717 7401.504 6641.541 7399.818 "></path>
    <path id="STROKE_845afb1f-7e63-46b3-8308-553372f9c253" opacity="1.000" fill="none" stroke="#ffe15c" stroke-width="3.356" stroke-opacity="1.000" stroke-linecap="round" stroke-linejoin="round" d="M 6664.972 7257.116 Q 6664.972 7257.886 6664.972 7255.793 Q 6665.065 7257.628 6665.104 7257.534 Q 6665.353 7257.675 6665.886 7266.916 Q 6666.419 7276.156 6666.542 7283.943 Q 6666.666 7291.731 6666.886 7296.190 Q 6667.105 7300.650 6666.888 7306.567 Q 6666.670 7312.484 6665.512 7322.035 Q 6664.354 7331.586 6664.201 7347.597 Q 6664.048 7363.607 6663.775 7371.468 Q 6663.502 7379.329 6663.562 7383.107 Q 6663.622 7386.887 6663.550 7392.141 Q 6663.478 7397.395 6663.637 7401.816 Q 6663.796 7406.239 6664.237 7409.757 Q 6664.237 7410.059 6664.259 7408.685 Q 6664.281 7407.311 6664.325 7406.848 "></path>
    <path id="STROKE_eae6ba40-932f-43f1-8b31-ab9d22909bfd" opacity="1.000" fill="none" stroke="#ffe15c" stroke-width="2.975" stroke-opacity="1.000" stroke-linecap="round" stroke-linejoin="round" d="M 6657.122 7265.072 Q 6656.951 7264.495 6656.608 7261.457 Q 6657.034 7261.449 6656.843 7261.422 Q 6656.653 7261.396 6656.782 7261.455 Q 6656.912 7261.515 6656.096 7261.258 Q 6655.280 7261.001 6653.483 7262.584 Q 6651.687 7264.167 6650.271 7265.762 Q 6648.856 7267.357 6646.862 7271.991 Q 6648.254 7272.532 6659.916 7261.875 Q 6659.333 7261.981 6653.766 7268.191 Q 6648.199 7274.402 6643.819 7284.333 Q 6645.135 7284.501 6647.610 7282.600 Q 6650.086 7280.699 6662.091 7267.209 Q 6661.895 7265.865 6646.098 7290.526 Q 6647.000 7291.166 6664.678 7273.204 Q 6664.005 7273.168 6645.186 7301.193 Q 6646.320 7301.682 6666.854 7278.537 Q 6667.562 7278.228 6661.912 7285.091 Q 6656.263 7291.955 6650.685 7298.525 Q 6645.107 7305.096 6641.805 7311.662 Q 6642.871 7311.937 6646.502 7308.651 Q 6650.132 7305.365 6654.076 7301.332 Q 6658.021 7297.299 6665.913 7289.402 Q 6666.623 7290.009 6658.643 7300.217 Q 6650.663 7310.425 6644.040 7322.901 Q 6645.611 7323.256 6649.643 7319.145 Q 6653.675 7315.034 6664.796 7302.868 Q 6664.756 7303.112 6660.491 7308.841 Q 6656.227 7314.570 6651.584 7320.431 Q 6646.942 7326.292 6642.834 7334.604 Q 6642.903 7336.151 6666.648 7311.397 Q 6667.764 7311.780 6662.232 7319.854 Q 6656.701 7327.926 6652.542 7333.181 Q 6648.382 7338.436 6645.253 7342.969 Q 6642.125 7347.502 6640.923 7352.390 Q 6641.107 7353.775 6648.785 7344.889 Q 6656.463 7336.003 6665.913 7327.662 Q 6664.916 7330.920 6664.490 7331.284 Q 6664.064 7331.647 6658.721 7339.546 Q 6653.378 7347.445 6649.494 7353.433 Q 6645.610 7359.421 6643.599 7366.979 Q 6643.429 7368.310 6648.063 7363.013 Q 6652.697 7357.715 6661.797 7350.142 Q 6661.971 7351.336 6656.934 7358.966 Q 6651.897 7366.596 6648.698 7371.246 Q 6645.500 7375.896 6641.541 7386.352 Q 6641.718 7386.001 6662.091 7362.858 Q 6662.329 7364.847 6655.636 7374.553 Q 6648.942 7384.259 6639.835 7401.691 Q 6639.831 7401.346 6658.284 7384.302 Q 6658.296 7386.482 6656.938 7388.427 Q 6655.579 7390.372 6652.113 7396.092 Q 6648.648 7401.812 6644.716 7410.220 Q 6644.841 7410.082 6644.860 7410.078 Q 6644.879 7410.074 6646.498 7407.934 Q 6648.117 7405.794 6649.056 7404.617 Q 6649.994 7403.441 6651.193 7401.646 Q 6652.392 7399.851 6657.505 7396.644 Q 6658.723 7397.845 6650.213 7410.881 Q 6649.632 7411.128 6651.715 7409.826 Q 6653.797 7408.524 6655.386 7407.802 Q 6656.976 7407.080 6657.299 7406.760 "></path>
    <path id="STROKE_bcd2565a-6d3e-4440-bfec-fce2b461f000" opacity="1.000" fill="none" stroke="#ffe15c" stroke-width="1.843" stroke-opacity="1.000" stroke-linecap="round" stroke-linejoin="round" d="M 6426.310 7509.165 L 6469.229 7509.165 Q 6477.452 7509.165 6599.927 7509.165 Q 6722.401 7509.165 6888.398 7509.165 "></path>
    <path id="STROKE_b65b201a-3796-48dd-95eb-2fbcaa2c4817" opacity="1.000" fill="none" stroke="#ffe15c" stroke-width="2.299" stroke-opacity="1.000" stroke-linecap="round" stroke-linejoin="round" d="M 6888.308 7509.166 L 6441.096 7509.165 Q 6434.039 7509.165 6427.028 7509.165 L 6426.318 7509.165 "></path>
    <path id="STROKE_420d6af4-3a43-4d3f-a08d-023453aa9e90" opacity="1.000" fill="none" stroke="#ffe15c" stroke-width="3.400" stroke-opacity="1.000" stroke-linecap="round" stroke-linejoin="round" d="M 6581.761 7466.967 L 6578.037 7466.967 L 6581.761 7466.967 "></path>
    <path id="STROKE_b02cc5f8-f7bb-4eed-9e4f-d4eb87776951" opacity="1.000" fill="none" stroke="#ffe15c" stroke-width="3.400" stroke-opacity="1.000" stroke-linecap="round" stroke-linejoin="round" d="M 6581.761 7466.967 Q 6581.761 7473.884 6581.761 7481.033 Q 6581.761 7489.942 6581.761 7495.100 Q 6581.761 7503.521 6581.761 7509.165 Q 6581.761 7516.541 6581.761 7523.232 Q 6581.761 7531.823 6581.761 7537.299 Q 6581.761 7544.598 6581.761 7551.365 Q 6581.761 7547.232 6581.761 7537.299 "></path>
    <path id="STROKE_b91e9423-4272-4700-84bb-a4dc147671d2" opacity="1.000" fill="none" stroke="#ffe15c" stroke-width="3.400" stroke-opacity="1.000" stroke-linecap="round" stroke-linejoin="round" d="M 6722.426 7481.033 Q 6722.426 7489.167 6722.426 7495.100 Q 6722.426 7504.172 6722.426 7509.165 Q 6722.426 7516.820 6722.426 7523.232 Q 6722.426 7530.646 6722.426 7537.299 Q 6722.426 7544.969 6722.426 7551.365 Q 6722.426 7550.968 6722.426 7547.077 L 6722.426 7551.365 "></path>
    <path id="STROKE_28823e8b-5cd8-4c5c-91af-495c8a3008b7" opacity="1.000" fill="none" stroke="#ffe15c" stroke-width="3.400" stroke-opacity="1.000" stroke-linecap="round" stroke-linejoin="round" d="M 6857.062 7466.967 L 6849.024 7466.967 L 6863.091 7466.967 "></path>
    <path id="STROKE_ca66e5f3-bbe3-4cb7-9560-f7791eb4a9cb" opacity="1.000" fill="none" stroke="#ffe15c" stroke-width="3.346" stroke-opacity="1.000" stroke-linecap="round" stroke-linejoin="round" d="M 6863.091 7466.967 Q 6863.091 7470.106 6863.091 7481.033 Q 6863.091 7490.344 6863.091 7495.100 Q 6863.091 7505.752 6863.091 7523.232 Q 6863.091 7531.420 6863.091 7537.299 Q 6863.091 7544.969 6863.091 7551.365 Q 6863.091 7545.423 6863.091 7545.773 L 6863.091 7545.496 L 6863.091 7551.365 Q 6863.091 7559.602 6863.091 7565.432 Q 6863.091 7563.077 6863.091 7563.401 Q 6863.091 7563.726 6863.091 7563.881 Q 6863.091 7564.036 6863.091 7561.834 L 6863.091 7565.432 "></path>
    <path id="STROKE_378acf5c-fb5e-42dd-a869-f1be0cd79617" opacity="1.000" fill="none" stroke="#ffe15c" stroke-width="2.933" stroke-opacity="1.000" stroke-linecap="round" stroke-linejoin="round" d="M 6441.096 7474.938 L 6441.096 7466.967 Q 6441.096 7469.560 6441.096 7481.033 Q 6441.096 7490.872 6441.096 7509.165 Q 6441.096 7519.051 6441.096 7537.299 Q 6441.096 7536.462 6441.096 7523.232 Q 6441.096 7515.487 6441.096 7509.165 Q 6441.096 7497.600 6441.096 7481.033 Q 6441.096 7473.108 6441.096 7466.967 Q 6441.096 7472.845 6441.096 7481.033 Q 6441.096 7488.237 6441.096 7495.100 Q 6441.096 7505.226 6441.096 7523.232 Q 6441.096 7532.352 6441.096 7537.299 Q 6441.096 7545.124 6441.096 7551.365 Q 6441.096 7548.073 6441.096 7537.299 Q 6441.096 7528.136 6441.096 7523.232 Q 6441.096 7512.201 6441.096 7495.100 L 6441.096 7509.165 Q 6441.096 7517.998 6441.096 7523.232 "></path>
    <path id="STROKE_bacc6b02-03c5-4123-ac36-276d717716de" opacity="1.000" fill="none" stroke="#ffe15c" stroke-width="3.400" stroke-opacity="1.000" stroke-linecap="round" stroke-linejoin="round" d="M 6432.143 7453.423 Q 6432.015 7452.238 6432.436 7457.904 Q 6432.622 7457.906 6433.368 7454.507 Q 6434.115 7451.107 6434.523 7448.991 Q 6434.931 7446.875 6435.986 7443.660 Q 6437.042 7440.445 6438.013 7438.765 Q 6438.984 7437.083 6440.061 7435.423 Q 6441.137 7433.762 6443.185 7431.638 Q 6445.233 7429.513 6448.055 7427.952 Q 6450.876 7426.391 6453.405 7425.731 Q 6455.935 7425.072 6458.756 7424.152 Q 6461.578 7423.232 6464.170 7423.010 Q 6466.763 7422.789 6469.656 7423.502 Q 6472.550 7424.216 6474.784 7424.628 Q 6477.019 7425.040 6480.044 7424.666 Q 6483.068 7424.292 6487.823 7425.788 Q 6492.578 7427.284 6494.963 7428.177 Q 6497.348 7429.071 6499.890 7429.708 Q 6502.432 7430.346 6505.089 7431.135 Q 6507.747 7431.924 6510.468 7432.616 Q 6513.188 7433.309 6517.279 7434.101 Q 6521.370 7434.892 6524.372 7435.927 Q 6527.374 7436.962 6528.898 7437.918 Q 6530.422 7438.875 6532.511 7439.953 Q 6534.599 7441.031 6539.458 7442.015 Q 6544.317 7442.999 6547.551 7443.996 Q 6550.786 7444.993 6555.631 7445.160 Q 6560.477 7445.327 6563.353 7445.329 Q 6566.228 7445.331 6570.234 7446.033 Q 6574.240 7446.734 6580.326 7446.450 Q 6586.413 7446.165 6589.551 7446.014 Q 6592.688 7445.862 6596.701 7445.989 Q 6600.713 7446.117 6604.237 7445.700 Q 6607.761 7445.284 6611.834 7444.837 Q 6615.907 7444.390 6618.770 7443.843 Q 6621.633 7443.296 6623.479 7442.181 Q 6625.326 7441.065 6629.087 7439.050 Q 6632.847 7437.035 6636.842 7434.155 Q 6640.836 7431.275 6643.094 7429.523 Q 6645.352 7427.772 6646.458 7426.599 Q 6647.564 7425.426 6647.700 7424.180 Q 6647.835 7422.933 6647.943 7422.558 Q 6648.050 7422.184 6646.706 7419.208 Q 6646.766 7419.199 6646.654 7420.763 Q 6646.543 7422.326 6646.843 7423.620 Q 6647.142 7424.915 6647.424 7425.564 Q 6647.706 7426.215 6647.808 7426.515 Q 6647.910 7426.814 6648.154 7427.367 Q 6648.399 7427.920 6648.579 7428.584 Q 6648.759 7429.249 6649.987 7431.388 Q 6651.215 7433.527 6652.679 7434.889 Q 6654.142 7436.251 6656.245 7437.425 Q 6658.349 7438.600 6665.068 7438.838 Q 6671.788 7439.077 6675.361 7439.184 Q 6678.935 7439.290 6681.291 7439.396 Q 6683.646 7439.501 6691.819 7438.859 Q 6699.992 7438.218 6704.202 7438.115 Q 6708.413 7438.011 6713.651 7436.995 Q 6718.890 7435.979 6722.913 7435.441 Q 6726.936 7434.904 6738.860 7434.900 Q 6750.784 7434.897 6756.869 7434.936 Q 6762.955 7434.975 6765.762 7434.846 Q 6768.568 7434.717 6769.965 7434.540 Q 6771.362 7434.363 6774.972 7433.662 Q 6778.581 7432.961 6780.713 7432.834 Q 6782.845 7432.708 6785.599 7433.487 Q 6788.354 7434.267 6789.759 7434.522 Q 6791.165 7434.777 6793.624 7434.734 Q 6796.083 7434.690 6801.723 7435.196 Q 6807.362 7435.701 6810.132 7435.844 Q 6812.901 7435.987 6816.499 7435.743 Q 6820.096 7435.499 6826.179 7435.946 Q 6832.261 7436.395 6835.292 7436.559 Q 6838.322 7436.723 6840.180 7437.138 Q 6842.038 7437.553 6843.173 7438.123 Q 6844.308 7438.693 6845.477 7439.448 Q 6846.646 7440.203 6847.862 7440.725 Q 6849.079 7441.248 6852.568 7442.881 Q 6856.057 7444.515 6857.712 7445.222 Q 6859.367 7445.929 6860.855 7447.019 Q 6862.343 7448.108 6863.104 7448.783 Q 6863.866 7449.458 6864.282 7450.025 Q 6864.698 7450.592 6864.821 7450.713 Q 6864.944 7450.834 6865.092 7451.367 Q 6865.240 7451.900 6865.869 7453.729 Q 6866.498 7455.559 6867.435 7456.803 Q 6868.372 7458.047 6868.902 7459.503 Q 6869.433 7460.958 6869.256 7462.648 Q 6869.230 7462.648 6869.206 7462.648 Q 6869.131 7462.140 6869.155 7462.247 Q 6868.805 7461.961 6868.708 7461.944 Q 6868.611 7461.927 6868.452 7461.845 "></path>
    <path id="STROKE_114cbf84-9461-4c2a-a397-8a99bf7c4e0e" opacity="1.000" fill="none" stroke="#f3ba38" stroke-width="3.400" stroke-opacity="1.000" stroke-linecap="round" stroke-linejoin="round" d="M 7277.305 7260.337 Q 7276.945 7261.140 7276.253 7257.912 Q 7277.440 7257.175 7277.211 7257.379 Q 7278.059 7257.049 7280.687 7257.315 Q 7283.314 7257.582 7285.602 7259.570 Q 7287.889 7261.558 7289.046 7263.393 Q 7290.203 7265.227 7290.552 7267.014 Q 7290.900 7268.802 7290.586 7269.170 Q 7290.271 7269.539 7287.654 7271.604 Q 7285.037 7273.670 7282.425 7276.808 Q 7279.813 7279.945 7276.889 7281.896 Q 7276.833 7282.225 7276.917 7281.683 Q 7277.002 7281.142 7277.116 7280.872 "></path>
    <path id="STROKE_813a1acc-5314-48c0-ba66-fb8c19172707" opacity="1.000" fill="none" stroke="#f3ba38" stroke-width="3.376" stroke-opacity="1.000" stroke-linecap="round" stroke-linejoin="round" d="M 7306.843 7254.720 Q 7306.572 7254.759 7305.572 7254.663 Q 7305.549 7254.594 7305.696 7259.821 Q 7305.844 7265.048 7306.231 7267.909 Q 7306.618 7270.770 7307.029 7271.809 Q 7307.439 7272.848 7307.749 7273.351 Q 7308.059 7273.854 7308.793 7273.418 Q 7309.526 7272.982 7310.844 7270.497 Q 7312.161 7268.012 7314.840 7262.813 Q 7317.520 7257.614 7320.938 7250.610 Q 7322.888 7251.161 7322.322 7268.002 Q 7323.224 7268.291 7325.708 7265.095 Q 7328.193 7261.899 7331.280 7258.023 Q 7334.368 7254.147 7336.378 7251.889 Q 7338.388 7249.629 7341.160 7248.896 Q 7341.394 7248.642 7342.177 7256.540 Q 7342.961 7264.438 7345.466 7273.135 Q 7345.872 7273.478 7346.395 7271.028 Q 7346.917 7268.578 7347.098 7267.945 "></path>
    <path id="STROKE_8711ec43-b115-492d-88e3-62f5baf8b0a3" opacity="1.000" fill="none" stroke="#f3ba38" stroke-width="3.400" stroke-opacity="1.000" stroke-linecap="round" stroke-linejoin="round" d="M 6040.000 7268.000 Q 6035.549 7268.000 6030.000 7268.000 Q 6023.909 7268.000 6020.000 7268.000 Q 6012.988 7268.000 6010.000 7268.000 Q 6004.279 7268.000 6000.000 7268.000 Q 5994.636 7268.000 5990.000 7268.000 Q 5984.530 7268.000 5980.000 7268.000 Q 5974.229 7268.000 5970.000 7268.000 "></path>
    <path id="STROKE_d7b6977b-7f15-4f08-8b21-2eb1d4def784" opacity="1.000" fill="none" stroke="#f3ba38" stroke-width="3.383" stroke-opacity="1.000" stroke-linecap="round" stroke-linejoin="round" d="M 5980.204 7252.561 Q 5980.329 7252.849 5980.006 7252.132 Q 5979.682 7251.416 5978.419 7249.216 Q 5977.771 7249.089 5974.316 7254.250 Q 5970.860 7259.412 5968.529 7263.210 Q 5966.199 7267.008 5964.945 7269.430 Q 5963.691 7271.852 5963.521 7274.265 Q 5964.563 7274.722 5966.587 7274.140 Q 5968.611 7273.558 5970.304 7273.296 Q 5971.998 7273.034 5974.430 7274.693 Q 5976.862 7276.352 5979.466 7281.572 Q 5979.438 7281.572 5979.350 7281.572 Q 5979.321 7281.361 5979.292 7281.151 "></path>
    <path id="STROKE_21a8cced-c027-4032-8bb2-e9fb80faf357" opacity="1.000" fill="none" stroke="#f3ba38" stroke-width="3.384" stroke-opacity="1.000" stroke-linecap="round" stroke-linejoin="round" d="M 5903.675 7257.186 Q 5903.511 7257.543 5904.158 7255.774 Q 5904.805 7254.006 5906.721 7253.259 Q 5907.388 7253.358 5907.337 7258.155 Q 5907.287 7262.953 5907.288 7265.736 Q 5907.289 7268.520 5907.546 7269.707 Q 5907.803 7270.894 5908.322 7271.637 Q 5908.841 7272.379 5909.712 7271.796 Q 5910.583 7271.213 5911.793 7267.930 Q 5913.002 7264.646 5914.358 7261.493 Q 5915.714 7258.340 5917.028 7256.425 Q 5918.343 7254.509 5920.125 7253.608 Q 5921.240 7255.306 5924.413 7271.633 Q 5925.967 7271.608 5927.349 7268.944 Q 5928.730 7266.279 5930.979 7262.693 Q 5933.227 7259.107 5934.636 7256.852 Q 5936.044 7254.597 5937.799 7252.658 Q 5939.554 7250.719 5942.405 7250.300 Q 5943.276 7250.444 5943.312 7256.185 Q 5943.346 7261.925 5943.375 7266.288 Q 5943.404 7270.651 5945.829 7275.087 Q 5946.235 7274.852 5946.817 7273.584 Q 5947.400 7272.316 5947.613 7271.946 "></path>
    <path id="STROKE_f6caa105-b922-413d-a457-267e038d0afa" opacity="1.000" fill="none" stroke="#bd8ae6" stroke-width="3.400" stroke-opacity="1.000" stroke-linecap="round" stroke-linejoin="round" d="M 6402.222 7560.771 Q 6402.222 7559.378 6402.222 7559.795 Q 6402.222 7558.950 6402.222 7559.010 Q 6402.222 7557.734 6402.222 7558.167 Q 6402.222 7557.969 6402.222 7557.580 Q 6402.248 7557.580 6402.301 7557.580 Q 6402.466 7558.050 6402.334 7560.978 Q 6402.202 7563.905 6402.276 7565.716 Q 6402.351 7567.528 6402.798 7568.248 Q 6403.245 7568.969 6403.602 7569.678 Q 6403.959 7570.386 6405.092 7570.478 Q 6406.225 7570.569 6407.963 7569.714 Q 6409.701 7568.859 6410.542 7568.616 Q 6411.383 7568.374 6412.272 7568.284 Q 6413.162 7568.194 6413.443 7568.115 "></path>
    <path id="STROKE_49f1fc7a-c495-47ab-8666-2d1756055acc" opacity="1.000" fill="none" stroke="#bd8ae6" stroke-width="3.400" stroke-opacity="1.000" stroke-linecap="round" stroke-linejoin="round" d="M 6415.854 7559.321 Q 6414.853 7559.080 6415.211 7559.123 Q 6415.185 7559.096 6415.097 7559.123 Q 6415.043 7559.817 6415.062 7562.951 Q 6415.082 7566.086 6415.059 7568.908 Q 6415.037 7571.730 6415.021 7573.557 Q 6415.004 7575.384 6415.712 7579.335 Q 6415.800 7579.361 6416.007 7579.318 Q 6416.214 7579.276 6416.416 7579.190 "></path>
    <path id="STROKE_20884133-d054-4bfb-8f37-dd5c48f81153" opacity="1.000" fill="none" stroke="#bd8ae6" stroke-width="3.400" stroke-opacity="1.000" stroke-linecap="round" stroke-linejoin="round" d="M 6422.889 7563.461 Q 6422.841 7563.494 6422.459 7563.563 Q 6422.078 7563.633 6422.122 7563.678 Q 6422.166 7563.723 6422.226 7563.613 Q 6422.285 7563.504 6421.795 7563.776 Q 6421.304 7564.049 6421.084 7566.588 Q 6420.865 7569.127 6421.002 7571.124 Q 6421.139 7573.122 6422.039 7575.001 Q 6422.938 7576.881 6423.987 7577.999 Q 6425.036 7579.117 6425.958 7579.072 Q 6426.879 7579.026 6427.856 7578.648 Q 6428.834 7578.271 6429.821 7575.276 Q 6430.808 7572.282 6431.013 7569.617 Q 6431.217 7566.953 6431.146 7565.522 Q 6431.075 7564.091 6430.933 7563.275 Q 6430.791 7562.459 6429.026 7562.455 Q 6427.261 7562.452 6425.960 7563.187 Q 6424.660 7563.921 6424.095 7564.375 Q 6423.530 7564.829 6423.248 7565.335 Q 6422.966 7565.842 6422.901 7566.207 Q 6422.836 7566.572 6422.783 7566.823 "></path>
    <path id="STROKE_d5707e81-7370-4737-b7b3-3ec974ea4c7f" opacity="1.000" fill="none" stroke="#bd8ae6" stroke-width="3.400" stroke-opacity="1.000" stroke-linecap="round" stroke-linejoin="round" d="M 6439.774 7562.907 Q 6439.709 7563.199 6438.814 7563.432 Q 6437.919 7563.665 6437.322 7565.093 Q 6436.726 7566.521 6436.587 7568.605 Q 6436.448 7570.690 6436.460 7572.064 Q 6436.472 7573.439 6436.567 7574.396 Q 6436.663 7575.352 6437.461 7575.830 Q 6438.260 7576.309 6439.173 7576.491 Q 6440.086 7576.674 6441.273 7576.037 Q 6442.461 7575.400 6443.032 7574.757 Q 6443.604 7574.115 6444.414 7572.729 Q 6445.224 7571.343 6445.372 7569.155 Q 6445.520 7566.968 6445.460 7565.516 Q 6445.400 7564.062 6444.760 7563.212 Q 6444.120 7562.362 6442.956 7561.988 Q 6441.792 7561.615 6440.982 7562.010 Q 6440.172 7562.404 6439.788 7563.061 Q 6439.404 7563.717 6439.158 7564.080 "></path>
    <path id="STROKE_e98c6b9b-cef4-43b0-9364-caf6d097193d" opacity="1.000" fill="none" stroke="#bd8ae6" stroke-width="3.400" stroke-opacity="1.000" stroke-linecap="round" stroke-linejoin="round" d="M 6453.071 7563.962 Q 6451.935 7563.325 6452.135 7563.426 Q 6452.334 7563.526 6452.287 7563.505 Q 6452.239 7563.484 6452.227 7563.460 Q 6452.683 7564.447 6453.053 7568.451 Q 6453.422 7572.456 6454.601 7578.518 Q 6455.184 7579.626 6460.520 7561.417 Q 6461.840 7560.213 6461.162 7578.465 Q 6462.409 7576.466 6462.120 7577.025 Q 6461.831 7577.584 6463.031 7574.709 Q 6464.230 7571.835 6465.113 7569.868 Q 6465.996 7567.900 6466.533 7566.970 Q 6467.071 7566.040 6467.975 7565.679 Q 6468.879 7565.318 6469.139 7565.469 Q 6469.398 7565.621 6469.502 7565.516 Q 6469.605 7565.411 6470.953 7566.406 Q 6472.301 7567.401 6471.838 7578.241 Q 6471.812 7578.241 6471.662 7578.241 Q 6471.523 7577.750 6471.500 7577.185 Q 6471.477 7576.619 6471.398 7576.342 "></path>
    <path id="STROKE_4a2a75d3-7d68-4603-96cc-1eb3feb1e567" opacity="1.000" fill="none" stroke="#71c047" stroke-width="3.400" stroke-opacity="1.000" stroke-linecap="round" stroke-linejoin="round" d="M 6552.570 7561.614 Q 6552.828 7561.795 6553.361 7561.081 Q 6553.130 7561.149 6552.435 7561.006 Q 6551.739 7560.862 6549.455 7560.942 Q 6547.171 7561.022 6545.940 7561.256 Q 6544.709 7561.490 6543.401 7561.920 Q 6542.094 7562.350 6542.429 7564.850 Q 6542.763 7567.350 6543.489 7569.123 Q 6544.215 7570.896 6544.934 7571.539 Q 6545.653 7572.182 6547.700 7572.114 Q 6549.748 7572.045 6550.854 7571.927 Q 6551.960 7571.809 6552.738 7572.312 Q 6553.517 7572.815 6553.827 7574.694 Q 6554.137 7576.573 6554.096 7577.879 Q 6554.055 7579.185 6554.003 7579.767 Q 6553.952 7580.348 6553.381 7581.511 Q 6552.811 7582.673 6551.233 7582.874 Q 6549.655 7583.074 6548.750 7582.998 Q 6547.845 7582.922 6547.333 7582.592 Q 6546.821 7582.262 6546.718 7581.181 Q 6546.614 7580.101 6547.095 7579.342 Q 6547.575 7578.583 6547.821 7578.359 "></path>
    <path id="STROKE_6a6869a7-c319-4fbc-8aa4-f44eb33edb13" opacity="1.000" fill="none" stroke="#71c047" stroke-width="3.400" stroke-opacity="1.000" stroke-linecap="round" stroke-linejoin="round" d="M 6563.247 7567.324 Q 6563.500 7567.348 6561.179 7566.961 Q 6560.945 7567.373 6560.315 7571.031 Q 6559.686 7574.690 6559.619 7577.010 Q 6559.553 7579.330 6559.963 7580.667 Q 6560.372 7582.004 6561.891 7582.219 Q 6563.409 7582.433 6565.449 7579.993 Q 6567.490 7577.553 6568.650 7575.123 Q 6569.810 7572.692 6570.191 7571.335 Q 6570.572 7569.978 6570.747 7568.630 Q 6570.921 7567.283 6569.469 7566.920 Q 6568.016 7566.557 6566.741 7566.843 Q 6565.467 7567.129 6563.520 7568.020 Q 6561.573 7568.911 6561.974 7570.721 Q 6562.375 7572.532 6562.683 7572.756 "></path>
    <path id="STROKE_747a3d4f-0720-4f8f-87d4-900cbe554022" opacity="1.000" fill="none" stroke="#71c047" stroke-width="3.400" stroke-opacity="1.000" stroke-linecap="round" stroke-linejoin="round" d="M 6578.496 7567.772 Q 6577.868 7568.206 6576.750 7568.389 Q 6575.631 7568.571 6574.812 7569.583 Q 6573.994 7570.595 6573.686 7572.406 Q 6573.378 7574.218 6574.009 7575.845 Q 6574.640 7577.472 6575.273 7578.317 Q 6575.907 7579.163 6577.709 7579.933 Q 6579.511 7580.702 6581.353 7579.770 Q 6583.194 7578.838 6584.475 7577.232 Q 6585.755 7575.626 6586.253 7573.333 Q 6586.751 7571.039 6586.602 7569.354 Q 6586.452 7567.667 6585.874 7566.708 Q 6585.296 7565.748 6583.638 7565.169 Q 6581.979 7564.590 6580.528 7565.186 Q 6579.077 7565.782 6578.422 7566.474 Q 6577.767 7567.165 6577.056 7567.904 Q 6576.345 7568.643 6576.110 7569.833 Q 6575.875 7571.022 6575.822 7571.358 "></path>
    <path id="STROKE_de0dc381-8d5a-4b5e-9b31-b01462938bb8" opacity="1.000" fill="none" stroke="#71c047" stroke-width="3.400" stroke-opacity="1.000" stroke-linecap="round" stroke-linejoin="round" d="M 6593.024 7565.808 Q 6593.067 7565.705 6592.355 7564.977 Q 6591.716 7564.808 6593.868 7579.361 Q 6594.562 7578.688 6596.175 7573.498 Q 6597.788 7568.308 6600.376 7563.408 Q 6601.349 7562.936 6601.211 7576.000 Q 6601.913 7576.104 6603.890 7572.448 Q 6605.867 7568.792 6607.399 7566.400 Q 6608.933 7564.008 6612.002 7562.821 Q 6612.422 7562.485 6612.477 7576.619 Q 6612.477 7575.834 6612.477 7575.861 Q 6612.475 7574.988 6612.656 7574.458 Q 6612.837 7573.929 6612.969 7573.652 "></path>
    <path id="STROKE_22c7c77b-d1fe-45ed-a577-745a33150a52" opacity="1.000" fill="none" stroke="#fc6932" stroke-width="3.400" stroke-opacity="1.000" stroke-linecap="round" stroke-linejoin="round" d="M 6685.277 7567.047 Q 6684.689 7567.898 6687.123 7564.496 Q 6685.789 7564.350 6686.138 7564.410 Q 6685.031 7564.458 6683.554 7566.503 Q 6682.076 7568.548 6681.866 7571.901 Q 6681.657 7575.255 6681.877 7577.076 Q 6682.096 7578.898 6682.747 7580.596 Q 6683.398 7582.294 6684.575 7582.941 Q 6685.752 7583.588 6687.321 7583.295 Q 6688.889 7583.002 6690.156 7581.786 Q 6691.422 7580.570 6692.419 7579.014 Q 6693.417 7577.457 6693.649 7576.235 Q 6693.883 7575.014 6694.024 7574.252 Q 6694.165 7573.491 6693.426 7573.062 Q 6692.686 7572.634 6692.201 7572.565 Q 6691.716 7572.498 6690.283 7572.556 Q 6688.851 7572.614 6687.862 7573.326 Q 6686.873 7574.038 6686.267 7574.904 Q 6685.661 7575.771 6685.508 7576.304 Q 6685.354 7576.836 6685.307 7577.250 Q 6685.259 7577.663 6685.225 7577.882 Q 6685.190 7578.101 6685.236 7578.320 Q 6685.283 7578.539 6685.477 7578.633 Q 6685.670 7578.727 6687.039 7578.767 Q 6688.407 7578.808 6688.970 7578.808 "></path>
    <path id="STROKE_cc2f29ff-c78a-41c0-8337-e43063aaf10f" opacity="1.000" fill="none" stroke="#fc6932" stroke-width="3.400" stroke-opacity="1.000" stroke-linecap="round" stroke-linejoin="round" d="M 6704.167 7568.840 Q 6703.542 7568.233 6702.533 7567.652 Q 6701.523 7567.071 6700.639 7568.791 Q 6699.755 7570.511 6699.307 7572.789 Q 6698.859 7575.067 6699.242 7577.026 Q 6699.625 7578.985 6700.742 7580.042 Q 6701.859 7581.098 6703.488 7581.153 Q 6705.117 7581.208 6706.747 7579.867 Q 6708.376 7578.526 6709.260 7576.187 Q 6710.145 7573.847 6710.239 7572.319 Q 6710.333 7570.791 6709.925 7569.827 Q 6709.517 7568.863 6708.589 7568.191 Q 6707.661 7567.519 6706.640 7567.114 Q 6705.618 7566.709 6704.876 7567.486 Q 6704.134 7568.263 6703.945 7568.887 Q 6703.756 7569.512 6703.625 7570.118 Q 6703.493 7570.724 6703.457 7571.676 Q 6703.421 7572.628 6703.820 7573.266 Q 6704.219 7573.903 6704.554 7574.206 "></path>
    <path id="STROKE_970c1550-751f-4735-ba89-4f3236c2004d" opacity="1.000" fill="none" stroke="#fc6932" stroke-width="3.400" stroke-opacity="1.000" stroke-linecap="round" stroke-linejoin="round" d="M 6718.308 7567.443 Q 6718.139 7567.575 6716.882 7567.443 Q 6715.624 7567.311 6714.752 7568.591 Q 6713.881 7569.870 6713.753 7572.077 Q 6713.625 7574.285 6713.708 7575.669 Q 6713.791 7577.054 6714.389 7577.903 Q 6714.987 7578.753 6716.435 7579.305 Q 6717.882 7579.857 6719.285 7579.350 Q 6720.688 7578.843 6722.123 7577.383 Q 6723.558 7575.922 6724.115 7573.884 Q 6724.673 7571.847 6724.734 7570.227 Q 6724.796 7568.606 6724.377 7567.762 Q 6723.958 7566.918 6722.714 7566.428 Q 6721.469 7565.938 6720.316 7565.844 Q 6719.165 7565.749 6718.202 7566.775 Q 6717.239 7567.802 6717.000 7568.779 Q 6716.760 7569.756 6716.672 7570.119 "></path>
    <path id="STROKE_2eab5910-f0b6-41c2-a916-fde73dfa0cba" opacity="1.000" fill="none" stroke="#fc6932" stroke-width="3.400" stroke-opacity="1.000" stroke-linecap="round" stroke-linejoin="round" d="M 6732.221 7568.273 Q 6732.180 7567.488 6732.150 7567.607 Q 6732.138 7567.689 6731.939 7566.374 Q 6731.484 7565.529 6734.419 7578.860 Q 6735.064 7578.705 6735.047 7578.760 Q 6735.029 7578.816 6736.348 7576.477 Q 6737.666 7574.137 6742.694 7564.528 Q 6742.962 7565.208 6742.853 7576.698 Q 6743.695 7577.271 6746.109 7573.019 Q 6748.524 7568.767 6752.861 7564.528 Q 6753.834 7564.523 6751.761 7578.860 Q 6751.500 7578.522 6752.009 7576.997 Q 6752.518 7575.472 6752.658 7575.169 "></path>
    <path id="STROKE_08f04490-0fdd-46e5-997f-750a92ac8e63" opacity="1.000" fill="none" stroke="#e85764" stroke-width="3.400" stroke-opacity="1.000" stroke-linecap="round" stroke-linejoin="round" d="M 6825.071 7571.979 Q 6824.234 7572.188 6828.296 7571.862 Q 6832.357 7571.536 6834.641 7571.525 Q 6836.924 7571.515 6837.915 7571.378 Q 6838.906 7571.241 6840.078 7571.959 Q 6841.250 7572.678 6840.785 7574.094 Q 6840.320 7575.510 6838.736 7577.544 Q 6837.152 7579.579 6835.856 7581.468 Q 6834.560 7583.357 6834.051 7584.428 Q 6833.542 7585.499 6833.383 7586.839 Q 6833.224 7588.180 6833.522 7588.208 Q 6833.821 7588.235 6834.023 7588.314 "></path>
    <path id="STROKE_8d66932e-2a03-41fd-b469-ca319bc7e134" opacity="1.000" fill="none" stroke="#e85764" stroke-width="3.400" stroke-opacity="1.000" stroke-linecap="round" stroke-linejoin="round" d="M 6827.094 7581.208 Q 6826.458 7580.459 6834.229 7579.993 Q 6842.000 7579.526 6842.501 7579.414 "></path>
    <path id="STROKE_be73a84c-4da0-40b2-b367-bbd0b13f7eab" opacity="1.000" fill="none" stroke="#e85764" stroke-width="3.400" stroke-opacity="1.000" stroke-linecap="round" stroke-linejoin="round" d="M 6852.738 7575.222 Q 6852.654 7575.326 6852.232 7575.181 Q 6851.811 7575.036 6850.778 7575.527 Q 6849.745 7576.019 6849.014 7577.991 Q 6848.283 7579.963 6848.087 7581.435 Q 6847.892 7582.907 6847.879 7584.114 Q 6847.867 7585.322 6848.561 7586.209 Q 6849.255 7587.097 6851.118 7587.331 Q 6852.982 7587.566 6854.646 7586.330 Q 6856.309 7585.094 6857.146 7583.115 Q 6857.984 7581.136 6858.116 7579.801 Q 6858.249 7578.467 6858.170 7577.342 Q 6858.092 7576.218 6856.076 7575.596 Q 6854.060 7574.974 6852.573 7575.175 Q 6851.086 7575.375 6850.137 7576.178 Q 6849.188 7576.981 6849.411 7578.003 Q 6849.633 7579.025 6849.889 7579.309 "></path>
    <path id="STROKE_ea49e07f-6720-4799-968f-b54ee64ad7c3" opacity="1.000" fill="none" stroke="#e85764" stroke-width="3.400" stroke-opacity="1.000" stroke-linecap="round" stroke-linejoin="round" d="M 6865.085 7574.878 Q 6863.600 7574.512 6862.586 7576.847 Q 6861.572 7579.182 6861.305 7580.996 Q 6861.037 7582.810 6861.152 7583.813 Q 6861.267 7584.816 6861.346 7585.044 Q 6861.426 7585.272 6861.748 7585.513 Q 6862.070 7585.753 6862.436 7585.884 Q 6862.801 7586.015 6863.097 7586.015 Q 6863.394 7586.014 6863.721 7586.021 Q 6864.047 7586.028 6865.293 7585.349 Q 6866.538 7584.669 6867.929 7583.468 Q 6869.319 7582.267 6870.458 7580.900 Q 6871.597 7579.535 6871.948 7578.301 Q 6872.300 7577.067 6871.774 7576.051 Q 6871.248 7575.035 6869.356 7574.764 Q 6867.466 7574.493 6865.673 7574.857 Q 6863.880 7575.222 6863.625 7575.393 "></path>
    <path id="STROKE_f92238e3-0a7f-4967-b410-2ad16e0a62bc" opacity="1.000" fill="none" stroke="#e85764" stroke-width="3.400" stroke-opacity="1.000" stroke-linecap="round" stroke-linejoin="round" d="M 6878.101 7573.758 Q 6878.101 7573.758 6877.822 7573.657 Q 6877.544 7573.556 6877.688 7573.600 Q 6877.626 7573.600 6877.512 7573.600 Q 6877.395 7573.722 6877.458 7576.811 Q 6877.521 7579.898 6877.470 7581.436 Q 6877.419 7582.973 6877.783 7584.080 Q 6878.146 7585.187 6878.397 7585.373 Q 6878.647 7585.559 6878.569 7585.444 Q 6878.490 7585.330 6878.727 7585.636 Q 6878.963 7585.942 6880.153 7584.042 Q 6881.343 7582.142 6882.897 7578.431 Q 6884.453 7574.720 6886.394 7570.963 Q 6887.070 7571.468 6887.044 7583.449 Q 6887.808 7583.646 6890.122 7580.404 Q 6892.436 7577.162 6893.864 7575.181 Q 6895.292 7573.200 6896.991 7572.031 Q 6897.708 7572.342 6896.815 7583.396 Q 6896.785 7583.145 6896.857 7582.987 Q 6896.930 7582.829 6897.044 7582.605 "></path>
    <path id="STROKE_30a00b7a-ae96-4938-9d5e-828edb910880" opacity="1.000" fill="none" stroke="#e85764" stroke-width="3.400" stroke-opacity="1.000" stroke-linecap="round" stroke-linejoin="round" d="M 6831.104 7608.422 Q 6830.080 7608.421 6830.269 7608.421 Q 6829.496 7608.421 6829.547 7608.421 Q 6828.135 7608.935 6828.422 7609.008 Q 6826.910 7609.411 6826.394 7614.894 Q 6825.876 7620.376 6825.972 7623.471 Q 6826.068 7626.565 6826.249 7628.341 Q 6826.430 7630.117 6826.817 7631.421 Q 6827.205 7632.724 6827.604 7634.118 Q 6828.003 7635.511 6829.208 7637.048 Q 6830.414 7638.585 6831.687 7638.801 Q 6832.959 7639.018 6833.461 7639.103 "></path>
    <path id="STROKE_6ee9dbb6-7c31-453e-8d2b-e9b9b0731c25" opacity="1.000" fill="none" stroke="#e85764" stroke-width="3.400" stroke-opacity="1.000" stroke-linecap="round" stroke-linejoin="round" d="M 6842.783 7615.647 Q 6842.783 7615.647 6842.783 7615.660 Q 6842.783 7615.673 6842.783 7615.700 Q 6842.693 7616.997 6842.730 7616.768 Q 6842.752 7617.745 6842.805 7622.551 Q 6842.857 7627.357 6842.932 7632.221 Q 6843.201 7632.529 6845.154 7627.226 Q 6847.107 7621.921 6850.302 7617.097 Q 6850.469 7617.236 6850.667 7617.770 Q 6850.865 7618.304 6851.067 7618.719 "></path>
    <path id="STROKE_d6ce006a-f0db-49d6-aede-4fd10346d5e9" opacity="1.000" fill="none" stroke="#e85764" stroke-width="3.400" stroke-opacity="1.000" stroke-linecap="round" stroke-linejoin="round" d="M 6856.027 7624.877 Q 6855.989 7624.390 6856.168 7626.366 Q 6856.473 7626.500 6857.545 7626.663 Q 6858.617 7626.827 6860.403 7626.279 Q 6862.189 7625.732 6863.054 7625.039 Q 6863.918 7624.345 6864.390 7623.758 Q 6864.861 7623.170 6865.017 7622.688 Q 6865.173 7622.206 6865.159 7621.266 Q 6865.146 7620.325 6863.511 7620.036 Q 6861.876 7619.747 6860.529 7620.039 Q 6859.181 7620.330 6857.833 7621.939 Q 6856.486 7623.548 6855.842 7625.280 Q 6855.198 7627.013 6855.100 7628.586 Q 6855.000 7630.160 6855.212 7631.198 Q 6855.424 7632.237 6855.943 7632.648 Q 6856.463 7633.059 6857.674 7633.028 Q 6858.885 7632.999 6859.439 7632.946 "></path>
    <path id="STROKE_3b014dc8-9dd7-4dc8-845b-90e232ea01c5" opacity="1.000" fill="none" stroke="#e85764" stroke-width="3.400" stroke-opacity="1.000" stroke-linecap="round" stroke-linejoin="round" d="M 6875.199 7621.581 Q 6874.920 7620.827 6870.362 7620.038 Q 6869.813 7620.286 6869.506 7623.083 Q 6869.199 7625.879 6869.279 7627.782 Q 6869.358 7629.685 6869.801 7630.542 Q 6870.243 7631.400 6871.762 7631.504 Q 6873.280 7631.608 6874.972 7630.173 Q 6876.664 7628.737 6878.012 7626.988 Q 6879.359 7625.238 6880.844 7622.008 Q 6882.329 7618.778 6882.401 7612.759 Q 6881.333 7612.186 6880.169 7616.168 Q 6879.004 7620.150 6878.452 7623.429 Q 6877.899 7626.707 6877.854 7628.200 Q 6877.807 7629.692 6877.893 7630.635 Q 6877.979 7631.578 6878.138 7631.873 Q 6878.297 7632.168 6878.196 7632.111 Q 6878.094 7632.055 6879.106 7633.111 Q 6880.118 7634.168 6882.518 7632.351 Q 6884.917 7630.533 6885.470 7630.084 "></path>
    <path id="STROKE_fb7d8f7f-2490-48c4-a58e-8fd621b78eee" opacity="1.000" fill="none" stroke="#e85764" stroke-width="3.090" stroke-opacity="1.000" stroke-linecap="round" stroke-linejoin="round" d="M 6892.243 7604.282 Q 6892.242 7604.281 6892.705 7604.047 Q 6893.167 7603.813 6892.963 7604.004 Q 6895.595 7605.395 6896.752 7611.460 Q 6897.910 7617.525 6897.565 7622.672 Q 6897.222 7627.818 6896.027 7632.328 Q 6894.833 7636.838 6894.158 7638.668 Q 6893.483 7640.498 6893.233 7641.663 Q 6892.984 7642.828 6891.398 7642.999 Q 6891.127 7642.532 6890.911 7641.546 Q 6890.694 7640.560 6890.554 7640.276 "></path>
    <path id="STROKE_424d9e83-defa-40ce-9ed6-c253fc3df138" opacity="1.000" fill="none" stroke="#bd8ae6" stroke-width="3.307" stroke-opacity="1.000" stroke-linecap="round" stroke-linejoin="round" d="M 6399.393 7597.647 Q 6399.387 7596.729 6399.366 7596.932 Q 6398.650 7596.244 6398.376 7596.118 Q 6398.102 7595.991 6396.826 7598.620 Q 6395.550 7601.249 6394.700 7604.574 Q 6393.850 7607.899 6393.540 7612.566 Q 6393.230 7617.233 6393.354 7620.508 Q 6393.477 7623.783 6393.960 7625.995 Q 6394.442 7628.207 6395.383 7629.646 Q 6396.324 7631.084 6396.882 7631.282 Q 6397.439 7631.479 6397.652 7631.477 Q 6397.865 7631.475 6397.710 7631.482 Q 6397.556 7631.490 6398.443 7631.489 Q 6399.330 7631.488 6399.745 7631.024 Q 6400.161 7630.561 6400.376 7630.342 Q 6400.591 7630.124 6401.077 7629.313 Q 6401.562 7628.503 6401.788 7628.132 "></path>
    <path id="STROKE_947e4d1c-42c5-4973-8c19-b87796c302d8" opacity="1.000" fill="none" stroke="#bd8ae6" stroke-width="3.400" stroke-opacity="1.000" stroke-linecap="round" stroke-linejoin="round" d="M 6400.708 7609.968 Q 6400.708 7608.768 6400.708 7609.138 Q 6400.708 7609.078 6400.708 7609.050 Q 6401.986 7610.798 6401.682 7610.256 Q 6401.377 7609.714 6402.673 7613.238 Q 6403.968 7616.762 6404.439 7618.667 Q 6404.911 7620.571 6405.370 7621.718 Q 6405.829 7622.864 6406.313 7623.546 Q 6406.798 7624.229 6407.271 7624.258 Q 6407.744 7624.287 6408.046 7623.895 Q 6408.348 7623.501 6408.427 7623.222 Q 6408.506 7622.942 6409.387 7619.675 Q 6410.267 7616.408 6410.847 7612.402 Q 6411.428 7608.396 6411.508 7608.308 "></path>
    <path id="STROKE_1b2ef090-6d8e-4e0c-b214-fb63c4c9ee25" opacity="1.000" fill="none" stroke="#bd8ae6" stroke-width="3.400" stroke-opacity="1.000" stroke-linecap="round" stroke-linejoin="round" d="M 6418.151 7624.002 Q 6417.599 7624.220 6418.419 7620.920 Q 6419.240 7617.620 6419.411 7617.309 "></path>
    <circle id="STROKE_64039902-7fff-4d32-8916-202652a5ceaf" opacity="1.000" fill="#bd8ae6" stroke="#bd8ae6" stroke-width="0.1" stroke-opacity="1.000" fill-opacity="1.000" cx="6417.125" cy="7609.968" r="1.700"></circle>
    <path id="STROKE_19f22328-34c9-468c-b073-35b03d5a5c9d" opacity="1.000" fill="none" stroke="#bd8ae6" stroke-width="3.400" stroke-opacity="1.000" stroke-linecap="round" stroke-linejoin="round" d="M 6427.926 7609.914 Q 6427.033 7610.334 6427.188 7610.258 Q 6426.277 7611.067 6425.575 7612.068 Q 6424.874 7613.070 6424.678 7615.721 Q 6424.483 7618.372 6424.506 7619.927 Q 6424.530 7621.481 6424.841 7622.263 Q 6425.152 7623.045 6425.939 7623.754 Q 6426.727 7624.463 6428.638 7624.562 Q 6430.549 7624.661 6431.979 7623.412 Q 6433.409 7622.164 6434.322 7620.660 Q 6435.235 7619.157 6435.353 7617.557 Q 6435.470 7615.956 6435.397 7614.583 Q 6435.326 7613.209 6434.359 7612.360 Q 6433.393 7611.510 6432.128 7611.316 Q 6430.864 7611.122 6430.214 7611.962 Q 6429.564 7612.802 6429.420 7613.059 "></path>
    <path id="STROKE_023205ac-e31b-4e12-bb2c-4d6f7c22e0dd" opacity="1.000" fill="none" stroke="#bd8ae6" stroke-width="3.400" stroke-opacity="1.000" stroke-linecap="round" stroke-linejoin="round" d="M 6440.222 7605.218 Q 6440.285 7605.957 6440.059 7610.506 Q 6439.832 7615.055 6440.167 7622.889 Q 6440.894 7623.316 6441.431 7622.762 Q 6441.968 7622.208 6442.346 7621.776 "></path>
    <path id="STROKE_75693e73-204e-418e-a535-42b69dc2f2ef" opacity="1.000" fill="none" stroke="#bd8ae6" stroke-width="3.400" stroke-opacity="1.000" stroke-linecap="round" stroke-linejoin="round" d="M 6446.630 7615.757 Q 6446.630 7615.757 6447.032 7616.002 Q 6447.434 7616.247 6447.287 7616.068 Q 6448.429 7616.114 6448.286 7616.095 Q 6448.779 7616.657 6451.373 7615.178 Q 6453.967 7613.698 6455.348 7612.854 Q 6456.728 7612.009 6457.268 7611.615 Q 6457.808 7611.221 6457.794 7610.849 Q 6457.781 7610.477 6457.800 7610.062 Q 6457.819 7609.646 6456.849 7609.485 Q 6455.879 7609.325 6455.859 7609.297 Q 6455.839 7609.269 6454.368 7609.160 Q 6452.896 7609.051 6451.667 7609.049 Q 6450.438 7609.047 6449.448 7609.772 Q 6448.458 7610.497 6448.018 7611.170 Q 6447.577 7611.842 6447.121 7613.497 Q 6446.665 7615.151 6447.014 7616.395 Q 6447.364 7617.638 6447.847 7618.350 Q 6448.331 7619.062 6449.798 7619.616 Q 6451.266 7620.170 6451.725 7620.346 "></path>
    <path id="STROKE_7f314d42-c60a-4824-abad-ff48058ab5d5" opacity="1.000" fill="none" stroke="#bd8ae6" stroke-width="3.400" stroke-opacity="1.000" stroke-linecap="round" stroke-linejoin="round" d="M 6467.278 7604.003 Q 6467.278 7604.003 6467.265 7603.990 Q 6467.251 7603.977 6467.044 7603.896 Q 6466.563 7603.229 6466.072 7622.802 Q 6466.297 7622.862 6466.468 7622.923 "></path>
    <path id="STROKE_7bbc9c44-75a4-48eb-9b5a-e8b7dc321d3a" opacity="1.000" fill="none" stroke="#bd8ae6" stroke-width="3.400" stroke-opacity="1.000" stroke-linecap="round" stroke-linejoin="round" d="M 6461.445 7612.775 Q 6461.221 7612.526 6461.857 7613.053 Q 6462.494 7613.579 6466.238 7613.579 Q 6469.982 7613.579 6472.991 7613.008 Q 6476.000 7612.438 6476.711 7612.208 "></path>
    <path id="STROKE_0c14aec3-499c-414d-bad6-5024696f3441" opacity="1.000" fill="none" stroke="#bd8ae6" stroke-width="3.165" stroke-opacity="1.000" stroke-linecap="round" stroke-linejoin="round" d="M 6478.421 7593.815 Q 6478.421 7593.815 6478.801 7593.815 Q 6479.180 7593.815 6479.142 7593.815 Q 6480.280 7593.905 6481.978 7596.739 Q 6483.675 7599.572 6484.244 7605.529 Q 6484.812 7611.486 6484.552 7615.943 Q 6484.292 7620.400 6483.995 7622.353 Q 6483.699 7624.305 6483.133 7626.947 Q 6482.567 7629.589 6481.955 7631.659 Q 6481.343 7633.729 6478.574 7636.499 Q 6478.302 7636.459 6478.420 7635.362 Q 6478.538 7634.266 6478.655 7633.867 "></path>
  </g>
</svg>