<?xml version="1.0" encoding="UTF-8" standalone="yes"?>
<svg xmlns="http://www.w3.org/2000/svg" xmlns:xlink="http://www.w3.org/1999/xlink" width="722.156pt" height="338.048pt" version="1.1" viewBox="-411.078 291.681 722.156 338.048">
  <!--
	Exported with Concepts: Smarter Sketching
	Version: 1059 on iOS 15.4
	https://concepts.app/
	-->
  <title>Untitled 1</title>
  <desc>Drawing exported from Concepts: Smarter Sketching</desc>
  <defs></defs>
  <g id="Pen" opacity="1.000">
    <path id="STROKE_7e8204b4-ee2c-4059-b3c7-25687435a595" opacity="0.510" fill="none" stroke="#f66640" stroke-width="4.000" stroke-opacity="1.000" stroke-linecap="round" stroke-linejoin="round" stroke-dasharray="0.400,6.000" d="M -300.000 368.000 L -300.000 368.406 L -300.000 368.000 L -300.000 368.812 L -300.000 368.000 Q -300.000 368.408 -300.000 378.000 Q -300.000 385.062 -300.000 388.000 Q -300.000 394.953 -300.000 398.000 Q -300.000 404.109 -300.000 408.000 Q -300.000 413.859 -300.000 418.000 Q -300.000 423.078 -300.000 428.000 Q -300.000 433.766 -300.000 438.000 Q -300.000 444.250 -300.000 448.000 Q -300.000 453.672 -300.000 458.000 Q -300.000 463.625 -300.000 468.000 Q -300.000 473.172 -300.000 478.000 Q -300.000 483.000 -300.000 488.000 Q -300.000 493.875 -300.000 498.000 Q -300.000 503.234 -300.000 508.000 Q -300.000 514.391 -300.000 518.000 Q -300.000 523.875 -300.000 528.000 Q -300.000 533.156 -300.000 538.000 Q -300.000 543.516 -300.000 548.000 Q -300.000 553.594 -300.000 558.000 Q -300.000 563.016 -300.000 568.000 "></path>
    <path id="STROKE_d1f44a1b-2ca8-420f-befb-88cef5b80900" opacity="0.510" fill="none" stroke="#f66640" stroke-width="4.000" stroke-opacity="1.000" stroke-linecap="round" stroke-linejoin="round" stroke-dasharray="0.400,6.000" d="M -200.000 368.000 Q -200.000 369.672 -200.000 370.000 L -200.000 368.000 Q -200.000 370.734 -200.000 378.000 Q -200.000 384.203 -200.000 388.000 Q -200.000 393.750 -200.000 398.000 Q -200.000 404.438 -200.000 408.000 Q -200.000 413.328 -200.000 418.000 Q -200.000 423.547 -200.000 428.000 Q -200.000 434.094 -200.000 438.000 Q -200.000 443.922 -200.000 448.000 Q -200.000 454.797 -200.000 458.000 Q -200.000 464.359 -200.000 468.000 Q -200.000 474.438 -200.000 478.000 Q -200.000 483.125 -200.000 488.000 Q -200.000 494.016 -200.000 498.000 Q -200.000 504.094 -200.000 508.000 Q -200.000 513.656 -200.000 518.000 Q -200.000 523.672 -200.000 528.000 Q -200.000 533.359 -200.000 538.000 Q -200.000 543.109 -200.000 548.000 Q -200.000 553.000 -200.000 558.000 Q -200.000 563.219 -200.000 568.000 Q -200.000 573.031 -200.000 578.000 L -200.000 568.000 "></path>
    <path id="STROKE_8d937cef-9d3e-496e-9a50-4529d3d843bf" opacity="0.510" fill="none" stroke="#f66640" stroke-width="4.000" stroke-opacity="1.000" stroke-linecap="round" stroke-linejoin="round" stroke-dasharray="0.400,6.000" d="M -100.000 368.000 L -100.000 378.000 Q -100.000 383.344 -100.000 388.000 Q -100.000 393.094 -100.000 398.000 Q -100.000 403.703 -100.000 408.000 Q -100.000 413.656 -100.000 418.000 Q -100.000 423.156 -100.000 428.000 Q -100.000 433.234 -100.000 438.000 Q -100.000 444.125 -100.000 448.000 Q -100.000 453.016 -100.000 458.000 Q -100.000 463.156 -100.000 468.000 Q -100.000 473.312 -100.000 478.000 Q -100.000 483.266 -100.000 488.000 Q -100.000 494.281 -100.000 498.000 Q -100.000 503.234 -100.000 508.000 Q -100.000 513.984 -100.000 518.000 Q -100.000 523.672 -100.000 528.000 Q -100.000 533.031 -100.000 538.000 Q -100.000 543.969 -100.000 548.000 Q -100.000 553.469 -100.000 558.000 Q -100.000 563.078 -100.000 568.000 Q -100.000 564.812 -100.000 564.281 L -100.000 568.000 "></path>
    <path id="STROKE_03885db1-6f8d-4f82-984a-9991f9757448" opacity="1.000" fill="none" stroke="#f3ba38" stroke-width="3.400" stroke-opacity="1.000" stroke-linecap="round" stroke-linejoin="round" d="M -400.216 419.562 Q -399.696 419.886 -399.778 419.867 Q -399.601 419.683 -399.674 420.703 Q -399.981 420.804 -399.283 418.752 Q -398.584 416.699 -398.080 415.359 Q -397.575 414.018 -397.354 413.647 Q -397.132 413.276 -394.895 410.034 Q -392.657 406.792 -391.517 404.491 Q -390.377 402.190 -389.222 400.042 Q -388.067 397.893 -386.401 395.028 Q -384.735 392.164 -383.711 390.433 Q -382.686 388.702 -381.539 387.467 Q -380.392 386.232 -377.837 383.431 Q -375.281 380.629 -372.329 379.015 Q -369.376 377.402 -366.984 376.703 Q -364.592 376.003 -361.918 374.956 Q -359.245 373.909 -357.419 373.553 Q -355.594 373.197 -352.041 374.535 Q -348.488 375.873 -345.066 377.727 Q -341.645 379.581 -339.617 381.109 Q -337.590 382.637 -336.644 383.430 Q -335.697 384.223 -335.011 384.698 Q -334.325 385.172 -332.504 385.848 Q -330.683 386.523 -329.992 386.931 Q -329.300 387.339 -328.326 388.242 Q -327.353 389.145 -326.199 390.725 Q -325.046 392.306 -324.340 393.973 Q -323.634 395.641 -323.319 396.425 Q -323.004 397.209 -322.481 398.045 Q -321.959 398.881 -321.556 399.554 Q -321.152 400.227 -321.064 400.312 Q -320.976 400.397 -321.001 400.353 Q -321.026 400.310 -321.034 400.325 Q -321.042 400.341 -320.287 401.210 Q -319.531 402.078 -317.324 404.271 Q -315.118 406.464 -313.514 407.744 Q -311.911 409.024 -310.874 409.693 Q -309.837 410.362 -309.432 410.697 Q -309.028 411.033 -309.069 410.989 Q -309.110 410.945 -309.108 410.973 Q -309.106 411.001 -309.003 411.027 Q -308.900 411.054 -307.817 411.947 Q -306.734 412.840 -306.296 413.336 Q -305.858 413.831 -305.525 414.220 Q -305.193 414.609 -305.063 414.772 Q -304.932 414.936 -305.003 414.839 Q -305.074 414.742 -304.756 415.165 Q -304.439 415.589 -304.234 415.877 Q -304.029 416.165 -303.981 416.245 Q -303.933 416.325 -303.967 416.290 Q -304.000 416.255 -303.447 416.971 Q -302.894 417.687 -302.528 418.254 Q -302.162 418.820 -301.756 419.464 Q -301.350 420.107 -300.985 420.650 Q -300.620 421.193 -300.800 420.918 Q -300.981 420.644 -300.172 422.088 Q -299.363 423.533 -296.902 425.621 Q -294.442 427.709 -293.235 428.616 Q -292.027 429.524 -290.963 430.452 Q -289.899 431.381 -289.637 431.605 Q -289.374 431.829 -288.047 432.534 Q -286.720 433.240 -284.449 435.224 Q -282.178 437.208 -281.075 438.286 Q -279.972 439.364 -279.245 439.992 Q -278.518 440.619 -276.015 442.187 Q -273.512 443.755 -272.431 444.056 Q -271.350 444.357 -268.064 444.763 Q -264.778 445.170 -260.344 445.535 Q -255.909 445.900 -252.154 445.813 Q -248.399 445.726 -246.400 445.469 Q -244.401 445.212 -242.979 444.766 Q -241.557 444.321 -240.201 443.769 Q -238.845 443.216 -236.383 442.132 Q -233.920 441.047 -229.477 439.501 Q -225.035 437.954 -223.129 437.262 Q -221.224 436.571 -219.832 435.888 Q -218.440 435.204 -217.169 434.445 Q -215.898 433.685 -215.076 433.019 Q -214.254 432.352 -213.760 431.967 Q -213.267 431.581 -212.489 431.005 Q -211.712 430.430 -211.662 430.376 Q -211.612 430.323 -211.758 430.490 Q -211.905 430.657 -209.284 428.776 Q -206.663 426.894 -205.473 425.812 Q -204.284 424.729 -203.657 424.151 Q -203.030 423.573 -202.925 423.362 Q -202.820 423.150 -202.444 422.585 Q -202.068 422.020 -201.916 421.777 Q -201.765 421.535 -201.521 421.169 Q -201.277 420.804 -201.430 420.976 Q -201.582 421.149 -200.942 420.313 Q -200.303 419.477 -199.168 418.504 Q -198.034 417.531 -196.713 415.794 Q -195.392 414.058 -194.661 413.103 Q -193.929 412.149 -193.570 411.744 Q -193.211 411.340 -192.878 410.945 Q -192.545 410.550 -192.241 410.185 Q -191.936 409.820 -192.009 409.885 Q -192.083 409.949 -191.928 409.922 Q -191.773 409.895 -189.184 406.277 Q -186.595 402.659 -183.854 399.514 Q -181.112 396.370 -179.313 394.874 Q -177.513 393.379 -175.735 391.929 Q -173.957 390.479 -173.177 389.925 Q -172.398 389.371 -171.892 388.997 Q -171.385 388.623 -171.213 388.519 Q -171.040 388.415 -171.246 388.578 Q -171.451 388.741 -168.299 386.437 Q -165.148 384.132 -162.306 382.708 Q -159.463 381.284 -158.156 380.902 Q -156.849 380.519 -156.226 380.276 Q -155.603 380.033 -155.381 379.964 Q -155.159 379.896 -153.979 379.501 Q -152.799 379.106 -152.171 378.943 Q -151.542 378.780 -150.950 378.683 Q -150.358 378.587 -149.622 378.468 Q -148.886 378.349 -148.370 378.279 Q -147.853 378.209 -147.040 378.228 Q -146.227 378.247 -145.260 378.252 Q -144.292 378.258 -141.899 378.238 Q -139.506 378.219 -137.866 378.259 Q -136.225 378.300 -135.800 378.226 Q -135.374 378.152 -133.797 378.725 Q -132.219 379.299 -131.516 379.628 Q -130.813 379.956 -130.492 380.109 Q -130.171 380.263 -130.108 380.302 Q -130.045 380.340 -129.293 380.748 Q -128.541 381.155 -128.757 380.973 Q -128.974 380.792 -127.690 381.782 Q -126.406 382.773 -125.669 383.378 Q -124.931 383.983 -124.442 384.495 Q -123.953 385.008 -123.471 385.473 Q -122.989 385.937 -122.993 385.928 Q -122.997 385.919 -123.040 385.884 Q -123.084 385.849 -123.066 385.865 Q -123.047 385.880 -122.605 386.249 Q -122.163 386.617 -121.906 386.831 Q -121.649 387.045 -121.175 387.454 Q -120.702 387.863 -120.726 387.880 Q -120.750 387.896 -120.585 387.926 Q -120.421 387.957 -118.175 390.104 Q -115.929 392.252 -114.912 393.351 Q -113.895 394.450 -113.188 395.455 Q -112.481 396.459 -112.155 396.810 Q -111.830 397.161 -111.792 397.219 Q -111.753 397.277 -111.679 397.352 Q -111.605 397.428 -111.608 397.391 Q -111.611 397.354 -111.100 398.005 Q -110.589 398.656 -110.558 398.736 Q -110.528 398.816 -110.189 399.326 Q -109.851 399.836 -109.848 399.836 Q -109.844 399.836 -109.857 399.811 Q -109.870 399.786 -109.850 399.841 Q -109.829 399.896 -109.866 399.813 Q -109.904 399.731 -109.655 400.195 Q -109.407 400.659 -109.314 400.843 Q -109.221 401.026 -109.195 401.063 Q -109.169 401.099 -109.049 401.330 Q -108.929 401.562 -108.776 401.876 Q -108.623 402.189 -108.364 402.683 Q -108.105 403.177 -108.035 403.277 Q -107.966 403.376 -107.980 403.349 Q -107.994 403.321 -107.534 404.158 Q -107.073 404.995 -106.469 405.931 Q -105.864 406.866 -105.424 407.452 Q -104.984 408.038 -104.714 408.457 Q -104.444 408.876 -104.285 409.130 Q -104.126 409.384 -104.193 409.283 Q -104.259 409.181 -103.906 409.684 Q -103.554 410.187 -103.044 410.842 Q -102.535 411.496 -102.269 411.814 Q -102.003 412.132 -102.000 412.137 Q -101.998 412.141 -101.987 412.150 Q -101.977 412.160 -101.615 412.589 Q -101.253 413.018 -101.206 413.079 Q -101.159 413.139 -101.203 413.082 Q -101.248 413.025 -101.014 413.303 Q -100.779 413.582 -100.521 413.858 Q -100.264 414.134 -99.981 414.413 Q -99.698 414.693 -99.408 414.979 Q -99.118 415.265 -99.086 415.265 Q -99.054 415.264 -99.087 415.247 Q -99.119 415.231 -98.435 415.772 Q -97.751 416.313 -98.052 416.057 Q -98.354 415.802 -97.548 416.578 Q -97.641 416.547 -97.735 416.516 "></path>
    <path id="STROKE_05009615-9ca7-41aa-9c0f-b36f8fe3fe83" opacity="1.000" fill="none" stroke="#f3ba38" stroke-width="3.400" stroke-opacity="1.000" stroke-linecap="round" stroke-linejoin="round" d="M -399.153 524.203 Q -400.376 524.305 -400.008 524.266 Q -400.143 524.305 -400.612 524.531 Q -400.560 522.001 -396.800 515.493 Q -393.040 508.984 -390.845 506.074 Q -388.650 503.164 -387.873 501.416 Q -387.097 499.668 -386.193 497.973 Q -385.289 496.277 -383.912 494.464 Q -382.535 492.652 -381.470 491.731 Q -380.406 490.811 -377.372 487.893 Q -374.337 484.975 -372.546 483.286 Q -370.754 481.597 -369.659 480.972 Q -368.565 480.347 -367.600 479.915 Q -366.635 479.483 -366.205 479.243 Q -365.775 479.004 -365.430 478.762 Q -365.084 478.521 -364.275 478.116 Q -363.466 477.711 -363.931 477.924 Q -364.396 478.137 -361.937 477.102 Q -359.479 476.067 -357.208 475.611 Q -354.937 475.155 -351.166 476.180 Q -347.395 477.205 -345.451 477.735 Q -343.508 478.265 -341.966 478.881 Q -340.423 479.497 -338.823 480.527 Q -337.223 481.557 -335.755 482.424 Q -334.288 483.292 -334.149 483.341 Q -334.011 483.389 -332.705 484.226 Q -331.399 485.062 -330.246 485.716 Q -329.092 486.369 -328.169 486.722 Q -327.245 487.075 -326.472 487.420 Q -325.698 487.764 -325.433 487.949 Q -325.168 488.134 -324.933 488.265 Q -324.697 488.396 -324.362 488.600 Q -324.026 488.805 -324.056 488.787 Q -324.085 488.768 -324.150 488.735 Q -324.215 488.701 -323.790 488.944 Q -323.365 489.187 -322.862 489.486 Q -322.360 489.785 -322.239 489.865 Q -322.117 489.945 -322.179 489.904 Q -322.241 489.862 -321.857 490.110 Q -321.473 490.358 -320.988 490.816 Q -320.503 491.274 -320.257 491.561 Q -320.012 491.848 -319.975 491.885 Q -319.938 491.922 -319.683 492.231 Q -319.429 492.541 -319.290 492.708 Q -319.152 492.875 -319.077 492.944 Q -319.003 493.013 -318.634 493.375 Q -318.266 493.738 -318.110 493.881 Q -317.954 494.025 -317.997 493.981 Q -318.039 493.938 -318.028 493.949 Q -318.016 493.960 -317.753 494.180 Q -317.490 494.400 -315.637 495.983 Q -313.784 497.567 -312.944 498.255 Q -312.104 498.944 -311.411 499.540 Q -310.718 500.136 -310.161 500.582 Q -309.605 501.027 -308.787 501.741 Q -307.969 502.456 -307.499 503.044 Q -307.029 503.632 -306.836 503.900 Q -306.643 504.169 -306.230 504.774 Q -305.817 505.379 -305.527 505.935 Q -305.237 506.490 -304.647 507.271 Q -304.057 508.052 -303.450 508.622 Q -302.844 509.192 -302.954 509.126 Q -303.064 509.060 -302.554 509.345 Q -302.043 509.630 -300.398 510.955 Q -298.753 512.279 -297.359 513.752 Q -295.964 515.225 -295.288 515.828 Q -294.612 516.431 -294.162 516.914 Q -293.711 517.398 -293.352 517.770 Q -292.992 518.143 -292.660 518.492 Q -292.328 518.840 -291.984 519.182 Q -291.640 519.525 -291.388 519.875 Q -291.136 520.226 -289.899 521.244 Q -288.663 522.262 -286.404 523.054 Q -284.146 523.847 -281.896 525.785 Q -279.646 527.722 -278.549 528.990 Q -277.451 530.257 -275.778 530.709 Q -274.105 531.162 -272.810 531.995 Q -271.516 532.829 -270.920 533.786 Q -270.324 534.743 -269.890 536.003 Q -269.457 537.263 -268.221 538.727 Q -266.985 540.192 -265.874 540.901 Q -264.762 541.611 -264.047 542.243 Q -263.332 542.876 -262.731 543.548 Q -262.131 544.220 -261.899 544.686 Q -261.668 545.151 -260.537 546.415 Q -259.407 547.679 -258.388 548.180 Q -257.369 548.680 -257.002 548.813 Q -256.634 548.945 -256.454 549.045 Q -256.273 549.145 -256.431 549.042 Q -256.589 548.939 -255.495 549.399 Q -254.400 549.860 -251.557 551.245 Q -248.714 552.630 -246.384 553.403 Q -244.055 554.177 -240.750 554.238 Q -237.446 554.300 -233.711 553.775 Q -229.975 553.251 -228.471 552.780 Q -226.966 552.310 -224.677 551.298 Q -222.387 550.287 -220.565 548.953 Q -218.743 547.619 -217.875 546.881 Q -217.007 546.143 -216.704 545.874 Q -216.400 545.605 -216.210 545.420 Q -216.019 545.235 -214.333 543.763 Q -212.647 542.292 -211.246 540.578 Q -209.845 538.865 -208.325 536.282 Q -206.805 533.699 -203.827 531.281 Q -200.849 528.863 -197.862 526.348 Q -194.875 523.834 -192.541 521.119 Q -190.207 518.404 -188.933 516.574 Q -187.660 514.745 -186.894 513.887 Q -186.128 513.028 -185.593 512.446 Q -185.059 511.865 -185.051 511.850 Q -185.043 511.835 -184.832 511.727 Q -184.621 511.619 -183.341 510.050 Q -182.060 508.481 -179.290 505.145 Q -176.521 501.808 -174.450 500.060 Q -172.380 498.311 -170.063 495.901 Q -167.747 493.490 -164.390 491.253 Q -161.033 489.016 -156.630 486.517 Q -152.227 484.019 -149.957 482.643 Q -147.687 481.266 -145.523 480.595 Q -143.359 479.924 -140.183 479.516 Q -137.007 479.109 -135.087 479.192 Q -133.168 479.276 -132.274 479.497 Q -131.380 479.719 -129.290 479.959 Q -127.201 480.198 -125.764 480.729 Q -124.328 481.259 -124.009 481.605 Q -123.690 481.950 -123.466 482.103 Q -123.242 482.255 -123.238 482.376 Q -123.234 482.497 -121.253 483.815 Q -119.272 485.132 -117.657 486.217 Q -116.043 487.301 -114.493 488.100 Q -112.944 488.899 -111.893 489.456 Q -110.843 490.012 -107.980 492.067 Q -105.116 494.121 -103.058 496.362 Q -101.000 498.604 -100.135 499.667 Q -99.270 500.730 -97.989 502.177 Q -96.708 503.624 -96.214 504.491 Q -95.720 505.357 -94.171 506.812 Q -94.253 505.585 -94.025 505.390 Q -93.796 505.195 -93.567 504.891 "></path>
    <path id="STROKE_ef82635c-efbc-48de-b0d4-19f454e65fa9" opacity="0.510" fill="none" stroke="#f66640" stroke-width="4.000" stroke-opacity="1.000" stroke-linecap="round" stroke-linejoin="round" stroke-dasharray="0.400,6.000" d="M -400.000 368.000 L -400.000 378.000 Q -400.000 383.051 -400.000 388.000 Q -400.000 393.904 -400.000 398.000 Q -400.000 403.324 -400.000 408.000 Q -400.000 414.051 -400.000 418.000 Q -400.000 425.072 -400.000 428.000 Q -400.000 435.867 -400.000 458.000 Q -400.000 463.119 -400.000 468.000 Q -400.000 474.688 -400.000 478.000 Q -400.000 484.165 -400.000 488.000 Q -400.000 495.018 -400.000 498.000 Q -400.000 504.073 -400.000 508.000 Q -400.000 514.799 -400.000 518.000 Q -400.000 524.108 -400.000 528.000 Q -400.000 533.346 -400.000 538.000 Q -400.000 544.199 -400.000 548.000 Q -400.000 553.802 -400.000 558.000 Q -400.000 563.152 -400.000 568.000 Q -400.000 573.471 -400.000 578.000 Q -400.000 574.244 -400.000 573.106 "></path>
    <path id="STROKE_af5cdaf9-fe1b-4e66-a51c-66b8979e2f61" opacity="1.000" fill="none" stroke="#ff9adf" stroke-width="3.033" stroke-opacity="1.000" stroke-linecap="round" stroke-linejoin="round" d="M -80.279 458.944 Q -81.425 458.944 -80.992 458.944 L -81.028 458.944 Q -81.499 458.993 -72.772 458.133 Q -64.045 457.273 -57.631 457.220 Q -51.217 457.167 -42.368 457.188 Q -42.771 457.493 -43.035 457.109 Q -43.298 456.726 -43.455 456.500 "></path>
    <path id="STROKE_6aba3809-f56c-43f2-b17e-e1234122ee64" opacity="1.000" fill="none" stroke="#ff9adf" stroke-width="2.808" stroke-opacity="1.000" stroke-linecap="round" stroke-linejoin="round" d="M -86.244 471.325 Q -85.238 471.325 -85.483 471.325 Q -84.369 471.325 -84.372 471.325 Q -83.491 471.542 -71.914 471.127 Q -60.336 470.712 -43.419 470.058 Q -43.383 470.130 -43.419 470.474 Q -43.489 470.565 -44.504 470.583 Q -45.520 470.601 -45.749 470.637 "></path>
    <path id="STROKE_50dcd2eb-526d-4fb1-9035-d01c01444297" opacity="1.000" fill="none" stroke="#ff9adf" stroke-width="3.243" stroke-opacity="1.000" stroke-linecap="round" stroke-linejoin="round" d="M -39.925 437.369 Q -40.057 436.337 -40.069 436.383 Q -40.070 437.099 -40.212 434.250 Q -40.395 436.237 -39.946 442.007 Q -39.497 447.776 -39.595 460.124 Q -39.693 472.472 -39.843 478.529 Q -39.993 484.586 -39.944 487.135 Q -39.896 489.684 -39.925 493.324 Q -39.925 493.288 -39.830 492.566 Q -39.734 491.845 -39.543 491.352 "></path>
    <path id="STROKE_ea1acb0c-6821-4aa6-9469-da67f74fabe8" opacity="1.000" fill="none" stroke="#ff9adf" stroke-width="3.400" stroke-opacity="1.000" stroke-linecap="round" stroke-linejoin="round" d="M -42.651 488.913 Q -42.927 488.890 -44.326 488.985 Q -44.283 489.175 -44.456 489.041 Q -44.629 488.907 -44.375 489.230 Q -44.122 489.553 -43.599 490.037 Q -43.076 490.521 -42.620 490.968 Q -42.164 491.414 -42.103 491.751 Q -42.042 492.087 -42.126 491.482 Q -42.210 490.876 -39.997 502.467 Q -39.210 501.894 -39.267 501.894 Q -38.217 501.172 -38.598 501.436 Q -38.392 501.303 -38.190 501.123 Q -37.988 500.943 -37.797 500.710 "></path>
    <path id="STROKE_47aaf873-4521-4075-9f2a-ecad5e23d03c" opacity="1.000" fill="none" stroke="#ff9adf" stroke-width="3.400" stroke-opacity="1.000" stroke-linecap="round" stroke-linejoin="round" d="M -37.414 502.234 Q -37.502 502.268 -37.387 502.128 Q -37.273 501.987 -37.065 501.762 Q -36.857 501.537 -36.441 501.122 Q -36.024 500.707 -36.059 500.785 Q -36.094 500.862 -35.953 500.672 Q -35.811 500.481 -32.877 497.497 Q -29.943 494.513 -25.567 491.027 Q -21.190 487.540 -19.207 486.144 Q -17.225 484.748 -15.006 483.116 Q -12.786 481.484 -11.251 480.034 Q -9.715 478.585 -7.888 476.935 Q -6.061 475.285 -4.823 474.363 Q -3.584 473.441 -2.472 473.298 Q -2.508 473.298 -2.544 473.298 Q -2.544 473.262 -2.580 473.110 Q -2.616 472.957 -2.688 472.688 "></path>
    <path id="STROKE_fa65d589-fc50-4276-bbb7-adcd9925827e" opacity="1.000" fill="none" stroke="#ff9adf" stroke-width="3.400" stroke-opacity="1.000" stroke-linecap="round" stroke-linejoin="round" d="M -1.922 472.168 Q -1.672 472.126 -1.381 471.535 Q -1.089 470.944 -1.874 469.815 Q -2.659 468.685 -3.210 467.923 Q -3.761 467.160 -4.103 466.830 Q -4.446 466.499 -4.556 466.344 Q -4.667 466.188 -4.544 466.317 Q -4.421 466.446 -7.411 464.362 Q -10.401 462.277 -12.054 460.462 Q -13.708 458.647 -15.992 456.177 Q -18.277 453.707 -19.548 452.407 Q -20.818 451.107 -21.362 450.779 Q -21.906 450.452 -23.954 449.282 Q -26.001 448.112 -26.770 447.473 Q -27.539 446.835 -28.036 446.297 Q -28.532 445.760 -29.668 444.915 Q -30.805 444.071 -31.618 443.777 Q -32.432 443.484 -32.644 442.895 Q -32.856 442.307 -32.864 441.526 Q -32.872 440.745 -32.872 440.832 Q -32.872 440.919 -32.855 440.779 Q -32.839 440.640 -33.338 440.270 Q -33.837 439.901 -34.330 439.762 Q -34.823 439.623 -34.861 439.590 Q -34.900 439.556 -34.847 439.541 Q -34.794 439.525 -34.753 439.582 Q -34.712 439.640 -35.445 439.409 Q -36.178 439.179 -36.647 438.552 Q -37.116 437.925 -37.154 437.688 Q -37.193 437.451 -37.185 437.451 Q -37.177 437.452 -37.146 437.678 Q -37.115 437.904 -37.228 437.256 Q -37.342 436.607 -37.414 436.527 "></path>
    <path id="STROKE_edd0b291-2e22-482d-8e03-0651cd8b296c" opacity="1.000" fill="none" stroke="#ff9adf" stroke-width="3.120" stroke-opacity="1.000" stroke-linecap="round" stroke-linejoin="round" d="M -35.740 442.479 Q -35.507 442.435 -36.122 441.260 Q -37.232 441.465 -37.031 441.672 Q -37.057 441.744 -36.986 441.639 Q -36.915 441.534 -37.665 442.498 Q -38.415 443.461 -39.375 446.352 Q -38.298 446.554 -34.903 444.379 Q -34.560 443.510 -36.433 449.704 Q -36.386 450.167 -31.794 447.499 Q -31.566 447.653 -37.976 456.320 Q -37.778 457.266 -27.919 450.081 Q -28.065 450.274 -27.801 450.031 Q -27.537 449.788 -28.877 451.563 Q -30.217 453.339 -35.668 460.820 Q -35.178 461.266 -23.519 452.375 Q -23.930 452.359 -28.007 456.339 Q -32.085 460.318 -34.675 463.587 Q -37.265 466.857 -37.414 469.264 Q -35.865 469.881 -18.496 456.033 Q -18.027 455.456 -22.804 460.030 Q -27.581 464.604 -30.398 467.339 Q -33.215 470.074 -35.092 472.290 Q -36.969 474.506 -37.593 476.776 Q -36.216 478.861 -16.966 461.662 Q -17.152 461.729 -24.407 468.833 Q -31.663 475.938 -38.466 484.682 Q -38.316 485.845 -32.490 481.931 Q -26.663 478.018 -21.798 474.113 Q -16.932 470.207 -12.422 465.696 Q -12.750 465.206 -17.009 469.259 Q -21.268 473.311 -25.611 477.145 Q -29.954 480.979 -37.414 490.509 L -37.378 490.581 Q -36.881 491.354 -30.035 486.294 Q -23.189 481.234 -7.017 466.682 Q -7.628 466.889 -14.603 473.259 Q -21.578 479.629 -26.058 484.140 Q -30.539 488.651 -32.880 491.108 Q -35.221 493.566 -36.051 495.879 Q -35.961 497.166 -29.909 492.321 Q -23.856 487.476 -18.903 483.031 Q -13.950 478.586 -10.580 475.360 Q -10.695 474.019 -24.882 492.714 Q -25.376 493.266 -23.497 490.897 Q -21.617 488.528 -21.008 487.694 "></path>
    <path id="STROKE_46845614-e3fe-49a1-b5e2-79e3b8eb2387" opacity="1.000" fill="none" stroke="#ff9adf" stroke-width="3.304" stroke-opacity="1.000" stroke-linecap="round" stroke-linejoin="round" d="M -76.541 460.210 Q -76.561 460.096 -77.065 459.650 Q -77.569 459.204 -77.514 459.324 Q -77.460 459.445 -77.427 459.177 Q -77.395 458.908 -78.411 459.097 Q -79.428 459.285 -79.755 459.632 Q -80.083 459.980 -80.899 460.635 Q -81.714 461.290 -82.861 462.713 Q -84.008 464.136 -84.650 464.962 Q -85.292 465.789 -85.485 466.417 Q -85.678 467.044 -85.725 467.704 Q -85.643 468.420 -83.000 466.696 Q -80.358 464.971 -71.590 457.933 Q -70.572 457.182 -73.991 460.013 Q -77.411 462.844 -80.104 467.597 Q -80.288 467.741 -78.861 467.650 Q -77.433 467.559 -58.006 455.943 Q -58.199 455.900 -71.518 469.004 Q -69.010 470.630 -50.018 457.539 Q -50.262 457.301 -55.435 462.277 Q -60.607 467.253 -64.774 474.445 Q -63.857 476.495 -41.360 458.077 Q -40.840 456.902 -54.586 471.559 L -54.550 471.630 Q -53.531 471.746 -51.327 470.349 Q -49.123 468.951 -46.046 466.890 Q -42.968 464.830 -39.686 463.867 Q -39.616 463.753 -39.502 464.514 Q -39.387 465.275 -39.232 465.696 "></path>
    <path id="STROKE_3075a2b6-7483-4a5f-a408-23120bb4bce8" opacity="0.510" fill="none" stroke="#f66640" stroke-width="4.000" stroke-opacity="1.000" stroke-linecap="round" stroke-linejoin="round" stroke-dasharray="0.400,6.000" d="M 0.000 368.000 Q 0.000 370.981 0.000 378.000 Q 0.000 384.839 0.000 388.000 Q 0.000 394.359 0.000 398.000 Q 0.000 403.718 0.000 408.000 Q 0.000 415.138 0.000 418.000 Q 0.000 424.730 0.000 428.000 Q 0.000 433.569 0.000 438.000 Q 0.000 443.232 0.000 448.000 Q 0.000 454.115 0.000 458.000 Q 0.000 463.796 0.000 468.000 Q 0.000 474.156 0.000 478.000 Q 0.000 484.109 0.000 488.000 Q 0.000 493.180 0.000 498.000 Q 0.000 504.298 0.000 508.000 Q 0.000 514.336 0.000 518.000 Q 0.000 523.784 0.000 528.000 Q 0.000 534.290 0.000 538.000 Q 0.000 543.272 0.000 548.000 Q 0.000 553.922 0.000 558.000 Q 0.000 563.226 0.000 568.000 Q 0.000 573.499 0.000 578.000 Q 0.000 577.053 0.000 568.000 "></path>
    <path id="STROKE_19a33184-20e1-4b9d-81ba-cd8d4b85f632" opacity="0.510" fill="none" stroke="#f66640" stroke-width="4.000" stroke-opacity="1.000" stroke-linecap="round" stroke-linejoin="round" stroke-dasharray="0.400,6.000" d="M 100.000 368.000 Q 100.000 371.662 100.000 378.000 Q 100.000 384.696 100.000 388.000 Q 100.000 394.808 100.000 398.000 Q 100.000 403.270 100.000 408.000 Q 100.000 413.614 100.000 418.000 Q 100.000 424.658 100.000 428.000 Q 100.000 433.640 100.000 438.000 Q 100.000 444.917 100.000 448.000 Q 100.000 453.128 100.000 458.000 Q 100.000 463.186 100.000 468.000 Q 100.000 473.083 100.000 478.000 Q 100.000 483.123 100.000 488.000 Q 100.000 494.615 100.000 498.000 Q 100.000 503.005 100.000 508.000 Q 100.000 514.121 100.000 518.000 Q 100.000 523.174 100.000 528.000 Q 100.000 533.752 100.000 538.000 Q 100.000 543.810 100.000 548.000 Q 100.000 553.706 100.000 558.000 Q 100.000 563.226 100.000 568.000 "></path>
    <path id="STROKE_4d3a7477-117d-470b-92f9-93d1c8c845c0" opacity="0.510" fill="none" stroke="#f66640" stroke-width="4.000" stroke-opacity="1.000" stroke-linecap="round" stroke-linejoin="round" stroke-dasharray="0.400,6.000" d="M 200.000 371.214 Q 200.000 378.107 200.000 388.000 Q 200.000 393.373 200.000 398.000 Q 200.000 404.256 200.000 408.000 Q 200.000 415.820 200.000 428.000 Q 200.000 434.626 200.000 438.000 Q 200.000 445.683 200.000 458.000 Q 200.000 464.316 200.000 468.000 Q 200.000 474.212 200.000 478.000 Q 200.000 483.194 200.000 488.000 Q 200.000 494.848 200.000 498.000 Q 200.000 504.063 200.000 508.000 Q 200.000 513.511 200.000 518.000 Q 200.000 523.318 200.000 528.000 Q 200.000 533.628 200.000 538.000 Q 200.000 543.649 200.000 548.000 Q 200.000 553.778 200.000 558.000 Q 200.000 563.065 200.000 568.000 Q 200.000 573.266 200.000 578.000 Q 200.000 577.399 200.000 574.647 L 200.000 578.000 L 200.000 568.000 "></path>
    <path id="STROKE_c0f6acd0-9018-43ed-a271-dc687cecedb8" opacity="0.510" fill="none" stroke="#f66640" stroke-width="4.000" stroke-opacity="1.000" stroke-linecap="round" stroke-linejoin="round" stroke-dasharray="0.400,6.000" d="M 300.000 368.000 Q 300.000 373.276 300.000 378.000 Q 300.000 383.853 300.000 388.000 Q 300.000 393.750 300.000 398.000 Q 300.000 404.489 300.000 408.000 Q 300.000 413.381 300.000 418.000 Q 300.000 424.497 300.000 428.000 Q 300.000 434.555 300.000 438.000 Q 300.000 443.537 300.000 448.000 Q 300.000 454.204 300.000 458.000 Q 300.000 465.158 300.000 468.000 Q 300.000 473.459 300.000 478.000 Q 300.000 483.284 300.000 488.000 Q 300.000 493.019 300.000 498.000 Q 300.000 504.601 300.000 508.000 Q 300.000 514.336 300.000 518.000 Q 300.000 523.408 300.000 528.000 Q 300.000 533.143 300.000 538.000 Q 300.000 543.505 300.000 548.000 Q 300.000 553.240 300.000 558.000 Q 300.000 563.226 300.000 568.000 "></path>
    <path id="STROKE_35d14198-97c8-4e3c-b0c3-d2658213edb9" opacity="1.000" fill="none" stroke="#f3ba38" stroke-width="3.349" stroke-opacity="1.000" stroke-linecap="round" stroke-linejoin="round" d="M 1.402 466.987 Q 1.316 467.455 1.330 467.525 Q 1.305 467.386 1.341 466.388 Q 1.377 465.390 1.533 464.280 Q 1.689 463.170 1.783 462.164 Q 1.877 461.158 1.941 460.580 Q 2.004 460.001 2.044 459.856 Q 2.083 459.711 2.509 454.038 Q 2.935 448.364 3.844 440.029 Q 4.753 431.694 5.578 426.947 Q 6.404 422.200 7.135 416.648 Q 7.867 411.096 7.926 405.219 Q 7.986 399.343 9.313 391.830 Q 10.641 384.317 12.962 373.834 Q 15.284 363.352 16.299 358.235 Q 17.315 353.118 17.900 351.180 Q 18.485 349.241 20.443 344.213 Q 22.400 339.185 23.614 336.503 Q 24.827 333.821 25.063 333.134 Q 25.298 332.448 27.273 330.904 Q 29.247 329.361 30.197 328.662 Q 31.147 327.963 31.758 327.453 Q 32.369 326.943 33.159 326.480 Q 33.950 326.017 33.993 326.042 Q 34.036 326.068 34.159 326.088 Q 34.283 326.109 34.052 326.027 Q 33.821 325.945 36.332 325.726 Q 38.844 325.508 41.434 325.578 Q 44.024 325.648 45.709 326.033 Q 47.395 326.419 47.897 326.585 Q 48.399 326.750 48.878 326.885 Q 49.358 327.019 49.753 327.108 Q 50.149 327.196 50.170 327.246 Q 50.191 327.296 49.998 327.159 Q 49.805 327.023 52.148 327.699 Q 54.490 328.375 55.532 328.801 Q 56.573 329.227 57.934 330.431 Q 59.294 331.634 60.405 332.552 Q 61.516 333.469 62.065 333.849 Q 62.615 334.228 63.415 334.800 Q 64.216 335.372 65.055 336.012 Q 65.895 336.652 65.873 336.626 Q 65.850 336.601 65.919 336.670 Q 65.988 336.740 66.881 337.206 Q 67.773 337.672 68.068 337.792 Q 68.362 337.912 69.043 338.235 Q 69.724 338.557 70.043 338.754 Q 70.361 338.951 70.248 338.927 Q 70.135 338.903 70.324 338.849 Q 70.513 338.795 72.000 340.845 Q 73.486 342.895 74.736 346.594 Q 75.986 350.293 76.566 352.089 Q 77.146 353.885 77.967 355.225 Q 78.788 356.565 79.785 359.052 Q 80.783 361.539 81.142 362.911 Q 81.502 364.282 82.816 366.170 Q 84.130 368.058 84.842 371.719 Q 85.554 375.380 85.635 377.421 Q 85.715 379.463 85.683 380.434 Q 85.650 381.404 86.494 385.779 Q 87.339 390.153 87.402 394.649 Q 87.465 399.144 87.551 402.290 Q 87.637 405.436 87.835 406.371 Q 88.033 407.307 88.593 408.832 Q 89.154 410.358 89.571 421.616 Q 89.988 432.875 89.942 438.957 Q 89.895 445.038 90.357 449.982 Q 90.819 454.926 94.448 472.401 Q 94.519 472.401 94.555 472.401 Q 94.737 472.358 94.341 470.798 Q 93.945 469.237 93.718 468.744 "></path>
    <path id="STROKE_f087e5e6-15bc-498f-b37d-170658ab2635" opacity="1.000" fill="none" stroke="#f3ba38" stroke-width="3.109" stroke-opacity="1.000" stroke-linecap="round" stroke-linejoin="round" d="M 96.373 469.569 Q 96.363 469.652 95.081 470.340 Q 95.973 471.655 95.895 471.371 Q 96.576 471.524 98.304 475.612 Q 100.031 479.701 101.087 485.376 Q 102.142 491.051 102.790 494.684 Q 103.438 498.317 103.586 500.214 Q 103.735 502.111 105.301 510.886 Q 106.867 519.662 110.318 529.801 Q 113.768 539.940 116.659 548.424 Q 119.550 556.907 120.919 561.381 Q 122.288 565.856 123.376 570.325 Q 124.464 574.795 129.204 583.813 Q 133.944 592.832 136.368 597.302 Q 138.792 601.772 139.633 603.845 Q 140.474 605.918 142.102 607.136 Q 143.729 608.355 145.007 608.622 Q 146.285 608.889 147.819 610.880 Q 149.352 612.871 150.337 613.975 Q 151.322 615.079 151.565 615.320 Q 151.808 615.561 152.059 615.502 Q 152.310 615.443 154.832 616.101 Q 157.353 616.759 158.555 617.757 Q 159.756 618.755 160.585 619.512 Q 161.414 620.269 162.789 620.376 Q 164.164 620.482 164.994 620.099 Q 165.825 619.715 168.420 617.965 Q 171.015 616.216 173.231 613.048 Q 175.446 609.881 176.515 608.539 Q 177.584 607.196 179.877 600.651 Q 182.170 594.106 183.070 590.669 Q 183.971 587.232 184.271 585.296 Q 184.571 583.359 185.673 575.274 Q 186.775 567.190 187.697 561.697 Q 188.619 556.204 188.715 553.388 Q 188.811 550.573 189.170 547.397 Q 189.529 544.221 190.996 532.809 Q 192.463 521.396 193.468 515.226 Q 194.472 509.056 194.782 504.723 Q 195.092 500.390 195.454 497.185 Q 195.816 493.980 195.997 492.768 Q 196.178 491.556 197.041 488.460 Q 197.904 485.363 198.577 482.537 Q 199.250 479.711 200.949 475.304 Q 202.648 470.896 203.517 464.710 Q 203.717 464.760 203.228 466.254 Q 202.740 467.749 202.513 468.206 "></path>
    <path id="STROKE_ce55defa-0665-482c-b7f4-ff0b04488278" opacity="1.000" fill="none" stroke="#f3ba38" stroke-width="3.197" stroke-opacity="1.000" stroke-linecap="round" stroke-linejoin="round" d="M 203.206 467.059 Q 203.099 467.254 202.369 468.511 Q 202.210 468.079 206.645 446.249 Q 211.080 424.419 213.716 411.079 Q 216.352 397.739 217.991 390.443 Q 219.629 383.147 220.525 379.623 Q 221.421 376.099 223.039 370.314 Q 224.656 364.528 226.236 359.178 Q 227.816 353.828 232.011 344.407 Q 236.205 334.987 238.140 329.913 Q 240.076 324.840 242.041 321.510 Q 244.006 318.181 244.816 316.824 Q 245.625 315.466 246.198 314.196 Q 246.771 312.926 249.243 310.011 Q 251.714 307.095 253.218 305.718 Q 254.722 304.341 255.587 303.781 Q 256.452 303.222 256.610 303.171 Q 256.767 303.120 257.306 302.900 Q 257.844 302.681 259.566 302.285 Q 261.289 301.890 263.256 301.458 Q 265.223 301.027 266.122 301.029 Q 267.020 301.031 267.461 301.246 Q 267.902 301.461 268.608 302.111 Q 269.314 302.761 270.591 303.733 Q 271.869 304.705 273.623 309.534 Q 275.378 314.363 276.821 317.716 Q 278.265 321.069 279.958 324.560 Q 281.650 328.050 283.135 333.045 Q 284.619 338.041 285.935 342.736 Q 287.250 347.431 287.601 350.235 Q 287.952 353.040 288.208 354.788 Q 288.463 356.536 288.719 368.564 Q 288.976 380.592 289.280 387.678 Q 289.585 394.764 290.101 398.088 Q 290.617 401.413 290.915 405.381 Q 291.213 409.350 291.978 418.141 Q 292.743 426.931 293.317 431.884 Q 293.890 436.838 293.529 440.831 Q 293.167 444.824 293.953 448.899 Q 294.738 452.973 295.280 456.681 Q 295.821 460.388 295.658 462.181 Q 295.494 463.974 295.594 465.840 Q 295.524 465.695 295.709 462.419 Q 295.893 459.143 296.049 458.758 "></path>
    <circle id="STROKE_2a2911b7-270d-4dca-a90c-dd8c4737797b" opacity="1.000" fill="#f3ba38" stroke="#f3ba38" stroke-width="0.1" stroke-opacity="1.000" fill-opacity="1.000" cx="296.647" cy="463.186" r="1.700"></circle>
  </g>
</svg>