<?xml version="1.0" encoding="UTF-8" standalone="yes"?>
<svg xmlns="http://www.w3.org/2000/svg" xmlns:xlink="http://www.w3.org/1999/xlink" width="773.921pt" height="232.276pt" version="1.1" viewBox="-413.749 656.415 773.921 232.276">
  <!--
	Exported with Concepts: Smarter Sketching
	Version: 1059 on iOS 15.4
	https://concepts.app/
	-->
  <title>Untitled 1</title>
  <desc>Drawing exported from Concepts: Smarter Sketching</desc>
  <defs></defs>
  <g id="Pen" opacity="1.000">
    <path id="STROKE_da9450ae-f121-40b5-8fe4-ebb2bbe9eaf9" opacity="0.510" fill="none" stroke="#f66640" stroke-width="4.000" stroke-opacity="1.000" stroke-linecap="round" stroke-linejoin="round" stroke-dasharray="0.400,6.000" d="M -300.000 678.000 L -300.000 673.448 L -300.000 678.000 Q -300.000 673.041 -300.000 668.000 L -300.000 678.000 Q -300.000 685.033 -300.000 738.000 Q -300.000 743.141 -300.000 748.000 Q -300.000 754.109 -300.000 758.000 Q -300.000 765.211 -300.000 778.000 Q -300.000 785.156 -300.000 788.000 Q -300.000 794.063 -300.000 798.000 Q -300.000 803.006 -300.000 808.000 Q -300.000 813.676 -300.000 818.000 Q -300.000 823.041 -300.000 828.000 Q -300.000 833.416 -300.000 838.000 Q -300.000 843.574 -300.000 848.000 Q -300.000 853.030 -300.000 858.000 Q -300.000 863.096 -300.000 868.000 "></path>
    <path id="STROKE_2a57bc51-dae1-4549-90be-5dc756d178ed" opacity="0.510" fill="none" stroke="#f66640" stroke-width="4.000" stroke-opacity="1.000" stroke-linecap="round" stroke-linejoin="round" stroke-dasharray="0.400,6.000" d="M -200.000 668.000 Q -200.000 668.658 -200.000 678.000 Q -200.000 684.062 -200.000 688.000 Q -200.000 693.609 -200.000 698.000 Q -200.000 703.970 -200.000 708.000 Q -200.000 713.868 -200.000 718.000 Q -200.000 723.120 -200.000 728.000 Q -200.000 733.482 -200.000 738.000 Q -200.000 743.857 -200.000 748.000 Q -200.000 754.026 -200.000 758.000 Q -200.000 763.709 -200.000 768.000 Q -200.000 773.846 -200.000 778.000 Q -200.000 783.982 -200.000 788.000 Q -200.000 793.586 -200.000 798.000 Q -200.000 803.245 -200.000 808.000 Q -200.000 813.859 -200.000 818.000 Q -200.000 823.925 -200.000 828.000 Q -200.000 833.823 -200.000 838.000 Q -200.000 843.721 -200.000 848.000 Q -200.000 853.086 -200.000 858.000 Q -200.000 863.756 -200.000 868.000 Q -200.000 873.050 -200.000 878.000 Q -200.000 876.010 -200.000 874.552 L -200.000 878.000 L -200.000 868.000 "></path>
    <path id="STROKE_5a3f8190-5476-4dab-993a-df5b8862b1a8" opacity="0.510" fill="none" stroke="#f66640" stroke-width="4.000" stroke-opacity="1.000" stroke-linecap="round" stroke-linejoin="round" stroke-dasharray="0.400,6.000" d="M -100.000 668.000 Q -100.000 669.346 -100.000 678.000 Q -100.000 683.234 -100.000 688.000 Q -100.000 693.848 -100.000 698.000 Q -100.000 703.914 -100.000 708.000 Q -100.000 715.483 -100.000 718.000 Q -100.000 724.426 -100.000 728.000 Q -100.000 733.959 -100.000 738.000 Q -100.000 743.562 -100.000 748.000 Q -100.000 754.948 -100.000 758.000 Q -100.000 763.232 -100.000 768.000 Q -100.000 774.267 -100.000 778.000 Q -100.000 785.471 -100.000 798.000 Q -100.000 804.972 -100.000 808.000 Q -100.000 813.915 -100.000 818.000 Q -100.000 824.290 -100.000 828.000 Q -100.000 834.904 -100.000 838.000 Q -100.000 843.300 -100.000 848.000 Q -100.000 853.198 -100.000 858.000 Q -100.000 863.279 -100.000 868.000 Q -100.000 873.289 -100.000 878.000 Q -100.000 875.325 -100.000 868.000 "></path>
    <path id="STROKE_78bf018b-b95a-4198-9f18-9beead068636" opacity="0.510" fill="none" stroke="#f66640" stroke-width="4.000" stroke-opacity="1.000" stroke-linecap="round" stroke-linejoin="round" stroke-dasharray="0.400,6.000" d="M -402.163 668.000 Q -402.332 668.000 -402.632 668.000 L -400.000 668.000 "></path>
    <path id="STROKE_492135ef-0570-4aa0-bf10-1ea34df580f4" opacity="0.510" fill="none" stroke="#f66640" stroke-width="4.000" stroke-opacity="1.000" stroke-linecap="round" stroke-linejoin="round" stroke-dasharray="0.400,6.000" d="M -400.000 668.000 Q -400.000 670.893 -400.000 678.000 Q -400.000 685.243 -400.000 698.000 Q -400.000 704.952 -400.000 718.000 Q -400.000 723.471 -400.000 728.000 Q -400.000 733.243 -400.000 738.000 Q -400.000 745.233 -400.000 748.000 Q -400.000 753.404 -400.000 758.000 Q -400.000 763.892 -400.000 768.000 Q -400.000 773.200 -400.000 778.000 Q -400.000 783.561 -400.000 788.000 Q -400.000 794.007 -400.000 798.000 Q -400.000 803.778 -400.000 808.000 Q -400.000 814.392 -400.000 818.000 Q -400.000 823.630 -400.000 828.000 Q -400.000 834.118 -400.000 838.000 Q -400.000 843.132 -400.000 848.000 Q -400.000 853.563 -400.000 858.000 Q -400.000 863.096 -400.000 868.000 Q -400.000 873.528 -400.000 878.000 Q -400.000 875.507 -400.000 868.000 L -400.000 859.165 "></path>
    <path id="STROKE_fbcfe55b-d2e4-4f4e-83c6-d7d5c7676f6a" opacity="1.000" fill="none" stroke="#f3ba38" stroke-width="3.400" stroke-opacity="1.000" stroke-linecap="round" stroke-linejoin="round" d="M -399.073 744.096 Q -399.073 744.131 -399.073 744.334 Q -398.781 743.801 -396.239 738.274 Q -393.696 732.747 -392.404 729.443 Q -391.112 726.140 -390.658 723.696 Q -390.203 721.253 -389.317 718.860 Q -388.431 716.466 -387.873 715.520 Q -387.314 714.574 -386.072 712.453 Q -384.829 710.331 -382.992 707.147 Q -381.154 703.963 -379.998 701.776 Q -378.841 699.589 -376.808 697.228 Q -374.774 694.867 -373.895 693.374 Q -373.017 691.881 -370.003 689.363 Q -366.988 686.846 -364.307 685.387 Q -361.626 683.928 -358.961 683.541 Q -356.295 683.153 -355.116 683.260 Q -353.936 683.367 -353.049 683.198 Q -352.162 683.029 -350.736 682.997 Q -349.311 682.965 -348.077 683.206 Q -346.842 683.447 -346.250 683.610 Q -345.658 683.773 -345.320 683.876 Q -344.982 683.978 -344.720 684.070 Q -344.457 684.163 -344.401 684.173 Q -344.345 684.184 -344.183 684.236 Q -344.021 684.289 -343.599 684.445 Q -343.177 684.600 -342.932 684.693 Q -342.687 684.786 -342.590 684.855 Q -342.494 684.925 -342.675 684.864 Q -342.857 684.802 -340.890 685.300 Q -338.923 685.798 -336.879 686.831 Q -334.834 687.865 -333.634 688.501 Q -332.434 689.138 -330.414 691.013 Q -328.394 692.888 -327.472 693.952 Q -326.549 695.016 -326.076 695.718 Q -325.603 696.419 -325.453 696.656 Q -325.303 696.892 -325.173 697.072 Q -325.043 697.251 -324.978 697.443 Q -324.913 697.634 -323.997 698.607 Q -323.081 699.581 -322.447 700.214 Q -321.812 700.848 -321.399 701.236 Q -320.986 701.623 -320.623 701.970 Q -320.260 702.318 -319.907 702.496 Q -319.553 702.675 -318.066 704.490 Q -316.579 706.303 -315.928 707.238 Q -315.277 708.172 -314.911 708.796 Q -314.545 709.421 -314.383 709.710 Q -314.220 709.999 -314.124 710.173 Q -314.028 710.347 -313.575 711.110 Q -313.122 711.874 -311.946 715.030 Q -310.770 718.187 -309.727 720.638 Q -308.683 723.090 -308.164 724.233 Q -307.646 725.375 -307.163 726.476 Q -306.681 727.576 -306.515 728.021 Q -306.348 728.465 -306.109 729.008 Q -305.871 729.551 -305.865 729.589 Q -305.859 729.626 -305.843 729.651 Q -305.827 729.675 -305.752 730.070 Q -305.678 730.465 -305.711 730.477 Q -305.711 730.505 -305.729 730.519 Q -305.748 730.533 -305.785 730.561 "></path>
    <path id="STROKE_5bb295ec-29c3-431b-b870-84e8b89b4dff" opacity="1.000" fill="none" stroke="#f3ba38" stroke-width="3.400" stroke-opacity="1.000" stroke-linecap="round" stroke-linejoin="round" d="M -307.733 731.221 Q -307.733 731.221 -307.733 731.235 Q -307.733 731.249 -307.733 731.460 Q -308.191 731.686 -307.128 731.313 Q -306.064 730.941 -303.862 733.924 Q -301.660 736.908 -299.961 739.693 Q -298.262 742.478 -295.012 744.902 Q -291.761 747.326 -289.593 749.201 Q -287.424 751.076 -285.593 753.127 Q -283.763 755.179 -279.389 757.132 Q -275.015 759.085 -272.096 759.877 Q -269.177 760.669 -267.534 760.986 Q -265.891 761.303 -261.265 761.973 Q -256.639 762.644 -253.842 762.994 Q -251.045 763.344 -249.635 763.587 Q -248.225 763.829 -246.772 763.875 Q -245.319 763.920 -244.138 763.674 Q -242.956 763.429 -241.921 762.642 Q -240.886 761.855 -240.558 761.617 Q -240.230 761.378 -239.923 761.152 Q -239.617 760.926 -239.054 760.497 Q -238.491 760.068 -237.919 759.685 Q -237.347 759.301 -237.073 759.100 Q -236.799 758.899 -236.117 758.364 Q -235.435 757.828 -234.687 757.150 Q -233.939 756.472 -233.453 755.988 Q -232.968 755.505 -232.708 755.288 Q -232.447 755.071 -232.335 754.978 Q -232.222 754.885 -232.277 754.924 Q -232.331 754.964 -232.099 754.786 Q -231.866 754.608 -230.432 753.266 Q -228.998 751.925 -228.241 750.899 Q -227.484 749.873 -226.918 748.773 Q -226.353 747.673 -226.069 746.960 Q -225.785 746.247 -225.606 745.880 Q -225.427 745.513 -225.433 745.431 Q -225.438 745.349 -224.633 743.924 Q -223.828 742.499 -223.453 741.879 Q -223.079 741.258 -222.760 740.769 Q -222.442 740.280 -222.444 740.279 Q -222.446 740.278 -222.297 740.057 Q -222.148 739.837 -221.805 739.331 Q -221.462 738.824 -221.378 738.701 Q -221.294 738.577 -221.127 738.305 Q -220.961 738.032 -220.577 737.365 Q -220.193 736.698 -220.275 736.850 Q -220.358 737.001 -220.063 736.483 Q -219.767 735.966 -219.509 735.438 Q -219.250 734.911 -218.717 733.853 Q -218.183 732.795 -217.880 732.281 Q -217.576 731.768 -217.366 731.477 Q -217.156 731.186 -217.071 731.066 Q -216.986 730.947 -216.528 730.316 Q -216.070 729.686 -215.639 729.259 Q -215.207 728.832 -213.937 727.264 Q -212.668 725.695 -211.933 724.674 Q -211.198 723.652 -210.842 723.126 Q -210.487 722.600 -210.173 722.207 Q -209.859 721.813 -208.879 720.386 Q -207.900 718.960 -207.261 718.000 Q -206.621 717.040 -206.380 716.667 Q -206.139 716.293 -205.991 716.217 Q -205.844 716.142 -203.332 711.898 Q -200.820 707.654 -198.193 703.940 Q -195.565 700.225 -193.606 697.948 Q -191.647 695.672 -190.437 694.262 Q -189.228 692.852 -188.277 692.015 Q -187.326 691.177 -186.363 690.524 Q -185.400 689.870 -185.024 689.618 Q -184.648 689.366 -180.669 686.826 Q -176.690 684.287 -173.838 682.607 Q -170.986 680.927 -166.967 679.741 Q -162.948 678.556 -158.929 678.409 Q -154.910 678.262 -151.970 679.085 Q -149.031 679.908 -146.965 680.951 Q -144.900 681.995 -143.856 682.382 Q -142.812 682.769 -141.998 683.714 Q -141.185 684.658 -140.688 685.049 Q -140.190 685.441 -139.925 685.594 Q -139.659 685.746 -139.137 685.999 Q -138.614 686.252 -138.514 686.349 Q -138.414 686.447 -138.546 686.264 Q -138.677 686.080 -137.429 687.217 Q -136.180 688.353 -135.064 689.459 Q -133.949 690.565 -132.635 691.872 Q -131.321 693.180 -130.645 693.814 Q -129.970 694.448 -129.421 694.857 Q -128.872 695.266 -128.662 695.451 Q -128.451 695.635 -128.124 695.935 Q -127.797 696.235 -127.750 696.262 Q -127.703 696.289 -127.337 696.725 Q -126.971 697.161 -126.588 697.748 Q -126.205 698.335 -125.741 698.938 Q -125.277 699.540 -124.911 699.864 Q -124.545 700.189 -123.750 701.042 Q -122.954 701.896 -121.770 703.327 Q -120.586 704.758 -119.354 706.278 Q -118.121 707.798 -117.179 709.163 Q -116.236 710.528 -115.813 711.197 Q -115.390 711.865 -115.225 712.048 Q -115.060 712.230 -114.051 713.555 Q -113.043 714.879 -112.183 716.668 Q -111.323 718.457 -110.897 719.442 Q -110.470 720.428 -110.232 720.904 Q -109.994 721.379 -109.691 721.910 Q -109.388 722.440 -109.143 722.843 Q -108.898 723.245 -107.388 725.827 Q -105.878 728.409 -104.988 729.961 Q -104.098 731.513 -103.598 732.673 Q -103.098 733.833 -102.834 734.494 Q -102.570 735.154 -102.469 735.406 Q -102.369 735.658 -102.152 736.250 Q -101.935 736.842 -101.801 737.149 Q -101.667 737.456 -101.290 738.017 Q -100.914 738.577 -100.107 740.052 Q -100.107 740.017 -100.107 739.743 Q -99.583 740.188 -99.121 740.794 Q -98.658 741.399 -98.420 741.699 Q -98.183 741.999 -98.250 741.919 Q -98.316 741.839 -98.279 741.881 Q -98.242 741.923 -98.203 741.988 Q -98.163 742.053 -98.158 742.070 Q -98.152 742.087 -98.234 741.943 Q -98.317 741.798 -98.262 741.905 Q -98.207 742.011 -97.710 742.867 Q -97.214 743.722 -97.269 743.773 Q -97.302 743.752 -97.248 743.762 Q -97.193 743.772 -96.941 745.556 Q -97.245 745.587 -97.613 745.603 Q -97.981 745.619 -98.252 745.654 "></path>
    <path id="STROKE_bbaf18a4-2659-4141-bd62-9304e4f983d4" opacity="1.000" fill="none" stroke="#f3ba38" stroke-width="3.400" stroke-opacity="1.000" stroke-linecap="round" stroke-linejoin="round" d="M -403.044 808.847 Q -402.997 809.020 -403.119 807.709 Q -402.933 809.023 -402.903 808.755 Q -402.311 810.267 -400.574 814.635 Q -398.837 819.002 -396.530 824.521 Q -394.223 830.040 -392.918 833.130 Q -391.614 836.221 -389.944 838.380 Q -388.274 840.538 -386.353 844.082 Q -384.433 847.626 -381.544 851.412 Q -378.654 855.198 -376.869 857.254 Q -375.083 859.309 -374.131 860.021 Q -373.180 860.732 -369.704 861.672 Q -366.229 862.612 -364.210 863.295 Q -362.191 863.977 -361.335 864.229 Q -360.478 864.481 -358.971 864.471 Q -357.464 864.461 -354.416 864.535 Q -351.367 864.608 -349.488 864.541 Q -347.609 864.473 -345.581 863.670 Q -343.554 862.867 -342.363 862.252 Q -341.172 861.638 -340.642 861.559 Q -340.112 861.481 -337.476 859.504 Q -334.840 857.527 -333.037 855.345 Q -331.234 853.163 -330.426 852.033 Q -329.618 850.903 -328.986 850.253 Q -328.355 849.603 -326.326 847.216 Q -324.297 844.829 -322.918 843.096 Q -321.540 841.363 -319.727 839.178 Q -317.915 836.992 -317.306 836.049 Q -316.698 835.106 -316.334 834.421 Q -315.971 833.736 -315.799 833.277 Q -315.627 832.818 -315.040 831.901 Q -314.453 830.983 -314.168 830.665 Q -313.883 830.347 -313.547 829.926 Q -313.210 829.505 -312.595 828.609 Q -311.979 827.714 -311.063 826.440 Q -310.148 825.166 -308.918 823.708 Q -307.688 822.249 -306.639 820.954 Q -305.590 819.659 -304.968 818.755 Q -304.346 817.850 -303.786 816.992 Q -303.227 816.134 -302.658 815.207 Q -302.089 814.281 -301.397 812.930 Q -300.705 811.579 -299.211 809.965 Q -297.717 808.352 -296.707 807.679 Q -295.697 807.006 -295.158 806.771 Q -294.618 806.536 -292.887 805.418 Q -291.156 804.300 -289.075 802.593 Q -286.994 800.886 -282.506 798.875 Q -278.017 796.863 -274.917 795.517 Q -271.817 794.172 -265.723 793.721 Q -259.630 793.271 -256.257 793.085 Q -252.884 792.900 -251.273 792.957 Q -249.662 793.013 -248.951 793.194 Q -248.241 793.375 -246.792 793.623 Q -245.344 793.871 -244.623 794.049 Q -243.903 794.227 -243.508 794.252 Q -243.114 794.277 -241.315 795.031 Q -239.516 795.784 -238.412 796.325 Q -237.308 796.866 -236.425 797.503 Q -235.543 798.141 -235.088 798.543 Q -234.633 798.946 -234.334 799.209 Q -234.035 799.471 -234.063 799.427 Q -234.090 799.383 -233.344 800.016 Q -232.598 800.650 -229.494 802.816 Q -226.390 804.982 -224.261 806.162 Q -222.133 807.341 -221.397 807.683 Q -220.661 808.025 -220.661 807.883 Q -220.661 807.740 -218.953 809.397 Q -217.245 811.055 -216.328 812.069 Q -215.411 813.083 -214.853 813.564 Q -214.295 814.045 -213.745 814.486 Q -213.195 814.927 -213.227 814.899 Q -213.260 814.871 -213.075 815.023 Q -212.889 815.176 -212.518 815.506 Q -212.147 815.837 -211.685 816.330 Q -211.223 816.822 -211.480 816.469 Q -211.737 816.116 -210.525 817.985 Q -209.313 819.854 -208.840 820.619 Q -208.368 821.385 -207.936 821.760 Q -207.503 822.135 -206.143 824.042 Q -204.782 825.949 -203.873 827.792 Q -202.964 829.634 -202.235 830.691 Q -201.507 831.748 -201.036 832.280 Q -200.566 832.812 -198.597 835.733 Q -196.628 838.654 -195.338 840.266 Q -194.048 841.879 -193.636 842.404 Q -193.224 842.929 -192.803 843.580 Q -192.383 844.231 -191.930 844.981 Q -191.478 845.732 -191.181 846.264 Q -190.884 846.796 -190.393 847.675 Q -189.902 848.555 -189.113 849.571 Q -188.324 850.587 -187.406 851.441 Q -186.487 852.295 -185.953 852.580 Q -185.420 852.864 -183.233 855.098 Q -181.046 857.332 -179.115 859.054 Q -177.185 860.775 -173.995 862.589 Q -170.806 864.403 -165.566 866.928 Q -160.326 869.453 -156.448 870.916 Q -152.569 872.378 -150.589 872.962 Q -148.609 873.547 -146.322 873.758 Q -144.035 873.969 -139.469 873.898 Q -134.902 873.827 -132.017 873.964 Q -129.131 874.101 -126.585 873.389 Q -124.038 872.677 -122.067 871.039 Q -120.095 869.400 -118.379 867.134 Q -116.662 864.868 -115.846 863.702 Q -115.031 862.535 -114.577 861.351 Q -114.123 860.167 -113.112 858.292 Q -112.100 856.418 -111.423 855.135 Q -110.746 853.852 -110.195 852.541 Q -109.643 851.229 -109.280 850.178 Q -108.917 849.126 -108.666 848.294 Q -108.415 847.462 -108.185 846.669 Q -107.956 845.875 -107.766 845.270 Q -107.576 844.665 -107.420 844.214 Q -107.264 843.763 -107.213 843.686 Q -107.162 843.609 -107.080 843.159 Q -106.998 842.709 -106.020 838.911 Q -105.043 835.113 -104.247 833.063 Q -103.452 831.014 -103.135 830.093 Q -102.819 829.172 -102.751 828.918 Q -102.683 828.664 -102.651 828.671 Q -102.619 828.679 -102.818 828.709 Q -103.017 828.740 -100.987 821.539 Q -100.987 821.574 -100.987 821.904 Q -100.571 821.904 -101.818 821.932 Q -103.066 821.960 -103.422 822.016 "></path>
    <path id="STROKE_d250b991-cfa0-402f-9b7f-18291bdf2709" opacity="1.000" fill="none" stroke="#ff9adf" stroke-width="3.400" stroke-opacity="1.000" stroke-linecap="round" stroke-linejoin="round" d="M -80.630 760.940 Q -81.426 760.637 -81.216 760.707 Q -81.324 760.671 -81.563 760.026 Q -80.343 760.023 -74.286 759.472 Q -68.229 758.921 -58.669 759.012 Q -49.109 759.103 -48.965 758.950 "></path>
    <path id="STROKE_631dac16-8c01-4c63-80ed-5b3563dcd242" opacity="1.000" fill="none" stroke="#ff9adf" stroke-width="2.961" stroke-opacity="1.000" stroke-linecap="round" stroke-linejoin="round" d="M -80.798 772.665 Q -80.798 772.701 -80.798 773.078 Q -80.794 773.156 -73.778 773.135 Q -66.761 773.114 -60.576 772.581 Q -54.391 772.048 -42.652 770.837 Q -42.605 770.610 -44.715 771.006 Q -46.825 771.401 -47.052 771.518 "></path>
    <path id="STROKE_a52ed4e6-239e-4f4b-882b-6b549c1bc776" opacity="1.000" fill="none" stroke="#ff9adf" stroke-width="3.024" stroke-opacity="1.000" stroke-linecap="round" stroke-linejoin="round" d="M -45.091 738.924 Q -44.773 738.914 -46.143 738.969 Q -46.252 738.738 -46.157 742.774 Q -46.062 746.810 -44.812 757.099 Q -43.562 767.388 -42.908 774.874 Q -42.255 782.361 -41.489 787.523 Q -40.723 792.686 -41.324 800.669 Q -41.396 800.669 -41.432 800.669 Q -41.463 800.117 -41.483 798.587 Q -41.504 797.057 -41.504 796.707 "></path>
    <path id="STROKE_c9e81248-264b-4e81-94e2-6114dd2017fa" opacity="1.000" fill="none" stroke="#ff9adf" stroke-width="3.398" stroke-opacity="1.000" stroke-linecap="round" stroke-linejoin="round" d="M -39.303 799.307 Q -40.060 799.866 -39.925 799.764 Q -40.681 800.371 -40.906 801.440 Q -40.425 802.509 -35.893 797.769 Q -31.362 793.029 -24.364 787.388 Q -17.365 781.746 -12.476 777.698 Q -7.588 773.649 -5.728 771.933 Q -3.868 770.217 2.095 766.910 Q 2.095 766.839 2.095 766.803 Q 1.824 766.907 2.015 766.786 Q 2.207 766.665 1.416 766.927 Q 0.625 767.190 -0.577 767.584 Q -1.779 767.977 -2.162 768.094 "></path>
    <path id="STROKE_ac07c379-2ba3-4586-a408-0aa6af7efa3b" opacity="1.000" fill="none" stroke="#ff9adf" stroke-width="3.400" stroke-opacity="1.000" stroke-linecap="round" stroke-linejoin="round" d="M -0.870 767.018 Q -0.870 767.063 -0.870 767.323 Q -2.185 766.997 -1.815 766.991 Q -1.536 766.650 -7.172 762.158 Q -12.808 757.665 -16.243 754.087 Q -19.677 750.508 -22.172 748.365 Q -24.666 746.222 -26.075 745.603 Q -27.485 744.983 -28.174 744.188 Q -28.864 743.392 -29.330 742.220 Q -29.796 741.048 -29.715 740.679 Q -29.634 740.309 -30.980 739.801 Q -32.326 739.292 -33.468 739.349 Q -34.611 739.406 -35.504 739.642 Q -36.398 739.878 -36.285 739.854 Q -36.173 739.828 -36.163 739.870 Q -36.154 739.911 -37.258 739.848 Q -37.311 739.579 -37.537 738.991 Q -37.764 738.403 -38.453 738.001 Q -39.143 737.600 -40.084 737.461 Q -41.026 737.322 -40.703 737.347 Q -40.379 737.373 -41.031 737.474 Q -41.683 737.576 -42.302 737.349 Q -42.922 737.123 -43.180 736.936 Q -43.438 736.748 -43.659 736.621 Q -43.880 736.494 -43.657 736.626 Q -43.434 736.757 -44.469 736.109 Q -44.433 736.109 -44.266 736.244 Q -44.099 736.378 -43.800 736.647 "></path>
    <path id="STROKE_a01584af-497d-4805-bc52-250a941c2125" opacity="1.000" fill="none" stroke="#ff9adf" stroke-width="2.982" stroke-opacity="1.000" stroke-linecap="round" stroke-linejoin="round" d="M -40.906 739.534 Q -40.897 739.530 -40.942 735.769 Q -42.550 735.613 -46.215 751.653 Q -45.833 751.826 -37.175 738.171 Q -36.945 738.392 -39.900 744.138 Q -42.856 749.884 -44.673 756.369 Q -43.376 758.678 -32.320 741.452 Q -32.185 741.415 -36.385 749.421 Q -40.585 757.426 -42.998 766.534 Q -41.806 768.092 -28.792 746.920 Q -28.611 746.606 -28.862 747.961 Q -29.113 749.316 -32.852 756.856 Q -36.590 764.397 -41.922 778.062 Q -39.804 778.444 -33.602 768.550 Q -27.400 758.656 -20.840 748.301 Q -20.507 749.098 -24.990 756.712 Q -29.472 764.326 -39.088 781.486 Q -38.147 781.950 -32.548 775.168 Q -26.949 768.385 -19.094 754.540 Q -19.276 754.872 -21.608 758.673 Q -23.940 762.473 -27.586 768.835 Q -31.232 775.197 -34.717 781.008 Q -38.201 786.819 -40.140 792.602 Q -38.701 792.518 -33.107 784.311 Q -27.513 776.104 -23.978 770.724 Q -20.444 765.345 -16.583 761.550 Q -15.405 761.972 -20.965 771.239 Q -26.524 780.505 -30.116 786.430 Q -33.708 792.355 -35.668 797.102 Q -34.831 797.586 -28.995 789.527 Q -23.159 781.468 -19.347 776.441 Q -15.534 771.415 -12.147 768.237 Q -11.286 769.405 -16.966 784.391 Q -16.894 784.238 -16.822 784.086 "></path>
    <path id="STROKE_7fccea85-12e6-43e4-8d6a-e4c6832735e3" opacity="1.000" fill="none" stroke="#ff9adf" stroke-width="3.338" stroke-opacity="1.000" stroke-linecap="round" stroke-linejoin="round" d="M -79.052 759.793 Q -78.067 758.339 -78.273 758.657 Q -78.478 758.976 -78.397 758.867 Q -78.316 758.759 -78.206 758.610 Q -78.096 758.461 -77.593 757.892 Q -77.896 759.598 -81.886 774.261 Q -81.220 775.046 -71.447 760.169 Q -71.989 761.519 -71.901 761.460 Q -72.481 762.453 -74.341 771.590 Q -73.368 772.044 -58.221 753.769 Q -57.695 752.922 -63.937 770.675 Q -63.369 770.463 -60.083 766.196 Q -56.797 761.930 -54.359 759.393 Q -51.921 756.856 -49.647 755.759 Q -49.525 756.132 -49.519 756.982 Q -49.513 757.832 -51.237 767.251 Q -51.504 767.930 -48.865 765.954 Q -46.227 763.979 -45.928 763.755 "></path>
    <path id="STROKE_f10000b1-bec7-422c-8716-2a4a678a769a" opacity="0.510" fill="none" stroke="#f66640" stroke-width="4.000" stroke-opacity="1.000" stroke-linecap="round" stroke-linejoin="round" stroke-dasharray="0.400,6.000" d="M 0.000 668.000 L 0.000 678.000 Q 0.000 686.251 0.000 698.000 Q 0.000 704.591 0.000 728.000 Q 0.000 734.586 0.000 738.000 Q 0.000 743.353 0.000 748.000 Q 0.000 754.916 0.000 758.000 Q 0.000 764.974 0.000 768.000 Q 0.000 774.333 0.000 778.000 Q 0.000 783.691 0.000 788.000 Q 0.000 795.201 0.000 798.000 Q 0.000 803.341 0.000 808.000 Q 0.000 813.919 0.000 818.000 Q 0.000 824.067 0.000 828.000 Q 0.000 833.640 0.000 838.000 Q 0.000 843.160 0.000 848.000 Q 0.000 853.128 0.000 858.000 Q 0.000 863.490 0.000 868.000 Q 0.000 873.530 0.000 878.000 Q 0.000 875.310 0.000 868.000 "></path>
    <path id="STROKE_f5ef65e4-8482-42c1-8287-4b98523c1e98" opacity="0.510" fill="none" stroke="#f66640" stroke-width="4.000" stroke-opacity="1.000" stroke-linecap="round" stroke-linejoin="round" stroke-dasharray="0.400,6.000" d="M 100.000 668.000 Q 100.000 670.635 100.000 678.000 Q 100.000 683.436 100.000 688.000 Q 100.000 696.409 100.000 728.000 Q 100.000 733.456 100.000 738.000 Q 100.000 744.643 100.000 748.000 Q 100.000 755.221 100.000 768.000 Q 100.000 775.247 100.000 778.000 Q 100.000 783.998 100.000 788.000 Q 100.000 793.982 100.000 798.000 Q 100.000 803.108 100.000 808.000 Q 100.000 813.614 100.000 818.000 Q 100.000 823.134 100.000 828.000 Q 100.000 834.088 100.000 838.000 Q 100.000 843.303 100.000 848.000 Q 100.000 853.128 100.000 858.000 Q 100.000 863.096 100.000 868.000 "></path>
    <path id="STROKE_868c2eca-976f-4d4c-ac0c-a0b7221ef3c0" opacity="0.510" fill="none" stroke="#f66640" stroke-width="4.000" stroke-opacity="1.000" stroke-linecap="round" stroke-linejoin="round" stroke-dasharray="0.400,6.000" d="M 200.000 668.663 L 200.000 678.000 Q 200.000 685.032 200.000 688.000 Q 200.000 693.942 200.000 698.000 Q 200.000 704.054 200.000 708.000 Q 200.000 713.054 200.000 718.000 Q 200.000 724.241 200.000 728.000 Q 200.000 734.281 200.000 738.000 Q 200.000 744.787 200.000 748.000 Q 200.000 754.612 200.000 758.000 Q 200.000 763.361 200.000 768.000 Q 200.000 774.942 200.000 778.000 Q 200.000 783.998 200.000 788.000 Q 200.000 794.735 200.000 798.000 Q 200.000 803.179 200.000 808.000 Q 200.000 813.076 200.000 818.000 Q 200.000 824.729 200.000 828.000 Q 200.000 834.178 200.000 838.000 Q 200.000 843.160 200.000 848.000 Q 200.000 853.809 200.000 858.000 Q 200.000 863.401 200.000 868.000 Q 200.000 873.082 200.000 878.000 Q 200.000 874.140 200.000 868.000 Q 200.000 861.196 200.000 858.000 "></path>
    <path id="STROKE_e8662cce-8ae7-4453-a314-e188e3f2e306" opacity="0.510" fill="none" stroke="#f66640" stroke-width="4.000" stroke-opacity="1.000" stroke-linecap="round" stroke-linejoin="round" stroke-dasharray="0.400,6.000" d="M 300.000 668.000 Q 300.000 669.710 300.000 669.506 Q 300.000 669.721 300.000 669.882 L 300.000 668.000 Q 300.000 670.868 300.000 678.000 Q 300.000 685.103 300.000 688.000 Q 300.000 694.390 300.000 698.000 Q 300.000 704.358 300.000 708.000 Q 300.000 715.460 300.000 738.000 Q 300.000 743.424 300.000 748.000 Q 300.000 753.464 300.000 758.000 Q 300.000 763.289 300.000 768.000 Q 300.000 773.723 300.000 778.000 Q 300.000 784.324 300.000 788.000 Q 300.000 794.735 300.000 798.000 Q 300.000 804.703 300.000 808.000 Q 300.000 814.761 300.000 818.000 Q 300.000 824.120 300.000 828.000 Q 300.000 833.407 300.000 838.000 Q 300.000 843.536 300.000 848.000 Q 300.000 853.289 300.000 858.000 Q 300.000 863.634 300.000 868.000 Q 300.000 873.154 300.000 878.000 Q 300.000 877.323 300.000 868.000 "></path>
    <path id="STROKE_c290c8a3-65cd-420d-afaf-514ad3ecf064" opacity="1.000" fill="none" stroke="#f3ba38" stroke-width="3.400" stroke-opacity="1.000" stroke-linecap="round" stroke-linejoin="round" d="M 10.538 767.556 Q 9.275 766.599 9.737 766.910 Q 9.701 766.839 9.701 766.534 Q 10.273 766.298 14.108 766.170 Q 17.943 766.042 25.658 766.558 Q 33.374 767.073 36.895 767.809 Q 40.416 768.545 43.983 767.725 Q 47.551 766.905 52.509 766.078 Q 57.468 765.250 60.858 765.220 Q 64.249 765.189 66.860 765.174 Q 69.472 765.158 73.411 765.224 Q 77.350 765.291 81.313 765.126 Q 85.276 764.962 91.230 764.442 Q 97.183 763.921 100.526 763.893 Q 103.869 763.865 108.298 763.907 Q 112.727 763.949 117.309 764.016 Q 121.891 764.084 126.074 763.820 Q 130.257 763.557 133.034 763.259 Q 135.810 762.961 147.206 762.953 Q 158.601 762.944 164.803 762.690 Q 171.004 762.435 174.832 762.319 Q 178.661 762.204 182.602 762.142 Q 186.543 762.081 191.431 762.022 Q 196.318 761.964 203.276 761.180 Q 210.234 760.397 221.514 760.623 Q 232.794 760.850 238.858 761.005 Q 244.922 761.160 249.302 760.859 Q 253.682 760.559 262.707 760.426 Q 271.733 760.294 279.989 760.234 Q 288.245 760.174 291.891 760.434 Q 295.538 760.695 302.414 760.890 Q 309.289 761.085 315.270 761.138 Q 321.250 761.191 330.918 761.550 Q 329.715 761.367 329.778 761.370 Q 329.842 761.373 329.693 761.305 Q 329.543 761.236 329.244 761.084 "></path>
    <path id="STROKE_39b55719-49da-433d-8e9c-8621e22a7924" opacity="1.000" fill="none" stroke="#f3ba38" stroke-width="3.358" stroke-opacity="1.000" stroke-linecap="round" stroke-linejoin="round" d="M 324.676 752.406 Q 324.616 752.658 324.880 749.932 Q 325.822 749.792 327.642 749.884 Q 329.463 749.977 334.454 751.740 Q 339.444 753.504 342.639 755.138 Q 345.834 756.771 347.667 757.819 Q 349.500 758.867 350.018 760.141 Q 350.537 761.414 350.222 762.127 Q 349.906 762.840 348.842 763.415 Q 347.777 763.990 348.332 763.256 Q 348.887 762.521 324.844 776.305 Q 324.901 776.558 326.200 775.714 Q 327.498 774.871 327.809 774.566 "></path>
  </g>
</svg>