<?xml version="1.0" encoding="UTF-8" standalone="yes"?>
<svg xmlns="http://www.w3.org/2000/svg" xmlns:xlink="http://www.w3.org/1999/xlink" width="1041.933pt" height="532.356pt" version="1.1" viewBox="-617.925 2446.532 1041.933 532.356">
  <!--
	Exported with Concepts: Smarter Sketching
	Version: 1059 on iOS 15.4
	https://concepts.app/
	-->
  <title>Untitled 1</title>
  <desc>Drawing exported from Concepts: Smarter Sketching</desc>
  <defs></defs>
  <g id="New_Layer_7" opacity="1.000">
    <path id="STROKE_542297fe-958e-43e7-98be-6d59b4104fd6" opacity="1.000" fill="none" stroke="#f3ba38" stroke-width="2.269" stroke-opacity="1.000" stroke-linecap="round" stroke-linejoin="round" d="M -599.177 2510.924 Q -599.177 2510.924 -599.193 2510.924 Q -599.209 2510.925 -599.239 2510.990 Q -598.320 2510.519 -585.547 2492.710 Q -585.048 2492.047 -585.976 2497.178 Q -586.904 2502.310 -586.929 2508.453 Q -586.954 2514.595 -586.340 2520.189 Q -586.338 2520.262 -586.365 2519.378 Q -586.392 2518.494 -586.400 2518.222 "></path>
    <path id="STROKE_8a4c4ef0-6dc8-4491-837b-195ae46d9b56" opacity="1.000" fill="none" stroke="#f3ba38" stroke-width="2.380" stroke-opacity="1.000" stroke-linecap="round" stroke-linejoin="round" d="M -597.543 2524.738 Q -597.836 2524.251 -592.604 2523.718 Q -587.373 2523.185 -584.634 2522.843 Q -581.895 2522.502 -580.056 2522.616 Q -578.218 2522.729 -576.538 2523.447 Q -574.859 2524.165 -574.688 2524.191 "></path>
    <path id="STROKE_83be47d6-38e2-4d79-9d92-b9c166f2c12d" opacity="1.000" fill="none" stroke="#f3ba38" stroke-width="2.380" stroke-opacity="1.000" stroke-linecap="round" stroke-linejoin="round" d="M -600.082 2580.765 Q -600.054 2580.824 -600.220 2580.406 Q -600.385 2579.988 -600.274 2578.940 Q -600.162 2577.892 -599.106 2577.296 Q -598.049 2576.700 -597.189 2576.312 Q -596.328 2575.924 -595.920 2575.787 Q -595.512 2575.651 -593.184 2575.271 Q -590.857 2574.891 -589.220 2575.229 Q -587.584 2575.567 -586.239 2576.333 Q -584.894 2577.098 -583.865 2580.696 Q -582.836 2584.294 -582.700 2587.870 Q -582.564 2591.446 -582.950 2594.054 Q -583.335 2596.662 -585.134 2599.571 Q -586.934 2602.481 -588.154 2603.821 Q -589.375 2605.161 -590.454 2605.264 Q -591.533 2605.367 -592.103 2605.113 Q -592.672 2604.859 -592.989 2604.691 Q -593.305 2604.523 -594.171 2602.282 Q -595.037 2600.042 -595.132 2598.726 Q -595.228 2597.410 -595.248 2596.582 Q -595.268 2595.754 -595.261 2595.077 Q -595.255 2594.400 -595.188 2594.021 Q -595.121 2593.642 -594.922 2593.208 Q -594.723 2592.773 -594.565 2592.575 Q -594.407 2592.378 -594.480 2592.474 Q -594.553 2592.570 -594.525 2592.488 Q -594.496 2592.407 -592.743 2591.151 Q -590.991 2589.895 -589.037 2590.376 Q -587.083 2590.857 -586.545 2591.496 Q -586.008 2592.135 -579.654 2596.432 Q -573.300 2600.730 -573.176 2600.936 "></path>
    <path id="STROKE_118eb3b3-7498-4cfb-8377-89c5ac773254" opacity="1.000" fill="none" stroke="#f3ba38" stroke-width="2.380" stroke-opacity="1.000" stroke-linecap="round" stroke-linejoin="round" d="M -595.329 2658.551 Q -595.365 2658.551 -595.774 2658.514 Q -596.138 2657.704 -596.006 2657.873 Q -595.971 2657.367 -592.517 2657.241 Q -589.064 2657.115 -587.242 2657.642 Q -585.419 2658.169 -584.445 2658.566 Q -583.471 2658.964 -583.187 2659.759 Q -582.903 2660.554 -583.331 2661.236 Q -583.759 2661.919 -584.347 2662.347 Q -584.935 2662.776 -585.267 2663.057 Q -585.599 2663.337 -586.214 2663.693 Q -586.830 2664.049 -595.745 2669.835 Q -596.665 2670.132 -594.093 2670.071 Q -591.521 2670.010 -589.277 2670.049 Q -587.033 2670.087 -585.462 2671.244 Q -583.891 2672.400 -582.753 2673.846 Q -581.614 2675.292 -581.126 2677.633 Q -580.638 2679.974 -580.641 2681.941 Q -580.644 2683.907 -583.355 2685.750 Q -586.066 2687.593 -587.957 2688.517 Q -589.848 2689.441 -593.837 2689.562 Q -594.214 2690.351 -593.746 2688.764 Q -593.278 2687.177 -592.973 2686.958 "></path>
    <path id="STROKE_fb3b6037-0b0d-4db4-8bc5-3545b51347d4" opacity="1.000" fill="none" stroke="#f3ba38" stroke-width="2.380" stroke-opacity="1.000" stroke-linecap="round" stroke-linejoin="round" d="M -602.846 2754.025 Q -603.348 2753.927 -604.295 2753.253 Q -604.397 2753.215 -604.866 2756.352 Q -605.336 2759.489 -604.959 2761.645 Q -604.582 2763.800 -603.370 2765.056 Q -602.158 2766.312 -600.377 2766.349 Q -598.597 2766.387 -597.360 2766.323 Q -596.123 2766.259 -595.406 2765.855 Q -594.688 2765.450 -593.585 2765.314 Q -592.482 2765.179 -592.413 2765.254 "></path>
    <path id="STROKE_e2ce3949-bce4-421d-bc72-78d0ab507281" opacity="1.000" fill="none" stroke="#f3ba38" stroke-width="1.885" stroke-opacity="1.000" stroke-linecap="round" stroke-linejoin="round" d="M -591.517 2752.281 Q -591.648 2752.934 -591.073 2762.278 Q -590.499 2771.623 -592.373 2785.713 Q -592.451 2785.714 -592.485 2785.715 Q -592.528 2785.745 -592.468 2784.516 Q -592.407 2783.287 -592.299 2782.931 "></path>
    <path id="STROKE_b412aaa8-fa6a-43d7-b428-4673905643b6" opacity="1.000" fill="none" stroke="#ff9adf" stroke-width="3.400" stroke-opacity="1.000" stroke-linecap="round" stroke-linejoin="round" d="M -551.352 2495.007 Q -551.391 2493.737 -551.383 2493.976 Q -551.422 2492.697 -551.413 2493.000 Q -552.241 2492.361 -552.434 2492.328 Q -552.628 2492.295 -552.718 2492.378 Q -552.808 2492.461 -552.539 2492.326 Q -552.269 2492.190 -554.448 2492.504 Q -556.627 2492.818 -558.732 2494.308 Q -560.837 2495.797 -562.176 2496.809 Q -563.515 2497.820 -564.025 2499.763 Q -564.534 2501.706 -564.711 2502.630 Q -564.888 2503.555 -564.498 2504.988 Q -564.108 2506.422 -561.607 2507.916 Q -559.106 2509.410 -557.454 2510.682 Q -555.801 2511.955 -555.310 2512.591 Q -554.819 2513.228 -554.562 2513.908 Q -554.306 2514.588 -554.026 2516.097 Q -553.745 2517.607 -554.770 2519.546 Q -555.794 2521.484 -557.122 2522.125 Q -558.449 2522.767 -559.381 2522.892 Q -560.313 2523.016 -561.123 2522.970 Q -561.932 2522.925 -562.175 2522.491 Q -562.418 2522.058 -562.629 2521.626 Q -562.840 2521.193 -562.862 2520.742 Q -562.883 2520.292 -562.875 2520.306 Q -562.868 2520.321 -562.947 2520.301 Q -563.026 2520.281 -562.560 2519.665 Q -562.094 2519.048 -561.823 2518.840 "></path>
    <path id="STROKE_13ef0c26-4da1-49d1-bba0-946c2b70f178" opacity="1.000" fill="none" stroke="#ff9adf" stroke-width="3.400" stroke-opacity="1.000" stroke-linecap="round" stroke-linejoin="round" d="M -549.170 2477.460 Q -549.209 2476.155 -549.198 2476.548 Q -549.234 2475.334 -549.224 2475.661 Q -549.232 2475.398 -548.893 2474.891 Q -548.554 2474.383 -548.447 2474.338 Q -548.339 2474.292 -548.078 2474.033 Q -547.818 2473.773 -547.411 2473.542 Q -547.003 2473.312 -547.026 2473.320 Q -547.049 2473.329 -546.367 2472.925 Q -545.685 2472.522 -544.041 2472.691 Q -542.396 2472.860 -541.203 2473.874 Q -540.010 2474.889 -538.411 2476.719 Q -536.813 2478.549 -536.084 2480.820 Q -535.356 2483.091 -535.293 2484.827 Q -535.230 2486.562 -535.596 2487.900 Q -535.962 2489.237 -536.878 2490.595 Q -537.793 2491.952 -539.011 2492.492 Q -540.228 2493.032 -540.653 2492.943 Q -541.077 2492.853 -541.791 2492.569 Q -542.505 2492.285 -543.309 2490.632 Q -544.113 2488.979 -544.793 2487.089 Q -545.473 2485.199 -544.659 2483.954 Q -543.845 2482.708 -542.580 2481.969 Q -541.316 2481.230 -539.283 2480.942 Q -537.250 2480.654 -535.498 2480.688 Q -533.746 2480.723 -531.654 2481.449 Q -529.562 2482.174 -529.140 2482.362 "></path>
    <path id="STROKE_4543e767-1ca3-4638-9ae5-f8bca821db8d" opacity="1.000" fill="none" stroke="#ff9adf" stroke-width="3.400" stroke-opacity="1.000" stroke-linecap="round" stroke-linejoin="round" d="M -551.020 2577.132 L -551.058 2577.132 Q -550.982 2577.444 -550.994 2577.052 Q -551.005 2576.660 -551.396 2576.126 Q -551.786 2575.593 -552.073 2575.488 Q -552.360 2575.383 -552.906 2575.301 Q -553.453 2575.218 -554.170 2575.250 Q -554.886 2575.282 -556.559 2576.298 Q -558.231 2577.313 -559.962 2579.169 Q -561.693 2581.026 -562.467 2582.513 Q -563.242 2584.001 -563.332 2584.748 Q -563.423 2585.495 -562.682 2586.369 Q -561.941 2587.243 -559.159 2588.714 Q -556.376 2590.184 -554.907 2591.130 Q -553.437 2592.077 -552.743 2592.712 Q -552.048 2593.348 -550.991 2594.760 Q -549.934 2596.171 -549.747 2597.100 Q -549.559 2598.029 -550.023 2599.455 Q -550.487 2600.880 -550.926 2601.560 Q -551.365 2602.240 -552.744 2603.548 Q -554.123 2604.856 -554.940 2605.466 Q -555.757 2606.077 -556.381 2606.362 Q -557.005 2606.647 -556.983 2606.706 Q -556.962 2606.765 -557.851 2606.823 Q -558.740 2606.882 -559.542 2606.955 Q -560.345 2607.027 -560.547 2602.692 Q -560.749 2598.357 -560.908 2597.562 "></path>
    <path id="STROKE_4b68db7d-ddb0-4ca7-939a-241441a72ff6" opacity="1.000" fill="none" stroke="#ff9adf" stroke-width="3.400" stroke-opacity="1.000" stroke-linecap="round" stroke-linejoin="round" d="M -547.012 2563.832 Q -547.051 2563.907 -546.116 2562.413 Q -545.182 2560.918 -544.209 2560.399 Q -543.236 2559.879 -542.587 2559.650 Q -541.939 2559.420 -540.953 2560.082 Q -539.968 2560.744 -539.657 2561.282 Q -539.346 2561.820 -538.123 2564.322 Q -536.901 2566.825 -536.275 2569.172 Q -535.648 2571.519 -535.496 2572.801 Q -535.343 2574.083 -536.334 2575.935 Q -537.325 2577.787 -538.623 2578.825 Q -539.921 2579.863 -540.970 2579.830 Q -542.019 2579.796 -543.316 2578.974 Q -544.614 2578.151 -544.608 2577.101 Q -544.601 2576.050 -544.796 2575.032 Q -544.991 2574.015 -544.309 2572.528 Q -543.628 2571.042 -543.242 2570.727 Q -542.857 2570.413 -541.081 2569.065 Q -539.306 2567.717 -533.994 2569.929 Q -528.683 2572.142 -528.136 2572.303 "></path>
    <path id="STROKE_920c955d-b5fb-4737-afb7-5db2b15eb7d7" opacity="1.000" fill="none" stroke="#ff9adf" stroke-width="3.400" stroke-opacity="1.000" stroke-linecap="round" stroke-linejoin="round" d="M -553.843 2665.773 Q -553.844 2666.113 -556.555 2665.448 Q -559.265 2664.782 -561.372 2665.443 Q -563.480 2666.105 -564.316 2666.738 Q -565.152 2667.371 -565.885 2668.425 Q -566.618 2669.479 -566.894 2671.221 Q -567.170 2672.963 -564.421 2674.407 Q -561.672 2675.851 -559.340 2677.520 Q -557.008 2679.188 -555.775 2681.094 Q -554.542 2683.000 -554.172 2684.292 Q -553.802 2685.584 -553.827 2686.406 Q -553.852 2687.229 -554.523 2687.744 Q -555.195 2688.259 -555.918 2688.855 Q -556.641 2689.452 -564.997 2691.227 Q -565.299 2690.649 -564.766 2688.815 Q -564.233 2686.982 -563.820 2686.238 "></path>
    <path id="STROKE_fe619441-3697-44bc-9236-0a11121a24e5" opacity="1.000" fill="none" stroke="#ff9adf" stroke-width="3.400" stroke-opacity="1.000" stroke-linecap="round" stroke-linejoin="round" d="M -544.545 2645.394 Q -543.461 2643.677 -543.628 2644.309 Q -541.834 2644.256 -542.176 2644.279 Q -540.629 2644.507 -539.086 2646.429 Q -537.543 2648.351 -537.090 2651.936 Q -536.637 2655.521 -536.904 2658.229 Q -537.170 2660.938 -538.111 2662.805 Q -539.051 2664.673 -540.613 2665.417 Q -542.175 2666.161 -544.286 2665.692 Q -546.398 2665.223 -546.900 2663.090 Q -547.401 2660.958 -547.483 2659.744 Q -547.564 2658.531 -547.345 2657.691 Q -547.125 2656.850 -545.488 2656.045 Q -543.851 2655.241 -540.677 2654.795 Q -537.503 2654.349 -534.264 2656.605 Q -531.025 2658.861 -530.545 2659.012 "></path>
    <path id="STROKE_dd405cfe-5b6e-4439-8c1b-c1f3d3796e46" opacity="1.000" fill="none" stroke="#ff9adf" stroke-width="3.400" stroke-opacity="1.000" stroke-linecap="round" stroke-linejoin="round" d="M -559.916 2759.639 Q -560.586 2759.226 -562.835 2758.448 Q -565.084 2757.671 -566.843 2757.581 Q -568.602 2757.492 -569.844 2758.753 Q -571.085 2760.015 -571.305 2762.125 Q -571.526 2764.235 -571.232 2765.987 Q -570.939 2767.738 -567.740 2769.431 Q -564.542 2771.124 -562.161 2772.303 Q -559.780 2773.483 -558.457 2775.333 Q -557.134 2777.183 -556.928 2778.606 Q -556.722 2780.029 -556.945 2782.400 Q -557.168 2784.771 -561.116 2784.964 Q -565.063 2785.157 -569.876 2785.152 Q -570.352 2785.141 -569.419 2782.579 Q -568.487 2780.018 -568.004 2779.219 "></path>
    <path id="STROKE_a0d94af2-698c-4453-bf96-94e6bcf01709" opacity="1.000" fill="none" stroke="#ff9adf" stroke-width="3.400" stroke-opacity="1.000" stroke-linecap="round" stroke-linejoin="round" d="M -549.513 2743.246 Q -549.023 2743.264 -549.124 2743.269 Q -549.224 2743.275 -548.326 2742.868 Q -547.427 2742.461 -546.080 2742.325 Q -544.733 2742.189 -543.756 2742.661 Q -542.779 2743.134 -541.770 2745.041 Q -540.761 2746.948 -540.308 2749.758 Q -539.855 2752.567 -540.513 2755.364 Q -541.172 2758.160 -542.112 2759.729 Q -543.053 2761.298 -544.170 2761.959 Q -545.288 2762.619 -545.635 2762.575 Q -545.983 2762.531 -546.645 2762.478 Q -547.306 2762.425 -547.921 2761.092 Q -548.535 2759.758 -548.655 2757.189 Q -548.775 2754.621 -548.695 2753.551 Q -548.616 2752.480 -548.541 2751.855 Q -548.467 2751.229 -547.431 2750.701 Q -546.396 2750.172 -544.913 2750.224 Q -543.430 2750.275 -539.682 2751.944 Q -535.934 2753.613 -535.358 2753.782 "></path>
    <path id="STROKE_d591ab5e-f6a8-4255-a252-b3d292ae8563" opacity="1.000" fill="none" stroke="#f3ba38" stroke-width="2.380" stroke-opacity="1.000" stroke-linecap="round" stroke-linejoin="round" d="M -491.547 2575.385 Q -491.454 2575.839 -492.123 2575.435 Q -492.791 2575.031 -493.474 2574.649 Q -494.157 2574.268 -493.920 2573.283 Q -493.682 2572.298 -493.102 2571.656 Q -492.523 2571.015 -492.504 2571.056 Q -492.485 2571.098 -492.069 2570.843 Q -491.654 2570.587 -491.045 2570.163 Q -490.435 2569.738 -487.974 2569.250 Q -485.512 2568.762 -483.458 2568.802 Q -481.404 2568.842 -479.264 2570.401 Q -477.123 2571.960 -476.212 2574.536 Q -475.300 2577.111 -475.421 2580.243 Q -475.542 2583.375 -477.446 2586.672 Q -479.350 2589.969 -481.577 2591.763 Q -483.804 2593.556 -485.981 2594.300 Q -488.159 2595.044 -489.193 2594.894 Q -490.228 2594.743 -490.959 2593.885 Q -491.690 2593.028 -491.689 2591.349 Q -491.688 2589.671 -491.847 2589.069 Q -492.006 2588.467 -490.678 2586.269 Q -489.349 2584.071 -487.638 2582.993 Q -485.926 2581.915 -484.526 2581.583 Q -483.127 2581.252 -480.940 2581.949 Q -478.754 2582.646 -475.721 2585.156 Q -472.689 2587.667 -471.250 2588.974 Q -469.812 2590.281 -469.702 2590.250 "></path>
    <path id="STROKE_46b38be9-6c6e-4fc6-9092-69857d0e898c" opacity="1.000" fill="none" stroke="#f3ba38" stroke-width="2.380" stroke-opacity="1.000" stroke-linecap="round" stroke-linejoin="round" d="M -489.564 2669.419 Q -489.573 2669.211 -489.542 2669.178 Q -489.512 2669.145 -489.511 2669.098 Q -489.510 2669.051 -489.398 2668.663 Q -489.286 2668.275 -489.198 2667.873 Q -489.110 2667.470 -489.104 2667.448 Q -489.099 2667.427 -489.143 2667.589 Q -489.187 2667.751 -488.812 2666.927 Q -488.436 2666.103 -488.694 2666.314 Q -488.951 2666.525 -487.708 2665.561 Q -486.465 2664.596 -483.699 2664.253 Q -480.934 2663.910 -479.175 2664.046 Q -477.416 2664.182 -475.695 2665.865 Q -473.974 2667.548 -473.752 2669.424 Q -473.529 2671.300 -474.357 2673.241 Q -475.185 2675.183 -477.777 2677.436 Q -480.370 2679.689 -487.337 2681.408 Q -487.377 2681.032 -484.514 2680.326 Q -481.652 2679.619 -479.807 2679.621 Q -477.963 2679.623 -475.712 2680.538 Q -473.462 2681.452 -472.792 2684.654 Q -472.123 2687.856 -472.245 2689.578 Q -472.368 2691.300 -472.449 2692.029 Q -472.530 2692.758 -473.150 2693.429 Q -473.770 2694.101 -474.488 2694.454 Q -475.206 2694.807 -475.712 2695.096 Q -476.217 2695.386 -478.726 2696.099 Q -481.236 2696.812 -485.528 2696.363 Q -485.708 2695.973 -485.667 2695.640 Q -485.627 2695.306 -485.328 2694.952 Q -485.030 2694.598 -484.762 2694.492 "></path>
    <path id="STROKE_4a1a5c6e-645c-4d6f-bf70-08b919817739" opacity="1.000" fill="none" stroke="#f3ba38" stroke-width="2.380" stroke-opacity="1.000" stroke-linecap="round" stroke-linejoin="round" d="M -489.543 2753.838 Q -489.657 2753.568 -489.141 2748.123 Q -488.906 2747.514 -489.965 2750.813 Q -491.025 2754.112 -490.860 2756.749 Q -490.695 2759.385 -490.707 2760.964 Q -490.719 2762.542 -489.469 2763.775 Q -488.219 2765.008 -485.623 2765.291 Q -483.027 2765.574 -481.342 2764.242 Q -479.656 2762.910 -479.212 2762.455 "></path>
    <path id="STROKE_420e45b1-d499-464c-b0bb-48f17a73f31e" opacity="1.000" fill="none" stroke="#f3ba38" stroke-width="1.908" stroke-opacity="1.000" stroke-linecap="round" stroke-linejoin="round" d="M -476.260 2748.178 Q -476.051 2748.173 -475.993 2747.575 Q -475.923 2747.574 -475.887 2747.574 Q -475.609 2747.081 -475.720 2752.290 Q -475.831 2757.499 -477.463 2778.976 L -477.428 2778.975 Q -477.430 2778.681 -477.399 2778.129 Q -477.368 2777.578 -477.300 2777.241 "></path>
    <path id="STROKE_77e408ce-e0f1-4e3e-b731-e3569eeadd87" opacity="1.000" fill="none" stroke="#6ac0c8" stroke-width="3.400" stroke-opacity="1.000" stroke-linecap="round" stroke-linejoin="round" d="M -457.959 2573.094 Q -458.007 2573.092 -458.377 2573.038 Q -458.409 2572.956 -458.646 2572.899 Q -458.800 2572.461 -459.007 2579.896 Q -459.215 2587.331 -458.812 2595.519 Q -458.409 2603.707 -458.959 2611.400 Q -458.700 2609.983 -458.446 2600.298 Q -458.193 2590.614 -457.510 2583.603 Q -456.827 2576.593 -456.060 2573.608 Q -455.293 2570.623 -455.090 2569.214 Q -454.887 2567.806 -453.165 2566.002 Q -451.443 2564.199 -450.468 2563.281 Q -449.493 2562.364 -448.615 2561.950 Q -447.737 2561.537 -447.587 2561.630 Q -447.437 2561.724 -446.896 2561.597 Q -446.354 2561.471 -444.707 2562.235 Q -443.060 2562.999 -441.698 2565.447 Q -440.336 2567.896 -439.777 2571.320 Q -439.219 2574.744 -440.101 2578.339 Q -440.984 2581.935 -442.271 2584.328 Q -443.558 2586.722 -445.904 2588.583 Q -448.251 2590.445 -449.749 2590.825 Q -451.248 2591.205 -451.894 2591.188 Q -452.540 2591.171 -452.752 2590.788 Q -452.964 2590.405 -453.032 2589.947 Q -453.101 2589.489 -453.125 2588.684 Q -453.150 2587.879 -453.250 2587.460 "></path>
    <path id="STROKE_db734bd9-b51b-48b6-9500-0328e3e8850e" opacity="1.000" fill="none" stroke="#6ac0c8" stroke-width="3.400" stroke-opacity="1.000" stroke-linecap="round" stroke-linejoin="round" d="M -425.349 2535.172 Q -425.376 2535.116 -425.327 2535.283 Q -425.278 2535.450 -425.297 2535.342 Q -425.317 2535.233 -425.422 2534.832 Q -425.527 2534.430 -425.649 2533.958 Q -425.772 2533.486 -425.779 2533.632 Q -425.787 2533.778 -425.981 2533.396 Q -426.175 2533.014 -426.731 2532.867 Q -427.286 2532.720 -427.847 2532.432 Q -428.408 2532.145 -429.376 2533.187 Q -430.344 2534.228 -431.073 2535.277 Q -431.803 2536.326 -433.109 2538.759 Q -434.416 2541.191 -434.637 2544.169 Q -434.858 2547.148 -434.750 2548.883 Q -434.642 2550.617 -433.643 2552.220 Q -432.644 2553.823 -430.387 2555.001 Q -428.130 2556.180 -426.544 2556.290 Q -424.959 2556.399 -423.300 2556.008 Q -421.642 2555.616 -420.292 2554.237 Q -418.943 2552.857 -418.577 2551.424 Q -418.211 2549.991 -418.284 2548.533 Q -418.357 2547.074 -420.309 2546.708 Q -422.261 2546.342 -423.597 2546.310 Q -424.933 2546.279 -427.474 2547.318 Q -430.015 2548.358 -430.458 2550.717 Q -430.900 2553.075 -430.807 2553.386 "></path>
    <path id="STROKE_e249ff5c-967b-4f87-9ec4-fc8662898128" opacity="1.000" fill="none" stroke="#6ac0c8" stroke-width="3.304" stroke-opacity="1.000" stroke-linecap="round" stroke-linejoin="round" d="M -458.984 2668.551 Q -458.985 2668.600 -458.963 2667.079 Q -458.971 2668.646 -458.935 2668.542 Q -458.509 2669.526 -458.233 2682.179 Q -457.958 2694.832 -458.115 2710.922 Q -458.078 2710.922 -458.042 2710.923 Q -457.732 2709.954 -458.115 2707.983 Q -458.498 2706.012 -458.914 2703.626 Q -459.331 2701.240 -459.181 2700.006 Q -459.032 2698.773 -459.064 2694.656 Q -459.095 2690.539 -459.215 2684.792 Q -459.335 2679.044 -458.769 2675.094 Q -458.202 2671.144 -457.837 2669.422 Q -457.472 2667.700 -456.595 2665.709 Q -455.717 2663.719 -454.562 2662.454 Q -453.408 2661.188 -452.759 2660.816 Q -452.110 2660.444 -451.791 2660.285 Q -451.471 2660.126 -450.097 2660.210 Q -448.723 2660.293 -446.772 2663.495 Q -444.821 2666.698 -443.600 2668.241 Q -442.378 2669.785 -442.152 2672.273 Q -441.926 2674.762 -441.810 2676.269 Q -441.694 2677.777 -442.892 2679.825 Q -444.091 2681.874 -445.858 2683.183 Q -447.625 2684.493 -449.100 2684.652 Q -450.574 2684.812 -451.679 2684.737 Q -452.784 2684.663 -453.015 2684.002 Q -453.247 2683.341 -453.079 2681.850 Q -452.912 2680.359 -452.746 2679.816 "></path>
    <path id="STROKE_e2511e79-f23f-4355-b173-c911af9843db" opacity="1.000" fill="none" stroke="#6ac0c8" stroke-width="3.400" stroke-opacity="1.000" stroke-linecap="round" stroke-linejoin="round" d="M -423.760 2639.800 Q -423.174 2639.537 -424.755 2637.315 Q -425.672 2638.297 -427.007 2641.018 Q -428.341 2643.740 -428.815 2647.358 Q -429.289 2650.977 -429.343 2653.358 Q -429.398 2655.740 -428.897 2657.307 Q -428.396 2658.873 -427.430 2660.004 Q -426.463 2661.135 -424.374 2661.525 Q -422.284 2661.915 -420.469 2661.634 Q -418.654 2661.352 -417.162 2660.140 Q -415.671 2658.927 -415.663 2655.772 Q -415.963 2655.520 -417.583 2655.168 Q -419.202 2654.816 -420.725 2654.571 Q -422.248 2654.326 -424.179 2654.362 Q -426.110 2654.397 -426.964 2655.289 Q -427.818 2656.180 -428.074 2657.261 Q -428.330 2658.343 -428.492 2658.649 "></path>
    <path id="STROKE_118fd4a4-dcc6-45fd-990c-465b7d3b0161" opacity="1.000" fill="none" stroke="#6ac0c8" stroke-width="3.246" stroke-opacity="1.000" stroke-linecap="round" stroke-linejoin="round" d="M -461.387 2752.550 Q -462.702 2753.063 -462.233 2752.902 Q -462.490 2754.136 -462.413 2753.991 Q -462.343 2754.210 -462.501 2765.244 Q -462.659 2776.278 -463.424 2804.239 Q -463.114 2802.666 -462.491 2798.293 Q -461.868 2793.920 -461.663 2790.740 Q -461.458 2787.560 -461.669 2783.669 Q -461.880 2779.778 -461.923 2772.748 Q -461.966 2765.718 -462.376 2761.656 Q -462.786 2757.593 -456.870 2745.157 Q -456.736 2744.299 -453.660 2746.697 Q -450.583 2749.094 -448.928 2752.330 Q -447.273 2755.565 -446.740 2758.064 Q -446.208 2760.564 -446.068 2761.886 Q -445.928 2763.209 -446.862 2765.464 Q -447.796 2767.719 -450.013 2769.173 Q -452.230 2770.626 -457.037 2771.295 Q -457.053 2770.816 -457.026 2770.494 Q -456.999 2770.172 -456.954 2769.792 "></path>
    <path id="STROKE_449cec87-ef6a-444a-8c7d-eb9e3da804c6" opacity="1.000" fill="none" stroke="#6ac0c8" stroke-width="3.400" stroke-opacity="1.000" stroke-linecap="round" stroke-linejoin="round" d="M -432.297 2735.269 Q -432.004 2735.693 -432.898 2733.930 Q -432.804 2734.101 -432.765 2733.876 Q -432.725 2733.652 -433.869 2734.355 Q -435.013 2735.059 -436.203 2739.110 Q -437.392 2743.161 -437.572 2746.451 Q -437.752 2749.742 -437.311 2751.675 Q -436.871 2753.608 -436.022 2754.710 Q -435.173 2755.812 -433.822 2756.217 Q -432.472 2756.622 -430.778 2756.234 Q -429.084 2755.846 -427.270 2754.535 Q -425.457 2753.225 -424.167 2751.302 Q -422.877 2749.379 -422.670 2747.921 Q -422.462 2746.462 -422.548 2745.100 Q -422.633 2743.738 -423.679 2743.709 Q -424.724 2743.680 -425.346 2743.635 Q -425.967 2743.591 -426.767 2743.959 Q -427.567 2744.327 -428.013 2744.559 Q -428.458 2744.792 -431.220 2746.260 Q -433.983 2747.727 -435.057 2749.551 Q -436.131 2751.375 -436.270 2751.676 "></path>
    <path id="STROKE_c769d9d7-5b9c-435f-be6d-f4a1adb3a758" opacity="1.000" fill="none" stroke="#f3ba38" stroke-width="2.380" stroke-opacity="1.000" stroke-linecap="round" stroke-linejoin="round" d="M -382.165 2663.449 Q -382.428 2663.471 -383.219 2663.079 Q -383.938 2662.781 -380.945 2662.405 Q -377.952 2662.029 -374.739 2662.473 Q -371.526 2662.917 -370.000 2663.390 Q -368.474 2663.863 -367.353 2664.714 Q -366.232 2665.565 -365.313 2666.600 Q -364.394 2667.634 -364.728 2668.965 Q -365.062 2670.295 -366.760 2671.621 Q -368.457 2672.947 -375.060 2674.372 Q -375.294 2674.128 -372.133 2674.716 Q -368.973 2675.303 -366.795 2676.510 Q -364.618 2677.717 -363.737 2679.000 Q -362.856 2680.283 -362.474 2681.452 Q -362.091 2682.621 -362.667 2683.547 Q -363.243 2684.474 -364.132 2684.938 Q -365.022 2685.402 -365.698 2685.658 Q -366.374 2685.914 -366.653 2686.160 Q -366.932 2686.406 -370.902 2687.463 Q -374.872 2688.520 -381.587 2687.337 Q -381.311 2687.523 -381.628 2687.331 Q -381.944 2687.139 -381.083 2687.735 Q -380.222 2688.332 -379.931 2688.552 "></path>
    <path id="STROKE_be4439a5-5537-4c55-a8cf-3843489c4da4" opacity="1.000" fill="none" stroke="#f3ba38" stroke-width="2.380" stroke-opacity="1.000" stroke-linecap="round" stroke-linejoin="round" d="M -385.249 2742.498 Q -385.268 2741.587 -385.265 2741.734 Q -385.267 2741.667 -385.267 2741.633 Q -385.212 2741.180 -385.750 2745.368 Q -386.288 2749.556 -386.107 2751.733 Q -385.927 2753.911 -385.760 2755.165 Q -385.592 2756.419 -384.581 2757.319 Q -383.569 2758.218 -381.384 2758.642 Q -379.200 2759.065 -376.147 2757.278 Q -373.093 2755.491 -372.883 2755.266 "></path>
    <path id="STROKE_b92d97e7-c371-4d44-947e-113d6d25da6d" opacity="1.000" fill="none" stroke="#f3ba38" stroke-width="1.926" stroke-opacity="1.000" stroke-linecap="round" stroke-linejoin="round" d="M -371.507 2742.422 Q -371.569 2742.390 -372.186 2741.418 Q -372.269 2741.682 -371.920 2749.850 Q -371.571 2758.019 -372.417 2773.721 Q -372.450 2773.722 -372.575 2773.725 Q -372.621 2773.089 -372.536 2772.879 Q -372.451 2772.669 -372.312 2772.276 "></path>
    <path id="STROKE_c04d7789-9e4f-47ed-a43e-1071bfd96c84" opacity="1.000" fill="none" stroke="#71c047" stroke-width="2.957" stroke-opacity="1.000" stroke-linecap="round" stroke-linejoin="round" d="M -345.490 2668.917 Q -345.633 2669.200 -345.467 2667.566 Q -345.301 2665.933 -345.213 2665.194 Q -345.125 2664.456 -345.279 2664.127 Q -345.433 2663.799 -346.004 2663.387 Q -346.575 2662.975 -346.463 2663.039 Q -346.352 2663.104 -347.115 2663.011 Q -347.878 2662.919 -349.053 2663.517 Q -350.228 2664.115 -351.946 2667.031 Q -353.664 2669.947 -354.330 2673.333 Q -354.996 2676.719 -355.093 2678.667 Q -355.191 2680.614 -355.038 2682.855 Q -354.885 2685.095 -353.899 2686.233 Q -352.914 2687.371 -351.028 2687.163 Q -349.142 2686.956 -345.587 2682.142 Q -342.032 2677.328 -339.380 2671.752 Q -336.727 2666.175 -335.410 2661.198 Q -334.093 2656.220 -333.802 2652.398 Q -333.511 2648.575 -334.245 2641.746 Q -335.728 2641.964 -337.200 2647.333 Q -338.671 2652.701 -339.179 2659.800 Q -339.687 2666.899 -339.534 2670.543 Q -339.382 2674.187 -339.237 2675.961 Q -339.092 2677.735 -338.362 2678.594 Q -337.632 2679.453 -336.886 2679.677 Q -336.139 2679.901 -334.584 2679.527 Q -333.029 2679.153 -331.323 2677.742 Q -329.616 2676.331 -329.390 2676.109 "></path>
    <path id="STROKE_551110bd-b042-45b3-9eea-517fa389f367" opacity="1.000" fill="none" stroke="#71c047" stroke-width="3.008" stroke-opacity="1.000" stroke-linecap="round" stroke-linejoin="round" d="M -350.518 2755.071 Q -350.289 2753.934 -350.267 2754.098 Q -349.914 2754.208 -349.519 2749.941 Q -349.474 2750.040 -350.660 2749.796 Q -351.845 2749.552 -353.649 2750.344 Q -355.452 2751.137 -356.888 2753.318 Q -358.323 2755.500 -358.924 2759.208 Q -359.526 2762.917 -359.491 2766.208 Q -359.455 2769.498 -358.402 2771.268 Q -357.349 2773.038 -355.959 2772.808 Q -354.568 2772.579 -353.246 2771.180 Q -351.923 2769.782 -348.975 2764.826 Q -346.027 2759.871 -343.496 2753.899 Q -340.964 2747.927 -340.493 2737.025 Q -340.652 2737.025 -340.879 2736.889 Q -341.105 2736.752 -341.839 2738.337 Q -342.572 2739.921 -343.255 2742.107 Q -343.938 2744.293 -344.279 2745.731 Q -344.621 2747.170 -345.046 2748.116 Q -345.471 2749.062 -345.831 2753.176 Q -346.190 2757.289 -346.224 2759.680 Q -346.258 2762.071 -346.084 2764.667 Q -345.910 2767.263 -344.957 2768.949 Q -344.003 2770.635 -343.094 2771.415 Q -342.184 2772.194 -341.458 2772.274 Q -340.732 2772.354 -340.109 2772.553 Q -339.486 2772.752 -336.965 2769.938 Q -334.443 2767.123 -334.299 2766.975 "></path>
    <path id="STROKE_7068b692-eac0-41db-93a4-362b4f8eb498" opacity="1.000" fill="none" stroke="#71c047" stroke-width="3.060" stroke-opacity="1.000" stroke-linecap="round" stroke-linejoin="round" d="M -328.668 2621.998 Q -328.702 2621.726 -328.641 2622.112 Q -328.579 2622.498 -329.040 2620.090 Q -328.420 2620.807 -325.859 2634.275 Q -325.778 2634.334 -325.509 2634.338 Q -325.241 2634.343 -324.929 2634.328 "></path>
    <path id="STROKE_7da96319-5416-4113-b3c4-d28f37224718" opacity="1.000" fill="none" stroke="#71c047" stroke-width="3.060" stroke-opacity="1.000" stroke-linecap="round" stroke-linejoin="round" d="M -319.706 2617.104 Q -319.708 2617.072 -319.756 2616.978 Q -319.799 2616.979 -319.996 2616.924 Q -319.912 2617.162 -319.839 2620.984 Q -319.766 2624.806 -319.705 2627.085 Q -319.644 2629.365 -319.091 2630.853 Q -318.537 2632.340 -317.461 2632.872 Q -316.385 2633.403 -315.335 2633.349 Q -314.284 2633.294 -312.620 2632.420 Q -310.957 2631.546 -309.755 2630.096 Q -308.553 2628.646 -307.869 2627.551 Q -307.185 2626.456 -306.981 2624.377 Q -306.778 2622.298 -307.203 2620.925 Q -307.628 2619.551 -308.658 2618.492 Q -309.687 2617.433 -311.553 2616.987 Q -313.419 2616.541 -314.816 2617.022 Q -316.212 2617.503 -316.753 2618.278 Q -317.293 2619.053 -317.546 2619.413 "></path>
    <path id="STROKE_ae53c38f-d71b-4ffa-8aec-fa3321d50864" opacity="1.000" fill="none" stroke="#71c047" stroke-width="3.060" stroke-opacity="1.000" stroke-linecap="round" stroke-linejoin="round" d="M -322.528 2732.284 Q -322.690 2731.993 -322.792 2727.385 Q -322.325 2726.672 -324.208 2747.816 Q -324.243 2748.107 -323.208 2746.836 Q -322.173 2745.566 -321.753 2745.082 "></path>
    <path id="STROKE_08d474a0-8d33-4870-8b5d-fea57feaa882" opacity="1.000" fill="none" stroke="#71c047" stroke-width="3.060" stroke-opacity="1.000" stroke-linecap="round" stroke-linejoin="round" d="M -309.753 2728.325 Q -309.902 2727.952 -310.473 2728.044 Q -310.679 2727.995 -311.498 2732.219 Q -312.318 2736.443 -312.440 2739.455 Q -312.562 2742.468 -312.466 2744.021 Q -312.369 2745.574 -312.271 2746.281 Q -312.172 2746.988 -311.530 2747.787 Q -310.887 2748.586 -310.050 2748.710 Q -309.212 2748.833 -307.685 2748.803 Q -306.157 2748.772 -303.826 2747.354 Q -301.495 2745.935 -300.274 2743.287 Q -299.053 2740.639 -299.062 2738.321 Q -299.071 2736.002 -299.691 2734.198 Q -300.311 2732.394 -301.280 2730.554 Q -302.249 2728.714 -305.030 2728.388 Q -307.812 2728.063 -308.174 2728.071 "></path>
    <path id="STROKE_1e2ccde6-09a2-4734-bf58-9a1799195e2e" opacity="1.000" fill="none" stroke="#f3ba38" stroke-width="2.380" stroke-opacity="1.000" stroke-linecap="round" stroke-linejoin="round" d="M -266.410 2735.360 Q -266.368 2735.637 -266.549 2733.673 Q -266.583 2733.674 -266.618 2733.675 Q -266.603 2733.347 -266.685 2735.631 Q -266.766 2737.915 -266.867 2739.378 Q -266.967 2740.842 -265.974 2742.092 Q -264.981 2743.342 -264.160 2743.886 Q -263.340 2744.430 -262.909 2744.500 Q -262.479 2744.570 -262.193 2744.718 Q -261.906 2744.865 -259.821 2745.245 Q -257.735 2745.625 -256.293 2744.340 Q -254.850 2743.055 -254.530 2742.713 "></path>
    <path id="STROKE_d0949632-496f-4044-9698-0b082dddad02" opacity="1.000" fill="none" stroke="#f3ba38" stroke-width="2.203" stroke-opacity="1.000" stroke-linecap="round" stroke-linejoin="round" d="M -252.454 2729.423 Q -252.985 2730.803 -252.760 2730.377 Q -252.849 2732.021 -252.793 2731.822 Q -252.663 2731.960 -251.798 2759.917 Q -251.727 2759.949 -251.622 2759.979 Q -251.667 2759.036 -251.606 2759.048 Q -251.545 2759.060 -251.441 2758.797 "></path>
    <path id="STROKE_b98b03d1-2dc9-411a-ad16-cf192870f463" opacity="1.000" fill="none" stroke="#f45e58" stroke-width="3.060" stroke-opacity="1.000" stroke-linecap="round" stroke-linejoin="round" d="M -221.284 2733.848 Q -221.343 2733.470 -221.305 2732.195 Q -221.267 2730.920 -221.452 2730.139 Q -221.638 2729.357 -222.134 2728.658 Q -222.630 2727.958 -223.437 2727.505 Q -224.244 2727.052 -224.607 2727.019 Q -224.970 2726.985 -225.041 2726.908 Q -225.113 2726.832 -225.955 2726.754 Q -226.798 2726.676 -227.762 2727.495 Q -228.726 2728.313 -229.427 2729.315 Q -230.128 2730.316 -230.732 2731.627 Q -231.336 2732.938 -231.669 2735.599 Q -232.001 2738.260 -230.905 2744.777 Q -229.809 2751.294 -229.157 2756.697 Q -228.505 2762.099 -228.696 2766.346 Q -228.887 2770.594 -229.576 2773.139 Q -230.264 2775.684 -230.956 2776.939 Q -231.649 2778.195 -231.682 2778.203 Q -231.714 2778.211 -232.115 2778.291 Q -232.516 2778.370 -232.596 2778.446 Q -232.677 2778.522 -233.248 2778.167 Q -233.818 2777.811 -234.192 2777.467 Q -234.566 2777.122 -234.928 2776.452 Q -235.291 2775.783 -235.375 2775.656 Q -235.458 2775.528 -236.853 2772.086 Q -238.247 2768.644 -238.613 2767.890 "></path>
    <path id="STROKE_43c36051-7077-42d4-bab5-09761a6bd512" opacity="1.000" fill="none" stroke="#f45e58" stroke-width="3.060" stroke-opacity="1.000" stroke-linecap="round" stroke-linejoin="round" d="M -243.329 2751.495 Q -243.050 2751.555 -238.947 2751.239 Q -234.844 2750.922 -231.578 2751.513 Q -228.313 2752.104 -225.653 2752.772 Q -222.994 2753.440 -222.516 2753.567 "></path>
    <path id="STROKE_40867431-f8db-4529-b183-2e533dd0149d" opacity="1.000" fill="none" stroke="#f45e58" stroke-width="3.060" stroke-opacity="1.000" stroke-linecap="round" stroke-linejoin="round" d="M -215.362 2699.917 Q -215.514 2699.340 -214.030 2716.437 Q -213.844 2716.369 -213.382 2715.485 Q -212.919 2714.601 -212.651 2714.115 "></path>
    <path id="STROKE_b5b222e2-1786-418a-9818-bc2a39a086e5" opacity="1.000" fill="none" stroke="#f45e58" stroke-width="3.060" stroke-opacity="1.000" stroke-linecap="round" stroke-linejoin="round" d="M -204.788 2695.295 Q -205.863 2695.567 -205.551 2695.500 Q -205.692 2695.651 -205.938 2696.157 Q -206.183 2696.663 -206.073 2696.649 Q -205.963 2696.636 -206.124 2696.791 Q -206.285 2696.947 -206.599 2699.200 Q -206.913 2701.454 -206.344 2703.008 Q -205.774 2704.562 -205.237 2705.329 Q -204.701 2706.096 -202.738 2706.678 Q -200.776 2707.260 -199.244 2707.157 Q -197.713 2707.055 -196.848 2706.678 Q -195.984 2706.302 -195.694 2706.065 "></path>
    <path id="STROKE_d510e560-99f9-4ba4-bcf7-289e523c0502" opacity="1.000" fill="none" stroke="#f45e58" stroke-width="2.943" stroke-opacity="1.000" stroke-linecap="round" stroke-linejoin="round" d="M -195.464 2692.194 Q -195.020 2692.317 -194.533 2699.476 Q -194.047 2706.634 -195.965 2717.310 Q -195.987 2716.773 -195.957 2716.250 Q -195.927 2715.727 -195.840 2715.317 "></path>
    <path id="STROKE_b919dc1c-3c26-44d3-bf43-17991c3d83df" opacity="1.000" fill="none" stroke="#f3ba38" stroke-width="2.277" stroke-opacity="1.000" stroke-linecap="round" stroke-linejoin="round" d="M -582.913 2829.954 Q -583.691 2829.928 -583.373 2829.951 Q -583.055 2829.975 -584.229 2829.841 Q -585.403 2829.708 -587.531 2829.742 Q -589.659 2829.776 -590.691 2829.915 Q -591.723 2830.054 -593.708 2830.603 Q -595.692 2831.151 -604.016 2832.329 Q -603.990 2832.330 -603.491 2832.372 Q -603.518 2833.297 -603.385 2832.944 Q -603.252 2832.591 -603.202 2839.383 Q -603.153 2846.175 -603.296 2853.630 Q -603.812 2854.068 -602.189 2852.808 Q -600.566 2851.548 -598.802 2850.546 Q -597.039 2849.544 -595.920 2849.037 Q -594.801 2848.530 -593.580 2848.419 Q -592.360 2848.309 -591.118 2848.463 Q -589.876 2848.617 -588.686 2850.835 Q -587.495 2853.054 -587.089 2856.672 Q -586.683 2860.291 -586.627 2862.942 Q -586.570 2865.593 -587.321 2866.977 Q -588.071 2868.361 -589.603 2869.112 Q -591.134 2869.862 -592.353 2870.221 Q -593.572 2870.580 -594.443 2870.318 Q -595.314 2870.055 -595.578 2869.706 Q -595.843 2869.356 -596.065 2868.903 Q -596.287 2868.449 -596.216 2868.595 Q -596.145 2868.741 -596.185 2868.802 Q -596.225 2868.862 -596.164 2868.505 Q -596.104 2868.148 -596.039 2868.014 "></path>
    <path id="STROKE_94597f2a-dd22-4df6-952c-c74b6ba80cc5" opacity="1.000" fill="none" stroke="#ff9adf" stroke-width="3.400" stroke-opacity="1.000" stroke-linecap="round" stroke-linejoin="round" d="M -553.853 2835.551 Q -553.693 2835.653 -553.619 2832.697 Q -553.414 2832.713 -555.815 2832.212 Q -558.215 2831.710 -560.880 2833.116 Q -563.546 2834.521 -565.026 2835.656 Q -566.507 2836.792 -567.815 2838.215 Q -569.124 2839.638 -569.623 2841.558 Q -570.122 2843.478 -570.114 2844.840 Q -570.106 2846.201 -569.214 2847.684 Q -568.322 2849.167 -565.966 2850.790 Q -563.609 2852.414 -561.649 2853.622 Q -559.689 2854.830 -558.609 2856.735 Q -557.529 2858.641 -557.483 2861.156 Q -557.436 2863.672 -557.884 2865.213 Q -558.332 2866.754 -569.440 2870.214 Q -569.755 2869.793 -568.000 2867.557 Q -566.244 2865.322 -565.877 2864.946 "></path>
    <path id="STROKE_25995093-252a-4701-85eb-84b2b777f036" opacity="1.000" fill="none" stroke="#ff9adf" stroke-width="3.400" stroke-opacity="1.000" stroke-linecap="round" stroke-linejoin="round" d="M -543.456 2814.999 Q -543.334 2814.549 -543.294 2814.563 Q -543.435 2814.169 -542.234 2814.100 Q -541.033 2814.030 -539.604 2815.292 Q -538.174 2816.554 -537.323 2817.653 Q -536.473 2818.752 -536.020 2821.547 Q -535.566 2824.343 -535.754 2826.449 Q -535.942 2828.555 -536.515 2830.257 Q -537.088 2831.959 -537.895 2833.023 Q -538.702 2834.086 -539.356 2834.625 Q -540.010 2835.164 -541.278 2835.542 Q -542.546 2835.919 -543.880 2835.847 Q -545.215 2835.774 -545.617 2835.290 Q -546.019 2834.805 -546.049 2834.358 Q -546.079 2833.911 -546.128 2833.551 Q -546.176 2833.191 -546.117 2832.382 Q -546.058 2831.573 -544.634 2829.586 Q -543.209 2827.599 -542.278 2826.746 Q -541.347 2825.893 -540.701 2825.183 Q -540.055 2824.473 -538.295 2825.137 Q -536.534 2825.802 -532.053 2828.776 Q -527.571 2831.750 -527.385 2831.867 "></path>
    <path id="STROKE_c4f1654a-0de9-4ece-8caa-29762732b4de" opacity="1.000" fill="none" stroke="#f3ba38" stroke-width="2.340" stroke-opacity="1.000" stroke-linecap="round" stroke-linejoin="round" d="M -594.693 2914.941 Q -594.693 2914.941 -594.765 2914.928 Q -594.838 2914.915 -595.127 2914.644 Q -595.416 2914.373 -595.381 2914.463 Q -595.345 2914.553 -595.573 2914.541 Q -595.800 2914.529 -596.212 2914.678 Q -596.623 2914.827 -598.400 2917.518 Q -600.177 2920.209 -601.428 2922.792 Q -602.680 2925.375 -603.774 2928.139 Q -604.869 2930.902 -605.378 2933.947 Q -605.886 2936.992 -605.784 2939.104 Q -605.681 2941.215 -604.950 2942.817 Q -604.218 2944.419 -603.608 2945.348 Q -602.998 2946.278 -601.460 2947.127 Q -599.922 2947.976 -597.502 2946.767 Q -595.081 2945.558 -593.161 2943.651 Q -591.241 2941.744 -590.811 2940.166 Q -590.381 2938.588 -590.629 2937.203 Q -590.878 2935.818 -591.658 2934.738 Q -592.438 2933.658 -594.800 2933.379 Q -597.162 2933.101 -598.904 2933.145 Q -600.646 2933.188 -601.555 2933.458 Q -602.464 2933.728 -603.004 2933.824 Q -603.545 2933.920 -604.510 2935.336 Q -605.476 2936.753 -605.320 2941.187 Q -605.711 2941.404 -604.698 2941.239 Q -603.685 2941.074 -603.386 2940.855 "></path>
    <path id="STROKE_c013ced4-0627-4712-8fda-cb0b66203387" opacity="1.000" fill="none" stroke="#ff9adf" stroke-width="3.400" stroke-opacity="1.000" stroke-linecap="round" stroke-linejoin="round" d="M -562.808 2913.226 Q -563.583 2912.700 -563.571 2912.682 Q -563.984 2912.290 -565.598 2911.704 Q -567.211 2911.118 -569.091 2912.489 Q -570.971 2913.860 -571.982 2915.122 Q -572.994 2916.383 -574.742 2918.353 Q -576.490 2920.323 -577.047 2922.214 Q -577.604 2924.104 -577.967 2925.719 Q -578.330 2927.333 -575.171 2928.613 Q -572.012 2929.892 -570.023 2930.455 Q -568.034 2931.018 -566.906 2931.811 Q -565.778 2932.604 -564.761 2933.687 Q -563.745 2934.770 -563.374 2937.267 Q -563.004 2939.764 -562.898 2941.454 Q -562.792 2943.144 -563.472 2944.404 Q -564.151 2945.665 -564.876 2946.386 Q -565.601 2947.108 -566.246 2947.425 Q -566.891 2947.741 -567.258 2947.898 Q -567.625 2948.054 -567.931 2948.340 Q -568.238 2948.625 -569.497 2949.064 Q -570.756 2949.504 -571.549 2949.533 Q -572.342 2949.562 -572.701 2949.272 Q -573.059 2948.983 -573.232 2948.570 Q -573.405 2948.157 -573.529 2947.133 Q -573.653 2946.109 -573.294 2945.615 Q -572.934 2945.120 -572.635 2944.817 "></path>
    <path id="STROKE_7f9065bd-1bf6-41c4-a8f7-a4eddbf4741b" opacity="1.000" fill="none" stroke="#ff9adf" stroke-width="3.400" stroke-opacity="1.000" stroke-linecap="round" stroke-linejoin="round" d="M -552.993 2898.658 Q -552.626 2898.119 -552.131 2897.605 Q -551.636 2897.092 -551.067 2896.677 Q -550.498 2896.262 -550.344 2896.294 Q -550.190 2896.327 -549.844 2896.396 Q -549.499 2896.465 -548.535 2898.058 Q -547.572 2899.651 -546.918 2900.585 Q -546.263 2901.520 -545.804 2904.184 Q -545.345 2906.847 -545.309 2908.437 Q -545.273 2910.026 -545.548 2911.691 Q -545.824 2913.356 -546.620 2914.720 Q -547.416 2916.084 -548.977 2916.743 Q -550.539 2917.402 -551.520 2917.371 Q -552.501 2917.340 -552.958 2917.316 Q -553.416 2917.292 -554.064 2916.371 Q -554.711 2915.450 -554.730 2914.349 Q -554.749 2913.247 -554.660 2912.459 Q -554.570 2911.672 -553.578 2910.781 Q -552.586 2909.891 -551.032 2909.195 Q -549.478 2908.500 -547.674 2908.840 Q -545.871 2909.181 -541.986 2911.545 Q -538.102 2913.908 -537.939 2914.042 "></path>
    <path id="STROKE_1da3a2f1-72c9-4940-9bae-9cd021f644f8" opacity="1.000" fill="none" stroke="#f3ba38" stroke-width="2.380" stroke-opacity="1.000" stroke-linecap="round" stroke-linejoin="round" d="M -491.817 2838.706 Q -491.819 2837.951 -491.819 2837.904 Q -491.819 2837.858 -491.818 2837.820 Q -491.818 2837.782 -491.815 2837.788 Q -491.812 2837.792 -491.847 2836.639 L -491.873 2836.639 Q -491.970 2837.103 -492.931 2840.770 Q -493.891 2844.437 -494.095 2847.308 Q -494.299 2850.179 -494.269 2851.739 Q -494.240 2853.299 -493.684 2854.689 Q -493.128 2856.078 -491.084 2856.346 Q -489.039 2856.615 -486.771 2855.655 Q -484.503 2854.696 -482.820 2854.205 Q -481.137 2853.714 -479.809 2854.817 Q -479.835 2854.624 -479.862 2854.432 "></path>
    <path id="STROKE_51f71e2e-222c-4ae0-adc3-b9889c2ed72c" opacity="1.000" fill="none" stroke="#f3ba38" stroke-width="1.952" stroke-opacity="1.000" stroke-linecap="round" stroke-linejoin="round" d="M -476.482 2834.422 Q -476.483 2833.613 -476.483 2833.793 Q -476.483 2833.633 -476.287 2833.228 Q -475.039 2833.606 -479.014 2865.830 Q -478.851 2865.219 -478.861 2865.310 Q -478.850 2865.108 -478.721 2864.310 Q -478.591 2863.512 -478.489 2863.261 "></path>
    <path id="STROKE_93d67e6c-c159-4664-8e89-f35e4797b423" opacity="1.000" fill="none" stroke="#6ac0c8" stroke-width="3.370" stroke-opacity="1.000" stroke-linecap="round" stroke-linejoin="round" d="M -464.872 2840.944 Q -465.276 2839.825 -463.577 2838.206 Q -463.374 2838.164 -463.182 2841.710 Q -462.991 2845.257 -463.640 2851.644 Q -464.289 2858.030 -464.982 2863.619 Q -465.675 2869.208 -465.982 2872.698 Q -466.289 2876.188 -466.229 2880.811 Q -466.169 2885.433 -467.104 2891.750 Q -467.169 2891.663 -467.038 2883.837 Q -466.906 2876.010 -466.880 2870.434 Q -466.854 2864.857 -466.785 2860.765 Q -466.716 2856.673 -465.344 2852.336 Q -463.971 2847.999 -462.239 2844.370 Q -460.507 2840.742 -459.978 2839.137 Q -459.450 2837.533 -459.042 2836.883 Q -458.634 2836.233 -458.392 2836.117 Q -458.149 2836.001 -457.836 2835.989 Q -457.523 2835.976 -457.718 2836.015 Q -457.913 2836.053 -456.858 2835.901 Q -455.803 2835.749 -454.708 2836.644 Q -453.612 2837.539 -452.680 2839.329 Q -451.747 2841.119 -451.066 2844.049 Q -450.384 2846.979 -450.244 2849.350 Q -450.104 2851.720 -450.460 2853.601 Q -450.815 2855.482 -452.222 2857.136 Q -453.628 2858.790 -455.417 2859.733 Q -457.206 2860.675 -458.336 2860.807 Q -459.466 2860.939 -459.768 2860.920 Q -460.070 2860.901 -460.295 2860.511 Q -460.521 2860.121 -460.499 2860.063 Q -460.477 2860.005 -460.511 2860.025 Q -460.545 2860.045 -460.381 2859.453 Q -460.217 2858.862 -460.003 2858.585 "></path>
    <path id="STROKE_f78f1a78-0dde-41ac-b0af-9539afb22a8e" opacity="1.000" fill="none" stroke="#6ac0c8" stroke-width="3.400" stroke-opacity="1.000" stroke-linecap="round" stroke-linejoin="round" d="M -435.433 2825.394 Q -435.835 2825.220 -437.526 2824.192 Q -438.543 2824.407 -438.673 2828.398 Q -438.804 2832.390 -438.896 2834.876 Q -438.988 2837.362 -438.379 2839.393 Q -437.771 2841.424 -437.193 2842.682 Q -436.615 2843.939 -435.610 2844.612 Q -434.605 2845.284 -433.101 2845.291 Q -431.598 2845.297 -430.162 2843.411 Q -428.727 2841.524 -428.540 2840.177 Q -428.354 2838.829 -428.222 2837.591 Q -428.090 2836.353 -428.918 2835.851 Q -429.747 2835.349 -431.428 2835.421 Q -433.110 2835.494 -434.553 2836.209 Q -435.996 2836.925 -437.217 2837.813 Q -438.439 2838.702 -438.956 2839.445 Q -439.474 2840.188 -439.511 2840.711 Q -439.548 2841.235 -439.554 2841.569 Q -439.559 2841.904 -439.062 2842.078 Q -438.564 2842.251 -438.131 2842.340 Q -437.699 2842.429 -437.450 2842.512 "></path>
    <path id="STROKE_4a62337c-c1e6-4ae7-8bb2-ab15da949eaf" opacity="1.000" fill="none" stroke="#f3ba38" stroke-width="2.269" stroke-opacity="1.000" stroke-linecap="round" stroke-linejoin="round" d="M 2.722 2511.940 Q 2.722 2511.940 2.707 2511.941 Q 2.692 2511.941 2.664 2512.004 Q 3.532 2511.534 15.345 2494.231 Q 15.807 2493.586 15.034 2498.511 Q 14.261 2503.436 14.373 2509.307 Q 14.486 2515.178 15.196 2520.511 Q 15.200 2520.581 15.155 2519.736 Q 15.109 2518.891 15.096 2518.632 "></path>
    <path id="STROKE_1d930081-cd68-4a91-800f-91e3e433cb9f" opacity="1.000" fill="none" stroke="#f3ba38" stroke-width="2.380" stroke-opacity="1.000" stroke-linecap="round" stroke-linejoin="round" d="M 4.590 2525.106 Q 4.299 2524.647 9.287 2524.022 Q 14.275 2523.396 16.886 2523.009 Q 19.496 2522.623 21.255 2522.690 Q 23.015 2522.758 24.636 2523.407 Q 26.257 2524.056 26.421 2524.078 "></path>
    <path id="STROKE_1f2557a3-8032-4f36-a238-b29c44f78349" opacity="1.000" fill="none" stroke="#f3ba38" stroke-width="2.380" stroke-opacity="1.000" stroke-linecap="round" stroke-linejoin="round" d="M 3.405 2578.708 Q 3.433 2578.764 3.265 2578.368 Q 3.098 2577.973 3.181 2576.968 Q 3.264 2575.964 4.261 2575.371 Q 5.258 2574.778 6.071 2574.388 Q 6.885 2573.998 7.272 2573.859 Q 7.660 2573.720 9.876 2573.305 Q 12.091 2572.890 13.663 2573.177 Q 15.234 2573.463 16.537 2574.166 Q 17.839 2574.868 18.902 2578.283 Q 19.966 2581.698 20.175 2585.113 Q 20.384 2588.528 20.073 2591.029 Q 19.763 2593.530 18.107 2596.350 Q 16.452 2599.171 15.315 2600.479 Q 14.178 2601.787 13.150 2601.909 Q 12.121 2602.031 11.571 2601.801 Q 11.021 2601.571 10.715 2601.418 Q 10.408 2601.265 9.531 2599.142 Q 8.654 2597.020 8.533 2595.764 Q 8.413 2594.509 8.376 2593.718 Q 8.338 2592.927 8.329 2592.280 Q 8.320 2591.632 8.376 2591.269 Q 8.432 2590.905 8.612 2590.486 Q 8.793 2590.066 8.939 2589.873 Q 9.086 2589.681 9.018 2589.774 Q 8.951 2589.868 8.976 2589.789 Q 9.002 2589.710 10.649 2588.471 Q 12.296 2587.232 14.174 2587.649 Q 16.052 2588.065 16.580 2588.664 Q 17.108 2589.263 23.276 2593.229 Q 29.443 2597.196 29.566 2597.390 "></path>
    <path id="STROKE_93c1b739-8c46-444d-ac19-b16ac8f4abb0" opacity="1.000" fill="none" stroke="#f3ba38" stroke-width="2.380" stroke-opacity="1.000" stroke-linecap="round" stroke-linejoin="round" d="M 9.671 2652.944 Q 9.637 2652.945 9.245 2652.919 Q 8.880 2652.152 9.009 2652.311 Q 9.031 2651.827 12.329 2651.630 Q 15.627 2651.432 17.380 2651.896 Q 19.133 2652.359 20.073 2652.718 Q 21.013 2653.076 21.302 2653.829 Q 21.592 2654.583 21.198 2655.244 Q 20.804 2655.906 20.251 2656.329 Q 19.698 2656.752 19.387 2657.027 Q 19.076 2657.302 18.496 2657.656 Q 17.916 2658.011 9.524 2663.738 Q 8.651 2664.042 11.108 2663.926 Q 13.565 2663.811 15.710 2663.798 Q 17.856 2663.785 19.383 2664.856 Q 20.909 2665.927 22.030 2667.283 Q 23.150 2668.639 23.668 2670.866 Q 24.186 2673.093 24.227 2674.973 Q 24.268 2676.852 21.718 2678.673 Q 19.168 2680.495 17.381 2681.420 Q 15.594 2682.345 11.784 2682.548 Q 11.442 2683.311 11.854 2681.784 Q 12.266 2680.256 12.552 2680.041 "></path>
    <path id="STROKE_21ee1aba-88e2-4533-8693-9bdb0025a944" opacity="1.000" fill="none" stroke="#f3ba38" stroke-width="2.380" stroke-opacity="1.000" stroke-linecap="round" stroke-linejoin="round" d="M 4.603 2744.356 Q 4.121 2744.274 3.200 2743.651 Q 3.103 2743.617 2.724 2746.625 Q 2.344 2749.634 2.752 2751.686 Q 3.160 2753.737 4.347 2754.910 Q 5.533 2756.083 7.235 2756.080 Q 8.938 2756.077 10.118 2755.989 Q 11.299 2755.900 11.976 2755.498 Q 12.652 2755.095 13.704 2754.941 Q 14.755 2754.787 14.822 2754.857 "></path>
    <path id="STROKE_a7d03ca2-303d-4101-8825-2726a36c3700" opacity="1.000" fill="none" stroke="#f3ba38" stroke-width="1.885" stroke-opacity="1.000" stroke-linecap="round" stroke-linejoin="round" d="M 15.392 2742.439 Q 15.281 2743.066 16.037 2751.984 Q 16.793 2760.901 15.315 2774.410 Q 15.239 2774.412 15.207 2774.414 Q 15.167 2774.443 15.197 2773.267 Q 15.228 2772.091 15.323 2771.749 "></path>
    <path id="STROKE_55600be5-719a-4a14-b0a7-62e9c226d009" opacity="1.000" fill="none" stroke="#ff9adf" stroke-width="3.400" stroke-opacity="1.000" stroke-linecap="round" stroke-linejoin="round" d="M 48.077 2495.668 Q 48.012 2494.455 48.024 2494.683 Q 47.959 2493.462 47.974 2493.751 Q 47.169 2493.159 46.983 2493.132 Q 46.797 2493.105 46.713 2493.186 Q 46.628 2493.268 46.883 2493.132 Q 47.138 2492.997 45.063 2493.345 Q 42.987 2493.693 41.008 2495.164 Q 39.029 2496.634 37.772 2497.630 Q 36.515 2498.626 36.071 2500.494 Q 35.627 2502.363 35.478 2503.250 Q 35.330 2504.137 35.734 2505.499 Q 36.138 2506.860 38.562 2508.233 Q 40.985 2509.605 42.593 2510.785 Q 44.200 2511.964 44.684 2512.562 Q 45.167 2513.159 45.427 2513.803 Q 45.687 2514.447 45.989 2515.884 Q 46.291 2517.321 45.354 2519.196 Q 44.418 2521.071 43.164 2521.714 Q 41.909 2522.356 41.021 2522.496 Q 40.133 2522.635 39.358 2522.610 Q 38.584 2522.584 38.342 2522.175 Q 38.100 2521.767 37.889 2521.358 Q 37.677 2520.950 37.647 2520.519 Q 37.617 2520.088 37.624 2520.103 Q 37.632 2520.117 37.556 2520.099 Q 37.480 2520.081 37.912 2519.482 Q 38.343 2518.883 38.598 2518.678 "></path>
    <path id="STROKE_31fe7c71-a76a-4a43-acb6-9b0b89cbba9e" opacity="1.000" fill="none" stroke="#ff9adf" stroke-width="3.400" stroke-opacity="1.000" stroke-linecap="round" stroke-linejoin="round" d="M 49.773 2478.850 Q 49.707 2477.604 49.727 2477.979 Q 49.665 2476.820 49.681 2477.131 Q 49.668 2476.881 49.981 2476.389 Q 50.293 2475.896 50.395 2475.850 Q 50.497 2475.804 50.741 2475.550 Q 50.984 2475.297 51.368 2475.067 Q 51.752 2474.837 51.730 2474.846 Q 51.709 2474.854 52.351 2474.454 Q 52.994 2474.054 54.570 2474.178 Q 56.145 2474.303 57.308 2475.246 Q 58.471 2476.189 60.039 2477.903 Q 61.607 2479.617 62.354 2481.771 Q 63.100 2483.925 63.199 2485.583 Q 63.298 2487.240 62.977 2488.527 Q 62.657 2489.813 61.812 2491.131 Q 60.967 2492.448 59.816 2492.991 Q 58.664 2493.535 58.256 2493.458 Q 57.849 2493.382 57.160 2493.127 Q 56.472 2492.871 55.667 2491.309 Q 54.861 2489.746 54.170 2487.956 Q 53.478 2486.165 54.229 2484.956 Q 54.979 2483.748 56.171 2483.013 Q 57.363 2482.279 59.299 2481.958 Q 61.236 2481.638 62.911 2481.633 Q 64.586 2481.627 66.602 2482.274 Q 68.617 2482.921 69.025 2483.091 "></path>
    <path id="STROKE_c025ce12-8eef-4476-ac12-00f7319297c0" opacity="1.000" fill="none" stroke="#ff9adf" stroke-width="3.400" stroke-opacity="1.000" stroke-linecap="round" stroke-linejoin="round" d="M 50.213 2574.149 L 50.178 2574.150 Q 50.257 2574.446 50.237 2574.072 Q 50.217 2573.698 49.832 2573.196 Q 49.447 2572.695 49.171 2572.601 Q 48.895 2572.507 48.370 2572.440 Q 47.846 2572.374 47.162 2572.420 Q 46.478 2572.467 44.902 2573.474 Q 43.326 2574.482 41.713 2576.294 Q 40.100 2578.107 39.393 2579.546 Q 38.686 2580.985 38.615 2581.700 Q 38.545 2582.416 39.273 2583.235 Q 40.000 2584.054 42.692 2585.398 Q 45.384 2586.742 46.810 2587.614 Q 48.235 2588.485 48.912 2589.078 Q 49.590 2589.670 50.632 2590.995 Q 51.673 2592.321 51.873 2593.205 Q 52.073 2594.088 51.661 2595.461 Q 51.249 2596.833 50.845 2597.493 Q 50.441 2598.152 49.151 2599.433 Q 47.862 2600.714 47.095 2601.315 Q 46.328 2601.917 45.738 2602.203 Q 45.148 2602.489 45.170 2602.545 Q 45.191 2602.601 44.343 2602.677 Q 43.495 2602.752 42.730 2602.839 Q 41.964 2602.926 41.675 2598.788 Q 41.386 2594.649 41.216 2593.894 "></path>
    <path id="STROKE_408eb463-e8cf-4b98-88be-7658d9293ada" opacity="1.000" fill="none" stroke="#ff9adf" stroke-width="3.400" stroke-opacity="1.000" stroke-linecap="round" stroke-linejoin="round" d="M 53.750 2561.349 Q 53.714 2561.422 54.574 2559.973 Q 55.434 2558.524 56.352 2558.006 Q 57.271 2557.487 57.885 2557.254 Q 58.500 2557.020 59.457 2557.631 Q 60.413 2558.242 60.722 2558.749 Q 61.032 2559.256 62.255 2561.621 Q 63.479 2563.985 64.130 2566.215 Q 64.780 2568.444 64.955 2569.666 Q 65.129 2570.888 64.223 2572.679 Q 63.317 2574.471 62.100 2575.492 Q 60.882 2576.513 59.879 2576.504 Q 58.875 2576.495 57.617 2575.738 Q 56.359 2574.981 56.341 2573.977 Q 56.324 2572.972 56.115 2572.004 Q 55.907 2571.036 56.525 2569.600 Q 57.144 2568.164 57.505 2567.855 Q 57.867 2567.546 59.534 2566.219 Q 61.201 2564.891 66.326 2566.888 Q 71.451 2568.885 71.978 2569.026 "></path>
    <path id="STROKE_657dea2a-9521-4288-a57a-7428218726f0" opacity="1.000" fill="none" stroke="#ff9adf" stroke-width="3.400" stroke-opacity="1.000" stroke-linecap="round" stroke-linejoin="round" d="M 49.480 2658.927 Q 49.486 2659.252 46.881 2658.676 Q 44.276 2658.100 42.277 2658.779 Q 40.278 2659.458 39.492 2660.081 Q 38.707 2660.705 38.030 2661.729 Q 37.353 2662.752 37.128 2664.423 Q 36.903 2666.093 39.562 2667.413 Q 42.221 2668.732 44.487 2670.275 Q 46.752 2671.818 47.973 2673.612 Q 49.194 2675.406 49.576 2676.633 Q 49.958 2677.860 49.952 2678.646 Q 49.947 2679.433 49.317 2679.940 Q 48.687 2680.447 48.009 2681.033 Q 47.331 2681.619 39.384 2683.501 Q 39.082 2682.955 39.552 2681.191 Q 40.021 2679.427 40.398 2678.707 "></path>
    <path id="STROKE_34995c74-757c-4e50-9c03-fe404af0616c" opacity="1.000" fill="none" stroke="#ff9adf" stroke-width="3.400" stroke-opacity="1.000" stroke-linecap="round" stroke-linejoin="round" d="M 57.915 2639.244 Q 58.913 2637.580 58.767 2638.187 Q 60.481 2638.097 60.154 2638.126 Q 61.637 2638.310 63.155 2640.112 Q 64.672 2641.915 65.184 2645.331 Q 65.697 2648.747 65.502 2651.342 Q 65.307 2653.936 64.450 2655.742 Q 63.592 2657.547 62.116 2658.293 Q 60.640 2659.039 58.612 2658.638 Q 56.583 2658.237 56.056 2656.209 Q 55.530 2654.182 55.425 2653.024 Q 55.320 2651.867 55.512 2651.059 Q 55.703 2650.250 57.249 2649.445 Q 58.796 2648.640 61.819 2648.143 Q 64.843 2647.646 67.989 2649.731 Q 71.135 2651.815 71.596 2651.949 "></path>
    <path id="STROKE_c93df9f1-8ec6-4e5b-9155-7ee7c0db3f5d" opacity="1.000" fill="none" stroke="#ff9adf" stroke-width="3.400" stroke-opacity="1.000" stroke-linecap="round" stroke-linejoin="round" d="M 45.756 2748.771 Q 45.106 2748.391 42.940 2747.698 Q 40.773 2747.004 39.090 2746.958 Q 37.407 2746.911 36.248 2748.144 Q 35.090 2749.377 34.926 2751.399 Q 34.762 2753.421 35.082 2755.088 Q 35.401 2756.755 38.495 2758.302 Q 41.589 2759.849 43.891 2760.924 Q 46.193 2761.999 47.498 2763.737 Q 48.804 2765.476 49.032 2766.832 Q 49.261 2768.188 49.100 2770.458 Q 48.939 2772.729 45.171 2773.001 Q 41.403 2773.273 36.802 2773.375 Q 36.347 2773.375 37.182 2770.906 Q 38.016 2768.437 38.460 2767.663 "></path>
    <path id="STROKE_91acf99c-f463-432b-a469-0bd5b7bd26d4" opacity="1.000" fill="none" stroke="#ff9adf" stroke-width="3.400" stroke-opacity="1.000" stroke-linecap="round" stroke-linejoin="round" d="M 55.335 2732.873 Q 55.804 2732.879 55.708 2732.887 Q 55.612 2732.895 56.461 2732.486 Q 57.311 2732.077 58.596 2731.917 Q 59.880 2731.757 60.824 2732.187 Q 61.768 2732.616 62.775 2734.417 Q 63.782 2736.217 64.277 2738.892 Q 64.772 2741.568 64.205 2744.255 Q 63.637 2746.941 62.773 2748.462 Q 61.909 2749.982 60.856 2750.639 Q 59.802 2751.295 59.469 2751.260 Q 59.136 2751.226 58.503 2751.190 Q 57.869 2751.154 57.252 2749.893 Q 56.636 2748.632 56.464 2746.180 Q 56.292 2743.728 56.345 2742.703 Q 56.397 2741.679 56.454 2741.079 Q 56.512 2740.479 57.490 2739.951 Q 58.467 2739.424 59.886 2739.440 Q 61.304 2739.456 64.923 2740.968 Q 68.542 2742.480 69.096 2742.629 "></path>
    <path id="STROKE_b4bbfad6-b365-44c5-ba24-834da5c6bb3d" opacity="1.000" fill="none" stroke="#f3ba38" stroke-width="2.380" stroke-opacity="1.000" stroke-linecap="round" stroke-linejoin="round" d="M 107.014 2571.162 Q 107.113 2571.593 106.465 2571.222 Q 105.818 2570.851 105.156 2570.501 Q 104.495 2570.151 104.700 2569.205 Q 104.906 2568.259 105.445 2567.632 Q 105.985 2567.006 106.004 2567.046 Q 106.023 2567.085 106.414 2566.832 Q 106.806 2566.579 107.379 2566.159 Q 107.951 2565.740 110.293 2565.219 Q 112.635 2564.698 114.599 2564.691 Q 116.563 2564.683 118.643 2566.126 Q 120.723 2567.569 121.652 2570.010 Q 122.580 2572.451 122.534 2575.447 Q 122.488 2578.443 120.741 2581.636 Q 118.994 2584.830 116.906 2586.593 Q 114.817 2588.356 112.753 2589.116 Q 110.688 2589.875 109.696 2589.754 Q 108.704 2589.633 107.986 2588.829 Q 107.268 2588.026 107.232 2586.422 Q 107.196 2584.818 107.031 2584.246 Q 106.865 2583.674 108.086 2581.544 Q 109.307 2579.414 110.919 2578.346 Q 112.531 2577.278 113.861 2576.930 Q 115.192 2576.583 117.297 2577.200 Q 119.402 2577.817 122.356 2580.149 Q 125.310 2582.481 126.713 2583.699 Q 128.117 2584.916 128.221 2584.884 "></path>
    <path id="STROKE_e0433853-ba79-4057-b01a-48da6a5a95cd" opacity="1.000" fill="none" stroke="#f3ba38" stroke-width="2.380" stroke-opacity="1.000" stroke-linecap="round" stroke-linejoin="round" d="M 110.993 2660.987 Q 110.980 2660.789 111.008 2660.757 Q 111.037 2660.724 111.037 2660.679 Q 111.037 2660.634 111.135 2660.261 Q 111.233 2659.888 111.309 2659.501 Q 111.384 2659.115 111.389 2659.094 Q 111.393 2659.073 111.355 2659.229 Q 111.317 2659.385 111.657 2658.589 Q 111.997 2657.793 111.756 2658.000 Q 111.515 2658.208 112.682 2657.259 Q 113.848 2656.309 116.484 2655.920 Q 119.119 2655.531 120.803 2655.622 Q 122.488 2655.713 124.169 2657.283 Q 125.851 2658.854 126.105 2660.642 Q 126.360 2662.429 125.612 2664.303 Q 124.864 2666.177 122.436 2668.388 Q 120.008 2670.599 113.387 2672.396 Q 113.340 2672.037 116.061 2671.299 Q 118.781 2670.560 120.544 2670.521 Q 122.307 2670.482 124.478 2671.306 Q 126.649 2672.131 127.360 2675.176 Q 128.071 2678.222 127.992 2679.870 Q 127.913 2681.518 127.851 2682.216 Q 127.790 2682.915 127.212 2683.571 Q 126.634 2684.226 125.956 2684.579 Q 125.277 2684.932 124.801 2685.220 Q 124.325 2685.508 121.942 2686.246 Q 119.560 2686.983 115.448 2686.648 Q 115.267 2686.280 115.298 2685.960 Q 115.330 2685.641 115.607 2685.295 Q 115.884 2684.950 116.138 2684.844 "></path>
    <path id="STROKE_a1ff7446-6d95-4d0a-bba2-24e4b7c69daa" opacity="1.000" fill="none" stroke="#f3ba38" stroke-width="2.380" stroke-opacity="1.000" stroke-linecap="round" stroke-linejoin="round" d="M 112.884 2741.667 Q 112.769 2741.412 113.142 2736.196 Q 113.353 2735.610 112.413 2738.786 Q 111.474 2741.962 111.690 2744.478 Q 111.906 2746.994 111.929 2748.503 Q 111.953 2750.012 113.175 2751.163 Q 114.397 2752.313 116.884 2752.526 Q 119.372 2752.739 120.953 2751.428 Q 122.534 2750.118 122.949 2749.674 "></path>
    <path id="STROKE_b7e3aea9-3051-4ebf-9ccd-aa7c17bba0fc" opacity="1.000" fill="none" stroke="#f3ba38" stroke-width="1.908" stroke-opacity="1.000" stroke-linecap="round" stroke-linejoin="round" d="M 125.453 2735.964 Q 125.653 2735.954 125.695 2735.381 Q 125.762 2735.379 125.796 2735.378 Q 126.051 2734.900 126.061 2739.881 Q 126.070 2744.862 124.986 2765.424 L 125.020 2765.423 Q 125.011 2765.142 125.028 2764.614 Q 125.046 2764.086 125.103 2763.763 "></path>
    <path id="STROKE_34fbbf09-158e-40d9-a925-0ba614145a98" opacity="1.000" fill="none" stroke="#6ac0c8" stroke-width="3.400" stroke-opacity="1.000" stroke-linecap="round" stroke-linejoin="round" d="M 139.064 2568.228 Q 139.018 2568.227 138.664 2568.184 Q 138.631 2568.105 138.403 2568.057 Q 138.246 2567.641 138.213 2574.751 Q 138.179 2581.862 138.746 2589.678 Q 139.313 2597.495 138.957 2604.860 Q 139.174 2603.500 139.201 2594.238 Q 139.229 2584.977 139.726 2578.261 Q 140.224 2571.546 140.890 2568.677 Q 141.557 2565.807 141.720 2564.456 Q 141.883 2563.106 143.489 2561.344 Q 145.095 2559.582 146.006 2558.684 Q 146.917 2557.785 147.747 2557.371 Q 148.577 2556.956 148.722 2557.042 Q 148.868 2557.128 149.383 2556.995 Q 149.897 2556.862 151.488 2557.556 Q 153.079 2558.249 154.435 2560.559 Q 155.791 2562.869 156.401 2566.129 Q 157.011 2569.390 156.247 2572.845 Q 155.483 2576.301 154.306 2578.617 Q 153.129 2580.933 150.928 2582.764 Q 148.727 2584.595 147.303 2584.991 Q 145.879 2585.388 145.261 2585.386 Q 144.643 2585.384 144.432 2585.023 Q 144.222 2584.662 144.146 2584.225 Q 144.070 2583.789 144.029 2583.020 Q 143.988 2582.251 143.883 2581.854 "></path>
    <path id="STROKE_e38ab39d-8acf-4554-991a-0e90f8684040" opacity="1.000" fill="none" stroke="#6ac0c8" stroke-width="3.400" stroke-opacity="1.000" stroke-linecap="round" stroke-linejoin="round" d="M 169.390 2531.263 Q 169.362 2531.210 169.413 2531.368 Q 169.464 2531.527 169.443 2531.424 Q 169.422 2531.320 169.313 2530.939 Q 169.203 2530.557 169.076 2530.109 Q 168.948 2529.660 168.944 2529.800 Q 168.940 2529.940 168.746 2529.579 Q 168.552 2529.218 168.018 2529.090 Q 167.484 2528.962 166.941 2528.700 Q 166.398 2528.438 165.497 2529.454 Q 164.595 2530.471 163.921 2531.490 Q 163.247 2532.509 162.053 2534.862 Q 160.858 2537.215 160.712 2540.067 Q 160.567 2542.919 160.708 2544.574 Q 160.850 2546.230 161.840 2547.739 Q 162.831 2549.249 165.014 2550.325 Q 167.197 2551.402 168.715 2551.471 Q 170.233 2551.541 171.809 2551.130 Q 173.386 2550.719 174.645 2549.371 Q 175.903 2548.023 176.221 2546.645 Q 176.539 2545.267 176.438 2543.875 Q 176.336 2542.482 174.462 2542.176 Q 172.589 2541.869 171.311 2541.869 Q 170.033 2541.868 167.628 2542.918 Q 165.222 2543.967 164.852 2546.232 Q 164.481 2548.496 164.577 2548.791 "></path>
    <path id="STROKE_2ef1af19-4ffa-48ce-96a9-dba220b112fc" opacity="1.000" fill="none" stroke="#6ac0c8" stroke-width="3.304" stroke-opacity="1.000" stroke-linecap="round" stroke-linejoin="round" d="M 140.200 2659.479 Q 140.200 2659.527 140.187 2658.073 Q 140.214 2659.570 140.246 2659.470 Q 140.676 2660.401 141.219 2672.488 Q 141.762 2684.574 141.969 2699.955 Q 142.004 2699.955 142.039 2699.954 Q 142.313 2699.021 141.904 2697.146 Q 141.494 2695.271 141.044 2693.000 Q 140.593 2690.729 140.708 2689.546 Q 140.823 2688.364 140.702 2684.431 Q 140.581 2680.497 140.339 2675.007 Q 140.096 2669.516 140.550 2665.729 Q 141.004 2661.940 141.315 2660.287 Q 141.625 2658.633 142.420 2656.711 Q 143.215 2654.790 144.291 2653.555 Q 145.366 2652.319 145.978 2651.949 Q 146.590 2651.579 146.891 2651.421 Q 147.193 2651.262 148.508 2651.311 Q 149.823 2651.360 151.759 2654.378 Q 153.694 2657.395 154.896 2658.843 Q 156.098 2660.291 156.369 2662.665 Q 156.640 2665.038 156.784 2666.476 Q 156.928 2667.914 155.828 2669.898 Q 154.729 2671.883 153.069 2673.173 Q 151.408 2674.464 150.003 2674.649 Q 148.598 2674.834 147.540 2674.788 Q 146.482 2674.741 146.246 2674.115 Q 146.010 2673.488 146.137 2672.059 Q 146.265 2670.630 146.411 2670.108 "></path>
    <path id="STROKE_34f71624-3d8e-416f-8f74-6cd0ee266545" opacity="1.000" fill="none" stroke="#6ac0c8" stroke-width="3.400" stroke-opacity="1.000" stroke-linecap="round" stroke-linejoin="round" d="M 173.226 2631.222 Q 173.781 2630.957 172.221 2628.868 Q 171.366 2629.827 170.151 2632.458 Q 168.936 2635.088 168.563 2638.557 Q 168.190 2642.026 168.191 2644.304 Q 168.192 2646.581 168.705 2648.067 Q 169.219 2649.553 170.167 2650.612 Q 171.116 2651.671 173.122 2651.998 Q 175.127 2652.324 176.856 2652.015 Q 178.584 2651.706 179.983 2650.514 Q 181.381 2649.323 181.319 2646.307 Q 181.027 2646.073 179.471 2645.772 Q 177.915 2645.472 176.454 2645.271 Q 174.993 2645.071 173.148 2645.148 Q 171.304 2645.225 170.508 2646.096 Q 169.711 2646.966 169.491 2648.005 Q 169.270 2649.044 169.122 2649.341 "></path>
    <path id="STROKE_adc8b9b2-f4b0-4d8d-ba90-a47a08637b15" opacity="1.000" fill="none" stroke="#6ac0c8" stroke-width="3.246" stroke-opacity="1.000" stroke-linecap="round" stroke-linejoin="round" d="M 139.765 2739.812 Q 138.520 2740.332 138.964 2740.167 Q 138.745 2741.353 138.816 2741.212 Q 138.888 2741.420 138.981 2751.969 Q 139.074 2762.518 138.963 2789.258 Q 139.225 2787.747 139.723 2783.554 Q 140.221 2779.361 140.347 2776.317 Q 140.473 2773.273 140.185 2769.560 Q 139.897 2765.846 139.700 2759.128 Q 139.503 2752.410 139.021 2748.537 Q 138.539 2744.663 143.918 2732.647 Q 144.027 2731.824 147.020 2734.047 Q 150.013 2736.270 151.667 2739.325 Q 153.320 2742.381 153.885 2744.758 Q 154.449 2747.135 154.612 2748.396 Q 154.775 2749.657 153.933 2751.833 Q 153.090 2754.009 151.003 2755.447 Q 148.916 2756.885 144.338 2757.631 Q 144.312 2757.173 144.330 2756.865 Q 144.349 2756.557 144.383 2756.192 "></path>
    <path id="STROKE_e636e87f-a58b-47dc-af1f-b7fd10c14b65" opacity="1.000" fill="none" stroke="#6ac0c8" stroke-width="3.400" stroke-opacity="1.000" stroke-linecap="round" stroke-linejoin="round" d="M 167.183 2722.652 Q 167.473 2723.051 166.579 2721.385 Q 166.672 2721.547 166.705 2721.331 Q 166.738 2721.116 165.660 2721.814 Q 164.583 2722.512 163.536 2726.410 Q 162.489 2730.307 162.390 2733.456 Q 162.291 2736.605 162.755 2738.443 Q 163.218 2740.281 164.054 2741.315 Q 164.890 2742.349 166.190 2742.706 Q 167.489 2743.063 169.100 2742.655 Q 170.710 2742.247 172.414 2740.954 Q 174.119 2739.661 175.309 2737.795 Q 176.499 2735.928 176.665 2734.530 Q 176.830 2733.132 176.719 2731.832 Q 176.607 2730.532 175.607 2730.527 Q 174.607 2730.522 174.012 2730.494 Q 173.417 2730.465 172.661 2730.834 Q 171.904 2731.204 171.484 2731.436 Q 171.063 2731.668 168.456 2733.132 Q 165.848 2734.595 164.862 2736.362 Q 163.876 2738.129 163.750 2738.421 "></path>
    <path id="STROKE_932c8ce3-5f23-4c2d-b460-89380a01bc25" opacity="1.000" fill="none" stroke="#f3ba38" stroke-width="2.380" stroke-opacity="1.000" stroke-linecap="round" stroke-linejoin="round" d="M 213.504 2652.902 Q 213.253 2652.929 212.488 2652.571 Q 211.794 2652.303 214.646 2651.877 Q 217.498 2651.451 220.579 2651.804 Q 223.659 2652.157 225.129 2652.576 Q 226.598 2652.994 227.688 2653.783 Q 228.778 2654.571 229.679 2655.539 Q 230.580 2656.507 230.291 2657.787 Q 230.001 2659.066 228.408 2660.371 Q 226.815 2661.676 220.536 2663.184 Q 220.307 2662.956 223.341 2663.447 Q 226.374 2663.938 228.482 2665.043 Q 230.590 2666.149 231.460 2667.355 Q 232.330 2668.562 232.722 2669.671 Q 233.113 2670.780 232.583 2671.678 Q 232.053 2672.576 231.214 2673.039 Q 230.374 2673.503 229.734 2673.762 Q 229.093 2674.021 228.832 2674.263 Q 228.571 2674.504 224.800 2675.603 Q 221.029 2676.700 214.586 2675.719 Q 214.853 2675.891 214.546 2675.714 Q 214.240 2675.537 215.076 2676.088 Q 215.912 2676.639 216.195 2676.844 "></path>
    <path id="STROKE_289af3dc-c46d-4299-b531-978fe1654b83" opacity="1.000" fill="none" stroke="#f3ba38" stroke-width="2.380" stroke-opacity="1.000" stroke-linecap="round" stroke-linejoin="round" d="M 212.308 2728.518 Q 212.269 2727.648 212.276 2727.789 Q 212.273 2727.724 212.271 2727.691 Q 212.314 2727.258 211.893 2731.272 Q 211.472 2735.286 211.692 2737.363 Q 211.913 2739.440 212.100 2740.635 Q 212.288 2741.830 213.275 2742.667 Q 214.262 2743.505 216.359 2743.861 Q 218.456 2744.218 221.335 2742.442 Q 224.213 2740.666 224.409 2740.446 "></path>
    <path id="STROKE_3b5ca05a-9c21-42e7-ae83-7cdd3da56c75" opacity="1.000" fill="none" stroke="#f3ba38" stroke-width="1.926" stroke-opacity="1.000" stroke-linecap="round" stroke-linejoin="round" d="M 225.439 2728.141 Q 225.380 2728.112 224.769 2727.196 Q 224.695 2727.451 225.210 2735.250 Q 225.724 2743.048 225.264 2758.074 Q 225.232 2758.075 225.113 2758.081 Q 225.054 2757.474 225.131 2757.272 Q 225.208 2757.070 225.332 2756.691 "></path>
    <path id="STROKE_f21a1d92-22c2-49b6-a56f-391404ad050a" opacity="1.000" fill="none" stroke="#71c047" stroke-width="2.957" stroke-opacity="1.000" stroke-linecap="round" stroke-linejoin="round" d="M 248.676 2657.314 Q 248.545 2657.588 248.668 2656.023 Q 248.790 2654.458 248.858 2653.751 Q 248.926 2653.043 248.771 2652.733 Q 248.617 2652.422 248.062 2652.041 Q 247.507 2651.660 247.615 2651.719 Q 247.723 2651.778 246.992 2651.707 Q 246.261 2651.636 245.151 2652.233 Q 244.041 2652.830 242.464 2655.655 Q 240.887 2658.480 240.325 2661.731 Q 239.763 2664.982 239.713 2666.845 Q 239.663 2668.709 239.859 2670.847 Q 240.055 2672.985 241.022 2674.050 Q 241.990 2675.116 243.788 2674.876 Q 245.585 2674.636 248.876 2669.956 Q 252.167 2665.276 254.578 2659.888 Q 256.990 2654.500 258.138 2649.714 Q 259.287 2644.927 259.480 2641.268 Q 259.673 2637.608 258.821 2631.098 Q 257.408 2631.339 256.121 2636.503 Q 254.833 2641.666 254.505 2648.462 Q 254.177 2655.258 254.403 2658.737 Q 254.630 2662.216 254.808 2663.908 Q 254.985 2665.601 255.702 2666.405 Q 256.419 2667.210 257.137 2667.408 Q 257.855 2667.605 259.333 2667.213 Q 260.811 2666.821 262.411 2665.435 Q 264.010 2664.048 264.222 2663.832 "></path>
    <path id="STROKE_fa70238a-126e-4f9f-9605-f2ce4834ad2a" opacity="1.000" fill="none" stroke="#71c047" stroke-width="3.008" stroke-opacity="1.000" stroke-linecap="round" stroke-linejoin="round" d="M 245.779 2739.765 Q 245.973 2738.672 245.997 2738.830 Q 246.338 2738.927 246.620 2734.840 Q 246.665 2734.933 245.527 2734.726 Q 244.389 2734.519 242.683 2735.316 Q 240.977 2736.114 239.653 2738.231 Q 238.330 2740.347 237.837 2743.905 Q 237.344 2747.463 237.451 2750.607 Q 237.558 2753.751 238.603 2755.419 Q 239.649 2757.087 240.973 2756.836 Q 242.296 2756.586 243.530 2755.220 Q 244.763 2753.854 247.470 2749.053 Q 250.178 2744.252 252.465 2738.489 Q 254.752 2732.725 254.961 2722.296 Q 254.809 2722.299 254.589 2722.174 Q 254.369 2722.049 253.703 2723.579 Q 253.037 2725.109 252.433 2727.214 Q 251.829 2729.318 251.535 2730.700 Q 251.240 2732.083 250.855 2732.996 Q 250.470 2733.910 250.217 2737.850 Q 249.965 2741.789 249.986 2744.075 Q 250.006 2746.361 250.230 2748.838 Q 250.454 2751.315 251.402 2752.905 Q 252.351 2754.495 253.237 2755.220 Q 254.123 2755.945 254.819 2756.005 Q 255.515 2756.065 256.115 2756.242 Q 256.714 2756.419 259.062 2753.672 Q 261.409 2750.926 261.544 2750.782 "></path>
    <path id="STROKE_a6f0b3f5-4c7e-434c-9029-264ecab191a1" opacity="1.000" fill="none" stroke="#71c047" stroke-width="3.060" stroke-opacity="1.000" stroke-linecap="round" stroke-linejoin="round" d="M 263.713 2612.101 Q 263.674 2611.842 263.742 2612.209 Q 263.809 2612.576 263.315 2610.286 Q 263.923 2610.957 266.669 2623.772 Q 266.748 2623.826 267.005 2623.824 Q 267.262 2623.823 267.560 2623.802 "></path>
    <path id="STROKE_58031f84-4f1b-4a44-a6b3-75af70f48d64" opacity="1.000" fill="none" stroke="#71c047" stroke-width="3.060" stroke-opacity="1.000" stroke-linecap="round" stroke-linejoin="round" d="M 272.169 2607.226 Q 272.167 2607.195 272.119 2607.105 Q 272.078 2607.108 271.889 2607.060 Q 271.974 2607.285 272.129 2610.936 Q 272.283 2614.587 272.392 2616.764 Q 272.500 2618.942 273.062 2620.351 Q 273.625 2621.760 274.664 2622.245 Q 275.704 2622.729 276.707 2622.653 Q 277.711 2622.578 279.281 2621.706 Q 280.851 2620.833 281.968 2619.421 Q 283.084 2618.009 283.714 2616.947 Q 284.344 2615.885 284.492 2613.894 Q 284.640 2611.903 284.203 2610.599 Q 283.767 2609.296 282.759 2608.307 Q 281.752 2607.318 279.958 2606.933 Q 278.165 2606.548 276.841 2607.038 Q 275.517 2607.529 275.018 2608.281 Q 274.519 2609.034 274.285 2609.383 "></path>
    <path id="STROKE_e44f6187-724a-432d-aed9-7fda5cfe198a" opacity="1.000" fill="none" stroke="#71c047" stroke-width="3.060" stroke-opacity="1.000" stroke-linecap="round" stroke-linejoin="round" d="M 272.025 2717.367 Q 271.864 2717.092 271.664 2712.690 Q 272.095 2711.999 270.764 2732.248 Q 270.736 2732.527 271.697 2731.290 Q 272.658 2730.052 273.049 2729.580 "></path>
    <path id="STROKE_d98ba12d-e5ee-4daf-8d2c-79cf4cffff97" opacity="1.000" fill="none" stroke="#71c047" stroke-width="3.060" stroke-opacity="1.000" stroke-linecap="round" stroke-linejoin="round" d="M 284.146 2713.300 Q 283.996 2712.947 283.452 2713.047 Q 283.254 2713.005 282.565 2717.060 Q 281.875 2721.115 281.825 2723.997 Q 281.775 2726.878 281.902 2728.360 Q 282.029 2729.843 282.138 2730.516 Q 282.248 2731.189 282.879 2731.939 Q 283.511 2732.689 284.315 2732.788 Q 285.118 2732.887 286.577 2732.825 Q 288.036 2732.762 290.233 2731.354 Q 292.429 2729.947 293.537 2727.389 Q 294.645 2724.832 294.585 2722.616 Q 294.526 2720.400 293.893 2718.690 Q 293.261 2716.979 292.294 2715.242 Q 291.327 2713.505 288.661 2713.256 Q 285.996 2713.006 285.650 2713.022 "></path>
    <path id="STROKE_7debcf49-2719-462c-ba5b-b7683e1e84b9" opacity="1.000" fill="none" stroke="#f3ba38" stroke-width="2.380" stroke-opacity="1.000" stroke-linecap="round" stroke-linejoin="round" d="M 325.726 2719.063 Q 325.772 2719.327 325.556 2717.453 Q 325.523 2717.455 325.490 2717.458 Q 325.497 2717.144 325.469 2719.328 Q 325.442 2721.512 325.378 2722.913 Q 325.315 2724.314 326.292 2725.487 Q 327.269 2726.660 328.065 2727.161 Q 328.861 2727.663 329.274 2727.720 Q 329.687 2727.778 329.964 2727.912 Q 330.241 2728.047 332.242 2728.364 Q 334.244 2728.681 335.594 2727.421 Q 336.944 2726.161 337.242 2725.827 "></path>
    <path id="STROKE_e48c04a8-900a-4a84-98bb-e655f4c6c2b6" opacity="1.000" fill="none" stroke="#f3ba38" stroke-width="2.203" stroke-opacity="1.000" stroke-linecap="round" stroke-linejoin="round" d="M 338.932 2713.080 Q 338.455 2714.410 338.661 2713.999 Q 338.612 2715.571 338.662 2715.380 Q 338.789 2715.508 340.235 2742.209 Q 340.303 2742.238 340.404 2742.264 Q 340.341 2741.363 340.399 2741.374 Q 340.457 2741.384 340.551 2741.130 "></path>
    <path id="STROKE_fa0359f6-5816-47ee-bcf2-5a5c96c9886e" opacity="1.000" fill="none" stroke="#f45e58" stroke-width="3.060" stroke-opacity="1.000" stroke-linecap="round" stroke-linejoin="round" d="M 368.820 2716.618 Q 368.755 2716.258 368.763 2715.039 Q 368.771 2713.819 368.577 2713.077 Q 368.383 2712.334 367.893 2711.677 Q 367.403 2711.019 366.622 2710.604 Q 365.841 2710.188 365.493 2710.165 Q 365.145 2710.141 365.075 2710.069 Q 365.005 2709.997 364.198 2709.941 Q 363.391 2709.886 362.488 2710.689 Q 361.585 2711.493 360.937 2712.466 Q 360.289 2713.438 359.741 2714.705 Q 359.193 2715.971 358.934 2718.521 Q 358.675 2721.072 359.867 2727.276 Q 361.059 2733.480 361.802 2738.629 Q 362.545 2743.778 362.456 2747.842 Q 362.368 2751.905 361.766 2754.353 Q 361.165 2756.800 360.531 2758.015 Q 359.896 2759.230 359.866 2759.239 Q 359.835 2759.248 359.453 2759.332 Q 359.072 2759.417 358.997 2759.491 Q 358.921 2759.566 358.368 2759.239 Q 357.815 2758.912 357.450 2758.591 Q 357.085 2758.270 356.724 2757.638 Q 356.363 2757.006 356.280 2756.886 Q 356.197 2756.767 354.788 2753.508 Q 353.379 2750.249 353.013 2749.537 "></path>
    <path id="STROKE_6b6a2375-b50c-4519-81da-2f15524885ca" opacity="1.000" fill="none" stroke="#f45e58" stroke-width="3.060" stroke-opacity="1.000" stroke-linecap="round" stroke-linejoin="round" d="M 348.142 2733.971 Q 348.410 2734.023 352.325 2733.630 Q 356.239 2733.236 359.373 2733.729 Q 362.507 2734.222 365.063 2734.801 Q 367.620 2735.380 368.079 2735.491 "></path>
    <path id="STROKE_38c29227-c4d4-4a10-9867-29c76a0bf050" opacity="1.000" fill="none" stroke="#f45e58" stroke-width="3.060" stroke-opacity="1.000" stroke-linecap="round" stroke-linejoin="round" d="M 373.727 2684.058 Q 373.570 2683.510 375.367 2699.816 Q 375.543 2699.748 375.965 2698.893 Q 376.388 2698.038 376.633 2697.567 "></path>
    <path id="STROKE_6de542d4-01c2-4d00-a218-3a85a7e3b517" opacity="1.000" fill="none" stroke="#f45e58" stroke-width="3.060" stroke-opacity="1.000" stroke-linecap="round" stroke-linejoin="round" d="M 383.731 2679.407 Q 382.710 2679.690 383.006 2679.619 Q 382.875 2679.767 382.651 2680.256 Q 382.428 2680.745 382.533 2680.729 Q 382.638 2680.714 382.487 2680.866 Q 382.337 2681.018 382.086 2683.179 Q 381.836 2685.340 382.415 2686.812 Q 382.994 2688.285 383.524 2689.006 Q 384.054 2689.728 385.942 2690.240 Q 387.830 2690.752 389.292 2690.621 Q 390.754 2690.489 391.571 2690.110 Q 392.389 2689.730 392.661 2689.498 "></path>
    <path id="STROKE_3f9058ca-22fa-4a9d-91a8-77e606e44e25" opacity="1.000" fill="none" stroke="#f45e58" stroke-width="2.943" stroke-opacity="1.000" stroke-linecap="round" stroke-linejoin="round" d="M 392.574 2676.236 Q 393.000 2676.344 393.624 2683.175 Q 394.248 2690.005 392.652 2700.251 Q 392.618 2699.739 392.636 2699.238 Q 392.653 2698.737 392.727 2698.344 "></path>
    <path id="STROKE_eb336e91-4c9b-49a5-b21c-1ff2816ba127" opacity="1.000" fill="none" stroke="#f3ba38" stroke-width="2.277" stroke-opacity="1.000" stroke-linecap="round" stroke-linejoin="round" d="M 25.336 2816.481 Q 24.592 2816.473 24.896 2816.488 Q 25.200 2816.504 24.075 2816.402 Q 22.951 2816.301 20.917 2816.381 Q 18.884 2816.461 17.901 2816.617 Q 16.918 2816.772 15.034 2817.341 Q 13.149 2817.909 5.220 2819.218 Q 5.245 2819.218 5.723 2819.248 Q 5.717 2820.133 5.837 2819.792 Q 5.956 2819.452 6.154 2825.942 Q 6.352 2832.433 6.380 2839.560 Q 5.897 2839.991 7.420 2838.750 Q 8.943 2837.510 10.606 2836.513 Q 12.269 2835.517 13.328 2835.008 Q 14.386 2834.498 15.550 2834.365 Q 16.714 2834.232 17.904 2834.352 Q 19.094 2834.472 20.281 2836.566 Q 21.469 2838.659 21.937 2842.109 Q 22.405 2845.558 22.518 2848.090 Q 22.630 2850.623 21.944 2851.962 Q 21.257 2853.302 19.810 2854.053 Q 18.363 2854.803 17.206 2855.174 Q 16.049 2855.544 15.211 2855.312 Q 14.372 2855.081 14.112 2854.753 Q 13.852 2854.425 13.629 2853.996 Q 13.407 2853.568 13.478 2853.706 Q 13.550 2853.844 13.513 2853.902 Q 13.476 2853.961 13.526 2853.618 Q 13.575 2853.276 13.635 2853.147 "></path>
    <path id="STROKE_fe255666-294a-46b7-83bc-b0fbc1f9103e" opacity="1.000" fill="none" stroke="#ff9adf" stroke-width="3.400" stroke-opacity="1.000" stroke-linecap="round" stroke-linejoin="round" d="M 53.232 2821.187 Q 53.388 2821.280 53.393 2818.453 Q 53.589 2818.464 51.284 2818.038 Q 48.979 2817.612 46.463 2819.015 Q 43.947 2820.417 42.557 2821.535 Q 41.167 2822.653 39.948 2824.042 Q 38.729 2825.430 38.294 2827.277 Q 37.860 2829.123 37.898 2830.424 Q 37.936 2831.725 38.821 2833.123 Q 39.706 2834.520 41.994 2836.019 Q 44.282 2837.518 46.182 2838.629 Q 48.082 2839.741 49.157 2841.538 Q 50.231 2843.334 50.331 2845.738 Q 50.431 2848.142 50.037 2849.625 Q 49.643 2851.107 39.104 2854.659 Q 38.793 2854.264 40.422 2852.089 Q 42.050 2849.914 42.392 2849.546 "></path>
    <path id="STROKE_ba2225bb-e1ee-431f-a6b7-e08d20529434" opacity="1.000" fill="none" stroke="#ff9adf" stroke-width="3.400" stroke-opacity="1.000" stroke-linecap="round" stroke-linejoin="round" d="M 62.714 2801.313 Q 62.821 2800.881 62.859 2800.894 Q 62.715 2800.520 63.862 2800.427 Q 65.008 2800.334 66.402 2801.509 Q 67.796 2802.683 68.634 2803.714 Q 69.471 2804.746 69.966 2807.407 Q 70.461 2810.069 70.328 2812.086 Q 70.195 2814.103 69.686 2815.742 Q 69.176 2817.382 68.428 2818.416 Q 67.680 2819.451 67.068 2819.980 Q 66.455 2820.510 65.251 2820.899 Q 64.047 2821.288 62.770 2821.248 Q 61.494 2821.209 61.098 2820.754 Q 60.703 2820.299 60.665 2819.873 Q 60.626 2819.446 60.572 2819.103 Q 60.518 2818.760 60.556 2817.986 Q 60.594 2817.212 61.912 2815.281 Q 63.229 2813.351 64.100 2812.515 Q 64.971 2811.679 65.573 2810.986 Q 66.174 2810.293 67.871 2810.889 Q 69.569 2811.485 73.917 2814.228 Q 78.266 2816.971 78.447 2817.079 "></path>
    <path id="STROKE_886f63e6-8b27-417b-a664-38efc3149289" opacity="1.000" fill="none" stroke="#f3ba38" stroke-width="2.340" stroke-opacity="1.000" stroke-linecap="round" stroke-linejoin="round" d="M 15.961 2897.966 Q 15.961 2897.965 15.891 2897.954 Q 15.822 2897.943 15.539 2897.691 Q 15.257 2897.438 15.293 2897.524 Q 15.328 2897.609 15.111 2897.603 Q 14.893 2897.597 14.504 2897.748 Q 14.114 2897.899 12.475 2900.510 Q 10.836 2903.122 9.698 2905.618 Q 8.559 2908.115 7.574 2910.780 Q 6.589 2913.445 6.170 2916.366 Q 5.752 2919.288 5.897 2921.304 Q 6.041 2923.319 6.776 2924.834 Q 7.510 2926.349 8.114 2927.224 Q 8.718 2928.099 10.207 2928.876 Q 11.695 2929.654 13.982 2928.445 Q 16.268 2927.235 18.061 2925.370 Q 19.854 2923.505 20.230 2921.988 Q 20.606 2920.470 20.338 2919.152 Q 20.069 2917.833 19.300 2916.819 Q 18.531 2915.804 16.267 2915.590 Q 14.004 2915.375 12.340 2915.456 Q 10.676 2915.537 9.813 2915.815 Q 8.950 2916.093 8.436 2916.196 Q 7.922 2916.300 7.030 2917.675 Q 6.139 2919.051 6.386 2923.285 Q 6.017 2923.500 6.982 2923.321 Q 7.946 2923.141 8.227 2922.925 "></path>
    <path id="STROKE_694dbdb4-f3d0-4e65-8900-3945f1ac73e2" opacity="1.000" fill="none" stroke="#ff9adf" stroke-width="3.400" stroke-opacity="1.000" stroke-linecap="round" stroke-linejoin="round" d="M 46.396 2895.620 Q 45.643 2895.135 45.654 2895.117 Q 45.251 2894.751 43.696 2894.227 Q 42.141 2893.703 40.374 2895.055 Q 38.608 2896.407 37.670 2897.635 Q 36.731 2898.863 35.104 2900.785 Q 33.477 2902.707 32.987 2904.525 Q 32.496 2906.344 32.185 2907.895 Q 31.874 2909.446 34.921 2910.599 Q 37.969 2911.752 39.882 2912.246 Q 41.795 2912.740 42.891 2913.472 Q 43.986 2914.205 44.982 2915.218 Q 45.978 2916.231 46.387 2918.609 Q 46.796 2920.988 46.935 2922.600 Q 47.074 2924.213 46.452 2925.432 Q 45.831 2926.652 45.154 2927.358 Q 44.477 2928.064 43.868 2928.381 Q 43.259 2928.697 42.912 2928.855 Q 42.564 2929.013 42.277 2929.292 Q 41.990 2929.571 40.797 2930.020 Q 39.603 2930.468 38.846 2930.513 Q 38.089 2930.558 37.740 2930.290 Q 37.391 2930.021 37.216 2929.630 Q 37.042 2929.239 36.901 2928.263 Q 36.760 2927.287 37.092 2926.806 Q 37.425 2926.326 37.704 2926.030 "></path>
    <path id="STROKE_abcd1ff5-8601-4d87-b66f-96d195a32459" opacity="1.000" fill="none" stroke="#ff9adf" stroke-width="3.400" stroke-opacity="1.000" stroke-linecap="round" stroke-linejoin="round" d="M 55.453 2881.479 Q 55.792 2880.957 56.254 2880.455 Q 56.715 2879.953 57.250 2879.543 Q 57.784 2879.134 57.933 2879.162 Q 58.081 2879.189 58.412 2879.248 Q 58.744 2879.306 59.700 2880.807 Q 60.656 2882.309 61.302 2883.187 Q 61.948 2884.066 62.446 2886.602 Q 62.944 2889.137 63.014 2890.655 Q 63.083 2892.173 62.857 2893.771 Q 62.630 2895.368 61.900 2896.689 Q 61.170 2898.010 59.692 2898.675 Q 58.214 2899.339 57.276 2899.332 Q 56.338 2899.324 55.900 2899.311 Q 55.462 2899.298 54.823 2898.432 Q 54.183 2897.566 54.141 2896.514 Q 54.098 2895.461 54.166 2894.707 Q 54.234 2893.952 55.163 2893.079 Q 56.091 2892.206 57.561 2891.507 Q 59.030 2890.807 60.762 2891.093 Q 62.493 2891.379 66.258 2893.552 Q 70.023 2895.725 70.182 2895.849 "></path>
    <path id="STROKE_48ed58b5-8d91-4be3-8114-886892e7ee0f" opacity="1.000" fill="none" stroke="#f3ba38" stroke-width="2.380" stroke-opacity="1.000" stroke-linecap="round" stroke-linejoin="round" d="M 112.592 2822.827 Q 112.573 2822.105 112.572 2822.061 Q 112.571 2822.017 112.571 2821.980 Q 112.570 2821.944 112.573 2821.949 Q 112.576 2821.954 112.517 2820.853 L 112.492 2820.853 Q 112.409 2821.298 111.573 2824.824 Q 110.736 2828.350 110.605 2831.098 Q 110.473 2833.847 110.536 2835.337 Q 110.599 2836.828 111.161 2838.143 Q 111.723 2839.459 113.683 2839.670 Q 115.643 2839.881 117.789 2838.914 Q 119.936 2837.946 121.533 2837.440 Q 123.131 2836.934 124.424 2837.958 Q 124.395 2837.774 124.366 2837.591 "></path>
    <path id="STROKE_8f0c005d-dc2c-4a6a-9678-b8b09b6cb711" opacity="1.000" fill="none" stroke="#f3ba38" stroke-width="1.952" stroke-opacity="1.000" stroke-linecap="round" stroke-linejoin="round" d="M 127.153 2818.393 Q 127.133 2817.619 127.137 2817.792 Q 127.134 2817.638 127.312 2817.247 Q 128.513 2817.582 125.429 2848.466 Q 125.571 2847.879 125.563 2847.966 Q 125.569 2847.772 125.675 2847.007 Q 125.781 2846.241 125.874 2846.000 "></path>
    <path id="STROKE_41f5efc8-0f82-4b63-b9a9-21bcf590453f" opacity="1.000" fill="none" stroke="#6ac0c8" stroke-width="3.370" stroke-opacity="1.000" stroke-linecap="round" stroke-linejoin="round" d="M 138.392 2824.368 Q 137.982 2823.309 139.570 2821.723 Q 139.762 2821.679 140.024 2825.064 Q 140.286 2828.449 139.807 2834.567 Q 139.328 2840.686 138.790 2846.042 Q 138.252 2851.399 138.036 2854.741 Q 137.819 2858.084 137.979 2862.500 Q 138.139 2866.917 137.385 2872.974 Q 137.321 2872.893 137.273 2865.410 Q 137.225 2857.928 137.127 2852.597 Q 137.028 2847.267 137.004 2843.354 Q 136.979 2839.442 138.194 2835.267 Q 139.410 2831.091 140.985 2827.585 Q 142.560 2824.079 143.030 2822.533 Q 143.499 2820.988 143.874 2820.358 Q 144.250 2819.729 144.479 2819.612 Q 144.708 2819.496 145.007 2819.477 Q 145.306 2819.458 145.120 2819.500 Q 144.935 2819.541 145.940 2819.372 Q 146.945 2819.203 148.012 2820.034 Q 149.078 2820.865 150.009 2822.555 Q 150.940 2824.245 151.657 2827.031 Q 152.373 2829.816 152.559 2832.078 Q 152.745 2834.341 152.447 2836.146 Q 152.149 2837.952 150.841 2839.564 Q 149.534 2841.176 147.845 2842.116 Q 146.156 2843.056 145.079 2843.207 Q 144.002 2843.358 143.713 2843.347 Q 143.425 2843.335 143.200 2842.968 Q 142.976 2842.600 142.996 2842.544 Q 143.015 2842.489 142.983 2842.508 Q 142.952 2842.528 143.095 2841.959 Q 143.239 2841.390 143.437 2841.121 "></path>
    <path id="STROKE_cd0cb2c5-4ba9-4f14-962f-38fe99ba30fd" opacity="1.000" fill="none" stroke="#6ac0c8" stroke-width="3.400" stroke-opacity="1.000" stroke-linecap="round" stroke-linejoin="round" d="M 166.183 2808.855 Q 165.796 2808.698 164.157 2807.752 Q 163.190 2807.980 163.153 2811.798 Q 163.117 2815.616 163.084 2817.994 Q 163.051 2820.372 163.678 2822.299 Q 164.304 2824.227 164.885 2825.416 Q 165.465 2826.605 166.440 2827.226 Q 167.416 2827.846 168.853 2827.819 Q 170.290 2827.792 171.620 2825.957 Q 172.950 2824.122 173.098 2822.830 Q 173.247 2821.538 173.346 2820.352 Q 173.444 2819.167 172.641 2818.705 Q 171.838 2818.243 170.233 2818.350 Q 168.628 2818.456 167.264 2819.172 Q 165.901 2819.887 164.753 2820.764 Q 163.606 2821.641 163.127 2822.362 Q 162.649 2823.083 162.625 2823.584 Q 162.601 2824.085 162.604 2824.405 Q 162.606 2824.725 163.085 2824.880 Q 163.564 2825.035 163.980 2825.111 Q 164.396 2825.186 164.635 2825.260 "></path>
    <path id="STROKE_18891ec0-9aa2-456f-b302-553c24d4622e" opacity="1.000" fill="none" stroke="#ffe446" stroke-width="2.402" stroke-opacity="1.000" stroke-linecap="round" stroke-linejoin="round" d="M 82.857 2459.627 Q 82.885 2459.496 82.403 2459.004 Q 81.922 2458.512 80.113 2460.287 Q 78.305 2462.061 76.493 2463.746 Q 74.680 2465.431 73.574 2466.606 Q 72.468 2467.782 66.107 2472.889 Q 59.746 2477.997 55.333 2481.568 Q 50.920 2485.139 47.295 2488.302 Q 43.669 2491.465 40.456 2493.787 Q 37.242 2496.109 33.741 2499.099 Q 30.241 2502.088 23.405 2507.582 Q 16.568 2513.077 12.631 2515.997 Q 8.694 2518.917 4.989 2521.896 Q 1.284 2524.876 -2.309 2527.816 Q -5.902 2530.756 -7.606 2532.435 Q -9.311 2534.114 -10.359 2535.265 Q -11.408 2536.415 -13.273 2539.049 Q -12.861 2539.104 -12.459 2539.144 Q -12.057 2539.182 -11.857 2539.069 Q -11.658 2538.955 -11.356 2538.783 "></path>
    <path id="STROKE_3ffd1342-a812-4085-b1ca-8880f3366bc0" opacity="1.000" fill="none" stroke="#ffe446" stroke-width="2.858" stroke-opacity="1.000" stroke-linecap="round" stroke-linejoin="round" d="M -17.526 2524.252 Q -17.526 2523.000 -17.526 2523.260 Q -17.526 2521.578 -17.526 2522.166 Q -17.526 2522.033 -17.526 2521.674 Q -18.102 2522.258 -22.382 2529.312 Q -26.662 2536.366 -29.083 2540.627 Q -31.504 2544.887 -32.434 2547.380 Q -33.364 2549.874 -33.615 2551.113 Q -33.866 2552.353 -33.677 2552.822 Q -33.489 2553.292 -33.234 2553.703 Q -32.980 2554.114 -30.279 2554.406 Q -27.578 2554.699 -23.398 2553.429 Q -19.218 2552.159 -16.156 2551.351 Q -13.093 2550.542 -10.406 2550.721 Q -7.719 2550.900 -7.521 2551.002 "></path>
    <path id="STROKE_2b3e8769-06a7-4d4d-8ad2-7e500bba1370" opacity="1.000" fill="none" stroke="#ffe446" stroke-width="1.993" stroke-opacity="1.000" stroke-linecap="round" stroke-linejoin="round" d="M 90.340 2537.189 Q 90.464 2536.328 90.485 2536.439 Q 90.552 2536.258 90.611 2536.002 Q 89.588 2536.488 82.562 2543.174 Q 75.536 2549.861 67.627 2555.991 Q 59.718 2562.121 54.637 2566.426 Q 49.557 2570.731 39.571 2578.995 Q 29.585 2587.258 23.670 2592.126 Q 17.755 2596.994 12.973 2600.390 Q 8.192 2603.786 -6.729 2615.424 Q -6.697 2615.424 -6.520 2615.424 Q -6.199 2615.991 -4.692 2615.574 Q -3.185 2615.158 -2.956 2614.955 "></path>
    <path id="STROKE_0253f310-5353-4abb-9602-cee6d1279ae0" opacity="1.000" fill="none" stroke="#ffe446" stroke-width="2.836" stroke-opacity="1.000" stroke-linecap="round" stroke-linejoin="round" d="M -13.148 2604.017 Q -13.141 2603.015 -13.117 2603.244 Q -12.815 2602.362 -12.800 2602.314 Q -12.785 2602.267 -12.771 2602.228 Q -12.757 2602.189 -12.822 2602.361 Q -12.886 2602.532 -12.544 2601.627 Q -12.435 2602.625 -16.382 2610.495 Q -20.328 2618.365 -22.552 2622.375 Q -24.777 2626.385 -26.061 2629.045 Q -27.344 2631.706 -27.020 2634.135 Q -26.508 2634.933 -22.095 2633.537 Q -17.682 2632.140 -12.200 2631.446 Q -6.718 2630.752 -6.124 2630.549 "></path>
    <path id="STROKE_25f6abc7-0457-4dc8-8718-358b79e8e868" opacity="1.000" fill="none" stroke="#ffe446" stroke-width="2.223" stroke-opacity="1.000" stroke-linecap="round" stroke-linejoin="round" d="M 208.335 2515.830 Q 207.872 2515.941 207.366 2516.019 Q 206.859 2516.097 205.277 2517.257 Q 203.694 2518.417 200.909 2521.336 Q 198.123 2524.255 192.890 2528.422 Q 187.657 2532.589 179.208 2538.902 Q 170.759 2545.215 165.809 2549.136 Q 160.858 2553.057 157.574 2555.850 Q 154.290 2558.642 142.956 2567.871 Q 131.623 2577.100 125.488 2581.843 Q 119.354 2586.586 116.322 2589.476 Q 113.291 2592.367 106.975 2597.240 Q 100.660 2602.113 93.900 2608.059 Q 87.141 2614.005 78.097 2622.158 Q 69.054 2630.312 64.639 2634.348 Q 60.225 2638.385 57.950 2640.117 Q 55.676 2641.850 53.474 2644.132 Q 51.272 2646.414 42.358 2654.026 Q 33.443 2661.638 22.968 2669.675 Q 12.492 2677.713 6.343 2682.177 Q 0.194 2686.640 -2.938 2689.006 Q -6.070 2691.371 -8.441 2692.931 Q -10.813 2694.490 -12.796 2696.431 Q -14.778 2698.372 -15.882 2699.947 Q -16.986 2701.521 -19.631 2704.595 Q -19.127 2704.662 -17.513 2703.304 Q -15.900 2701.947 -15.400 2701.486 "></path>
    <path id="STROKE_8692ad92-a5db-4115-82d1-ce222c8c230e" opacity="1.000" fill="none" stroke="#ffe446" stroke-width="2.862" stroke-opacity="1.000" stroke-linecap="round" stroke-linejoin="round" d="M -22.757 2690.205 Q -22.650 2688.858 -22.643 2689.174 Q -22.375 2687.829 -22.351 2688.010 Q -21.757 2687.108 -22.168 2687.573 Q -22.580 2688.039 -20.266 2685.361 Q -20.364 2686.861 -22.428 2690.060 Q -24.491 2693.258 -27.372 2698.637 Q -30.252 2704.015 -32.066 2707.989 Q -33.880 2711.963 -34.440 2714.342 Q -35.000 2716.721 -35.201 2717.955 Q -35.402 2719.190 -34.619 2720.570 Q -33.837 2721.951 -31.744 2722.496 Q -29.652 2723.041 -25.862 2723.416 Q -22.072 2723.791 -19.861 2723.419 Q -17.651 2723.049 -17.046 2722.845 "></path>
    <path id="STROKE_c21640b4-e6c0-400c-bb59-5e3efc6bc97d" opacity="1.000" fill="none" stroke="#ffe446" stroke-width="2.141" stroke-opacity="1.000" stroke-linecap="round" stroke-linejoin="round" d="M 212.649 2603.017 Q 211.581 2602.949 211.753 2602.916 Q 211.479 2602.924 210.338 2602.596 Q 209.198 2602.269 205.802 2605.479 Q 202.405 2608.689 200.072 2611.378 Q 197.739 2614.067 192.659 2618.800 Q 187.580 2623.533 185.085 2626.031 Q 182.591 2628.529 179.814 2631.837 Q 177.037 2635.145 174.884 2637.579 Q 172.732 2640.013 169.228 2642.983 Q 165.724 2645.954 160.970 2650.778 Q 156.216 2655.601 149.383 2661.628 Q 142.550 2667.654 138.187 2671.500 Q 133.824 2675.345 130.473 2678.001 Q 127.123 2680.657 122.932 2683.977 Q 118.741 2687.298 116.095 2689.546 Q 113.449 2691.794 107.963 2696.051 Q 102.478 2700.308 94.556 2707.033 Q 86.634 2713.757 78.696 2720.280 Q 70.758 2726.802 66.339 2730.193 Q 61.920 2733.585 56.175 2738.415 Q 50.430 2743.246 41.293 2750.412 Q 32.156 2757.577 27.205 2761.507 Q 22.254 2765.437 19.337 2767.355 Q 16.419 2769.274 15.012 2770.222 Q 13.606 2771.169 11.798 2772.394 Q 9.990 2773.619 6.588 2776.377 Q 3.187 2779.135 -9.376 2791.392 Q -9.537 2791.554 -8.294 2791.004 Q -7.052 2790.455 -6.854 2790.392 "></path>
    <path id="STROKE_e0217c58-1c95-4480-a526-938a13bdd35c" opacity="1.000" fill="none" stroke="#ffe446" stroke-width="3.060" stroke-opacity="1.000" stroke-linecap="round" stroke-linejoin="round" d="M -14.336 2775.924 Q -14.352 2775.646 -13.669 2774.533 Q -13.529 2775.541 -15.824 2780.493 Q -18.118 2785.445 -19.280 2788.752 Q -20.441 2792.059 -20.732 2793.728 Q -21.022 2795.397 -20.562 2797.097 Q -20.101 2798.796 -15.084 2798.345 Q -10.067 2797.894 -6.871 2798.108 Q -3.675 2798.322 -3.144 2798.486 "></path>
    <path id="STROKE_f39047bc-55fa-4b5c-8bd5-7786f736c967" opacity="1.000" fill="none" stroke="#ffe446" stroke-width="2.032" stroke-opacity="1.000" stroke-linecap="round" stroke-linejoin="round" d="M 303.819 2595.580 Q 302.405 2595.571 302.829 2595.549 Q 302.165 2594.954 300.279 2595.859 Q 298.393 2596.764 292.381 2602.689 Q 286.369 2608.614 281.587 2612.836 Q 276.806 2617.060 272.861 2619.883 Q 268.916 2622.706 260.397 2630.327 Q 251.878 2637.948 247.211 2642.109 Q 242.543 2646.270 239.304 2649.115 Q 236.065 2651.961 234.226 2653.508 Q 232.386 2655.055 226.018 2660.465 Q 219.650 2665.876 212.430 2672.112 Q 205.211 2678.348 193.927 2688.197 Q 182.643 2698.046 176.468 2703.091 Q 170.294 2708.135 166.115 2711.667 Q 161.936 2715.198 159.796 2717.381 Q 157.656 2719.564 155.317 2721.860 Q 152.978 2724.156 144.367 2731.950 Q 135.756 2739.743 130.213 2744.570 Q 124.670 2749.398 121.824 2751.629 Q 118.979 2753.861 114.785 2757.573 Q 110.591 2761.284 106.301 2764.544 Q 102.011 2767.803 99.128 2769.976 Q 96.244 2772.149 91.260 2775.967 Q 86.276 2779.784 81.419 2783.401 Q 76.562 2787.018 67.469 2794.224 Q 58.375 2801.430 53.093 2806.022 Q 47.812 2810.615 44.534 2812.962 Q 41.255 2815.310 36.707 2818.863 Q 32.159 2822.415 29.949 2824.595 Q 27.739 2826.775 23.118 2830.438 Q 18.498 2834.102 13.844 2838.130 Q 9.191 2842.159 6.877 2844.568 Q 4.563 2846.977 -1.022 2851.021 Q -6.608 2855.066 -13.599 2861.256 Q -20.589 2867.447 -27.385 2873.595 Q -27.663 2873.350 -26.471 2872.009 Q -25.280 2870.667 -23.122 2869.393 Q -20.965 2868.119 -20.506 2867.752 "></path>
    <path id="STROKE_aa5b5d8c-ab70-4e2e-972a-96b40c5a63f3" opacity="1.000" fill="none" stroke="#ffe446" stroke-width="2.977" stroke-opacity="1.000" stroke-linecap="round" stroke-linejoin="round" d="M -26.863 2853.424 Q -26.969 2853.207 -26.384 2848.049 Q -26.483 2848.317 -29.714 2854.826 Q -32.944 2861.335 -34.596 2865.624 Q -36.247 2869.912 -36.826 2872.672 Q -37.406 2875.432 -37.538 2877.721 Q -37.671 2880.009 -35.189 2880.571 Q -32.707 2881.133 -28.362 2880.044 Q -24.016 2878.956 -21.370 2877.662 Q -18.725 2876.369 -17.375 2876.525 Q -16.025 2876.681 -15.733 2876.908 "></path>
    <path id="STROKE_e21838e1-58b7-40d6-a0de-b641234b3e69" opacity="1.000" fill="none" stroke="#ffe446" stroke-width="2.024" stroke-opacity="1.000" stroke-linecap="round" stroke-linejoin="round" d="M 312.886 2676.330 Q 312.487 2676.293 306.774 2681.496 Q 301.061 2686.699 296.520 2690.448 Q 291.979 2694.197 285.699 2699.657 Q 279.420 2705.118 275.855 2707.950 Q 272.290 2710.782 269.584 2713.178 Q 266.878 2715.573 264.049 2718.161 Q 261.220 2720.749 258.121 2723.180 Q 255.022 2725.611 251.778 2727.956 Q 248.533 2730.302 238.168 2738.226 Q 227.803 2746.149 221.024 2751.340 Q 214.245 2756.531 211.055 2759.129 Q 207.866 2761.727 202.496 2766.284 Q 197.127 2770.841 194.294 2773.068 Q 191.461 2775.295 188.620 2777.571 Q 185.779 2779.848 181.083 2783.873 Q 176.388 2787.898 173.064 2790.257 Q 169.739 2792.617 164.068 2797.279 Q 158.396 2801.941 148.223 2809.789 Q 138.050 2817.637 130.692 2823.142 Q 123.334 2828.647 117.495 2832.987 Q 111.656 2837.327 100.421 2846.415 Q 89.186 2855.503 83.236 2860.206 Q 77.286 2864.910 74.518 2867.587 Q 71.750 2870.264 64.219 2876.100 Q 56.689 2881.936 53.054 2884.808 Q 49.420 2887.680 43.413 2892.449 Q 37.406 2897.219 31.028 2903.545 Q 24.649 2909.872 14.523 2920.095 Q 4.397 2930.318 -3.270 2937.854 Q -10.938 2945.391 -14.435 2948.797 Q -17.933 2952.203 -20.648 2954.646 Q -23.363 2957.090 -31.824 2962.502 Q -32.358 2962.283 -31.633 2961.702 Q -30.909 2961.121 -29.771 2960.648 Q -28.633 2960.176 -28.009 2960.147 Q -27.385 2960.119 -27.114 2959.986 "></path>
    <path id="STROKE_af6cdcec-98ae-4d30-be76-3df20dff7ff5" opacity="1.000" fill="none" stroke="#ffe446" stroke-width="2.974" stroke-opacity="1.000" stroke-linecap="round" stroke-linejoin="round" d="M -27.718 2935.033 Q -27.718 2933.857 -27.718 2934.103 Q -27.718 2933.877 -27.718 2933.314 Q -27.983 2933.122 -30.495 2939.513 Q -33.006 2945.904 -34.293 2951.292 Q -35.580 2956.681 -35.546 2959.467 Q -35.512 2962.252 -35.580 2963.502 Q -35.647 2964.752 -34.563 2965.955 Q -33.479 2967.157 -29.458 2965.640 Q -25.438 2964.122 -22.927 2962.726 Q -20.417 2961.330 -18.597 2961.153 Q -16.777 2960.977 -16.240 2962.204 Q -15.702 2963.431 -15.400 2963.830 "></path>
    <path id="STROKE_ef699bc2-5f59-461a-9044-2a062438206e" opacity="1.000" fill="none" stroke="#ffe446" stroke-width="2.201" stroke-opacity="1.000" stroke-linecap="round" stroke-linejoin="round" d="M 411.559 2668.970 Q 410.805 2669.710 410.819 2669.697 Q 410.647 2670.459 405.162 2676.192 Q 399.677 2681.925 396.131 2684.979 Q 392.584 2688.032 387.356 2692.967 Q 382.127 2697.902 379.035 2701.123 Q 375.942 2704.344 369.234 2710.892 Q 362.526 2717.440 359.057 2720.677 Q 355.588 2723.913 352.778 2726.590 Q 349.968 2729.268 347.201 2731.362 Q 344.435 2733.456 336.147 2740.938 Q 327.859 2748.421 323.574 2752.594 Q 319.289 2756.768 316.881 2759.154 Q 314.473 2761.541 310.635 2765.642 Q 310.587 2765.642 312.365 2765.642 Q 312.365 2765.611 312.432 2765.513 Q 312.500 2765.416 312.636 2765.252 "></path>
    <path id="STROKE_8c03e775-e526-4110-959a-417422aec80f" opacity="1.000" fill="none" stroke="#ffe446" stroke-width="3.060" stroke-opacity="1.000" stroke-linecap="round" stroke-linejoin="round" d="M 307.987 2750.720 Q 308.087 2750.221 308.467 2748.455 Q 308.381 2748.294 305.839 2753.121 Q 303.296 2757.947 301.757 2762.081 Q 300.218 2766.215 299.547 2768.919 Q 298.876 2771.623 298.960 2773.422 Q 299.043 2775.221 299.267 2776.155 Q 299.492 2777.089 301.279 2778.233 Q 303.065 2779.377 316.137 2776.994 Q 316.290 2777.027 316.480 2778.170 Q 316.669 2779.314 316.742 2779.642 "></path>
  </g>
</svg>