<?xml version="1.0" encoding="UTF-8" standalone="yes"?>
<svg xmlns="http://www.w3.org/2000/svg" xmlns:xlink="http://www.w3.org/1999/xlink" width="1060.344pt" height="476.176pt" version="1.1" viewBox="-1612.342 -787.060 1060.344 476.176">
  <!--
	Exported with Concepts: Smarter Sketching
	Version: 1059 on iOS 15.4
	https://concepts.app/
	-->
  <title>Untitled</title>
  <desc>Drawing exported from Concepts: Smarter Sketching</desc>
  <defs></defs>
  <g id="Watercolor" opacity="1.000">
    <path id="STROKE_6a7913a6-f379-49c2-9106-1aafe57e2070" opacity="0.100" fill="none" stroke="#9378e3" stroke-width="20.195" stroke-opacity="0.891" stroke-linecap="round" stroke-linejoin="round" d="M -1332.601 -583.400 Q -1333.199 -583.495 -1334.867 -583.480 Q -1336.535 -583.464 -1337.939 -583.072 Q -1339.343 -582.680 -1339.371 -582.003 Q -1339.399 -581.325 -1339.350 -581.532 Q -1339.302 -581.739 -1339.915 -580.759 Q -1340.528 -579.780 -1345.276 -557.766 Q -1343.468 -556.999 -1326.086 -583.637 Q -1326.783 -582.937 -1330.484 -578.131 Q -1334.186 -573.325 -1339.943 -563.865 Q -1345.700 -554.404 -1348.198 -543.987 Q -1345.296 -542.972 -1335.603 -553.803 Q -1325.909 -564.634 -1317.280 -586.405 Q -1319.648 -586.864 -1324.619 -580.037 Q -1329.591 -573.210 -1335.998 -562.306 Q -1342.405 -551.403 -1346.120 -544.332 Q -1349.834 -537.261 -1352.028 -526.641 Q -1352.279 -524.506 -1345.951 -531.222 Q -1339.623 -537.938 -1332.349 -548.146 Q -1325.075 -558.354 -1321.940 -563.445 Q -1318.805 -568.536 -1315.819 -574.929 Q -1312.834 -581.323 -1312.759 -588.802 Q -1314.321 -589.523 -1316.410 -588.941 Q -1318.500 -588.359 -1322.391 -584.207 Q -1326.283 -580.056 -1332.818 -571.764 Q -1339.354 -563.473 -1350.765 -541.042 Q -1349.906 -541.757 -1346.813 -547.307 Q -1343.721 -552.857 -1340.872 -562.939 Q -1338.022 -573.021 -1337.049 -579.460 Q -1336.075 -585.899 -1336.293 -592.266 Q -1337.384 -592.967 -1338.622 -592.510 Q -1339.860 -592.052 -1346.135 -581.258 Q -1352.409 -570.463 -1360.558 -550.721 Q -1359.760 -550.117 -1352.152 -561.590 Q -1344.544 -573.064 -1336.293 -594.204 Q -1338.153 -593.682 -1338.164 -593.604 Q -1338.176 -593.527 -1338.425 -593.143 Q -1338.675 -592.760 -1339.563 -592.214 Q -1340.451 -591.669 -1348.791 -579.360 Q -1357.131 -567.051 -1363.381 -548.013 Q -1360.603 -544.482 -1326.954 -593.435 Q -1329.366 -589.990 -1333.893 -582.341 Q -1338.421 -574.691 -1342.185 -567.647 Q -1345.949 -560.604 -1350.147 -551.539 Q -1354.344 -542.473 -1356.198 -536.584 Q -1358.052 -530.696 -1358.169 -525.635 Q -1352.114 -520.107 -1300.735 -587.929 Q -1302.336 -586.948 -1309.573 -576.822 Q -1316.810 -566.697 -1325.197 -553.759 Q -1333.585 -540.820 -1337.537 -534.088 Q -1341.490 -527.356 -1343.570 -523.473 Q -1345.650 -519.590 -1347.132 -509.991 Q -1345.727 -507.565 -1336.318 -517.499 Q -1326.909 -527.433 -1318.689 -537.826 Q -1310.469 -548.218 -1301.913 -560.282 Q -1293.356 -572.345 -1284.940 -588.728 Q -1287.157 -590.359 -1294.959 -581.321 Q -1302.762 -572.284 -1307.919 -564.248 Q -1313.077 -556.212 -1315.495 -552.734 Q -1317.913 -549.256 -1323.915 -538.905 Q -1329.916 -528.555 -1333.939 -520.494 Q -1337.962 -512.434 -1340.182 -501.007 Q -1336.524 -497.153 -1315.035 -526.965 Q -1293.546 -556.776 -1273.371 -589.675 Q -1272.188 -590.289 -1274.940 -588.447 Q -1277.692 -586.604 -1290.351 -571.018 Q -1303.011 -555.431 -1309.755 -545.670 Q -1316.499 -535.909 -1321.753 -527.714 Q -1327.008 -519.519 -1333.020 -510.166 Q -1339.033 -500.812 -1342.620 -493.462 Q -1346.207 -486.113 -1347.329 -478.940 Q -1346.639 -476.145 -1341.493 -480.519 Q -1336.346 -484.892 -1333.356 -487.455 Q -1330.366 -490.019 -1320.808 -502.340 Q -1311.250 -514.660 -1305.998 -522.216 Q -1300.747 -529.772 -1298.035 -533.746 Q -1295.324 -537.720 -1292.052 -542.147 Q -1288.780 -546.574 -1280.000 -559.349 Q -1271.221 -572.125 -1260.972 -592.073 Q -1260.443 -593.944 -1268.903 -585.106 Q -1277.363 -576.268 -1288.603 -563.581 Q -1299.843 -550.894 -1311.920 -534.811 Q -1323.998 -518.728 -1330.695 -508.907 Q -1337.393 -499.086 -1340.511 -494.243 Q -1343.629 -489.401 -1347.108 -483.171 Q -1350.587 -476.941 -1353.089 -471.360 Q -1355.590 -465.778 -1353.588 -459.714 Q -1347.339 -453.777 -1323.813 -484.935 Q -1300.288 -516.093 -1288.580 -533.243 Q -1276.873 -550.393 -1271.000 -559.606 Q -1265.127 -568.818 -1259.471 -580.618 Q -1260.513 -581.100 -1280.297 -555.799 Q -1300.080 -530.497 -1312.751 -513.215 Q -1325.421 -495.932 -1331.406 -487.785 Q -1337.391 -479.638 -1341.773 -472.474 Q -1346.155 -465.311 -1348.254 -460.642 Q -1350.354 -455.973 -1350.587 -451.159 Q -1347.381 -447.147 -1335.760 -460.095 Q -1324.140 -473.042 -1317.058 -482.831 Q -1309.977 -492.619 -1305.582 -498.745 Q -1301.187 -504.871 -1292.496 -516.774 Q -1283.806 -528.676 -1277.076 -538.134 Q -1270.346 -547.591 -1262.116 -559.352 Q -1253.886 -571.114 -1244.664 -581.891 Q -1243.888 -582.994 -1248.172 -579.262 Q -1252.457 -575.530 -1257.954 -569.549 Q -1263.451 -563.567 -1267.693 -558.717 Q -1271.935 -553.867 -1284.396 -539.106 Q -1296.858 -524.345 -1303.938 -514.866 Q -1311.018 -505.387 -1315.897 -498.117 Q -1320.777 -490.847 -1323.330 -486.995 Q -1325.884 -483.142 -1328.394 -478.668 Q -1330.904 -474.194 -1332.846 -470.333 Q -1334.787 -466.471 -1334.477 -460.646 Q -1333.382 -460.216 -1329.007 -461.169 Q -1324.632 -462.123 -1309.154 -481.242 Q -1293.676 -500.360 -1284.473 -512.149 Q -1275.271 -523.938 -1267.955 -533.295 Q -1260.639 -542.652 -1256.363 -547.910 Q -1252.086 -553.169 -1246.936 -559.498 Q -1241.786 -565.827 -1235.181 -573.571 Q -1228.576 -581.316 -1221.446 -587.278 Q -1221.845 -585.665 -1238.962 -566.744 Q -1256.080 -547.823 -1271.800 -527.758 Q -1287.519 -507.693 -1295.854 -496.252 Q -1304.189 -484.811 -1308.067 -478.174 Q -1311.944 -471.538 -1313.849 -466.737 Q -1315.755 -461.937 -1314.733 -457.893 Q -1315.501 -458.156 -1311.959 -457.909 Q -1308.418 -457.662 -1295.406 -472.446 Q -1282.393 -487.231 -1271.843 -500.820 Q -1261.292 -514.410 -1246.152 -533.023 Q -1231.012 -551.636 -1222.012 -562.872 Q -1213.013 -574.108 -1197.240 -589.439 Q -1197.915 -589.564 -1206.344 -581.064 Q -1214.772 -572.565 -1227.312 -557.288 Q -1239.851 -542.011 -1246.637 -533.848 Q -1253.423 -525.685 -1256.760 -521.856 Q -1260.098 -518.028 -1271.895 -503.375 Q -1283.693 -488.722 -1289.859 -479.785 Q -1296.025 -470.847 -1299.179 -465.827 Q -1302.333 -460.806 -1302.927 -455.688 Q -1300.405 -453.969 -1293.007 -459.578 Q -1285.609 -465.188 -1274.638 -478.699 Q -1263.668 -492.211 -1252.424 -506.240 Q -1241.179 -520.269 -1234.278 -529.117 Q -1227.377 -537.965 -1217.767 -550.880 Q -1208.157 -563.796 -1200.755 -576.977 Q -1201.665 -577.405 -1201.901 -577.353 Q -1202.137 -577.302 -1205.747 -574.579 Q -1209.356 -571.856 -1222.707 -554.850 Q -1236.057 -537.845 -1244.063 -527.314 Q -1252.069 -516.783 -1256.395 -511.392 Q -1260.720 -506.001 -1269.080 -493.222 Q -1277.440 -480.443 -1282.979 -472.193 Q -1288.519 -463.944 -1290.508 -455.052 Q -1286.841 -453.379 -1272.067 -471.637 Q -1257.293 -489.895 -1248.219 -501.185 Q -1239.145 -512.475 -1232.408 -521.032 Q -1225.671 -529.590 -1222.500 -533.748 Q -1219.328 -537.907 -1215.536 -542.531 Q -1211.744 -547.156 -1199.254 -563.923 Q -1200.995 -564.580 -1215.122 -548.046 Q -1229.249 -531.512 -1236.887 -520.895 Q -1244.525 -510.278 -1249.543 -503.774 Q -1254.561 -497.270 -1261.358 -486.940 Q -1268.156 -476.610 -1274.003 -462.792 Q -1271.836 -460.068 -1252.403 -484.489 Q -1232.970 -508.909 -1221.579 -523.321 Q -1210.189 -537.733 -1203.354 -545.750 Q -1196.518 -553.768 -1191.831 -560.637 Q -1192.996 -561.181 -1205.490 -547.757 Q -1217.984 -534.334 -1225.640 -524.273 Q -1233.295 -514.211 -1237.786 -508.079 Q -1242.277 -501.946 -1245.039 -497.958 Q -1247.801 -493.971 -1249.513 -491.343 Q -1251.225 -488.715 -1251.959 -487.786 Q -1252.692 -486.858 -1257.908 -478.325 Q -1263.125 -469.792 -1266.594 -463.513 Q -1270.063 -457.234 -1270.429 -450.212 Q -1267.888 -448.851 -1262.418 -454.636 Q -1256.948 -460.421 -1251.663 -466.679 Q -1246.379 -472.937 -1239.342 -481.979 Q -1232.305 -491.020 -1196.372 -540.154 Q -1195.977 -540.890 -1209.085 -525.114 Q -1222.192 -509.339 -1231.666 -494.687 Q -1241.141 -480.036 -1246.417 -471.542 Q -1251.694 -463.048 -1253.627 -454.549 Q -1252.250 -453.713 -1246.311 -460.361 Q -1240.371 -467.009 -1230.689 -480.158 Q -1221.008 -493.306 -1215.559 -499.946 Q -1210.110 -506.585 -1207.128 -510.177 Q -1204.146 -513.768 -1194.990 -522.808 Q -1194.103 -522.712 -1202.479 -510.751 Q -1210.854 -498.790 -1217.468 -487.843 Q -1224.081 -476.896 -1226.796 -464.864 Q -1223.789 -459.322 -1187.724 -508.718 Q -1188.225 -507.242 -1194.953 -498.064 Q -1201.680 -488.886 -1214.812 -462.837 Q -1213.143 -460.505 -1187.842 -493.888 Q -1188.562 -492.724 -1195.962 -482.083 Q -1203.362 -471.441 -1208.593 -456.754 Q -1206.406 -455.208 -1199.150 -464.932 Q -1191.894 -474.655 -1187.440 -480.737 Q -1182.986 -486.820 -1179.550 -491.017 Q -1180.125 -489.298 -1189.461 -464.998 Q -1189.201 -466.602 -1186.162 -472.053 Q -1183.124 -477.504 -1182.314 -478.821 "></path>
    <path id="STROKE_45b5663a-7fcf-494b-8df1-6789dad13c35" opacity="0.100" fill="none" stroke="#9378e3" stroke-width="13.714" stroke-opacity="1.000" stroke-linecap="round" stroke-linejoin="round" d="M -1034.676 -620.281 Q -1035.472 -620.990 -1032.401 -623.612 Q -1029.330 -626.234 -1017.464 -625.765 Q -1005.598 -625.295 -998.790 -624.169 Q -991.982 -623.044 -988.041 -622.676 Q -984.099 -622.309 -978.449 -622.117 Q -972.799 -621.926 -966.213 -623.254 Q -959.627 -624.582 -951.517 -624.159 Q -951.430 -624.711 -954.372 -623.337 Q -957.314 -621.964 -958.413 -614.996 Q -959.512 -608.028 -959.499 -597.118 Q -959.486 -586.207 -958.373 -576.860 Q -957.260 -567.512 -956.532 -560.074 Q -956.529 -559.676 -956.522 -560.211 Q -956.516 -560.745 -956.591 -562.264 Q -959.040 -563.821 -966.993 -564.171 Q -974.946 -564.520 -987.625 -564.404 Q -1000.303 -564.288 -1008.098 -563.808 Q -1015.893 -563.328 -1029.188 -563.389 Q -1027.618 -563.293 -1027.516 -582.324 Q -1027.413 -601.354 -1028.911 -632.980 Q -1028.806 -632.638 -1029.592 -619.305 Q -1030.377 -605.971 -1030.341 -597.181 Q -1030.305 -588.391 -1029.600 -582.892 Q -1028.895 -577.394 -1027.387 -573.954 Q -1025.879 -570.514 -1023.840 -569.429 Q -1021.802 -568.343 -1019.942 -568.754 Q -1018.081 -569.164 -1015.505 -577.941 Q -1012.929 -586.718 -1012.200 -595.430 Q -1011.472 -604.142 -1011.513 -609.231 Q -1011.555 -614.321 -1012.322 -617.188 Q -1013.088 -620.055 -1015.920 -620.903 Q -1017.956 -621.495 -1019.054 -602.671 Q -1020.151 -583.847 -1017.815 -563.078 Q -1015.310 -561.586 -1010.155 -578.206 Q -1005.000 -594.826 -1003.837 -630.701 Q -1005.757 -630.124 -1007.723 -610.755 Q -1009.689 -591.386 -1009.849 -579.390 Q -1010.009 -567.394 -1008.023 -558.609 Q -1005.953 -559.236 -1006.028 -559.337 Q -1006.103 -559.437 -1005.872 -560.120 Q -1005.641 -560.803 -1004.688 -561.988 Q -1003.734 -563.173 -999.937 -574.486 Q -996.139 -585.799 -994.003 -598.993 Q -991.867 -612.187 -989.780 -623.537 Q -989.024 -622.548 -992.250 -604.335 Q -995.476 -586.121 -994.301 -556.344 Q -994.406 -555.607 -992.759 -556.992 Q -991.111 -558.378 -984.833 -574.763 Q -978.555 -591.148 -974.459 -616.759 Q -975.129 -613.136 -978.427 -562.945 Q -977.313 -562.205 -958.230 -613.858 Q -957.334 -613.707 -958.003 -600.735 Q -958.673 -587.763 -956.413 -574.193 Q -953.178 -573.839 -953.167 -582.564 Q -953.156 -591.288 -953.412 -592.102 "></path>
    <path id="STROKE_9fe90e02-9fd8-4dbd-89b9-599bbbe8de87" opacity="0.100" fill="none" stroke="#9378e3" stroke-width="14.447" stroke-opacity="0.779" stroke-linecap="round" stroke-linejoin="round" d="M -1028.911 -624.307 Q -1029.328 -624.183 -1034.321 -626.231 L -1034.321 -626.364 Q -1034.485 -625.999 -1016.707 -627.381 Q -998.929 -628.762 -987.275 -629.109 Q -975.620 -629.456 -966.672 -629.483 Q -957.723 -629.509 -944.883 -624.426 Q -944.883 -624.233 -944.883 -624.159 Q -946.874 -623.921 -957.186 -622.849 Q -967.498 -621.777 -978.131 -623.286 Q -975.849 -624.849 -975.663 -624.426 Q -976.851 -623.841 -971.502 -625.072 Q -966.153 -626.302 -963.508 -627.277 Q -960.863 -628.252 -958.833 -628.104 Q -956.804 -627.956 -955.621 -626.870 Q -954.437 -625.785 -953.027 -619.653 Q -951.616 -613.521 -951.647 -608.960 Q -951.678 -604.400 -951.619 -600.634 Q -951.561 -596.869 -953.472 -570.493 Q -953.353 -570.493 -953.136 -570.552 Q -953.205 -572.821 -952.835 -577.784 Q -952.465 -582.748 -952.267 -583.310 "></path>
    <path id="STROKE_6231502f-d76d-4f92-a77a-adc5d9542a44" opacity="0.100" fill="none" stroke="#9378e3" stroke-width="15.482" stroke-opacity="1.000" stroke-linecap="round" stroke-linejoin="round" d="M -1008.220 -629.458 Q -1007.304 -632.217 -1010.609 -637.983 Q -1010.627 -639.832 -1016.116 -632.019 Q -1021.605 -624.207 -1040.204 -591.421 Q -1038.063 -590.863 -1022.413 -606.508 Q -1006.764 -622.154 -992.899 -640.380 Q -994.982 -642.061 -1003.521 -633.073 Q -1012.059 -624.085 -1018.206 -615.761 Q -1024.353 -607.436 -1029.070 -600.564 Q -1033.786 -593.692 -1034.064 -585.945 Q -1028.871 -586.496 -1021.299 -592.698 Q -1013.728 -598.899 -980.105 -635.230 Q -978.977 -637.259 -986.254 -630.388 Q -993.531 -623.517 -999.692 -616.246 Q -1005.853 -608.976 -1009.774 -604.227 Q -1013.694 -599.478 -1017.660 -593.952 Q -1021.627 -588.426 -1022.336 -582.185 Q -1020.084 -580.062 -1003.463 -595.866 Q -986.841 -611.671 -960.559 -639.492 Q -960.801 -639.659 -965.904 -634.099 Q -971.007 -628.540 -975.840 -622.625 Q -980.673 -616.709 -986.431 -609.432 Q -992.189 -602.154 -998.799 -593.854 Q -1005.409 -585.553 -1011.853 -572.003 Q -1010.082 -570.003 -990.717 -588.312 Q -971.351 -606.620 -950.135 -632.980 Q -951.174 -632.830 -958.017 -625.151 Q -964.861 -617.473 -969.343 -611.992 Q -973.824 -606.510 -975.855 -603.985 Q -977.886 -601.460 -983.091 -594.922 Q -988.295 -588.383 -992.288 -582.698 Q -996.281 -577.012 -998.844 -572.725 Q -1001.406 -568.438 -1001.942 -565.269 Q -1001.299 -563.326 -991.772 -572.733 Q -982.245 -582.140 -970.220 -594.577 Q -958.195 -607.013 -951.308 -613.915 Q -944.421 -620.817 -939.750 -626.438 Q -940.076 -626.417 -949.711 -614.843 Q -959.346 -603.268 -964.780 -595.465 Q -970.213 -587.662 -972.987 -582.947 Q -975.760 -578.232 -976.354 -573.202 Q -974.785 -570.116 -962.598 -582.282 Q -950.411 -594.449 -933.254 -608.441 Q -932.306 -607.458 -938.146 -594.619 Q -943.985 -581.781 -949.029 -566.586 Q -948.408 -569.742 -945.757 -572.345 Q -943.106 -574.948 -942.474 -575.644 "></path>
    <path id="STROKE_12762a7f-6903-40ab-a97f-e94cd4c1a0e4" opacity="0.320" fill="none" stroke="#9378e3" stroke-width="18.111" stroke-opacity="0.653" stroke-linecap="round" stroke-linejoin="round" d="M -1235.567 -571.160 Q -1236.476 -571.112 -1231.074 -572.249 Q -1225.673 -573.387 -1221.020 -580.314 Q -1223.081 -580.373 -1244.139 -579.113 Q -1265.198 -577.853 -1288.267 -576.491 Q -1311.337 -575.129 -1337.318 -572.491 Q -1331.082 -572.609 -1330.259 -572.235 Q -1329.436 -571.861 -1286.897 -575.739 Q -1244.359 -579.617 -1195.820 -584.034 Q -1197.152 -585.069 -1226.705 -582.007 Q -1256.257 -578.945 -1276.451 -577.200 Q -1296.645 -575.454 -1307.766 -574.804 Q -1318.887 -574.154 -1325.569 -573.968 Q -1326.388 -573.972 -1314.105 -573.941 Q -1301.821 -573.910 -1274.121 -574.509 Q -1246.422 -575.109 -1216.691 -575.682 Q -1218.100 -576.951 -1334.764 -572.728 Q -1334.846 -571.455 -1301.536 -574.351 L -1301.536 -574.442 Q -1301.760 -574.693 -1321.921 -573.968 Q -1321.702 -574.114 -1321.483 -574.260 "></path>
    <path id="STROKE_d0a23fd4-ece9-4cc9-8326-8d4fb8aaf65c" opacity="0.320" fill="none" stroke="#9378e3" stroke-width="9.860" stroke-opacity="1.000" stroke-linecap="round" stroke-linejoin="round" d="M -1338.024 -558.177 Q -1340.990 -556.603 -1343.862 -578.162 Q -1344.101 -577.173 -1343.752 -551.147 Q -1343.403 -525.121 -1342.255 -508.482 Q -1341.106 -491.843 -1338.705 -478.965 L -1338.243 -478.892 Q -1334.730 -480.689 -1334.618 -568.698 Q -1334.822 -562.729 -1334.474 -563.491 Q -1334.126 -564.254 -1336.540 -471.452 Q -1333.833 -470.787 -1329.996 -547.783 Q -1329.850 -547.002 -1331.697 -522.036 Q -1333.544 -497.069 -1330.677 -463.939 Q -1330.576 -462.579 -1329.726 -465.547 Q -1328.876 -468.516 -1327.259 -476.941 Q -1325.642 -485.365 -1325.180 -486.915 "></path>
    <path id="STROKE_a4ee2278-f2a0-4fa1-a227-68b75c697a5c" opacity="0.320" fill="none" stroke="#9378e3" stroke-width="9.939" stroke-opacity="1.000" stroke-linecap="round" stroke-linejoin="round" d="M -1209.880 -567.623 Q -1209.511 -567.418 -1210.549 -570.390 Q -1211.588 -573.361 -1211.363 -583.560 Q -1213.287 -583.557 -1200.077 -487.243 L -1199.931 -487.243 Q -1199.376 -487.336 -1199.272 -503.263 Q -1199.168 -519.190 -1199.225 -566.930 Q -1200.459 -564.191 -1200.295 -488.009 Q -1200.223 -488.009 -1200.150 -488.009 Q -1200.150 -488.082 -1200.150 -488.775 Q -1202.042 -486.060 -1195.358 -469.045 Q -1193.215 -469.901 -1192.899 -478.727 Q -1192.584 -487.553 -1192.268 -490.343 "></path>
    <path id="STROKE_64461892-88bc-403d-b563-fec70ba472e2" opacity="0.320" fill="none" stroke="#9378e3" stroke-width="17.121" stroke-opacity="0.584" stroke-linecap="round" stroke-linejoin="round" d="M -1342.938 -466.492 Q -1342.907 -466.604 -1355.781 -464.304 Q -1354.926 -464.792 -1237.002 -467.495 L -1236.929 -467.659 Q -1237.810 -469.177 -1260.136 -469.658 Q -1282.463 -470.139 -1312.190 -464.468 Q -1313.341 -461.739 -1201.560 -472.984 Q -1202.002 -476.386 -1291.101 -462.006 Q -1289.879 -460.937 -1258.496 -466.782 Q -1227.112 -472.628 -1186.527 -475.464 Q -1186.552 -476.078 -1211.035 -472.918 Q -1235.519 -469.758 -1251.083 -468.126 Q -1266.646 -466.493 -1278.671 -466.164 Q -1276.338 -466.516 -1260.623 -471.336 Q -1244.907 -476.156 -1241.745 -477.323 "></path>
    <path id="STROKE_b0f41bb7-d212-4d1c-b684-989f852eed7b" opacity="0.320" fill="none" stroke="#9378e3" stroke-width="12.100" stroke-opacity="1.000" stroke-linecap="round" stroke-linejoin="round" d="M -1028.669 -608.814 Q -1033.053 -607.667 -1033.035 -615.619 Q -1033.018 -623.571 -1028.493 -634.349 L -1028.376 -634.349 Q -1027.844 -632.970 -1028.552 -573.223 Q -1028.443 -573.864 -1024.954 -637.457 Q -1025.792 -636.109 -1027.203 -563.520 Q -1025.601 -563.071 -1025.463 -581.198 Q -1025.974 -580.310 -1026.147 -574.528 Q -1021.992 -574.403 -1023.155 -574.455 Q -1023.080 -573.110 -1007.119 -576.858 Q -991.158 -580.607 -980.517 -583.235 Q -969.875 -585.863 -961.110 -584.935 Q -960.287 -582.320 -969.115 -580.706 Q -977.942 -579.092 -993.159 -575.525 L -993.159 -575.451 Q -992.864 -574.726 -981.726 -576.896 Q -970.589 -579.067 -962.300 -579.229 Q -954.011 -579.390 -950.380 -579.695 Q -946.748 -579.999 -944.318 -579.558 Q -941.888 -579.117 -941.222 -577.652 Q -940.556 -576.188 -940.666 -576.349 Q -940.776 -576.511 -940.784 -576.370 Q -940.792 -576.229 -940.537 -576.435 Q -940.282 -576.640 -940.403 -576.515 Q -940.523 -576.390 -941.484 -575.747 Q -942.444 -575.105 -942.865 -574.935 Q -943.286 -574.766 -943.287 -574.809 Q -943.288 -574.852 -943.085 -574.749 Q -942.881 -574.646 -944.387 -575.188 Q -945.893 -575.730 -950.414 -570.233 Q -949.520 -571.684 -944.704 -635.082 Q -946.434 -635.341 -946.366 -571.347 L -946.190 -571.347 Q -945.938 -571.197 -943.336 -585.592 Q -940.733 -599.986 -940.240 -607.951 Q -939.747 -615.916 -939.635 -619.579 Q -939.523 -623.243 -940.024 -624.630 Q -940.526 -626.017 -941.049 -626.784 Q -941.571 -627.550 -941.337 -627.312 Q -941.102 -627.074 -941.249 -627.303 Q -941.396 -627.532 -941.291 -627.367 Q -941.186 -627.202 -941.450 -627.541 Q -941.714 -627.880 -942.297 -628.664 Q -942.881 -629.448 -942.931 -629.391 Q -942.981 -629.334 -943.352 -629.523 Q -943.722 -629.713 -947.740 -631.454 Q -951.759 -633.195 -957.504 -633.743 Q -963.250 -634.292 -967.439 -634.334 Q -971.629 -634.377 -1017.250 -633.235 Q -1017.367 -633.484 -1017.308 -633.675 Q -1018.916 -633.468 -1006.651 -634.845 Q -994.385 -636.223 -981.055 -636.211 Q -980.342 -634.020 -1014.669 -634.906 Q -1014.407 -634.977 -1014.741 -634.719 Q -1015.076 -634.460 -1013.982 -635.964 Q -1012.887 -637.468 -1009.917 -638.309 Q -1006.946 -639.150 -1004.345 -638.926 Q -1001.743 -638.703 -1000.629 -638.453 "></path>
  </g>
  <g id="Pen" opacity="1.000">
    <path id="STROKE_b8406c42-7c2f-40a0-9ecf-0d96cb0e07cb" opacity="1.000" fill="none" stroke="#f3ba38" stroke-width="3.900" stroke-opacity="1.000" stroke-linecap="round" stroke-linejoin="round" d="M -1368.626 -649.258 Q -1368.560 -650.255 -1368.576 -650.979 Q -1368.591 -651.703 -1368.815 -652.606 Q -1369.040 -653.509 -1369.044 -653.485 Q -1369.048 -653.460 -1368.903 -653.310 Q -1368.757 -653.160 -1369.569 -654.031 Q -1370.267 -653.275 -1368.645 -636.715 Q -1367.023 -620.155 -1365.780 -611.269 Q -1364.538 -602.383 -1364.411 -597.717 Q -1364.283 -593.052 -1364.062 -588.490 Q -1363.842 -583.927 -1363.567 -581.606 Q -1363.293 -579.284 -1362.471 -572.954 Q -1361.650 -566.624 -1361.756 -562.169 Q -1361.863 -557.714 -1361.876 -554.972 Q -1361.889 -552.230 -1361.529 -533.901 Q -1361.170 -515.572 -1360.922 -505.862 Q -1360.675 -496.152 -1360.223 -491.220 Q -1359.771 -486.288 -1359.866 -483.375 Q -1359.960 -480.462 -1359.067 -475.394 Q -1358.173 -470.325 -1357.594 -465.169 Q -1357.015 -460.014 -1356.792 -454.832 Q -1356.569 -449.651 -1355.483 -444.502 L -1355.442 -444.502 Q -1355.403 -443.833 -1355.190 -447.465 Q -1354.978 -451.096 -1354.882 -452.050 "></path>
    <path id="STROKE_6afb3ab5-873f-42d3-b9e4-86cc2321f2ab" opacity="1.000" fill="none" stroke="#f3ba38" stroke-width="3.900" stroke-opacity="1.000" stroke-linecap="round" stroke-linejoin="round" d="M -1357.061 -448.678 Q -1356.556 -448.168 -1358.195 -445.821 Q -1356.399 -446.066 -1356.815 -446.020 Q -1357.138 -446.325 -1349.124 -447.029 Q -1341.110 -447.732 -1336.019 -448.223 Q -1330.927 -448.713 -1322.851 -449.288 Q -1314.775 -449.864 -1307.368 -449.849 Q -1299.960 -449.834 -1293.865 -450.241 Q -1287.770 -450.648 -1278.229 -451.350 Q -1268.688 -452.053 -1254.265 -453.115 Q -1239.843 -454.177 -1231.481 -454.929 Q -1223.120 -455.682 -1219.070 -455.716 Q -1215.020 -455.751 -1212.812 -455.858 Q -1210.605 -455.964 -1207.237 -456.109 Q -1203.869 -456.254 -1200.051 -456.577 Q -1196.233 -456.901 -1192.626 -457.197 Q -1189.019 -457.494 -1185.537 -457.794 Q -1182.055 -458.094 -1170.307 -458.411 Q -1158.558 -458.728 -1152.306 -458.779 Q -1146.054 -458.830 -1138.778 -458.947 Q -1131.502 -459.064 -1124.200 -459.111 Q -1116.897 -459.157 -1080.926 -458.978 Q -1080.967 -458.978 -1081.356 -458.891 Q -1081.744 -458.803 -1082.052 -458.627 "></path>
    <path id="STROKE_a0cbaf7b-6c77-49db-b0cd-1071df8371ec" opacity="1.000" fill="none" stroke="#f3ba38" stroke-width="3.900" stroke-opacity="1.000" stroke-linecap="round" stroke-linejoin="round" d="M -1385.626 -649.403 Q -1385.104 -649.173 -1387.206 -647.692 Q -1387.948 -649.637 -1382.437 -655.920 Q -1376.925 -662.203 -1373.699 -666.356 Q -1370.473 -670.509 -1367.203 -671.808 Q -1366.554 -670.632 -1365.437 -664.987 Q -1364.321 -659.342 -1360.873 -656.159 Q -1357.425 -652.977 -1356.905 -652.675 "></path>
    <path id="STROKE_3f19b456-87c5-4615-8e57-71c23ea2ab16" opacity="1.000" fill="none" stroke="#f3ba38" stroke-width="3.900" stroke-opacity="1.000" stroke-linecap="round" stroke-linejoin="round" d="M -1078.364 -472.052 Q -1077.563 -471.678 -1082.959 -472.709 Q -1083.069 -474.993 -1082.994 -474.222 Q -1083.353 -474.466 -1080.951 -474.684 Q -1078.548 -474.901 -1074.754 -472.741 Q -1070.959 -470.581 -1068.942 -469.043 Q -1066.926 -467.505 -1064.998 -465.341 Q -1063.070 -463.177 -1062.274 -461.552 Q -1061.479 -459.926 -1061.307 -458.265 Q -1061.136 -456.605 -1065.864 -452.824 Q -1070.591 -449.044 -1081.436 -437.582 Q -1081.594 -437.285 -1081.105 -437.807 Q -1080.616 -438.329 -1080.226 -438.804 "></path>
    <path id="STROKE_3f87a28f-3b10-4bd4-ad82-0080d55afeda" opacity="1.000" fill="none" stroke="#f3ba38" stroke-width="3.900" stroke-opacity="1.000" stroke-linecap="round" stroke-linejoin="round" d="M -1435.952 -677.041 Q -1435.529 -678.478 -1435.641 -678.090 Q -1435.393 -679.040 -1434.590 -680.498 Q -1433.318 -680.438 -1431.195 -674.812 Q -1429.073 -669.185 -1427.629 -665.877 Q -1426.185 -662.568 -1425.226 -660.406 Q -1424.266 -658.243 -1422.307 -656.778 Q -1422.092 -657.722 -1419.982 -665.411 Q -1417.872 -673.101 -1416.148 -677.526 Q -1414.423 -681.951 -1413.475 -683.711 Q -1412.526 -685.470 -1411.584 -686.516 Q -1410.642 -687.562 -1409.521 -687.252 Q -1408.401 -686.941 -1408.147 -686.640 "></path>
    <path id="STROKE_998ddc7e-282f-4262-8d2d-a9ebc7331652" opacity="1.000" fill="none" stroke="#f3ba38" stroke-width="3.900" stroke-opacity="1.000" stroke-linecap="round" stroke-linejoin="round" d="M -1048.665 -430.971 Q -1047.990 -431.714 -1043.409 -443.245 Q -1042.510 -443.926 -1045.140 -437.196 Q -1047.770 -430.465 -1048.946 -425.613 Q -1050.121 -420.760 -1050.302 -418.224 Q -1050.484 -415.688 -1050.244 -414.608 Q -1050.004 -413.528 -1047.175 -412.064 Q -1044.345 -410.601 -1036.816 -413.737 Q -1029.286 -416.874 -1028.938 -417.214 "></path>
    <path id="STROKE_c73dfa20-d3f0-48ba-805a-ec9d3058d98d" opacity="1.000" fill="none" stroke="#f3ba38" stroke-width="3.900" stroke-opacity="1.000" stroke-linecap="round" stroke-linejoin="round" d="M -1056.398 -428.738 Q -1054.989 -428.011 -1054.930 -427.975 Q -1054.871 -427.939 -1054.878 -428.010 Q -1052.914 -427.857 -1053.650 -427.537 Q -1054.387 -427.217 -1044.563 -429.088 Q -1034.740 -430.960 -1033.830 -431.270 "></path>
    <path id="STROKE_41e57391-eda4-4072-9593-1efb1ff467dc" opacity="1.000" fill="none" stroke="#f3ba38" stroke-width="3.900" stroke-opacity="1.000" stroke-linecap="round" stroke-linejoin="round" d="M -1128.494 -704.940 Q -1128.494 -704.940 -1127.840 -704.536 Q -1127.187 -704.131 -1127.566 -704.437 Q -1124.285 -706.138 -1125.295 -705.887 Q -1124.199 -706.831 -1115.663 -721.615 Q -1107.127 -736.398 -1098.286 -765.918 Q -1098.211 -765.680 -1098.175 -766.297 Q -1098.140 -766.913 -1095.699 -749.989 Q -1093.258 -733.065 -1085.789 -705.443 Q -1085.670 -705.443 -1085.611 -705.443 Q -1085.621 -707.449 -1085.552 -707.456 Q -1085.411 -708.349 -1084.909 -711.262 Q -1084.407 -714.176 -1084.111 -715.123 "></path>
    <path id="STROKE_2b18c8ec-1e02-46bb-92fe-8428c8583e3a" opacity="1.000" fill="none" stroke="#f3ba38" stroke-width="3.900" stroke-opacity="1.000" stroke-linecap="round" stroke-linejoin="round" d="M -1116.569 -725.069 Q -1116.648 -725.069 -1117.832 -725.069 Q -1117.772 -725.420 -1105.009 -725.429 Q -1092.245 -725.439 -1091.100 -725.306 "></path>
    <path id="STROKE_28ffc381-58d0-4d7a-ad50-4d7a4ea2efa2" opacity="1.000" fill="none" stroke="#f3ba38" stroke-width="3.900" stroke-opacity="1.000" stroke-linecap="round" stroke-linejoin="round" d="M -1067.052 -745.286 L -1067.112 -745.286 Q -1069.219 -746.341 -1064.150 -710.091 Q -1062.120 -710.018 -1060.010 -720.072 Q -1057.899 -730.126 -1049.343 -746.292 Q -1048.614 -745.122 -1048.347 -744.205 Q -1048.079 -743.288 -1047.704 -742.651 "></path>
    <path id="STROKE_dff6aa4e-ff83-471d-8f34-71a7a42fa9bc" opacity="1.000" fill="none" stroke="#f3ba38" stroke-width="3.900" stroke-opacity="1.000" stroke-linecap="round" stroke-linejoin="round" d="M -1040.557 -730.722 Q -1042.137 -731.139 -1034.720 -730.502 Q -1027.304 -729.865 -1022.910 -730.225 Q -1018.517 -730.585 -1016.690 -731.140 Q -1014.863 -731.696 -1013.240 -733.526 Q -1011.616 -735.357 -1013.049 -738.265 Q -1014.481 -741.172 -1017.528 -742.998 Q -1020.575 -744.824 -1024.650 -745.208 Q -1028.725 -745.592 -1031.844 -744.234 Q -1034.962 -742.875 -1037.335 -737.868 Q -1039.709 -732.861 -1040.625 -727.952 Q -1041.541 -723.043 -1041.613 -720.466 Q -1041.686 -717.889 -1039.890 -715.701 Q -1038.094 -713.513 -1036.317 -712.912 Q -1034.540 -712.310 -1030.467 -711.591 Q -1026.395 -710.872 -1023.950 -711.961 Q -1021.504 -713.051 -1020.616 -713.732 "></path>
    <path id="STROKE_3146bb27-9cee-4a9a-8eb5-e2d4484fba6a" opacity="1.000" fill="none" stroke="#f3ba38" stroke-width="3.900" stroke-opacity="1.000" stroke-linecap="round" stroke-linejoin="round" d="M -994.515 -744.161 Q -994.641 -745.188 -998.271 -740.243 Q -1001.900 -735.299 -1003.739 -728.788 Q -1005.577 -722.276 -1006.107 -718.364 Q -1006.636 -714.452 -1005.939 -712.980 Q -1005.242 -711.509 -1004.165 -711.298 Q -1003.089 -711.087 -1002.426 -710.864 Q -1001.763 -710.641 -998.240 -711.946 Q -994.718 -713.250 -989.997 -718.102 Q -985.276 -722.954 -982.748 -738.818 Q -985.320 -738.321 -986.977 -733.613 Q -988.634 -728.904 -988.936 -723.904 Q -989.239 -718.904 -989.261 -716.377 Q -989.284 -713.850 -988.558 -712.665 Q -987.833 -711.479 -987.092 -710.974 Q -986.352 -710.468 -985.852 -710.042 Q -985.351 -709.616 -983.758 -709.087 Q -982.164 -708.558 -979.429 -708.582 Q -976.695 -708.607 -975.417 -711.177 Q -974.140 -713.746 -973.706 -714.620 "></path>
    <path id="STROKE_9d7e80ce-9b13-4989-ade9-8f1d56b384f6" opacity="1.000" fill="none" stroke="#f3ba38" stroke-width="3.900" stroke-opacity="1.000" stroke-linecap="round" stroke-linejoin="round" d="M -930.823 -738.744 Q -933.005 -739.139 -932.620 -739.011 Q -934.437 -737.026 -935.034 -730.621 Q -935.631 -724.215 -935.473 -720.406 Q -935.315 -716.596 -933.758 -713.820 Q -932.201 -711.043 -930.008 -710.259 Q -927.815 -709.475 -925.661 -709.765 Q -923.507 -710.055 -918.404 -716.290 Q -913.301 -722.525 -910.757 -729.490 Q -908.213 -736.455 -908.193 -740.463 Q -908.172 -744.470 -908.134 -746.353 Q -908.096 -748.236 -908.419 -748.830 Q -908.742 -749.424 -908.638 -749.242 Q -908.534 -749.060 -910.084 -750.127 Q -911.633 -751.195 -913.911 -748.295 Q -916.188 -745.396 -917.935 -741.597 Q -919.682 -737.799 -920.624 -735.208 Q -921.566 -732.617 -921.777 -730.719 Q -921.989 -728.822 -922.013 -726.798 Q -922.037 -724.775 -921.797 -723.672 Q -921.558 -722.570 -917.889 -721.778 Q -914.220 -720.986 -906.391 -724.433 Q -898.561 -727.879 -892.764 -731.468 Q -886.966 -735.057 -883.956 -737.523 Q -880.946 -739.989 -877.956 -745.106 Q -874.967 -750.223 -873.897 -755.808 Q -872.827 -761.393 -872.661 -764.725 Q -872.495 -768.056 -873.705 -769.923 Q -874.916 -771.790 -876.313 -772.355 Q -877.710 -772.920 -879.179 -772.765 Q -880.648 -772.610 -882.763 -767.563 Q -884.878 -762.515 -887.278 -754.955 Q -889.677 -747.395 -891.127 -733.081 Q -892.577 -718.767 -892.683 -707.759 Q -892.790 -696.752 -891.766 -690.917 Q -890.743 -685.082 -890.276 -682.599 Q -889.809 -680.115 -888.551 -678.879 Q -887.293 -677.643 -886.185 -677.830 Q -885.077 -678.016 -885.126 -678.188 Q -885.176 -678.359 -884.422 -678.885 Q -883.668 -679.411 -881.447 -682.950 Q -879.227 -686.490 -878.328 -693.682 Q -877.428 -700.873 -877.287 -705.690 Q -877.146 -710.508 -878.494 -714.733 Q -879.841 -718.958 -883.712 -721.901 Q -887.584 -724.843 -893.054 -725.320 Q -893.192 -724.743 -893.311 -724.299 Q -893.429 -723.855 -893.666 -723.293 "></path>
    <path id="STROKE_43ab97c4-19ec-44ad-b760-d7ed3796b71a" opacity="1.000" fill="none" stroke="#f3ba38" stroke-width="3.900" stroke-opacity="1.000" stroke-linecap="round" stroke-linejoin="round" d="M -1036.690 -630.079 Q -1036.913 -628.187 -1035.940 -635.111 Q -1036.710 -634.820 -1037.875 -617.594 Q -1039.041 -600.368 -1039.771 -591.180 Q -1040.501 -581.993 -1040.689 -577.722 Q -1040.878 -573.452 -1040.070 -570.992 Q -1039.263 -568.532 -1037.885 -567.250 Q -1036.507 -565.968 -1036.507 -565.968 Q -1036.507 -565.967 -1036.489 -565.700 Q -1036.471 -565.432 -1036.626 -566.277 Q -1036.782 -567.122 -1035.505 -557.410 Q -1036.101 -557.363 -1034.645 -557.305 Q -1033.189 -557.248 -1029.302 -558.889 Q -1025.415 -560.530 -1020.493 -560.768 Q -1015.571 -561.005 -1010.648 -561.011 Q -1005.724 -561.017 -994.491 -561.171 Q -983.258 -561.325 -976.804 -561.369 Q -970.349 -561.414 -963.875 -563.676 Q -957.402 -565.938 -953.423 -567.531 Q -949.445 -569.123 -944.882 -569.030 Q -940.318 -568.938 -932.563 -567.533 Q -932.236 -566.796 -933.222 -570.298 Q -934.208 -573.800 -935.093 -580.026 Q -935.978 -586.252 -934.103 -634.460 Q -932.874 -636.039 -934.802 -629.507 Q -936.729 -622.975 -936.986 -622.649 "></path>
    <path id="STROKE_75e50335-01e6-4c45-9068-afec29506f13" opacity="1.000" fill="none" stroke="#f3ba38" stroke-width="3.900" stroke-opacity="1.000" stroke-linecap="round" stroke-linejoin="round" d="M -1025.160 -634.963 Q -1026.209 -636.246 -1025.969 -635.984 Q -1026.948 -638.415 -1026.719 -637.864 Q -1027.248 -640.398 -1026.976 -639.507 Q -1027.938 -639.651 -1013.765 -641.378 Q -999.593 -643.104 -987.867 -642.341 Q -976.141 -641.578 -967.765 -640.006 Q -959.390 -638.434 -953.306 -637.686 Q -947.221 -636.938 -935.446 -640.573 L -935.446 -640.647 Q -936.906 -640.315 -937.785 -639.438 Q -938.664 -638.560 -939.474 -637.864 "></path>
    <path id="STROKE_0933039d-cb43-4431-a804-4b312ef3b98e" opacity="1.000" fill="none" stroke="#f3ba38" stroke-width="3.900" stroke-opacity="1.000" stroke-linecap="round" stroke-linejoin="round" d="M -902.356 -615.871 Q -901.996 -615.945 -904.093 -615.753 Q -902.382 -616.993 -892.666 -615.211 Q -882.949 -613.428 -873.545 -612.131 Q -864.141 -610.833 -843.758 -613.473 Q -843.781 -613.705 -847.225 -612.213 Q -850.668 -610.720 -851.300 -610.336 "></path>
    <path id="STROKE_e5264a00-f4d5-492f-a6bf-a30eb2dc304d" opacity="1.000" fill="none" stroke="#f3ba38" stroke-width="3.900" stroke-opacity="1.000" stroke-linecap="round" stroke-linejoin="round" d="M -902.356 -597.637 Q -902.356 -597.637 -901.602 -597.637 Q -900.848 -597.637 -900.895 -597.637 Q -900.458 -597.944 -841.507 -597.074 Q -841.875 -595.728 -841.744 -596.068 Q -841.685 -595.950 -841.448 -595.321 Q -841.211 -594.692 -841.151 -594.381 "></path>
    <path id="STROKE_26aa4a75-cc7c-4e4a-ab4b-80ab6f44b5d3" opacity="1.000" fill="none" stroke="#f3ba38" stroke-width="3.900" stroke-opacity="1.000" stroke-linecap="round" stroke-linejoin="round" d="M -690.233 -606.695 Q -690.016 -606.762 -692.484 -607.583 Q -692.895 -608.496 -693.404 -605.475 Q -693.913 -602.454 -693.810 -600.877 Q -693.706 -599.299 -693.376 -597.822 Q -693.046 -596.346 -691.079 -595.662 Q -689.112 -594.978 -687.416 -595.243 Q -685.720 -595.508 -684.373 -596.510 Q -683.027 -597.511 -682.946 -597.861 Q -682.866 -598.212 -682.946 -598.047 Q -683.027 -597.883 -682.763 -598.988 Q -682.498 -600.092 -682.321 -602.542 Q -682.144 -604.992 -690.667 -606.325 Q -691.560 -606.334 -691.084 -604.221 Q -690.608 -602.107 -690.115 -601.781 "></path>
  </g>
  <g id="Wire" opacity="1.000">
    <path id="STROKE_69f785f2-2120-400e-8ebe-15c4226d7d97" opacity="1.000" fill="none" stroke="#6ac0c8" stroke-width="3.720" stroke-opacity="1.000" stroke-linecap="round" stroke-linejoin="round" d="M -1359.301 -591.736 Q -1359.260 -591.736 -1359.035 -591.816 Q -1359.035 -591.857 -1358.992 -592.212 Q -1357.400 -592.537 -1367.453 -591.848 Q -1368.991 -591.508 -1355.661 -592.322 Q -1357.310 -592.567 -1368.337 -590.543 Q -1369.360 -590.208 -1364.329 -591.237 Q -1364.091 -591.170 -1364.704 -591.318 Q -1365.317 -591.467 -1371.120 -589.477 L -1371.120 -589.436 Q -1371.437 -589.383 -1369.777 -589.445 Q -1368.116 -589.507 -1367.543 -589.586 "></path>
    <path id="STROKE_02e481ea-67e5-4070-ab8f-7fe0eae4166c" opacity="1.000" fill="none" stroke="#6ac0c8" stroke-width="3.720" stroke-opacity="1.000" stroke-linecap="round" stroke-linejoin="round" d="M -1388.135 -585.602 Q -1388.135 -585.561 -1388.135 -585.521 Q -1389.824 -585.527 -1389.259 -585.525 Q -1389.178 -585.583 -1390.618 -585.505 Q -1392.058 -585.428 -1393.036 -585.290 Q -1394.014 -585.152 -1394.603 -585.070 Q -1395.191 -584.989 -1395.217 -584.936 Q -1395.242 -584.883 -1395.711 -584.862 Q -1396.180 -584.841 -1398.750 -583.901 Q -1401.320 -582.962 -1402.548 -581.735 Q -1403.776 -580.508 -1403.880 -580.294 Q -1403.984 -580.081 -1404.224 -579.653 Q -1404.464 -579.225 -1404.657 -578.406 Q -1404.851 -577.587 -1405.000 -576.512 Q -1405.148 -575.437 -1405.058 -574.957 Q -1404.968 -574.476 -1405.105 -573.968 Q -1405.243 -573.459 -1405.059 -570.510 Q -1404.874 -567.561 -1403.105 -562.539 Q -1401.336 -557.516 -1400.398 -554.261 Q -1399.461 -551.007 -1399.363 -549.387 Q -1399.265 -547.766 -1399.230 -546.740 Q -1399.195 -545.714 -1399.191 -544.419 Q -1399.187 -543.124 -1399.090 -540.236 Q -1398.994 -537.347 -1399.540 -535.165 Q -1400.087 -532.983 -1401.058 -531.230 Q -1402.030 -529.478 -1402.584 -528.813 Q -1403.139 -528.149 -1403.527 -527.719 Q -1403.914 -527.290 -1404.194 -526.990 Q -1404.473 -526.690 -1405.142 -525.934 Q -1405.810 -525.178 -1407.378 -524.231 Q -1408.947 -523.283 -1409.825 -522.861 Q -1410.703 -522.438 -1411.521 -522.264 Q -1412.339 -522.089 -1418.307 -522.505 Q -1418.581 -522.437 -1418.064 -522.519 Q -1417.547 -522.602 -1415.505 -522.708 Q -1413.462 -522.814 -1412.343 -522.729 Q -1411.224 -522.643 -1410.567 -522.332 Q -1409.911 -522.020 -1409.429 -521.728 Q -1408.947 -521.437 -1408.987 -521.380 Q -1409.027 -521.323 -1408.500 -521.140 Q -1407.973 -520.957 -1407.152 -519.066 Q -1406.331 -517.175 -1406.421 -513.942 Q -1406.510 -510.709 -1406.851 -505.884 Q -1407.192 -501.058 -1407.496 -497.859 Q -1407.799 -494.660 -1408.256 -490.460 Q -1408.713 -486.260 -1409.282 -480.841 Q -1409.852 -475.422 -1410.353 -469.134 Q -1410.855 -462.846 -1410.961 -459.538 Q -1411.068 -456.230 -1410.849 -454.816 Q -1410.630 -453.402 -1410.308 -452.594 Q -1409.986 -451.787 -1408.353 -451.309 Q -1406.719 -450.831 -1403.895 -450.515 Q -1401.071 -450.199 -1398.410 -450.127 Q -1395.749 -450.054 -1393.103 -449.910 Q -1390.457 -449.767 -1388.809 -449.862 Q -1387.160 -449.958 -1385.878 -450.578 Q -1384.596 -451.199 -1384.600 -451.503 Q -1384.603 -451.808 -1384.387 -452.161 "></path>
    <path id="STROKE_ca452601-8a93-4c96-99a5-21b4b77a98ca" opacity="1.000" fill="none" stroke="#6ac0c8" stroke-width="3.720" stroke-opacity="1.000" stroke-linecap="round" stroke-linejoin="round" d="M -1492.277 -511.445 Q -1492.894 -510.816 -1488.893 -519.745 Q -1484.891 -528.674 -1482.912 -533.353 Q -1480.932 -538.032 -1479.844 -539.851 Q -1478.756 -541.670 -1478.039 -542.477 Q -1477.322 -543.285 -1476.964 -543.431 Q -1476.606 -543.578 -1476.738 -543.487 Q -1476.871 -543.396 -1476.475 -543.468 Q -1476.080 -543.541 -1475.432 -542.830 Q -1474.785 -542.119 -1467.386 -506.744 Q -1467.888 -507.382 -1469.769 -508.352 Q -1471.650 -509.322 -1477.814 -509.339 Q -1483.977 -509.355 -1490.903 -507.351 Q -1489.901 -508.866 -1490.112 -508.438 Q -1489.754 -508.828 -1489.269 -509.236 Q -1488.783 -509.643 -1488.732 -509.618 Q -1488.682 -509.593 -1488.555 -509.663 Q -1488.429 -509.733 -1487.709 -510.013 Q -1486.989 -510.293 -1486.559 -510.551 "></path>
    <path id="STROKE_c21493c2-d090-4f5e-ba34-a246418fd92c" opacity="1.000" fill="none" stroke="#6ac0c8" stroke-width="3.720" stroke-opacity="1.000" stroke-linecap="round" stroke-linejoin="round" d="M -1464.672 -538.516 Q -1464.631 -538.516 -1464.100 -538.392 Q -1464.418 -539.030 -1461.865 -531.858 Q -1459.312 -524.687 -1456.597 -518.805 Q -1453.883 -512.924 -1448.682 -508.936 Q -1448.806 -508.723 -1447.475 -517.358 Q -1446.143 -525.993 -1444.964 -531.822 Q -1443.784 -537.650 -1440.930 -540.771 Q -1440.671 -540.897 -1440.417 -539.640 Q -1440.162 -538.383 -1440.031 -537.987 "></path>
    <path id="STROKE_26c66aae-4458-4388-815a-06c031d1b632" opacity="1.000" fill="none" stroke="#6ac0c8" stroke-width="3.720" stroke-opacity="1.000" stroke-linecap="round" stroke-linejoin="round" d="M -1176.515 -469.559 Q -1176.866 -471.006 -1176.756 -470.596 Q -1176.806 -470.760 -1176.856 -471.032 Q -1176.941 -470.138 -1175.924 -452.657 Q -1174.906 -453.835 -1172.603 -466.601 Q -1172.783 -465.919 -1173.335 -463.738 Q -1173.886 -461.557 -1174.007 -460.595 Q -1174.127 -459.633 -1174.254 -458.834 Q -1174.382 -458.035 -1174.475 -457.776 "></path>
    <path id="STROKE_1d8f9359-b5d0-4bff-bd32-0b3eb5390b12" opacity="1.000" fill="none" stroke="#6ac0c8" stroke-width="3.720" stroke-opacity="1.000" stroke-linecap="round" stroke-linejoin="round" d="M -1347.688 -425.419 Q -1347.881 -425.612 -1348.580 -425.400 Q -1349.279 -425.188 -1350.008 -424.611 Q -1350.737 -424.033 -1350.337 -421.235 Q -1349.938 -418.436 -1348.878 -416.230 Q -1347.818 -414.024 -1346.569 -412.255 Q -1345.320 -410.486 -1341.756 -409.384 Q -1338.192 -408.282 -1331.579 -408.735 Q -1324.967 -409.188 -1318.275 -409.552 Q -1311.584 -409.917 -1307.416 -410.441 Q -1303.247 -410.966 -1301.563 -411.021 Q -1299.880 -411.076 -1298.344 -411.323 Q -1296.807 -411.570 -1293.002 -411.007 Q -1289.197 -410.444 -1287.429 -409.795 Q -1285.662 -409.146 -1283.524 -408.576 Q -1281.386 -408.006 -1278.948 -406.526 Q -1276.511 -405.047 -1275.479 -403.506 Q -1274.448 -401.965 -1274.228 -400.887 Q -1274.008 -399.810 -1273.187 -399.053 Q -1272.366 -398.297 -1269.833 -374.727 Q -1269.741 -374.726 -1269.537 -374.725 Q -1269.578 -376.764 -1268.868 -380.838 Q -1268.158 -384.912 -1265.517 -390.548 Q -1262.876 -396.183 -1261.609 -398.719 Q -1260.342 -401.255 -1259.774 -402.151 Q -1259.207 -403.047 -1258.755 -403.532 Q -1258.304 -404.016 -1258.305 -403.993 Q -1258.307 -403.970 -1257.697 -404.585 Q -1257.088 -405.200 -1254.660 -406.579 Q -1252.232 -407.959 -1248.742 -409.302 Q -1245.252 -410.646 -1239.334 -411.769 Q -1233.416 -412.892 -1226.421 -413.001 Q -1219.426 -413.111 -1214.834 -413.273 Q -1210.242 -413.434 -1205.898 -414.268 Q -1201.553 -415.103 -1198.026 -415.438 Q -1194.498 -415.773 -1192.170 -415.949 Q -1189.842 -416.124 -1185.939 -416.440 Q -1182.036 -416.757 -1179.508 -416.804 Q -1176.981 -416.850 -1175.167 -418.482 Q -1173.354 -420.114 -1173.018 -422.388 Q -1172.683 -424.661 -1172.767 -425.657 Q -1172.852 -426.654 -1172.599 -427.702 Q -1172.346 -428.750 -1174.201 -435.424 Q -1174.421 -435.435 -1174.963 -434.669 Q -1175.505 -433.903 -1175.401 -433.899 Q -1175.297 -433.895 -1175.321 -433.998 Q -1175.345 -434.102 -1175.567 -432.878 Q -1175.789 -431.654 -1175.964 -431.178 "></path>
    <path id="STROKE_8e8c74dd-cd8c-4e27-9644-d09f191e168b" opacity="1.000" fill="none" stroke="#6ac0c8" stroke-width="3.720" stroke-opacity="1.000" stroke-linecap="round" stroke-linejoin="round" d="M -1299.997 -327.575 Q -1299.997 -327.534 -1299.999 -326.975 Q -1300.187 -327.010 -1295.899 -333.001 Q -1291.612 -338.991 -1288.873 -342.083 Q -1286.134 -345.175 -1284.494 -346.782 Q -1282.854 -348.389 -1281.675 -348.514 Q -1280.497 -348.638 -1279.756 -348.597 Q -1279.016 -348.556 -1277.144 -343.869 Q -1275.272 -339.182 -1273.768 -331.102 Q -1274.281 -331.181 -1280.189 -330.963 Q -1286.097 -330.744 -1295.990 -328.037 L -1295.990 -327.996 Q -1293.736 -327.988 -1294.438 -327.990 Q -1293.480 -327.720 -1292.399 -328.238 Q -1291.318 -328.755 -1290.796 -329.094 "></path>
    <path id="STROKE_9e2cff5c-0ce2-4fce-bc45-2b0989a45bd9" opacity="1.000" fill="none" stroke="#6ac0c8" stroke-width="3.720" stroke-opacity="1.000" stroke-linecap="round" stroke-linejoin="round" d="M -1256.952 -352.517 Q -1256.842 -352.911 -1257.335 -353.827 Q -1258.206 -353.462 -1259.731 -349.147 Q -1261.257 -344.833 -1261.680 -341.992 Q -1262.103 -339.152 -1261.906 -338.275 Q -1261.709 -337.398 -1261.802 -335.834 Q -1261.895 -334.270 -1258.513 -333.065 Q -1255.131 -331.860 -1250.667 -332.191 Q -1246.204 -332.522 -1243.210 -334.481 Q -1240.216 -336.440 -1239.642 -336.970 "></path>
    <path id="STROKE_57f652d3-cca0-48ed-8ec5-672fbf1ca84c" opacity="1.000" fill="none" stroke="#6ac0c8" stroke-width="3.720" stroke-opacity="1.000" stroke-linecap="round" stroke-linejoin="round" d="M -1266.693 -343.286 Q -1267.609 -342.467 -1267.349 -342.689 Q -1267.441 -342.567 -1267.658 -342.091 Q -1268.024 -342.135 -1255.388 -343.231 Q -1242.751 -344.327 -1241.800 -344.583 "></path>
    <path id="STROKE_bc17566e-976d-41a9-89da-2e61223490c9" opacity="1.000" fill="none" stroke="#6ac0c8" stroke-width="3.720" stroke-opacity="1.000" stroke-linecap="round" stroke-linejoin="round" d="M -1179.315 -485.488 Q -1179.356 -485.488 -1179.744 -485.490 Q -1179.740 -486.543 -1179.741 -486.458 Q -1179.908 -486.616 -1179.438 -495.667 Q -1178.967 -504.717 -1178.792 -504.976 "></path>
    <path id="STROKE_3cf7aed8-0d3b-475f-aae5-a3b231d10a5b" opacity="1.000" fill="none" stroke="#6ac0c8" stroke-width="3.720" stroke-opacity="1.000" stroke-linecap="round" stroke-linejoin="round" d="M -1180.095 -528.095 Q -1180.339 -526.691 -1180.528 -531.469 Q -1180.718 -536.248 -1180.757 -536.602 "></path>
    <path id="STROKE_8e8d31bf-9747-4f58-9f63-26985dbdde63" opacity="1.000" fill="none" stroke="#6ac0c8" stroke-width="3.720" stroke-opacity="1.000" stroke-linecap="round" stroke-linejoin="round" d="M -1182.338 -556.343 Q -1182.488 -556.487 -1182.606 -556.188 Q -1182.723 -555.889 -1183.479 -557.225 Q -1184.236 -558.561 -1184.039 -559.765 Q -1183.843 -560.968 -1183.708 -561.445 "></path>
    <circle id="STROKE_c1f0d225-e37f-4184-9738-8062009a175d" opacity="1.000" fill="#6ac0c8" stroke="#6ac0c8" stroke-width="0.1" stroke-opacity="1.000" fill-opacity="1.000" cx="-1184.155" cy="-578.510" r="1.860"></circle>
    <path id="STROKE_7abe50a3-7a17-49ea-82e6-7589f51fa01b" opacity="1.000" fill="none" stroke="#6ac0c8" stroke-width="3.720" stroke-opacity="1.000" stroke-linecap="round" stroke-linejoin="round" d="M -1184.209 -591.240 Q -1184.203 -592.897 -1184.205 -592.371 Q -1184.198 -594.237 -1184.200 -593.707 Q -1184.194 -595.251 -1184.195 -594.919 Q -1184.194 -595.138 -1184.081 -595.526 Q -1183.967 -595.913 -1183.844 -596.090 "></path>
    <path id="STROKE_ba1796c8-37d8-4bff-acae-ab112f86b0da" opacity="1.000" fill="none" stroke="#6ac0c8" stroke-width="3.720" stroke-opacity="1.000" stroke-linecap="round" stroke-linejoin="round" d="M -1335.347 -593.281 Q -1334.420 -594.086 -1334.733 -593.950 Q -1335.046 -593.814 -1334.267 -594.695 Q -1333.488 -595.576 -1331.668 -595.785 Q -1329.847 -595.994 -1326.737 -595.724 Q -1323.627 -595.455 -1321.720 -594.863 Q -1319.814 -594.272 -1319.120 -594.010 "></path>
    <path id="STROKE_c7d60748-41b1-46db-bfd0-79192868035c" opacity="1.000" fill="none" stroke="#6ac0c8" stroke-width="3.720" stroke-opacity="1.000" stroke-linecap="round" stroke-linejoin="round" d="M -1291.780 -594.153 Q -1292.011 -594.058 -1288.964 -594.723 Q -1285.916 -595.387 -1282.344 -594.964 Q -1278.772 -594.540 -1278.252 -594.374 "></path>
    <path id="STROKE_e005e543-d86e-4565-8c7e-b29dd0709dba" opacity="1.000" fill="none" stroke="#6ac0c8" stroke-width="3.720" stroke-opacity="1.000" stroke-linecap="round" stroke-linejoin="round" d="M -1263.072 -593.963 Q -1263.113 -593.963 -1263.153 -593.963 Q -1262.968 -595.215 -1258.220 -595.307 Q -1253.473 -595.399 -1252.828 -595.560 "></path>
    <path id="STROKE_4795b0be-15c7-4011-abc4-04517a03cb77" opacity="1.000" fill="none" stroke="#6ac0c8" stroke-width="3.720" stroke-opacity="1.000" stroke-linecap="round" stroke-linejoin="round" d="M -1240.858 -594.669 Q -1239.935 -594.658 -1240.030 -594.707 Q -1238.000 -595.011 -1238.885 -594.961 Q -1239.770 -594.912 -1236.489 -595.101 Q -1233.208 -595.291 -1231.147 -595.319 Q -1229.086 -595.348 -1228.350 -595.467 "></path>
    <path id="STROKE_54de63a3-f173-48e1-9744-134712aa6498" opacity="1.000" fill="none" stroke="#6ac0c8" stroke-width="3.720" stroke-opacity="1.000" stroke-linecap="round" stroke-linejoin="round" d="M -1211.353 -594.558 Q -1209.905 -594.807 -1210.258 -594.800 Q -1211.261 -594.571 -1208.044 -595.581 Q -1204.827 -596.592 -1204.479 -596.768 "></path>
    <path id="STROKE_3085044d-bd6c-4012-8778-b1c1da004c31" opacity="1.000" fill="none" stroke="#6ac0c8" stroke-width="3.720" stroke-opacity="1.000" stroke-linecap="round" stroke-linejoin="round" d="M -1587.812 -536.227 Q -1588.026 -535.495 -1589.867 -538.470 Q -1589.149 -539.411 -1584.629 -531.716 Q -1580.110 -524.020 -1577.003 -518.750 Q -1573.897 -513.480 -1568.912 -508.789 Q -1568.829 -510.290 -1568.816 -510.230 Q -1568.803 -510.170 -1568.753 -510.184 Q -1568.703 -510.197 -1568.635 -510.643 Q -1568.568 -511.089 -1567.137 -517.019 Q -1565.706 -522.948 -1562.067 -530.858 Q -1558.428 -538.767 -1552.793 -545.963 Q -1552.953 -545.753 -1552.661 -543.929 Q -1552.368 -542.104 -1552.196 -541.790 "></path>
    <path id="STROKE_4e628e66-4280-47e4-828f-fc6a37c1b605" opacity="1.000" fill="none" stroke="#6ac0c8" stroke-width="3.720" stroke-opacity="1.000" stroke-linecap="round" stroke-linejoin="round" d="M -1595.793 -554.602 Q -1596.954 -554.467 -1591.860 -553.503 Q -1586.766 -552.540 -1575.247 -555.698 Q -1563.728 -558.856 -1563.165 -559.058 "></path>
    <path id="STROKE_49f7b7e2-beaf-43ea-afbd-3d99d5f40ee6" opacity="1.000" fill="none" stroke="#6ac0c8" stroke-width="3.720" stroke-opacity="1.000" stroke-linecap="round" stroke-linejoin="round" d="M -1536.697 -533.691 Q -1536.701 -533.613 -1536.220 -533.481 Q -1535.739 -533.350 -1535.579 -533.391 Q -1535.419 -533.431 -1535.819 -533.478 Q -1536.219 -533.525 -1525.701 -533.390 Q -1515.182 -533.255 -1514.406 -533.089 "></path>
    <path id="STROKE_89307e5f-ccfe-4c1c-ad49-1c7f9b026338" opacity="1.000" fill="none" stroke="#6ac0c8" stroke-width="3.720" stroke-opacity="1.000" stroke-linecap="round" stroke-linejoin="round" d="M -1540.564 -521.494 Q -1540.112 -521.560 -1538.732 -521.379 Q -1537.353 -521.199 -1534.267 -521.524 Q -1531.180 -521.850 -1528.750 -522.226 Q -1526.319 -522.603 -1523.436 -523.046 Q -1520.552 -523.490 -1519.468 -523.840 "></path>
    <path id="STROKE_31239bb3-2000-429d-a3a0-28a10b2aaa50" opacity="1.000" fill="none" stroke="#6ac0c8" stroke-width="3.480" stroke-opacity="1.000" stroke-linecap="round" stroke-linejoin="round" d="M -807.272 -571.115 Q -807.331 -571.115 -807.904 -570.996 Q -808.648 -570.304 -807.347 -572.216 Q -806.046 -574.129 -798.981 -586.743 Q -791.915 -599.357 -775.702 -642.778 Q -774.097 -642.162 -773.439 -635.444 Q -772.782 -628.727 -772.533 -617.555 Q -772.285 -606.383 -761.546 -570.493 L -761.467 -570.493 Q -761.467 -570.552 -761.408 -570.878 Q -761.349 -570.878 -760.993 -570.878 Q -763.501 -570.861 -762.869 -570.819 Q -762.972 -570.586 -777.368 -568.910 Q -791.765 -567.234 -806.897 -568.614 Q -807.281 -568.397 -806.818 -573.453 Q -806.589 -573.573 -803.633 -573.787 Q -800.678 -574.001 -799.730 -574.252 "></path>
    <path id="STROKE_a9437c54-4e40-4661-8b15-16532ceadaf1" opacity="1.000" fill="none" stroke="#6ac0c8" stroke-width="3.480" stroke-opacity="1.000" stroke-linecap="round" stroke-linejoin="round" d="M -760.993 -632.595 Q -762.659 -632.595 -762.762 -632.595 Q -762.864 -632.595 -762.790 -632.595 Q -763.106 -632.595 -763.758 -632.595 Q -761.841 -632.328 -762.060 -632.151 Q -759.204 -632.554 -753.921 -618.634 Q -748.639 -604.714 -745.327 -594.673 Q -742.014 -584.632 -735.820 -576.650 Q -734.531 -578.081 -734.774 -578.160 Q -733.895 -578.599 -730.705 -591.334 Q -727.514 -604.068 -725.359 -613.796 Q -723.204 -623.524 -720.026 -632.595 L -719.967 -632.595 Q -719.911 -632.751 -719.840 -629.240 Q -719.769 -625.728 -719.690 -625.284 "></path>
    <path id="STROKE_4ec1d308-39c6-4a7d-a1a5-d7adce1e91df" opacity="1.000" fill="none" stroke="#6ac0c8" stroke-width="3.480" stroke-opacity="1.000" stroke-linecap="round" stroke-linejoin="round" d="M -656.140 -578.631 Q -656.139 -578.592 -656.022 -578.297 Q -654.994 -577.805 -651.349 -583.633 Q -647.704 -589.460 -644.395 -594.800 Q -641.086 -600.140 -639.264 -603.184 Q -637.442 -606.228 -635.247 -609.833 Q -633.051 -613.437 -630.569 -617.800 Q -628.087 -622.162 -626.811 -624.305 Q -625.535 -626.448 -624.945 -627.444 Q -624.356 -628.441 -623.965 -629.538 Q -624.088 -629.854 -623.912 -624.850 Q -623.737 -619.846 -623.060 -616.137 Q -622.384 -612.428 -621.238 -607.775 Q -620.092 -603.123 -618.278 -596.632 Q -616.465 -590.142 -615.230 -586.220 Q -613.994 -582.298 -612.119 -577.296 Q -612.027 -577.296 -611.975 -577.296 Q -612.129 -577.519 -611.700 -578.376 L -611.661 -578.376 Q -611.661 -578.415 -611.661 -578.454 Q -613.399 -578.632 -614.875 -578.569 Q -616.351 -578.507 -620.796 -578.726 Q -625.242 -578.945 -630.330 -578.193 Q -635.419 -577.440 -640.043 -575.561 Q -644.667 -573.682 -647.454 -572.362 Q -650.241 -571.042 -654.150 -572.881 Q -654.035 -572.881 -650.617 -572.881 Q -647.199 -572.881 -646.741 -572.881 "></path>
    <path id="STROKE_a99ea749-f774-4666-86c8-d68f4096d30e" opacity="1.000" fill="none" stroke="#6ac0c8" stroke-width="3.480" stroke-opacity="1.000" stroke-linecap="round" stroke-linejoin="round" d="M -587.628 -623.297 Q -587.628 -624.587 -587.628 -624.543 Q -587.569 -625.805 -585.756 -628.969 L -585.717 -628.969 Q -584.978 -628.160 -588.076 -618.622 Q -591.174 -609.084 -592.781 -601.670 Q -594.389 -594.255 -594.498 -590.630 Q -594.608 -587.005 -594.612 -585.339 Q -594.616 -583.672 -593.912 -582.186 Q -593.208 -580.700 -590.721 -580.752 Q -588.233 -580.803 -586.744 -581.214 Q -585.254 -581.625 -584.355 -581.947 Q -583.455 -582.268 -580.571 -583.444 Q -577.686 -584.620 -573.727 -585.833 Q -573.727 -585.961 -573.812 -586.275 Q -573.897 -586.589 -574.067 -586.873 "></path>
    <path id="STROKE_fd79f7c0-72dc-4f2f-8165-245aba27149e" opacity="1.000" fill="none" stroke="#6ac0c8" stroke-width="3.480" stroke-opacity="1.000" stroke-linecap="round" stroke-linejoin="round" d="M -603.179 -603.044 Q -602.755 -605.043 -602.695 -604.980 Q -602.635 -604.916 -602.665 -604.892 Q -602.696 -604.868 -602.395 -605.359 Q -602.095 -605.850 -602.256 -605.620 Q -602.418 -605.390 -601.293 -606.731 Q -600.169 -608.071 -594.300 -609.067 Q -588.432 -610.063 -583.733 -610.162 Q -579.035 -610.261 -575.567 -609.715 Q -572.099 -609.169 -570.431 -608.348 Q -568.763 -607.527 -568.334 -605.497 Q -568.816 -605.485 -568.928 -605.408 Q -569.041 -605.331 -569.250 -605.203 "></path>
  </g>
</svg>