<?xml version="1.0" encoding="UTF-8" standalone="yes"?>
<svg xmlns="http://www.w3.org/2000/svg" xmlns:xlink="http://www.w3.org/1999/xlink" width="490.658pt" height="315.936pt" version="1.1" viewBox="6435.811 3514.307 490.658 315.936">
  <!--
	Exported with Concepts: Smarter Sketching
	Version: 1059 on iOS 15.4
	https://concepts.app/
	-->
  <title>Untitled</title>
  <desc>Drawing exported from Concepts: Smarter Sketching</desc>
  <defs></defs>
  <g id="Background" opacity="1.000">
    <path id="STROKE_850a42fe-4ecd-4ece-a56d-90c560ce0bed" opacity="1.000" fill="none" stroke="#f3ba38" stroke-width="4.590" stroke-opacity="1.000" stroke-linecap="round" stroke-linejoin="round" d="M 6490.000 3768.000 Q 6494.335 3768.000 6500.000 3768.000 Q 6505.070 3768.000 6510.000 3768.000 Q 6515.846 3768.000 6515.881 3768.000 "></path>
    <path id="STROKE_32838ad1-94fb-4f4e-969a-84cdab69b472" opacity="1.000" fill="none" stroke="#f3ba38" stroke-width="4.589" stroke-opacity="1.000" stroke-linecap="round" stroke-linejoin="round" d="M 6523.337 3768.000 Q 6525.500 3768.000 6530.000 3768.000 Q 6535.793 3768.000 6540.000 3768.000 Q 6545.381 3768.000 6550.000 3768.000 Q 6555.719 3768.000 6560.000 3768.000 Q 6566.037 3768.000 6570.000 3768.000 Q 6575.708 3768.000 6580.000 3768.000 Q 6586.172 3768.000 6590.000 3768.000 Q 6597.302 3768.000 6600.000 3768.000 Q 6605.056 3768.000 6610.000 3768.000 Q 6616.562 3768.000 6630.000 3768.000 Q 6637.884 3768.000 6650.000 3768.000 Q 6655.164 3768.000 6660.000 3768.000 Q 6665.377 3768.000 6670.000 3768.000 Q 6676.153 3768.000 6680.000 3768.000 Q 6687.346 3768.000 6690.000 3768.000 Q 6697.289 3768.000 6700.000 3768.000 Q 6706.355 3768.000 6710.000 3768.000 Q 6716.423 3768.000 6720.000 3768.000 Q 6726.157 3768.000 6730.000 3768.000 Q 6735.833 3768.000 6740.000 3768.000 Q 6745.083 3768.000 6750.000 3768.000 Q 6755.532 3768.000 6760.000 3768.000 Q 6765.655 3768.000 6770.000 3768.000 Q 6776.682 3768.000 6780.000 3768.000 Q 6786.666 3768.000 6790.000 3768.000 Q 6796.795 3768.000 6800.000 3768.000 Q 6805.800 3768.000 6810.000 3768.000 Q 6815.867 3768.000 6820.000 3768.000 Q 6825.872 3768.000 6830.000 3768.000 Q 6835.397 3768.000 6840.000 3768.000 Q 6845.277 3768.000 6850.000 3768.000 "></path>
    <path id="STROKE_1edb210e-5d02-4870-8faa-b22180735e87" opacity="1.000" fill="none" stroke="#f3ba38" stroke-width="4.590" stroke-opacity="1.000" stroke-linecap="round" stroke-linejoin="round" d="M 6500.000 3720.602 Q 6500.000 3724.499 6500.000 3728.000 Q 6500.000 3734.327 6500.000 3738.000 Q 6500.000 3743.420 6500.000 3748.000 Q 6500.000 3754.889 6500.000 3758.000 Q 6500.000 3764.045 6500.000 3768.000 Q 6500.000 3773.467 6500.000 3778.000 Q 6500.000 3783.155 6500.000 3788.000 Q 6500.000 3793.577 6500.000 3798.000 Q 6500.000 3803.389 6500.000 3808.000 Q 6500.000 3813.217 6500.000 3818.000 L 6500.000 3822.765 "></path>
    <circle id="STROKE_aa8bb1c6-43d5-4045-802e-ebc0261d4838" opacity="1.000" fill="#71c047" stroke="#71c047" stroke-width="0.1" stroke-opacity="1.000" fill-opacity="1.000" cx="6499.791" cy="3765.549" r="2.295"></circle>
    <path id="STROKE_b5d7ad70-548a-4176-a00b-282f7c1b0572" opacity="1.000" fill="none" stroke="#71c047" stroke-width="4.590" stroke-opacity="1.000" stroke-linecap="round" stroke-linejoin="round" d="M 6499.421 3767.398 Q 6499.541 3767.975 6499.538 3767.901 Q 6499.538 3767.995 6499.577 3768.141 Q 6499.616 3768.141 6499.820 3768.141 Q 6499.738 3768.140 6502.017 3763.193 Q 6504.295 3758.246 6507.561 3753.803 Q 6510.827 3749.360 6514.089 3744.278 Q 6517.352 3739.196 6520.924 3734.363 Q 6524.496 3729.531 6526.746 3727.277 Q 6528.997 3725.023 6530.880 3721.531 Q 6532.763 3718.038 6534.623 3715.195 Q 6536.483 3712.353 6537.410 3710.929 Q 6538.337 3709.506 6539.233 3708.278 Q 6539.417 3708.053 6539.155 3708.843 Q 6538.893 3709.633 6538.669 3709.881 "></path>
    <path id="STROKE_50521330-0a7b-48d9-87d1-74c5935398a0" opacity="1.000" fill="none" stroke="#71c047" stroke-width="4.590" stroke-opacity="1.000" stroke-linecap="round" stroke-linejoin="round" d="M 6514.674 3744.327 Q 6514.674 3744.327 6514.674 3744.000 Q 6514.674 3743.673 6514.674 3743.803 Q 6514.675 3743.983 6514.641 3743.715 Q 6514.606 3743.448 6514.887 3742.696 Q 6516.411 3742.646 6515.966 3742.667 Q 6517.338 3741.841 6521.091 3744.085 Q 6524.844 3746.329 6526.538 3747.763 Q 6528.231 3749.197 6529.074 3749.891 Q 6529.916 3750.585 6530.301 3751.968 Q 6530.686 3753.351 6530.760 3753.993 Q 6530.833 3754.636 6530.837 3754.937 Q 6530.840 3755.237 6530.839 3755.558 Q 6530.839 3755.879 6530.839 3756.209 Q 6530.839 3756.541 6530.839 3756.740 Q 6530.839 3756.938 6530.855 3756.988 Q 6530.871 3757.037 6530.785 3756.690 Q 6530.699 3756.343 6531.208 3760.291 Q 6531.237 3760.291 6531.461 3760.291 Q 6531.461 3760.167 6531.461 3762.140 Q 6531.461 3762.082 6531.446 3761.882 Q 6531.432 3761.681 6531.402 3761.339 "></path>
    <path id="STROKE_b99ae4de-7ecf-4cef-810e-0ecc8f414d87" opacity="1.000" fill="none" stroke="#71c047" stroke-width="4.590" stroke-opacity="1.000" stroke-linecap="round" stroke-linejoin="round" d="M 6547.821 3741.982 Q 6547.542 3742.086 6546.819 3741.536 Q 6546.097 3740.986 6545.582 3740.898 Q 6545.068 3740.812 6544.755 3740.927 Q 6544.442 3741.043 6543.720 3742.925 Q 6542.997 3744.807 6542.868 3746.066 Q 6542.738 3747.325 6542.630 3748.993 Q 6542.521 3750.660 6543.012 3752.341 Q 6543.503 3754.022 6545.046 3755.199 Q 6546.589 3756.376 6548.664 3756.469 Q 6550.738 3756.561 6552.678 3754.656 Q 6554.617 3752.750 6555.672 3750.439 Q 6556.728 3748.129 6556.996 3746.950 Q 6557.264 3745.771 6556.914 3744.601 Q 6556.565 3743.431 6554.785 3742.582 Q 6553.005 3741.734 6551.770 3741.617 Q 6550.535 3741.500 6549.500 3741.783 Q 6548.465 3742.066 6547.876 3742.581 Q 6547.286 3743.096 6547.004 3743.410 "></path>
    <path id="STROKE_f085afb4-06fc-429b-ad45-6685487df468" opacity="1.000" fill="none" stroke="#71c047" stroke-width="4.590" stroke-opacity="1.000" stroke-linecap="round" stroke-linejoin="round" d="M 6535.716 3750.896 Q 6535.716 3750.925 6535.463 3751.260 Q 6536.663 3751.054 6538.834 3749.941 Q 6541.005 3748.829 6546.148 3747.977 Q 6551.292 3747.125 6554.137 3746.342 Q 6556.983 3745.559 6559.648 3744.672 Q 6562.314 3743.784 6563.889 3743.731 Q 6565.463 3743.679 6565.773 3743.584 "></path>
    <path id="STROKE_ab4b5633-048f-4678-80ec-11321f6b50e5" opacity="1.000" fill="none" stroke="#71c047" stroke-width="4.590" stroke-opacity="1.000" stroke-linecap="round" stroke-linejoin="round" d="M 6543.857 3702.525 Q 6543.857 3701.589 6543.857 3701.812 Q 6543.857 3700.413 6543.856 3700.669 Q 6543.856 3700.926 6543.877 3700.691 Q 6543.898 3700.456 6543.876 3700.211 Q 6543.854 3699.965 6544.996 3698.100 Q 6546.139 3696.235 6549.506 3692.640 Q 6552.873 3689.045 6553.242 3688.674 "></path>
    <path id="STROKE_566dd102-f31a-4f0e-9e7e-c89dfd46c199" opacity="1.000" fill="none" stroke="#71c047" stroke-width="4.590" stroke-opacity="1.000" stroke-linecap="round" stroke-linejoin="round" d="M 6559.595 3680.692 Q 6559.370 3680.457 6560.223 3678.442 Q 6561.075 3676.428 6564.026 3674.307 Q 6566.979 3672.186 6567.386 3671.851 "></path>
    <path id="STROKE_b311380f-e0db-4b36-b3a1-b3a6cea5558c" opacity="1.000" fill="none" stroke="#71c047" stroke-width="4.590" stroke-opacity="1.000" stroke-linecap="round" stroke-linejoin="round" d="M 6573.992 3664.670 Q 6574.166 3664.439 6574.754 3663.877 Q 6575.343 3663.316 6575.585 3663.068 "></path>
    <circle id="STROKE_50646fe9-10ec-435f-8625-df03e835402c" opacity="1.000" fill="#71c047" stroke="#71c047" stroke-width="0.1" stroke-opacity="1.000" fill-opacity="1.000" cx="6581.570" cy="3658.233" r="2.295"></circle>
    <path id="STROKE_fdbfa1a0-e295-49b9-a5fd-7bbb28cc52b3" opacity="1.000" fill="none" stroke="#71c047" stroke-width="4.590" stroke-opacity="1.000" stroke-linecap="round" stroke-linejoin="round" d="M 6586.214 3655.261 Q 6585.976 3654.521 6588.839 3652.623 Q 6591.703 3650.724 6591.945 3650.513 "></path>
    <path id="STROKE_64bdc23a-e6d2-43e8-a524-acac945a1b71" opacity="1.000" fill="none" stroke="#71c047" stroke-width="4.590" stroke-opacity="1.000" stroke-linecap="round" stroke-linejoin="round" d="M 6596.880 3647.469 Q 6596.761 3647.431 6598.584 3645.895 Q 6600.407 3644.359 6602.161 3643.675 Q 6603.914 3642.990 6604.283 3642.779 "></path>
    <path id="STROKE_a2f44f63-d62b-49f4-8fcb-10705b96bd1c" opacity="1.000" fill="none" stroke="#71c047" stroke-width="4.590" stroke-opacity="1.000" stroke-linecap="round" stroke-linejoin="round" d="M 6611.453 3639.677 Q 6611.666 3638.883 6614.629 3637.055 Q 6617.593 3635.227 6617.806 3635.045 "></path>
    <path id="STROKE_59a1a3e3-c945-4153-9646-1184c31bf2bd" opacity="1.000" fill="none" stroke="#71c047" stroke-width="4.590" stroke-opacity="1.000" stroke-linecap="round" stroke-linejoin="round" d="M 6623.927 3633.676 Q 6624.042 3633.482 6624.343 3633.174 Q 6624.644 3632.866 6625.164 3632.420 Q 6625.684 3631.974 6625.647 3632.015 Q 6625.611 3632.057 6626.081 3631.705 Q 6626.550 3631.353 6627.467 3631.044 Q 6628.384 3630.735 6630.143 3630.771 Q 6631.902 3630.807 6632.243 3630.836 "></path>
    <path id="STROKE_6bcfd53b-6cd4-4e09-9d61-7cb242d0236d" opacity="1.000" fill="none" stroke="#71c047" stroke-width="4.590" stroke-opacity="1.000" stroke-linecap="round" stroke-linejoin="round" d="M 6638.674 3629.845 Q 6638.564 3631.088 6644.263 3629.261 Q 6649.962 3627.435 6650.273 3627.253 "></path>
    <path id="STROKE_02244992-300b-4f08-a5d7-6f6f5ed73cbc" opacity="1.000" fill="none" stroke="#71c047" stroke-width="4.590" stroke-opacity="1.000" stroke-linecap="round" stroke-linejoin="round" d="M 6658.667 3626.699 Q 6659.743 3627.098 6662.246 3626.462 Q 6664.748 3625.825 6665.215 3625.636 "></path>
    <path id="STROKE_0ec18518-4861-45f6-91e3-014137fe95fe" opacity="1.000" fill="none" stroke="#71c047" stroke-width="4.590" stroke-opacity="1.000" stroke-linecap="round" stroke-linejoin="round" d="M 6683.595 3628.913 Q 6684.611 3628.369 6688.120 3628.707 Q 6691.629 3629.044 6691.931 3629.233 "></path>
    <path id="STROKE_35819b76-c870-41aa-b02c-e86af6eddbaf" opacity="1.000" fill="none" stroke="#71c047" stroke-width="4.590" stroke-opacity="1.000" stroke-linecap="round" stroke-linejoin="round" d="M 6700.577 3629.233 Q 6700.632 3629.423 6702.920 3630.194 Q 6705.209 3630.966 6707.075 3630.963 Q 6708.941 3630.959 6709.165 3630.894 "></path>
    <path id="STROKE_55f52e44-efd4-492f-99dd-82066908136e" opacity="1.000" fill="none" stroke="#71c047" stroke-width="4.590" stroke-opacity="1.000" stroke-linecap="round" stroke-linejoin="round" d="M 6720.336 3637.215 Q 6720.522 3637.780 6721.812 3638.959 Q 6723.103 3640.138 6724.957 3640.838 Q 6726.811 3641.539 6727.970 3642.450 Q 6729.128 3643.362 6729.410 3643.580 "></path>
    <path id="STROKE_9be1f26a-b83e-473c-940c-e083f16f320c" opacity="1.000" fill="none" stroke="#71c047" stroke-width="4.590" stroke-opacity="1.000" stroke-linecap="round" stroke-linejoin="round" d="M 6744.216 3652.552 Q 6745.670 3653.749 6749.684 3657.790 Q 6753.697 3661.830 6753.911 3662.078 "></path>
    <path id="STROKE_47aa1f3f-a03d-4941-9686-5aa7c5450116" opacity="1.000" fill="none" stroke="#71c047" stroke-width="4.590" stroke-opacity="1.000" stroke-linecap="round" stroke-linejoin="round" d="M 6763.470 3670.234 Q 6763.575 3670.593 6764.353 3671.713 Q 6765.130 3672.834 6766.202 3673.735 Q 6767.273 3674.637 6768.182 3675.521 Q 6769.090 3676.405 6769.412 3676.765 Q 6769.733 3677.125 6769.822 3677.232 Q 6769.910 3677.340 6770.458 3677.952 Q 6771.006 3678.563 6771.610 3679.395 Q 6772.214 3680.226 6772.427 3680.503 "></path>
    <path id="STROKE_fd86d0b1-9b22-402f-be9c-7b19cafe8435" opacity="1.000" fill="none" stroke="#71c047" stroke-width="4.590" stroke-opacity="1.000" stroke-linecap="round" stroke-linejoin="round" d="M 6778.975 3689.227 Q 6778.630 3688.921 6782.135 3693.418 Q 6785.640 3697.915 6785.950 3698.258 "></path>
    <path id="STROKE_cd1cdfa0-fe9c-4df3-96db-6a737d991c34" opacity="1.000" fill="none" stroke="#71c047" stroke-width="4.590" stroke-opacity="1.000" stroke-linecap="round" stroke-linejoin="round" d="M 6788.709 3703.268 Q 6788.345 3703.126 6788.916 3704.300 Q 6789.486 3705.473 6790.132 3706.194 Q 6790.777 3706.915 6791.149 3707.259 Q 6791.521 3707.603 6791.601 3707.730 Q 6791.681 3707.857 6792.084 3708.344 Q 6792.488 3708.832 6792.673 3709.080 "></path>
    <path id="STROKE_4cef39a3-4c89-4a66-8af9-f796767c486c" opacity="1.000" fill="none" stroke="#71c047" stroke-width="4.590" stroke-opacity="1.000" stroke-linecap="round" stroke-linejoin="round" d="M 6795.879 3720.396 Q 6795.555 3719.975 6796.572 3721.979 Q 6797.590 3723.983 6798.464 3724.925 Q 6799.337 3725.866 6799.396 3726.019 "></path>
    <path id="STROKE_f502bf90-99b4-4e98-a46e-062699d3bbd4" opacity="1.000" fill="none" stroke="#71c047" stroke-width="4.590" stroke-opacity="1.000" stroke-linecap="round" stroke-linejoin="round" d="M 6801.319 3734.000 Q 6801.225 3734.660 6801.212 3734.649 Q 6801.064 3735.770 6801.125 3735.493 Q 6801.134 3736.566 6801.154 3736.382 Q 6801.263 3736.675 6801.490 3737.080 Q 6801.718 3737.484 6801.703 3737.499 Q 6801.688 3737.514 6801.757 3737.613 Q 6801.825 3737.712 6802.247 3738.547 Q 6802.669 3739.382 6802.854 3739.564 "></path>
    <path id="STROKE_f926def0-002e-4343-8499-785e2fd6118a" opacity="1.000" fill="none" stroke="#71c047" stroke-width="4.590" stroke-opacity="1.000" stroke-linecap="round" stroke-linejoin="round" d="M 6802.971 3749.032 Q 6803.013 3749.191 6802.639 3749.670 Q 6802.264 3750.150 6802.256 3750.736 Q 6802.248 3751.322 6802.152 3751.696 Q 6802.056 3752.070 6802.481 3752.684 Q 6802.907 3753.298 6803.570 3753.393 Q 6804.234 3753.489 6804.389 3753.489 "></path>
    <path id="STROKE_61b298e6-75d5-4935-83ca-1c275e145ead" opacity="1.000" fill="none" stroke="#71c047" stroke-width="4.590" stroke-opacity="1.000" stroke-linecap="round" stroke-linejoin="round" d="M 6793.528 3752.309 Q 6793.775 3752.320 6791.964 3752.280 Q 6792.435 3750.456 6792.432 3750.816 Q 6792.428 3751.175 6792.420 3750.983 Q 6792.164 3751.015 6792.843 3750.822 Q 6793.522 3750.628 6794.658 3751.654 Q 6795.793 3752.679 6797.029 3754.753 Q 6798.266 3756.828 6799.491 3758.195 Q 6800.717 3759.562 6801.936 3760.638 Q 6803.155 3761.715 6805.058 3762.285 Q 6806.960 3762.856 6808.119 3762.833 Q 6809.278 3762.811 6810.566 3761.313 Q 6811.854 3759.816 6813.188 3755.199 Q 6814.522 3750.583 6814.765 3750.153 "></path>
    <path id="STROKE_6680d7e2-0ab1-46d5-ac01-09445ec6dc44" opacity="1.000" fill="none" stroke="#f3ba38" stroke-width="4.590" stroke-opacity="1.000" stroke-linecap="round" stroke-linejoin="round" d="M 6504.356 3763.567 Q 6504.906 3764.082 6502.384 3761.966 Q 6501.823 3762.336 6501.384 3765.180 Q 6500.945 3768.024 6501.238 3769.863 Q 6501.532 3771.702 6502.400 3772.335 Q 6503.268 3772.968 6504.450 3773.135 Q 6505.633 3773.303 6506.805 3773.022 Q 6507.976 3772.742 6508.039 3772.699 "></path>
    <path id="STROKE_ea74f654-382b-4405-a9d5-4ae644ee7f04" opacity="1.000" fill="none" stroke="#f3ba38" stroke-width="4.590" stroke-opacity="1.000" stroke-linecap="round" stroke-linejoin="round" d="M 6510.584 3770.429 Q 6511.660 3769.286 6511.879 3768.358 Q 6512.098 3767.431 6512.094 3766.836 Q 6512.089 3766.241 6511.588 3765.994 Q 6511.086 3765.747 6509.853 3765.439 Q 6508.619 3765.131 6507.663 3765.377 Q 6506.706 3765.624 6506.147 3766.020 Q 6505.589 3766.417 6505.383 3767.045 Q 6505.177 3767.673 6505.068 3768.416 Q 6504.958 3769.158 6505.378 3769.460 Q 6505.798 3769.762 6506.255 3769.867 Q 6506.711 3769.973 6506.699 3769.928 Q 6506.686 3769.883 6507.031 3769.948 Q 6507.376 3770.014 6508.542 3770.103 Q 6509.707 3770.192 6510.354 3769.417 Q 6511.002 3768.642 6511.085 3767.569 Q 6511.167 3766.496 6510.469 3765.680 Q 6509.770 3764.865 6507.543 3765.177 Q 6507.373 3765.553 6507.288 3766.137 Q 6507.203 3766.721 6507.135 3767.092 "></path>
    <path id="STROKE_c8863afd-d390-477a-8f68-e1f4a0254297" opacity="1.000" fill="none" stroke="#f3ba38" stroke-width="2.892" stroke-opacity="1.000" stroke-linecap="round" stroke-linejoin="round" d="M 6447.748 3555.345 Q 6448.014 3555.721 6447.135 3554.060 Q 6447.934 3554.908 6449.193 3570.448 Q 6449.216 3570.372 6449.238 3570.295 "></path>
    <path id="STROKE_ada8ff31-0622-4e99-9bc0-3c6c131729e4" opacity="1.000" fill="none" stroke="#f3ba38" stroke-width="3.060" stroke-opacity="1.000" stroke-linecap="round" stroke-linejoin="round" d="M 6442.584 3556.069 Q 6442.575 3555.290 6442.575 3555.293 Q 6442.566 3554.583 6442.565 3554.565 Q 6442.565 3554.546 6442.592 3554.562 Q 6442.618 3554.577 6442.531 3554.142 Q 6442.445 3553.707 6442.961 3553.272 Q 6443.478 3552.837 6444.938 3552.844 Q 6446.397 3552.850 6449.210 3552.877 Q 6452.024 3552.904 6453.936 3553.365 Q 6455.847 3553.826 6456.146 3553.899 "></path>
    <path id="STROKE_66da0298-5455-447e-86fb-4f5f97ddde12" opacity="1.000" fill="none" stroke="#f3ba38" stroke-width="2.982" stroke-opacity="1.000" stroke-linecap="round" stroke-linejoin="round" d="M 6457.476 3552.437 Q 6457.287 3552.546 6456.938 3552.741 Q 6456.590 3552.936 6456.687 3553.027 Q 6456.784 3553.118 6456.680 3552.941 Q 6456.575 3552.765 6456.653 3557.152 Q 6456.730 3561.539 6457.202 3568.526 Q 6458.084 3568.536 6459.298 3565.853 Q 6460.513 3563.170 6463.527 3556.896 Q 6463.585 3556.423 6464.077 3566.864 Q 6464.203 3566.862 6464.312 3566.826 Q 6464.421 3566.789 6464.569 3566.717 "></path>
    <path id="STROKE_c790881a-6b2b-4477-9814-0aafd05699d2" opacity="1.000" fill="none" stroke="#f3ba38" stroke-width="3.060" stroke-opacity="1.000" stroke-linecap="round" stroke-linejoin="round" d="M 6467.953 3561.680 Q 6468.036 3561.763 6467.929 3562.219 Q 6467.821 3562.676 6468.158 3562.784 Q 6468.496 3562.893 6469.072 3562.936 Q 6469.648 3562.979 6470.094 3562.837 Q 6470.540 3562.694 6471.128 3562.396 Q 6471.717 3562.097 6473.647 3560.923 Q 6475.577 3559.749 6476.695 3558.477 Q 6477.813 3557.205 6477.955 3555.614 Q 6477.003 3555.138 6476.955 3555.257 Q 6475.672 3554.746 6473.424 3556.039 Q 6471.175 3557.331 6469.759 3558.893 Q 6468.343 3560.455 6467.913 3561.775 Q 6467.482 3563.096 6467.481 3563.745 Q 6467.481 3564.393 6467.873 3565.191 Q 6468.264 3565.989 6470.289 3566.215 Q 6472.314 3566.441 6473.873 3565.696 Q 6475.432 3564.952 6476.093 3564.514 "></path>
    <path id="STROKE_7392e44e-3485-44a1-b87b-b8e09cd60cc4" opacity="1.000" fill="none" stroke="#6ac0c8" stroke-width="2.890" stroke-opacity="1.000" stroke-linecap="round" stroke-linejoin="round" d="M 6500.057 3553.283 Q 6500.057 3553.283 6500.082 3553.369 Q 6500.108 3553.454 6499.892 3552.016 Q 6499.869 3552.111 6499.461 3551.909 Q 6499.054 3551.708 6498.231 3552.242 Q 6497.409 3552.777 6497.088 3553.520 Q 6496.767 3554.262 6496.683 3555.069 Q 6496.599 3555.876 6498.023 3556.991 Q 6499.449 3558.105 6500.455 3559.688 Q 6501.461 3561.269 6501.753 3562.609 Q 6502.044 3563.950 6501.954 3565.100 Q 6501.864 3566.251 6500.680 3567.285 Q 6499.496 3568.318 6498.640 3568.529 Q 6497.784 3568.740 6497.129 3568.123 Q 6496.475 3567.505 6496.252 3567.255 "></path>
    <path id="STROKE_61c8ee51-fa65-4f67-8780-fa4bcba56643" opacity="1.000" fill="none" stroke="#6ac0c8" stroke-width="2.787" stroke-opacity="1.000" stroke-linecap="round" stroke-linejoin="round" d="M 6505.203 3554.921 Q 6505.191 3554.816 6505.812 3554.162 Q 6506.277 3554.315 6506.907 3577.495 Q 6506.954 3577.494 6506.978 3577.494 Q 6507.249 3577.205 6507.120 3571.128 Q 6506.991 3565.052 6506.659 3561.788 Q 6506.327 3558.523 6506.396 3557.144 Q 6506.464 3555.765 6506.649 3554.430 Q 6506.834 3553.094 6507.918 3552.397 Q 6509.001 3551.701 6509.802 3551.675 Q 6510.603 3551.650 6510.503 3551.635 Q 6510.402 3551.621 6511.264 3551.501 Q 6512.125 3551.381 6512.766 3553.198 Q 6513.406 3555.015 6513.193 3557.236 Q 6512.980 3559.457 6512.549 3561.079 Q 6512.118 3562.700 6510.860 3563.260 Q 6509.603 3563.819 6509.453 3563.798 "></path>
    <path id="STROKE_247391d1-7529-429b-92e6-446da0f1de6a" opacity="1.000" fill="none" stroke="#6ac0c8" stroke-width="2.890" stroke-opacity="1.000" stroke-linecap="round" stroke-linejoin="round" d="M 6516.015 3559.625 Q 6516.138 3559.677 6518.634 3559.595 Q 6521.130 3559.513 6523.241 3558.659 Q 6525.353 3557.805 6526.536 3557.009 Q 6527.719 3556.212 6527.942 3555.384 Q 6528.166 3554.556 6528.063 3553.955 Q 6527.961 3553.353 6527.189 3553.190 Q 6526.417 3553.028 6525.362 3552.848 Q 6524.308 3552.668 6522.574 3553.584 Q 6520.840 3554.500 6519.728 3556.229 Q 6518.616 3557.958 6518.125 3559.074 Q 6517.635 3560.189 6517.650 3561.338 Q 6517.666 3562.487 6517.771 3563.271 Q 6517.877 3564.056 6518.509 3564.603 Q 6519.141 3565.149 6520.860 3565.011 Q 6522.579 3564.873 6523.895 3564.235 Q 6525.210 3563.598 6525.778 3563.238 "></path>
    <path id="STROKE_5cbb4b18-3b7d-4a0a-bfc2-f74ec6ceb27e" opacity="1.000" fill="none" stroke="#6ac0c8" stroke-width="2.890" stroke-opacity="1.000" stroke-linecap="round" stroke-linejoin="round" d="M 6532.832 3558.308 Q 6532.654 3558.274 6533.258 3556.734 Q 6532.973 3556.573 6534.888 3556.706 Q 6536.804 3556.838 6538.064 3556.534 Q 6539.325 3556.230 6539.909 3555.911 Q 6540.494 3555.591 6540.606 3555.383 Q 6540.718 3555.174 6540.890 3554.595 Q 6541.061 3554.015 6541.039 3553.938 Q 6541.017 3553.860 6540.999 3553.546 Q 6540.980 3553.232 6541.055 3553.370 Q 6541.129 3553.507 6540.672 3552.877 Q 6540.214 3552.248 6539.274 3552.090 Q 6538.334 3551.932 6537.361 3551.853 Q 6536.387 3551.774 6534.861 3553.101 Q 6533.334 3554.427 6532.629 3556.477 Q 6531.924 3558.527 6531.864 3559.627 Q 6531.805 3560.727 6532.083 3561.557 Q 6532.360 3562.387 6533.542 3562.356 Q 6534.724 3562.325 6535.217 3562.319 "></path>
    <path id="STROKE_de1736f3-1928-407b-b8eb-c76e090020c2" opacity="1.000" fill="none" stroke="#6ac0c8" stroke-width="2.810" stroke-opacity="1.000" stroke-linecap="round" stroke-linejoin="round" d="M 6551.451 3554.535 Q 6550.989 3554.605 6550.254 3554.189 Q 6549.519 3553.773 6548.997 3553.542 Q 6548.475 3553.310 6548.196 3553.497 Q 6547.918 3553.683 6547.249 3554.572 Q 6546.579 3555.460 6546.101 3557.308 Q 6545.623 3559.155 6545.573 3560.163 Q 6545.523 3561.170 6545.785 3562.069 Q 6546.048 3562.967 6546.345 3563.051 Q 6546.642 3563.136 6546.921 3563.208 Q 6547.200 3563.280 6547.846 3563.210 Q 6548.491 3563.141 6549.769 3562.114 Q 6551.046 3561.088 6551.848 3559.780 Q 6552.649 3558.473 6553.983 3556.441 Q 6555.318 3554.409 6557.370 3545.424 Q 6557.211 3545.777 6555.870 3548.860 Q 6554.530 3551.942 6553.740 3554.677 Q 6552.950 3557.412 6552.944 3559.050 Q 6552.938 3560.688 6553.025 3561.570 Q 6553.113 3562.451 6554.915 3562.450 Q 6556.717 3562.449 6558.115 3561.783 Q 6559.513 3561.118 6560.056 3560.759 "></path>
    <path id="STROKE_9039319b-cd01-4f51-a9ea-15714f6fa520" opacity="1.000" fill="none" stroke="#6ac0c8" stroke-width="2.822" stroke-opacity="1.000" stroke-linecap="round" stroke-linejoin="round" d="M 6575.085 3553.130 Q 6575.249 3553.652 6574.670 3551.321 Q 6573.650 3551.425 6573.928 3551.530 Q 6573.614 3551.583 6573.106 3553.605 Q 6572.600 3555.626 6572.559 3557.146 Q 6572.518 3558.666 6572.570 3559.692 Q 6572.622 3560.718 6572.961 3561.185 Q 6573.300 3561.653 6574.094 3561.574 Q 6574.888 3561.496 6575.565 3560.894 Q 6576.243 3560.292 6576.848 3559.450 Q 6577.453 3558.607 6578.819 3556.303 Q 6580.186 3553.999 6580.961 3549.319 Q 6580.727 3548.732 6579.255 3552.300 Q 6577.783 3555.868 6578.026 3560.736 Q 6579.930 3561.442 6582.526 3558.241 Q 6585.122 3555.040 6587.598 3551.354 Q 6590.073 3547.668 6590.963 3542.683 Q 6590.484 3542.228 6588.951 3546.170 Q 6587.417 3550.112 6586.664 3552.728 Q 6585.910 3555.344 6585.645 3556.806 Q 6585.378 3558.269 6585.496 3559.317 Q 6585.614 3560.365 6586.348 3560.541 Q 6587.081 3560.717 6588.192 3560.125 Q 6589.303 3559.534 6590.823 3557.286 Q 6592.343 3555.038 6592.581 3554.659 "></path>
    <path id="STROKE_db49dd08-cb37-4ca7-96de-5d4edda7dbd1" opacity="1.000" fill="none" stroke="#6ac0c8" stroke-width="2.890" stroke-opacity="1.000" stroke-linecap="round" stroke-linejoin="round" d="M 6582.357 3549.396 Q 6581.941 3547.864 6587.838 3547.300 Q 6593.734 3546.737 6594.235 3546.707 "></path>
    <path id="STROKE_e7cd02c9-6d69-462c-a752-00aef707bf6c" opacity="1.000" fill="none" stroke="#6ac0c8" stroke-width="2.785" stroke-opacity="1.000" stroke-linecap="round" stroke-linejoin="round" d="M 6606.349 3548.997 Q 6606.318 3548.373 6606.222 3546.402 Q 6606.026 3546.205 6606.911 3568.601 Q 6606.887 3568.377 6606.769 3563.330 Q 6606.650 3558.283 6606.515 3555.473 Q 6606.378 3552.663 6606.824 3550.366 Q 6607.271 3548.069 6607.847 3546.843 Q 6608.424 3545.616 6608.984 3544.801 Q 6609.545 3543.986 6610.458 3543.750 Q 6611.371 3543.513 6612.097 3543.535 Q 6612.822 3543.558 6613.188 3543.858 Q 6613.553 3544.159 6613.652 3544.491 Q 6613.752 3544.823 6613.960 3545.126 Q 6614.169 3545.430 6614.392 3547.449 Q 6614.614 3549.469 6614.276 3551.493 Q 6613.938 3553.518 6613.398 3554.515 Q 6612.858 3555.511 6612.363 3555.946 Q 6611.868 3556.380 6611.456 3556.482 Q 6611.044 3556.584 6610.816 3556.491 Q 6610.588 3556.399 6610.438 3556.277 "></path>
    <path id="STROKE_2e9dfa30-44ff-4c28-bf14-9df28a014cb2" opacity="1.000" fill="none" stroke="#6ac0c8" stroke-width="2.890" stroke-opacity="1.000" stroke-linecap="round" stroke-linejoin="round" d="M 6618.227 3546.297 Q 6617.531 3546.345 6616.869 3548.146 Q 6616.207 3549.947 6616.354 3551.579 Q 6616.502 3553.212 6616.913 3554.279 Q 6617.324 3555.345 6618.368 3555.808 Q 6619.412 3556.270 6620.776 3556.271 Q 6622.140 3556.271 6623.082 3555.249 Q 6624.023 3554.226 6624.571 3552.970 Q 6625.118 3551.713 6625.134 3550.416 Q 6625.150 3549.119 6624.872 3548.350 Q 6624.593 3547.581 6624.129 3546.736 Q 6623.665 3545.891 6622.932 3545.515 Q 6622.198 3545.138 6621.301 3545.333 Q 6620.403 3545.530 6620.053 3546.318 Q 6619.702 3547.107 6619.526 3547.432 "></path>
    <path id="STROKE_8c19478b-53d3-4b2c-8e95-305acd1151b8" opacity="1.000" fill="none" stroke="#6ac0c8" stroke-width="2.890" stroke-opacity="1.000" stroke-linecap="round" stroke-linejoin="round" d="M 6629.510 3553.591 Q 6629.676 3552.685 6629.611 3552.867 Q 6629.603 3552.235 6629.603 3552.245 Q 6629.604 3552.374 6629.689 3550.111 Q 6629.774 3547.848 6629.745 3547.396 "></path>
    <path id="STROKE_20a9379c-da9b-4830-9483-c58e2e103ea3" opacity="1.000" fill="none" stroke="#6ac0c8" stroke-width="2.886" stroke-opacity="1.000" stroke-linecap="round" stroke-linejoin="round" d="M 6630.933 3543.445 Q 6630.933 3543.445 6630.921 3543.445 Q 6630.910 3543.446 6630.886 3543.446 Q 6630.886 3543.422 6630.908 3543.269 Q 6630.887 3543.237 6631.871 3543.304 Q 6632.855 3543.372 6632.761 3554.102 Q 6633.030 3554.369 6634.571 3550.565 Q 6636.111 3546.760 6639.050 3543.295 Q 6639.805 3544.241 6639.185 3553.868 Q 6639.208 3553.868 6639.332 3553.778 Q 6639.456 3553.688 6639.682 3553.510 "></path>
    <path id="STROKE_fb0fa9cc-3936-4f5e-8d03-084ae92c4053" opacity="1.000" fill="none" stroke="#6ac0c8" stroke-width="2.890" stroke-opacity="1.000" stroke-linecap="round" stroke-linejoin="round" d="M 6649.016 3540.619 Q 6649.064 3540.535 6648.763 3541.200 Q 6648.461 3541.865 6648.461 3545.883 Q 6648.461 3549.900 6648.467 3552.705 Q 6648.473 3555.509 6649.051 3558.184 Q 6649.051 3558.132 6648.985 3557.933 Q 6648.919 3557.734 6648.790 3557.389 "></path>
    <path id="STROKE_3d2bc24f-d796-434e-896b-060ecc8909a7" opacity="1.000" fill="none" stroke="#6ac0c8" stroke-width="2.890" stroke-opacity="1.000" stroke-linecap="round" stroke-linejoin="round" d="M 6641.492 3547.952 Q 6641.464 3546.552 6647.238 3546.019 Q 6653.012 3545.486 6653.561 3545.449 "></path>
    <path id="STROKE_1875869d-d6e7-4c9e-bdc0-30e4103c468c" opacity="1.000" fill="none" stroke="#6ac0c8" stroke-width="2.890" stroke-opacity="1.000" stroke-linecap="round" stroke-linejoin="round" d="M 6668.484 3555.494 Q 6668.528 3555.403 6670.901 3551.856 Q 6673.274 3548.308 6674.769 3545.407 Q 6676.264 3542.507 6677.418 3540.106 Q 6677.900 3540.300 6678.458 3544.292 Q 6679.015 3548.284 6679.131 3550.454 Q 6679.246 3552.624 6679.351 3553.876 Q 6679.456 3555.127 6681.074 3555.182 Q 6681.411 3554.625 6681.603 3554.223 "></path>
    <path id="STROKE_5a38a4c2-12f6-4644-b305-3c0c3290bcf1" opacity="1.000" fill="none" stroke="#6ac0c8" stroke-width="2.890" stroke-opacity="1.000" stroke-linecap="round" stroke-linejoin="round" d="M 6672.681 3549.049 Q 6673.454 3549.039 6673.497 3549.037 Q 6673.541 3549.035 6673.581 3549.064 Q 6673.621 3549.094 6673.476 3548.967 Q 6673.332 3548.841 6678.161 3548.184 Q 6682.990 3547.526 6683.663 3547.370 "></path>
    <path id="STROKE_e73485f7-5464-4ae9-83f4-29ea354b6483" opacity="1.000" fill="none" stroke="#f3ba38" stroke-width="2.550" stroke-opacity="1.000" stroke-linecap="round" stroke-linejoin="round" d="M 6694.886 3541.282 Q 6694.641 3541.634 6702.698 3540.861 Q 6710.756 3540.089 6710.951 3539.986 "></path>
    <path id="STROKE_481e0367-5903-4184-9000-81ab4bb7c14e" opacity="1.000" fill="none" stroke="#f3ba38" stroke-width="2.529" stroke-opacity="1.000" stroke-linecap="round" stroke-linejoin="round" d="M 6691.348 3548.965 Q 6691.209 3548.884 6696.431 3547.832 Q 6701.653 3546.779 6705.991 3547.002 Q 6710.330 3547.226 6710.903 3547.365 "></path>
    <path id="STROKE_8b7d5949-664a-4b8e-8f56-67689e2e4f9e" opacity="1.000" fill="none" stroke="#ff9adf" stroke-width="2.890" stroke-opacity="1.000" stroke-linecap="round" stroke-linejoin="round" d="M 6729.638 3532.864 Q 6730.010 3533.139 6729.279 3532.658 Q 6728.549 3532.177 6727.485 3532.463 Q 6726.422 3532.748 6725.955 3533.149 Q 6725.487 3533.550 6724.839 3534.142 Q 6724.190 3534.734 6723.834 3535.402 Q 6723.479 3536.071 6723.413 3537.225 Q 6723.347 3538.379 6724.722 3539.178 Q 6726.096 3539.977 6726.892 3540.297 Q 6727.688 3540.617 6728.854 3541.329 Q 6730.020 3542.041 6730.654 3543.751 Q 6731.289 3545.461 6731.259 3546.650 Q 6731.229 3547.839 6729.729 3548.837 Q 6728.230 3549.836 6727.092 3550.409 Q 6725.954 3550.982 6724.985 3550.935 Q 6724.927 3550.660 6725.020 3549.998 Q 6725.113 3549.335 6725.311 3548.840 "></path>
    <path id="STROKE_b9f54ae4-d26c-4348-8567-e1fedcc13d81" opacity="1.000" fill="none" stroke="#ff9adf" stroke-width="2.805" stroke-opacity="1.000" stroke-linecap="round" stroke-linejoin="round" d="M 6735.745 3536.123 Q 6735.745 3536.130 6735.726 3534.584 Q 6736.039 3535.370 6735.580 3541.958 Q 6735.121 3548.545 6734.770 3553.408 Q 6734.418 3558.272 6734.605 3563.632 Q 6734.670 3562.876 6735.128 3556.120 Q 6735.586 3549.364 6735.535 3545.554 Q 6735.484 3541.744 6735.609 3539.247 Q 6735.735 3536.750 6738.067 3534.449 Q 6738.298 3534.335 6739.073 3536.306 Q 6739.849 3538.276 6740.199 3540.862 Q 6740.550 3543.448 6740.516 3545.139 Q 6740.481 3546.831 6739.762 3548.382 Q 6739.043 3549.933 6737.484 3550.900 Q 6737.424 3550.948 6737.318 3550.077 Q 6737.212 3549.206 6737.113 3548.784 "></path>
    <path id="STROKE_2950be11-cd98-4b97-aad8-a36412767321" opacity="1.000" fill="none" stroke="#ff9adf" stroke-width="2.890" stroke-opacity="1.000" stroke-linecap="round" stroke-linejoin="round" d="M 6743.359 3543.264 Q 6743.359 3543.264 6743.699 3543.031 Q 6744.039 3542.798 6744.005 3542.909 Q 6744.607 3542.712 6746.678 3542.504 Q 6748.748 3542.297 6750.794 3541.234 Q 6752.840 3540.170 6754.245 3539.020 Q 6755.651 3537.870 6755.759 3536.471 Q 6755.867 3535.072 6755.047 3534.866 Q 6754.228 3534.660 6752.484 3534.857 Q 6750.740 3535.054 6749.239 3535.895 Q 6747.738 3536.735 6746.460 3537.772 Q 6745.183 3538.809 6744.714 3540.628 Q 6744.245 3542.447 6744.190 3543.667 Q 6744.135 3544.887 6744.680 3546.064 Q 6745.225 3547.242 6747.438 3547.061 Q 6749.651 3546.880 6750.172 3546.621 "></path>
    <path id="STROKE_ac5fb05c-1388-40ef-a16c-faefc256cf55" opacity="1.000" fill="none" stroke="#ff9adf" stroke-width="2.890" stroke-opacity="1.000" stroke-linecap="round" stroke-linejoin="round" d="M 6757.809 3540.684 Q 6757.603 3540.795 6756.584 3541.757 Q 6755.873 3541.697 6758.219 3541.809 Q 6760.565 3541.921 6762.242 3541.940 Q 6763.918 3541.959 6764.564 3541.306 Q 6765.210 3540.652 6765.352 3540.068 Q 6765.493 3539.483 6765.498 3538.996 Q 6765.503 3538.508 6765.521 3538.013 Q 6765.538 3537.517 6764.788 3536.979 Q 6764.039 3536.440 6763.501 3536.274 Q 6762.963 3536.109 6761.598 3535.905 Q 6760.231 3535.701 6758.817 3536.190 Q 6757.403 3536.679 6756.275 3538.697 Q 6755.148 3540.715 6754.824 3542.284 Q 6754.501 3543.854 6754.437 3544.955 Q 6754.373 3546.056 6755.274 3546.829 Q 6756.175 3547.603 6758.316 3547.185 Q 6760.457 3546.766 6760.923 3546.484 "></path>
    <path id="STROKE_9d09e027-2424-4a8b-bba4-a0c25715fc65" opacity="1.000" fill="none" stroke="#ff9adf" stroke-width="2.770" stroke-opacity="1.000" stroke-linecap="round" stroke-linejoin="round" d="M 6773.409 3537.302 Q 6773.643 3538.097 6770.044 3537.139 Q 6769.167 3537.426 6769.052 3539.822 Q 6768.938 3542.219 6768.942 3543.695 Q 6768.947 3545.171 6769.454 3546.170 Q 6769.960 3547.168 6771.055 3547.184 Q 6772.150 3547.199 6772.732 3546.911 Q 6773.314 3546.623 6774.237 3545.506 Q 6775.160 3544.389 6777.172 3540.478 Q 6779.185 3536.566 6779.969 3526.885 Q 6779.172 3526.137 6777.998 3530.468 Q 6776.824 3534.799 6776.290 3537.451 Q 6775.755 3540.104 6775.679 3541.587 Q 6775.603 3543.070 6775.789 3544.467 Q 6775.976 3545.864 6777.779 3546.613 Q 6779.583 3547.362 6781.845 3546.015 Q 6784.105 3544.668 6784.501 3544.387 "></path>
    <path id="STROKE_1af8822c-ab55-424f-b324-15151f5e30e5" opacity="1.000" fill="none" stroke="#ff9adf" stroke-width="2.890" stroke-opacity="1.000" stroke-linecap="round" stroke-linejoin="round" d="M 6798.699 3536.723 Q 6798.389 3536.702 6798.131 3536.195 Q 6797.873 3535.688 6797.515 3535.569 Q 6797.157 3535.449 6797.204 3535.496 Q 6797.250 3535.542 6797.247 3535.442 Q 6797.243 3535.341 6797.058 3535.659 Q 6796.873 3535.977 6796.665 3536.384 Q 6796.457 3536.791 6796.186 3537.633 Q 6795.915 3538.475 6795.856 3538.492 Q 6795.797 3538.509 6795.602 3540.041 Q 6795.407 3541.573 6795.389 3542.492 Q 6795.372 3543.411 6795.714 3544.312 Q 6796.056 3545.212 6796.830 3545.091 Q 6797.604 3544.970 6797.878 3545.048 Q 6798.153 3545.127 6800.100 3543.287 Q 6802.047 3541.446 6804.895 3530.958 Q 6805.423 3530.687 6804.517 3533.820 Q 6803.611 3536.953 6803.110 3539.226 Q 6802.610 3541.499 6802.590 3542.507 Q 6802.570 3543.514 6802.744 3544.580 Q 6802.917 3545.646 6803.704 3545.595 Q 6804.491 3545.544 6804.752 3545.599 Q 6805.014 3545.654 6806.491 3544.071 Q 6807.968 3542.487 6809.118 3540.501 Q 6810.269 3538.515 6811.609 3533.868 Q 6812.047 3533.434 6812.513 3531.933 Q 6812.979 3530.433 6813.239 3529.488 Q 6813.500 3528.542 6813.644 3528.207 Q 6813.788 3527.872 6815.200 3524.740 L 6815.247 3524.740 Q 6815.884 3524.276 6814.656 3528.220 Q 6813.428 3532.165 6812.395 3535.085 Q 6811.361 3538.006 6811.744 3541.427 Q 6812.084 3541.748 6813.481 3541.367 Q 6814.878 3540.986 6815.916 3541.180 Q 6816.954 3541.373 6817.554 3541.645 Q 6818.153 3541.916 6818.372 3541.913 "></path>
    <path id="STROKE_f5046f19-3a77-495a-a534-1bc1607485af" opacity="1.000" fill="none" stroke="#ff9adf" stroke-width="2.890" stroke-opacity="1.000" stroke-linecap="round" stroke-linejoin="round" d="M 6807.856 3533.364 Q 6807.833 3533.364 6807.623 3533.426 Q 6807.161 3533.234 6812.163 3532.940 Q 6817.166 3532.646 6817.659 3532.640 "></path>
    <path id="STROKE_d2441900-51a3-46d3-ac87-1da935f7ac3b" opacity="1.000" fill="none" stroke="#ff9adf" stroke-width="2.834" stroke-opacity="1.000" stroke-linecap="round" stroke-linejoin="round" d="M 6829.874 3533.037 Q 6829.821 3533.164 6829.514 3532.804 Q 6829.206 3532.444 6829.009 3531.556 Q 6829.026 3531.189 6829.295 3534.998 Q 6829.564 3538.807 6829.477 3543.779 Q 6829.390 3548.750 6829.188 3554.301 Q 6829.169 3554.561 6829.244 3548.639 Q 6829.319 3542.718 6829.425 3539.587 Q 6829.530 3536.456 6829.474 3534.863 Q 6829.417 3533.271 6830.343 3531.905 Q 6831.268 3530.540 6831.862 3529.962 Q 6832.456 3529.385 6833.053 3529.058 Q 6833.649 3528.730 6834.111 3529.288 Q 6834.574 3529.845 6834.640 3530.283 Q 6834.706 3530.721 6834.831 3531.094 Q 6834.956 3531.468 6835.041 3533.159 Q 6835.126 3534.850 6835.312 3537.240 Q 6835.499 3539.629 6831.768 3541.497 Q 6831.707 3541.586 6831.784 3541.167 Q 6831.860 3540.750 6831.959 3540.448 "></path>
    <path id="STROKE_8b541f63-7c3a-4bf3-aaf3-c1c8494cc4ad" opacity="1.000" fill="none" stroke="#ff9adf" stroke-width="2.890" stroke-opacity="1.000" stroke-linecap="round" stroke-linejoin="round" d="M 6841.503 3531.739 Q 6840.347 3531.753 6840.681 3531.749 Q 6840.028 3531.757 6840.109 3531.756 Q 6839.451 3531.811 6839.515 3531.893 Q 6839.134 3531.941 6838.317 3534.239 Q 6837.501 3536.538 6837.663 3538.215 Q 6837.825 3539.891 6838.012 3540.684 Q 6838.199 3541.477 6838.832 3541.887 Q 6839.465 3542.298 6840.539 3542.417 Q 6841.612 3542.536 6843.105 3541.669 Q 6844.598 3540.803 6845.838 3539.504 Q 6847.078 3538.205 6847.549 3536.497 Q 6848.020 3534.788 6848.020 3533.388 Q 6848.019 3531.987 6846.479 3531.725 Q 6844.939 3531.462 6843.653 3531.635 Q 6842.367 3531.807 6841.853 3533.322 Q 6841.339 3534.837 6841.295 3535.090 "></path>
    <path id="STROKE_cb537ad1-a900-4b3b-abfc-f438330f4014" opacity="1.000" fill="none" stroke="#ff9adf" stroke-width="2.890" stroke-opacity="1.000" stroke-linecap="round" stroke-linejoin="round" d="M 6842.822 3538.066 Q 6842.499 3538.217 6842.442 3538.213 Q 6842.385 3538.209 6841.916 3538.924 Q 6841.846 3539.427 6842.994 3539.347 Q 6844.142 3539.267 6844.938 3539.188 Q 6845.733 3539.108 6847.025 3538.259 Q 6848.318 3537.411 6849.231 3536.768 Q 6850.145 3536.125 6850.987 3535.112 Q 6851.831 3534.098 6852.227 3532.180 Q 6852.623 3530.261 6851.489 3528.169 Q 6851.483 3527.576 6850.778 3531.323 Q 6850.072 3535.069 6849.895 3537.309 Q 6849.718 3539.549 6849.688 3540.656 Q 6849.657 3541.763 6850.410 3542.348 Q 6851.164 3542.933 6852.026 3542.688 Q 6852.888 3542.444 6853.550 3539.484 Q 6854.212 3536.524 6854.209 3536.277 "></path>
    <circle id="STROKE_78140ee3-87f3-4b2a-9abb-8115ab6e8115" opacity="1.000" fill="#ff9adf" stroke="#ff9adf" stroke-width="0.1" stroke-opacity="1.000" fill-opacity="1.000" cx="6851.922" cy="3525.226" r="1.445"></circle>
    <path id="STROKE_7b9f6f90-abf6-4327-944f-6dc7d357e317" opacity="1.000" fill="none" stroke="#ff9adf" stroke-width="2.890" stroke-opacity="1.000" stroke-linecap="round" stroke-linejoin="round" d="M 6850.843 3541.454 Q 6850.039 3542.400 6850.150 3542.179 Q 6850.261 3541.958 6850.089 3543.238 Q 6850.973 3543.638 6852.950 3542.040 Q 6854.927 3540.441 6856.538 3537.392 Q 6858.150 3534.343 6858.515 3528.456 Q 6858.069 3527.838 6857.397 3530.911 Q 6856.725 3533.984 6855.870 3541.743 Q 6856.156 3542.489 6862.265 3529.384 Q 6862.706 3529.552 6861.361 3540.922 Q 6862.567 3540.872 6862.183 3540.864 Q 6862.422 3540.708 6862.640 3540.490 Q 6862.858 3540.272 6862.881 3540.125 Q 6862.904 3539.977 6862.999 3540.148 Q 6863.094 3540.320 6865.097 3537.044 Q 6867.101 3533.768 6868.425 3530.921 Q 6869.750 3528.074 6870.245 3525.240 Q 6870.195 3525.362 6869.510 3529.405 Q 6868.826 3533.448 6868.667 3535.673 Q 6868.509 3537.898 6868.503 3539.342 Q 6868.497 3540.785 6868.996 3541.604 Q 6869.495 3542.422 6870.528 3542.741 Q 6871.562 3543.060 6872.635 3542.314 Q 6873.708 3541.569 6874.104 3538.979 Q 6874.500 3536.390 6874.518 3535.867 "></path>
    <path id="STROKE_a3135a64-5fb0-4737-8287-1bc1e59dbf82" opacity="1.000" fill="none" stroke="#ff9adf" stroke-width="2.890" stroke-opacity="1.000" stroke-linecap="round" stroke-linejoin="round" d="M 6862.609 3531.224 Q 6862.586 3531.224 6862.453 3531.226 Q 6862.184 3531.551 6865.524 3530.676 Q 6868.866 3529.802 6871.596 3530.215 Q 6874.326 3530.629 6874.797 3530.776 "></path>
    <path id="STROKE_d1e84760-c550-4062-af50-01a82f8e4f6e" opacity="1.000" fill="none" stroke="#ff9adf" stroke-width="2.832" stroke-opacity="1.000" stroke-linecap="round" stroke-linejoin="round" d="M 6889.957 3524.791 Q 6890.142 3524.542 6890.639 3524.003 Q 6891.137 3523.464 6891.433 3522.986 Q 6891.728 3522.508 6892.216 3521.872 L 6892.295 3521.894 Q 6892.524 3521.622 6892.545 3526.724 Q 6892.566 3531.827 6891.954 3540.134 Q 6891.933 3540.077 6892.545 3538.688 Q 6893.156 3537.299 6893.447 3536.719 "></path>
    <path id="STROKE_7545aced-f0c0-43df-a919-79dc115e2841" opacity="1.000" fill="none" stroke="#ff9adf" stroke-width="2.890" stroke-opacity="1.000" stroke-linecap="round" stroke-linejoin="round" d="M 6892.169 3522.519 Q 6892.340 3522.557 6891.136 3522.637 Q 6891.053 3522.772 6891.058 3522.708 Q 6891.062 3522.645 6891.228 3522.455 Q 6891.394 3522.265 6891.682 3521.990 Q 6891.969 3521.714 6892.151 3521.677 Q 6892.333 3521.640 6892.364 3521.594 Q 6892.395 3521.549 6894.092 3521.131 Q 6895.790 3520.713 6896.917 3521.245 Q 6898.045 3521.776 6898.588 3522.220 Q 6899.131 3522.665 6899.624 3523.701 Q 6900.116 3524.738 6900.333 3525.781 Q 6900.550 3526.824 6899.302 3528.238 Q 6898.053 3529.652 6892.828 3531.193 Q 6893.721 3531.176 6895.070 3531.119 Q 6896.419 3531.062 6897.535 3531.639 Q 6898.652 3532.216 6899.150 3532.853 Q 6899.648 3533.490 6900.026 3535.244 Q 6900.403 3536.998 6899.667 3538.648 Q 6898.930 3540.299 6897.321 3541.672 Q 6895.713 3543.046 6893.379 3543.159 Q 6893.112 3543.693 6893.405 3542.079 Q 6893.698 3540.464 6893.943 3540.062 "></path>
    <path id="STROKE_719e735d-5276-46c7-9e94-55b2c53976df" opacity="1.000" fill="none" stroke="#f3ba38" stroke-width="2.357" stroke-opacity="1.000" stroke-linecap="round" stroke-linejoin="round" d="M 6501.427 3769.420 Q 6501.157 3769.460 6502.932 3769.285 Q 6504.708 3769.109 6510.196 3769.099 Q 6515.684 3769.090 6518.977 3768.954 Q 6522.269 3768.818 6524.384 3768.552 Q 6526.499 3768.287 6528.389 3768.167 Q 6530.279 3768.048 6531.972 3768.330 Q 6533.666 3768.611 6534.673 3768.881 Q 6535.680 3769.151 6536.284 3768.903 Q 6536.284 3768.844 6536.284 3768.758 Q 6536.284 3768.672 6536.284 3768.541 "></path>
    <path id="STROKE_3761fc3b-ef4c-47c8-8aee-2e4c5ffee40f" opacity="1.000" fill="none" stroke="#6ac0c8" stroke-width="2.693" stroke-opacity="1.000" stroke-linecap="round" stroke-linejoin="round" d="M 6525.346 3681.199 Q 6525.371 3681.238 6525.310 3679.740 Q 6525.212 3679.885 6525.116 3681.203 Q 6525.020 3682.521 6523.038 3687.953 Q 6521.057 3693.385 6519.438 3696.879 Q 6517.819 3700.373 6517.393 3704.403 Q 6518.076 3704.207 6517.870 3704.054 Q 6517.842 3703.676 6518.521 3701.971 Q 6519.200 3700.267 6519.387 3699.899 "></path>
    <path id="STROKE_7cc27846-bac8-41f4-a075-17f7ba17cdfd" opacity="1.000" fill="none" stroke="#6ac0c8" stroke-width="2.828" stroke-opacity="1.000" stroke-linecap="round" stroke-linejoin="round" d="M 6525.309 3681.435 Q 6525.312 3681.146 6525.305 3681.140 Q 6525.297 3681.134 6525.346 3680.451 Q 6525.302 3680.396 6525.339 3680.377 Q 6525.376 3680.359 6525.934 3680.695 Q 6526.492 3681.031 6526.985 3683.688 Q 6527.479 3686.344 6527.709 3688.041 Q 6527.938 3689.738 6528.059 3691.536 Q 6528.179 3693.335 6528.470 3699.365 Q 6528.586 3699.304 6528.761 3698.659 Q 6528.936 3698.015 6529.032 3697.743 "></path>
    <path id="STROKE_cc5f0050-a148-4d77-8662-e4d99c01ee42" opacity="1.000" fill="none" stroke="#6ac0c8" stroke-width="2.890" stroke-opacity="1.000" stroke-linecap="round" stroke-linejoin="round" d="M 6521.659 3694.554 Q 6521.659 3694.572 6521.659 3694.590 Q 6522.739 3695.101 6525.127 3693.960 Q 6527.515 3692.819 6527.920 3692.624 "></path>
    <path id="STROKE_0e177de1-f125-4c4f-9c60-25b2613f9635" opacity="1.000" fill="none" stroke="#6ac0c8" stroke-width="2.816" stroke-opacity="1.000" stroke-linecap="round" stroke-linejoin="round" d="M 6672.171 3566.585 Q 6672.171 3566.136 6672.171 3566.182 Q 6672.089 3565.299 6672.123 3565.625 Q 6672.123 3565.566 6672.123 3565.471 Q 6672.199 3564.983 6672.604 3570.180 Q 6673.010 3575.376 6671.821 3582.667 Q 6671.407 3581.959 6666.362 3582.724 Q 6661.317 3583.490 6657.721 3584.162 Q 6654.124 3584.833 6651.434 3585.302 Q 6648.744 3585.771 6646.919 3586.109 Q 6645.094 3586.447 6643.635 3586.348 Q 6642.175 3586.250 6638.518 3587.377 Q 6634.861 3588.505 6629.562 3590.054 Q 6624.262 3591.602 6619.321 3592.451 Q 6614.379 3593.300 6611.421 3593.462 Q 6608.462 3593.624 6604.294 3594.348 Q 6600.126 3595.072 6596.805 3595.891 Q 6593.484 3596.711 6590.521 3597.348 Q 6587.559 3597.985 6584.620 3598.536 Q 6581.680 3599.086 6577.757 3600.022 Q 6573.834 3600.957 6568.921 3602.619 Q 6564.008 3604.281 6561.553 3605.214 Q 6559.098 3606.148 6557.517 3606.749 Q 6555.935 3607.351 6554.677 3607.645 Q 6553.418 3607.940 6549.065 3609.676 Q 6544.713 3611.412 6542.361 3612.595 Q 6540.009 3613.778 6538.625 3614.593 Q 6537.241 3615.407 6533.770 3617.262 Q 6530.297 3619.116 6526.610 3621.136 Q 6522.923 3623.157 6520.314 3624.815 Q 6517.706 3626.473 6515.062 3628.296 Q 6512.419 3630.119 6510.962 3631.208 Q 6509.506 3632.298 6506.858 3633.659 Q 6504.210 3635.020 6501.709 3637.179 Q 6499.208 3639.338 6497.311 3641.688 Q 6495.413 3644.037 6494.155 3645.309 Q 6492.898 3646.580 6490.337 3649.290 Q 6487.775 3651.999 6486.192 3653.793 Q 6484.608 3655.587 6483.384 3658.517 Q 6482.160 3661.446 6481.268 3663.343 Q 6480.376 3665.240 6480.162 3667.479 Q 6479.947 3669.718 6479.896 3671.721 Q 6479.844 3673.725 6480.279 3675.678 Q 6480.714 3677.631 6481.422 3679.139 Q 6482.129 3680.648 6483.207 3681.690 Q 6484.285 3682.733 6485.361 3683.107 Q 6486.438 3683.482 6488.292 3683.805 Q 6490.146 3684.129 6491.363 3684.680 Q 6492.580 3685.230 6497.196 3687.568 Q 6496.944 3687.975 6496.928 3688.001 Q 6496.912 3688.027 6496.895 3688.012 Q 6496.567 3688.291 6496.544 3688.280 Q 6496.258 3688.656 6496.333 3688.588 Q 6496.314 3688.665 6496.314 3688.780 Q 6496.314 3688.896 6496.314 3689.009 "></path>
    <path id="STROKE_96c5b4d1-d464-46ac-b9ae-283cfbe17efa" opacity="1.000" fill="none" stroke="#6ac0c8" stroke-width="2.890" stroke-opacity="1.000" stroke-linecap="round" stroke-linejoin="round" d="M 6500.387 3678.698 Q 6500.387 3678.172 6500.387 3678.148 Q 6500.387 3678.125 6500.387 3678.106 Q 6500.387 3678.088 6500.387 3678.170 Q 6500.387 3678.252 6500.387 3677.294 Q 6500.345 3677.276 6500.285 3677.276 Q 6500.187 3677.605 6499.282 3680.805 Q 6498.377 3684.004 6497.536 3686.196 Q 6496.694 3688.388 6495.819 3690.569 Q 6494.944 3692.750 6494.743 3694.708 Q 6495.711 3694.869 6496.568 3693.347 Q 6497.425 3691.824 6499.770 3691.157 Q 6502.114 3690.490 6503.212 3690.324 Q 6504.311 3690.158 6504.956 3689.932 Q 6505.602 3689.706 6505.965 3689.485 Q 6506.328 3689.264 6506.383 3688.846 Q 6506.438 3688.428 6506.471 3688.141 Q 6506.502 3687.853 6504.453 3685.553 Q 6502.404 3683.253 6501.129 3681.827 Q 6499.854 3680.402 6499.191 3679.124 Q 6499.753 3679.368 6497.692 3690.857 Q 6497.794 3690.691 6500.865 3684.551 Q 6501.100 3685.458 6501.022 3685.435 Q 6499.980 3685.963 6504.315 3689.398 Q 6504.569 3689.281 6504.727 3689.163 "></path>
    <path id="STROKE_45380078-669f-40d0-9222-18b2f2529651" opacity="1.000" fill="none" stroke="#ff9adf" stroke-width="2.595" stroke-opacity="1.000" stroke-linecap="round" stroke-linejoin="round" d="M 6812.579 3702.298 Q 6812.579 3701.661 6812.579 3701.789 Q 6812.566 3701.455 6812.598 3700.362 Q 6812.945 3700.069 6813.145 3705.132 Q 6813.344 3710.195 6813.253 3714.701 Q 6813.161 3719.206 6813.646 3723.245 L 6813.731 3723.265 Q 6813.837 3723.155 6814.001 3721.551 Q 6814.166 3719.946 6814.291 3719.443 "></path>
    <path id="STROKE_c66e30cd-b17c-472f-8b77-f89e1ab073ec" opacity="1.000" fill="none" stroke="#ff9adf" stroke-width="2.890" stroke-opacity="1.000" stroke-linecap="round" stroke-linejoin="round" d="M 6813.791 3701.458 Q 6813.707 3701.614 6814.054 3701.249 Q 6814.401 3700.883 6816.031 3700.707 Q 6817.661 3700.531 6819.334 3701.043 Q 6821.007 3701.556 6821.933 3702.048 Q 6822.859 3702.540 6823.410 3702.886 Q 6823.961 3703.232 6824.393 3704.404 Q 6824.824 3705.576 6823.149 3707.832 Q 6821.475 3710.088 6814.291 3712.865 Q 6814.074 3712.659 6816.075 3713.028 Q 6818.076 3713.397 6819.522 3713.886 Q 6820.968 3714.375 6822.232 3715.325 Q 6823.496 3716.275 6824.274 3717.395 Q 6825.053 3718.515 6825.182 3719.308 Q 6825.310 3720.100 6825.259 3720.894 Q 6825.207 3721.688 6823.292 3723.018 Q 6821.377 3724.348 6818.210 3724.707 Q 6818.171 3724.980 6818.210 3724.332 Q 6818.250 3723.684 6818.310 3723.432 "></path>
    <path id="STROKE_08deef77-f59b-4fce-afbc-7f37edfc8c0d" opacity="1.000" fill="none" stroke="#ff9adf" stroke-width="2.868" stroke-opacity="1.000" stroke-linecap="round" stroke-linejoin="round" d="M 6906.039 3534.504 Q 6906.038 3534.504 6906.028 3534.504 Q 6906.019 3534.504 6905.999 3534.504 Q 6906.102 3534.490 6905.935 3534.460 Q 6905.769 3534.430 6906.708 3533.954 Q 6907.648 3533.478 6908.875 3533.513 Q 6910.102 3533.548 6910.940 3533.498 Q 6911.778 3533.448 6913.432 3533.629 Q 6915.085 3533.810 6916.540 3534.024 Q 6917.995 3534.238 6918.729 3534.594 Q 6919.463 3534.950 6919.669 3535.229 Q 6919.875 3535.507 6919.813 3535.906 Q 6919.753 3536.304 6919.267 3538.167 Q 6918.781 3540.031 6918.895 3544.253 Q 6919.008 3548.475 6918.873 3552.290 Q 6918.737 3556.105 6918.252 3559.573 Q 6917.767 3563.041 6917.400 3564.749 Q 6917.033 3566.457 6916.752 3567.511 Q 6916.471 3568.565 6915.365 3572.019 Q 6914.258 3575.473 6913.646 3577.800 Q 6913.034 3580.126 6912.463 3582.789 Q 6911.893 3585.452 6910.816 3590.306 Q 6909.739 3595.160 6909.333 3598.326 Q 6908.926 3601.492 6908.907 3603.364 Q 6908.889 3605.236 6908.897 3608.291 Q 6908.905 3611.345 6908.862 3616.658 Q 6908.820 3621.971 6908.890 3624.829 Q 6908.959 3627.687 6909.285 3630.216 Q 6909.611 3632.745 6909.667 3634.579 Q 6909.722 3636.413 6909.763 3638.911 Q 6909.804 3641.410 6909.746 3643.541 Q 6909.688 3645.672 6909.363 3648.246 Q 6909.039 3650.819 6908.900 3655.523 Q 6908.761 3660.227 6908.845 3664.106 Q 6908.928 3667.986 6908.782 3670.065 Q 6908.636 3672.145 6908.289 3674.050 Q 6907.942 3675.955 6907.665 3677.026 Q 6907.388 3678.096 6906.771 3681.727 Q 6906.154 3685.358 6905.945 3688.303 Q 6905.736 3691.248 6905.826 3693.485 Q 6905.915 3695.723 6905.654 3698.222 Q 6905.394 3700.722 6905.187 3702.506 Q 6904.980 3704.290 6904.991 3705.781 Q 6905.001 3707.272 6904.629 3709.700 Q 6904.257 3712.129 6904.365 3714.623 Q 6904.381 3714.930 6904.136 3714.193 Q 6903.891 3713.455 6901.485 3713.033 Q 6899.080 3712.612 6897.639 3712.343 Q 6896.198 3712.075 6894.752 3711.655 Q 6893.306 3711.235 6892.242 3710.896 Q 6891.179 3710.557 6888.983 3711.333 Q 6886.789 3712.108 6885.109 3712.899 Q 6883.429 3713.691 6879.449 3713.868 Q 6875.469 3714.046 6873.125 3713.970 Q 6870.782 3713.894 6869.295 3714.193 Q 6867.808 3714.493 6866.885 3714.756 Q 6865.963 3715.019 6864.771 3715.546 Q 6863.578 3716.073 6860.081 3716.829 Q 6856.584 3717.585 6850.126 3716.529 Q 6849.606 3716.085 6850.959 3716.391 Q 6852.312 3716.697 6852.458 3716.677 "></path>
    <path id="STROKE_7981adb7-da0f-4416-9a85-b31c5c8eb2d5" opacity="1.000" fill="none" stroke="#ff9adf" stroke-width="2.890" stroke-opacity="1.000" stroke-linecap="round" stroke-linejoin="round" d="M 6850.785 3706.653 Q 6850.784 3706.549 6850.785 3705.271 Q 6851.749 3705.746 6848.070 3723.936 Q 6848.107 3723.244 6847.914 3722.152 Q 6847.721 3721.060 6847.529 3720.553 Q 6847.337 3720.045 6847.034 3719.754 Q 6846.731 3719.462 6846.703 3719.339 Q 6846.674 3719.216 6843.816 3719.791 Q 6840.958 3720.365 6839.068 3720.567 Q 6837.178 3720.769 6835.515 3720.875 Q 6835.896 3720.643 6837.093 3719.554 Q 6838.291 3718.466 6840.194 3716.488 Q 6842.098 3714.510 6844.402 3712.236 Q 6846.707 3709.962 6849.994 3706.446 Q 6849.748 3706.587 6847.239 3709.955 Q 6844.730 3713.323 6843.086 3715.781 Q 6841.442 3718.239 6841.062 3720.746 Q 6841.448 3721.020 6842.547 3720.030 Q 6843.646 3719.040 6848.031 3712.322 Q 6847.747 3712.284 6844.052 3719.946 Q 6844.281 3719.955 6844.442 3719.893 Q 6844.604 3719.831 6844.687 3719.778 Q 6844.769 3719.725 6844.901 3719.490 Q 6845.034 3719.255 6846.595 3718.450 Q 6848.156 3717.645 6848.321 3717.605 "></path>
  </g>
</svg>