<?xml version="1.0" encoding="UTF-8" standalone="yes"?>
<svg xmlns="http://www.w3.org/2000/svg" xmlns:xlink="http://www.w3.org/1999/xlink" width="902.931pt" height="523.267pt" version="1.1" viewBox="5404.106 4091.015 902.931 523.267">
  <!--
	Exported with Concepts: Smarter Sketching
	Version: 1059 on iOS 15.4
	https://concepts.app/
	-->
  <title>Untitled</title>
  <desc>Drawing exported from Concepts: Smarter Sketching</desc>
  <defs></defs>
  <g id="Foreground" opacity="1.000">
    <path id="STROKE_99c28258-9797-446e-80ef-28d095ce0df4" opacity="1.000" fill="none" stroke="#00cdf3" stroke-width="1.000" stroke-opacity="1.000" stroke-linecap="round" stroke-linejoin="round" d="M 5931.428 4442.658 L 5931.608 4442.725 "></path>
    <path id="STROKE_a89a663e-e8c6-4360-bd86-4e8f88093b97" opacity="1.000" fill="none" stroke="#00cdf3" stroke-width="1.000" stroke-opacity="1.000" stroke-linecap="round" stroke-linejoin="round" d="M 5933.598 4443.453 L 6173.393 4530.826 "></path>
    <path id="STROKE_f6181d04-5bbf-4607-b048-8fbaaf37f818" opacity="1.000" fill="none" stroke="#00cdf3" stroke-width="1.000" stroke-opacity="1.000" stroke-linecap="round" stroke-linejoin="round" d="M 5652.599 4162.240 L 5892.756 4414.458 "></path>
    <path id="STROKE_63925656-9355-417a-b0e8-7c506ac9dfba" opacity="1.000" fill="none" stroke="#00cdf3" stroke-width="1.000" stroke-opacity="1.000" stroke-linecap="round" stroke-linejoin="round" d="M 5933.297 4414.774 L 6172.090 4160.413 "></path>
    <path id="STROKE_bd1cbe7d-62fe-4145-8f07-e26ae332d15d" opacity="1.000" fill="none" stroke="#00cdf3" stroke-width="1.000" stroke-opacity="1.000" stroke-linecap="round" stroke-linejoin="round" d="M 5653.902 4532.653 L 5892.600 4443.773 "></path>
    <path id="STROKE_327cbe77-c539-4f85-84f9-0a6c69d7146f" opacity="1.000" fill="none" stroke="#000000" stroke-width="1.000" stroke-opacity="1.000" stroke-linecap="round" stroke-linejoin="round" d="M 5652.599 4162.240 L 6172.090 4160.413 L 6173.393 4530.826 L 5653.902 4532.653 Z"></path>
    <path id="STROKE_09455fb3-76d1-4d77-ad26-d4eed2fe7986" opacity="1.000" fill="none" stroke="#000000" stroke-width="1.000" stroke-opacity="1.000" stroke-linecap="round" stroke-linejoin="round" d="M 5892.515 4443.287 L 5892.413 4414.188 L 5934.056 4414.041 L 5934.161 4443.734 L 5893.920 4443.875 "></path>
    <path id="STROKE_0c8541f0-6ac7-4fef-946e-f68097eebffa" opacity="1.000" fill="none" stroke="#000000" stroke-width="1.000" stroke-opacity="1.000" stroke-linecap="round" stroke-linejoin="round" d="M 5892.602 4443.880 L 5892.517 4443.881 L 5892.517 4443.767 "></path>
    <path id="STROKE_1bb9139a-e43c-4777-8618-5dc824d9c78e" opacity="1.000" fill="none" stroke="#000000" stroke-width="1.000" stroke-opacity="1.000" stroke-linecap="round" stroke-linejoin="round" d="M 5871.360 4392.062 L 5954.912 4391.769 L 5955.123 4451.335 L 5871.571 4451.629 Z"></path>
    <path id="STROKE_cb50eb4e-f331-4f33-942b-9b8f689bf167" opacity="1.000" fill="none" stroke="#000000" stroke-width="1.000" stroke-opacity="1.000" stroke-linecap="round" stroke-linejoin="round" d="M 5830.625 4349.924 L 5995.351 4349.345 L 5995.765 4466.792 L 5831.038 4467.372 Z"></path>
    <path id="STROKE_50b0c78d-8533-49cc-926e-c456160dec64" opacity="1.000" fill="none" stroke="#000000" stroke-width="1.000" stroke-opacity="1.000" stroke-linecap="round" stroke-linejoin="round" d="M 5763.382 4278.975 L 6062.093 4277.924 L 6062.843 4490.906 L 5764.132 4491.957 Z"></path>
    <path id="STROKE_01a7132f-b3cd-4874-ab5f-5323483e17f9" opacity="1.000" fill="none" stroke="#f3ba38" stroke-width="4.350" stroke-opacity="1.000" stroke-linecap="round" stroke-linejoin="round" d="M 5654.248 4502.050 Q 5654.253 4502.878 5654.253 4502.931 Q 5654.253 4502.983 5654.253 4502.900 Q 5654.261 4504.342 5654.258 4503.996 Q 5654.261 4504.461 5654.279 4507.885 Q 5654.298 4511.308 5654.332 4517.583 Q 5654.365 4523.858 5654.388 4528.030 Q 5654.411 4532.201 5654.432 4536.090 Q 5654.453 4539.979 5654.511 4550.856 Q 5654.511 4550.860 5654.416 4533.308 Q 5654.322 4515.754 5654.236 4499.732 Q 5654.150 4483.710 5654.109 4476.139 Q 5654.068 4468.567 5654.025 4460.662 Q 5653.982 4452.756 5653.956 4447.850 Q 5653.930 4442.944 5653.868 4431.515 Q 5653.807 4420.085 5653.732 4406.267 Q 5653.658 4392.449 5653.621 4385.469 Q 5653.583 4378.488 5653.565 4375.125 Q 5653.547 4371.763 5653.490 4361.206 Q 5653.433 4350.649 5653.285 4323.176 Q 5653.138 4295.702 5653.063 4281.891 Q 5652.989 4268.079 5652.944 4259.847 Q 5652.900 4251.615 5652.870 4245.966 Q 5652.840 4240.317 5652.740 4221.823 Q 5652.640 4203.329 5652.587 4193.438 Q 5652.534 4183.547 5652.511 4179.346 Q 5652.489 4175.145 5652.457 4169.296 Q 5652.426 4163.446 5652.410 4160.518 Q 5652.394 4157.589 5652.388 4156.490 Q 5652.382 4155.392 5652.375 4154.092 Q 5652.368 4152.792 5652.362 4151.753 Q 5652.357 4150.715 5652.354 4150.168 Q 5652.351 4149.622 5652.349 4149.232 Q 5652.347 4148.844 5652.347 4148.882 Q 5652.348 4148.920 5652.347 4148.701 Q 5652.347 4148.684 5652.351 4149.446 "></path>
    <path id="STROKE_49ffb34e-db0b-463e-8c45-41b12ed153e0" opacity="1.000" fill="none" stroke="#f3ba38" stroke-width="4.018" stroke-opacity="1.000" stroke-linecap="round" stroke-linejoin="round" d="M 5647.906 4533.327 Q 5647.593 4533.329 5646.409 4533.336 Q 5646.180 4533.337 5677.724 4533.155 Q 5709.269 4532.973 5726.085 4532.875 Q 5742.902 4532.778 5759.801 4532.681 Q 5776.699 4532.583 5785.081 4532.535 Q 5793.463 4532.486 5803.599 4532.428 Q 5813.733 4532.369 5856.998 4532.119 Q 5900.262 4531.869 5928.729 4531.705 Q 5957.196 4531.540 5970.073 4531.466 Q 5982.951 4531.392 5993.271 4531.332 Q 6003.591 4531.272 6021.808 4531.167 Q 6040.024 4531.062 6050.404 4531.001 Q 6060.784 4530.941 6069.951 4530.889 Q 6079.118 4530.836 6088.285 4530.783 Q 6097.453 4530.730 6102.499 4530.701 Q 6107.544 4530.672 6110.643 4530.654 Q 6113.742 4530.636 6115.229 4530.627 Q 6116.718 4530.618 6126.893 4530.560 Q 6137.068 4530.501 6149.207 4530.431 Q 6161.345 4530.360 6167.153 4530.327 Q 6172.961 4530.294 6176.298 4530.274 Q 6179.634 4530.255 6181.062 4530.247 Q 6182.490 4530.238 6183.388 4530.233 Q 6184.285 4530.229 6191.783 4530.185 Q 6191.729 4530.185 6191.152 4530.188 Q 6192.570 4530.180 6192.180 4530.183 Q 6192.209 4530.183 6199.578 4530.140 Q 6198.764 4530.145 6198.716 4530.145 Q 6198.667 4530.145 6198.606 4530.146 "></path>
    <path id="STROKE_9fca161b-03d6-4e39-83f8-e46a43b97e8a" opacity="1.000" fill="none" stroke="#f3ba38" stroke-width="4.420" stroke-opacity="1.000" stroke-linecap="round" stroke-linejoin="round" d="M 5654.456 4533.290 Q 5654.916 4533.287 5653.208 4533.297 Q 5651.501 4533.307 5638.155 4533.384 Q 5638.209 4533.383 5638.444 4533.382 Q 5637.787 4533.386 5631.258 4533.424 Q 5631.962 4533.420 5632.012 4533.419 Q 5632.061 4533.419 5631.962 4533.419 Q 5633.309 4533.412 5632.863 4533.414 Q 5633.968 4533.408 5633.675 4533.410 Q 5634.220 4533.406 5634.755 4533.403 "></path>
    <path id="STROKE_56436532-81be-47ce-9245-4aed9f042808" opacity="1.000" fill="none" stroke="#f3ba38" stroke-width="4.376" stroke-opacity="1.000" stroke-linecap="round" stroke-linejoin="round" d="M 5638.196 4539.713 Q 5639.281 4539.302 5643.603 4537.664 Q 5647.924 4536.026 5665.226 4529.470 Q 5682.528 4522.913 5698.227 4516.964 Q 5713.926 4511.015 5731.191 4504.472 L 5731.144 4504.490 Q 5731.398 4504.394 5745.298 4499.126 Q 5759.198 4493.859 5767.842 4490.583 Q 5776.486 4487.308 5782.379 4485.075 Q 5788.271 4482.842 5790.639 4481.944 Q 5793.007 4481.047 5795.725 4480.017 Q 5798.442 4478.987 5801.282 4477.911 Q 5804.122 4476.835 5810.520 4474.411 Q 5816.917 4471.986 5824.931 4468.949 Q 5832.945 4465.913 5844.525 4461.524 Q 5856.104 4457.136 5861.783 4454.984 Q 5867.462 4452.832 5872.176 4451.046 Q 5876.890 4449.259 5879.199 4448.384 Q 5881.509 4447.509 5882.537 4447.119 Q 5883.565 4446.729 5884.169 4446.500 Q 5884.122 4446.519 5884.075 4446.536 Q 5882.998 4446.945 5892.331 4443.408 Q 5892.438 4443.367 5891.730 4443.636 Q 5892.096 4443.498 5892.084 4443.502 Q 5892.071 4443.506 5892.491 4443.348 Q 5892.911 4443.188 5893.173 4443.089 Q 5893.436 4442.989 5893.359 4443.019 Q 5893.282 4443.047 5893.321 4443.033 Q 5893.359 4443.018 5893.725 4442.880 Q 5894.090 4442.741 5894.062 4442.752 Q 5894.035 4442.762 5894.133 4442.726 Q 5894.795 4442.475 5893.561 4442.942 Q 5892.326 4443.410 5890.667 4444.039 Q 5889.009 4444.667 5887.661 4445.178 L 5887.744 4445.146 "></path>
    <path id="STROKE_62ed0479-c48e-4d6c-b503-8835f2c62409" opacity="1.000" fill="none" stroke="#f3ba38" stroke-width="2.890" stroke-opacity="1.000" stroke-linecap="round" stroke-linejoin="round" d="M 5641.199 4108.562 Q 5641.305 4108.760 5641.275 4108.676 Q 5641.246 4108.591 5640.969 4107.912 Q 5640.691 4107.233 5640.734 4107.367 Q 5640.135 4106.225 5640.358 4106.644 Q 5640.299 4106.585 5640.210 4106.363 L 5640.171 4106.363 Q 5640.088 4107.042 5640.080 4109.954 Q 5640.072 4112.866 5640.806 4114.846 Q 5641.540 4116.825 5642.223 4117.953 Q 5642.905 4119.081 5643.915 4119.396 Q 5644.924 4119.711 5645.778 4119.807 Q 5646.632 4119.902 5648.719 4117.045 Q 5650.805 4114.188 5651.411 4110.463 Q 5652.017 4106.739 5650.242 4102.273 Q 5650.213 4102.273 5650.153 4102.273 Q 5649.663 4101.678 5650.819 4106.393 Q 5651.976 4111.108 5652.314 4115.805 Q 5652.653 4120.502 5652.748 4123.075 Q 5652.842 4125.648 5652.651 4128.244 Q 5652.460 4130.840 5651.670 4132.766 Q 5650.880 4134.691 5650.066 4135.311 Q 5649.252 4135.930 5648.719 4135.543 Q 5648.185 4135.157 5647.913 4134.795 Q 5647.640 4134.434 5646.307 4133.116 Q 5644.974 4131.799 5644.091 4130.447 Q 5643.208 4129.095 5643.059 4128.748 "></path>
    <path id="STROKE_abcca164-7516-4a16-9ec1-5f2cf5901dbe" opacity="1.000" fill="none" stroke="#f3ba38" stroke-width="2.890" stroke-opacity="1.000" stroke-linecap="round" stroke-linejoin="round" d="M 5890.506 4439.104 Q 5890.506 4439.104 5890.608 4439.123 Q 5890.711 4439.142 5892.427 4439.093 Q 5894.143 4439.045 5895.398 4439.290 Q 5896.653 4439.535 5897.459 4439.921 Q 5898.266 4440.307 5898.481 4440.896 Q 5898.697 4441.484 5898.750 4442.015 Q 5898.802 4442.545 5898.302 4442.901 Q 5897.802 4443.258 5897.575 4443.374 Q 5897.347 4443.490 5896.967 4443.785 Q 5896.586 4444.079 5896.065 4444.591 Q 5895.544 4445.104 5895.136 4445.500 Q 5894.728 4445.897 5894.285 4446.626 Q 5893.841 4447.354 5893.827 4447.400 "></path>
    <path id="STROKE_4bc545dd-1c27-4883-be8b-7fd4fc7e1e16" opacity="1.000" fill="none" stroke="#f3ba38" stroke-width="2.890" stroke-opacity="1.000" stroke-linecap="round" stroke-linejoin="round" d="M 6195.051 4523.752 Q 6195.109 4523.550 6195.184 4523.312 Q 6195.258 4523.074 6195.382 4522.989 Q 6195.505 4522.904 6195.634 4522.851 Q 6195.763 4522.797 6195.918 4522.794 Q 6196.074 4522.790 6196.412 4522.896 Q 6196.750 4523.002 6196.754 4523.012 Q 6196.759 4523.022 6198.225 4524.356 Q 6199.691 4525.689 6200.631 4526.640 Q 6201.571 4527.591 6202.041 4528.198 Q 6202.510 4528.806 6202.598 4529.088 Q 6202.685 4529.371 6202.715 4529.492 Q 6202.746 4529.612 6202.661 4529.806 Q 6202.577 4529.999 6202.607 4529.929 Q 6202.638 4529.859 6201.819 4530.048 Q 6201.001 4530.237 6200.086 4531.334 Q 6199.172 4532.432 6198.562 4533.170 Q 6197.953 4533.909 6196.414 4536.902 Q 6196.459 4536.889 6196.616 4536.681 Q 6196.774 4536.473 6196.900 4536.272 "></path>
    <path id="STROKE_973f1b1f-e350-4dd4-9ad7-8d982cd2a59b" opacity="1.000" fill="none" stroke="#f3ba38" stroke-width="2.890" stroke-opacity="1.000" stroke-linecap="round" stroke-linejoin="round" d="M 6208.781 4523.936 Q 6209.022 4523.446 6209.979 4523.157 Q 6210.935 4522.869 6211.721 4522.787 Q 6212.507 4522.706 6213.081 4522.849 Q 6213.656 4522.991 6214.283 4523.505 Q 6214.911 4524.019 6215.358 4524.616 Q 6215.806 4525.214 6216.166 4526.315 Q 6216.525 4527.417 6216.022 4528.627 Q 6215.519 4529.837 6214.391 4531.453 Q 6213.264 4533.068 6211.086 4534.238 Q 6211.100 4534.199 6211.377 4533.977 Q 6211.654 4533.753 6211.826 4533.581 "></path>
    <path id="STROKE_adbb8b40-8efa-42b5-8bda-57592538d6c9" opacity="1.000" fill="none" stroke="#f3ba38" stroke-width="2.890" stroke-opacity="1.000" stroke-linecap="round" stroke-linejoin="round" d="M 6219.578 4523.346 Q 6219.854 4523.348 6219.404 4523.319 Q 6218.955 4523.291 6218.378 4523.529 Q 6217.802 4523.768 6217.383 4524.502 Q 6216.963 4525.237 6216.920 4526.432 Q 6216.877 4527.626 6217.154 4528.562 Q 6217.430 4529.499 6218.396 4530.747 Q 6219.360 4531.995 6221.431 4532.470 Q 6223.502 4532.945 6223.660 4532.989 "></path>
    <path id="STROKE_3ff2bc37-a2a4-4765-8c47-4d941bb9a896" opacity="1.000" fill="none" stroke="#ff9adf" stroke-width="3.043" stroke-opacity="1.000" stroke-linecap="round" stroke-linejoin="round" d="M 5655.098 4532.018 Q 5656.444 4531.757 5671.327 4528.882 Q 5686.209 4526.006 5696.833 4523.953 Q 5707.456 4521.900 5712.309 4520.962 Q 5717.162 4520.024 5721.981 4519.093 Q 5726.801 4518.162 5731.167 4517.318 Q 5735.533 4516.475 5737.814 4516.034 Q 5740.095 4515.593 5759.251 4511.891 Q 5778.408 4508.189 5789.734 4506.000 Q 5801.061 4503.812 5806.409 4502.778 Q 5811.757 4501.745 5814.309 4501.252 Q 5816.859 4500.759 5824.046 4499.370 Q 5831.232 4497.981 5840.645 4496.163 Q 5850.058 4494.344 5874.308 4489.658 Q 5898.558 4484.972 5910.949 4482.577 Q 5923.340 4480.183 5928.823 4479.123 Q 5934.306 4478.063 5938.474 4477.258 Q 5942.642 4476.453 5949.133 4475.198 Q 5955.624 4473.944 5966.421 4471.857 Q 5977.219 4469.771 5983.422 4468.572 Q 5989.625 4467.374 5994.668 4466.399 Q 5994.623 4466.408 5994.514 4466.429 L 5994.706 4466.392 "></path>
    <path id="STROKE_129ffa87-8a81-48eb-93f9-bb01cba56dd8" opacity="1.000" fill="none" stroke="#ff9adf" stroke-width="2.834" stroke-opacity="1.000" stroke-linecap="round" stroke-linejoin="round" d="M 5656.461 4529.596 Q 5656.531 4529.396 5658.795 4522.875 Q 5661.059 4516.354 5662.384 4512.540 Q 5663.708 4508.725 5664.482 4506.498 Q 5665.256 4504.270 5667.068 4499.052 Q 5668.880 4493.833 5672.976 4482.037 "></path>
    <path id="STROKE_6f78a915-fd8b-4ec0-a471-ba5f0d43dfe0" opacity="1.000" fill="none" stroke="#ff9adf" stroke-width="2.719" stroke-opacity="1.000" stroke-linecap="round" stroke-linejoin="round" d="M 5656.228 4530.267 Q 5656.153 4530.524 5655.740 4531.942 Q 5655.704 4531.733 5658.728 4522.083 Q 5661.751 4512.434 5664.285 4505.886 Q 5666.818 4499.339 5667.880 4496.207 Q 5668.942 4493.074 5672.808 4484.721 Q 5676.674 4476.368 5678.807 4471.913 Q 5680.940 4467.458 5684.353 4461.279 Q 5687.765 4455.101 5689.578 4452.033 Q 5691.391 4448.965 5693.680 4445.448 Q 5695.969 4441.931 5697.656 4439.303 Q 5699.343 4436.676 5703.780 4430.604 Q 5708.217 4424.531 5712.791 4419.046 Q 5717.364 4413.561 5721.965 4408.707 Q 5726.565 4403.854 5730.373 4400.358 Q 5734.181 4396.862 5736.925 4394.412 Q 5739.669 4391.961 5744.303 4388.458 Q 5748.936 4384.954 5751.683 4383.120 Q 5754.430 4381.286 5756.071 4380.153 Q 5757.712 4379.020 5762.727 4376.114 Q 5767.740 4373.209 5771.314 4371.533 Q 5774.889 4369.857 5776.446 4369.110 Q 5778.004 4368.364 5782.484 4366.508 Q 5786.965 4364.652 5791.869 4363.193 Q 5796.773 4361.733 5799.178 4361.148 Q 5801.583 4360.562 5802.491 4360.311 Q 5803.399 4360.058 5808.096 4359.133 Q 5812.792 4358.208 5816.855 4357.794 Q 5820.918 4357.381 5823.156 4357.250 Q 5825.394 4357.118 5827.898 4356.936 Q 5830.403 4356.754 5836.309 4356.936 Q 5842.215 4357.117 5846.074 4357.523 Q 5849.934 4357.930 5854.149 4358.539 Q 5858.365 4359.147 5863.997 4360.402 Q 5869.629 4361.657 5875.067 4363.363 Q 5880.505 4365.068 5883.559 4366.242 Q 5886.613 4367.416 5888.493 4368.152 Q 5890.373 4368.888 5893.936 4370.501 Q 5897.499 4372.115 5900.136 4373.391 Q 5902.774 4374.667 5905.833 4376.364 Q 5908.891 4378.062 5910.697 4379.102 Q 5912.502 4380.141 5914.449 4381.366 Q 5916.395 4382.591 5918.202 4383.699 Q 5920.008 4384.807 5925.042 4388.285 Q 5930.077 4391.763 5935.397 4395.953 Q 5940.718 4400.144 5945.144 4404.104 Q 5949.569 4408.065 5952.021 4410.417 Q 5954.473 4412.768 5955.739 4414.018 Q 5957.006 4415.268 5958.925 4417.227 Q 5960.844 4419.185 5963.444 4421.955 Q 5966.043 4424.726 5968.792 4427.856 Q 5971.540 4430.987 5973.143 4432.888 Q 5974.745 4434.789 5976.181 4436.563 Q 5977.617 4438.338 5978.606 4439.580 Q 5979.595 4440.823 5980.613 4442.131 Q 5981.631 4443.439 5982.796 4444.962 Q 5983.960 4446.485 5985.585 4448.683 Q 5987.209 4450.881 5988.434 4452.594 Q 5989.658 4454.306 5990.396 4455.359 Q 5991.133 4456.412 5991.542 4457.004 Q 5991.952 4457.596 5992.184 4457.933 Q 5992.415 4458.270 5992.418 4458.274 Q 5992.421 4458.279 5992.391 4458.235 Q 5992.361 4458.191 5992.535 4458.443 Q 5992.708 4458.696 5993.040 4459.183 Q 5993.371 4459.669 5993.654 4460.087 Q 5993.938 4460.506 5993.978 4460.565 Q 5994.018 4460.625 5994.068 4460.700 Q 5994.118 4460.775 5994.116 4460.771 Q 5994.114 4460.767 5994.589 4461.474 Q 5995.064 4462.180 5996.297 4464.046 Q 5996.097 4463.742 5995.212 4462.407 "></path>
    <path id="STROKE_d419064a-0f5a-4ed5-ab35-f26f1fca67d7" opacity="1.000" fill="none" stroke="#6ac0c8" stroke-width="2.868" stroke-opacity="1.000" stroke-linecap="round" stroke-linejoin="round" d="M 5655.840 4530.532 Q 5655.872 4530.432 5658.186 4523.253 Q 5660.500 4516.075 5661.779 4512.104 Q 5663.060 4508.133 5665.784 4499.681 Q 5668.508 4491.229 5670.352 4485.510 Q 5672.194 4479.792 5682.162 4448.869 Q 5692.129 4417.946 5697.108 4402.499 Q 5702.087 4387.052 5704.061 4380.932 Q 5706.033 4374.812 5706.769 4372.531 Q 5707.504 4370.250 5707.764 4369.444 Q 5708.023 4368.638 5708.618 4366.791 Q 5709.214 4364.944 5709.941 4362.688 Q 5710.668 4360.432 5711.453 4357.997 Q 5711.443 4358.027 5711.427 4358.076 L 5711.457 4357.985 "></path>
    <path id="STROKE_e60942eb-bf5a-4e0e-b57e-5722b5b6a28d" opacity="1.000" fill="none" stroke="#6ac0c8" stroke-width="3.216" stroke-opacity="1.000" stroke-linecap="round" stroke-linejoin="round" d="M 5654.837 4532.965 Q 5654.822 4532.967 5654.774 4532.977 Q 5654.896 4532.953 5671.629 4529.722 Q 5688.362 4526.491 5697.266 4524.772 Q 5706.169 4523.053 5710.109 4522.292 Q 5714.050 4521.531 5715.963 4521.161 Q 5717.876 4520.792 5724.284 4519.555 Q 5730.691 4518.317 5737.011 4517.097 Q 5743.331 4515.877 5755.561 4513.515 Q 5767.791 4511.153 5774.615 4509.836 Q 5781.440 4508.519 5788.474 4507.160 Q 5795.508 4505.802 5798.823 4505.162 Q 5802.139 4504.521 5803.544 4504.250 Q 5804.950 4503.979 5806.287 4503.721 Q 5807.623 4503.463 5809.096 4503.178 Q 5810.569 4502.894 5812.060 4502.606 Q 5813.550 4502.318 5814.764 4502.084 Q 5815.977 4501.850 5816.672 4501.715 Q 5817.368 4501.581 5823.229 4500.449 Q 5823.177 4500.459 5823.116 4500.471 Q 5823.548 4500.388 5823.496 4500.397 Q 5823.444 4500.408 5823.727 4500.353 Q 5824.010 4500.298 5823.914 4500.316 Q 5823.818 4500.335 5824.189 4500.263 Q 5824.561 4500.191 5824.802 4500.145 Q 5825.043 4500.099 5825.080 4500.092 Q 5825.116 4500.085 5825.292 4500.051 Q 5825.469 4500.017 5825.604 4499.990 Q 5825.578 4499.995 5825.552 4500.000 L 5825.642 4499.983 "></path>
    <path id="STROKE_3fb2328e-8933-4007-b961-f4d032c3b852" opacity="1.000" fill="none" stroke="#f66640" stroke-width="3.230" stroke-opacity="1.000" stroke-linecap="round" stroke-linejoin="round" d="M 5850.232 4356.904 Q 5850.235 4357.249 5850.305 4364.956 Q 5850.375 4372.664 5850.491 4385.476 Q 5850.607 4398.289 5850.664 4404.523 Q 5850.720 4410.758 5850.743 4413.334 Q 5850.767 4415.910 5850.778 4417.218 Q 5850.791 4418.526 5850.820 4421.758 Q 5850.849 4424.990 5850.882 4428.573 Q 5850.914 4432.157 5851.008 4442.537 Q 5851.103 4452.917 5851.156 4458.837 Q 5851.209 4464.758 5851.234 4467.528 Q 5851.260 4470.299 5851.272 4471.719 Q 5851.285 4473.140 5851.288 4473.442 Q 5851.291 4473.745 5851.321 4477.119 Q 5851.352 4480.492 5851.370 4482.458 Q 5851.388 4484.423 5851.414 4487.309 Q 5851.440 4490.194 5851.466 4493.013 Q 5851.466 4493.016 5851.466 4493.038 Q 5851.466 4493.060 5851.465 4493.005 Q 5851.465 4492.950 5851.456 4491.934 "></path>
    <path id="STROKE_a262f01c-cb6a-405e-8a09-25e7271ca3b1" opacity="1.000" fill="none" stroke="#f66640" stroke-width="3.193" stroke-opacity="1.000" stroke-linecap="round" stroke-linejoin="round" d="M 5851.930 4492.129 Q 5851.562 4491.948 5851.238 4491.787 L 5851.260 4491.798 L 5851.216 4491.776 Q 5851.769 4492.050 5856.856 4494.562 Q 5861.943 4497.074 5872.593 4502.334 Q 5883.242 4507.594 5890.016 4510.939 Q 5896.790 4514.285 5899.959 4515.850 Q 5903.128 4517.415 5905.840 4518.754 Q 5908.551 4520.094 5909.861 4520.741 Q 5911.171 4521.388 5913.843 4522.708 Q 5916.515 4524.027 5918.466 4524.991 Q 5920.417 4525.954 5921.490 4526.484 Q 5922.563 4527.015 5923.554 4527.504 Q 5924.544 4527.993 5925.424 4528.427 Q 5926.303 4528.861 5926.606 4529.011 Q 5926.910 4529.161 5926.891 4529.152 Q 5926.872 4529.143 5927.037 4529.224 Q 5927.202 4529.305 5927.583 4529.493 Q 5927.964 4529.682 5928.344 4529.869 Q 5928.724 4530.057 5928.869 4530.128 Q 5929.015 4530.200 5929.151 4530.268 Q 5929.287 4530.335 5929.229 4530.307 Q 5929.172 4530.278 5929.646 4530.512 Q 5930.119 4530.746 5930.767 4531.066 Q 5931.415 4531.386 5932.130 4531.739 Q 5932.846 4532.093 5933.689 4532.510 Q 5934.533 4532.926 5938.455 4534.863 Q 5938.789 4535.028 5929.819 4530.598 "></path>
    <path id="STROKE_1f16dc90-da1a-4038-8d93-e18f3cbc0039" opacity="1.000" fill="none" stroke="#f66640" stroke-width="3.081" stroke-opacity="1.000" stroke-linecap="round" stroke-linejoin="round" d="M 5851.536 4491.344 Q 5852.160 4491.343 5840.000 4491.366 Q 5827.839 4491.389 5821.291 4491.401 Q 5814.743 4491.414 5806.801 4491.429 Q 5798.859 4491.443 5794.166 4491.452 Q 5789.472 4491.461 5722.884 4491.587 Q 5722.938 4491.587 5723.046 4491.587 Q 5722.348 4491.588 5695.137 4491.640 Q 5695.191 4491.639 5695.245 4491.639 Q 5695.187 4491.640 5693.888 4491.642 Q 5692.589 4491.645 5691.650 4491.646 Q 5690.712 4491.647 5690.156 4491.648 Q 5689.601 4491.650 5689.213 4491.650 Q 5688.826 4491.651 5689.146 4491.650 Q 5689.466 4491.650 5688.249 4491.652 Q 5687.032 4491.655 5686.332 4491.656 Q 5685.633 4491.657 5682.271 4491.664 Q 5678.911 4491.670 5675.738 4491.676 Q 5672.566 4491.682 5666.707 4491.693 Q 5667.721 4491.691 5653.351 4491.718 Q 5638.980 4491.745 5620.415 4491.780 Q 5619.977 4491.781 5623.679 4491.774 "></path>
    <path id="STROKE_44843dca-6782-4707-a143-17ff6943faae" opacity="1.000" fill="none" stroke="#f66640" stroke-width="2.920" stroke-opacity="1.000" stroke-linecap="round" stroke-linejoin="round" d="M 5850.793 4358.216 Q 5850.899 4358.246 5841.844 4355.655 Q 5832.788 4353.064 5827.480 4351.546 Q 5822.173 4350.027 5819.358 4349.222 Q 5816.543 4348.417 5813.606 4347.576 Q 5810.670 4346.736 5796.702 4342.740 Q 5782.734 4338.743 5769.781 4335.037 Q 5756.828 4331.332 5749.559 4329.252 Q 5742.290 4327.172 5738.549 4326.102 Q 5734.808 4325.031 5732.608 4324.402 Q 5730.409 4323.773 5716.451 4319.779 Q 5702.493 4315.786 5694.617 4313.533 Q 5686.740 4311.279 5683.063 4310.227 Q 5679.386 4309.175 5677.393 4308.604 Q 5675.399 4308.034 5671.293 4306.859 Q 5667.188 4305.685 5664.604 4304.945 Q 5662.021 4304.206 5659.791 4303.568 Q 5657.560 4302.930 5656.365 4302.588 Q 5655.171 4302.247 5648.772 4300.416 Q 5648.839 4300.435 5649.212 4300.542 "></path>
    <path id="STROKE_5074b996-68c1-467f-940e-48111fb0eae2" opacity="1.000" fill="none" stroke="#f66640" stroke-width="3.230" stroke-opacity="1.000" stroke-linecap="round" stroke-linejoin="round" d="M 5589.626 4282.046 Q 5589.615 4282.040 5586.947 4282.077 Q 5586.979 4282.033 5586.780 4283.420 Q 5586.582 4284.808 5586.718 4286.587 Q 5586.854 4288.366 5587.657 4289.904 Q 5588.459 4291.443 5589.369 4292.540 Q 5590.279 4293.637 5591.261 4293.808 Q 5592.242 4293.978 5593.577 4293.839 Q 5594.913 4293.700 5596.261 4289.381 Q 5597.609 4285.061 5597.868 4279.668 Q 5597.870 4281.122 5597.869 4280.791 Q 5597.969 4281.611 5598.601 4287.552 Q 5599.231 4293.493 5599.204 4296.756 Q 5599.177 4300.019 5598.996 4301.962 Q 5598.815 4303.906 5598.356 4305.069 Q 5597.897 4306.232 5597.933 4306.192 Q 5597.968 4306.153 5597.598 4306.694 Q 5597.228 4307.234 5596.769 4307.641 Q 5596.310 4308.046 5594.668 4308.057 Q 5593.027 4308.068 5592.109 4307.265 Q 5591.191 4306.462 5590.808 4305.697 Q 5590.423 4304.932 5590.207 4304.153 Q 5589.990 4303.374 5589.818 4302.887 "></path>
    <path id="STROKE_a0e24bab-41fb-4811-b2dd-d303b0309efa" opacity="1.000" fill="none" stroke="#f66640" stroke-width="3.230" stroke-opacity="1.000" stroke-linecap="round" stroke-linejoin="round" d="M 5603.979 4301.894 Q 5603.979 4301.894 5603.850 4301.921 Q 5603.721 4301.948 5604.414 4310.075 Q 5604.466 4310.271 5604.525 4310.188 Q 5604.585 4310.105 5604.833 4309.976 Q 5605.080 4309.846 5605.986 4307.348 Q 5606.892 4304.850 5607.283 4303.306 Q 5607.673 4301.763 5609.504 4299.073 Q 5609.907 4299.204 5609.809 4310.148 Q 5610.012 4310.168 5610.443 4309.284 Q 5610.875 4308.401 5611.406 4307.161 Q 5611.938 4305.921 5612.635 4304.345 Q 5613.333 4302.769 5613.780 4301.742 Q 5614.227 4300.715 5615.352 4300.498 Q 5615.844 4301.272 5616.157 4308.449 Q 5616.220 4308.477 5616.364 4308.432 Q 5616.508 4308.388 5616.652 4308.300 "></path>
    <path id="STROKE_3bd965dd-6265-4fff-b50a-352ac8188619" opacity="1.000" fill="none" stroke="#f66640" stroke-width="3.230" stroke-opacity="1.000" stroke-linecap="round" stroke-linejoin="round" d="M 5620.775 4301.979 Q 5619.742 4301.979 5619.991 4301.979 Q 5618.927 4301.662 5618.856 4304.168 Q 5618.785 4306.673 5620.064 4309.479 Q 5621.497 4309.996 5623.411 4307.015 Q 5625.326 4304.034 5626.175 4299.333 Q 5625.709 4299.537 5625.466 4299.912 Q 5625.223 4300.287 5625.258 4300.393 Q 5625.292 4300.499 5625.037 4300.855 Q 5624.782 4301.212 5624.549 4303.305 Q 5624.315 4305.397 5624.285 4306.477 Q 5624.255 4307.556 5624.783 4307.884 Q 5625.311 4308.212 5625.979 4308.232 Q 5626.647 4308.252 5627.152 4308.042 Q 5627.657 4307.831 5628.000 4307.540 "></path>
    <path id="STROKE_2d04baeb-d46b-4553-a3db-2527b73e8c7e" opacity="1.000" fill="none" stroke="#f66640" stroke-width="3.230" stroke-opacity="1.000" stroke-linecap="round" stroke-linejoin="round" d="M 5630.100 4300.126 Q 5629.945 4301.010 5629.920 4301.205 Q 5629.896 4301.399 5629.939 4301.336 Q 5630.128 4302.406 5630.221 4302.289 Q 5630.772 4303.134 5632.968 4306.164 Q 5635.164 4309.193 5635.273 4309.193 "></path>
    <path id="STROKE_4ad99823-4a35-48a3-8968-6cd3a18d87ba" opacity="1.000" fill="none" stroke="#f66640" stroke-width="3.230" stroke-opacity="1.000" stroke-linecap="round" stroke-linejoin="round" d="M 5635.602 4299.550 Q 5634.996 4300.488 5634.138 4302.006 Q 5633.280 4303.524 5629.323 4311.853 Q 5629.392 4311.547 5629.601 4311.253 Q 5629.809 4310.959 5630.061 4310.580 "></path>
    <path id="STROKE_e9d9a7cd-e19f-4c49-9c57-faabe962b4af" opacity="1.000" fill="none" stroke="#f66640" stroke-width="3.172" stroke-opacity="1.000" stroke-linecap="round" stroke-linejoin="round" d="M 5872.738 4501.534 Q 5872.830 4501.581 5871.008 4500.635 Q 5870.662 4500.456 5877.580 4504.047 Q 5884.499 4507.639 5891.376 4511.209 Q 5898.254 4514.780 5902.540 4517.005 Q 5906.826 4519.230 5911.564 4521.690 Q 5916.303 4524.150 5918.812 4525.453 Q 5921.322 4526.756 5928.565 4530.516 Q 5935.809 4534.276 5944.169 4538.617 Q 5952.530 4542.957 5956.818 4545.184 Q 5961.107 4547.410 5964.216 4549.024 Q 5967.324 4550.638 5968.981 4551.498 Q 5970.639 4552.358 5976.077 4555.182 Q 5981.515 4558.005 5984.268 4559.435 Q 5987.021 4560.864 5988.761 4561.768 Q 5990.501 4562.671 5993.314 4564.131 Q 5996.128 4565.591 5999.209 4567.191 Q 6002.291 4568.791 6009.021 4572.285 "></path>
    <path id="STROKE_78bacea3-7d3b-4cdf-8c9d-5bee7c841867" opacity="1.000" fill="none" stroke="#f66640" stroke-width="3.230" stroke-opacity="1.000" stroke-linecap="round" stroke-linejoin="round" d="M 6022.911 4553.222 Q 6022.890 4553.222 6022.788 4553.273 Q 6022.243 4553.596 6024.758 4569.051 Q 6024.816 4568.566 6024.622 4567.532 Q 6024.428 4566.498 6024.319 4566.365 "></path>
    <path id="STROKE_d2cf5672-5eb1-4c03-b0c6-f78a39d65145" opacity="1.000" fill="none" stroke="#f66640" stroke-width="3.230" stroke-opacity="1.000" stroke-linecap="round" stroke-linejoin="round" d="M 6015.207 4578.043 Q 6014.871 4577.827 6015.622 4577.060 Q 6016.374 4576.292 6017.334 4576.146 Q 6018.294 4576.000 6019.062 4575.739 Q 6019.831 4575.479 6023.281 4575.912 Q 6026.732 4576.346 6029.297 4576.985 Q 6031.862 4577.625 6034.717 4577.545 Q 6034.738 4577.646 6034.438 4577.517 Q 6034.138 4577.388 6033.981 4577.281 "></path>
    <path id="STROKE_094effa0-3fd5-4526-8489-27e411a53d27" opacity="1.000" fill="none" stroke="#f66640" stroke-width="3.230" stroke-opacity="1.000" stroke-linecap="round" stroke-linejoin="round" d="M 6018.898 4587.322 Q 6018.839 4587.265 6019.658 4586.582 Q 6020.478 4585.898 6021.440 4585.708 Q 6022.403 4585.518 6023.250 4585.563 Q 6024.097 4585.608 6024.960 4586.218 Q 6025.823 4586.827 6026.452 4587.896 Q 6027.082 4588.966 6027.770 4590.517 Q 6028.458 4592.067 6028.538 4594.418 Q 6028.619 4596.768 6028.627 4598.084 Q 6028.635 4599.399 6028.194 4600.498 Q 6027.754 4601.596 6026.785 4602.269 Q 6025.815 4602.940 6024.179 4602.457 Q 6022.542 4601.973 6021.599 4601.172 Q 6020.655 4600.372 6020.270 4599.581 Q 6019.884 4598.790 6019.750 4598.058 Q 6019.616 4597.325 6020.046 4596.637 Q 6020.477 4595.949 6020.780 4595.719 Q 6021.083 4595.488 6021.355 4595.112 Q 6021.626 4594.736 6022.557 4594.201 Q 6023.486 4593.667 6024.218 4593.287 Q 6024.950 4592.908 6026.475 4593.116 Q 6028.000 4593.323 6029.101 4594.029 Q 6030.203 4594.735 6031.261 4595.179 Q 6032.319 4595.623 6032.927 4595.160 Q 6033.535 4594.696 6033.705 4594.461 "></path>
    <path id="STROKE_7be4d9ce-b81b-4be3-a3a0-8c5dcd3a15a3" opacity="1.000" fill="none" stroke="#f66640" stroke-width="3.136" stroke-opacity="1.000" stroke-linecap="round" stroke-linejoin="round" d="M 6042.045 4585.604 Q 6042.302 4585.608 6042.785 4584.801 Q 6043.269 4583.994 6045.663 4580.166 Q 6048.057 4576.338 6051.287 4569.279 Q 6051.094 4568.736 6052.131 4570.916 Q 6053.169 4573.096 6053.789 4578.593 Q 6054.409 4584.090 6055.929 4590.089 Q 6055.970 4590.089 6055.990 4590.089 Q 6056.116 4589.416 6054.387 4588.411 Q 6052.658 4587.406 6048.480 4587.433 Q 6044.302 4587.460 6040.255 4587.185 Q 6039.817 4586.436 6041.875 4586.189 Q 6043.933 4585.943 6044.211 4585.815 "></path>
    <path id="STROKE_14cae34a-a160-47cb-b93b-fd913e06ed73" opacity="1.000" fill="none" stroke="#f66640" stroke-width="3.230" stroke-opacity="1.000" stroke-linecap="round" stroke-linejoin="round" d="M 6068.310 4572.289 Q 6068.310 4572.289 6068.320 4572.101 Q 6068.330 4571.912 6068.254 4571.880 Q 6067.641 4571.663 6067.725 4571.732 Q 6067.810 4571.802 6067.810 4571.745 Q 6067.810 4571.688 6067.652 4571.954 Q 6067.494 4572.219 6067.369 4572.397 Q 6067.245 4572.577 6067.214 4572.630 Q 6067.184 4572.684 6067.261 4572.539 Q 6067.338 4572.395 6066.826 4573.333 Q 6066.853 4573.333 6066.962 4573.374 Q 6066.963 4573.958 6066.922 4573.920 Q 6066.670 4573.798 6060.984 4585.230 Q 6060.936 4585.230 6060.875 4585.230 Q 6060.824 4584.772 6060.947 4584.317 Q 6061.071 4583.861 6061.227 4583.534 "></path>
    <path id="STROKE_ad137b97-c6e8-4801-bf30-6eba6f1e4057" opacity="1.000" fill="none" stroke="#f66640" stroke-width="3.093" stroke-opacity="1.000" stroke-linecap="round" stroke-linejoin="round" d="M 6059.043 4571.353 Q 6058.678 4571.353 6058.689 4571.353 Q 6058.627 4571.353 6058.607 4571.302 Q 6059.348 4571.287 6061.075 4573.193 Q 6062.802 4575.099 6070.700 4586.207 Q 6070.621 4586.179 6070.374 4586.086 Q 6070.126 4585.994 6070.028 4585.896 Q 6069.929 4585.800 6069.800 4585.646 "></path>
    <path id="STROKE_c1788f0d-98db-42a1-a376-6cd5e0e3adea" opacity="1.000" fill="none" stroke="#6ac0c8" stroke-width="3.230" stroke-opacity="1.000" stroke-linecap="round" stroke-linejoin="round" d="M 5666.920 4501.656 Q 5665.794 4501.286 5666.134 4501.355 Q 5665.456 4500.271 5665.711 4500.624 Q 5665.723 4499.626 5665.739 4499.984 Q 5665.687 4499.739 5668.026 4499.622 Q 5670.365 4499.505 5672.317 4499.667 Q 5674.270 4499.828 5675.463 4500.527 Q 5676.656 4501.226 5678.401 4503.418 Q 5680.146 4505.610 5680.617 4506.668 Q 5681.087 4507.726 5681.631 4508.420 Q 5682.175 4509.115 5683.566 4511.085 Q 5684.958 4513.055 5685.438 4514.249 Q 5685.919 4515.442 5686.002 4515.591 Q 5686.084 4515.739 5686.583 4517.025 Q 5687.083 4518.312 5687.263 4518.903 Q 5687.444 4519.494 5687.518 4519.664 Q 5687.592 4519.833 5687.776 4520.361 Q 5687.960 4520.889 5687.952 4520.879 Q 5687.943 4520.869 5687.948 4520.891 Q 5687.953 4520.912 5687.960 4520.957 Q 5687.966 4521.002 5687.970 4521.000 Q 5687.974 4520.997 5688.095 4521.362 Q 5688.216 4521.727 5688.259 4522.428 Q 5688.069 4522.428 5688.086 4522.428 Q 5688.048 4522.428 5688.010 4522.428 Q 5688.010 4522.370 5687.952 4522.220 Q 5687.895 4522.069 5687.779 4521.825 "></path>
    <path id="STROKE_ac9031f8-7c01-4135-9a39-c7f6f03940d5" opacity="1.000" fill="none" stroke="#6ac0c8" stroke-width="3.230" stroke-opacity="1.000" stroke-linecap="round" stroke-linejoin="round" d="M 5704.896 4483.301 Q 5704.822 4483.438 5704.735 4483.301 Q 5704.649 4483.165 5704.748 4483.297 Q 5704.847 4483.430 5704.232 4482.619 Q 5703.618 4481.809 5703.667 4481.845 Q 5703.634 4481.598 5702.851 4481.176 Q 5702.067 4480.754 5700.760 4481.124 Q 5699.453 4481.494 5698.725 4482.972 Q 5697.997 4484.450 5697.200 4486.181 Q 5696.404 4487.911 5696.020 4490.692 Q 5695.636 4493.473 5695.612 4495.579 Q 5695.589 4497.685 5695.765 4499.033 Q 5695.940 4500.382 5696.790 4501.516 Q 5697.639 4502.649 5699.417 4502.818 Q 5701.194 4502.987 5703.366 4502.454 Q 5705.538 4501.921 5707.890 4499.698 Q 5710.242 4497.475 5711.417 4495.607 Q 5712.592 4493.740 5713.007 4491.966 Q 5713.422 4490.192 5713.326 4489.150 Q 5713.231 4488.107 5712.382 4486.865 Q 5711.533 4485.623 5710.799 4485.187 Q 5710.065 4484.750 5709.658 4484.452 Q 5709.251 4484.154 5706.971 4483.362 Q 5704.691 4482.570 5703.159 4482.397 Q 5701.626 4482.225 5700.748 4482.245 Q 5699.869 4482.265 5699.498 4482.704 Q 5699.127 4483.143 5699.127 4483.508 Q 5699.126 4483.874 5699.391 4484.173 Q 5699.655 4484.472 5699.838 4484.659 "></path>
    <path id="STROKE_80ffe171-7a59-46a3-933a-0cc8e2428e49" opacity="1.000" fill="none" stroke="#6ac0c8" stroke-width="3.230" stroke-opacity="1.000" stroke-linecap="round" stroke-linejoin="round" d="M 5688.888 4492.848 Q 5689.269 4492.559 5687.605 4493.640 Q 5688.064 4493.415 5694.145 4492.698 Q 5700.225 4491.981 5704.304 4491.490 Q 5708.383 4491.000 5710.455 4490.203 Q 5712.527 4489.406 5713.864 4488.420 Q 5715.201 4487.434 5720.449 4485.118 Q 5720.600 4485.615 5720.611 4485.721 Q 5720.623 4485.826 5720.622 4485.750 Q 5720.732 4485.919 5721.937 4486.883 Q 5721.879 4486.883 5721.726 4486.836 Q 5721.573 4486.790 5721.381 4486.697 "></path>
    <path id="STROKE_3bafc7aa-6fcd-457b-93ff-3e0ab7a10333" opacity="1.000" fill="none" stroke="#6ac0c8" stroke-width="3.230" stroke-opacity="1.000" stroke-linecap="round" stroke-linejoin="round" d="M 5702.228 4355.537 Q 5702.484 4355.560 5705.169 4353.134 Q 5707.854 4350.709 5709.556 4349.565 Q 5711.259 4348.421 5712.334 4347.965 Q 5713.409 4347.509 5714.217 4347.657 Q 5715.025 4347.806 5715.479 4348.336 Q 5715.932 4348.866 5716.145 4349.494 Q 5716.358 4350.121 5716.535 4350.330 Q 5716.712 4350.539 5716.855 4354.037 Q 5716.999 4357.534 5716.933 4366.287 Q 5716.923 4365.846 5716.939 4365.638 Q 5716.957 4365.431 5716.981 4365.158 "></path>
    <path id="STROKE_3c4b00ad-c063-4c72-914e-04c4c93a8aed" opacity="1.000" fill="none" stroke="#6ac0c8" stroke-width="3.230" stroke-opacity="1.000" stroke-linecap="round" stroke-linejoin="round" d="M 5722.184 4350.912 Q 5722.181 4350.737 5721.672 4349.286 Q 5722.204 4350.498 5722.255 4350.239 Q 5722.306 4349.980 5723.737 4354.077 Q 5725.169 4358.175 5725.950 4360.989 Q 5726.730 4363.803 5728.754 4366.019 Q 5728.923 4365.597 5728.949 4364.949 Q 5728.976 4364.301 5729.629 4361.058 Q 5730.283 4357.815 5732.534 4349.696 Q 5732.556 4349.696 5732.578 4349.696 Q 5732.577 4349.553 5732.738 4350.411 Q 5732.900 4351.269 5732.966 4351.498 "></path>
    <path id="STROKE_6334d218-6c4a-44e7-a8f1-12c0e6149468" opacity="1.000" fill="none" stroke="#6ac0c8" stroke-width="3.230" stroke-opacity="1.000" stroke-linecap="round" stroke-linejoin="round" d="M 5734.747 4363.837 Q 5734.745 4363.066 5734.746 4363.187 Q 5733.988 4363.261 5738.277 4356.875 Q 5739.235 4356.726 5739.436 4363.467 Q 5739.636 4370.208 5739.709 4370.415 "></path>
    <path id="STROKE_b1e5968a-db24-42c5-a3e7-953dd31f7e2a" opacity="1.000" fill="none" stroke="#6ac0c8" stroke-width="3.230" stroke-opacity="1.000" stroke-linecap="round" stroke-linejoin="round" d="M 5732.446 4375.384 Q 5732.606 4375.584 5733.719 4375.114 Q 5734.832 4374.644 5741.189 4372.627 Q 5747.547 4370.611 5747.940 4370.447 "></path>
    <path id="STROKE_86406589-50ef-4d97-99f2-55d1cabff83a" opacity="1.000" fill="none" stroke="#71c047" stroke-width="3.126" stroke-opacity="1.000" stroke-linecap="round" stroke-linejoin="round" d="M 5993.993 4465.686 Q 5993.990 4465.685 5993.348 4465.451 Q 5993.529 4465.517 6004.346 4469.444 Q 6015.163 4473.372 6033.055 4479.869 Q 6050.947 4486.366 6063.865 4491.057 Q 6076.783 4495.747 6083.408 4498.153 Q 6090.033 4500.559 6092.896 4501.598 Q 6095.759 4502.638 6098.507 4503.635 Q 6101.254 4504.633 6108.929 4507.420 Q 6116.604 4510.207 6120.676 4511.686 Q 6124.748 4513.164 6129.414 4514.858 Q 6134.081 4516.553 6136.653 4517.487 Q 6139.226 4518.421 6149.472 4522.141 Q 6159.717 4525.861 6167.770 4528.785 Q 6175.822 4531.709 6179.670 4533.106 Q 6183.519 4534.504 6186.986 4535.763 Q 6190.455 4537.022 6193.879 4538.266 Q 6197.303 4539.509 6200.277 4540.589 Q 6203.250 4541.669 6206.881 4542.987 Q 6210.512 4544.306 6212.781 4545.130 Q 6215.050 4545.954 6216.563 4546.503 Q 6218.078 4547.053 6219.437 4547.546 Q 6220.795 4548.040 6228.756 4550.931 Q 6236.718 4553.821 6241.423 4555.530 Q 6246.127 4557.238 6248.591 4558.132 Q 6251.054 4559.026 6252.012 4559.374 Q 6252.969 4559.722 6253.644 4559.967 Q 6254.319 4560.212 6254.329 4560.216 Q 6254.339 4560.220 6255.016 4560.465 Q 6255.691 4560.711 6255.413 4560.610 Q 6255.134 4560.509 6256.142 4560.875 Q 6257.150 4561.240 6259.615 4562.135 Q 6259.488 4562.089 6253.596 4559.950 "></path>
    <path id="STROKE_f2498264-4344-4cbc-b36a-a19c17be9809" opacity="1.000" fill="none" stroke="#71c047" stroke-width="2.756" stroke-opacity="1.000" stroke-linecap="round" stroke-linejoin="round" d="M 5987.944 4467.136 Q 5987.771 4467.133 5979.855 4467.018 Q 5971.939 4466.901 5916.201 4466.087 Q 5860.462 4465.273 5831.757 4464.854 Q 5803.051 4464.435 5790.858 4464.256 Q 5778.667 4464.078 5772.775 4463.992 Q 5766.884 4463.906 5763.667 4463.858 Q 5760.451 4463.812 5755.036 4463.732 Q 5749.621 4463.654 5735.072 4463.441 Q 5720.523 4463.229 5705.187 4463.004 Q 5689.850 4462.780 5682.602 4462.674 Q 5675.354 4462.568 5668.923 4462.475 Q 5662.492 4462.381 5639.654 4462.047 Q 5616.816 4461.713 5613.951 4461.671 "></path>
    <path id="STROKE_3f79a0e7-6f4f-40d5-ad63-6b248fe4b783" opacity="1.000" fill="none" stroke="#71c047" stroke-width="3.230" stroke-opacity="1.000" stroke-linecap="round" stroke-linejoin="round" d="M 6261.218 4570.127 Q 6261.193 4570.127 6260.857 4570.127 Q 6260.915 4569.897 6261.274 4569.527 Q 6261.633 4569.156 6261.650 4569.114 Q 6261.668 4569.072 6261.722 4569.117 Q 6261.776 4569.162 6264.766 4565.945 Q 6267.755 4562.728 6269.531 4560.592 Q 6271.307 4558.456 6272.070 4557.384 Q 6272.833 4556.312 6273.269 4556.008 Q 6273.705 4555.704 6273.961 4555.664 Q 6274.217 4555.624 6274.162 4555.664 Q 6274.107 4555.703 6274.067 4555.630 Q 6274.028 4555.558 6274.395 4555.619 Q 6274.761 4555.680 6275.201 4558.847 Q 6275.641 4562.014 6275.801 4564.333 Q 6275.960 4566.652 6276.134 4569.075 Q 6276.308 4571.498 6276.044 4574.058 Q 6275.715 4574.162 6275.731 4574.164 Q 6275.748 4574.166 6275.739 4574.152 Q 6275.731 4574.139 6275.449 4573.911 Q 6275.167 4573.684 6275.026 4573.532 Q 6274.886 4573.381 6274.913 4573.371 Q 6274.940 4573.362 6274.115 4573.025 Q 6273.290 4572.689 6271.475 4572.782 Q 6269.660 4572.874 6267.839 4572.420 Q 6266.019 4571.966 6260.384 4572.356 Q 6260.596 4572.565 6261.866 4572.797 Q 6263.135 4573.029 6263.423 4573.103 "></path>
    <path id="STROKE_d93b88a6-b0eb-4753-b0b9-d0a587202faf" opacity="1.000" fill="none" stroke="#71c047" stroke-width="3.230" stroke-opacity="1.000" stroke-linecap="round" stroke-linejoin="round" d="M 6283.061 4560.014 Q 6283.542 4559.737 6283.384 4559.769 Q 6283.225 4559.800 6283.251 4559.790 Q 6283.278 4559.779 6283.951 4559.725 Q 6284.624 4559.669 6284.611 4559.751 Q 6284.599 4559.833 6285.165 4560.407 Q 6285.731 4560.981 6287.378 4563.389 Q 6289.024 4565.797 6291.053 4568.620 Q 6293.081 4571.442 6295.264 4573.686 Q 6295.309 4573.653 6295.326 4572.469 Q 6295.343 4571.285 6295.393 4571.076 "></path>
    <path id="STROKE_99c1a3ae-ffcc-439d-9dda-96a7858299d3" opacity="1.000" fill="none" stroke="#71c047" stroke-width="3.230" stroke-opacity="1.000" stroke-linecap="round" stroke-linejoin="round" d="M 6294.588 4560.096 Q 6294.741 4560.127 6292.938 4560.215 Q 6291.136 4560.303 6289.220 4563.586 Q 6287.305 4566.870 6286.064 4569.398 Q 6284.824 4571.926 6283.247 4575.438 Q 6283.353 4574.834 6283.987 4573.787 Q 6284.622 4572.740 6284.803 4572.346 "></path>
    <path id="STROKE_abfc31a2-f577-4502-9314-65d3c9a03f63" opacity="1.000" fill="none" stroke="#f3ba38" stroke-width="3.230" stroke-opacity="1.000" stroke-linecap="round" stroke-linejoin="round" d="M 5654.044 4461.935 Q 5653.785 4461.757 5653.392 4460.571 Q 5652.998 4459.385 5653.221 4458.034 Q 5653.733 4458.744 5653.582 4467.851 Q 5653.720 4467.792 5654.231 4458.132 Q 5654.561 4458.117 5653.587 4471.841 Q 5653.429 4471.627 5654.366 4459.823 Q 5654.602 4461.356 5653.822 4471.554 Q 5653.795 4471.226 5653.961 4469.654 Q 5654.127 4468.082 5654.245 4467.706 "></path>
    <path id="STROKE_67269a15-33dc-40cf-b830-0f5364ef2b99" opacity="1.000" fill="none" stroke="#f3ba38" stroke-width="3.221" stroke-opacity="1.000" stroke-linecap="round" stroke-linejoin="round" d="M 5838.689 4464.119 Q 5839.450 4463.874 5841.445 4462.280 Q 5841.177 4461.849 5838.398 4463.081 Q 5835.619 4464.312 5828.844 4468.444 Q 5828.905 4468.615 5832.376 4466.950 Q 5835.847 4465.285 5844.392 4460.894 L 5844.392 4460.872 Q 5844.281 4460.596 5841.139 4461.895 Q 5837.997 4463.193 5835.091 4464.535 Q 5832.185 4465.878 5829.979 4467.735 Q 5829.771 4468.271 5833.203 4466.503 Q 5836.634 4464.734 5843.036 4461.359 L 5843.036 4461.337 Q 5842.605 4460.701 5833.293 4465.132 L 5833.293 4465.154 Q 5834.339 4465.091 5834.259 4465.015 Q 5834.790 4464.824 5835.213 4464.540 Q 5835.637 4464.256 5835.917 4464.023 "></path>
    <path id="STROKE_29aa26fe-0803-4a32-afb2-9524ff18edf9" opacity="1.000" fill="none" stroke="#f3ba38" stroke-width="3.132" stroke-opacity="1.000" stroke-linecap="round" stroke-linejoin="round" d="M 5768.158 4490.132 Q 5767.744 4490.839 5768.953 4488.384 Q 5768.240 4489.083 5755.849 4493.896 Q 5756.174 4494.062 5760.461 4492.592 Q 5764.749 4491.121 5767.610 4490.200 Q 5770.472 4489.279 5775.795 4488.662 Q 5775.741 4488.797 5758.710 4494.181 Q 5758.473 4494.261 5773.733 4489.980 Q 5773.607 4490.015 5760.112 4494.322 Q 5760.381 4494.496 5766.225 4492.623 Q 5772.068 4490.750 5778.978 4486.568 Q 5778.679 4485.928 5770.739 4489.912 Q 5771.204 4490.278 5773.956 4489.271 Q 5776.709 4488.263 5776.916 4488.096 "></path>
    <path id="STROKE_69389628-6184-4931-a7d3-93a1944bdd75" opacity="1.000" fill="none" stroke="#f66640" stroke-width="2.890" stroke-opacity="1.000" stroke-linecap="round" stroke-linejoin="round" d="M 5628.340 4492.266 Q 5628.199 4492.265 5606.851 4492.100 Q 5585.503 4491.935 5572.735 4491.836 Q 5559.967 4491.738 5554.496 4491.695 Q 5549.025 4491.653 5547.042 4491.638 Q 5545.059 4491.622 5539.608 4491.580 Q 5534.158 4491.539 5531.453 4491.518 Q 5528.748 4491.497 5521.082 4491.438 Q 5513.417 4491.378 5509.317 4491.347 Q 5505.218 4491.315 5503.375 4491.301 Q 5501.532 4491.287 5499.617 4491.271 Q 5497.701 4491.257 5492.897 4491.220 Q 5493.655 4491.226 5493.567 4491.225 Q 5494.395 4491.231 5494.274 4491.230 Q 5494.894 4491.235 5496.637 4491.249 "></path>
    <path id="STROKE_b7b9e08d-bc05-4302-b617-2b1924da6fa1" opacity="1.000" fill="none" stroke="#f66640" stroke-width="2.890" stroke-opacity="1.000" stroke-linecap="round" stroke-linejoin="round" d="M 5442.657 4467.512 Q 5442.656 4466.890 5442.657 4467.072 L 5442.657 4467.054 Q 5442.653 4466.849 5442.644 4467.328 Q 5442.635 4467.807 5442.814 4470.592 Q 5442.993 4473.378 5443.065 4476.002 Q 5443.138 4478.626 5443.424 4481.074 Q 5443.497 4481.122 5443.570 4480.001 Q 5443.643 4478.880 5443.702 4478.669 "></path>
    <path id="STROKE_cf7739f7-2dfb-4aa2-85f1-8bbf01b5d1a7" opacity="1.000" fill="none" stroke="#f66640" stroke-width="2.890" stroke-opacity="1.000" stroke-linecap="round" stroke-linejoin="round" d="M 5434.356 4487.025 Q 5434.264 4486.311 5439.791 4486.163 Q 5445.317 4486.016 5451.083 4486.185 Q 5451.339 4486.941 5451.258 4486.755 Q 5451.290 4487.387 5451.277 4487.194 Q 5451.336 4487.347 5451.396 4487.458 "></path>
    <path id="STROKE_3591ff53-4ee1-49e6-be10-002884d4c334" opacity="1.000" fill="none" stroke="#f66640" stroke-width="2.890" stroke-opacity="1.000" stroke-linecap="round" stroke-linejoin="round" d="M 5439.692 4494.867 Q 5439.843 4494.924 5439.129 4494.526 Q 5439.206 4493.950 5439.278 4494.046 Q 5439.702 4493.782 5440.531 4493.378 Q 5441.360 4492.975 5442.309 4493.297 Q 5443.257 4493.620 5443.902 4494.540 Q 5444.548 4495.459 5445.238 4496.784 Q 5445.927 4498.108 5446.141 4499.513 Q 5446.354 4500.918 5446.404 4502.167 Q 5446.456 4503.415 5445.885 4504.471 Q 5445.314 4505.527 5444.812 4505.878 Q 5444.310 4506.229 5443.521 4506.512 Q 5442.731 4506.795 5441.709 4506.385 Q 5440.687 4505.976 5440.107 4505.322 Q 5439.527 4504.669 5439.067 4503.963 Q 5438.608 4503.258 5438.424 4502.482 Q 5438.239 4501.706 5438.552 4500.707 Q 5438.865 4499.708 5442.244 4499.586 Q 5445.624 4499.465 5447.756 4499.597 Q 5449.887 4499.729 5450.773 4499.471 Q 5451.659 4499.214 5451.903 4499.003 "></path>
    <path id="STROKE_f1ad10dc-5d31-4a3e-93ac-f4e40301cec3" opacity="1.000" fill="none" stroke="#f66640" stroke-width="2.889" stroke-opacity="1.000" stroke-linecap="round" stroke-linejoin="round" d="M 5456.263 4492.672 Q 5456.263 4492.672 5456.254 4492.672 Q 5456.245 4492.672 5456.191 4492.672 Q 5456.235 4492.131 5457.548 4490.350 Q 5458.861 4488.569 5459.811 4486.862 Q 5460.759 4485.156 5461.502 4483.668 Q 5462.244 4482.180 5462.998 4480.369 Q 5463.751 4478.558 5464.497 4476.819 Q 5465.003 4477.199 5464.977 4477.222 Q 5464.950 4477.244 5464.960 4477.245 Q 5464.970 4477.246 5464.996 4477.225 Q 5465.022 4477.203 5466.566 4493.456 Q 5466.394 4493.559 5465.488 4492.834 Q 5464.583 4492.110 5455.928 4492.673 Q 5456.409 4492.705 5456.772 4492.726 Q 5457.136 4492.748 5457.364 4492.788 "></path>
    <path id="STROKE_95a0aa4f-f805-4731-9c09-e0b6c44d63ac" opacity="1.000" fill="none" stroke="#f66640" stroke-width="2.890" stroke-opacity="1.000" stroke-linecap="round" stroke-linejoin="round" d="M 5474.527 4478.133 Q 5474.075 4477.985 5474.077 4477.945 Q 5473.467 4477.667 5473.599 4477.734 Q 5472.956 4477.521 5472.497 4480.988 Q 5472.037 4484.455 5471.823 4486.502 Q 5471.609 4488.549 5471.644 4489.659 Q 5471.677 4490.769 5471.951 4491.365 Q 5472.225 4491.962 5472.979 4492.024 Q 5473.732 4492.087 5474.164 4491.954 Q 5474.596 4491.821 5475.129 4491.528 Q 5475.661 4491.234 5476.873 4490.052 Q 5478.084 4488.870 5478.311 4488.677 "></path>
    <path id="STROKE_8a72459d-25e6-4f97-b09e-5759509adab7" opacity="1.000" fill="none" stroke="#f66640" stroke-width="2.890" stroke-opacity="1.000" stroke-linecap="round" stroke-linejoin="round" d="M 5468.575 4483.738 Q 5468.575 4483.738 5468.628 4483.670 Q 5468.682 4483.603 5472.837 4483.075 Q 5476.992 4482.547 5477.428 4482.470 "></path>
    <path id="STROKE_3c88fa79-f489-474e-a4f3-fe722f491a07" opacity="1.000" fill="none" stroke="#71c047" stroke-width="3.230" stroke-opacity="1.000" stroke-linecap="round" stroke-linejoin="round" d="M 5577.875 4460.988 Q 5577.351 4460.665 5578.634 4458.723 Q 5579.917 4456.781 5580.657 4455.888 Q 5581.397 4454.995 5582.370 4453.534 Q 5583.342 4452.074 5585.836 4449.667 Q 5586.406 4450.350 5586.386 4453.981 Q 5586.365 4457.613 5587.495 4462.824 Q 5587.535 4462.824 5587.555 4462.824 Q 5587.288 4462.774 5587.286 4462.707 Q 5587.284 4462.641 5586.978 4462.499 Q 5586.672 4462.357 5586.188 4462.188 Q 5585.703 4462.020 5585.233 4461.979 Q 5584.764 4461.937 5584.352 4461.957 Q 5583.940 4461.977 5581.981 4461.810 Q 5580.023 4461.643 5576.617 4463.190 Q 5576.617 4463.256 5576.618 4463.337 Q 5576.751 4463.429 5577.850 4463.285 Q 5578.949 4463.141 5579.288 4462.968 "></path>
    <path id="STROKE_2683b91a-dad5-403a-aeaa-f93bd9ccd1b1" opacity="1.000" fill="none" stroke="#71c047" stroke-width="3.230" stroke-opacity="1.000" stroke-linecap="round" stroke-linejoin="round" d="M 5600.293 4450.389 Q 5600.458 4450.368 5600.124 4450.293 Q 5599.790 4450.218 5599.508 4450.263 Q 5599.226 4450.309 5599.144 4450.475 Q 5599.062 4450.641 5598.741 4451.101 Q 5598.420 4451.561 5597.742 4453.757 Q 5597.064 4455.953 5596.931 4457.917 Q 5596.797 4459.882 5596.740 4461.069 Q 5596.684 4462.257 5597.045 4463.017 Q 5597.407 4463.775 5597.792 4463.936 Q 5598.176 4464.096 5598.499 4464.177 Q 5598.822 4464.257 5599.204 4464.291 Q 5599.585 4464.324 5600.730 4463.424 Q 5601.876 4462.524 5602.113 4462.245 "></path>
    <path id="STROKE_76b96890-0e31-473e-bbbd-1a62081e0d27" opacity="1.000" fill="none" stroke="#71c047" stroke-width="3.230" stroke-opacity="1.000" stroke-linecap="round" stroke-linejoin="round" d="M 5591.938 4455.877 Q 5592.663 4455.685 5592.656 4455.638 Q 5593.360 4454.872 5597.464 4455.065 Q 5601.568 4455.260 5601.981 4455.346 "></path>
    <path id="STROKE_17fb0e16-82d2-49cd-a5b0-7a0848b7d833" opacity="1.000" fill="none" stroke="#ff9adf" stroke-width="3.230" stroke-opacity="1.000" stroke-linecap="round" stroke-linejoin="round" d="M 6001.847 4447.939 Q 6001.848 4447.944 6001.743 4447.062 Q 6001.822 4447.558 6002.222 4452.477 Q 6002.623 4457.396 6003.278 4462.422 Q 6003.089 4462.268 6003.192 4459.885 Q 6003.295 4457.503 6003.806 4455.363 Q 6004.316 4453.224 6004.796 4451.912 Q 6005.276 4450.601 6005.960 4449.705 Q 6006.644 4448.809 6008.058 4447.941 Q 6009.471 4447.074 6011.175 4446.567 Q 6012.878 4446.060 6013.726 4446.056 Q 6014.573 4446.053 6015.210 4446.289 Q 6015.847 4446.524 6016.131 4446.526 Q 6016.415 4446.528 6016.396 4446.520 Q 6016.377 4446.511 6016.379 4446.556 Q 6016.381 4446.600 6016.546 4446.364 Q 6016.711 4446.129 6016.717 4446.059 Q 6016.722 4445.989 6016.692 4446.026 Q 6016.724 4445.876 6016.760 4445.760 "></path>
    <path id="STROKE_418e81bc-0ee9-4275-ac7f-5a05d6cbdfcb" opacity="1.000" fill="none" stroke="#6ac0c8" stroke-width="3.230" stroke-opacity="1.000" stroke-linecap="round" stroke-linejoin="round" d="M 5817.351 4500.846 Q 5817.328 4500.834 5817.308 4500.812 Q 5817.289 4500.792 5817.506 4500.915 Q 5817.724 4501.038 5818.674 4500.889 Q 5819.624 4500.739 5820.540 4500.524 Q 5821.457 4500.309 5822.178 4500.233 Q 5822.899 4500.158 5827.369 4499.665 Q 5831.839 4499.172 5834.511 4498.692 Q 5837.182 4498.212 5838.481 4497.769 Q 5839.780 4497.326 5841.643 4496.764 Q 5843.504 4496.202 5844.755 4495.994 Q 5846.005 4495.786 5846.650 4495.595 Q 5847.295 4495.403 5847.346 4495.392 Q 5847.397 4495.381 5847.675 4495.261 Q 5847.952 4495.141 5848.203 4495.035 Q 5848.453 4494.930 5848.440 4494.955 Q 5848.427 4494.980 5848.364 4494.992 Q 5848.301 4495.004 5849.048 4494.586 Q 5849.794 4494.168 5850.288 4494.072 Q 5850.782 4493.976 5851.189 4494.059 Q 5851.597 4494.143 5851.444 4494.097 Q 5851.291 4494.052 5851.830 4494.241 Q 5851.826 4494.264 5851.770 4494.368 Q 5851.713 4494.473 5851.625 4494.535 "></path>
    <path id="STROKE_60721ab3-cd7b-44a0-a3b6-df7ce0992939" opacity="1.000" fill="none" stroke="#f66640" stroke-width="2.890" stroke-opacity="1.000" stroke-linecap="round" stroke-linejoin="round" d="M 5662.300 4536.140 Q 5662.300 4536.140 5662.300 4536.134 Q 5662.300 4536.127 5662.209 4535.910 Q 5662.327 4535.986 5662.692 4536.369 Q 5663.057 4536.752 5664.225 4537.286 Q 5665.392 4537.820 5666.202 4538.215 Q 5667.013 4538.610 5668.509 4539.081 Q 5670.004 4539.551 5674.401 4540.008 Q 5678.798 4540.466 5681.233 4540.722 Q 5683.668 4540.978 5685.189 4540.950 Q 5686.711 4540.922 5688.653 4540.776 Q 5690.596 4540.630 5692.518 4540.616 Q 5694.439 4540.602 5697.933 4539.686 Q 5701.426 4538.771 5704.546 4538.208 Q 5707.667 4537.645 5712.867 4536.188 Q 5718.067 4534.729 5720.541 4533.881 Q 5723.015 4533.033 5724.319 4532.752 Q 5725.623 4532.471 5728.955 4531.356 Q 5732.287 4530.241 5734.425 4529.569 Q 5736.562 4528.896 5738.312 4528.606 Q 5740.062 4528.315 5741.797 4528.188 Q 5743.532 4528.061 5744.652 4528.104 Q 5745.772 4528.146 5748.277 4529.554 Q 5750.781 4530.961 5753.077 4532.398 Q 5755.372 4533.835 5756.984 4534.635 Q 5758.597 4535.434 5760.037 4536.131 Q 5761.478 4536.828 5763.026 4537.732 Q 5764.574 4538.637 5766.367 4539.165 Q 5766.396 4538.578 5766.384 4538.750 Q 5766.402 4538.417 5766.384 4538.327 Q 5766.365 4538.237 5766.369 4538.257 Q 5766.373 4538.277 5766.241 4537.833 Q 5766.109 4537.390 5765.529 4535.542 Q 5764.950 4533.695 5764.284 4531.716 Q 5763.618 4529.737 5763.224 4528.742 Q 5762.831 4527.748 5762.799 4527.034 Q 5762.767 4526.321 5762.741 4525.822 Q 5762.715 4525.324 5763.773 4524.358 Q 5764.832 4523.393 5768.073 4522.344 Q 5771.315 4521.294 5772.946 4520.921 Q 5774.577 4520.547 5775.859 4520.228 Q 5777.142 4519.908 5779.042 4519.438 Q 5780.941 4518.970 5784.407 4518.608 Q 5787.874 4518.247 5792.006 4517.586 Q 5796.138 4516.925 5798.551 4516.623 Q 5800.965 4516.320 5803.688 4516.191 Q 5806.412 4516.063 5811.083 4515.244 Q 5815.753 4514.425 5818.241 4513.910 Q 5820.729 4513.396 5822.990 4513.185 Q 5825.251 4512.974 5826.951 4512.825 Q 5828.651 4512.675 5832.258 4512.049 Q 5835.865 4511.422 5837.783 4511.086 Q 5839.701 4510.750 5842.020 4510.212 Q 5844.338 4509.673 5846.191 4508.900 Q 5848.045 4508.128 5848.907 4507.484 Q 5849.770 4506.840 5850.077 4506.581 Q 5850.384 4506.322 5850.390 4506.094 Q 5850.395 4505.866 5850.335 4505.656 Q 5850.276 4505.447 5849.657 4505.120 Q 5849.039 4504.792 5846.364 4502.199 Q 5846.335 4502.271 5846.488 4502.916 Q 5846.641 4503.561 5846.745 4503.720 "></path>
    <path id="STROKE_f4d088a7-4517-42f8-bcdf-33ee0e9933d9" opacity="1.000" fill="none" stroke="#f66640" stroke-width="2.890" stroke-opacity="1.000" stroke-linecap="round" stroke-linejoin="round" d="M 5773.171 4535.498 Q 5773.171 4535.498 5773.171 4535.491 Q 5773.171 4535.484 5773.171 4535.437 Q 5773.553 4535.300 5774.535 4537.257 Q 5775.517 4539.214 5776.030 4540.456 Q 5776.543 4541.697 5776.836 4542.487 Q 5777.128 4543.277 5777.602 4544.664 Q 5778.075 4546.052 5778.499 4547.086 Q 5778.923 4548.121 5779.422 4548.741 Q 5779.921 4549.361 5780.620 4549.396 Q 5780.410 4549.388 5781.974 4544.688 Q 5783.537 4539.986 5785.815 4533.241 L 5785.861 4533.241 Q 5785.986 4533.909 5785.961 4533.887 Q 5785.974 4534.183 5786.048 4535.132 Q 5786.122 4536.081 5786.181 4536.284 "></path>
    <path id="STROKE_28015dff-96c0-4916-b50b-c99ef0923bc3" opacity="1.000" fill="none" stroke="#f66640" stroke-width="2.890" stroke-opacity="1.000" stroke-linecap="round" stroke-linejoin="round" d="M 5786.053 4548.720 Q 5786.153 4548.192 5786.166 4548.199 Q 5786.331 4547.562 5787.544 4546.214 Q 5788.758 4544.866 5791.148 4544.185 Q 5791.552 4544.384 5791.884 4547.957 Q 5792.216 4551.529 5791.849 4553.946 Q 5791.481 4556.363 5791.369 4556.665 "></path>
    <path id="STROKE_b94d1311-3a5e-4b21-b89d-00f1c7252c62" opacity="1.000" fill="none" stroke="#f66640" stroke-width="2.890" stroke-opacity="1.000" stroke-linecap="round" stroke-linejoin="round" d="M 5785.067 4559.459 Q 5785.627 4559.408 5785.509 4559.384 Q 5785.630 4559.246 5787.322 4558.979 Q 5789.014 4558.713 5790.507 4558.619 Q 5792.000 4558.524 5793.650 4559.801 Q 5795.299 4561.078 5795.499 4561.250 "></path>
    <path id="STROKE_6e88faf0-741f-4743-8136-1665d412bf4c" opacity="1.000" fill="none" stroke="#f66640" stroke-width="2.890" stroke-opacity="1.000" stroke-linecap="round" stroke-linejoin="round" d="M 5800.003 4545.021 Q 5800.003 4545.021 5800.063 4544.910 Q 5800.123 4544.799 5800.011 4544.870 Q 5799.899 4544.940 5800.267 4544.735 Q 5800.634 4544.530 5800.751 4544.473 "></path>
    <path id="STROKE_c81184b8-e3ba-4208-a1c2-cd5a88389b1c" opacity="1.000" fill="none" stroke="#f66640" stroke-width="2.890" stroke-opacity="1.000" stroke-linecap="round" stroke-linejoin="round" d="M 5809.829 4539.841 Q 5809.678 4539.984 5808.936 4539.799 Q 5808.193 4539.613 5807.731 4539.459 Q 5807.269 4539.305 5806.733 4539.635 Q 5806.198 4539.965 5805.703 4541.263 Q 5805.208 4542.561 5805.062 4543.965 Q 5804.916 4545.370 5805.088 4546.777 Q 5805.261 4548.185 5805.615 4549.253 Q 5805.970 4550.321 5806.537 4550.971 Q 5807.104 4551.621 5807.583 4551.938 Q 5808.062 4552.255 5808.765 4552.356 Q 5809.466 4552.458 5810.147 4552.300 Q 5810.829 4552.141 5811.217 4551.923 "></path>
    <path id="STROKE_117cc2d2-2449-4115-8588-dcf8a32bcaa3" opacity="1.000" fill="none" stroke="#f66640" stroke-width="2.890" stroke-opacity="1.000" stroke-linecap="round" stroke-linejoin="round" d="M 5816.046 4541.638 Q 5815.738 4541.667 5815.075 4541.595 Q 5814.413 4541.523 5814.120 4542.114 Q 5813.827 4542.705 5813.769 4543.271 Q 5813.710 4543.835 5813.739 4544.905 Q 5813.768 4545.975 5813.890 4546.754 Q 5814.012 4547.533 5814.534 4548.376 Q 5815.057 4549.219 5815.710 4549.737 Q 5816.363 4550.255 5817.371 4550.385 Q 5818.378 4550.516 5819.343 4550.336 Q 5820.307 4550.156 5821.097 4549.484 Q 5821.887 4548.812 5822.391 4548.059 Q 5822.895 4547.306 5822.944 4545.902 Q 5822.994 4544.498 5822.956 4543.649 Q 5822.917 4542.801 5822.296 4542.051 Q 5821.675 4541.302 5821.218 4540.860 Q 5820.762 4540.419 5820.046 4540.262 Q 5819.331 4540.105 5818.773 4540.114 Q 5818.217 4540.123 5817.856 4540.370 Q 5817.495 4540.617 5817.235 4541.255 Q 5816.976 4541.894 5816.877 4542.124 "></path>
    <path id="STROKE_7342e423-f7df-44d2-9d70-f890ce90cf37" opacity="1.000" fill="none" stroke="#f66640" stroke-width="2.890" stroke-opacity="1.000" stroke-linecap="round" stroke-linejoin="round" d="M 5830.431 4539.583 Q 5830.618 4539.603 5829.927 4539.653 Q 5829.235 4539.704 5828.516 4540.225 Q 5827.797 4540.745 5827.550 4541.232 Q 5827.303 4541.719 5827.389 4542.445 Q 5827.475 4543.172 5829.046 4543.618 Q 5830.617 4544.064 5831.590 4544.331 Q 5832.563 4544.597 5833.216 4545.022 Q 5833.869 4545.448 5834.089 4545.980 Q 5834.308 4546.512 5834.178 4547.322 Q 5834.047 4548.133 5833.444 4548.785 Q 5832.841 4549.437 5832.155 4549.776 Q 5831.469 4550.115 5830.729 4550.248 Q 5829.988 4550.380 5829.599 4550.246 Q 5829.210 4550.112 5829.053 4549.862 Q 5828.896 4549.612 5828.951 4549.384 Q 5829.006 4549.156 5829.064 4548.997 "></path>
    <path id="STROKE_9afbd1bb-cc67-4b68-9e86-dcce64ba5690" opacity="1.000" fill="none" stroke="#f66640" stroke-width="2.890" stroke-opacity="1.000" stroke-linecap="round" stroke-linejoin="round" d="M 5848.880 4540.503 Q 5848.794 4540.575 5848.416 4540.442 Q 5848.037 4540.311 5847.582 4540.271 Q 5847.127 4540.232 5846.662 4540.704 Q 5846.196 4541.176 5846.085 4542.704 Q 5845.974 4544.232 5846.044 4545.479 Q 5846.115 4546.726 5846.782 4547.901 Q 5847.449 4549.077 5847.897 4549.771 Q 5848.347 4550.466 5849.271 4550.730 Q 5850.194 4550.996 5850.955 4550.836 Q 5851.716 4550.676 5852.335 4549.728 Q 5852.955 4548.780 5853.191 4547.346 Q 5853.429 4545.912 5853.350 4544.772 Q 5853.271 4543.633 5852.624 4542.501 Q 5851.976 4541.370 5851.217 4540.583 Q 5850.458 4539.797 5849.423 4539.662 Q 5848.389 4539.526 5847.958 4539.559 Q 5847.528 4539.591 5847.386 4539.672 Q 5847.244 4539.752 5847.097 4540.322 Q 5846.950 4540.892 5846.906 4541.081 "></path>
    <path id="STROKE_5f1dfa62-c051-4a97-ac70-f74cad538743" opacity="1.000" fill="none" stroke="#f66640" stroke-width="2.890" stroke-opacity="1.000" stroke-linecap="round" stroke-linejoin="round" d="M 5841.497 4544.131 Q 5841.416 4544.188 5843.453 4544.230 Q 5845.491 4544.272 5846.948 4544.238 Q 5848.405 4544.205 5849.621 4544.106 Q 5850.836 4544.009 5852.340 4544.176 Q 5853.843 4544.343 5855.980 4544.500 Q 5856.024 4544.409 5856.076 4544.317 Q 5856.129 4544.226 5856.201 4544.110 "></path>
    <path id="STROKE_a0fe84a0-e532-4aec-b7b5-f61c44e2a1d6" opacity="1.000" fill="none" stroke="#f66640" stroke-width="2.890" stroke-opacity="1.000" stroke-linecap="round" stroke-linejoin="round" d="M 5847.077 4362.179 Q 5847.053 4362.152 5846.736 4361.734 Q 5846.419 4361.316 5845.578 4361.140 Q 5844.737 4360.964 5843.641 4361.835 Q 5842.545 4362.707 5841.495 4363.765 Q 5840.445 4364.823 5839.794 4365.405 Q 5839.143 4365.988 5838.608 4366.608 Q 5838.074 4367.229 5837.608 4367.801 Q 5837.143 4368.372 5837.199 4370.201 Q 5837.256 4372.031 5837.334 4373.582 Q 5837.412 4375.134 5837.556 4376.177 Q 5837.699 4377.221 5838.008 4378.398 Q 5838.316 4379.576 5838.402 4380.444 Q 5838.489 4381.312 5838.542 4382.806 Q 5838.594 4384.299 5838.944 4385.577 Q 5839.294 4386.854 5839.398 4389.185 Q 5839.502 4391.515 5839.657 4393.307 Q 5839.811 4395.098 5839.952 4396.401 Q 5840.093 4397.704 5840.086 4399.186 Q 5840.079 4400.667 5839.847 4402.986 Q 5839.615 4405.306 5839.330 4406.953 Q 5839.046 4408.601 5838.701 4409.858 Q 5838.355 4411.115 5837.736 4412.463 Q 5837.116 4413.811 5836.736 4414.509 Q 5836.356 4415.208 5836.036 4415.784 Q 5835.716 4416.360 5835.324 4417.047 Q 5834.931 4417.734 5834.392 4418.660 Q 5833.853 4419.586 5833.106 4420.960 Q 5832.359 4422.333 5831.464 4423.363 Q 5830.569 4424.393 5829.693 4424.958 Q 5828.816 4425.522 5827.477 4426.359 Q 5827.956 4426.548 5828.889 4426.496 Q 5829.822 4426.444 5830.795 4426.902 Q 5831.768 4427.359 5832.326 4427.924 Q 5832.885 4428.488 5833.072 4429.108 Q 5833.260 4429.728 5833.481 4430.389 Q 5833.702 4431.050 5834.037 4434.321 Q 5834.373 4437.592 5834.310 4441.210 Q 5834.247 4444.829 5834.084 4446.852 Q 5833.921 4448.875 5833.868 4449.768 Q 5833.814 4450.660 5833.501 4452.485 Q 5833.187 4454.311 5832.716 4456.348 Q 5832.245 4458.386 5831.938 4461.490 Q 5831.632 4464.594 5831.502 4466.108 Q 5831.371 4467.622 5831.336 4469.998 Q 5831.302 4472.374 5831.425 4473.997 Q 5831.549 4475.619 5831.753 4476.402 Q 5831.957 4477.186 5831.979 4477.292 Q 5832.000 4477.398 5832.298 4478.449 Q 5832.595 4479.500 5832.953 4480.192 Q 5833.312 4480.885 5833.499 4481.025 Q 5833.686 4481.167 5835.936 4481.945 Q 5838.186 4482.724 5839.479 4483.246 Q 5840.771 4483.768 5841.544 4483.848 Q 5842.316 4483.929 5843.766 4484.491 L 5843.766 4484.503 Q 5843.312 4484.465 5843.478 4484.556 Q 5843.643 4484.646 5842.851 4484.312 Q 5842.059 4483.979 5841.933 4483.878 "></path>
    <path id="STROKE_b56cc48c-84f1-489a-9968-aed68b8ee29c" opacity="1.000" fill="none" stroke="#f66640" stroke-width="2.890" stroke-opacity="1.000" stroke-linecap="round" stroke-linejoin="round" d="M 5758.844 4411.342 Q 5758.558 4411.129 5758.537 4411.114 Q 5758.517 4411.099 5758.560 4411.112 Q 5758.544 4411.089 5758.544 4411.025 Q 5758.516 4411.090 5758.742 4411.042 Q 5758.969 4410.993 5764.495 4424.291 Q 5764.594 4424.560 5765.119 4423.393 Q 5765.644 4422.226 5766.214 4420.724 Q 5766.783 4419.222 5767.110 4418.354 Q 5767.438 4417.485 5767.748 4416.553 Q 5768.058 4415.620 5768.660 4413.740 Q 5769.262 4411.859 5769.815 4410.181 Q 5769.794 4410.091 5769.830 4410.337 Q 5769.866 4410.584 5769.893 4410.693 "></path>
    <path id="STROKE_eeb934ba-168c-4da3-936e-730856910059" opacity="1.000" fill="none" stroke="#f66640" stroke-width="2.890" stroke-opacity="1.000" stroke-linecap="round" stroke-linejoin="round" d="M 5770.496 4424.501 Q 5770.515 4424.578 5770.505 4423.652 Q 5770.495 4422.726 5771.072 4421.687 Q 5771.649 4420.647 5772.259 4419.932 Q 5772.870 4419.216 5773.817 4419.120 Q 5773.988 4419.101 5773.989 4421.421 Q 5773.990 4423.741 5773.949 4425.936 Q 5773.908 4428.130 5774.120 4429.528 Q 5774.333 4430.926 5774.406 4431.121 "></path>
    <path id="STROKE_a9eedffc-e674-4adf-9ea8-685c29e5da0c" opacity="1.000" fill="none" stroke="#f66640" stroke-width="2.890" stroke-opacity="1.000" stroke-linecap="round" stroke-linejoin="round" d="M 5771.630 4434.061 Q 5771.499 4434.292 5772.644 4433.955 Q 5773.789 4433.617 5775.152 4433.465 Q 5776.516 4433.313 5777.513 4433.571 Q 5778.510 4433.830 5778.756 4433.878 "></path>
    <path id="STROKE_3af771cf-9302-47f1-9f56-89daaa90bc4f" opacity="1.000" fill="none" stroke="#f66640" stroke-width="2.890" stroke-opacity="1.000" stroke-linecap="round" stroke-linejoin="round" d="M 5778.906 4420.235 Q 5778.762 4420.342 5779.095 4419.917 Q 5779.427 4419.492 5779.534 4419.406 "></path>
    <path id="STROKE_384ff183-9e3f-4a75-b898-c52d89b70ddd" opacity="1.000" fill="none" stroke="#f66640" stroke-width="2.890" stroke-opacity="1.000" stroke-linecap="round" stroke-linejoin="round" d="M 5787.940 4412.550 Q 5787.839 4412.273 5787.251 4412.077 Q 5786.663 4411.880 5786.155 4411.776 Q 5785.648 4411.673 5784.996 4411.993 Q 5784.344 4412.312 5783.896 4412.687 Q 5783.446 4413.061 5783.288 4413.369 Q 5783.130 4413.678 5783.101 4414.013 Q 5783.071 4414.349 5783.253 4414.663 Q 5783.435 4414.977 5784.749 4415.990 Q 5786.063 4417.003 5787.064 4417.989 Q 5788.065 4418.975 5788.609 4419.571 Q 5789.154 4420.168 5789.480 4420.912 Q 5789.807 4421.655 5789.763 4422.092 Q 5789.718 4422.529 5789.624 4422.795 Q 5789.530 4423.061 5789.347 4423.259 Q 5789.165 4423.458 5788.889 4423.664 Q 5788.612 4423.869 5788.390 4424.034 Q 5788.167 4424.199 5787.511 4424.432 Q 5786.854 4424.664 5786.252 4424.709 Q 5785.649 4424.754 5785.253 4424.695 Q 5784.857 4424.635 5784.938 4424.070 Q 5785.019 4423.505 5785.129 4423.358 "></path>
    <path id="STROKE_71805f59-3b74-4ac0-8004-b27af088fe63" opacity="1.000" fill="none" stroke="#f66640" stroke-width="2.890" stroke-opacity="1.000" stroke-linecap="round" stroke-linejoin="round" d="M 5793.959 4422.932 Q 5793.815 4422.965 5793.877 4421.273 Q 5793.939 4419.581 5794.001 4419.386 "></path>
    <path id="STROKE_a5d90c90-43cd-4a71-a841-2efefe284608" opacity="1.000" fill="none" stroke="#f66640" stroke-width="2.890" stroke-opacity="1.000" stroke-linecap="round" stroke-linejoin="round" d="M 5793.555 4413.371 Q 5793.285 4413.377 5792.802 4413.400 Q 5792.910 4413.352 5793.017 4413.303 "></path>
    <path id="STROKE_2b544904-00b0-46d5-9a3f-ba92360421cb" opacity="1.000" fill="none" stroke="#f66640" stroke-width="2.890" stroke-opacity="1.000" stroke-linecap="round" stroke-linejoin="round" d="M 5798.286 4414.268 Q 5797.832 4414.585 5797.993 4421.533 Q 5798.314 4421.614 5799.295 4419.603 Q 5800.277 4417.590 5800.966 4416.175 Q 5801.655 4414.759 5802.728 4413.945 Q 5802.829 4413.667 5803.947 4423.625 Q 5803.957 4423.727 5804.055 4423.314 Q 5804.153 4422.902 5804.249 4422.692 "></path>
    <path id="STROKE_98830d6f-8325-434d-9a0d-6b20e6d5a415" opacity="1.000" fill="none" stroke="#f66640" stroke-width="2.890" stroke-opacity="1.000" stroke-linecap="round" stroke-linejoin="round" d="M 5812.711 4417.402 Q 5812.568 4417.447 5811.923 4417.379 Q 5811.277 4417.310 5810.832 4417.863 Q 5810.387 4418.417 5810.199 4419.394 Q 5810.011 4420.371 5809.994 4421.366 Q 5809.978 4422.361 5810.116 4423.151 Q 5810.253 4423.942 5810.525 4424.415 Q 5810.796 4424.888 5811.148 4425.315 Q 5811.501 4425.743 5812.163 4425.942 Q 5812.824 4426.142 5813.528 4426.120 Q 5814.232 4426.099 5814.781 4425.876 Q 5815.331 4425.653 5816.027 4424.881 Q 5816.724 4424.109 5817.125 4422.975 Q 5817.527 4421.840 5817.580 4420.782 Q 5817.632 4419.724 5817.622 4418.946 Q 5817.612 4418.168 5817.065 4417.427 Q 5816.519 4416.686 5815.860 4416.255 Q 5815.201 4415.823 5814.484 4415.724 Q 5813.768 4415.624 5813.387 4415.633 Q 5813.005 4415.642 5812.832 4415.728 Q 5812.658 4415.814 5812.498 4415.996 Q 5812.338 4416.177 5812.216 4416.418 Q 5812.095 4416.659 5812.030 4416.939 Q 5811.966 4417.219 5811.905 4417.426 "></path>
    <path id="STROKE_ec528609-6de2-4c97-913e-321fe0e60bab" opacity="1.000" fill="none" stroke="#f66640" stroke-width="2.890" stroke-opacity="1.000" stroke-linecap="round" stroke-linejoin="round" d="M 5807.126 4420.783 Q 5807.297 4420.763 5809.240 4420.991 Q 5811.183 4421.220 5813.529 4421.103 Q 5815.875 4420.986 5817.202 4420.738 Q 5818.528 4420.490 5819.547 4420.323 Q 5820.566 4420.157 5820.739 4420.107 "></path>
    <path id="STROKE_5ffd35c1-b2a2-42da-afc8-959b148c3fb5" opacity="1.000" fill="none" stroke="#f3ba38" stroke-width="2.890" stroke-opacity="1.000" stroke-linecap="round" stroke-linejoin="round" d="M 5415.564 4554.392 L 5416.728 4554.224 Q 5416.728 4554.326 5416.627 4555.140 Q 5416.374 4555.191 5416.025 4555.217 Q 5415.678 4555.243 5415.618 4555.249 "></path>
    <path id="STROKE_320763b5-00db-4863-a632-0e00a619c3ec" opacity="1.000" fill="none" stroke="#f3ba38" stroke-width="2.890" stroke-opacity="1.000" stroke-linecap="round" stroke-linejoin="round" d="M 5881.729 4412.042 Q 5881.729 4411.705 5881.729 4410.666 Q 5881.992 4410.990 5880.840 4414.884 Q 5879.688 4418.777 5878.903 4421.563 Q 5878.117 4424.350 5877.946 4426.139 Q 5877.776 4427.928 5877.759 4428.882 Q 5877.743 4429.835 5878.042 4430.240 Q 5878.342 4430.646 5879.686 4430.662 Q 5881.030 4430.679 5881.772 4430.476 Q 5882.515 4430.272 5883.265 4430.150 Q 5884.014 4430.027 5884.966 4429.667 Q 5885.919 4429.307 5886.109 4429.159 "></path>
    <path id="STROKE_db819143-4d94-4c29-99fb-95c6cf6a3cc9" opacity="1.000" fill="none" stroke="#f3ba38" stroke-width="2.890" stroke-opacity="1.000" stroke-linecap="round" stroke-linejoin="round" d="M 5870.397 4420.183 Q 5870.378 4420.183 5870.227 4420.183 Q 5870.227 4420.164 5870.227 4420.075 Q 5870.073 4420.166 5873.010 4419.798 Q 5875.946 4419.429 5878.564 4419.535 Q 5881.182 4419.642 5884.039 4420.633 Q 5886.896 4421.624 5886.936 4421.688 "></path>
  </g>
</svg>