<?xml version="1.0" encoding="UTF-8" standalone="yes"?>
<svg xmlns="http://www.w3.org/2000/svg" xmlns:xlink="http://www.w3.org/1999/xlink" width="756.415pt" height="330.742pt" version="1.1" viewBox="6733.083 3411.403 756.415 330.742">
  <!--
	Exported with Concepts: Smarter Sketching
	Version: 1059 on iOS 15.4
	https://concepts.app/
	-->
  <title>Untitled</title>
  <desc>Drawing exported from Concepts: Smarter Sketching</desc>
  <defs></defs>
  <g id="New_Layer_1" opacity="1.000">
    <path id="STROKE_5d8ffc28-9d89-47c3-8e07-d53f535970b3" opacity="1.000" fill="none" stroke="#6ac0c8" stroke-width="2.331" stroke-opacity="1.000" stroke-linecap="round" stroke-linejoin="round" d="M 6799.123 3667.282 Q 6798.517 3667.888 6798.667 3667.738 Q 6798.315 3668.090 6798.338 3668.066 Q 6798.262 3668.143 6798.015 3668.390 Q 6798.241 3668.164 6802.225 3664.179 "></path>
  </g>
  <g id="Foreground" opacity="1.000">
    <path id="STROKE_342d0aea-f73f-430e-9ce8-6256f159a235" opacity="1.000" fill="none" stroke="#f3ba38" stroke-width="2.064" stroke-opacity="1.000" stroke-linecap="round" stroke-linejoin="round" d="M 6800.001 3668.000 L 6810.000 3668.000 Q 6816.754 3668.000 6820.000 3668.000 Q 6826.998 3668.000 6830.000 3668.000 Q 6835.758 3668.000 6840.000 3668.000 Q 6846.922 3668.000 6850.000 3668.000 Q 6856.449 3668.000 6860.000 3668.000 Q 6866.028 3668.000 6870.000 3668.000 Q 6876.744 3668.000 6896.467 3668.000 "></path>
    <path id="STROKE_44d16605-7988-4191-a2a8-4c62ea2e8f50" opacity="1.000" fill="none" stroke="#f3ba38" stroke-width="2.205" stroke-opacity="1.000" stroke-linecap="round" stroke-linejoin="round" d="M 6958.065 3668.000 L 6960.000 3668.000 Q 6966.892 3668.000 6990.000 3668.000 Q 6995.816 3668.000 7000.000 3668.000 Q 7007.116 3668.000 7070.001 3668.000 Q 7076.331 3668.000 7080.000 3668.000 Q 7085.909 3668.000 7090.000 3668.000 Q 7095.488 3668.000 7100.000 3668.000 Q 7105.458 3668.000 7110.000 3668.000 Q 7115.190 3668.000 7120.000 3668.000 Q 7127.546 3668.000 7140.000 3668.000 Q 7147.096 3668.000 7150.000 3668.000 Q 7156.453 3668.000 7160.000 3668.000 Q 7165.180 3668.000 7170.000 3668.000 Q 7176.820 3668.000 7180.000 3668.000 Q 7186.075 3668.000 7190.000 3668.000 Q 7197.120 3668.000 7200.001 3668.000 Q 7206.817 3668.000 7210.001 3668.000 Q 7216.123 3668.000 7220.000 3668.000 Q 7225.003 3668.000 7230.000 3668.000 Q 7235.553 3668.000 7240.000 3668.000 Q 7246.222 3668.000 7250.000 3668.000 Q 7255.972 3668.000 7260.000 3668.000 Q 7265.124 3668.000 7270.000 3668.000 Q 7276.271 3668.000 7280.000 3668.000 Q 7286.190 3668.000 7290.000 3668.000 Q 7295.990 3668.000 7300.000 3668.000 Q 7305.893 3668.000 7310.000 3668.000 Q 7315.267 3668.000 7320.000 3668.000 Q 7325.118 3668.000 7330.000 3668.000 Q 7335.565 3668.000 7340.001 3668.000 Q 7345.639 3668.000 7350.001 3668.000 Q 7356.138 3668.000 7360.000 3668.000 Q 7365.120 3668.000 7370.000 3668.000 Q 7375.465 3668.000 7380.000 3668.000 Q 7385.964 3668.000 7390.000 3668.000 Q 7395.390 3668.000 7400.000 3668.000 Q 7399.141 3668.000 7399.235 3668.000 Q 7399.330 3668.000 7399.020 3668.000 L 7400.000 3668.000 "></path>
    <path id="STROKE_b6d85ce9-24d9-4649-91f1-63f090f9a168" opacity="1.000" fill="none" stroke="#f3ba38" stroke-width="1.540" stroke-opacity="1.000" stroke-linecap="round" stroke-linejoin="round" d="M 6800.001 3500.656 L 6800.001 3578.000 Q 6800.001 3584.512 6800.001 3608.000 Q 6800.001 3614.951 6800.001 3638.000 Q 6800.001 3645.528 6800.001 3685.979 "></path>
    <path id="STROKE_187c0b38-d38c-4271-b617-d3c20b560892" opacity="1.000" fill="none" stroke="#f3ba38" stroke-width="2.890" stroke-opacity="1.000" stroke-linecap="round" stroke-linejoin="round" d="M 6810.000 3668.000 L 6800.001 3668.000 Q 6794.666 3668.000 6790.000 3668.000 "></path>
    <path id="STROKE_a08af10a-de69-4b1d-b3e7-2306a36bc486" opacity="1.000" fill="none" stroke="#ff9adf" stroke-width="2.935" stroke-opacity="1.000" stroke-linecap="round" stroke-linejoin="round" d="M 6799.581 3664.824 Q 6799.625 3664.767 6801.544 3662.438 Q 6803.464 3660.109 6806.780 3656.284 Q 6810.096 3652.459 6813.555 3648.742 Q 6817.014 3645.025 6819.022 3642.933 Q 6821.031 3640.841 6824.530 3637.377 Q 6828.030 3633.914 6830.335 3631.742 Q 6832.641 3629.570 6836.335 3626.220 Q 6840.029 3622.870 6843.350 3620.074 Q 6846.669 3617.278 6848.330 3615.786 Q 6849.990 3614.295 6855.728 3609.894 Q 6861.466 3605.493 6864.759 3603.090 Q 6868.051 3600.688 6869.936 3599.334 Q 6871.819 3597.981 6881.985 3591.152 "></path>
    <path id="STROKE_c8607f17-cb88-425d-b94a-b695981fa6f8" opacity="1.000" fill="none" stroke="#ff9adf" stroke-width="2.170" stroke-opacity="1.000" stroke-linecap="round" stroke-linejoin="round" d="M 6891.458 3585.137 Q 6895.428 3582.633 6904.630 3577.525 Q 6913.833 3572.416 6914.777 3571.955 "></path>
    <path id="STROKE_fc56a3d9-31f4-46f9-a50f-84b4025b61c0" opacity="1.000" fill="none" stroke="#ff9adf" stroke-width="2.659" stroke-opacity="1.000" stroke-linecap="round" stroke-linejoin="round" d="M 6924.684 3567.118 Q 6927.188 3565.896 6932.016 3563.681 Q 6936.844 3561.465 6944.262 3558.356 Q 6951.679 3555.248 6959.176 3552.539 Q 6966.672 3549.830 6971.934 3548.109 Q 6977.195 3546.388 6985.661 3543.763 Q 6994.127 3541.138 7007.082 3538.192 Q 7020.038 3535.246 7027.473 3534.007 Q 7034.907 3532.769 7039.000 3532.087 Q 7043.092 3531.406 7052.815 3530.266 Q 7062.539 3529.126 7070.848 3528.583 Q 7079.156 3528.040 7084.443 3527.842 Q 7089.730 3527.643 7096.164 3527.591 Q 7102.597 3527.538 7109.806 3527.644 Q 7117.015 3527.750 7127.056 3528.432 Q 7137.097 3529.113 7143.377 3529.849 Q 7149.658 3530.584 7152.969 3530.915 Q 7156.280 3531.245 7165.386 3532.765 Q 7174.492 3534.286 7179.877 3535.406 Q 7185.262 3536.526 7190.392 3537.564 Q 7195.521 3538.602 7206.056 3541.478 Q 7216.591 3544.353 7222.338 3546.176 Q 7228.084 3548.000 7234.133 3550.018 Q 7240.182 3552.037 7248.141 3555.309 Q 7256.101 3558.582 7260.166 3560.108 Q 7264.232 3561.634 7273.818 3566.367 Q 7283.404 3571.099 7288.780 3573.983 Q 7294.157 3576.867 7297.120 3578.456 Q 7300.083 3580.045 7307.771 3584.730 Q 7315.458 3589.416 7319.951 3592.412 Q 7324.444 3595.407 7327.919 3597.858 Q 7331.395 3600.310 7333.376 3601.716 Q 7335.357 3603.123 7340.127 3606.740 Q 7344.896 3610.356 7348.979 3613.704 Q 7353.062 3617.051 7355.395 3618.999 Q 7357.728 3620.946 7361.164 3624.041 Q 7364.600 3627.136 7366.768 3629.126 Q 7368.936 3631.117 7371.740 3633.812 Q 7374.545 3636.508 7377.451 3639.454 Q 7380.356 3642.401 7382.296 3644.417 Q 7384.235 3646.433 7387.267 3649.743 Q 7390.297 3653.052 7392.439 3655.518 Q 7394.581 3657.983 7396.395 3660.121 Q 7398.208 3662.258 7401.745 3666.628 Q 7401.444 3666.254 7401.470 3666.286 Q 7401.287 3666.059 7400.810 3665.468 "></path>
    <path id="STROKE_25ed182c-647a-4ab7-a304-1d439a7dd061" opacity="1.000" fill="none" stroke="#f66640" stroke-width="2.727" stroke-opacity="1.000" stroke-linecap="round" stroke-linejoin="round" d="M 7100.687 3537.043 Q 7100.688 3536.958 7100.704 3534.951 Q 7100.697 3535.919 7100.641 3542.765 Q 7100.585 3549.611 7100.440 3567.450 Q 7100.296 3585.290 7100.205 3596.469 Q 7100.114 3607.648 7100.075 3612.558 Q 7100.035 3617.467 7100.009 3620.702 Q 7099.983 3623.938 7099.967 3625.881 Q 7099.951 3627.824 7099.936 3629.729 Q 7099.920 3631.633 7099.909 3633.042 Q 7099.897 3634.452 7099.864 3638.585 Q 7099.830 3642.718 7099.804 3645.929 Q 7099.778 3649.141 7099.756 3651.840 Q 7099.734 3654.539 7099.728 3655.344 Q 7099.721 3656.149 7099.702 3658.448 Q 7099.684 3660.747 7099.673 3662.035 Q 7099.663 3663.322 7099.659 3663.733 Q 7099.656 3664.143 7099.654 3664.414 Q 7099.652 3664.685 7099.654 3664.373 Q 7099.657 3664.061 7099.642 3665.876 Q 7099.644 3665.640 7099.655 3664.311 "></path>
    <path id="STROKE_a4c3df6a-1371-4bca-aefe-eebc72dc8c09" opacity="1.000" fill="none" stroke="#f66640" stroke-width="2.890" stroke-opacity="1.000" stroke-linecap="round" stroke-linejoin="round" d="M 7089.913 3682.577 Q 7089.913 3682.549 7089.913 3682.096 Q 7090.023 3682.808 7089.811 3687.625 Q 7089.598 3692.442 7090.669 3698.219 Q 7090.735 3698.219 7090.820 3698.191 Q 7090.758 3698.464 7090.988 3697.562 Q 7091.217 3696.661 7091.368 3696.363 "></path>
    <path id="STROKE_6ffdb37d-9f7d-4cbc-b98b-b8b8922231e9" opacity="1.000" fill="none" stroke="#f66640" stroke-width="2.890" stroke-opacity="1.000" stroke-linecap="round" stroke-linejoin="round" d="M 7080.369 3705.629 Q 7080.728 3705.634 7085.601 3705.502 Q 7090.475 3705.371 7094.654 3705.728 Q 7098.834 3706.085 7100.937 3706.952 Q 7103.039 3707.818 7103.181 3707.910 "></path>
    <path id="STROKE_88aa87f9-ed4c-4e04-b2ef-2acf99ddda83" opacity="1.000" fill="none" stroke="#f66640" stroke-width="2.890" stroke-opacity="1.000" stroke-linecap="round" stroke-linejoin="round" d="M 7086.266 3718.678 Q 7086.423 3718.483 7086.853 3718.177 Q 7087.282 3717.871 7087.615 3717.818 Q 7087.947 3717.764 7087.935 3717.773 Q 7087.923 3717.781 7088.003 3717.708 Q 7088.083 3717.635 7089.599 3717.316 Q 7091.115 3716.997 7092.459 3717.339 Q 7093.804 3717.681 7094.662 3718.276 Q 7095.521 3718.871 7096.152 3720.902 Q 7096.784 3722.933 7096.918 3724.878 Q 7097.052 3726.823 7096.467 3728.456 Q 7095.882 3730.089 7095.281 3730.979 Q 7094.680 3731.868 7093.127 3732.321 Q 7091.574 3732.774 7090.270 3732.583 Q 7088.965 3732.391 7088.416 3731.093 Q 7087.868 3729.795 7087.742 3728.260 Q 7087.616 3726.725 7088.808 3725.118 Q 7090.000 3723.511 7091.938 3722.340 Q 7093.874 3721.169 7095.273 3720.824 Q 7096.673 3720.479 7097.186 3720.542 Q 7097.699 3720.605 7098.317 3720.846 Q 7098.935 3721.087 7100.014 3722.394 Q 7101.092 3723.700 7101.329 3723.792 "></path>
    <path id="STROKE_85ec3246-3da4-4900-ba11-9fc24cc13b68" opacity="1.000" fill="none" stroke="#f66640" stroke-width="2.834" stroke-opacity="1.000" stroke-linecap="round" stroke-linejoin="round" d="M 7109.021 3716.581 Q 7108.608 3717.150 7108.605 3717.143 Q 7108.602 3717.136 7108.648 3717.106 Q 7108.694 3717.076 7107.868 3718.026 Q 7107.973 3717.587 7110.736 3712.865 Q 7113.500 3708.143 7115.165 3704.803 Q 7116.829 3701.464 7118.241 3698.484 Q 7119.654 3695.505 7121.164 3692.453 L 7121.230 3692.453 Q 7121.290 3692.470 7121.393 3697.455 Q 7121.496 3702.439 7120.909 3720.123 Q 7120.587 3719.560 7120.275 3719.156 Q 7119.963 3718.752 7118.310 3718.247 Q 7116.656 3717.742 7107.698 3716.510 Q 7107.453 3716.510 7108.397 3716.510 Q 7109.342 3716.510 7109.739 3716.510 "></path>
    <path id="STROKE_711bac96-1133-4afa-9d0e-7f450858f499" opacity="1.000" fill="none" stroke="#f66640" stroke-width="2.890" stroke-opacity="1.000" stroke-linecap="round" stroke-linejoin="round" d="M 7131.776 3700.458 Q 7131.324 3700.050 7131.244 3699.921 Q 7131.165 3699.791 7131.173 3699.808 Q 7131.180 3699.824 7131.276 3699.935 Q 7131.372 3700.047 7130.718 3699.310 Q 7130.295 3699.561 7129.148 3703.182 Q 7128.000 3706.802 7127.521 3709.821 Q 7127.042 3712.840 7127.046 3714.840 Q 7127.050 3716.840 7128.062 3717.564 Q 7129.075 3718.288 7130.674 3718.295 Q 7132.273 3718.302 7134.151 3717.317 Q 7136.029 3716.333 7136.444 3716.028 "></path>
    <path id="STROKE_d0d92fbf-909d-42c5-9238-b76c63e7b015" opacity="1.000" fill="none" stroke="#f66640" stroke-width="2.890" stroke-opacity="1.000" stroke-linecap="round" stroke-linejoin="round" d="M 7123.233 3710.134 Q 7124.294 3710.182 7124.084 3710.191 Q 7125.124 3710.191 7124.981 3710.191 Q 7125.240 3710.337 7129.944 3709.470 Q 7134.649 3708.604 7135.367 3708.392 "></path>
    <path id="STROKE_a0d17357-79dd-49d1-b78f-3876e3369e87" opacity="1.000" fill="none" stroke="#6ac0c8" stroke-width="2.678" stroke-opacity="1.000" stroke-linecap="round" stroke-linejoin="round" d="M 6798.372 3665.004 Q 6798.348 3665.027 6798.168 3665.202 Q 6798.319 3665.055 6803.573 3659.947 Q 6808.827 3654.839 6813.959 3649.849 Q 6819.092 3644.859 6826.224 3637.925 Q 6833.356 3630.990 6838.133 3626.346 Q 6842.910 3621.702 6849.984 3614.824 Q 6857.059 3607.945 6861.685 3603.448 Q 6866.311 3598.950 6869.949 3595.413 Q 6873.588 3591.875 6879.924 3585.715 "></path>
    <path id="STROKE_c0885731-b50b-44b5-a279-6f60876aa4ac" opacity="1.000" fill="none" stroke="#6ac0c8" stroke-width="2.847" stroke-opacity="1.000" stroke-linecap="round" stroke-linejoin="round" d="M 6794.085 3668.373 Q 6793.253 3668.390 6793.360 3668.388 Q 6792.601 3668.403 6792.398 3668.407 Q 6792.535 3668.404 6798.452 3668.287 Q 6804.369 3668.170 6835.141 3667.563 Q 6865.912 3666.955 6896.293 3666.355 "></path>
    <path id="STROKE_5f228318-24e2-4dd5-a501-c751ed68b62e" opacity="1.000" fill="none" stroke="#6ac0c8" stroke-width="2.890" stroke-opacity="1.000" stroke-linecap="round" stroke-linejoin="round" d="M 6817.947 3646.926 Q 6817.039 3646.734 6816.845 3646.213 Q 6817.389 3646.213 6817.366 3646.213 Q 6818.614 3646.213 6818.249 3646.213 Q 6819.370 3646.256 6819.116 3646.287 Q 6819.739 3646.331 6821.857 3648.234 Q 6823.976 3650.137 6825.371 3665.479 Q 6825.657 3665.091 6825.201 3664.298 Q 6824.745 3663.505 6824.602 3663.408 "></path>
    <path id="STROKE_c2bd8890-20f4-4f0d-9f15-b922622a20b5" opacity="1.000" fill="none" stroke="#6ac0c8" stroke-width="2.890" stroke-opacity="1.000" stroke-linecap="round" stroke-linejoin="round" d="M 6840.040 3645.206 Q 6840.343 3645.262 6840.000 3644.573 Q 6839.656 3643.885 6839.400 3643.551 Q 6839.144 3643.217 6838.679 3643.192 Q 6838.213 3643.167 6838.226 3643.105 Q 6838.238 3643.043 6837.178 3644.431 Q 6836.118 3645.819 6835.222 3648.107 Q 6834.325 3650.396 6834.079 3651.788 Q 6833.832 3653.180 6833.779 3654.576 Q 6833.726 3655.972 6834.064 3657.213 Q 6834.403 3658.455 6835.090 3659.195 Q 6835.776 3659.934 6836.893 3660.060 Q 6838.008 3660.185 6838.785 3660.001 Q 6839.562 3659.818 6840.726 3658.822 Q 6841.890 3657.826 6843.597 3655.505 Q 6845.303 3653.183 6846.121 3651.318 Q 6846.939 3649.452 6847.047 3648.852 Q 6847.155 3648.251 6847.042 3647.793 Q 6846.929 3647.334 6846.586 3647.105 Q 6846.243 3646.876 6846.039 3646.822 Q 6845.835 3646.768 6845.337 3646.558 Q 6844.838 3646.348 6841.733 3646.281 Q 6838.628 3646.213 6838.364 3646.259 "></path>
    <path id="STROKE_43e2d73d-bde6-42b8-93ef-d10fd72819a2" opacity="1.000" fill="none" stroke="#6ac0c8" stroke-width="2.890" stroke-opacity="1.000" stroke-linecap="round" stroke-linejoin="round" d="M 6828.676 3651.587 Q 6828.539 3651.592 6828.390 3651.519 Q 6827.868 3651.227 6831.543 3651.463 Q 6835.219 3651.698 6839.708 3650.993 Q 6844.197 3650.287 6846.609 3649.650 Q 6849.021 3649.014 6850.388 3648.821 Q 6851.755 3648.629 6852.266 3648.716 Q 6852.775 3648.804 6852.910 3648.970 Q 6853.045 3649.135 6853.037 3649.150 Q 6853.029 3649.165 6853.007 3649.033 Q 6852.985 3648.900 6853.107 3649.358 Q 6853.229 3649.816 6853.229 3649.958 "></path>
    <path id="STROKE_7b9d83d0-298b-4e71-b0bd-ac57b199c9b5" opacity="1.000" fill="none" stroke="#6ac0c8" stroke-width="2.720" stroke-opacity="1.000" stroke-linecap="round" stroke-linejoin="round" d="M 6799.551 3665.949 Q 6799.500 3666.010 6799.333 3664.382 Q 6799.167 3662.754 6799.710 3659.497 Q 6800.254 3656.239 6800.398 3654.314 Q 6800.543 3652.389 6800.539 3651.135 Q 6800.534 3649.880 6800.709 3645.383 Q 6800.885 3640.885 6801.270 3637.043 Q 6801.654 3633.201 6801.718 3629.728 Q 6801.782 3626.254 6801.834 3624.105 Q 6801.886 3621.956 6801.971 3618.316 Q 6802.056 3614.676 6801.718 3611.042 Q 6801.380 3607.408 6801.232 3605.469 Q 6801.084 3603.529 6801.119 3601.447 Q 6801.153 3599.365 6801.135 3597.904 Q 6801.116 3596.444 6801.327 3593.502 Q 6801.538 3590.561 6801.506 3587.859 Q 6801.475 3585.157 6801.447 3583.746 Q 6801.419 3582.335 6801.381 3578.804 Q 6801.343 3575.273 6801.386 3571.690 Q 6801.386 3571.789 6801.386 3571.894 Q 6801.437 3572.547 6801.312 3570.360 Q 6801.257 3570.379 6801.201 3570.397 "></path>
    <path id="STROKE_8b2e6a7e-a1a3-4e10-8279-cdd8106747a7" opacity="1.000" fill="none" stroke="#6ac0c8" stroke-width="2.720" stroke-opacity="1.000" stroke-linecap="round" stroke-linejoin="round" d="M 6793.452 3572.836 Q 6793.783 3572.804 6792.878 3572.910 Q 6792.597 3572.883 6792.981 3571.987 Q 6793.365 3571.091 6794.107 3570.013 Q 6794.849 3568.936 6795.612 3568.065 Q 6796.376 3567.195 6797.049 3566.537 Q 6797.722 3565.879 6798.405 3565.701 Q 6799.088 3565.523 6799.493 3565.518 Q 6799.898 3565.512 6800.171 3565.682 Q 6800.444 3565.851 6800.768 3566.211 Q 6801.091 3566.572 6801.842 3568.352 Q 6802.592 3570.132 6802.830 3571.035 Q 6803.068 3571.937 6803.372 3572.494 Q 6803.676 3573.051 6804.364 3573.068 Q 6805.052 3573.085 6805.193 3573.104 "></path>
    <path id="STROKE_bf4461b3-f98d-4b94-a5df-af2abbd126d0" opacity="1.000" fill="none" stroke="#6ac0c8" stroke-width="2.639" stroke-opacity="1.000" stroke-linecap="round" stroke-linejoin="round" d="M 6743.106 3602.522 Q 6742.796 3601.918 6742.816 3601.912 Q 6742.622 3601.428 6742.561 3601.053 Q 6742.499 3600.679 6742.517 3600.808 Q 6742.534 3600.938 6742.545 3600.564 Q 6743.257 3600.740 6743.149 3600.818 Q 6743.208 3600.817 6743.824 3601.574 Q 6744.439 3602.331 6750.782 3609.782 Q 6750.954 3609.663 6750.388 3609.542 Q 6750.388 3609.565 6750.388 3609.699 Q 6751.104 3608.403 6751.074 3608.647 Q 6751.045 3608.890 6753.175 3604.618 Q 6755.305 3600.345 6757.257 3595.622 Q 6757.294 3595.622 6757.312 3595.622 Q 6757.312 3596.255 6757.312 3596.126 Q 6757.312 3597.078 6757.312 3596.800 Q 6757.337 3597.054 6757.362 3597.229 "></path>
    <path id="STROKE_7e497c6b-953b-4fd7-80fe-df3ff915889e" opacity="1.000" fill="none" stroke="#6ac0c8" stroke-width="2.720" stroke-opacity="1.000" stroke-linecap="round" stroke-linejoin="round" d="M 6757.165 3607.464 Q 6757.165 3607.464 6757.165 3607.482 Q 6757.021 3607.310 6757.834 3607.855 Q 6758.647 3608.401 6759.184 3608.875 Q 6759.720 3609.350 6760.042 3609.663 Q 6760.364 3609.977 6760.585 3610.193 Q 6760.807 3610.409 6760.960 3610.542 Q 6761.114 3610.676 6761.257 3610.849 Q 6761.401 3611.021 6761.806 3611.214 Q 6762.210 3611.407 6762.364 3611.509 "></path>
    <path id="STROKE_cd1e6b07-3b61-4f73-99c9-26de18ae7841" opacity="1.000" fill="none" stroke="#6ac0c8" stroke-width="2.704" stroke-opacity="1.000" stroke-linecap="round" stroke-linejoin="round" d="M 6766.394 3605.542 Q 6766.563 3605.957 6760.584 3620.995 Q 6760.621 3621.032 6760.790 3621.023 Q 6760.959 3621.014 6761.120 3620.995 "></path>
    <path id="STROKE_6a80ff16-9b28-473b-9df7-f385a262326e" opacity="1.000" fill="none" stroke="#6ac0c8" stroke-width="2.720" stroke-opacity="1.000" stroke-linecap="round" stroke-linejoin="round" d="M 6814.817 3681.245 Q 6814.816 3681.245 6815.222 3681.453 Q 6815.628 3681.660 6815.543 3681.716 Q 6815.881 3681.922 6819.269 3685.877 Q 6822.656 3689.832 6825.623 3694.463 Q 6825.294 3694.465 6827.320 3690.265 Q 6829.346 3686.066 6832.061 3681.245 L 6832.079 3681.245 Q 6832.079 3681.263 6832.079 3681.365 Q 6832.248 3681.430 6832.259 3681.412 Q 6832.270 3681.394 6832.569 3681.221 Q 6832.868 3681.048 6832.979 3680.931 Q 6832.979 3680.968 6832.979 3681.077 Q 6832.979 3681.185 6832.979 3681.365 "></path>
    <path id="STROKE_4da8b335-33f5-4f85-928b-9cb4fce5af1a" opacity="1.000" fill="none" stroke="#6ac0c8" stroke-width="2.720" stroke-opacity="1.000" stroke-linecap="round" stroke-linejoin="round" d="M 6836.502 3687.360 Q 6836.269 3687.366 6836.194 3686.658 Q 6836.161 3686.212 6837.598 3687.658 Q 6839.035 3689.104 6840.026 3690.972 Q 6841.017 3692.840 6841.586 3694.197 Q 6842.155 3695.554 6843.254 3696.208 Q 6843.409 3695.929 6843.458 3695.842 Q 6843.507 3695.756 6843.587 3695.635 "></path>
    <path id="STROKE_230b0605-afc8-4e02-b807-36b6e3e4bff5" opacity="1.000" fill="none" stroke="#6ac0c8" stroke-width="2.720" stroke-opacity="1.000" stroke-linecap="round" stroke-linejoin="round" d="M 6844.992 3685.161 Q 6845.104 3685.346 6844.292 3684.860 Q 6843.481 3684.375 6842.007 3686.862 Q 6840.533 3689.350 6839.109 3692.097 Q 6837.686 3694.843 6835.677 3698.305 Q 6835.956 3697.538 6836.454 3697.099 Q 6836.952 3696.661 6837.130 3696.504 "></path>
    <path id="STROKE_a05dbd35-ecaa-43db-9979-cc23bf65bbd2" opacity="1.000" fill="none" stroke="#f3ba38" stroke-width="2.366" stroke-opacity="1.000" stroke-linecap="round" stroke-linejoin="round" d="M 6895.916 3668.000 Q 6895.542 3668.000 6895.411 3668.000 L 6900.000 3668.000 L 6890.000 3668.000 Q 6894.804 3668.000 6900.000 3668.000 Q 6905.466 3668.000 6910.000 3668.000 Q 6915.495 3668.000 6920.000 3668.000 Q 6925.476 3668.000 6930.000 3668.000 Q 6935.653 3668.000 6940.000 3668.000 Q 6945.116 3668.000 6950.000 3668.000 Q 6955.453 3668.000 6960.000 3668.000 "></path>
    <path id="STROKE_df9026ae-f87d-4e1f-b56e-3e9b68ed9661" opacity="1.000" fill="none" stroke="#6ac0c8" stroke-width="2.720" stroke-opacity="1.000" stroke-linecap="round" stroke-linejoin="round" d="M 6873.734 3583.347 Q 6873.776 3583.326 6873.424 3583.378 Q 6873.673 3583.321 6875.739 3582.759 Q 6877.806 3582.196 6879.416 3582.033 Q 6881.025 3581.869 6881.755 3581.824 Q 6882.484 3581.779 6883.283 3581.889 Q 6884.083 3582.000 6884.183 3583.099 Q 6884.282 3584.197 6883.784 3585.407 Q 6883.285 3586.616 6882.992 3587.747 Q 6882.700 3588.878 6882.676 3589.913 Q 6882.651 3590.948 6882.555 3591.690 Q 6882.459 3592.433 6882.382 3592.561 "></path>
    <path id="STROKE_60e7f7f8-23c4-4146-afd2-0e1e3884579b" opacity="1.000" fill="none" stroke="#6ac0c8" stroke-width="2.040" stroke-opacity="1.000" stroke-linecap="round" stroke-linejoin="round" d="M 6809.498 3620.478 Q 6809.433 3620.407 6808.977 3619.690 Q 6809.510 3619.169 6811.710 3620.530 Q 6813.911 3621.891 6815.514 3622.947 Q 6817.117 3624.003 6818.144 3624.566 Q 6819.170 3625.129 6820.799 3625.329 Q 6820.997 3625.426 6819.996 3622.925 Q 6818.996 3620.423 6818.514 3618.825 Q 6818.032 3617.227 6817.774 3616.159 Q 6817.517 3615.091 6817.588 3613.225 Q 6817.628 3613.213 6817.688 3613.213 Q 6817.747 3613.213 6817.836 3613.213 "></path>
    <path id="STROKE_f3f7f7ab-a941-4dd5-9c7c-9f95185f9723" opacity="1.000" fill="none" stroke="#6ac0c8" stroke-width="2.040" stroke-opacity="1.000" stroke-linecap="round" stroke-linejoin="round" d="M 6821.300 3614.411 Q 6821.278 3613.692 6825.122 3610.955 Q 6828.966 3608.218 6829.174 3608.050 "></path>
    <path id="STROKE_643a929d-0f6e-41bf-b78c-65f0537cfd97" opacity="1.000" fill="none" stroke="#6ac0c8" stroke-width="2.040" stroke-opacity="1.000" stroke-linecap="round" stroke-linejoin="round" d="M 6825.237 3616.818 Q 6825.584 3616.797 6825.551 3616.769 Q 6825.694 3616.829 6828.704 3614.333 Q 6831.713 3611.838 6832.100 3611.551 "></path>
    <path id="STROKE_232c0250-7fed-4d7b-9245-a6fade775b09" opacity="1.000" fill="none" stroke="#6ac0c8" stroke-width="1.957" stroke-opacity="1.000" stroke-linecap="round" stroke-linejoin="round" d="M 6833.885 3606.859 Q 6833.695 3607.066 6833.657 3607.091 Q 6833.542 3607.344 6834.313 3605.415 Q 6835.084 3603.485 6835.829 3600.437 Q 6836.004 3600.157 6837.212 3602.757 Q 6838.420 3605.357 6841.709 3608.545 Q 6841.953 3608.360 6841.736 3606.825 Q 6841.520 3605.290 6840.605 3602.212 Q 6839.691 3599.133 6838.880 3596.779 Q 6838.069 3594.426 6837.180 3592.388 Q 6836.290 3590.351 6835.152 3587.828 Q 6834.015 3585.305 6833.258 3583.756 Q 6832.501 3582.207 6831.717 3580.677 Q 6831.706 3580.834 6831.762 3580.893 Q 6831.819 3580.952 6831.896 3581.044 "></path>
    <path id="STROKE_f4db6fb2-4cb2-46fa-b1ed-681a4554b72f" opacity="1.000" fill="none" stroke="#6ac0c8" stroke-width="2.040" stroke-opacity="1.000" stroke-linecap="round" stroke-linejoin="round" d="M 6839.974 3592.017 Q 6839.437 3591.704 6839.640 3591.782 Q 6839.640 3591.742 6839.640 3591.718 Q 6839.911 3591.449 6842.167 3592.098 Q 6844.423 3592.746 6847.872 3594.791 Q 6847.568 3594.237 6847.195 3586.518 Q 6847.195 3586.582 6847.195 3586.646 "></path>
    <path id="STROKE_59f79e36-b5da-4dcd-9657-0deb8bb6a1fc" opacity="1.000" fill="none" stroke="#6ac0c8" stroke-width="2.040" stroke-opacity="1.000" stroke-linecap="round" stroke-linejoin="round" d="M 6851.059 3589.164 Q 6851.072 3589.099 6850.977 3589.356 Q 6850.785 3589.207 6853.619 3590.119 Q 6856.454 3591.031 6856.674 3591.107 "></path>
    <path id="STROKE_77ed6bb5-b6dd-42b1-9030-a6ef54026bc0" opacity="1.000" fill="none" stroke="#6ac0c8" stroke-width="2.040" stroke-opacity="1.000" stroke-linecap="round" stroke-linejoin="round" d="M 6853.667 3585.504 Q 6853.954 3585.525 6854.409 3595.078 Q 6854.437 3595.078 6854.461 3595.078 Q 6854.467 3595.145 6854.509 3594.670 Q 6854.551 3594.196 6854.580 3593.936 "></path>
    <path id="STROKE_7f859096-81f1-4d3f-8fb3-913edff533ff" opacity="1.000" fill="none" stroke="#6ac0c8" stroke-width="2.040" stroke-opacity="1.000" stroke-linecap="round" stroke-linejoin="round" d="M 6846.421 3578.783 Q 6846.420 3578.301 6846.421 3578.432 Q 6846.421 3578.023 6846.421 3578.059 Q 6846.333 3577.839 6847.127 3577.446 Q 6847.922 3577.053 6848.602 3577.047 Q 6849.281 3577.041 6849.672 3577.144 Q 6850.062 3577.248 6850.459 3577.447 Q 6850.857 3577.646 6851.467 3578.333 Q 6852.078 3579.020 6852.365 3580.159 Q 6852.653 3581.298 6852.665 3581.877 Q 6852.677 3582.457 6852.635 3582.687 Q 6852.593 3582.917 6852.396 3583.095 Q 6852.199 3583.273 6852.029 3583.271 Q 6851.860 3583.270 6851.721 3583.264 Q 6851.581 3583.258 6851.486 3583.286 Q 6851.391 3583.314 6850.972 3583.187 Q 6850.552 3583.059 6850.037 3582.622 Q 6849.521 3582.186 6849.257 3581.681 Q 6848.992 3581.177 6849.058 3580.735 Q 6849.124 3580.293 6849.330 3580.073 Q 6849.536 3579.852 6849.729 3579.724 Q 6849.921 3579.595 6850.079 3579.528 Q 6850.236 3579.461 6851.656 3578.702 Q 6853.076 3577.943 6853.284 3577.775 "></path>
    <path id="STROKE_44153866-8eb3-4d7a-a1e7-874e88139845" opacity="1.000" fill="none" stroke="#6ac0c8" stroke-width="2.040" stroke-opacity="1.000" stroke-linecap="round" stroke-linejoin="round" d="M 6858.590 3576.266 Q 6858.590 3576.266 6858.590 3576.260 Q 6858.590 3576.253 6858.590 3576.137 Q 6858.798 3575.819 6860.117 3577.524 Q 6861.437 3579.228 6863.040 3582.779 Q 6863.003 3582.806 6862.967 3582.834 "></path>
    <path id="STROKE_59e0412f-b01f-4224-a545-ba4b806c1596" opacity="1.000" fill="none" stroke="#6ac0c8" stroke-width="2.040" stroke-opacity="1.000" stroke-linecap="round" stroke-linejoin="round" d="M 6858.280 3582.626 Q 6858.227 3582.569 6858.370 3581.782 Q 6858.512 3580.994 6861.019 3579.415 Q 6863.525 3577.836 6863.823 3577.616 "></path>
    <path id="STROKE_9da1de30-234a-4b5a-b624-33b2c2d10302" opacity="1.000" fill="none" stroke="#6ac0c8" stroke-width="2.040" stroke-opacity="1.000" stroke-linecap="round" stroke-linejoin="round" d="M 6865.062 3571.885 Q 6865.062 3571.885 6865.150 3572.041 Q 6865.240 3572.197 6872.247 3576.553 Q 6872.403 3576.123 6871.882 3573.590 Q 6871.361 3571.057 6870.777 3568.706 Q 6870.192 3566.355 6870.140 3566.331 "></path>
    <path id="STROKE_eec55795-2a4e-461c-9094-059ba9b7ddfe" opacity="1.000" fill="none" stroke="#6ac0c8" stroke-width="2.040" stroke-opacity="1.000" stroke-linecap="round" stroke-linejoin="round" d="M 6875.005 3572.868 Q 6874.953 3572.871 6874.696 3572.789 Q 6875.048 3572.646 6876.885 3573.323 Q 6878.722 3573.999 6878.917 3574.090 "></path>
    <path id="STROKE_afbc86df-cc4a-4f1c-bdbd-9d1e7a189009" opacity="1.000" fill="none" stroke="#6ac0c8" stroke-width="2.040" stroke-opacity="1.000" stroke-linecap="round" stroke-linejoin="round" d="M 6879.228 3570.247 Q 6879.058 3570.329 6879.160 3572.814 Q 6879.263 3575.299 6880.430 3579.406 Q 6880.454 3579.366 6880.466 3579.327 "></path>
    <path id="STROKE_3a261243-dcec-40fc-b580-d6a693d5874e" opacity="1.000" fill="none" stroke="#6ac0c8" stroke-width="2.040" stroke-opacity="1.000" stroke-linecap="round" stroke-linejoin="round" d="M 6876.351 3562.646 Q 6876.239 3562.521 6876.392 3562.408 Q 6876.543 3562.295 6876.733 3562.195 Q 6876.923 3562.095 6876.970 3562.144 Q 6877.016 3562.192 6877.294 3562.123 Q 6877.572 3562.053 6878.429 3562.732 Q 6879.285 3563.410 6879.867 3564.184 Q 6880.449 3564.958 6880.595 3565.604 Q 6880.742 3566.250 6880.731 3566.677 Q 6880.722 3567.105 6880.518 3567.319 Q 6880.313 3567.532 6879.876 3567.573 Q 6879.438 3567.613 6879.010 3567.364 Q 6878.581 3567.115 6878.338 3566.750 Q 6878.096 3566.387 6877.982 3566.274 Q 6877.869 3566.161 6877.705 3565.814 Q 6877.542 3565.467 6877.471 3565.104 Q 6877.399 3564.741 6877.879 3564.495 Q 6878.358 3564.250 6878.787 3564.056 Q 6879.216 3563.862 6879.507 3563.674 Q 6879.798 3563.486 6879.978 3563.343 "></path>
    <path id="STROKE_756d081a-d20b-46f1-aeff-12a051f02c67" opacity="1.000" fill="none" stroke="#6ac0c8" stroke-width="1.971" stroke-opacity="1.000" stroke-linecap="round" stroke-linejoin="round" d="M 6833.135 3580.732 Q 6833.011 3580.308 6835.000 3578.553 Q 6836.988 3576.798 6838.569 3575.692 Q 6840.150 3574.587 6841.958 3573.552 Q 6843.765 3572.517 6846.476 3571.028 Q 6849.188 3569.538 6850.985 3568.364 Q 6852.782 3567.190 6854.334 3566.092 Q 6855.886 3564.994 6857.211 3564.389 Q 6858.536 3563.783 6859.339 3563.398 Q 6860.143 3563.013 6860.982 3562.417 Q 6861.823 3561.821 6864.070 3559.826 Q 6866.317 3557.830 6867.585 3556.722 Q 6868.854 3555.613 6870.520 3554.450 Q 6872.187 3553.288 6873.159 3552.628 Q 6874.132 3551.968 6876.219 3550.501 Q 6878.305 3549.035 6880.939 3547.909 Q 6880.923 3547.909 6880.906 3547.909 Q 6880.962 3547.804 6880.856 3548.525 Q 6880.750 3549.246 6883.238 3552.601 Q 6883.214 3552.559 6883.104 3552.443 Q 6882.993 3552.328 6882.984 3552.321 Q 6882.975 3552.314 6882.874 3552.239 Q 6882.773 3552.165 6882.667 3552.088 "></path>
    <path id="STROKE_b3986a68-d76b-4bbd-a0f1-6966b0ba6f82" opacity="1.000" fill="none" stroke="#6ac0c8" stroke-width="2.040" stroke-opacity="1.000" stroke-linecap="round" stroke-linejoin="round" d="M 6933.124 3560.603 Q 6933.154 3560.280 6933.184 3559.584 Q 6933.100 3559.641 6933.063 3560.371 Q 6933.027 3561.101 6933.111 3561.611 Q 6933.195 3562.122 6933.477 3562.449 Q 6933.758 3562.775 6934.154 3562.767 Q 6934.549 3562.758 6934.715 3562.773 Q 6934.880 3562.788 6935.286 3562.351 Q 6935.692 3561.914 6935.840 3561.475 Q 6935.988 3561.037 6935.990 3560.609 Q 6935.992 3560.182 6936.001 3560.171 Q 6936.011 3560.161 6935.994 3560.099 Q 6935.978 3560.036 6935.981 3560.095 Q 6935.985 3560.155 6935.822 3559.870 Q 6935.659 3559.585 6935.125 3559.352 Q 6934.591 3559.120 6934.191 3559.149 Q 6933.792 3559.179 6933.373 3559.191 Q 6932.953 3559.204 6932.634 3559.950 Q 6932.315 3560.696 6932.293 3561.091 Q 6932.271 3561.486 6932.459 3561.998 Q 6932.647 3562.510 6933.435 3562.667 Q 6934.221 3562.825 6934.670 3562.738 Q 6935.120 3562.652 6935.286 3562.612 Q 6935.452 3562.572 6935.651 3562.130 Q 6935.851 3561.689 6935.826 3561.350 Q 6935.802 3561.010 6935.271 3560.688 Q 6934.739 3560.365 6934.121 3560.313 Q 6933.503 3560.260 6933.385 3560.234 Q 6933.267 3560.208 6933.058 3560.837 Q 6932.849 3561.466 6933.097 3561.921 Q 6933.344 3562.375 6933.572 3562.691 Q 6933.799 3563.006 6934.429 3563.181 Q 6935.059 3563.356 6935.298 3562.970 Q 6935.537 3562.584 6935.545 3562.441 Q 6935.554 3562.299 6935.667 3561.902 Q 6935.779 3561.506 6935.611 3561.058 Q 6935.443 3560.610 6935.230 3560.490 Q 6935.018 3560.369 6934.876 3560.357 Q 6934.735 3560.344 6934.443 3560.406 Q 6934.152 3560.468 6934.108 3561.720 Q 6934.257 3561.778 6934.402 3561.749 Q 6934.547 3561.720 6934.652 3561.679 "></path>
    <path id="STROKE_b173919a-fb2f-4a14-a65b-c8ac8fc318c6" opacity="1.000" fill="none" stroke="#6ac0c8" stroke-width="2.040" stroke-opacity="1.000" stroke-linecap="round" stroke-linejoin="round" d="M 6934.762 3561.951 Q 6934.762 3561.951 6934.763 3561.677 Q 6934.763 3561.402 6934.762 3561.572 Q 6934.811 3560.915 6934.832 3561.215 Q 6934.853 3561.516 6935.037 3557.586 Q 6935.221 3553.656 6935.245 3551.110 Q 6935.270 3548.565 6935.092 3546.470 Q 6934.914 3544.375 6934.827 3542.564 Q 6934.741 3540.754 6934.663 3534.863 Q 6934.585 3528.972 6934.725 3523.917 Q 6934.864 3518.862 6935.080 3516.481 Q 6935.295 3514.101 6935.264 3512.083 Q 6935.233 3510.066 6935.307 3508.868 Q 6935.379 3507.669 6934.923 3503.919 Q 6934.907 3504.072 6934.942 3504.132 Q 6934.978 3504.191 6935.032 3504.274 "></path>
    <path id="STROKE_1a5d2d5c-ac2c-4a97-b4ca-e3e159038e22" opacity="1.000" fill="none" stroke="#6ac0c8" stroke-width="2.040" stroke-opacity="1.000" stroke-linecap="round" stroke-linejoin="round" d="M 6929.266 3508.141 Q 6928.908 3508.244 6928.194 3508.305 Q 6928.039 3508.222 6928.696 3507.525 Q 6929.354 3506.829 6930.634 3505.296 Q 6931.914 3503.764 6933.244 3502.104 Q 6934.575 3500.444 6936.240 3499.324 Q 6936.325 3499.486 6936.892 3501.028 Q 6937.459 3502.571 6938.215 3504.134 Q 6938.971 3505.698 6939.077 3505.831 "></path>
    <path id="STROKE_e30396b0-91c8-4aa8-9e1e-e0ffff9acca9" opacity="1.000" fill="none" stroke="#6ac0c8" stroke-width="2.040" stroke-opacity="1.000" stroke-linecap="round" stroke-linejoin="round" d="M 6908.454 3525.236 Q 6908.458 3525.249 6908.293 3524.806 Q 6908.289 3524.955 6909.491 3526.580 Q 6910.693 3528.205 6911.378 3529.121 Q 6912.062 3530.038 6912.629 3530.501 Q 6913.196 3530.965 6913.962 3531.015 Q 6914.729 3531.065 6917.425 3523.647 Q 6917.502 3523.732 6917.495 3524.147 Q 6917.488 3524.562 6917.488 3524.723 "></path>
    <path id="STROKE_be3b5c3c-418d-462a-b74f-afe4e83be573" opacity="1.000" fill="none" stroke="#6ac0c8" stroke-width="2.040" stroke-opacity="1.000" stroke-linecap="round" stroke-linejoin="round" d="M 6917.090 3530.103 Q 6917.330 3530.562 6917.332 3530.559 Q 6917.374 3530.523 6917.383 3530.670 Q 6917.393 3530.818 6918.301 3532.200 Q 6919.209 3533.583 6920.120 3534.126 Q 6921.030 3534.669 6921.194 3534.723 "></path>
    <path id="STROKE_e401b3fe-ad72-4bcf-877b-675a13c68924" opacity="1.000" fill="none" stroke="#6ac0c8" stroke-width="1.881" stroke-opacity="1.000" stroke-linecap="round" stroke-linejoin="round" d="M 6922.857 3530.451 Q 6922.985 3530.807 6922.035 3534.273 Q 6921.085 3537.739 6920.173 3541.951 Q 6920.198 3541.951 6920.224 3541.951 "></path>
    <path id="STROKE_0108c887-a812-4662-9dad-ff32a95e2e6d" opacity="1.000" fill="none" stroke="#6ac0c8" stroke-width="2.030" stroke-opacity="1.000" stroke-linecap="round" stroke-linejoin="round" d="M 6934.120 3561.413 Q 6934.121 3561.413 6934.130 3561.369 Q 6934.139 3561.324 6940.250 3561.473 Q 6946.361 3561.622 6951.135 3561.491 Q 6955.908 3561.360 6958.277 3561.105 Q 6960.646 3560.850 6962.535 3560.812 Q 6964.425 3560.773 6967.055 3560.651 Q 6969.684 3560.529 6971.162 3560.433 Q 6972.639 3560.336 6976.714 3560.083 Q 6980.789 3559.830 6983.103 3559.512 Q 6985.416 3559.195 6987.336 3559.171 Q 6989.256 3559.148 6992.110 3559.013 Q 6994.965 3558.877 6997.485 3558.674 Q 7000.005 3558.471 7002.087 3558.375 Q 7002.185 3558.384 7001.859 3558.374 Q 7001.534 3558.363 7001.411 3558.350 "></path>
    <path id="STROKE_c5ead845-2c52-4fe5-9f17-9f85bf0378c7" opacity="1.000" fill="none" stroke="#6ac0c8" stroke-width="2.040" stroke-opacity="1.000" stroke-linecap="round" stroke-linejoin="round" d="M 6954.527 3569.743 Q 6954.535 3569.843 6954.502 3569.192 Q 6954.742 3568.594 6956.463 3571.194 Q 6958.185 3573.794 6958.882 3575.235 Q 6959.579 3576.675 6960.006 3577.364 Q 6960.434 3578.052 6960.722 3578.350 Q 6961.009 3578.648 6961.215 3578.754 Q 6961.420 3578.859 6961.507 3578.817 Q 6961.593 3578.774 6961.695 3578.730 Q 6961.797 3578.685 6961.926 3578.422 Q 6962.055 3578.159 6962.239 3577.868 Q 6962.422 3577.578 6963.137 3575.296 Q 6963.851 3573.014 6964.326 3571.574 Q 6964.802 3570.135 6965.258 3569.395 Q 6965.293 3569.864 6965.316 3569.845 Q 6965.338 3569.825 6965.394 3569.932 "></path>
    <path id="STROKE_27834bf3-74e8-409e-be97-f35482e68b4b" opacity="1.000" fill="none" stroke="#6ac0c8" stroke-width="2.040" stroke-opacity="1.000" stroke-linecap="round" stroke-linejoin="round" d="M 6967.268 3576.812 Q 6967.600 3576.812 6967.551 3576.812 Q 6968.259 3576.953 6968.036 3576.933 Q 6968.320 3576.887 6969.416 3578.426 Q 6970.512 3579.964 6971.110 3580.837 Q 6971.708 3581.710 6971.988 3581.983 Q 6972.269 3582.255 6972.552 3582.222 Q 6972.836 3582.189 6972.958 3582.135 "></path>
    <path id="STROKE_cf58b970-65cb-478e-a369-94c001ab9158" opacity="1.000" fill="none" stroke="#6ac0c8" stroke-width="1.838" stroke-opacity="1.000" stroke-linecap="round" stroke-linejoin="round" d="M 6972.738 3575.281 Q 6972.128 3575.281 6972.245 3575.281 Q 6971.863 3575.280 6971.869 3575.293 Q 6971.647 3575.207 6969.648 3578.022 Q 6967.648 3580.838 6965.984 3584.648 Q 6965.997 3584.660 6966.151 3584.619 Q 6966.305 3584.578 6966.440 3584.496 "></path>
    <path id="STROKE_b3759e49-7339-4291-babc-317671c8f73a" opacity="1.000" fill="none" stroke="#6ac0c8" stroke-width="2.040" stroke-opacity="1.000" stroke-linecap="round" stroke-linejoin="round" d="M 6935.758 3560.742 Q 6935.785 3560.804 6934.788 3561.306 Q 6935.326 3561.089 6935.223 3561.113 Q 6935.381 3561.305 6939.178 3558.407 Q 6942.976 3555.510 6945.299 3553.651 Q 6947.623 3551.792 6948.933 3550.875 Q 6950.244 3549.957 6951.317 3549.289 Q 6952.391 3548.622 6954.779 3546.856 Q 6957.168 3545.091 6958.665 3543.895 Q 6960.161 3542.698 6961.598 3541.784 Q 6963.034 3540.869 6964.777 3539.443 Q 6966.521 3538.017 6967.762 3536.922 Q 6969.004 3535.827 6969.979 3535.193 Q 6970.953 3534.559 6973.071 3533.008 Q 6975.188 3531.457 6976.339 3530.490 Q 6977.489 3529.524 6978.731 3528.560 Q 6979.973 3527.596 6980.874 3526.927 Q 6981.774 3526.257 6983.243 3525.309 Q 6984.713 3524.361 6987.597 3522.275 Q 6990.480 3520.190 6992.138 3518.911 Q 6993.795 3517.631 6994.667 3516.937 Q 6995.539 3516.242 6996.542 3515.605 Q 6997.545 3514.968 6999.087 3513.884 Q 7000.630 3512.801 7001.384 3512.089 Q 7002.138 3511.377 7002.845 3510.846 Q 7003.552 3510.314 7003.911 3510.077 Q 7004.271 3509.840 7004.388 3509.778 Q 7004.506 3509.715 7004.561 3509.687 Q 7004.615 3509.658 7004.681 3509.607 Q 7004.748 3509.556 7004.614 3509.668 Q 7004.480 3509.780 7006.376 3508.546 Q 7006.376 3508.559 7006.311 3508.620 Q 7006.245 3508.682 7006.165 3508.736 "></path>
    <path id="STROKE_9c1407bf-e2d2-4e7b-9c82-f80386729b52" opacity="1.000" fill="none" stroke="#6ac0c8" stroke-width="2.040" stroke-opacity="1.000" stroke-linecap="round" stroke-linejoin="round" d="M 6999.773 3506.476 Q 6999.773 3506.476 6999.787 3506.372 Q 6999.800 3506.268 7000.023 3506.211 Q 7000.247 3506.153 7000.256 3506.159 Q 7000.266 3506.166 7000.325 3506.178 Q 7000.384 3506.191 7002.742 3506.175 Q 7005.100 3506.159 7006.521 3506.150 Q 7007.941 3506.141 7008.508 3506.211 Q 7009.076 3506.282 7009.901 3506.611 Q 7010.727 3506.941 7010.546 3507.867 Q 7010.365 3508.793 7009.984 3509.558 Q 7009.603 3510.324 7009.229 3511.343 Q 7008.855 3512.361 7008.726 3512.868 Q 7008.595 3513.375 7008.552 3513.725 Q 7008.509 3514.074 7008.521 3514.206 Q 7008.533 3514.337 7008.546 3514.407 "></path>
    <path id="STROKE_6ab4eb00-6708-44a1-b906-13756e08b281" opacity="1.000" fill="none" stroke="#6ac0c8" stroke-width="2.040" stroke-opacity="1.000" stroke-linecap="round" stroke-linejoin="round" d="M 7099.384 3526.503 Q 7099.431 3526.301 7099.115 3526.019 Q 7098.800 3525.738 7098.718 3525.783 Q 7098.636 3525.828 7098.677 3525.794 Q 7098.719 3525.761 7098.569 3525.897 Q 7098.419 3526.034 7098.403 3526.420 Q 7098.388 3526.806 7098.462 3527.052 Q 7098.537 3527.299 7098.733 3527.529 Q 7098.929 3527.758 7099.222 3527.975 Q 7099.515 3528.191 7099.913 3528.262 Q 7100.312 3528.334 7100.415 3528.353 Q 7100.518 3528.371 7100.947 3528.263 Q 7101.377 3528.155 7101.312 3528.165 Q 7101.247 3528.175 7101.332 3527.843 Q 7101.417 3527.510 7101.453 3527.133 Q 7101.489 3526.755 7101.216 3526.350 Q 7100.942 3525.944 7100.257 3525.723 Q 7099.571 3525.502 7099.192 3525.899 Q 7098.813 3526.296 7098.637 3526.994 Q 7098.461 3527.692 7098.513 3528.080 Q 7098.564 3528.469 7098.667 3528.727 Q 7098.769 3528.984 7099.009 3529.065 Q 7099.249 3529.147 7099.549 3529.165 Q 7099.849 3529.182 7100.173 3529.132 Q 7100.497 3529.081 7100.768 3528.756 Q 7101.039 3528.432 7101.209 3527.885 Q 7101.378 3527.339 7101.381 3526.869 Q 7101.383 3526.399 7101.452 3526.217 Q 7101.521 3526.036 7101.066 3525.758 Q 7100.611 3525.479 7100.382 3525.491 Q 7100.153 3525.502 7099.851 3525.535 Q 7099.547 3525.568 7099.347 3525.890 Q 7099.146 3526.211 7099.174 3526.167 Q 7099.202 3526.123 7099.169 3526.373 Q 7099.136 3526.623 7099.164 3526.776 Q 7099.191 3526.929 7099.228 3526.995 "></path>
    <path id="STROKE_96c41e75-7d2b-4b73-abd6-ff592e1021c1" opacity="1.000" fill="none" stroke="#6ac0c8" stroke-width="1.897" stroke-opacity="1.000" stroke-linecap="round" stroke-linejoin="round" d="M 7098.863 3526.433 Q 7098.856 3526.158 7098.879 3526.167 Q 7098.878 3525.914 7102.309 3525.806 Q 7105.740 3525.699 7110.172 3525.164 Q 7114.604 3524.628 7119.897 3524.308 Q 7125.189 3523.988 7128.920 3523.547 Q 7132.650 3523.106 7135.303 3523.057 Q 7137.955 3523.007 7140.641 3522.553 Q 7143.327 3522.098 7145.823 3521.659 Q 7148.318 3521.219 7151.639 3521.247 Q 7154.958 3521.275 7160.112 3520.894 Q 7160.091 3520.894 7159.901 3520.868 Q 7159.711 3520.843 7159.674 3520.792 "></path>
    <path id="STROKE_ba7decec-1e95-431b-9ce3-d6f646f872fe" opacity="1.000" fill="none" stroke="#6ac0c8" stroke-width="2.040" stroke-opacity="1.000" stroke-linecap="round" stroke-linejoin="round" d="M 7155.808 3517.081 Q 7155.808 3517.062 7155.823 3516.730 Q 7156.445 3516.137 7159.159 3517.222 Q 7161.874 3518.306 7163.458 3519.029 Q 7165.042 3519.752 7165.699 3520.201 Q 7166.355 3520.649 7166.653 3521.056 Q 7166.950 3521.462 7167.056 3521.859 Q 7167.161 3522.256 7167.104 3522.585 Q 7167.047 3522.914 7164.899 3523.659 Q 7162.751 3524.404 7159.581 3526.503 Q 7159.596 3526.503 7159.688 3526.519 Q 7159.778 3526.534 7159.945 3526.566 "></path>
    <path id="STROKE_b0f4a687-e38c-49a4-b96f-9e62103d7cbf" opacity="1.000" fill="none" stroke="#6ac0c8" stroke-width="2.040" stroke-opacity="1.000" stroke-linecap="round" stroke-linejoin="round" d="M 7121.236 3532.313 Q 7121.394 3532.381 7121.421 3532.406 Q 7121.447 3532.432 7121.484 3532.455 Q 7121.522 3532.478 7121.664 3532.577 Q 7121.806 3532.677 7121.950 3532.767 Q 7122.093 3532.856 7122.237 3533.032 Q 7122.382 3533.207 7123.879 3533.968 Q 7125.375 3534.729 7126.345 3535.147 Q 7127.314 3535.566 7127.705 3535.826 Q 7128.095 3536.086 7128.234 3536.356 Q 7128.256 3536.321 7128.301 3536.194 Q 7128.346 3536.067 7128.404 3535.961 "></path>
    <path id="STROKE_a06bf0b8-1fb0-4011-a583-28c5d0b7023b" opacity="1.000" fill="none" stroke="#6ac0c8" stroke-width="2.040" stroke-opacity="1.000" stroke-linecap="round" stroke-linejoin="round" d="M 7127.783 3536.378 Q 7127.749 3536.202 7127.729 3536.205 Q 7127.649 3535.696 7127.667 3535.765 Q 7127.684 3535.834 7127.690 3535.644 Q 7127.698 3535.453 7127.684 3535.454 Q 7127.670 3535.456 7128.186 3534.482 Q 7128.700 3533.509 7130.077 3529.172 Q 7130.118 3529.200 7130.011 3529.632 Q 7129.904 3530.064 7129.846 3530.177 "></path>
    <path id="STROKE_4d7a8146-2712-48d0-9e5a-3c723527596d" opacity="1.000" fill="none" stroke="#6ac0c8" stroke-width="2.040" stroke-opacity="1.000" stroke-linecap="round" stroke-linejoin="round" d="M 7132.824 3531.026 Q 7132.803 3531.026 7132.633 3531.064 Q 7132.589 3531.332 7132.604 3531.369 Q 7132.618 3531.406 7132.735 3531.582 Q 7132.852 3531.758 7132.953 3531.845 Q 7133.054 3531.932 7133.105 3531.983 Q 7133.157 3532.034 7133.423 3532.240 Q 7133.688 3532.447 7134.961 3533.213 Q 7136.235 3533.979 7137.760 3535.643 Q 7137.771 3535.632 7137.778 3535.568 Q 7137.786 3535.505 7137.800 3535.388 "></path>
    <path id="STROKE_b65650a4-c019-4e7b-961d-a549b22e5ccc" opacity="1.000" fill="none" stroke="#6ac0c8" stroke-width="2.040" stroke-opacity="1.000" stroke-linecap="round" stroke-linejoin="round" d="M 7137.382 3530.269 Q 7137.062 3530.194 7136.772 3530.525 Q 7136.482 3530.855 7136.249 3531.223 Q 7136.016 3531.590 7135.835 3531.931 Q 7135.654 3532.271 7135.569 3532.413 Q 7135.484 3532.554 7134.714 3533.875 Q 7133.945 3535.195 7133.524 3536.074 Q 7133.104 3536.954 7132.939 3537.664 Q 7132.878 3537.715 7132.995 3537.652 Q 7133.111 3537.590 7133.307 3537.403 Q 7133.502 3537.216 7133.654 3537.064 "></path>
    <path id="STROKE_ca467579-8b39-4318-9cd2-88601af741aa" opacity="1.000" fill="none" stroke="#71c047" stroke-width="3.184" stroke-opacity="1.000" stroke-linecap="round" stroke-linejoin="round" d="M 7110.889 3463.658 Q 7110.556 3463.602 7110.593 3463.597 Q 7110.271 3463.457 7109.990 3463.715 Q 7109.708 3463.972 7108.981 3465.342 Q 7108.254 3466.711 7107.359 3469.079 Q 7106.463 3471.446 7106.021 3472.789 Q 7105.579 3474.132 7105.263 3475.187 Q 7104.947 3476.242 7104.662 3477.379 Q 7104.376 3478.515 7104.179 3479.199 Q 7103.980 3479.883 7103.709 3481.742 Q 7103.438 3483.601 7103.817 3485.601 Q 7103.790 3485.592 7103.815 3485.656 Q 7103.841 3485.720 7104.088 3485.462 Q 7104.334 3485.205 7104.427 3485.052 "></path>
    <path id="STROKE_6bc47ff2-9dd0-4655-bab2-7db6d18d145c" opacity="1.000" fill="none" stroke="#71c047" stroke-width="3.230" stroke-opacity="1.000" stroke-linecap="round" stroke-linejoin="round" d="M 7092.427 3488.250 Q 7092.555 3488.374 7093.523 3487.938 Q 7094.492 3487.501 7095.747 3487.614 Q 7097.002 3487.727 7099.373 3487.929 Q 7101.743 3488.132 7103.070 3488.109 Q 7104.396 3488.087 7105.203 3488.087 Q 7106.009 3488.087 7107.913 3487.918 Q 7109.817 3487.749 7111.483 3487.627 Q 7113.149 3487.504 7115.443 3488.583 Q 7115.369 3488.806 7114.546 3489.552 Q 7113.723 3490.298 7113.278 3490.757 Q 7112.834 3491.215 7112.631 3491.555 Q 7112.427 3491.895 7112.259 3492.201 Q 7112.091 3492.506 7111.931 3492.845 Q 7111.771 3493.183 7111.659 3493.399 Q 7111.547 3493.614 7110.182 3496.829 Q 7108.816 3500.043 7108.104 3501.857 Q 7107.391 3503.671 7107.059 3504.612 Q 7106.727 3505.554 7106.591 3506.083 Q 7106.454 3506.611 7106.335 3507.109 Q 7106.215 3507.608 7106.099 3508.087 Q 7105.982 3508.566 7105.883 3510.354 Q 7105.887 3510.044 7105.717 3509.614 Q 7105.547 3509.184 7105.440 3509.007 "></path>
    <path id="STROKE_2aea985d-7835-4e5d-ae31-6e49ccf37b21" opacity="1.000" fill="none" stroke="#71c047" stroke-width="3.230" stroke-opacity="1.000" stroke-linecap="round" stroke-linejoin="round" d="M 7105.225 3508.564 Q 7105.205 3508.531 7104.708 3507.713 Q 7104.211 3506.896 7103.647 3506.253 Q 7103.083 3505.610 7102.764 3505.276 Q 7102.444 3504.942 7102.181 3504.723 Q 7101.917 3504.503 7100.472 3503.125 Q 7099.026 3501.747 7098.149 3500.887 Q 7097.273 3500.026 7096.562 3499.047 Q 7095.850 3498.068 7094.484 3496.163 Q 7093.119 3494.257 7092.477 3493.361 Q 7091.834 3492.465 7091.533 3492.040 Q 7091.231 3491.615 7090.549 3491.251 L 7090.549 3491.238 Q 7090.668 3491.281 7091.501 3491.678 Q 7092.334 3492.075 7092.567 3492.158 "></path>
    <path id="STROKE_533e1c58-c3ef-405a-89cb-992431670dbf" opacity="1.000" fill="none" stroke="#71c047" stroke-width="3.230" stroke-opacity="1.000" stroke-linecap="round" stroke-linejoin="round" d="M 7108.050 3435.175 Q 7107.559 3435.191 7109.024 3437.081 Q 7110.490 3438.971 7111.712 3440.654 Q 7112.933 3442.336 7113.479 3443.215 Q 7114.025 3444.095 7114.851 3446.124 Q 7115.676 3448.153 7117.924 3451.182 Q 7118.242 3451.226 7118.702 3449.301 Q 7119.162 3447.376 7119.346 3445.758 Q 7119.531 3444.140 7119.565 3441.922 Q 7119.601 3439.704 7119.555 3438.202 Q 7119.509 3436.699 7119.550 3435.680 Q 7119.591 3434.661 7119.632 3434.211 Q 7119.672 3433.761 7119.756 3433.562 Q 7119.840 3433.363 7119.861 3433.326 Q 7119.882 3433.289 7120.074 3432.932 Q 7120.267 3432.575 7120.242 3432.606 Q 7120.218 3432.637 7120.225 3432.628 Q 7120.232 3432.620 7120.244 3432.573 Q 7120.257 3432.526 7120.405 3431.977 Q 7120.400 3431.974 7120.408 3432.075 Q 7120.416 3432.177 7120.427 3432.282 "></path>
    <path id="STROKE_f98131c2-969e-4fcb-9066-a712af40d3fe" opacity="1.000" fill="none" stroke="#71c047" stroke-width="3.230" stroke-opacity="1.000" stroke-linecap="round" stroke-linejoin="round" d="M 7124.020 3445.484 Q 7124.020 3445.599 7124.020 3445.179 Q 7124.156 3445.125 7124.426 3445.402 Q 7124.696 3445.678 7125.916 3446.829 Q 7127.136 3447.980 7128.102 3448.844 Q 7129.067 3449.708 7129.613 3450.193 Q 7130.159 3450.678 7130.572 3450.658 Q 7130.985 3450.639 7131.066 3450.567 "></path>
    <path id="STROKE_e482f32b-296d-4590-8225-5611095db961" opacity="1.000" fill="none" stroke="#71c047" stroke-width="3.230" stroke-opacity="1.000" stroke-linecap="round" stroke-linejoin="round" d="M 7132.988 3443.439 Q 7132.858 3443.512 7131.939 3447.452 Q 7131.021 3451.392 7130.412 3453.916 Q 7129.802 3456.440 7129.491 3460.665 Q 7129.514 3460.665 7129.560 3460.594 Q 7129.606 3460.524 7129.676 3460.382 "></path>
    <path id="STROKE_79a116c3-dfe0-435f-adbd-f5088d6679d1" opacity="1.000" fill="none" stroke="#71c047" stroke-width="3.230" stroke-opacity="1.000" stroke-linecap="round" stroke-linejoin="round" d="M 7138.201 3434.682 Q 7138.184 3434.533 7141.533 3433.177 Q 7144.883 3431.821 7147.780 3431.286 Q 7150.678 3430.752 7151.029 3430.658 "></path>
    <path id="STROKE_ec45b47c-cea3-4877-a0cc-7b4722c31e86" opacity="1.000" fill="none" stroke="#71c047" stroke-width="3.230" stroke-opacity="1.000" stroke-linecap="round" stroke-linejoin="round" d="M 7141.069 3440.546 Q 7140.729 3440.425 7143.364 3439.502 Q 7145.999 3438.580 7147.839 3438.114 Q 7149.680 3437.648 7150.628 3437.369 Q 7151.577 3437.090 7152.066 3436.937 Q 7152.555 3436.783 7152.990 3436.593 Q 7153.425 3436.403 7153.898 3436.167 "></path>
    <path id="STROKE_6a2330f1-34f3-42b0-9275-b39a8a4bed2b" opacity="1.000" fill="none" stroke="#71c047" stroke-width="3.230" stroke-opacity="1.000" stroke-linecap="round" stroke-linejoin="round" d="M 7164.795 3422.560 Q 7164.573 3422.548 7164.077 3422.472 Q 7163.582 3422.395 7162.968 3422.823 Q 7162.353 3423.252 7162.058 3424.414 Q 7161.762 3425.575 7161.761 3426.239 Q 7161.759 3426.903 7161.691 3427.869 Q 7161.623 3428.835 7161.973 3430.127 Q 7162.324 3431.419 7162.604 3432.165 Q 7162.885 3432.909 7163.341 3433.460 Q 7163.797 3434.011 7164.209 3434.285 Q 7164.620 3434.558 7165.217 3434.708 Q 7165.814 3434.858 7166.495 3434.902 Q 7167.176 3434.947 7168.086 3434.396 Q 7168.995 3433.844 7169.699 3433.121 Q 7170.403 3432.398 7170.969 3431.343 Q 7171.535 3430.288 7171.597 3429.017 Q 7171.658 3427.746 7171.685 3427.064 Q 7171.711 3426.383 7171.365 3425.576 Q 7171.020 3424.770 7170.625 3424.242 Q 7170.230 3423.713 7169.820 3423.270 Q 7169.411 3422.827 7168.892 3422.344 Q 7168.372 3421.862 7167.517 3421.527 Q 7166.663 3421.193 7166.081 3421.131 Q 7165.500 3421.068 7164.854 3421.149 Q 7164.209 3421.230 7163.608 3422.156 Q 7163.007 3423.081 7162.911 3423.270 "></path>
    <path id="STROKE_7e568003-1c38-44ce-a270-b26f557c57a3" opacity="1.000" fill="none" stroke="#6ac0c8" stroke-width="2.040" stroke-opacity="1.000" stroke-linecap="round" stroke-linejoin="round" d="M 7217.049 3543.575 Q 7217.056 3543.012 7217.044 3542.954 Q 7217.033 3542.896 7216.989 3542.602 Q 7216.944 3542.308 7217.050 3542.395 Q 7217.156 3542.482 7216.495 3542.006 Q 7215.972 3542.403 7215.774 3543.934 Q 7215.576 3545.465 7215.846 3546.333 Q 7216.116 3547.201 7216.457 3547.481 Q 7216.798 3547.762 7217.026 3547.882 Q 7217.253 3548.001 7217.367 3548.007 Q 7217.481 3548.013 7218.004 3548.125 Q 7218.526 3548.238 7219.163 3547.452 Q 7219.800 3546.666 7219.965 3546.055 Q 7220.130 3545.444 7220.208 3544.714 Q 7220.285 3543.984 7219.942 3543.235 Q 7219.599 3542.486 7218.938 3542.360 Q 7218.276 3542.234 7217.553 3542.817 Q 7216.831 3543.399 7217.029 3545.787 Q 7217.764 3545.875 7217.681 3545.860 Q 7217.598 3545.845 7217.693 3545.848 Q 7217.788 3545.851 7217.991 3545.851 "></path>
    <path id="STROKE_ef783858-36a8-4f60-9bec-06d31ddf42d9" opacity="1.000" fill="none" stroke="#6ac0c8" stroke-width="2.040" stroke-opacity="1.000" stroke-linecap="round" stroke-linejoin="round" d="M 7217.049 3548.895 Q 7217.050 3548.942 7216.944 3549.295 L 7216.923 3549.295 Q 7216.923 3549.644 7216.923 3547.420 Q 7216.925 3547.261 7216.946 3553.234 Q 7216.967 3559.207 7216.987 3562.552 Q 7217.007 3565.898 7216.964 3567.414 Q 7216.921 3568.930 7216.928 3570.989 Q 7216.936 3573.049 7217.153 3574.280 Q 7217.371 3575.510 7217.397 3576.443 Q 7217.423 3577.376 7217.418 3577.848 Q 7217.414 3578.320 7217.415 3578.507 Q 7217.416 3578.695 7217.415 3578.941 Q 7217.415 3579.188 7217.415 3579.289 Q 7217.415 3579.390 7217.415 3579.770 Q 7217.415 3580.149 7217.415 3580.183 Q 7217.415 3580.217 7217.415 3580.011 Q 7217.415 3579.805 7217.415 3582.361 Q 7217.387 3582.361 7217.359 3582.361 Q 7217.359 3582.248 7217.346 3582.002 Q 7217.333 3581.756 7217.304 3581.408 Q 7217.274 3581.060 7217.232 3580.928 "></path>
    <path id="STROKE_feff9bcf-cd58-4a60-bc36-2f97876eba4d" opacity="1.000" fill="none" stroke="#6ac0c8" stroke-width="2.040" stroke-opacity="1.000" stroke-linecap="round" stroke-linejoin="round" d="M 7212.961 3581.667 Q 7212.961 3581.645 7212.942 3581.457 Q 7213.139 3581.186 7214.167 3582.728 Q 7215.194 3584.269 7216.012 3585.344 Q 7216.829 3586.419 7217.317 3586.900 Q 7217.805 3587.380 7218.166 3587.583 Q 7218.527 3587.784 7218.899 3587.512 Q 7219.272 3587.240 7219.564 3586.825 Q 7219.857 3586.410 7219.989 3586.223 Q 7220.121 3586.036 7220.177 3585.954 Q 7220.232 3585.871 7220.394 3585.620 Q 7220.556 3585.368 7220.543 3585.372 Q 7220.531 3585.376 7220.604 3585.248 Q 7220.678 3585.119 7220.813 3584.854 Q 7220.948 3584.588 7221.010 3584.483 "></path>
    <path id="STROKE_40a11e56-72ec-4e35-9223-c9fe7dd1a63e" opacity="1.000" fill="none" stroke="#6ac0c8" stroke-width="2.040" stroke-opacity="1.000" stroke-linecap="round" stroke-linejoin="round" d="M 7198.772 3561.911 Q 7198.615 3561.553 7198.645 3561.641 Q 7198.581 3561.461 7198.518 3561.184 Q 7198.563 3561.269 7198.611 3561.335 Q 7198.659 3561.402 7198.914 3561.925 Q 7199.169 3562.449 7199.366 3562.927 Q 7199.562 3563.405 7199.663 3563.665 Q 7199.763 3563.924 7200.015 3564.578 Q 7200.268 3565.232 7200.646 3566.349 Q 7201.026 3567.466 7201.290 3568.178 Q 7201.554 3568.891 7202.067 3569.268 Q 7202.032 3569.645 7202.612 3567.918 Q 7203.192 3566.191 7203.612 3565.264 Q 7204.032 3564.338 7204.331 3563.775 Q 7204.629 3563.212 7204.776 3562.964 Q 7204.922 3562.715 7205.029 3562.523 Q 7205.136 3562.331 7205.163 3562.284 Q 7205.189 3562.236 7205.226 3562.190 Q 7205.262 3562.144 7205.269 3562.124 Q 7205.275 3562.105 7205.398 3562.033 Q 7205.404 3562.419 7205.438 3562.521 Q 7205.473 3562.624 7205.512 3562.697 "></path>
    <path id="STROKE_ccba42a3-3dae-42c8-90ed-87710ab127ec" opacity="1.000" fill="none" stroke="#6ac0c8" stroke-width="2.040" stroke-opacity="1.000" stroke-linecap="round" stroke-linejoin="round" d="M 7205.558 3568.003 Q 7205.558 3568.003 7205.606 3568.068 Q 7205.655 3568.133 7205.749 3568.225 Q 7205.843 3568.318 7205.826 3568.310 Q 7205.810 3568.302 7205.824 3568.275 Q 7205.839 3568.249 7206.730 3569.667 Q 7207.622 3571.084 7207.726 3571.176 "></path>
    <path id="STROKE_1c091e3f-0553-45fe-8b01-e0eb17b0cae9" opacity="1.000" fill="none" stroke="#6ac0c8" stroke-width="2.040" stroke-opacity="1.000" stroke-linecap="round" stroke-linejoin="round" d="M 7209.341 3567.569 Q 7209.341 3567.622 7209.228 3567.502 Q 7209.113 3567.382 7208.590 3569.269 Q 7208.067 3571.155 7207.808 3572.370 Q 7207.548 3573.584 7207.201 3575.075 Q 7206.854 3576.566 7206.629 3577.359 Q 7206.404 3578.152 7206.384 3578.162 "></path>
    <path id="STROKE_eb4021a2-b6f7-4c3a-bfb8-cd1fa7f3c84e" opacity="1.000" fill="none" stroke="#6ac0c8" stroke-width="1.857" stroke-opacity="1.000" stroke-linecap="round" stroke-linejoin="round" d="M 7219.747 3543.899 Q 7219.956 3543.705 7221.531 3543.855 Q 7223.107 3544.005 7230.100 3543.800 Q 7237.092 3543.595 7240.673 3543.486 Q 7244.253 3543.377 7245.852 3543.275 Q 7247.449 3543.173 7248.719 3543.023 Q 7249.989 3542.874 7252.562 3542.626 Q 7255.135 3542.379 7257.082 3542.320 Q 7259.028 3542.262 7259.933 3542.238 Q 7260.837 3542.215 7261.307 3542.226 Q 7261.776 3542.237 7264.594 3542.289 Q 7267.412 3542.341 7268.981 3542.325 Q 7270.552 3542.308 7271.698 3542.241 Q 7272.844 3542.174 7273.601 3542.181 Q 7274.356 3542.188 7275.331 3542.176 Q 7275.265 3542.176 7274.875 3542.176 Q 7274.875 3542.166 7274.875 3542.125 Q 7274.829 3542.147 7275.083 3542.020 Q 7275.083 3542.010 7275.083 3541.971 Q 7275.144 3541.971 7275.328 3541.936 Q 7275.513 3541.901 7275.536 3541.900 Q 7275.560 3541.899 7275.544 3541.906 Q 7275.528 3541.912 7275.915 3541.884 Q 7276.303 3541.857 7276.681 3541.788 Q 7277.060 3541.720 7277.222 3541.697 Q 7277.383 3541.674 7278.372 3541.658 Q 7278.349 3541.658 7278.302 3541.668 Q 7278.255 3541.678 7278.183 3541.698 "></path>
    <path id="STROKE_185c5487-db76-4aba-b78c-bbb21142d2ec" opacity="1.000" fill="none" stroke="#6ac0c8" stroke-width="2.040" stroke-opacity="1.000" stroke-linecap="round" stroke-linejoin="round" d="M 7273.345 3537.656 Q 7273.356 3537.586 7273.469 3537.397 Q 7273.583 3537.207 7273.587 3537.235 Q 7273.592 3537.263 7273.772 3537.167 Q 7273.952 3537.072 7274.666 3537.047 Q 7275.381 3537.022 7276.147 3537.212 Q 7276.914 3537.402 7277.738 3537.642 Q 7278.563 3537.881 7279.685 3538.408 Q 7280.806 3538.935 7281.555 3539.501 Q 7282.305 3540.066 7282.703 3540.395 Q 7283.102 3540.722 7283.247 3541.095 Q 7283.393 3541.468 7283.260 3541.680 Q 7283.127 3541.893 7280.868 3543.844 Q 7278.610 3545.795 7278.476 3545.910 "></path>
    <path id="STROKE_47367c78-9a29-4855-b7ce-ff947a20afd2" opacity="1.000" fill="none" stroke="#6ac0c8" stroke-width="2.040" stroke-opacity="1.000" stroke-linecap="round" stroke-linejoin="round" d="M 7230.171 3527.727 Q 7230.133 3527.725 7230.197 3527.094 Q 7230.260 3526.463 7230.511 3526.191 Q 7230.762 3525.920 7231.027 3525.727 Q 7231.292 3525.533 7232.193 3526.966 Q 7233.093 3528.398 7234.138 3529.718 Q 7235.182 3531.037 7235.695 3531.719 Q 7236.208 3532.402 7236.574 3532.665 Q 7236.940 3532.928 7237.157 3532.885 Q 7237.374 3532.841 7237.489 3532.714 Q 7237.604 3532.587 7237.878 3532.100 Q 7238.152 3531.614 7238.616 3530.792 Q 7239.081 3529.971 7239.459 3529.261 Q 7239.837 3528.551 7240.097 3527.721 Q 7240.357 3526.891 7240.419 3526.376 Q 7240.481 3525.862 7240.474 3525.510 Q 7240.333 3525.748 7240.359 3525.779 Q 7240.298 3525.945 7240.246 3526.048 "></path>
    <path id="STROKE_14f8539c-479a-4156-b096-d1f32beac6fd" opacity="1.000" fill="none" stroke="#6ac0c8" stroke-width="2.040" stroke-opacity="1.000" stroke-linecap="round" stroke-linejoin="round" d="M 7242.316 3530.197 Q 7242.316 3530.197 7242.473 3530.267 Q 7242.630 3530.338 7244.695 3532.422 Q 7246.761 3534.507 7246.907 3534.610 "></path>
    <path id="STROKE_70534cc1-f9c3-4ba1-88de-44bc4cb06131" opacity="1.000" fill="none" stroke="#6ac0c8" stroke-width="2.040" stroke-opacity="1.000" stroke-linecap="round" stroke-linejoin="round" d="M 7247.194 3529.240 Q 7247.224 3529.130 7246.553 3529.974 Q 7245.881 3530.818 7245.353 3531.555 Q 7244.824 3532.293 7244.366 3532.958 Q 7243.909 3533.624 7243.659 3534.069 Q 7243.409 3534.515 7243.078 3535.605 Q 7243.264 3535.606 7243.332 3535.481 Q 7243.400 3535.356 7243.495 3535.210 "></path>
    <circle id="STROKE_9a0c33a6-cf66-4275-bd06-fa8a6f21ee9d" opacity="1.000" fill="#6ac0c8" stroke="#6ac0c8" stroke-width="0.1" stroke-opacity="1.000" fill-opacity="1.000" cx="7219.167" cy="3546.677" r="1.020"></circle>
    <path id="STROKE_21dc9f08-a09d-43ba-b776-b0ec7726a8c8" opacity="1.000" fill="none" stroke="#6ac0c8" stroke-width="2.040" stroke-opacity="1.000" stroke-linecap="round" stroke-linejoin="round" d="M 7219.681 3546.925 Q 7219.562 3546.930 7218.750 3546.052 Q 7218.914 3545.964 7219.473 3546.424 Q 7220.032 3546.884 7220.568 3547.327 Q 7221.104 3547.770 7221.783 3548.273 Q 7222.462 3548.777 7223.327 3549.354 Q 7224.192 3549.931 7224.785 3550.348 Q 7225.378 3550.765 7226.484 3551.817 Q 7227.591 3552.869 7228.184 3553.508 Q 7228.776 3554.147 7229.554 3554.750 Q 7230.331 3555.353 7230.663 3555.637 Q 7230.995 3555.920 7231.982 3556.778 Q 7232.969 3557.636 7233.665 3558.135 Q 7234.360 3558.633 7235.108 3559.135 Q 7235.857 3559.636 7238.727 3561.453 Q 7241.595 3563.270 7243.065 3564.252 Q 7244.536 3565.234 7245.252 3565.677 Q 7245.967 3566.119 7246.269 3566.294 Q 7246.569 3566.469 7246.926 3566.704 Q 7247.282 3566.938 7248.236 3567.537 Q 7249.190 3568.135 7250.697 3569.276 Q 7252.204 3570.417 7253.198 3571.179 Q 7254.193 3571.940 7254.883 3572.469 Q 7255.573 3572.997 7256.383 3573.613 Q 7257.194 3574.229 7260.121 3576.491 Q 7263.047 3578.753 7264.573 3579.996 Q 7266.100 3581.238 7267.830 3582.632 Q 7269.560 3584.026 7273.449 3586.455 Q 7273.395 3586.466 7273.337 3586.468 Q 7273.280 3586.471 7273.021 3586.342 Q 7272.762 3586.214 7272.700 3586.162 "></path>
    <path id="STROKE_fc8d5654-c1b6-4eb2-9fa7-3547e23d5642" opacity="1.000" fill="none" stroke="#6ac0c8" stroke-width="2.040" stroke-opacity="1.000" stroke-linecap="round" stroke-linejoin="round" d="M 7274.979 3581.457 Q 7274.979 3581.457 7274.930 3581.572 Q 7274.880 3581.688 7275.901 3582.710 Q 7276.923 3583.732 7277.589 3584.609 Q 7278.254 3585.486 7278.515 3586.354 Q 7278.776 3587.221 7278.751 3587.893 Q 7278.727 3588.565 7278.363 3589.181 Q 7278.000 3589.797 7277.317 3590.424 Q 7276.634 3591.051 7272.596 3591.698 Q 7272.842 3591.125 7272.808 3591.295 Q 7272.941 3591.190 7273.234 3591.029 Q 7273.527 3590.868 7273.631 3590.805 "></path>
    <path id="STROKE_d9468a02-994f-402b-89a3-f4566dd3c541" opacity="1.000" fill="none" stroke="#6ac0c8" stroke-width="1.700" stroke-opacity="1.000" stroke-linecap="round" stroke-linejoin="round" d="M 7233.487 3551.619 Q 7233.550 3551.557 7233.553 3551.538 Q 7233.555 3551.518 7233.548 3551.524 Q 7233.541 3551.531 7233.668 3551.444 Q 7233.795 3551.357 7234.699 3551.141 Q 7235.603 3550.925 7236.305 3550.667 Q 7237.007 3550.410 7237.544 3550.154 Q 7238.081 3549.898 7238.561 3549.849 Q 7238.548 3550.076 7238.553 3550.034 Q 7238.557 3549.991 7238.539 3550.093 Q 7238.521 3550.195 7238.406 3550.516 Q 7238.292 3550.837 7237.897 3551.878 Q 7237.503 3552.919 7237.214 3553.523 Q 7236.924 3554.127 7236.837 3554.795 Q 7236.750 3555.463 7236.790 3555.857 Q 7236.829 3556.251 7236.769 3556.466 Q 7236.709 3556.680 7236.780 3557.146 Q 7237.000 3557.190 7237.568 3556.489 Q 7238.137 3555.788 7239.066 3554.917 Q 7239.997 3554.045 7240.514 3553.606 Q 7241.031 3553.168 7241.314 3552.944 Q 7241.598 3552.719 7242.185 3552.266 Q 7242.772 3551.812 7243.162 3551.510 Q 7243.551 3551.208 7243.790 3551.031 Q 7244.028 3550.853 7244.404 3550.488 Q 7244.779 3550.123 7245.872 3549.191 Q 7246.964 3548.259 7247.540 3547.820 Q 7248.115 3547.381 7248.367 3547.110 Q 7248.619 3546.839 7248.731 3546.754 Q 7248.749 3546.744 7248.657 3546.884 Q 7248.565 3547.023 7248.521 3547.067 "></path>
    <path id="STROKE_c91c4f1e-18eb-48e1-bfe6-2450309b56f7" opacity="1.000" fill="none" stroke="#6ac0c8" stroke-width="1.700" stroke-opacity="1.000" stroke-linecap="round" stroke-linejoin="round" d="M 7248.051 3552.639 Q 7248.058 3552.673 7247.897 3552.455 Q 7247.901 3552.488 7247.870 3553.136 Q 7247.839 3553.784 7247.697 3554.514 Q 7247.554 3555.244 7247.456 3555.884 Q 7247.358 3556.524 7247.307 3556.872 Q 7247.255 3557.219 7247.281 3557.560 Q 7247.307 3557.901 7247.314 3558.080 Q 7247.322 3558.259 7247.415 3558.315 Q 7247.508 3558.371 7247.717 3558.520 Q 7247.925 3558.669 7248.532 3558.167 Q 7249.139 3557.665 7249.452 3557.354 Q 7249.765 3557.044 7250.372 3556.702 Q 7250.979 3556.359 7251.343 3556.190 Q 7251.707 3556.020 7252.038 3555.914 Q 7252.369 3555.808 7252.649 3556.024 Q 7252.929 3556.240 7252.959 3556.291 "></path>
    <path id="STROKE_b3f0eddd-4405-4a90-b339-c6f94ea62e0a" opacity="1.000" fill="none" stroke="#6ac0c8" stroke-width="1.700" stroke-opacity="1.000" stroke-linecap="round" stroke-linejoin="round" d="M 7251.663 3558.784 Q 7251.684 3559.031 7251.688 3558.992 Q 7251.698 3558.895 7251.813 3559.805 Q 7251.928 3560.716 7252.011 3561.618 Q 7252.094 3562.521 7252.197 3562.967 Q 7252.300 3563.413 7252.335 3563.482 "></path>
    <path id="STROKE_bd460044-5193-456b-b3ee-df8644883b26" opacity="1.000" fill="none" stroke="#6ac0c8" stroke-width="1.700" stroke-opacity="1.000" stroke-linecap="round" stroke-linejoin="round" d="M 7253.896 3560.392 Q 7253.819 3560.357 7253.437 3560.312 Q 7253.054 3560.266 7252.419 3560.593 Q 7251.783 3560.921 7251.091 3561.476 Q 7250.398 3562.031 7250.140 3562.397 Q 7249.881 3562.762 7249.865 3562.790 "></path>
    <path id="STROKE_729f3205-cfbf-47fd-8133-a387b238ec3d" opacity="1.000" fill="none" stroke="#6ac0c8" stroke-width="1.700" stroke-opacity="1.000" stroke-linecap="round" stroke-linejoin="round" d="M 7256.479 3555.084 Q 7256.650 3554.985 7256.625 3554.980 Q 7256.601 3554.975 7256.833 3554.983 Q 7257.066 3554.992 7257.293 3555.121 Q 7257.520 3555.250 7257.740 3555.622 Q 7257.960 3555.993 7258.057 3556.542 Q 7258.154 3557.091 7258.083 3557.655 Q 7258.012 3558.219 7257.926 3558.484 Q 7257.840 3558.749 7257.695 3559.156 Q 7257.551 3559.563 7257.374 3559.870 Q 7257.197 3560.177 7256.864 3560.373 Q 7256.532 3560.569 7256.220 3560.659 Q 7255.908 3560.748 7255.587 3560.646 Q 7255.267 3560.545 7255.089 3560.401 Q 7254.912 3560.258 7254.854 3560.129 Q 7254.796 3560.000 7254.762 3559.684 Q 7254.727 3559.367 7254.859 3558.927 Q 7254.991 3558.488 7255.103 3558.242 Q 7255.214 3557.997 7255.457 3557.721 Q 7255.699 3557.445 7256.407 3557.685 Q 7257.115 3557.926 7257.590 3558.139 Q 7258.065 3558.353 7258.296 3558.561 Q 7258.526 3558.768 7258.619 3558.866 "></path>
    <path id="STROKE_2de16b40-79a7-45d3-9102-65e4482ef402" opacity="1.000" fill="none" stroke="#6ac0c8" stroke-width="1.700" stroke-opacity="1.000" stroke-linecap="round" stroke-linejoin="round" d="M 7262.556 3563.377 Q 7262.557 3563.344 7261.762 3564.157 Q 7260.967 3564.970 7260.361 3565.802 Q 7259.755 3566.634 7259.530 3567.086 Q 7259.306 3567.539 7259.252 3567.619 "></path>
    <path id="STROKE_a9cc585d-ac23-4c5d-937a-80d66e69f9d6" opacity="1.000" fill="none" stroke="#6ac0c8" stroke-width="1.700" stroke-opacity="1.000" stroke-linecap="round" stroke-linejoin="round" d="M 7258.432 3564.375 Q 7258.599 3564.461 7259.232 3564.797 Q 7259.865 3565.133 7260.450 3565.790 Q 7261.035 3566.447 7261.540 3566.971 Q 7262.044 3567.494 7262.187 3567.623 "></path>
    <path id="STROKE_217ad12e-2757-464f-81d1-8315cfc487f6" opacity="1.000" fill="none" stroke="#6ac0c8" stroke-width="1.700" stroke-opacity="1.000" stroke-linecap="round" stroke-linejoin="round" d="M 7265.786 3565.206 Q 7265.776 3565.258 7265.778 3565.272 Q 7265.781 3565.287 7265.791 3565.347 Q 7265.800 3565.407 7265.814 3565.466 Q 7265.829 3565.525 7265.822 3565.523 Q 7265.816 3565.521 7265.857 3565.611 Q 7265.897 3565.700 7266.077 3566.588 Q 7266.256 3567.476 7266.379 3568.201 Q 7266.502 3568.927 7266.252 3569.661 Q 7266.001 3570.395 7265.940 3570.495 "></path>
    <path id="STROKE_529230b9-d734-4397-9056-80d7f90c06ab" opacity="1.000" fill="none" stroke="#6ac0c8" stroke-width="1.700" stroke-opacity="1.000" stroke-linecap="round" stroke-linejoin="round" d="M 7266.093 3570.487 Q 7266.187 3570.454 7267.754 3569.986 Q 7269.320 3569.518 7270.275 3569.160 Q 7271.230 3568.802 7271.620 3568.715 Q 7272.009 3568.627 7272.069 3568.615 "></path>
    <path id="STROKE_22a712f4-6d23-4709-9296-cae6ad8a406c" opacity="1.000" fill="none" stroke="#6ac0c8" stroke-width="1.700" stroke-opacity="1.000" stroke-linecap="round" stroke-linejoin="round" d="M 7268.829 3571.485 Q 7268.816 3571.491 7268.803 3571.533 Q 7268.790 3571.574 7268.804 3571.777 Q 7268.818 3571.979 7268.879 3572.263 Q 7268.939 3572.547 7269.107 3573.014 Q 7269.275 3573.481 7269.314 3573.574 "></path>
    <path id="STROKE_96b32c91-d33d-4460-98ee-ec1546617452" opacity="1.000" fill="none" stroke="#6ac0c8" stroke-width="1.700" stroke-opacity="1.000" stroke-linecap="round" stroke-linejoin="round" d="M 7271.748 3573.185 Q 7271.566 3573.151 7271.572 3573.167 Q 7271.396 3573.064 7270.217 3573.901 Q 7269.038 3574.738 7268.271 3575.282 Q 7267.504 3575.826 7266.981 3576.508 Q 7267.013 3576.480 7267.045 3576.452 "></path>
    <path id="STROKE_5a87c1e0-801c-4bd8-b964-56713d886431" opacity="1.000" fill="none" stroke="#6ac0c8" stroke-width="1.700" stroke-opacity="1.000" stroke-linecap="round" stroke-linejoin="round" d="M 7276.229 3569.041 Q 7276.155 3569.043 7276.305 3569.079 Q 7276.455 3569.114 7276.450 3569.537 Q 7276.445 3569.960 7276.166 3570.670 Q 7275.886 3571.380 7275.669 3571.864 Q 7275.451 3572.347 7275.143 3572.669 Q 7274.835 3572.992 7274.580 3573.135 Q 7274.324 3573.279 7274.122 3573.339 Q 7273.919 3573.398 7273.692 3573.342 Q 7273.465 3573.285 7273.358 3572.906 Q 7273.251 3572.527 7273.352 3572.115 Q 7273.451 3571.702 7273.595 3571.358 Q 7273.738 3571.015 7274.181 3570.821 Q 7274.624 3570.627 7275.549 3571.008 Q 7276.475 3571.389 7276.554 3571.464 "></path>
    <path id="STROKE_b3db758e-5f4c-48a4-a81d-550cdf58a3e2" opacity="1.000" fill="none" stroke="#6ac0c8" stroke-width="1.700" stroke-opacity="1.000" stroke-linecap="round" stroke-linejoin="round" d="M 7249.130 3546.185 Q 7249.114 3546.292 7250.101 3546.685 Q 7251.088 3547.078 7252.038 3547.396 Q 7252.988 3547.715 7253.542 3547.883 Q 7254.096 3548.051 7255.021 3548.493 Q 7255.945 3548.935 7256.733 3549.442 Q 7257.521 3549.948 7258.165 3550.388 Q 7258.808 3550.828 7259.544 3551.322 Q 7260.280 3551.816 7262.158 3553.253 Q 7264.036 3554.691 7265.194 3555.584 Q 7266.352 3556.477 7267.376 3557.098 Q 7268.399 3557.720 7269.698 3558.426 Q 7270.997 3559.132 7271.901 3559.689 Q 7272.806 3560.247 7273.286 3560.620 Q 7273.767 3560.992 7274.144 3561.323 Q 7274.521 3561.654 7275.086 3562.087 Q 7275.651 3562.521 7276.234 3563.115 Q 7276.817 3563.710 7277.301 3564.118 Q 7277.785 3564.526 7278.172 3564.744 Q 7278.560 3564.961 7278.840 3565.289 Q 7279.121 3565.616 7279.231 3565.879 Q 7279.342 3566.142 7279.543 3566.392 Q 7279.744 3566.641 7280.250 3566.937 Q 7280.755 3567.233 7281.102 3567.473 Q 7281.449 3567.712 7281.599 3567.900 Q 7281.750 3568.087 7281.826 3568.288 Q 7281.903 3568.489 7281.922 3568.637 Q 7281.940 3568.785 7281.962 3568.948 Q 7281.983 3569.112 7282.035 3569.175 Q 7282.087 3569.238 7282.121 3569.282 Q 7282.154 3569.326 7282.166 3569.330 Q 7282.178 3569.334 7282.328 3569.474 Q 7282.478 3569.614 7282.535 3569.758 Q 7282.593 3569.901 7282.570 3570.008 Q 7282.547 3570.115 7282.500 3570.190 Q 7282.453 3570.264 7282.447 3570.287 Q 7282.441 3570.309 7281.964 3570.629 Q 7281.486 3570.949 7281.115 3571.135 Q 7280.744 3571.320 7280.686 3571.338 "></path>
    <path id="STROKE_5f2a6699-44d3-458d-bbf6-2ad7cad2faf1" opacity="1.000" fill="none" stroke="#6ac0c8" stroke-width="1.700" stroke-opacity="1.000" stroke-linecap="round" stroke-linejoin="round" d="M 7331.611 3596.494 Q 7331.611 3596.494 7331.434 3596.460 Q 7331.257 3596.427 7331.305 3596.436 Q 7330.948 3596.354 7330.985 3596.447 Q 7330.896 3596.337 7330.598 3597.023 Q 7330.299 3597.709 7330.275 3598.137 Q 7330.250 3598.566 7330.596 3599.286 Q 7330.942 3600.005 7331.589 3600.838 Q 7332.236 3601.671 7333.354 3602.017 Q 7333.509 3602.228 7333.728 3600.663 Q 7333.946 3599.097 7331.533 3597.385 Q 7331.054 3597.441 7330.747 3600.357 Q 7331.141 3600.513 7331.114 3600.477 Q 7331.296 3600.548 7331.407 3600.607 "></path>
    <path id="STROKE_2e3100c7-98ac-4178-b250-0576e347d9ae" opacity="1.000" fill="none" stroke="#6ac0c8" stroke-width="1.700" stroke-opacity="1.000" stroke-linecap="round" stroke-linejoin="round" d="M 7331.574 3599.719 Q 7331.585 3599.585 7331.807 3598.748 Q 7331.898 3598.572 7332.006 3598.719 Q 7332.113 3598.866 7332.330 3599.277 Q 7332.547 3599.688 7332.617 3600.911 Q 7332.688 3602.135 7332.701 3602.776 Q 7332.715 3603.418 7332.587 3605.395 Q 7332.458 3607.371 7332.471 3612.556 Q 7332.484 3617.741 7332.582 3621.208 Q 7332.680 3624.674 7332.696 3626.470 Q 7332.713 3628.265 7332.884 3629.982 Q 7333.055 3631.700 7333.110 3632.442 Q 7333.166 3633.185 7333.257 3633.753 Q 7333.348 3634.320 7333.393 3634.742 Q 7333.438 3635.164 7333.463 3635.458 Q 7333.488 3635.752 7333.465 3635.711 Q 7333.442 3635.670 7333.458 3635.645 Q 7333.473 3635.620 7333.418 3635.885 Q 7333.421 3635.919 7333.527 3634.914 Q 7333.633 3633.908 7333.592 3633.654 "></path>
    <path id="STROKE_7aa58aec-06fa-44e8-823e-9bc796f88d79" opacity="1.000" fill="none" stroke="#6ac0c8" stroke-width="1.700" stroke-opacity="1.000" stroke-linecap="round" stroke-linejoin="round" d="M 7328.791 3636.437 Q 7328.576 3636.169 7328.600 3634.011 Q 7329.186 3633.873 7330.068 3636.002 Q 7330.952 3638.132 7331.658 3639.455 Q 7332.365 3640.777 7332.772 3641.313 Q 7333.180 3641.849 7333.748 3642.010 Q 7334.315 3642.171 7334.721 3641.819 Q 7335.126 3641.468 7335.869 3639.651 Q 7336.612 3637.834 7336.731 3637.644 "></path>
    <path id="STROKE_1297c5f5-fa4e-429b-ab1a-bf38e84a0eb7" opacity="1.000" fill="none" stroke="#6ac0c8" stroke-width="1.700" stroke-opacity="1.000" stroke-linecap="round" stroke-linejoin="round" d="M 7308.155 3612.805 Q 7308.093 3612.765 7307.922 3612.561 Q 7307.751 3612.357 7307.596 3612.166 Q 7307.441 3611.975 7307.497 3612.038 Q 7307.552 3612.102 7307.544 3612.055 Q 7307.398 3611.609 7308.379 3612.640 Q 7309.359 3613.670 7310.087 3614.936 Q 7310.814 3616.201 7311.249 3617.060 Q 7311.683 3617.920 7311.979 3618.284 Q 7312.274 3618.648 7312.999 3619.240 Q 7313.724 3619.832 7314.381 3617.490 Q 7315.038 3615.148 7316.899 3612.175 Q 7316.975 3612.184 7316.895 3612.775 Q 7316.814 3613.366 7316.786 3613.607 "></path>
    <path id="STROKE_a2bcce0b-6ada-4610-869e-01c42296d7d4" opacity="1.000" fill="none" stroke="#6ac0c8" stroke-width="1.700" stroke-opacity="1.000" stroke-linecap="round" stroke-linejoin="round" d="M 7316.114 3617.599 Q 7316.240 3617.604 7317.033 3619.105 Q 7317.827 3620.607 7319.062 3621.572 Q 7320.296 3622.536 7320.530 3622.689 "></path>
    <path id="STROKE_49931637-6751-458b-b3f5-eabc49385cbd" opacity="1.000" fill="none" stroke="#6ac0c8" stroke-width="1.526" stroke-opacity="1.000" stroke-linecap="round" stroke-linejoin="round" d="M 7322.445 3616.875 Q 7321.526 3616.727 7318.062 3627.755 Q 7318.004 3627.791 7318.360 3627.250 Q 7318.716 3626.709 7318.914 3626.428 "></path>
    <path id="STROKE_b64542e3-a961-48a5-8114-5ede4ed0a037" opacity="1.000" fill="none" stroke="#6ac0c8" stroke-width="1.689" stroke-opacity="1.000" stroke-linecap="round" stroke-linejoin="round" d="M 7331.006 3599.538 Q 7331.006 3599.538 7331.269 3599.478 Q 7331.531 3599.418 7331.485 3599.452 Q 7331.854 3599.434 7335.435 3599.032 Q 7339.016 3598.631 7341.819 3598.674 Q 7344.623 3598.717 7346.864 3598.912 Q 7349.105 3599.106 7350.136 3599.039 Q 7351.167 3598.971 7351.697 3598.954 Q 7352.228 3598.936 7352.689 3598.856 Q 7353.151 3598.776 7354.546 3598.774 Q 7355.940 3598.772 7357.916 3599.017 Q 7359.892 3599.262 7361.613 3599.063 Q 7363.335 3598.864 7364.700 3598.432 Q 7366.064 3598.000 7367.234 3597.796 Q 7368.405 3597.591 7368.991 3597.872 Q 7369.577 3598.153 7370.876 3597.918 Q 7372.174 3597.683 7373.052 3597.377 Q 7373.930 3597.071 7373.925 3597.095 Q 7373.920 3597.119 7374.420 3597.137 Q 7374.920 3597.155 7375.222 3597.227 Q 7375.523 3597.299 7375.789 3597.334 Q 7376.054 3597.369 7375.995 3597.385 Q 7375.936 3597.402 7376.330 3597.302 Q 7376.724 3597.202 7382.475 3598.244 Q 7382.479 3598.228 7382.481 3598.211 Q 7382.444 3598.204 7382.376 3598.181 Q 7382.308 3598.158 7382.209 3598.119 "></path>
    <path id="STROKE_f3ad4b07-61e7-481d-8bcf-4cd92e09024b" opacity="1.000" fill="none" stroke="#6ac0c8" stroke-width="1.700" stroke-opacity="1.000" stroke-linecap="round" stroke-linejoin="round" d="M 7377.425 3594.990 Q 7377.507 3594.801 7377.451 3594.845 Q 7377.396 3594.889 7377.387 3594.865 Q 7377.378 3594.842 7377.596 3594.565 Q 7377.814 3594.290 7378.572 3594.354 Q 7379.331 3594.418 7380.543 3594.639 Q 7381.756 3594.860 7382.656 3595.244 Q 7383.557 3595.627 7384.458 3596.234 Q 7385.358 3596.842 7385.512 3597.758 Q 7385.665 3598.674 7385.700 3599.512 Q 7385.735 3600.350 7384.330 3601.359 Q 7382.925 3602.367 7382.181 3602.789 Q 7381.437 3603.211 7381.363 3603.214 "></path>
    <path id="STROKE_2b773f75-845a-4d33-afe3-67ed49047db1" opacity="1.000" fill="none" stroke="#6ac0c8" stroke-width="1.700" stroke-opacity="1.000" stroke-linecap="round" stroke-linejoin="round" d="M 7347.182 3585.793 Q 7347.186 3585.777 7347.068 3585.454 Q 7347.402 3585.761 7348.909 3588.300 Q 7350.415 3590.839 7352.702 3592.953 Q 7352.949 3592.841 7355.813 3585.819 Q 7355.830 3585.822 7355.846 3585.825 Q 7355.845 3585.842 7355.866 3585.962 Q 7355.887 3586.083 7355.915 3586.230 "></path>
    <path id="STROKE_8de0c6fa-bb48-4713-a960-94c1f05d66c0" opacity="1.000" fill="none" stroke="#6ac0c8" stroke-width="1.700" stroke-opacity="1.000" stroke-linecap="round" stroke-linejoin="round" d="M 7356.991 3588.629 Q 7357.459 3588.915 7357.362 3588.879 Q 7358.149 3589.505 7358.165 3589.534 Q 7358.180 3589.563 7358.544 3589.880 Q 7358.908 3590.198 7360.397 3591.924 Q 7361.887 3593.651 7362.037 3593.804 "></path>
    <path id="STROKE_69f06f58-05bc-48c4-b805-7fd1182ddd3e" opacity="1.000" fill="none" stroke="#6ac0c8" stroke-width="1.700" stroke-opacity="1.000" stroke-linecap="round" stroke-linejoin="round" d="M 7361.635 3589.118 Q 7361.884 3589.157 7361.402 3589.189 Q 7360.921 3589.220 7360.076 3589.823 Q 7359.231 3590.425 7358.585 3592.552 Q 7357.938 3594.680 7357.883 3594.795 "></path>
    <path id="STROKE_1278e42d-451a-4a2a-a2f1-2f3093c8bc44" opacity="1.000" fill="none" stroke="#f3ba38" stroke-width="2.380" stroke-opacity="1.000" stroke-linecap="round" stroke-linejoin="round" d="M 7392.855 3668.358 Q 7393.479 3668.345 7398.601 3668.458 Q 7403.723 3668.571 7409.128 3667.997 Q 7414.532 3667.423 7417.257 3667.222 Q 7419.981 3667.022 7422.044 3667.398 Q 7424.107 3667.774 7431.979 3668.584 Q 7431.991 3668.274 7431.823 3667.980 Q 7431.655 3667.686 7431.520 3667.483 "></path>
    <path id="STROKE_62fdaa73-9955-483a-9da5-27a84ece997c" opacity="1.000" fill="none" stroke="#f3ba38" stroke-width="2.266" stroke-opacity="1.000" stroke-linecap="round" stroke-linejoin="round" d="M 7428.540 3660.592 Q 7428.540 3659.900 7428.540 3659.959 Q 7429.307 3659.103 7429.404 3659.389 Q 7430.534 3659.189 7434.413 3661.953 Q 7438.292 3664.716 7440.450 3666.032 Q 7442.607 3667.349 7444.029 3668.891 Q 7445.450 3670.434 7445.516 3671.296 Q 7445.582 3672.158 7444.804 3672.674 Q 7444.025 3673.189 7443.036 3673.742 Q 7442.047 3674.295 7437.668 3675.239 Q 7433.290 3676.184 7426.955 3678.866 Q 7426.373 3679.642 7428.232 3679.355 Q 7430.092 3679.069 7430.395 3678.842 "></path>
    <path id="STROKE_a8984601-06f6-4cfb-9ae4-6c877ae92783" opacity="1.000" fill="none" stroke="#f3ba38" stroke-width="2.322" stroke-opacity="1.000" stroke-linecap="round" stroke-linejoin="round" d="M 6786.268 3505.467 Q 6786.268 3505.467 6786.174 3505.322 Q 6786.080 3505.177 6789.367 3501.350 Q 6792.654 3497.522 6794.830 3495.233 Q 6797.005 3492.945 6798.185 3492.188 Q 6799.365 3491.430 6800.532 3490.903 Q 6801.700 3490.375 6803.392 3493.992 Q 6805.083 3497.608 6806.517 3500.774 Q 6807.950 3503.940 6808.411 3505.266 Q 6808.873 3506.592 6808.966 3506.592 "></path>
    <path id="STROKE_79a3123d-8161-4315-b9e3-08a36a6685cd" opacity="1.000" fill="none" stroke="#f3ba38" stroke-width="2.298" stroke-opacity="1.000" stroke-linecap="round" stroke-linejoin="round" d="M 6792.417 3448.405 Q 6791.165 3449.305 6791.338 3449.228 Q 6791.511 3449.150 6791.458 3449.163 Q 6791.396 3449.649 6791.307 3452.433 Q 6791.218 3455.217 6791.911 3457.513 Q 6792.604 3459.810 6793.564 3460.861 Q 6794.524 3461.913 6795.389 3461.977 Q 6796.253 3462.040 6797.629 3461.553 Q 6799.005 3461.066 6803.443 3449.389 L 6803.578 3449.389 Q 6803.971 3449.609 6804.904 3456.871 Q 6805.838 3464.134 6805.887 3468.422 Q 6805.937 3472.709 6806.194 3474.840 Q 6806.453 3476.971 6806.104 3477.776 Q 6805.756 3478.582 6804.992 3478.967 Q 6804.228 3479.352 6802.604 3479.426 Q 6800.979 3479.500 6799.888 3479.365 Q 6798.796 3479.231 6797.376 3478.131 Q 6795.957 3477.032 6795.494 3475.968 Q 6795.032 3474.905 6794.938 3474.608 "></path>
    <path id="STROKE_e7998fbe-9336-49a8-9aef-9add34bdc517" opacity="1.000" fill="none" stroke="#f3ba38" stroke-width="2.321" stroke-opacity="1.000" stroke-linecap="round" stroke-linejoin="round" d="M 7456.741 3662.045 Q 7456.635 3662.392 7456.292 3661.499 Q 7455.950 3660.604 7458.524 3659.447 Q 7461.099 3658.290 7462.987 3658.024 Q 7464.875 3657.758 7465.867 3657.691 Q 7466.859 3657.625 7467.505 3657.910 Q 7468.150 3658.195 7468.430 3658.569 Q 7468.708 3658.942 7468.953 3659.606 Q 7469.197 3660.271 7469.234 3661.040 Q 7469.271 3661.810 7469.506 3662.783 Q 7469.742 3663.757 7468.740 3666.469 Q 7467.738 3669.180 7464.476 3672.788 Q 7461.214 3676.396 7456.490 3679.561 Q 7456.417 3679.260 7459.513 3677.059 Q 7462.608 3674.858 7463.307 3674.264 "></path>
    <path id="STROKE_5ac2884c-811b-4b01-8e88-347eb284af08" opacity="1.000" fill="none" stroke="#f3ba38" stroke-width="2.380" stroke-opacity="1.000" stroke-linecap="round" stroke-linejoin="round" d="M 7475.875 3659.530 Q 7475.287 3658.658 7475.156 3658.827 Q 7473.851 3658.605 7474.026 3658.667 Q 7474.201 3658.730 7474.102 3658.715 Q 7474.002 3658.699 7473.821 3658.933 Q 7473.641 3659.166 7471.977 3661.816 Q 7470.313 3664.466 7469.029 3667.124 Q 7467.745 3669.781 7467.321 3671.397 Q 7466.898 3673.013 7466.970 3674.700 Q 7467.041 3676.387 7480.127 3675.709 Q 7480.221 3675.975 7480.221 3676.245 Q 7480.221 3676.514 7480.189 3676.717 "></path>
  </g>
</svg>