<?xml version="1.0" encoding="UTF-8" standalone="yes"?>
<svg xmlns="http://www.w3.org/2000/svg" xmlns:xlink="http://www.w3.org/1999/xlink" width="1458.109pt" height="697.440pt" version="1.1" viewBox="8645.613 1913.334 1458.109 697.440">
  <!--
	Exported with Concepts: Smarter Sketching
	Version: 1059 on iOS 15.4
	https://concepts.app/
	-->
  <title>Untitled</title>
  <desc>Drawing exported from Concepts: Smarter Sketching</desc>
  <defs></defs>
  <g id="Foreground" opacity="1.000">
    <circle id="STROKE_d5ccf919-72f5-4c44-b846-665086bc7106" opacity="1.000" fill="#f3ba38" stroke="#f3ba38" stroke-width="0.1" stroke-opacity="1.000" fill-opacity="1.000" cx="8860.455" cy="2150.200" r="1.190"></circle>
    <path id="STROKE_0f1d810e-ef8b-4cce-9b9e-102d4537fc29" opacity="1.000" fill="none" stroke="#f3ba38" stroke-width="2.111" stroke-opacity="1.000" stroke-linecap="round" stroke-linejoin="round" d="M 8860.455 2150.200 Q 8860.504 2162.758 8860.535 2170.896 Q 8860.596 2186.105 8860.617 2191.592 Q 8860.668 2204.649 8860.699 2212.287 Q 8860.746 2224.263 8860.781 2232.983 Q 8860.826 2244.604 8860.861 2253.679 Q 8860.904 2264.232 8860.943 2274.375 Q 8860.996 2287.709 8861.025 2295.071 Q 8861.076 2307.888 8861.107 2315.767 Q 8861.162 2329.586 8861.189 2336.463 Q 8861.242 2349.975 8861.270 2357.159 Q 8861.314 2368.165 8861.352 2377.854 Q 8861.408 2391.932 8861.434 2398.551 Q 8861.484 2411.302 8861.516 2419.246 Q 8861.562 2431.222 8861.596 2439.942 Q 8861.650 2453.438 8861.678 2460.638 Q 8861.721 2471.579 8861.760 2481.334 Q 8861.801 2491.887 8861.842 2502.030 Q 8861.887 2513.327 8861.924 2522.726 Q 8861.967 2533.926 8862.004 2543.422 Q 8862.049 2554.654 8862.086 2564.118 Q 8862.059 2556.977 8862.061 2557.694 Q 8862.049 2554.562 8862.053 2555.495 Q 8862.047 2554.083 8862.004 2543.422 "></path>
    <path id="STROKE_3ef886ef-4a3c-4ef5-9d84-59715186bc51" opacity="1.000" fill="none" stroke="#f3ba38" stroke-width="2.380" stroke-opacity="1.000" stroke-linecap="round" stroke-linejoin="round" d="M 8862.059 2557.273 Q 8862.061 2557.532 8862.086 2564.118 Q 8862.131 2575.253 8862.168 2584.814 "></path>
    <path id="STROKE_dad1734f-c850-45fc-b1b1-775f7754e936" opacity="1.000" fill="none" stroke="#f3ba38" stroke-width="1.898" stroke-opacity="1.000" stroke-linecap="round" stroke-linejoin="round" d="M 8841.391 2564.199 Q 8844.494 2564.187 8862.086 2564.118 Q 8875.236 2564.066 8882.781 2564.036 Q 8893.570 2563.993 8903.479 2563.954 Q 8915.787 2563.906 8924.174 2563.873 Q 8934.982 2563.830 8944.869 2563.791 Q 8956.076 2563.747 8965.566 2563.710 Q 8976.350 2563.667 8986.262 2563.628 Q 8999.258 2563.577 9006.957 2563.546 Q 9020.480 2563.493 9027.654 2563.465 Q 9041.445 2563.410 9048.350 2563.383 Q 9060.340 2563.336 9069.045 2563.302 Q 9081.477 2563.253 9089.742 2563.220 Q 9105.918 2563.156 9131.133 2563.057 Q 9144.629 2563.004 9151.828 2562.975 Q 9163.568 2562.929 9172.525 2562.894 Q 9184.791 2562.845 9193.221 2562.812 Q 9207.137 2562.757 9213.916 2562.730 Q 9226.721 2562.680 9234.613 2562.649 Q 9249.064 2562.592 9255.309 2562.567 Q 9269.342 2562.512 9276.004 2562.486 Q 9290.305 2562.429 9296.701 2562.404 Q 9311.141 2562.347 9317.396 2562.322 Q 9330.855 2562.269 9338.092 2562.241 Q 9348.541 2562.199 9358.787 2562.159 Q 9369.635 2562.116 9379.484 2562.078 Q 9393.490 2562.022 9400.180 2561.996 Q 9412.557 2561.947 9420.875 2561.914 Q 9433.910 2561.863 9441.572 2561.833 Q 9454.057 2561.783 9462.268 2561.751 Q 9473.682 2561.706 9482.963 2561.669 Q 9494.646 2561.624 9503.660 2561.588 Q 9514.363 2561.546 9524.355 2561.506 Q 9535.586 2561.462 9545.051 2561.425 Q 9555.473 2561.384 9565.746 2561.343 Q 9565.480 2561.344 9564.918 2561.346 L 9565.746 2561.343 "></path>
    <path id="STROKE_e74c949b-1881-4ca7-ad5a-1532924ceec3" opacity="1.000" fill="none" stroke="#f3ba38" stroke-width="2.380" stroke-opacity="1.000" stroke-linecap="round" stroke-linejoin="round" d="M 8870.279 2357.123 Q 8871.539 2357.118 8881.965 2357.077 Q 8872.910 2357.113 8861.270 2357.159 Q 8849.746 2357.204 8840.574 2357.240 Q 8840.129 2357.242 8861.270 2357.159 Q 8872.090 2357.116 8881.965 2357.077 Q 8877.830 2357.094 8861.270 2357.159 Q 8862.902 2357.152 8881.965 2357.077 Q 8874.420 2357.107 8861.270 2357.159 Q 8861.543 2357.158 8862.342 2357.155 L 8861.270 2357.159 L 8863.980 2357.148 L 8861.270 2357.159 "></path>
    <path id="STROKE_66c565bd-4140-4b81-8915-4b717ada81aa" opacity="1.000" fill="none" stroke="#f3ba38" stroke-width="1.325" stroke-opacity="1.000" stroke-linecap="round" stroke-linejoin="round" d="M 9545.051 2561.425 Q 9551.744 2561.398 9565.746 2561.343 Q 9578.887 2561.292 9586.443 2561.262 Q 9602.871 2561.197 9627.834 2561.098 Q 9641.953 2561.043 9689.922 2560.854 Q 9706.482 2560.788 10024.609 2559.534 "></path>
    <path id="STROKE_a34cb9e8-b37f-4357-b5b3-ab3b1037e46c" opacity="1.000" fill="none" stroke="#f3ba38" stroke-width="1.595" stroke-opacity="1.000" stroke-linecap="round" stroke-linejoin="round" d="M 8864.088 2348.020 Q 8863.986 2348.188 8862.219 2351.249 Q 8862.211 2351.236 8869.209 2339.480 Q 8876.207 2327.725 8885.804 2314.301 Q 8895.400 2300.878 8902.036 2292.632 Q 8908.672 2284.385 8915.099 2277.111 Q 8921.525 2269.836 8924.693 2265.865 Q 8927.861 2261.893 8940.302 2249.873 Q 8952.742 2237.853 8959.694 2231.730 Q 8966.646 2225.608 8972.539 2220.002 Q 8978.432 2214.396 8995.452 2201.899 Q 9012.473 2189.402 9021.493 2183.490 Q 9030.514 2177.579 9035.021 2174.701 Q 9039.527 2171.824 9047.559 2167.193 Q 9055.590 2162.562 9062.278 2158.514 Q 9068.967 2154.465 9089.824 2144.212 Q 9110.682 2133.959 9128.119 2126.643 Q 9145.557 2119.327 9167.673 2111.986 Q 9189.789 2104.646 9200.640 2101.788 Q 9211.490 2098.930 9221.112 2096.200 Q 9230.734 2093.471 9249.775 2089.986 Q 9268.816 2086.502 9278.888 2084.724 Q 9288.959 2082.946 9308.181 2080.946 Q 9327.402 2078.947 9340.951 2077.745 Q 9354.500 2076.544 9377.930 2076.526 Q 9401.359 2076.508 9414.397 2076.922 Q 9427.436 2077.336 9447.322 2078.989 Q 9467.209 2080.642 9482.621 2082.984 Q 9498.033 2085.327 9505.998 2086.561 Q 9513.963 2087.794 9530.896 2091.427 Q 9547.828 2095.060 9557.456 2097.706 Q 9567.084 2100.351 9574.097 2102.145 Q 9581.109 2103.938 9599.943 2109.958 Q 9618.777 2115.979 9635.694 2122.805 Q 9652.611 2129.630 9661.492 2133.642 Q 9670.373 2137.655 9675.825 2140.082 Q 9681.277 2142.510 9692.790 2148.718 Q 9704.303 2154.926 9710.630 2158.282 Q 9716.957 2161.637 9722.554 2164.813 Q 9728.150 2167.989 9743.113 2177.551 Q 9758.076 2187.113 9767.946 2194.333 Q 9777.816 2201.554 9782.617 2205.272 Q 9787.418 2208.990 9792.430 2213.072 Q 9797.441 2217.154 9803.388 2222.037 Q 9809.334 2226.919 9819.121 2235.979 Q 9828.908 2245.040 9836.252 2252.471 Q 9843.596 2259.903 9849.974 2266.861 Q 9856.352 2273.819 9861.715 2280.060 Q 9867.078 2286.302 9872.560 2293.345 Q 9878.041 2300.388 9881.118 2304.360 Q 9884.195 2308.332 9893.016 2320.611 Q 9901.836 2332.890 9910.218 2347.921 Q 9918.600 2362.952 9922.894 2371.353 Q 9927.188 2379.753 9929.117 2383.544 Q 9931.047 2387.335 9937.229 2402.144 Q 9943.410 2416.952 9947.104 2427.912 Q 9950.797 2438.871 9953.752 2449.197 Q 9956.707 2459.523 9958.753 2468.896 Q 9960.799 2478.270 9962.002 2484.110 Q 9963.205 2489.949 9964.506 2498.729 Q 9965.807 2507.509 9966.337 2512.215 Q 9966.867 2516.921 9967.062 2518.805 Q 9967.256 2520.690 9967.310 2521.278 Q 9967.363 2521.865 9967.364 2522.220 Q 9967.365 2522.575 9967.399 2521.795 Q 9967.434 2521.015 9967.974 2528.633 Q 9968.514 2536.252 9968.680 2540.178 Q 9968.846 2544.105 9968.898 2545.520 Q 9968.951 2546.936 9968.976 2547.902 Q 9969.000 2548.868 9969.005 2548.960 Q 9969.010 2549.052 9969.014 2549.281 Q 9969.018 2549.509 9969.032 2550.107 Q 9969.047 2550.705 9969.045 2550.615 Q 9969.043 2550.525 9969.052 2551.006 Q 9969.061 2551.487 9969.061 2551.482 Q 9969.061 2551.477 9969.081 2551.893 Q 9969.102 2552.308 9969.145 2560.398 Q 9969.145 2560.276 9969.145 2559.367 "></path>
    <path id="STROKE_fc22d3e9-7b50-4e37-ad7e-082cb2e49717" opacity="1.000" fill="none" stroke="#f3ba38" stroke-width="2.380" stroke-opacity="1.000" stroke-linecap="round" stroke-linejoin="round" d="M 10012.535 2539.181 Q 10010.721 2539.188 10011.133 2539.186 Q 10010.967 2539.187 10010.764 2539.188 Q 10010.162 2539.597 10012.430 2540.751 Q 10014.697 2541.906 10019.053 2548.554 Q 10023.408 2555.202 10026.027 2560.409 Q 10028.646 2565.616 10030.348 2569.346 Q 10028.705 2569.955 10028.875 2569.876 Q 10026.549 2570.831 10027.055 2570.644 Q 10026.012 2571.231 10025.745 2571.404 Q 10025.479 2571.577 10024.326 2572.444 Q 10023.174 2573.312 10023.595 2573.009 Q 10024.016 2572.707 10020.086 2576.125 Q 10016.156 2579.543 10011.783 2582.961 Q 10013.305 2582.694 10014.053 2581.889 Q 10014.801 2581.084 10015.498 2580.376 "></path>
    <path id="STROKE_12bb47d7-ede7-40d5-8890-f49ca4e8fbc6" opacity="1.000" fill="none" stroke="#f3ba38" stroke-width="2.380" stroke-opacity="1.000" stroke-linecap="round" stroke-linejoin="round" d="M 10052.867 2548.169 Q 10052.885 2545.725 10052.912 2546.484 Q 10052.934 2546.932 10053.029 2545.812 Q 10053.125 2544.692 10056.257 2543.653 Q 10059.389 2542.613 10061.938 2543.013 Q 10064.486 2543.414 10066.109 2544.245 Q 10067.732 2545.077 10069.882 2547.506 Q 10072.031 2549.935 10073.046 2552.892 Q 10074.061 2555.848 10072.647 2559.896 Q 10071.234 2563.943 10067.775 2567.469 Q 10064.316 2570.996 10054.420 2573.341 Q 10054.174 2573.449 10054.176 2573.341 Q 10054.178 2573.234 10054.961 2572.007 Q 10055.744 2570.781 10057.441 2569.682 Q 10059.139 2568.583 10059.947 2567.875 "></path>
    <path id="STROKE_3819a5b9-1c5e-40e7-bc86-89fe5f5ed3b2" opacity="1.000" fill="none" stroke="#f3ba38" stroke-width="2.380" stroke-opacity="1.000" stroke-linecap="round" stroke-linejoin="round" d="M 10085.768 2543.369 Q 10085.676 2543.504 10085.754 2543.494 Q 10085.832 2543.484 10085.276 2542.973 Q 10084.721 2542.462 10083.792 2542.304 Q 10082.863 2542.145 10082.057 2542.363 Q 10081.250 2542.581 10081.195 2542.852 Q 10081.141 2543.123 10080.972 2543.142 Q 10080.803 2543.160 10077.018 2546.725 Q 10073.232 2550.290 10070.737 2554.081 Q 10068.242 2557.872 10067.958 2560.538 Q 10067.674 2563.204 10067.477 2564.800 Q 10067.279 2566.397 10069.908 2569.342 Q 10072.537 2572.288 10079.613 2571.728 Q 10086.689 2571.168 10087.275 2570.807 "></path>
    <path id="STROKE_d93d3081-4785-4855-8c0a-ab99ee841b33" opacity="1.000" fill="none" stroke="#f3ba38" stroke-width="2.123" stroke-opacity="1.000" stroke-linecap="round" stroke-linejoin="round" d="M 8860.535 2170.896 Q 8860.512 2164.724 8860.455 2150.200 Q 8860.400 2136.379 8860.373 2129.504 Q 8860.324 2117.161 8860.291 2108.808 Q 8860.236 2094.934 8860.209 2088.112 Q 8860.168 2077.602 8860.127 2067.416 Q 8860.084 2056.105 8860.047 2046.720 Q 8860.004 2036.157 8859.965 2026.024 Q 8859.994 2033.676 8860.047 2046.720 "></path>
    <path id="STROKE_aac12d03-e625-45d4-ac03-8aa590229e7c" opacity="1.000" fill="none" stroke="#f3ba38" stroke-width="2.293" stroke-opacity="1.000" stroke-linecap="round" stroke-linejoin="round" d="M 8859.965 2026.024 Q 8859.922 2015.111 8859.883 2005.329 Q 8859.838 1993.839 8859.801 1984.633 Q 8859.756 1973.187 8859.719 1963.937 Q 8859.680 1953.576 8859.639 1943.241 L 8859.652 1946.655 L 8859.639 1943.241 Q 8859.654 1947.481 8859.654 1947.358 L 8859.656 1947.611 L 8859.639 1943.241 L 8859.658 1948.202 L 8859.639 1943.241 "></path>
    <path id="STROKE_a3d0014e-3852-4026-9fbe-ee0308b27296" opacity="1.000" fill="none" stroke="#f3ba38" stroke-width="2.238" stroke-opacity="1.000" stroke-linecap="round" stroke-linejoin="round" d="M 8840.178 1959.855 Q 8840.178 1959.855 8840.312 1958.574 Q 8840.445 1957.294 8846.197 1949.132 Q 8851.949 1940.969 8857.088 1929.802 Q 8856.977 1929.057 8858.171 1931.057 Q 8859.365 1933.058 8862.880 1938.926 Q 8866.395 1944.794 8873.186 1951.723 Q 8873.480 1951.542 8873.719 1951.361 "></path>
    <path id="STROKE_8dc9a579-0453-4b07-b1ca-8a70bfaa6700" opacity="1.000" fill="none" stroke="#f3ba38" stroke-width="2.320" stroke-opacity="1.000" stroke-linecap="round" stroke-linejoin="round" d="M 8884.588 1937.247 Q 8884.307 1935.684 8884.225 1935.872 Q 8882.861 1933.423 8883.311 1934.358 Q 8883.139 1934.359 8882.857 1934.360 Q 8882.986 1933.537 8882.265 1939.440 Q 8881.543 1945.343 8882.656 1949.180 Q 8883.770 1953.016 8885.559 1954.282 Q 8887.348 1955.548 8889.278 1955.661 Q 8891.209 1955.775 8893.072 1953.850 Q 8894.936 1951.925 8896.664 1945.779 Q 8898.393 1939.632 8898.988 1932.254 Q 8898.811 1930.406 8898.866 1937.773 Q 8898.922 1945.140 8898.958 1956.518 Q 8898.994 1967.896 8898.582 1974.678 Q 8898.170 1981.460 8897.492 1985.045 Q 8896.814 1988.630 8896.054 1990.123 Q 8895.293 1991.615 8893.677 1991.291 Q 8892.061 1990.966 8891.342 1989.939 Q 8890.623 1988.912 8889.827 1987.455 Q 8889.031 1985.998 8887.791 1983.236 Q 8886.551 1980.474 8885.965 1975.072 Q 8885.379 1969.670 8885.320 1969.188 "></path>
    <path id="STROKE_1d91197b-adbf-4948-8041-7d33a3f0a41f" opacity="1.000" fill="none" stroke="#f3ba38" stroke-width="2.380" stroke-opacity="1.000" stroke-linecap="round" stroke-linejoin="round" d="M 8807.195 2357.008 Q 8805.787 2356.112 8806.170 2356.378 Q 8804.408 2355.674 8804.479 2355.711 Q 8804.549 2355.747 8804.613 2355.775 Q 8804.334 2355.225 8801.808 2354.903 Q 8799.281 2354.581 8796.991 2355.343 Q 8794.701 2356.104 8792.095 2359.099 Q 8789.488 2362.094 8787.575 2365.977 Q 8785.662 2369.858 8784.996 2374.969 Q 8784.330 2380.079 8785.030 2385.030 Q 8785.730 2389.981 8787.782 2394.986 Q 8789.834 2399.991 8791.781 2409.393 Q 8793.729 2418.794 8794.473 2423.888 Q 8795.217 2428.982 8795.453 2431.932 Q 8795.689 2434.881 8795.792 2437.989 Q 8795.895 2441.097 8796.217 2442.931 Q 8796.539 2444.764 8795.016 2446.526 Q 8793.492 2448.288 8792.427 2448.945 Q 8791.361 2449.602 8790.577 2450.032 Q 8789.793 2450.461 8788.262 2450.881 Q 8786.730 2451.300 8783.708 2451.283 Q 8780.686 2451.265 8779.060 2451.270 Q 8777.434 2451.275 8774.596 2451.859 Q 8774.596 2451.925 8774.596 2451.991 Q 8776.814 2452.323 8776.115 2452.249 Q 8777.529 2452.500 8780.548 2453.768 Q 8783.566 2455.036 8784.521 2456.033 Q 8785.475 2457.030 8785.930 2458.009 Q 8786.385 2458.988 8786.634 2460.504 Q 8786.883 2462.021 8787.032 2462.046 Q 8787.182 2462.072 8787.196 2467.542 Q 8787.211 2473.013 8785.679 2482.761 Q 8784.146 2492.510 8783.466 2497.288 Q 8782.785 2502.065 8782.165 2507.346 Q 8781.545 2512.627 8780.706 2522.319 Q 8779.867 2532.011 8779.592 2539.388 Q 8779.316 2546.765 8779.887 2550.326 Q 8780.457 2553.888 8780.902 2555.542 Q 8781.348 2557.195 8782.233 2558.075 Q 8783.119 2558.954 8783.147 2558.891 Q 8783.176 2558.827 8783.316 2559.107 Q 8783.457 2559.387 8786.245 2559.132 Q 8789.033 2558.877 8792.549 2558.397 Q 8796.064 2557.917 8797.914 2557.993 Q 8799.764 2558.069 8801.146 2560.383 Q 8801.229 2560.749 8799.898 2560.399 Q 8798.568 2560.049 8798.109 2559.772 "></path>
    <path id="STROKE_919c743d-fb10-46b7-9bf0-1c6a2f995dff" opacity="1.000" fill="none" stroke="#f3ba38" stroke-width="2.380" stroke-opacity="1.000" stroke-linecap="round" stroke-linejoin="round" d="M 8662.111 2424.671 Q 8662.117 2425.982 8662.098 2421.072 Q 8662.418 2419.386 8682.701 2444.255 Q 8682.697 2443.269 8682.694 2442.491 Q 8682.691 2441.714 8682.689 2441.211 "></path>
    <path id="STROKE_a1d1a6ad-26e2-4aee-bc32-9d2e6f4ff1ac" opacity="1.000" fill="none" stroke="#f3ba38" stroke-width="2.272" stroke-opacity="1.000" stroke-linecap="round" stroke-linejoin="round" d="M 8692.934 2424.311 Q 8692.934 2424.312 8692.289 2424.831 Q 8691.645 2425.350 8689.353 2432.732 Q 8687.061 2440.115 8684.050 2447.721 Q 8681.039 2455.327 8676.873 2470.135 Q 8677.504 2468.940 8679.132 2465.593 Q 8680.760 2462.246 8681.320 2461.463 "></path>
    <path id="STROKE_c2b17b9c-9d9e-4293-9fb0-519c23ee2cf0" opacity="1.000" fill="none" stroke="#f3ba38" stroke-width="2.380" stroke-opacity="1.000" stroke-linecap="round" stroke-linejoin="round" d="M 8695.715 2454.670 Q 8695.715 2453.981 8694.865 2449.280 L 8694.809 2449.280 Q 8692.887 2450.950 8694.043 2469.486 Q 8694.354 2469.853 8696.780 2469.578 Q 8699.207 2469.303 8701.433 2464.683 Q 8703.658 2460.062 8704.465 2456.712 Q 8705.271 2453.361 8705.214 2451.394 Q 8705.156 2449.426 8704.922 2448.895 Q 8704.688 2448.363 8702.875 2448.159 Q 8701.062 2447.955 8699.698 2447.975 Q 8698.334 2447.995 8697.494 2448.719 Q 8696.654 2449.442 8696.299 2449.867 "></path>
    <path id="STROKE_072ca0f0-ccfa-4813-bd82-de4d01fc7051" opacity="1.000" fill="none" stroke="#f3ba38" stroke-width="2.380" stroke-opacity="1.000" stroke-linecap="round" stroke-linejoin="round" d="M 8861.768 2355.587 Q 8861.768 2355.587 8862.886 2355.566 Q 8864.004 2355.545 8881.115 2355.887 Q 8898.227 2356.230 8910.292 2355.515 Q 8922.357 2354.799 8929.266 2354.683 Q 8936.174 2354.567 8948.619 2354.285 Q 8948.562 2354.285 8948.393 2354.286 Q 8948.393 2354.215 8948.363 2353.975 Q 8948.334 2353.735 8948.277 2353.439 "></path>
    <path id="STROKE_7dc8993b-06f1-4bdc-b18c-a5917b168970" opacity="1.000" fill="none" stroke="#f3ba38" stroke-width="2.380" stroke-opacity="1.000" stroke-linecap="round" stroke-linejoin="round" d="M 8883.773 2319.867 Q 8883.406 2319.662 8883.157 2318.511 Q 8882.908 2317.361 8882.999 2316.344 Q 8883.090 2315.328 8883.921 2314.771 Q 8884.752 2314.215 8884.783 2314.229 Q 8884.814 2314.243 8884.826 2314.288 Q 8884.838 2314.333 8884.886 2314.231 Q 8884.934 2314.130 8887.355 2313.994 Q 8889.777 2313.858 8892.846 2316.698 Q 8895.914 2319.538 8897.771 2322.458 Q 8899.627 2325.377 8900.446 2327.732 Q 8901.266 2330.087 8902.402 2332.676 Q 8903.539 2335.265 8899.832 2347.023 L 8899.775 2347.023 Q 8899.094 2348.443 8899.289 2348.112 Q 8899.109 2350.870 8899.184 2349.905 Q 8899.225 2352.274 8899.246 2351.472 Q 8899.236 2351.609 8899.629 2352.303 Q 8899.740 2352.303 8900.191 2352.209 Q 8900.643 2352.116 8901.002 2351.931 "></path>
    <path id="STROKE_902b363b-14dc-4ac9-be0c-8e8148fd7a63" opacity="1.000" fill="none" stroke="#f3ba38" stroke-width="2.380" stroke-opacity="1.000" stroke-linecap="round" stroke-linejoin="round" d="M 8929.654 2311.075 Q 8930.990 2311.406 8923.090 2308.277 Q 8923.035 2307.084 8921.424 2313.760 Q 8919.812 2320.436 8920.494 2324.692 Q 8921.176 2328.948 8922.195 2330.575 Q 8923.215 2332.201 8925.639 2333.089 Q 8928.062 2333.977 8931.009 2333.983 Q 8933.955 2333.989 8937.461 2331.746 Q 8940.967 2329.502 8942.965 2326.125 Q 8944.963 2322.749 8946.416 2318.826 Q 8947.869 2314.904 8946.130 2312.880 Q 8944.391 2310.856 8942.593 2310.385 Q 8940.795 2309.915 8934.777 2307.821 Q 8928.760 2305.728 8922.643 2305.342 Q 8922.566 2307.205 8922.675 2307.290 Q 8922.783 2307.375 8922.977 2307.967 "></path>
    <path id="STROKE_783e2d29-8e83-4eb6-a4ba-b4545d70265b" opacity="1.000" fill="none" stroke="#f3ba38" stroke-width="2.380" stroke-opacity="1.000" stroke-linecap="round" stroke-linejoin="round" d="M 8910.215 2320.385 Q 8910.008 2320.304 8909.346 2319.117 Q 8912.277 2317.991 8925.514 2317.636 Q 8938.750 2317.281 8955.551 2316.705 Q 8955.553 2316.775 8955.431 2316.959 Q 8955.309 2317.143 8955.066 2317.441 "></path>
    <path id="STROKE_ce6632f3-794a-42c3-8c89-cdda81938694" opacity="1.000" fill="none" stroke="#f3ba38" stroke-width="2.380" stroke-opacity="1.000" stroke-linecap="round" stroke-linejoin="round" d="M 8837.631 2577.139 Q 8836.933 2576.067 8836.442 2575.762 Q 8835.952 2575.457 8835.224 2575.494 Q 8834.495 2575.531 8834.005 2575.785 Q 8833.515 2576.039 8833.203 2576.389 Q 8832.892 2576.738 8832.627 2577.053 Q 8832.361 2577.368 8832.293 2577.608 Q 8832.226 2577.848 8831.801 2578.320 Q 8831.377 2578.792 8830.496 2581.077 Q 8829.614 2583.363 8829.416 2585.710 Q 8829.217 2588.059 8829.566 2589.239 Q 8829.915 2590.419 8830.453 2591.494 Q 8830.992 2592.568 8832.042 2593.410 Q 8833.092 2594.252 8834.752 2594.322 Q 8836.411 2594.392 8838.773 2591.883 Q 8841.136 2589.374 8842.648 2587.051 Q 8844.162 2584.728 8844.686 2582.267 Q 8845.210 2579.807 8845.096 2578.645 Q 8844.980 2577.483 8844.713 2576.457 Q 8844.444 2575.431 8842.421 2574.946 Q 8840.397 2574.460 8838.911 2574.202 Q 8837.425 2573.944 8836.012 2574.677 Q 8834.599 2575.410 8834.207 2576.673 Q 8833.816 2577.936 8833.649 2578.201 "></path>
  </g>
</svg>