<?xml version="1.0" encoding="UTF-8" standalone="yes"?>
<svg xmlns="http://www.w3.org/2000/svg" xmlns:xlink="http://www.w3.org/1999/xlink" width="442.976pt" height="288.887pt" version="1.1" viewBox="3173.512 6085.601 442.976 288.887">
  <!--
	Exported with Concepts: Smarter Sketching
	Version: 1059 on iOS 15.4
	https://concepts.app/
	-->
  <title>Untitled</title>
  <desc>Drawing exported from Concepts: Smarter Sketching</desc>
  <defs></defs>
  <g id="Pen" opacity="1.000">
    <path id="STROKE_0bb11f6e-cce0-41ce-ae5d-3a99c8ff110f" opacity="1.000" fill="none" stroke="#f3ba38" stroke-width="2.523" stroke-opacity="1.000" stroke-linecap="round" stroke-linejoin="round" d="M 3180.000 6268.000 Q 3184.656 6268.000 3190.000 6268.000 Q 3196.099 6268.000 3200.000 6268.000 Q 3207.550 6268.000 3230.000 6268.000 Q 3238.528 6268.000 3260.000 6268.000 Q 3265.510 6268.000 3285.854 6268.000 Q 3306.199 6268.000 3319.412 6268.000 Q 3332.624 6268.000 3349.225 6268.000 Q 3365.826 6268.000 3410.000 6268.000 Q 3417.512 6268.000 3430.000 6268.000 Q 3436.258 6268.000 3440.000 6268.000 Q 3447.148 6268.000 3470.000 6268.000 Q 3475.986 6268.000 3480.000 6268.000 Q 3486.991 6268.000 3490.000 6268.000 Q 3495.850 6268.000 3500.000 6268.000 Q 3505.458 6268.000 3510.000 6268.000 Q 3515.797 6268.000 3520.000 6268.000 Q 3525.197 6268.000 3530.000 6268.000 Q 3535.598 6268.000 3540.000 6268.000 Q 3546.124 6268.000 3550.000 6268.000 Q 3555.379 6268.000 3560.000 6268.000 Q 3566.238 6268.000 3570.000 6268.000 Q 3575.118 6268.000 3580.000 6268.000 Q 3585.373 6268.000 3590.000 6268.000 Q 3595.440 6268.000 3600.000 6268.000 Q 3605.049 6268.000 3610.000 6268.000 Q 3608.428 6268.000 3607.237 6268.000 "></path>
    <path id="STROKE_68ffab08-1130-4315-9ffc-0e6bc9ea022d" opacity="1.000" fill="none" stroke="#f3ba38" stroke-width="3.012" stroke-opacity="1.000" stroke-linecap="round" stroke-linejoin="round" d="M 3200.000 6207.087 Q 3200.000 6206.890 3200.000 6205.165 L 3200.000 6208.000 Q 3200.000 6213.384 3200.000 6218.000 Q 3200.000 6224.071 3200.000 6228.000 Q 3200.000 6235.618 3200.000 6248.000 Q 3200.000 6253.624 3200.000 6258.000 Q 3200.000 6263.831 3200.000 6268.000 Q 3200.000 6274.962 3200.000 6278.000 Q 3200.000 6284.056 3200.000 6288.000 Q 3200.000 6293.212 3200.000 6298.000 Q 3200.000 6303.228 3200.000 6308.000 Q 3200.000 6313.181 3200.000 6318.000 Q 3200.000 6323.399 3200.000 6328.000 Q 3200.000 6333.290 3200.000 6338.000 Q 3200.000 6336.806 3200.000 6328.000 Q 3200.000 6321.646 3200.000 6228.000 Q 3200.000 6222.540 3200.000 6218.000 Q 3200.000 6211.134 3200.000 6208.000 Q 3200.000 6202.634 3200.000 6198.000 Q 3200.000 6191.493 3200.000 6188.000 Q 3200.000 6182.603 3200.000 6178.000 Q 3200.000 6172.649 3200.000 6168.000 Q 3200.000 6168.196 3200.000 6178.000 Q 3200.000 6184.134 3200.000 6188.000 Q 3200.000 6194.478 3200.000 6198.000 Q 3200.000 6203.103 3200.000 6208.000 Q 3200.000 6213.624 3200.000 6218.000 Q 3200.000 6224.540 3200.000 6228.000 Q 3200.000 6233.706 3200.000 6238.000 Q 3200.000 6243.837 3200.000 6248.000 Q 3200.000 6255.321 3200.000 6258.000 Q 3200.000 6265.603 3200.000 6268.000 Q 3200.000 6274.024 3200.000 6278.000 Q 3200.000 6284.321 3200.000 6288.000 Q 3200.000 6293.399 3200.000 6298.000 Q 3200.000 6305.149 3200.000 6308.000 Q 3200.000 6314.003 3200.000 6318.000 Q 3200.000 6323.399 3200.000 6328.000 Q 3200.000 6333.706 3200.000 6338.000 Q 3200.000 6343.165 3200.000 6348.000 Q 3200.000 6353.384 3200.000 6358.000 Q 3200.000 6363.399 3200.000 6368.000 Q 3200.000 6363.931 3200.000 6363.212 L 3200.000 6368.000 Q 3200.000 6363.731 3200.000 6358.000 "></path>
    <path id="STROKE_fb591c71-c271-4d62-a7cd-1247b215cb34" opacity="1.000" fill="none" stroke="#6ac0c8" stroke-width="2.979" stroke-opacity="1.000" stroke-linecap="round" stroke-linejoin="round" d="M 3203.381 6264.575 Q 3203.434 6264.496 3203.737 6264.046 Q 3204.040 6263.596 3204.095 6263.620 Q 3204.150 6263.644 3204.042 6263.634 Q 3203.935 6263.624 3208.567 6257.272 Q 3213.199 6250.920 3218.368 6245.149 Q 3223.538 6239.379 3227.244 6235.808 Q 3230.951 6232.237 3232.972 6230.425 Q 3234.992 6228.612 3235.794 6227.889 Q 3236.596 6227.166 3239.084 6225.090 Q 3241.572 6223.014 3243.357 6221.589 Q 3245.142 6220.164 3247.639 6218.293 Q 3250.135 6216.422 3251.600 6215.423 Q 3253.064 6214.424 3253.819 6213.866 Q 3254.574 6213.308 3260.872 6209.125 Q 3267.170 6204.941 3276.116 6200.157 Q 3285.062 6195.374 3292.939 6192.051 Q 3300.816 6188.729 3305.643 6187.020 Q 3310.470 6185.311 3315.388 6183.595 Q 3320.307 6181.879 3330.866 6179.185 Q 3341.425 6176.491 3350.111 6175.160 Q 3358.797 6173.829 3364.487 6173.068 Q 3370.177 6172.308 3381.202 6171.701 Q 3392.227 6171.095 3402.163 6171.470 Q 3412.099 6171.844 3417.860 6172.412 Q 3423.622 6172.979 3426.654 6173.422 Q 3429.687 6173.864 3431.750 6174.097 Q 3433.813 6174.329 3442.895 6175.927 Q 3451.978 6177.525 3462.227 6180.347 Q 3472.475 6183.169 3480.582 6186.109 Q 3488.689 6189.050 3493.212 6191.042 Q 3497.735 6193.034 3499.905 6194.006 Q 3502.075 6194.979 3507.673 6197.632 Q 3513.271 6200.286 3519.999 6204.434 Q 3526.727 6208.581 3530.385 6210.837 Q 3534.043 6213.093 3540.096 6217.677 Q 3546.149 6222.260 3549.080 6224.764 Q 3552.011 6227.267 3553.442 6228.530 Q 3554.874 6229.794 3555.101 6230.017 Q 3555.329 6230.238 3557.161 6231.899 Q 3558.994 6233.560 3561.567 6236.114 Q 3564.140 6238.668 3565.580 6240.202 Q 3567.020 6241.736 3567.869 6242.657 Q 3568.717 6243.579 3569.278 6244.206 Q 3569.839 6244.833 3570.581 6245.689 Q 3571.323 6246.545 3571.342 6246.518 Q 3571.360 6246.490 3573.816 6249.458 Q 3576.272 6252.426 3577.408 6253.888 Q 3578.544 6255.351 3579.554 6256.687 Q 3580.563 6258.023 3581.464 6259.279 Q 3582.365 6260.534 3582.784 6261.131 Q 3583.202 6261.729 3583.615 6262.325 Q 3584.028 6262.922 3584.029 6262.926 Q 3584.031 6262.929 3583.977 6262.848 Q 3583.924 6262.766 3585.166 6264.604 L 3585.131 6264.552 Q 3585.182 6264.628 3585.293 6264.794 L 3585.242 6264.718 "></path>
    <path id="STROKE_f7e7e242-54a3-4ca3-8f90-550e97afcb55" opacity="1.000" fill="none" stroke="#ff9adf" stroke-width="3.257" stroke-opacity="1.000" stroke-linecap="round" stroke-linejoin="round" d="M 3200.833 6263.901 Q 3200.802 6263.933 3200.771 6263.964 L 3200.802 6263.933 L 3200.791 6263.943 Q 3201.025 6263.708 3200.909 6263.825 Q 3200.793 6263.941 3201.083 6263.651 Q 3201.373 6263.361 3201.819 6262.915 Q 3202.266 6262.468 3202.280 6262.454 Q 3202.293 6262.441 3203.988 6260.746 Q 3205.682 6259.052 3207.652 6257.082 Q 3209.622 6255.112 3210.788 6253.946 Q 3211.954 6252.780 3212.860 6251.874 Q 3213.766 6250.968 3214.191 6250.543 Q 3214.616 6250.118 3214.698 6250.036 Q 3214.780 6249.954 3215.312 6249.422 Q 3215.843 6248.891 3216.420 6248.314 Q 3216.997 6247.738 3217.585 6247.149 Q 3218.174 6246.561 3218.109 6246.625 Q 3218.045 6246.689 3218.193 6246.541 Q 3218.342 6246.392 3218.586 6246.148 Q 3218.829 6245.905 3219.169 6245.566 Q 3219.508 6245.227 3219.843 6244.892 Q 3220.178 6244.557 3220.187 6244.547 Q 3220.197 6244.538 3220.313 6244.421 Q 3220.431 6244.303 3222.102 6242.633 Q 3223.772 6240.962 3225.976 6238.758 Q 3228.180 6236.554 3229.303 6235.431 Q 3230.427 6234.308 3231.731 6233.003 Q 3233.035 6231.699 3233.974 6230.760 Q 3234.913 6229.821 3235.512 6229.222 Q 3236.111 6228.623 3236.519 6228.215 Q 3236.927 6227.807 3236.915 6227.819 Q 3236.902 6227.832 3236.889 6227.845 Q 3236.875 6227.859 3236.860 6227.874 Q 3236.845 6227.889 3237.178 6227.556 Q 3237.512 6227.223 3237.833 6226.901 Q 3238.155 6226.579 3238.194 6226.540 Q 3238.233 6226.500 3238.543 6226.190 Q 3238.853 6225.881 3238.846 6225.888 Q 3238.838 6225.896 3238.952 6225.782 Q 3239.065 6225.669 3239.414 6225.320 Q 3239.763 6224.971 3239.836 6224.898 Q 3239.909 6224.825 3239.866 6224.868 Q 3239.823 6224.911 3239.794 6224.940 Q 3239.765 6224.969 3240.380 6224.354 Q 3240.995 6223.739 3241.539 6223.195 Q 3242.083 6222.650 3242.193 6222.541 Q 3242.302 6222.432 3242.628 6222.105 Q 3242.954 6221.779 3242.933 6221.801 Q 3242.912 6221.822 3242.898 6221.835 Q 3242.885 6221.849 3243.324 6221.410 Q 3243.762 6220.972 3243.924 6220.810 Q 3244.086 6220.648 3244.062 6220.672 Q 3244.038 6220.695 3244.068 6220.666 Q 3244.098 6220.636 3244.335 6220.399 Q 3244.572 6220.162 3245.007 6219.727 Q 3245.443 6219.292 3245.748 6218.986 Q 3246.053 6218.681 3246.090 6218.644 Q 3246.128 6218.606 3246.285 6218.449 Q 3246.443 6218.292 3246.771 6217.963 Q 3247.099 6217.635 3247.125 6217.609 Q 3247.150 6217.584 3247.103 6217.631 Q 3247.055 6217.678 3247.497 6217.237 Q 3247.938 6216.795 3248.018 6216.716 Q 3248.098 6216.636 3248.059 6216.676 Q 3248.736 6215.998 3248.522 6216.212 Q 3249.284 6215.450 3249.017 6215.717 Q 3249.627 6215.106 3249.515 6215.220 Q 3250.285 6214.449 3250.010 6214.725 Q 3250.041 6214.693 3250.239 6214.495 Q 3250.210 6214.524 3249.870 6214.864 Q 3249.530 6215.205 3248.539 6216.195 Q 3247.548 6217.186 3247.038 6217.696 Q 3246.528 6218.206 3246.163 6218.571 Q 3245.797 6218.937 3245.396 6219.338 Q 3244.996 6219.738 3244.156 6220.578 Q 3243.315 6221.418 3242.295 6222.438 Q 3241.275 6223.459 3238.248 6226.486 Q 3235.221 6229.513 3232.978 6231.756 Q 3230.735 6233.999 3228.060 6236.674 Q 3225.386 6239.348 3222.939 6241.795 Q 3220.493 6244.241 3216.591 6248.143 Q 3212.689 6252.045 3210.690 6254.044 Q 3208.691 6256.043 3207.708 6257.025 Q 3206.726 6258.008 3206.438 6258.297 Q 3206.149 6258.585 3205.820 6258.914 Q 3205.491 6259.243 3205.167 6259.567 Q 3204.842 6259.893 3204.838 6259.896 Q 3204.834 6259.900 3204.790 6259.944 Q 3204.746 6259.988 3204.331 6260.403 Q 3203.915 6260.819 3203.436 6261.298 Q 3202.957 6261.778 3202.976 6261.759 Q 3202.995 6261.739 3202.953 6261.781 Q 3202.911 6261.823 3202.985 6261.749 Q 3203.060 6261.675 3202.474 6262.260 Q 3201.889 6262.845 3201.984 6262.750 Q 3202.079 6262.655 3201.989 6262.745 Q 3201.900 6262.834 3202.032 6262.702 Q 3202.165 6262.569 3201.094 6263.640 Q 3201.160 6263.574 3203.779 6260.955 Q 3206.398 6258.336 3209.775 6254.959 Q 3213.152 6251.582 3217.085 6247.649 Q 3221.018 6243.716 3224.727 6240.008 Q 3228.435 6236.299 3229.939 6234.795 Q 3231.444 6233.291 3232.458 6232.277 Q 3233.471 6231.263 3233.913 6230.821 Q 3234.355 6230.379 3235.348 6229.386 Q 3236.342 6228.392 3237.064 6227.670 Q 3237.786 6226.948 3238.501 6226.233 Q 3239.216 6225.518 3242.286 6222.448 Q 3242.164 6222.570 3242.058 6222.676 Q 3241.952 6222.782 3242.057 6222.677 Q 3242.163 6222.572 3242.127 6222.607 Q 3242.092 6222.642 3241.743 6222.991 Q 3241.395 6223.340 3241.100 6223.635 Q 3240.805 6223.930 3239.872 6224.862 "></path>
    <path id="STROKE_fd417164-526c-463f-a6d9-44b70a96d765" opacity="1.000" fill="none" stroke="#ff9adf" stroke-width="3.400" stroke-opacity="1.000" stroke-linecap="round" stroke-linejoin="round" d="M 3203.457 6268.000 Q 3203.332 6268.000 3200.000 6268.000 L 3203.395 6268.000 L 3200.000 6268.000 L 3210.000 6268.000 Q 3215.317 6268.000 3220.000 6268.000 Q 3225.239 6268.000 3230.000 6268.000 Q 3235.097 6268.000 3240.000 6268.000 Q 3245.102 6268.000 3250.000 6268.000 Q 3255.045 6268.000 3260.000 6268.000 Q 3265.175 6268.000 3270.000 6268.000 "></path>
    <path id="STROKE_6803b638-8871-4f8a-b016-c8c831b41515" opacity="1.000" fill="none" stroke="#ff9adf" stroke-width="3.400" stroke-opacity="1.000" stroke-linecap="round" stroke-linejoin="round" d="M 3217.422 6246.634 Q 3217.836 6246.335 3217.810 6246.339 Q 3217.783 6246.344 3217.738 6246.354 Q 3217.693 6246.363 3218.268 6245.954 Q 3218.842 6245.545 3218.964 6245.490 Q 3219.085 6245.435 3219.048 6245.470 Q 3221.177 6243.557 3223.816 6246.597 Q 3226.455 6249.636 3227.692 6255.206 Q 3228.929 6260.775 3228.678 6266.399 Q 3228.616 6265.822 3227.344 6263.939 Q 3226.072 6262.056 3225.843 6261.884 "></path>
    <path id="STROKE_866c8b45-4cc6-4366-8d9e-82137f43c65e" opacity="1.000" fill="none" stroke="#ff9adf" stroke-width="3.400" stroke-opacity="1.000" stroke-linecap="round" stroke-linejoin="round" d="M 3253.377 6242.915 Q 3253.627 6243.249 3253.295 6242.283 Q 3252.962 6241.317 3252.552 6240.331 Q 3252.143 6239.345 3251.612 6239.305 Q 3251.081 6239.265 3250.544 6239.566 Q 3250.008 6239.868 3249.848 6240.192 Q 3249.689 6240.517 3248.757 6242.214 Q 3247.826 6243.912 3247.344 6246.936 Q 3246.863 6249.960 3246.936 6252.063 Q 3247.009 6254.166 3247.421 6254.888 Q 3247.833 6255.609 3248.496 6256.131 Q 3249.158 6256.653 3250.545 6256.607 Q 3251.931 6256.561 3253.672 6255.334 Q 3255.412 6254.106 3256.839 6252.830 Q 3258.265 6251.554 3259.394 6249.979 Q 3260.523 6248.403 3260.868 6247.070 Q 3261.213 6245.738 3260.600 6244.592 Q 3259.987 6243.445 3259.406 6243.038 Q 3258.826 6242.631 3257.767 6242.057 Q 3256.707 6241.483 3255.258 6241.402 Q 3253.808 6241.322 3252.650 6241.307 Q 3251.492 6241.291 3251.181 6241.465 Q 3250.870 6241.640 3250.138 6242.426 Q 3249.406 6243.212 3249.208 6243.446 "></path>
    <path id="STROKE_957d15cd-87f6-4deb-bbdb-210e3f66361f" opacity="1.000" fill="none" stroke="#ff9adf" stroke-width="3.400" stroke-opacity="1.000" stroke-linecap="round" stroke-linejoin="round" d="M 3239.079 6247.618 Q 3239.266 6247.609 3237.765 6247.759 Q 3237.276 6247.644 3243.204 6247.801 Q 3249.132 6247.958 3253.270 6247.588 Q 3257.408 6247.219 3259.652 6246.494 Q 3261.897 6245.770 3263.284 6246.058 Q 3264.672 6246.345 3265.560 6247.167 Q 3266.448 6247.990 3268.218 6249.743 Q 3268.569 6250.761 3267.992 6248.963 Q 3267.415 6247.165 3267.217 6246.899 "></path>
    <path id="STROKE_6b75830e-eed6-413b-a35d-4d2ac29c23d6" opacity="1.000" fill="none" stroke="#ff9adf" stroke-width="3.400" stroke-opacity="1.000" stroke-linecap="round" stroke-linejoin="round" d="M 3394.675 6170.259 Q 3394.357 6169.964 3394.184 6169.807 Q 3394.010 6169.649 3394.038 6169.620 Q 3394.065 6169.590 3394.094 6169.802 Q 3394.123 6170.014 3393.633 6168.337 Q 3393.342 6168.756 3395.707 6183.462 L 3395.770 6183.462 Q 3396.114 6183.477 3396.072 6170.196 Q 3395.976 6170.210 3395.676 6183.524 Q 3395.497 6182.036 3395.508 6180.362 Q 3395.520 6178.688 3395.488 6178.087 "></path>
    <path id="STROKE_adbcc311-35ce-4ac8-92fc-0c158a973caa" opacity="1.000" fill="none" stroke="#71c047" stroke-width="3.400" stroke-opacity="1.000" stroke-linecap="round" stroke-linejoin="round" d="M 3394.759 6197.134 Q 3394.759 6197.134 3394.476 6197.661 Q 3394.192 6198.188 3394.425 6197.923 Q 3394.425 6198.938 3394.425 6198.923 Q 3394.262 6199.058 3394.521 6201.791 Q 3394.780 6204.524 3394.884 6204.821 "></path>
    <path id="STROKE_835ead6d-a9ab-47f2-93ba-a74e0c729fca" opacity="1.000" fill="none" stroke="#71c047" stroke-width="3.400" stroke-opacity="1.000" stroke-linecap="round" stroke-linejoin="round" d="M 3396.072 6219.228 Q 3396.040 6219.894 3396.124 6221.830 Q 3396.207 6223.767 3396.343 6223.931 "></path>
    <path id="STROKE_4a7bf2bc-0ab2-4e4f-b9f1-38767375a8cc" opacity="1.000" fill="none" stroke="#71c047" stroke-width="3.400" stroke-opacity="1.000" stroke-linecap="round" stroke-linejoin="round" d="M 3396.801 6232.634 Q 3396.747 6232.201 3396.709 6233.228 Q 3396.671 6234.253 3396.432 6235.140 Q 3396.192 6236.025 3396.877 6236.896 Q 3397.562 6237.767 3397.656 6237.931 "></path>
    <path id="STROKE_7b604005-3725-4051-bd5a-a60bddbc8f7d" opacity="1.000" fill="none" stroke="#71c047" stroke-width="3.400" stroke-opacity="1.000" stroke-linecap="round" stroke-linejoin="round" d="M 3397.593 6262.946 Q 3397.594 6264.156 3397.593 6263.876 Q 3397.593 6265.308 3397.593 6264.876 Q 3397.593 6266.163 3397.593 6265.767 Q 3397.625 6265.899 3397.828 6266.134 Q 3398.031 6266.368 3398.135 6266.540 "></path>
    <path id="STROKE_455d51c6-4a66-4b41-b453-46fdd5e96b63" opacity="1.000" fill="none" stroke="#71c047" stroke-width="3.400" stroke-opacity="1.000" stroke-linecap="round" stroke-linejoin="round" d="M 3358.533 6093.884 Q 3358.272 6093.510 3357.042 6092.165 Q 3357.158 6092.558 3356.995 6095.919 Q 3356.833 6099.281 3357.557 6101.152 Q 3358.282 6103.022 3358.508 6103.350 Q 3358.733 6103.676 3358.746 6103.931 Q 3358.758 6104.186 3360.382 6105.136 Q 3362.006 6106.085 3363.354 6105.001 Q 3364.702 6103.917 3365.419 6102.474 Q 3366.136 6101.030 3366.788 6098.775 Q 3367.440 6096.521 3367.871 6092.103 Q 3367.667 6091.570 3368.680 6097.393 Q 3369.693 6103.215 3369.421 6108.397 Q 3369.150 6113.580 3368.706 6116.699 Q 3368.262 6119.818 3365.651 6124.743 Q 3364.765 6124.742 3364.890 6124.712 Q 3364.404 6125.149 3362.192 6119.177 Q 3359.981 6113.204 3359.721 6112.540 "></path>
    <path id="STROKE_1c2eb0dc-c4ab-418e-837f-c0c9a96ec760" opacity="1.000" fill="none" stroke="#71c047" stroke-width="3.400" stroke-opacity="1.000" stroke-linecap="round" stroke-linejoin="round" d="M 3378.000 6114.321 Q 3377.404 6113.824 3376.479 6111.603 Q 3376.183 6111.602 3377.729 6123.446 Q 3378.572 6123.784 3379.853 6120.176 Q 3381.134 6116.567 3382.092 6114.177 Q 3383.050 6111.787 3384.848 6110.868 Q 3385.364 6110.061 3386.244 6121.696 Q 3386.614 6121.634 3387.888 6118.004 Q 3389.162 6114.374 3391.872 6111.134 Q 3392.635 6111.251 3393.091 6121.884 Q 3393.981 6121.457 3394.151 6121.026 Q 3394.321 6120.595 3394.613 6120.228 "></path>
    <path id="STROKE_fc281155-f122-4ef5-b0f5-cfb4ca7c4d65" opacity="1.000" fill="none" stroke="#71c047" stroke-width="3.400" stroke-opacity="1.000" stroke-linecap="round" stroke-linejoin="round" d="M 3399.844 6114.728 Q 3398.894 6114.728 3398.948 6114.728 Q 3397.459 6114.728 3397.684 6114.732 Q 3397.907 6114.737 3397.515 6114.803 Q 3397.123 6114.868 3397.081 6114.760 Q 3397.038 6114.652 3396.853 6116.456 Q 3396.668 6118.259 3396.633 6119.336 Q 3396.599 6120.413 3396.786 6120.796 Q 3396.974 6121.179 3397.439 6121.372 Q 3397.904 6121.564 3398.201 6121.599 Q 3398.498 6121.634 3399.024 6121.447 Q 3399.551 6121.261 3399.886 6120.964 Q 3400.221 6120.667 3400.537 6120.018 Q 3400.853 6119.369 3401.170 6119.327 Q 3401.486 6119.285 3402.950 6111.337 Q 3402.314 6111.311 3403.054 6122.649 Q 3404.193 6122.658 3404.055 6122.485 Q 3404.673 6121.799 3405.141 6121.279 Q 3405.608 6120.759 3405.931 6120.431 "></path>
    <path id="STROKE_3ced36a9-6e73-4ef8-be20-3d8f0569e2b3" opacity="1.000" fill="none" stroke="#71c047" stroke-width="3.400" stroke-opacity="1.000" stroke-linecap="round" stroke-linejoin="round" d="M 3412.372 6110.681 Q 3412.505 6110.995 3411.830 6109.415 Q 3411.566 6108.855 3412.044 6110.378 Q 3412.522 6111.901 3413.822 6114.310 Q 3415.121 6116.718 3415.954 6118.065 Q 3416.787 6119.412 3417.615 6120.066 Q 3418.443 6120.721 3419.461 6121.056 Q 3420.479 6121.392 3420.980 6121.556 "></path>
    <path id="STROKE_adec3f1f-0730-4cfe-8f65-008c8576a528" opacity="1.000" fill="none" stroke="#71c047" stroke-width="3.400" stroke-opacity="1.000" stroke-linecap="round" stroke-linejoin="round" d="M 3422.418 6109.884 Q 3421.873 6110.056 3419.445 6114.783 Q 3417.018 6119.510 3415.602 6125.009 Q 3415.633 6125.009 3416.165 6124.196 Q 3416.697 6123.384 3416.999 6123.024 "></path>
    <path id="STROKE_4dd7b614-4e34-4a91-b48b-29b4a5a52bb1" opacity="1.000" fill="none" stroke="#71c047" stroke-width="3.400" stroke-opacity="1.000" stroke-linecap="round" stroke-linejoin="round" d="M 3426.858 6114.321 Q 3426.454 6113.632 3426.419 6113.588 Q 3426.385 6113.544 3426.462 6113.532 Q 3426.452 6112.744 3426.493 6112.767 Q 3425.942 6112.458 3427.738 6112.340 Q 3429.534 6112.222 3430.783 6112.468 Q 3432.033 6112.713 3433.214 6113.451 Q 3434.395 6114.189 3436.355 6115.675 Q 3438.315 6117.161 3439.853 6119.722 Q 3441.391 6122.283 3442.058 6125.090 Q 3442.725 6127.896 3442.469 6129.914 Q 3442.213 6131.932 3441.479 6132.825 Q 3440.745 6133.718 3439.925 6134.887 Q 3439.105 6136.056 3437.815 6137.384 Q 3436.526 6138.712 3435.447 6139.772 Q 3434.369 6140.833 3432.420 6141.280 Q 3430.472 6141.729 3426.822 6139.863 Q 3423.171 6137.997 3420.467 6136.939 Q 3417.763 6135.882 3414.298 6135.474 Q 3410.833 6135.066 3408.735 6135.105 Q 3406.637 6135.146 3405.623 6135.482 Q 3404.608 6135.819 3403.984 6136.241 Q 3403.361 6136.664 3403.067 6137.085 Q 3402.773 6137.506 3402.807 6137.548 Q 3402.841 6137.591 3402.830 6137.609 Q 3402.819 6137.628 3402.836 6137.520 Q 3402.853 6137.412 3402.781 6138.163 Q 3402.708 6138.915 3402.803 6139.677 Q 3402.898 6140.438 3403.023 6140.998 Q 3403.147 6141.558 3403.438 6142.191 Q 3403.729 6142.825 3403.961 6143.280 Q 3404.194 6143.736 3404.539 6144.264 Q 3404.883 6144.791 3405.139 6146.103 Q 3405.014 6146.071 3404.889 6146.040 "></path>
    <path id="STROKE_34ceae54-b4f5-4cb3-997e-e2b91abd552c" opacity="1.000" fill="none" stroke="#71c047" stroke-width="3.400" stroke-opacity="1.000" stroke-linecap="round" stroke-linejoin="round" d="M 3392.299 6148.228 Q 3393.730 6147.732 3393.362 6147.798 Q 3393.603 6147.773 3394.213 6147.252 Q 3394.823 6146.730 3398.624 6146.280 Q 3402.426 6145.830 3404.696 6145.855 Q 3406.966 6145.880 3408.168 6145.965 Q 3409.371 6146.050 3409.974 6146.259 Q 3410.577 6146.467 3410.979 6146.578 Q 3411.382 6146.689 3411.356 6146.703 Q 3411.330 6146.716 3411.213 6146.597 Q 3411.096 6146.478 3411.767 6147.134 Q 3411.243 6147.979 3411.141 6148.301 Q 3411.038 6148.623 3411.040 6148.453 Q 3411.041 6148.283 3409.729 6150.778 Q 3408.417 6153.274 3407.975 6154.646 Q 3407.533 6156.017 3405.792 6158.171 Q 3404.051 6160.325 3404.443 6159.839 Q 3404.836 6159.354 3405.087 6158.876 Q 3405.706 6159.512 3402.959 6156.941 Q 3400.213 6154.370 3398.706 6152.524 Q 3397.198 6150.679 3396.472 6149.626 Q 3395.746 6148.572 3395.374 6146.978 Q 3396.174 6146.978 3396.041 6146.978 Q 3396.574 6147.057 3397.380 6148.714 Q 3398.186 6150.370 3399.015 6151.645 Q 3399.843 6152.919 3401.137 6153.243 Q 3401.169 6152.713 3402.856 6150.681 Q 3403.216 6151.997 3403.096 6151.649 Q 3403.042 6151.394 3403.325 6153.212 Q 3403.642 6153.368 3403.681 6153.323 Q 3403.720 6153.277 3403.707 6153.285 Q 3403.694 6153.292 3404.144 6153.029 Q 3404.594 6152.765 3404.857 6152.603 Q 3405.120 6152.439 3405.118 6152.540 Q 3406.016 6152.548 3405.743 6152.571 Q 3405.699 6152.663 3406.117 6153.068 Q 3406.534 6153.473 3407.056 6153.868 Q 3406.830 6154.354 3407.089 6153.302 Q 3407.349 6152.250 3406.640 6151.113 Q 3405.931 6149.977 3405.317 6149.943 Q 3404.704 6149.909 3404.910 6149.793 Q 3405.116 6149.678 3404.518 6149.750 Q 3403.919 6149.822 3403.487 6150.373 Q 3403.054 6150.923 3403.159 6150.884 Q 3403.127 6151.017 3403.096 6151.149 "></path>
    <path id="STROKE_31f0f685-8380-4a3b-b825-f0d220f9698f" opacity="1.000" fill="none" stroke="#71c047" stroke-width="3.400" stroke-opacity="1.000" stroke-linecap="round" stroke-linejoin="round" d="M 3197.892 6265.665 Q 3197.310 6264.275 3196.537 6264.212 Q 3196.554 6264.271 3196.338 6265.493 Q 3196.123 6266.714 3196.619 6267.628 Q 3197.116 6268.542 3197.770 6269.082 Q 3198.424 6269.621 3198.846 6269.896 Q 3199.269 6270.171 3199.636 6270.363 Q 3200.003 6270.555 3199.915 6270.532 Q 3199.826 6270.510 3200.052 6270.657 Q 3200.278 6270.804 3201.300 6270.751 Q 3201.288 6270.688 3201.369 6269.410 Q 3201.449 6268.133 3200.439 6267.341 Q 3199.430 6266.548 3198.562 6266.266 Q 3197.694 6265.983 3197.072 6265.888 Q 3196.449 6265.793 3196.245 6269.259 Q 3196.308 6269.259 3196.469 6269.274 Q 3196.631 6269.290 3196.891 6269.321 "></path>
  </g>
</svg>