<?xml version="1.0" encoding="UTF-8" standalone="yes"?>
<svg xmlns="http://www.w3.org/2000/svg" xmlns:xlink="http://www.w3.org/1999/xlink" width="555.176pt" height="395.255pt" version="1.1" viewBox="-317.588 320.332 555.176 395.255">
  <!--
	Exported with Concepts: Smarter Sketching
	Version: 1059 on iOS 15.4
	https://concepts.app/
	-->
  <title>Untitled 2</title>
  <desc>Drawing exported from Concepts: Smarter Sketching</desc>
  <defs></defs>
  <g id="Pen" opacity="1.000">
    <path id="STROKE_44eb194a-6c0d-4cd2-aa33-91db3fdb192f" opacity="1.000" fill="none" stroke="#f3ba38" stroke-width="3.042" stroke-opacity="1.000" stroke-linecap="round" stroke-linejoin="round" d="M -303.210 568.000 Q -304.067 568.000 -304.065 568.000 Q -305.013 568.000 -310.000 568.000 L -300.000 568.000 Q -294.665 568.000 -290.000 568.000 Q -284.076 568.000 -280.000 568.000 Q -274.259 568.000 -270.000 568.000 Q -263.879 568.000 -260.000 568.000 Q -253.540 568.000 -250.000 568.000 Q -242.493 568.000 -230.000 568.000 Q -224.339 568.000 -220.000 568.000 Q -213.208 568.000 -210.000 568.000 Q -202.682 568.000 -190.000 568.000 Q -183.548 568.000 -180.000 568.000 Q -172.105 568.000 -150.000 568.000 Q -144.300 568.000 -140.000 568.000 Q -132.169 568.000 -120.000 568.000 Q -114.556 568.000 -110.000 568.000 Q -103.634 568.000 -100.000 568.000 Q -92.378 568.000 -80.000 568.000 Q -73.369 568.000 -70.000 568.000 Q -62.781 568.000 -60.000 568.000 Q -53.380 568.000 -50.000 568.000 Q -43.917 568.000 -40.000 568.000 Q -34.975 568.000 -30.000 568.000 Q -23.720 568.000 -20.000 568.000 Q -13.986 568.000 -10.000 568.000 Q -4.648 568.000 0.000 568.000 Q 5.086 568.000 10.000 568.000 Q 15.945 568.000 20.000 568.000 Q 26.138 568.000 30.000 568.000 Q 35.955 568.000 40.000 568.000 Q 46.002 568.000 50.000 568.000 Q 55.277 568.000 60.000 568.000 Q 65.865 568.000 70.000 568.000 Q 75.412 568.000 80.000 568.000 Q 85.208 568.000 90.000 568.000 Q 95.005 568.000 100.000 568.000 "></path>
    <path id="STROKE_47befbc3-2e5a-46dc-9b07-17c913281bbc" opacity="1.000" fill="none" stroke="#f3ba38" stroke-width="3.388" stroke-opacity="1.000" stroke-linecap="round" stroke-linejoin="round" d="M -300.000 444.188 Q -300.000 444.274 -300.000 438.000 Q -300.000 442.062 -300.000 448.000 Q -300.000 453.875 -300.000 458.000 Q -300.000 463.359 -300.000 468.000 Q -300.000 474.312 -300.000 478.000 Q -300.000 483.797 -300.000 488.000 Q -300.000 493.547 -300.000 498.000 Q -300.000 504.359 -300.000 508.000 Q -300.000 513.922 -300.000 518.000 Q -300.000 524.203 -300.000 528.000 Q -300.000 534.281 -300.000 538.000 Q -300.000 543.844 -300.000 548.000 Q -300.000 553.062 -300.000 558.000 Q -300.000 564.672 -300.000 568.000 Q -300.000 573.234 -300.000 578.000 Q -300.000 583.781 -300.000 588.000 Q -300.000 593.281 -300.000 598.000 Q -300.000 603.156 -300.000 608.000 Q -300.000 613.781 -300.000 618.000 Q -300.000 623.734 -300.000 628.000 Q -300.000 633.016 -300.000 638.000 Q -300.000 643.234 -300.000 648.000 Q -300.000 653.250 -300.000 658.000 Q -300.000 663.469 -300.000 668.000 Q -300.000 673.500 -300.000 678.000 Q -300.000 683.781 -300.000 688.000 Q -300.000 693.391 -300.000 698.000 Q -300.000 703.016 -300.000 708.000 Q -300.000 707.922 -300.000 707.734 L -300.000 708.000 L -300.000 707.469 L -300.000 708.000 L -300.000 706.406 L -300.000 708.000 L -300.000 706.078 L -300.000 708.000 Q -300.000 705.666 -300.000 703.688 L -300.000 708.000 L -300.000 698.000 "></path>
    <path id="STROKE_b7b13199-75c7-4ffe-a5fb-9dbb2121a89f" opacity="1.000" fill="none" stroke="#6ac0c8" stroke-width="3.343" stroke-opacity="1.000" stroke-linecap="round" stroke-linejoin="round" d="M -298.012 566.858 Q -297.888 565.596 -297.889 565.612 Q -297.765 564.703 -297.500 562.281 Q -297.236 559.858 -296.533 553.879 Q -295.830 547.900 -294.147 538.008 Q -292.465 528.117 -290.670 520.169 Q -288.875 512.221 -287.229 506.152 Q -285.583 500.083 -284.610 496.733 Q -283.638 493.383 -281.520 486.898 Q -279.402 480.413 -276.854 474.001 Q -274.307 467.588 -272.765 463.753 Q -271.224 459.918 -267.314 452.102 Q -263.405 444.287 -260.790 439.863 Q -258.175 435.439 -255.543 431.121 Q -252.911 426.803 -248.462 420.968 Q -244.014 415.134 -241.167 412.040 Q -238.320 408.945 -236.663 407.140 Q -235.007 405.335 -231.525 402.150 Q -228.044 398.964 -224.323 396.019 Q -220.602 393.074 -215.846 390.109 Q -211.090 387.144 -207.083 385.337 Q -203.076 383.531 -201.433 382.975 Q -199.790 382.420 -198.611 381.942 Q -197.433 381.464 -193.511 380.495 Q -189.588 379.526 -186.778 379.150 Q -183.968 378.774 -180.400 378.548 Q -176.832 378.323 -172.707 378.664 Q -168.582 379.005 -164.915 379.629 Q -161.249 380.253 -156.099 381.896 Q -150.950 383.540 -146.398 385.769 Q -141.846 387.997 -138.538 390.154 Q -135.230 392.310 -133.108 393.790 Q -130.986 395.270 -127.608 398.086 Q -124.230 400.903 -122.477 402.588 Q -120.723 404.274 -119.408 405.523 Q -118.092 406.773 -114.914 410.387 Q -111.735 414.002 -109.446 416.507 Q -107.156 419.013 -101.953 426.729 Q -96.750 434.445 -94.046 439.210 Q -91.342 443.976 -89.841 446.824 Q -88.340 449.673 -86.930 452.658 Q -85.520 455.642 -84.643 457.290 Q -83.766 458.938 -80.619 466.493 Q -77.472 474.047 -75.689 479.194 Q -73.906 484.341 -72.504 488.301 Q -71.102 492.262 -68.340 502.210 Q -65.577 512.158 -64.034 519.240 Q -62.490 526.321 -61.377 532.281 Q -60.263 538.240 -59.471 543.252 Q -58.679 548.265 -57.537 557.236 Q -57.541 557.210 -57.544 557.185 Q -57.426 558.161 -57.425 558.168 Q -57.425 558.175 -57.434 558.098 Q -57.267 559.512 -57.328 558.994 Q -57.484 557.492 -56.724 564.483 L -56.730 564.424 Q -56.728 564.445 -56.712 564.597 "></path>
    <path id="STROKE_c10706aa-cf8b-431c-99d3-ad649cde88b4" opacity="1.000" fill="none" stroke="#ff9adf" stroke-width="3.128" stroke-opacity="1.000" stroke-linecap="round" stroke-linejoin="round" d="M -298.289 569.786 Q -298.295 569.800 -298.312 569.842 Q -297.951 568.998 -297.947 569.006 Q -297.409 567.877 -297.501 568.082 Q -297.710 568.109 -296.324 566.006 Q -294.938 563.903 -294.287 563.124 Q -293.637 562.346 -292.479 560.797 Q -291.320 559.248 -287.760 556.256 Q -284.200 553.265 -281.799 551.634 Q -279.398 550.004 -278.195 549.283 Q -276.993 548.563 -275.660 547.765 Q -274.328 546.968 -270.340 544.701 Q -266.352 542.434 -258.273 539.074 Q -250.194 535.715 -245.050 533.894 Q -239.905 532.072 -233.105 530.003 Q -226.305 527.934 -222.776 526.997 Q -219.248 526.059 -216.392 525.331 Q -213.537 524.604 -211.430 524.088 Q -209.324 523.572 -205.220 522.698 Q -201.115 521.824 -197.729 521.004 Q -194.342 520.184 -181.146 517.803 Q -167.950 515.423 -156.223 513.928 Q -144.496 512.434 -137.696 511.443 Q -130.895 510.453 -113.458 509.219 Q -96.021 507.985 -87.035 507.534 Q -78.049 507.083 -71.045 506.840 Q -64.041 506.596 -51.964 506.429 Q -39.887 506.262 -29.672 506.396 Q -19.457 506.529 -11.093 506.838 Q -2.729 507.146 3.418 507.317 Q 9.566 507.488 24.386 508.608 Q 39.207 509.729 46.942 510.495 Q 54.677 511.260 62.028 512.171 Q 69.379 513.082 74.066 513.697 Q 78.753 514.312 88.777 515.834 Q 98.802 517.356 109.660 519.557 Q 120.518 521.758 127.021 523.160 Q 133.524 524.562 143.244 527.297 Q 152.963 530.032 157.547 531.617 Q 162.131 533.201 164.687 534.022 Q 167.242 534.843 173.022 537.199 Q 178.803 539.556 181.875 540.867 Q 184.947 542.177 189.212 544.502 Q 193.478 546.827 195.403 547.953 Q 197.328 549.079 199.528 550.558 Q 201.727 552.038 203.093 553.048 Q 204.460 554.059 206.490 555.772 Q 208.521 557.485 210.499 559.487 Q 212.477 561.488 213.604 563.030 Q 214.731 564.572 215.283 565.429 Q 215.835 566.287 215.961 566.514 Q 216.087 566.741 216.069 566.703 Q 216.051 566.666 216.044 566.659 Q 216.038 566.653 216.064 566.694 Q 216.089 566.736 216.482 567.463 Q 216.875 568.190 216.855 568.164 Q 217.415 569.331 217.298 569.082 Q 217.180 568.832 217.224 568.930 Q 217.269 569.027 217.594 569.811 "></path>
    <path id="STROKE_05be4647-bcf6-429f-921b-c6f1a8ba73a6" opacity="1.000" fill="none" stroke="#ff9adf" stroke-width="3.400" stroke-opacity="1.000" stroke-linecap="round" stroke-linejoin="round" d="M 217.673 569.803 Q 217.600 569.566 217.672 569.803 "></path>
    <path id="STROKE_dfcdd539-dc1d-4f14-afae-646b17daa2a2" opacity="1.000" fill="none" stroke="#f3ba38" stroke-width="3.309" stroke-opacity="1.000" stroke-linecap="round" stroke-linejoin="round" d="M 100.000 568.000 Q 102.300 568.000 110.000 568.000 Q 115.994 568.000 120.000 568.000 Q 126.791 568.000 130.000 568.000 Q 137.046 568.000 140.000 568.000 Q 145.592 568.000 150.000 568.000 Q 156.722 568.000 160.000 568.000 Q 167.061 568.000 170.000 568.000 Q 175.794 568.000 180.000 568.000 Q 186.445 568.000 190.000 568.000 Q 195.054 568.000 200.000 568.000 Q 205.850 568.000 210.000 568.000 Q 215.001 568.000 220.000 568.000 Q 225.193 568.000 230.000 568.000 "></path>
    <path id="STROKE_d1289487-022d-49e3-9847-265ba53d5d8c" opacity="1.000" fill="none" stroke="#6ac0c8" stroke-width="3.372" stroke-opacity="1.000" stroke-linecap="round" stroke-linejoin="round" d="M -186.862 327.938 Q -186.984 328.163 -186.830 327.973 Q -186.676 327.783 -187.001 328.100 Q -187.327 328.417 -187.654 328.818 Q -187.980 329.219 -188.157 329.570 Q -188.333 329.922 -189.089 331.524 Q -189.845 333.126 -190.927 335.946 Q -192.009 338.767 -197.200 353.750 Q -197.377 353.124 -196.325 351.613 Q -195.272 350.102 -194.949 349.641 "></path>
    <path id="STROKE_d46feec7-51c1-4b4c-a748-59aa9aa61140" opacity="1.000" fill="none" stroke="#6ac0c8" stroke-width="3.279" stroke-opacity="1.000" stroke-linecap="round" stroke-linejoin="round" d="M -186.466 330.266 Q -187.238 330.266 -187.039 330.266 Q -187.102 330.266 -187.258 330.266 Q -187.136 331.315 -187.029 331.328 Q -186.924 330.582 -185.376 337.653 Q -183.827 344.725 -180.307 352.484 Q -180.203 352.484 -180.171 352.484 Q -180.171 352.511 -180.239 351.455 Q -180.307 350.398 -180.442 349.969 "></path>
    <path id="STROKE_220c7aa8-8844-4ef1-8731-c60d5eba342e" opacity="1.000" fill="none" stroke="#6ac0c8" stroke-width="3.400" stroke-opacity="1.000" stroke-linecap="round" stroke-linejoin="round" d="M -194.407 345.781 Q -194.305 345.659 -195.012 346.906 Q -197.562 346.834 -189.299 346.491 Q -181.036 346.148 -180.442 345.984 "></path>
    <path id="STROKE_6f27616b-d561-4d25-9c42-eb4410b3b548" opacity="1.000" fill="none" stroke="#ff9adf" stroke-width="3.270" stroke-opacity="1.000" stroke-linecap="round" stroke-linejoin="round" d="M 97.527 473.703 Q 97.516 472.542 97.495 472.781 Q 97.391 471.907 97.402 471.992 Q 97.402 470.775 97.402 470.930 Q 97.402 469.555 97.402 469.992 Q 97.402 469.758 97.766 469.125 Q 99.524 467.849 99.611 497.859 Q 100.561 497.123 100.372 496.930 Q 100.622 496.489 101.211 494.670 Q 101.800 492.852 102.029 492.359 "></path>
    <path id="STROKE_def375fe-fab7-448c-a752-54493ebc9d15" opacity="1.000" fill="none" stroke="#ff9adf" stroke-width="3.400" stroke-opacity="1.000" stroke-linecap="round" stroke-linejoin="round" d="M 98.256 473.312 Q 98.176 473.258 98.234 473.384 Q 98.293 473.509 97.506 473.136 Q 96.720 472.763 97.180 471.380 Q 97.640 469.996 98.675 469.653 Q 99.710 469.311 100.372 469.283 Q 101.034 469.255 101.705 469.268 Q 102.375 469.282 103.108 469.246 Q 103.840 469.211 104.919 469.269 Q 105.997 469.328 106.769 469.630 Q 107.541 469.932 107.645 470.043 Q 107.749 470.154 108.409 470.424 Q 109.068 470.695 109.618 472.024 Q 110.167 473.353 110.047 474.983 Q 109.927 476.612 107.955 478.426 Q 105.982 480.241 99.903 481.281 Q 99.140 480.620 101.410 480.167 Q 103.679 479.715 105.525 479.748 Q 107.370 479.781 108.512 480.677 Q 109.653 481.574 111.172 483.320 Q 112.690 485.066 113.588 487.405 Q 114.485 489.744 114.535 491.560 Q 114.585 493.377 114.370 494.669 Q 114.154 495.961 112.456 496.949 Q 110.758 497.937 108.058 498.186 Q 105.358 498.435 103.029 497.133 Q 102.612 497.490 103.363 496.480 Q 104.113 495.469 104.405 495.203 "></path>
  </g>
</svg>