<?xml version="1.0" encoding="UTF-8" standalone="yes"?>
<svg xmlns="http://www.w3.org/2000/svg" xmlns:xlink="http://www.w3.org/1999/xlink" width="240.479pt" height="277.142pt" version="1.1" viewBox="1604.138 2587.519 240.479 277.142">
  <!--
	Exported with Concepts: Smarter Sketching
	Version: 1059 on iOS 15.4
	https://concepts.app/
	-->
  <title>Untitled</title>
  <desc>Drawing exported from Concepts: Smarter Sketching</desc>
  <defs></defs>
  <g id="Pen" opacity="1.000">
    <path id="STROKE_fa4dec7c-3255-4e8f-9b03-4a7c0d5428a4" opacity="1.000" fill="none" stroke="#f3ba38" stroke-width="3.400" stroke-opacity="1.000" stroke-linecap="round" stroke-linejoin="round" d="M 1793.556 2765.078 Q 1793.583 2766.119 1793.587 2767.163 Q 1793.591 2768.206 1793.572 2769.249 Q 1793.552 2770.292 1793.509 2771.334 Q 1793.466 2772.376 1793.399 2773.417 Q 1793.333 2774.458 1793.243 2775.498 Q 1793.152 2776.537 1793.039 2777.574 Q 1792.925 2778.611 1792.788 2779.645 Q 1792.651 2780.679 1792.491 2781.710 Q 1792.330 2782.741 1792.147 2783.768 Q 1791.963 2784.795 1791.756 2785.817 Q 1791.550 2786.840 1791.320 2787.857 Q 1791.090 2788.875 1790.837 2789.887 Q 1790.584 2790.899 1790.309 2791.905 Q 1790.033 2792.911 1789.735 2793.911 Q 1789.437 2794.910 1789.116 2795.903 Q 1788.795 2796.896 1788.452 2797.881 Q 1788.109 2798.866 1787.744 2799.843 Q 1787.378 2800.820 1786.991 2801.789 Q 1786.604 2802.758 1786.195 2803.717 Q 1785.786 2804.677 1785.355 2805.627 Q 1784.924 2806.577 1784.472 2807.517 Q 1784.020 2808.458 1783.547 2809.387 Q 1783.074 2810.317 1782.580 2811.236 Q 1782.086 2812.155 1781.571 2813.062 Q 1781.056 2813.969 1780.521 2814.865 Q 1779.986 2815.760 1779.431 2816.644 Q 1778.876 2817.527 1778.301 2818.397 Q 1777.726 2819.268 1777.131 2820.125 Q 1776.537 2820.982 1775.923 2821.826 Q 1775.310 2822.669 1774.677 2823.499 Q 1774.044 2824.328 1773.393 2825.143 Q 1772.742 2825.958 1772.072 2826.758 Q 1771.403 2827.558 1770.716 2828.343 Q 1770.028 2829.127 1769.323 2829.896 Q 1768.618 2830.666 1767.896 2831.418 Q 1767.174 2832.171 1766.435 2832.907 Q 1765.696 2833.644 1764.941 2834.363 Q 1764.185 2835.083 1763.414 2835.785 Q 1762.642 2836.487 1761.855 2837.172 Q 1761.068 2837.856 1760.266 2838.523 Q 1759.463 2839.189 1758.646 2839.838 Q 1757.829 2840.486 1756.997 2841.116 Q 1756.165 2841.745 1755.319 2842.356 Q 1754.474 2842.967 1753.614 2843.558 Q 1752.755 2844.150 1751.882 2844.721 Q 1751.010 2845.293 1750.125 2845.845 Q 1749.240 2846.397 1748.342 2846.929 Q 1747.445 2847.461 1746.536 2847.972 Q 1745.626 2848.484 1744.706 2848.975 Q 1743.785 2849.465 1742.854 2849.935 Q 1741.923 2850.405 1740.981 2850.854 Q 1740.039 2851.302 1739.087 2851.730 Q 1738.136 2852.157 1737.175 2852.562 Q 1736.213 2852.968 1735.243 2853.352 Q 1734.273 2853.736 1733.295 2854.098 Q 1732.317 2854.459 1731.330 2854.799 Q 1730.344 2855.139 1729.350 2855.456 Q 1728.356 2855.773 1727.355 2856.068 Q 1726.355 2856.363 1725.348 2856.635 Q 1724.341 2856.906 1723.328 2857.156 Q 1722.315 2857.405 1721.296 2857.631 Q 1720.278 2857.857 1719.255 2858.061 Q 1718.231 2858.264 1717.204 2858.444 Q 1716.176 2858.624 1715.145 2858.780 Q 1714.114 2858.937 1713.079 2859.070 Q 1712.044 2859.204 1711.007 2859.313 Q 1709.970 2859.423 1708.930 2859.510 Q 1707.891 2859.596 1706.849 2859.659 Q 1705.808 2859.722 1704.765 2859.762 Q 1703.723 2859.801 1702.680 2859.817 Q 1701.637 2859.833 1700.594 2859.825 Q 1699.551 2859.817 1698.508 2859.786 Q 1697.465 2859.754 1696.423 2859.700 Q 1695.382 2859.645 1694.341 2859.566 Q 1693.301 2859.488 1692.263 2859.386 Q 1691.225 2859.284 1690.189 2859.159 Q 1689.153 2859.033 1688.121 2858.885 Q 1687.088 2858.736 1686.060 2858.564 Q 1685.031 2858.392 1684.006 2858.197 Q 1682.981 2858.001 1681.961 2857.783 Q 1680.941 2857.565 1679.926 2857.324 Q 1678.911 2857.082 1677.902 2856.818 Q 1676.893 2856.554 1675.890 2856.267 Q 1674.887 2855.980 1673.891 2855.670 Q 1672.895 2855.361 1671.906 2855.029 Q 1670.917 2854.697 1669.935 2854.343 Q 1668.954 2853.989 1667.981 2853.612 Q 1667.008 2853.236 1666.044 2852.838 Q 1665.080 2852.439 1664.125 2852.020 Q 1663.170 2851.600 1662.225 2851.158 Q 1661.280 2850.717 1660.344 2850.254 Q 1659.409 2849.792 1658.485 2849.308 Q 1657.561 2848.824 1656.648 2848.320 Q 1655.735 2847.815 1654.833 2847.291 Q 1653.932 2846.766 1653.042 2846.221 Q 1652.153 2845.676 1651.276 2845.110 Q 1650.399 2844.545 1649.535 2843.960 Q 1648.671 2843.376 1647.821 2842.771 Q 1646.970 2842.167 1646.134 2841.544 Q 1645.297 2840.921 1644.475 2840.279 Q 1643.653 2839.637 1642.845 2838.977 Q 1642.038 2838.316 1641.245 2837.638 Q 1640.453 2836.959 1639.676 2836.263 Q 1638.899 2835.567 1638.138 2834.854 Q 1637.377 2834.140 1636.632 2833.409 Q 1635.888 2832.679 1635.160 2831.931 Q 1634.432 2831.184 1633.721 2830.421 Q 1633.010 2829.657 1632.317 2828.878 Q 1631.623 2828.098 1630.948 2827.304 Q 1630.272 2826.509 1629.615 2825.699 Q 1628.957 2824.889 1628.318 2824.064 Q 1627.679 2823.240 1627.059 2822.401 Q 1626.439 2821.562 1625.837 2820.710 Q 1625.236 2819.857 1624.655 2818.991 Q 1624.073 2818.125 1623.511 2817.246 Q 1622.949 2816.367 1622.407 2815.476 Q 1621.865 2814.585 1621.343 2813.681 Q 1620.822 2812.778 1620.321 2811.863 Q 1619.819 2810.948 1619.339 2810.022 Q 1618.859 2809.096 1618.399 2808.159 Q 1617.940 2807.223 1617.502 2806.276 Q 1617.064 2805.329 1616.648 2804.373 Q 1616.231 2803.416 1615.836 2802.451 Q 1615.442 2801.485 1615.069 2800.511 Q 1614.696 2799.536 1614.345 2798.554 Q 1613.995 2797.572 1613.666 2796.582 Q 1613.338 2795.591 1613.032 2794.594 Q 1612.726 2793.597 1612.442 2792.593 Q 1612.159 2791.589 1611.898 2790.579 Q 1611.638 2789.569 1611.400 2788.553 Q 1611.162 2787.537 1610.948 2786.516 Q 1610.733 2785.495 1610.542 2784.470 Q 1610.350 2783.444 1610.182 2782.415 Q 1610.013 2781.385 1609.868 2780.352 Q 1609.723 2779.319 1609.602 2778.283 Q 1609.480 2777.247 1609.382 2776.208 Q 1609.284 2775.170 1609.209 2774.129 Q 1609.134 2773.089 1609.083 2772.047 Q 1609.032 2771.005 1609.004 2769.962 Q 1608.977 2768.919 1608.973 2767.876 Q 1608.969 2766.833 1608.988 2765.790 Q 1609.008 2764.747 1609.051 2763.705 Q 1609.094 2762.662 1609.161 2761.621 Q 1609.227 2760.580 1609.317 2759.541 Q 1609.407 2758.502 1609.521 2757.465 Q 1609.635 2756.428 1609.772 2755.394 Q 1609.909 2754.359 1610.069 2753.329 Q 1610.229 2752.298 1610.413 2751.271 Q 1610.597 2750.244 1610.804 2749.221 Q 1611.010 2748.199 1611.240 2747.181 Q 1611.470 2746.164 1611.723 2745.152 Q 1611.976 2744.140 1612.251 2743.134 Q 1612.527 2742.127 1612.825 2741.128 Q 1613.123 2740.128 1613.444 2739.135 Q 1613.765 2738.143 1614.108 2737.158 Q 1614.451 2736.173 1614.816 2735.195 Q 1615.182 2734.218 1615.569 2733.250 Q 1615.956 2732.281 1616.365 2731.321 Q 1616.774 2730.362 1617.205 2729.412 Q 1617.636 2728.461 1618.088 2727.521 Q 1618.540 2726.581 1619.013 2725.651 Q 1619.486 2724.722 1619.980 2723.803 Q 1620.474 2722.884 1620.989 2721.977 Q 1621.504 2721.069 1622.039 2720.174 Q 1622.574 2719.278 1623.129 2718.395 Q 1623.684 2717.512 1624.259 2716.642 Q 1624.834 2715.771 1625.428 2714.914 Q 1626.023 2714.057 1626.637 2713.213 Q 1627.250 2712.370 1627.883 2711.540 Q 1628.516 2710.710 1629.167 2709.896 Q 1629.818 2709.081 1630.488 2708.281 Q 1631.157 2707.480 1631.844 2706.696 Q 1632.532 2705.911 1633.237 2705.142 Q 1633.942 2704.373 1634.664 2703.621 Q 1635.386 2702.868 1636.125 2702.131 Q 1636.864 2701.395 1637.619 2700.676 Q 1638.375 2699.956 1639.146 2699.254 Q 1639.918 2698.552 1640.705 2697.867 Q 1641.492 2697.182 1642.294 2696.516 Q 1643.097 2695.849 1643.914 2695.201 Q 1644.731 2694.553 1645.563 2693.923 Q 1646.395 2693.293 1647.240 2692.683 Q 1648.086 2692.072 1648.946 2691.480 Q 1649.805 2690.889 1650.677 2690.317 Q 1651.550 2689.745 1652.435 2689.193 Q 1653.320 2688.641 1654.218 2688.109 Q 1655.115 2687.577 1656.024 2687.066 Q 1656.934 2686.555 1657.854 2686.064 Q 1658.775 2685.573 1659.706 2685.103 Q 1660.638 2684.633 1661.579 2684.185 Q 1662.521 2683.736 1663.473 2683.309 Q 1664.425 2682.882 1665.386 2682.476 Q 1666.347 2682.070 1667.317 2681.687 Q 1668.287 2681.302 1669.265 2680.941 Q 1670.244 2680.579 1671.230 2680.239 Q 1672.216 2679.900 1673.210 2679.583 Q 1674.204 2679.265 1675.205 2678.971 Q 1676.205 2678.676 1677.213 2678.404 Q 1678.220 2678.132 1679.233 2677.883 Q 1680.246 2677.634 1681.264 2677.407 Q 1682.282 2677.181 1683.306 2676.978 Q 1684.329 2676.775 1685.356 2676.595 Q 1686.384 2676.415 1687.415 2676.258 Q 1688.447 2676.102 1689.481 2675.968 Q 1690.516 2675.835 1691.553 2675.725 Q 1692.591 2675.615 1693.630 2675.529 Q 1694.670 2675.442 1695.711 2675.379 Q 1696.753 2675.316 1697.795 2675.277 Q 1698.838 2675.238 1699.881 2675.222 Q 1700.924 2675.206 1701.967 2675.214 Q 1703.010 2675.221 1704.053 2675.253 Q 1705.095 2675.284 1706.137 2675.339 Q 1707.179 2675.394 1708.219 2675.472 Q 1709.260 2675.551 1710.298 2675.653 Q 1711.336 2675.755 1712.372 2675.880 Q 1713.407 2676.005 1714.440 2676.154 Q 1715.472 2676.303 1716.501 2676.475 Q 1717.530 2676.647 1718.555 2676.842 Q 1719.580 2677.037 1720.600 2677.256 Q 1721.620 2677.474 1722.635 2677.715 Q 1723.650 2677.957 1724.659 2678.221 Q 1725.668 2678.485 1726.671 2678.772 Q 1727.674 2679.059 1728.670 2679.369 Q 1729.667 2679.678 1730.655 2680.010 Q 1731.644 2680.342 1732.625 2680.696 Q 1733.607 2681.051 1734.580 2681.427 Q 1735.553 2681.803 1736.517 2682.201 Q 1737.481 2682.600 1738.436 2683.020 Q 1739.391 2683.439 1740.336 2683.881 Q 1741.281 2684.322 1742.217 2684.785 Q 1743.151 2685.248 1744.076 2685.731 Q 1745.000 2686.215 1745.913 2686.719 Q 1746.826 2687.224 1747.728 2687.749 Q 1748.629 2688.273 1749.519 2688.819 Q 1750.408 2689.364 1751.285 2689.929 Q 1752.162 2690.494 1753.026 2691.079 Q 1753.890 2691.664 1754.740 2692.268 Q 1755.591 2692.872 1756.427 2693.495 Q 1757.264 2694.118 1758.086 2694.760 Q 1758.908 2695.402 1759.716 2696.063 Q 1760.523 2696.723 1761.316 2697.402 Q 1762.108 2698.080 1762.885 2698.776 Q 1763.662 2699.473 1764.423 2700.186 Q 1765.184 2700.900 1765.928 2701.630 Q 1766.673 2702.361 1767.401 2703.108 Q 1768.129 2703.855 1768.840 2704.619 Q 1769.551 2705.383 1770.244 2706.162 Q 1770.938 2706.941 1771.613 2707.736 Q 1772.289 2708.531 1772.946 2709.341 Q 1773.604 2710.151 1774.243 2710.976 Q 1774.882 2711.800 1775.502 2712.639 Q 1776.122 2713.478 1776.723 2714.330 Q 1777.324 2715.183 1777.906 2716.049 Q 1778.488 2716.915 1779.050 2717.794 Q 1779.612 2718.673 1780.154 2719.564 Q 1780.696 2720.455 1781.217 2721.359 Q 1781.739 2722.262 1782.240 2723.177 Q 1782.741 2724.092 1783.222 2725.018 Q 1783.702 2725.944 1784.161 2726.881 Q 1784.620 2727.817 1785.058 2728.764 Q 1785.496 2729.711 1785.913 2730.667 Q 1786.329 2731.624 1786.724 2732.590 Q 1787.119 2733.555 1787.492 2734.530 Q 1787.865 2735.504 1788.215 2736.486 Q 1788.566 2737.469 1788.894 2738.459 Q 1789.223 2739.449 1789.529 2740.446 Q 1789.835 2741.444 1790.118 2742.448 Q 1790.401 2743.452 1790.662 2744.462 Q 1790.923 2745.472 1791.160 2746.488 Q 1791.398 2747.503 1791.613 2748.524 Q 1791.827 2749.545 1792.019 2750.571 Q 1792.210 2751.596 1792.379 2752.626 Q 1792.547 2753.655 1792.692 2754.688 Q 1792.837 2755.721 1792.959 2756.757 Q 1793.080 2757.793 1793.178 2758.832 Q 1793.277 2759.871 1793.351 2760.911 Q 1793.426 2761.952 1793.477 2762.994 Q 1793.528 2764.036 1793.556 2765.078 Z"></path>
    <path id="STROKE_f629b7fe-6bd2-4e50-9533-d7145883b525" opacity="1.000" fill="none" stroke="#f3ba38" stroke-width="3.400" stroke-opacity="1.000" stroke-linecap="round" stroke-linejoin="round" d="M 1702.037 2764.739 Q 1700.977 2764.625 1700.253 2764.981 Q 1699.530 2765.338 1699.141 2765.679 Q 1698.752 2766.021 1698.732 2766.315 Q 1698.712 2766.609 1698.630 2766.410 Q 1698.549 2766.211 1698.623 2767.151 Q 1698.697 2768.091 1698.876 2768.555 Q 1699.055 2769.020 1699.675 2769.729 Q 1700.294 2770.437 1701.276 2770.759 Q 1702.257 2771.081 1703.270 2770.453 Q 1704.282 2769.825 1704.443 2769.277 Q 1704.603 2768.730 1704.748 2768.083 Q 1704.893 2767.436 1704.987 2767.326 Q 1705.082 2767.216 1704.904 2766.278 Q 1704.727 2765.341 1704.493 2765.249 Q 1704.260 2765.157 1704.041 2765.011 Q 1703.822 2764.866 1703.744 2764.835 Q 1703.667 2764.805 1702.833 2764.772 Q 1701.998 2764.740 1701.532 2765.414 Q 1701.066 2766.087 1700.683 2766.799 Q 1700.301 2767.510 1700.289 2767.568 Q 1700.278 2767.627 1700.156 2768.064 Q 1700.033 2768.500 1700.075 2768.307 Q 1700.116 2768.113 1700.036 2768.785 Q 1699.925 2768.851 1700.851 2768.752 Q 1701.777 2768.653 1701.975 2768.520 "></path>
    <path id="STROKE_b0b458f1-d372-4de2-836d-0cceacf6ce82" opacity="1.000" fill="none" stroke="#f3ba38" stroke-width="3.400" stroke-opacity="1.000" stroke-linecap="round" stroke-linejoin="round" d="M 1646.583 2629.706 Q 1645.807 2629.680 1649.283 2629.526 Q 1652.759 2629.371 1657.219 2629.488 Q 1661.679 2629.605 1664.567 2629.389 Q 1667.455 2629.173 1668.749 2629.268 Q 1670.043 2629.363 1670.316 2629.542 "></path>
    <path id="STROKE_40069f89-2b7f-49a8-b691-a7352316a745" opacity="1.000" fill="none" stroke="#f3ba38" stroke-width="3.400" stroke-opacity="1.000" stroke-linecap="round" stroke-linejoin="round" d="M 1648.940 2638.852 Q 1650.229 2639.179 1649.880 2639.074 Q 1650.588 2639.440 1656.710 2639.077 Q 1662.833 2638.715 1666.596 2638.751 Q 1670.360 2638.787 1671.036 2638.997 "></path>
    <path id="STROKE_d2c6b683-8dc8-43be-a668-59ff35e04006" opacity="1.000" fill="none" stroke="#f3ba38" stroke-width="3.400" stroke-opacity="1.000" stroke-linecap="round" stroke-linejoin="round" d="M 1708.689 2618.260 Q 1707.473 2617.739 1707.784 2617.840 Q 1706.565 2616.941 1706.667 2617.011 Q 1706.770 2617.081 1706.334 2616.832 Q 1705.898 2616.583 1704.685 2616.509 Q 1703.472 2616.435 1702.822 2616.615 Q 1702.171 2616.795 1700.743 2617.647 Q 1699.316 2618.500 1697.190 2620.837 Q 1695.065 2623.174 1693.728 2626.028 Q 1692.392 2628.882 1691.876 2632.697 Q 1691.361 2636.512 1691.390 2638.757 Q 1691.419 2641.002 1691.541 2641.917 Q 1691.663 2642.832 1692.688 2643.953 Q 1693.712 2645.074 1694.666 2645.750 Q 1695.619 2646.427 1698.103 2646.769 Q 1700.586 2647.110 1703.363 2646.552 Q 1706.139 2645.994 1709.188 2644.495 Q 1712.237 2642.997 1714.385 2641.695 Q 1716.535 2640.393 1717.471 2637.691 Q 1718.407 2634.989 1718.620 2632.547 Q 1718.834 2630.105 1717.083 2627.202 Q 1715.331 2624.299 1714.334 2622.519 Q 1713.337 2620.738 1712.099 2620.013 Q 1710.862 2619.289 1709.345 2619.234 Q 1707.829 2619.180 1704.946 2619.697 Q 1702.063 2620.214 1701.658 2620.374 "></path>
    <path id="STROKE_91dc5ae2-5102-4604-9ad8-2c88530f144d" opacity="1.000" fill="none" stroke="#f3ba38" stroke-width="3.299" stroke-opacity="1.000" stroke-linecap="round" stroke-linejoin="round" d="M 1682.526 2628.575 Q 1682.240 2628.346 1682.032 2629.617 Q 1681.663 2630.354 1693.222 2629.711 Q 1704.781 2629.068 1710.806 2628.883 Q 1716.832 2628.698 1719.318 2628.491 Q 1721.805 2628.284 1723.566 2628.364 Q 1725.328 2628.445 1725.810 2632.546 Q 1724.407 2633.021 1724.957 2632.826 Q 1724.895 2632.762 1724.832 2632.697 "></path>
    <path id="STROKE_890eb84d-74c9-445e-8a6a-89df918788a4" opacity="1.000" fill="none" stroke="#f3ba38" stroke-width="3.400" stroke-opacity="1.000" stroke-linecap="round" stroke-linejoin="round" d="M 1741.986 2630.204 Q 1739.810 2630.728 1740.030 2634.497 Q 1740.516 2634.642 1741.687 2633.372 Q 1742.857 2632.101 1743.104 2631.906 "></path>
    <path id="STROKE_c7b49126-c63b-458f-8c24-0572f9316181" opacity="1.000" fill="none" stroke="#f3ba38" stroke-width="3.400" stroke-opacity="1.000" stroke-linecap="round" stroke-linejoin="round" d="M 1703.621 2766.067 Q 1703.481 2766.165 1702.433 2765.926 Q 1703.304 2765.967 1703.054 2765.899 Q 1702.804 2765.832 1704.751 2766.059 Q 1706.698 2766.286 1708.832 2766.390 Q 1710.966 2766.494 1719.073 2766.517 Q 1727.180 2766.540 1731.645 2766.996 Q 1736.109 2767.452 1739.763 2766.843 Q 1743.417 2766.234 1745.912 2765.912 Q 1748.407 2765.590 1752.164 2765.627 Q 1755.922 2765.664 1757.887 2765.425 Q 1759.852 2765.186 1760.629 2765.238 Q 1761.405 2765.289 1765.445 2765.117 Q 1769.486 2764.945 1775.448 2764.890 Q 1781.410 2764.834 1784.362 2764.853 Q 1787.314 2764.872 1788.690 2764.866 Q 1790.067 2764.860 1790.636 2764.863 Q 1791.205 2764.865 1791.911 2764.864 Q 1792.618 2764.863 1793.874 2764.864 Q 1793.874 2764.832 1793.874 2764.801 Q 1793.623 2764.794 1793.071 2764.813 Q 1792.519 2764.832 1792.227 2764.864 "></path>
    <path id="STROKE_05e8f153-bbd0-4b26-b7a0-8df28c4e538c" opacity="1.000" fill="none" stroke="#f3ba38" stroke-width="3.400" stroke-opacity="1.000" stroke-linecap="round" stroke-linejoin="round" d="M 1701.766 2767.129 Q 1701.735 2767.129 1701.704 2767.129 Q 1701.881 2767.208 1701.287 2766.726 Q 1700.694 2766.244 1704.023 2759.374 Q 1707.353 2752.503 1708.878 2749.067 Q 1710.402 2745.631 1711.186 2743.553 Q 1711.970 2741.475 1714.958 2735.161 Q 1717.947 2728.847 1719.725 2725.523 Q 1721.503 2722.200 1722.549 2719.421 Q 1723.595 2716.643 1725.292 2713.751 Q 1726.990 2710.860 1728.590 2706.024 Q 1730.189 2701.188 1731.321 2697.554 Q 1732.452 2693.920 1733.669 2690.853 Q 1734.886 2687.785 1736.627 2684.051 L 1736.658 2684.051 Q 1736.771 2684.108 1736.439 2684.848 Q 1736.408 2684.848 1736.283 2684.949 Q 1736.158 2685.051 1735.991 2685.176 "></path>
    <path id="STROKE_1949620d-b0c0-4d23-b683-19437a25a6ae" opacity="1.000" fill="none" stroke="#f3ba38" stroke-width="3.400" stroke-opacity="1.000" stroke-linecap="round" stroke-linejoin="round" d="M 1710.646 2746.020 Q 1710.680 2745.344 1710.739 2745.434 Q 1710.855 2745.028 1711.388 2744.544 Q 1711.921 2744.059 1713.441 2743.620 Q 1714.961 2743.180 1716.168 2743.726 Q 1717.376 2744.271 1718.063 2745.006 Q 1718.751 2745.740 1719.197 2746.331 Q 1719.644 2746.921 1720.073 2747.707 Q 1720.502 2748.492 1720.882 2748.866 Q 1721.262 2749.239 1722.640 2752.999 Q 1724.019 2756.758 1724.913 2760.895 Q 1725.328 2760.232 1725.334 2760.079 Q 1725.340 2759.926 1725.465 2759.567 "></path>
    <path id="STROKE_314a4080-41ba-45fa-a2cd-38fdcbee5c92" opacity="1.000" fill="none" stroke="#f3ba38" stroke-width="3.400" stroke-opacity="1.000" stroke-linecap="round" stroke-linejoin="round" d="M 1742.953 2738.270 Q 1742.316 2738.205 1742.474 2738.273 Q 1742.631 2738.340 1741.776 2737.921 Q 1740.920 2737.502 1740.048 2737.445 Q 1739.177 2737.388 1738.593 2737.548 Q 1738.009 2737.709 1737.819 2738.077 Q 1737.629 2738.445 1737.370 2738.856 Q 1737.112 2739.267 1737.160 2739.366 Q 1737.208 2739.465 1736.969 2742.126 Q 1736.731 2744.788 1737.985 2747.324 Q 1739.240 2749.860 1740.710 2750.915 Q 1742.181 2751.970 1743.805 2752.137 Q 1745.429 2752.303 1747.387 2750.466 Q 1749.345 2748.629 1750.300 2746.317 Q 1751.254 2744.004 1751.399 2742.552 Q 1751.543 2741.100 1751.531 2740.003 Q 1751.518 2738.906 1748.497 2738.323 Q 1745.475 2737.740 1743.506 2737.661 Q 1741.536 2737.583 1740.739 2738.473 Q 1739.941 2739.364 1739.701 2739.660 "></path>
    <path id="STROKE_4e3234aa-1df2-4214-8c74-789079af9a69" opacity="1.000" fill="none" stroke="#f3ba38" stroke-width="3.400" stroke-opacity="1.000" stroke-linecap="round" stroke-linejoin="round" d="M 1733.094 2742.645 Q 1733.078 2742.655 1733.869 2743.060 Q 1734.660 2743.465 1734.516 2743.311 Q 1734.372 2743.158 1734.376 2743.185 Q 1734.380 2743.211 1736.208 2743.321 Q 1738.037 2743.431 1740.426 2743.008 Q 1742.814 2742.584 1743.631 2742.353 Q 1744.448 2742.121 1746.458 2741.415 Q 1748.467 2740.708 1753.479 2739.426 Q 1753.483 2739.433 1753.580 2739.082 Q 1753.677 2738.731 1753.750 2738.535 "></path>
    <path id="STROKE_437180df-2656-482a-adcc-14aacceecd0d" opacity="1.000" fill="none" stroke="#ff9adf" stroke-width="3.131" stroke-opacity="1.000" stroke-linecap="round" stroke-linejoin="round" d="M 1757.031 2606.882 Q 1757.034 2606.732 1757.072 2606.311 Q 1758.415 2606.149 1758.189 2616.003 Q 1757.962 2625.856 1757.677 2632.060 Q 1757.392 2638.263 1757.579 2642.470 Q 1757.643 2642.471 1757.675 2642.471 Q 1757.650 2642.520 1757.730 2641.661 Q 1757.772 2641.662 1757.922 2641.613 Q 1758.071 2641.563 1758.179 2641.462 "></path>
    <path id="STROKE_4afbde6b-ddf6-45ef-9b4c-cedfa2abb97e" opacity="1.000" fill="none" stroke="#ff9adf" stroke-width="3.400" stroke-opacity="1.000" stroke-linecap="round" stroke-linejoin="round" d="M 1755.317 2609.351 Q 1755.680 2608.896 1755.801 2608.717 Q 1755.922 2608.538 1755.987 2608.491 Q 1756.052 2608.444 1755.904 2608.562 Q 1755.755 2608.679 1756.331 2608.048 Q 1756.907 2607.418 1757.971 2607.380 Q 1759.035 2607.343 1759.769 2607.470 Q 1760.503 2607.597 1762.193 2608.309 Q 1763.882 2609.020 1765.691 2611.261 Q 1767.501 2613.502 1768.586 2614.965 Q 1769.671 2616.428 1770.146 2618.928 Q 1770.620 2621.428 1770.721 2622.746 Q 1770.822 2624.063 1770.660 2624.592 Q 1770.499 2625.122 1769.920 2625.729 Q 1769.340 2626.337 1768.784 2626.609 Q 1768.228 2626.880 1767.917 2626.959 Q 1767.606 2627.038 1767.442 2627.028 Q 1767.277 2627.018 1767.007 2627.442 Q 1766.737 2627.866 1758.102 2626.946 Q 1758.286 2625.410 1758.513 2625.768 Q 1759.159 2624.751 1761.078 2625.174 Q 1762.997 2625.597 1763.858 2626.356 Q 1764.720 2627.116 1765.507 2627.793 Q 1766.293 2628.471 1768.861 2631.581 Q 1771.429 2634.691 1773.414 2638.915 Q 1775.400 2643.138 1776.183 2648.154 Q 1776.216 2647.072 1775.781 2646.279 Q 1775.345 2645.486 1775.149 2645.181 "></path>
    <path id="STROKE_efe2f0d0-139e-4fc0-8c1a-3ca3046321a5" opacity="1.000" fill="none" stroke="#ff9adf" stroke-width="3.400" stroke-opacity="1.000" stroke-linecap="round" stroke-linejoin="round" d="M 1696.868 2775.957 Q 1696.868 2775.957 1696.960 2775.729 Q 1697.053 2775.500 1698.087 2774.957 Q 1698.270 2775.083 1698.693 2777.997 Q 1699.116 2780.910 1699.897 2782.463 Q 1700.677 2784.015 1701.147 2784.895 Q 1701.616 2785.774 1705.499 2785.941 Q 1709.381 2786.108 1712.253 2785.745 Q 1715.126 2785.383 1717.885 2784.819 Q 1720.643 2784.256 1722.036 2783.873 Q 1723.430 2783.490 1723.958 2783.485 Q 1724.486 2783.481 1725.546 2783.340 Q 1726.606 2783.198 1727.973 2783.544 Q 1729.339 2783.890 1731.367 2785.799 Q 1733.395 2787.708 1734.869 2790.209 Q 1736.343 2792.710 1737.054 2802.489 Q 1737.018 2802.937 1737.129 2799.456 Q 1737.239 2795.975 1738.294 2792.532 Q 1739.349 2789.088 1740.156 2787.219 Q 1740.963 2785.350 1741.535 2784.785 Q 1742.106 2784.221 1742.169 2784.167 Q 1742.231 2784.114 1742.770 2783.700 Q 1743.309 2783.286 1743.323 2783.303 Q 1743.337 2783.320 1743.452 2783.289 Q 1743.567 2783.257 1743.245 2783.280 Q 1742.923 2783.304 1744.496 2782.831 Q 1746.069 2782.358 1746.758 2782.194 Q 1747.447 2782.030 1748.744 2781.891 Q 1750.042 2781.753 1750.685 2781.489 Q 1751.327 2781.225 1753.975 2781.273 Q 1756.622 2781.321 1759.750 2781.969 Q 1762.878 2782.617 1765.462 2782.553 Q 1768.045 2782.490 1769.703 2782.681 Q 1771.362 2782.872 1774.657 2782.932 Q 1777.952 2782.991 1780.146 2782.814 Q 1782.341 2782.637 1783.542 2782.192 Q 1784.742 2781.747 1785.110 2781.329 Q 1785.477 2780.911 1785.569 2780.698 Q 1785.660 2780.486 1785.690 2780.276 Q 1785.721 2780.065 1785.768 2779.731 Q 1785.816 2779.397 1785.719 2779.525 Q 1785.622 2779.652 1785.894 2778.898 Q 1786.165 2778.144 1785.676 2777.179 Q 1785.186 2776.214 1784.644 2775.782 Q 1784.102 2775.350 1783.555 2775.220 Q 1783.008 2775.089 1783.052 2775.094 Q 1783.096 2775.098 1783.034 2775.211 Q 1782.973 2775.324 1782.806 2775.489 "></path>
    <path id="STROKE_feb62ef1-4214-4c7c-aa73-6cc9d351c045" opacity="1.000" fill="none" stroke="#ff9adf" stroke-width="3.400" stroke-opacity="1.000" stroke-linecap="round" stroke-linejoin="round" d="M 1736.992 2811.192 Q 1736.992 2811.192 1737.355 2811.234 Q 1737.718 2811.276 1738.055 2830.551 Q 1738.223 2830.653 1738.352 2830.024 Q 1738.482 2829.395 1738.576 2829.098 "></path>
    <path id="STROKE_4f23061e-97c6-4c96-93ab-7f7ac2259df8" opacity="1.000" fill="none" stroke="#ff9adf" stroke-width="3.400" stroke-opacity="1.000" stroke-linecap="round" stroke-linejoin="round" d="M 1738.242 2810.848 Q 1738.621 2810.183 1738.545 2810.223 Q 1738.885 2809.279 1740.870 2808.866 Q 1742.856 2808.453 1744.747 2809.857 Q 1746.639 2811.260 1747.803 2813.172 Q 1748.967 2815.084 1749.307 2816.970 Q 1749.647 2818.856 1748.438 2819.721 Q 1747.229 2820.586 1746.294 2820.607 Q 1745.359 2820.628 1744.164 2820.879 Q 1742.969 2821.131 1740.243 2819.207 Q 1739.732 2818.913 1743.307 2820.424 Q 1746.881 2821.935 1752.812 2827.574 Q 1752.781 2827.676 1752.552 2827.891 Q 1752.322 2828.106 1752.083 2828.301 "></path>
    <path id="STROKE_0b8162b5-3386-4a0a-a6c2-09615cd35e47" opacity="1.000" fill="none" stroke="#71c047" stroke-width="3.400" stroke-opacity="1.000" stroke-linecap="round" stroke-linejoin="round" d="M 1629.522 2595.369 Q 1629.455 2595.545 1629.559 2594.892 Q 1629.662 2594.239 1628.642 2593.545 Q 1627.621 2592.852 1626.855 2592.707 Q 1626.088 2592.562 1624.665 2592.345 Q 1623.242 2592.128 1621.139 2593.330 Q 1619.037 2594.531 1616.922 2597.124 Q 1614.808 2599.718 1613.288 2602.481 Q 1611.768 2605.245 1610.748 2607.886 Q 1609.729 2610.527 1609.951 2612.273 Q 1610.172 2614.020 1613.605 2617.327 Q 1617.038 2620.635 1619.088 2622.504 Q 1621.138 2624.373 1622.818 2626.900 Q 1624.498 2629.427 1625.411 2631.518 Q 1626.324 2633.609 1626.802 2636.471 Q 1627.280 2639.333 1625.760 2642.053 Q 1624.240 2644.773 1622.960 2646.286 Q 1621.681 2647.799 1620.893 2648.573 Q 1620.105 2649.348 1618.869 2649.848 Q 1617.633 2650.349 1616.080 2649.572 Q 1614.528 2648.795 1613.524 2647.896 Q 1612.520 2646.997 1612.494 2645.750 Q 1612.624 2645.698 1612.928 2645.584 Q 1613.233 2645.470 1613.459 2645.333 "></path>
    <path id="STROKE_1e957c0e-8085-4e77-b46c-7735a0490a35" opacity="1.000" fill="none" stroke="#71c047" stroke-width="3.400" stroke-opacity="1.000" stroke-linecap="round" stroke-linejoin="round" d="M 1741.738 2675.998 Q 1741.738 2675.998 1741.725 2675.998 Q 1741.712 2675.998 1741.408 2675.776 Q 1741.714 2675.326 1743.723 2676.051 Q 1745.733 2676.775 1748.112 2678.292 Q 1750.492 2679.810 1752.321 2680.937 Q 1754.149 2682.063 1755.263 2683.038 Q 1756.377 2684.012 1756.960 2684.480 Q 1757.543 2684.949 1757.839 2685.198 Q 1758.136 2685.448 1757.985 2685.331 Q 1757.834 2685.214 1758.535 2685.729 Q 1759.236 2686.243 1760.480 2687.217 Q 1761.723 2688.191 1762.238 2688.663 Q 1762.752 2689.135 1763.856 2690.057 Q 1764.961 2690.978 1765.609 2691.547 Q 1766.257 2692.117 1766.561 2692.371 Q 1766.865 2692.625 1767.072 2692.727 Q 1767.279 2692.829 1768.365 2693.795 Q 1769.452 2694.761 1770.702 2695.974 Q 1771.952 2697.186 1772.979 2698.186 Q 1774.005 2699.185 1774.622 2699.791 Q 1775.239 2700.397 1775.674 2700.772 Q 1776.108 2701.148 1776.111 2701.160 Q 1776.113 2701.171 1776.051 2701.100 Q 1775.989 2701.029 1776.543 2701.633 Q 1777.097 2702.237 1777.089 2702.250 Q 1777.829 2703.213 1779.489 2705.127 Q 1781.149 2707.041 1781.992 2707.991 Q 1782.835 2708.941 1783.206 2709.335 Q 1783.577 2709.729 1783.801 2709.990 Q 1784.026 2710.252 1784.062 2710.311 Q 1784.097 2710.370 1784.549 2710.753 Q 1785.000 2711.137 1786.303 2713.078 Q 1787.606 2715.020 1789.114 2718.409 Q 1790.623 2721.798 1791.391 2723.392 Q 1792.159 2724.985 1792.520 2725.798 Q 1792.881 2726.610 1793.080 2727.133 Q 1793.279 2727.656 1793.879 2729.147 Q 1794.479 2730.638 1795.833 2734.401 Q 1797.187 2738.165 1797.845 2740.396 Q 1798.503 2742.628 1798.710 2743.435 Q 1798.917 2744.242 1799.184 2745.357 Q 1799.451 2746.473 1800.015 2747.857 Q 1800.578 2749.240 1800.852 2750.008 Q 1801.125 2750.775 1801.153 2750.949 Q 1801.180 2751.123 1801.140 2751.027 Q 1801.100 2750.931 1801.413 2751.982 Q 1801.725 2753.033 1802.106 2755.810 Q 1802.488 2758.586 1802.576 2760.026 Q 1802.665 2761.466 1802.658 2761.937 Q 1802.651 2762.407 1802.653 2762.590 Q 1802.654 2762.772 1802.653 2763.026 Q 1802.653 2763.280 1802.653 2763.548 Q 1802.653 2763.815 1802.653 2763.794 Q 1802.653 2764.592 1802.653 2764.648 Q 1802.653 2764.705 1802.653 2764.589 Q 1802.653 2764.673 1802.653 2765.305 Q 1802.627 2765.305 1802.271 2765.305 Q 1802.271 2765.279 1802.245 2765.032 Q 1802.219 2764.784 1802.166 2764.589 "></path>
    <path id="STROKE_a3f3067a-544f-4e64-a267-76059057a103" opacity="1.000" fill="none" stroke="#71c047" stroke-width="3.400" stroke-opacity="1.000" stroke-linecap="round" stroke-linejoin="round" d="M 1749.526 2671.397 Q 1749.704 2671.316 1749.488 2670.810 Q 1749.271 2670.303 1750.286 2668.781 Q 1751.300 2667.258 1753.299 2665.723 Q 1755.299 2664.188 1756.571 2663.455 Q 1757.843 2662.721 1760.172 2662.284 Q 1762.501 2661.846 1763.417 2661.970 Q 1764.334 2662.094 1766.834 2662.492 Q 1769.335 2662.890 1770.688 2663.089 Q 1772.042 2663.289 1772.677 2663.540 Q 1773.312 2663.790 1774.521 2665.242 Q 1775.731 2666.693 1777.181 2670.261 Q 1778.632 2673.829 1778.886 2676.056 Q 1779.140 2678.283 1782.362 2681.324 Q 1785.584 2684.364 1787.418 2685.817 Q 1789.252 2687.271 1790.500 2688.117 Q 1791.747 2688.964 1791.822 2689.029 Q 1791.897 2689.094 1793.357 2689.960 Q 1794.817 2690.826 1797.865 2692.241 Q 1800.913 2693.656 1803.256 2694.312 Q 1805.600 2694.966 1807.296 2695.043 Q 1808.992 2695.120 1810.599 2694.204 Q 1812.206 2693.288 1813.497 2692.764 Q 1814.789 2692.240 1816.074 2692.209 Q 1814.415 2692.354 1814.575 2692.348 Q 1814.735 2692.343 1814.603 2692.358 Q 1814.471 2692.373 1813.942 2692.492 Q 1813.414 2692.610 1813.226 2692.687 Q 1813.039 2692.763 1812.523 2693.023 Q 1812.008 2693.283 1810.970 2693.730 Q 1809.933 2694.177 1808.625 2695.726 Q 1807.317 2697.275 1806.657 2698.362 Q 1805.998 2699.448 1805.755 2700.604 Q 1805.513 2701.760 1805.539 2702.946 Q 1805.565 2704.133 1806.004 2705.087 Q 1806.443 2706.041 1806.842 2706.521 Q 1807.241 2707.002 1808.116 2709.429 Q 1808.991 2711.857 1809.395 2713.036 Q 1809.799 2714.215 1810.704 2717.229 Q 1811.609 2720.243 1813.284 2724.411 Q 1814.959 2728.579 1817.039 2732.069 Q 1819.118 2735.560 1821.265 2738.487 Q 1823.411 2741.414 1824.612 2744.077 Q 1825.812 2746.739 1826.609 2748.229 Q 1827.406 2749.718 1828.360 2752.406 Q 1829.314 2755.095 1829.799 2756.584 Q 1830.285 2758.074 1829.964 2760.744 Q 1828.612 2760.919 1825.138 2761.866 Q 1821.665 2762.812 1815.865 2762.321 Q 1815.865 2762.295 1815.865 2762.217 Q 1815.840 2762.268 1816.361 2762.200 Q 1816.882 2762.132 1817.134 2762.047 "></path>
    <path id="STROKE_6995e77e-4239-49c0-bfdc-2ac6675d5de5" opacity="1.000" fill="none" stroke="#71c047" stroke-width="3.400" stroke-opacity="1.000" stroke-linecap="round" stroke-linejoin="round" d="M 1838.604 2664.816 Q 1838.105 2664.295 1837.312 2663.567 Q 1836.519 2662.840 1835.244 2662.765 Q 1833.969 2662.689 1832.698 2663.178 Q 1831.427 2663.667 1829.756 2665.303 Q 1828.085 2666.940 1827.375 2668.931 Q 1826.665 2670.922 1826.480 2672.869 Q 1826.296 2674.815 1829.306 2678.105 Q 1832.315 2681.395 1834.400 2682.949 Q 1836.486 2684.502 1837.710 2686.852 Q 1838.934 2689.200 1839.337 2691.848 Q 1839.740 2694.496 1839.784 2696.072 Q 1839.829 2697.648 1839.509 2698.505 Q 1839.190 2699.362 1837.576 2700.108 Q 1835.962 2700.854 1833.854 2701.191 Q 1831.746 2701.528 1830.266 2701.116 Q 1828.786 2700.705 1828.143 2700.201 Q 1827.499 2699.697 1827.476 2699.613 Q 1827.453 2699.529 1827.505 2698.963 Q 1827.557 2698.397 1827.551 2698.459 Q 1827.545 2698.521 1827.526 2698.506 Q 1827.507 2698.491 1828.122 2697.961 Q 1828.737 2697.432 1829.902 2698.026 Q 1831.068 2698.621 1831.320 2698.843 "></path>
  </g>
</svg>