<?xml version="1.0" encoding="UTF-8" standalone="yes"?>
<svg xmlns="http://www.w3.org/2000/svg" xmlns:xlink="http://www.w3.org/1999/xlink" width="949.436pt" height="618.242pt" version="1.1" viewBox="2152.398 -75.246 949.436 618.242">
  <!--
	Exported with Concepts: Smarter Sketching
	Version: 1059 on iOS 15.4
	https://concepts.app/
	-->
  <title>Untitled</title>
  <desc>Drawing exported from Concepts: Smarter Sketching</desc>
  <defs></defs>
  <g id="Custom" opacity="1.000">
    <path id="STROKE_6527533f-3c10-4737-b290-3a5e07249ebd" opacity="1.000" fill="none" stroke="#f3ba38" stroke-width="9.700" stroke-opacity="1.000" stroke-linecap="round" stroke-linejoin="round" d="M 2246.105 440.461 Q 2245.833 440.805 2239.926 439.180 Q 2240.535 439.999 2263.716 439.866 Q 2286.896 439.732 2302.635 439.672 Q 2318.374 439.613 2331.769 439.920 Q 2345.164 440.227 2352.235 439.543 Q 2359.306 438.860 2372.136 436.663 Q 2384.966 434.466 2401.408 433.210 Q 2417.850 431.954 2425.692 430.867 Q 2433.534 429.780 2457.664 425.833 Q 2481.793 421.887 2493.890 419.640 Q 2505.987 417.394 2528.911 416.781 Q 2551.834 416.168 2567.923 414.964 Q 2584.012 413.760 2593.483 412.776 Q 2602.955 411.792 2632.854 409.275 Q 2662.752 406.759 2681.010 405.372 Q 2699.268 403.985 2709.661 404.030 Q 2720.054 404.074 2734.130 404.026 Q 2748.207 403.978 2756.508 405.653 Q 2764.809 407.328 2796.862 409.199 Q 2828.916 411.070 2846.808 411.554 Q 2864.700 412.039 2872.068 411.913 Q 2879.436 411.787 2894.574 411.784 Q 2909.712 411.782 2929.544 413.724 Q 2949.376 415.665 2990.812 412.327 Q 2990.704 412.367 2989.678 412.263 Q 2988.652 412.158 2988.099 411.989 "></path>
    <path id="STROKE_54034a6d-999c-4021-9ee7-cf95e6619d57" opacity="1.000" fill="none" stroke="#f3ba38" stroke-width="9.700" stroke-opacity="1.000" stroke-linecap="round" stroke-linejoin="round" d="M 2991.917 407.055 Q 2991.917 407.441 2991.917 412.629 Q 2993.367 409.971 2993.050 410.529 Q 2992.733 411.088 2992.956 410.419 Q 2993.178 409.750 2993.478 409.921 Q 2993.778 410.092 2996.187 404.565 Q 2998.596 399.038 2998.856 387.564 Q 2999.116 376.089 2998.567 362.436 Q 2998.017 348.783 2996.546 328.213 Q 2995.074 307.642 2994.671 295.432 Q 2994.269 283.222 2994.359 257.824 Q 2994.449 232.426 2994.171 219.818 Q 2993.893 207.210 2994.758 199.110 Q 2995.624 191.010 2997.297 184.461 Q 2998.970 177.912 3000.465 154.459 Q 3001.959 131.007 3002.381 117.111 Q 3002.803 103.215 3002.244 96.848 Q 3001.686 90.482 3001.076 79.682 Q 3000.467 68.883 2999.227 61.021 Q 2997.986 53.160 2996.902 47.521 Q 2995.819 41.881 2996.151 38.547 Q 2996.482 35.213 2995.874 26.075 Q 2995.266 16.937 2995.023 5.827 Q 2994.780 -5.282 2993.753 -21.708 Q 2992.727 -38.135 2993.073 -52.755 Q 2994.078 -52.650 2995.032 -50.057 Q 2995.986 -47.464 2996.388 -46.654 "></path>
    <path id="STROKE_3b04dee3-0e55-459e-951d-894031154d23" opacity="1.000" fill="none" stroke="#f3ba38" stroke-width="9.700" stroke-opacity="1.000" stroke-linecap="round" stroke-linejoin="round" d="M 2989.857 -58.028 Q 2989.471 -57.739 2991.164 -58.593 Q 2991.249 -59.021 2991.314 -59.459 Q 2990.847 -61.325 2975.864 -52.881 Q 2960.881 -44.436 2948.895 -35.714 Q 2936.908 -26.992 2928.715 -20.272 Q 2920.523 -13.552 2915.976 -10.170 Q 2911.429 -6.787 2908.700 -3.985 Q 2905.970 -1.182 2903.217 3.407 Q 2900.464 7.996 2893.246 12.096 Q 2886.028 16.196 2876.178 22.535 Q 2866.328 28.874 2854.857 35.141 Q 2843.386 41.408 2836.134 45.164 Q 2828.882 48.920 2824.681 52.913 Q 2820.480 56.906 2814.606 60.577 Q 2808.732 64.248 2804.318 65.971 Q 2799.905 67.694 2792.542 72.274 Q 2785.180 76.854 2775.989 81.715 Q 2766.797 86.576 2759.371 88.797 Q 2751.946 91.017 2735.239 100.552 Q 2718.532 110.087 2695.782 122.183 Q 2673.033 134.280 2661.159 140.401 Q 2649.286 146.521 2643.822 149.458 Q 2638.358 152.395 2628.463 157.936 Q 2618.568 163.478 2603.244 171.151 Q 2587.921 178.825 2566.893 190.846 Q 2545.864 202.867 2531.666 210.319 Q 2517.468 217.771 2508.892 222.440 Q 2500.317 227.110 2493.759 230.332 Q 2487.201 233.554 2468.769 244.592 Q 2450.337 255.630 2439.118 262.237 Q 2427.899 268.844 2420.159 274.061 Q 2412.419 279.279 2403.476 285.606 Q 2394.533 291.932 2380.660 300.450 Q 2366.787 308.967 2360.303 313.118 Q 2353.820 317.269 2340.458 325.884 Q 2327.095 334.499 2319.141 339.745 Q 2311.187 344.992 2307.363 347.558 Q 2303.540 350.125 2300.206 351.854 Q 2296.873 353.582 2288.128 358.280 Q 2279.383 362.977 2272.207 369.229 Q 2265.030 375.482 2251.850 384.182 Q 2238.670 392.882 2231.822 397.108 Q 2224.974 401.335 2221.950 403.407 Q 2218.927 405.480 2217.065 406.757 Q 2215.204 408.034 2213.261 409.275 Q 2211.318 410.515 2204.447 414.859 Q 2197.577 419.203 2192.506 422.224 Q 2187.435 425.245 2168.234 437.109 Q 2168.851 435.023 2169.539 434.876 Q 2170.226 434.729 2171.905 433.838 Q 2173.584 432.947 2174.313 432.476 "></path>
    <path id="STROKE_2e9d7bc7-2ec2-4798-a1cb-90144fdb2b76" opacity="1.000" fill="none" stroke="#f3ba38" stroke-width="9.700" stroke-opacity="1.000" stroke-linecap="round" stroke-linejoin="round" d="M 2243.392 437.900 Q 2243.393 437.900 2244.047 436.890 Q 2244.701 435.880 2244.372 436.619 Q 2247.514 436.453 2255.048 437.598 L 2255.048 437.824 Q 2255.529 438.102 2246.486 440.314 Q 2237.443 442.526 2220.294 440.601 Q 2203.145 438.676 2169.339 439.030 Q 2170.903 440.206 2170.645 439.820 Q 2170.947 439.820 2172.052 440.159 Q 2172.052 440.235 2172.253 441.073 Q 2172.454 441.911 2172.856 442.381 "></path>
    <path id="STROKE_d9001359-a25f-488f-bed3-530cd06a550e" opacity="1.000" fill="none" stroke="#6ac0c8" stroke-width="6.000" stroke-opacity="1.000" stroke-linecap="round" stroke-linejoin="round" d="M 2285.393 370.109 Q 2284.591 369.893 2287.001 363.217 Q 2289.561 363.266 2289.161 363.462 Q 2289.027 362.854 2294.259 368.260 Q 2299.490 373.667 2303.342 379.137 Q 2307.194 384.606 2309.089 395.130 Q 2310.983 405.654 2310.312 430.556 Q 2310.617 430.474 2311.369 428.999 Q 2312.121 427.524 2312.673 426.714 "></path>
    <path id="STROKE_2e45a3bb-82bd-425d-a60e-efc564b929ab" opacity="1.000" fill="none" stroke="#6ac0c8" stroke-width="6.000" stroke-opacity="1.000" stroke-linecap="round" stroke-linejoin="round" d="M 2389.792 356.814 Q 2391.254 355.020 2391.048 354.988 Q 2392.353 353.130 2391.374 349.960 Q 2391.235 348.880 2389.040 349.510 Q 2386.844 350.139 2383.863 351.451 Q 2380.882 352.763 2375.543 359.093 Q 2370.203 365.423 2366.675 371.821 Q 2363.147 378.219 2361.907 383.847 Q 2360.667 389.474 2360.975 393.781 Q 2361.283 398.089 2363.348 400.807 Q 2365.412 403.524 2372.232 404.817 Q 2379.051 406.109 2387.891 402.301 Q 2396.730 398.492 2402.469 394.443 Q 2408.207 390.394 2412.686 386.582 Q 2417.165 382.771 2419.348 379.128 Q 2421.532 375.485 2421.430 372.842 Q 2421.328 370.199 2420.812 368.266 Q 2420.297 366.333 2418.516 365.091 Q 2416.736 363.850 2415.405 362.538 Q 2414.073 361.226 2407.622 358.378 Q 2401.171 355.529 2391.574 354.449 Q 2381.978 353.368 2367.083 358.283 Q 2367.410 358.358 2367.736 358.434 "></path>
    <path id="STROKE_2b440bf3-2592-4dc6-b5e4-bc458023f9f6" opacity="1.000" fill="none" stroke="#6ac0c8" stroke-width="6.000" stroke-opacity="1.000" stroke-linecap="round" stroke-linejoin="round" d="M 2331.212 380.503 Q 2332.074 380.083 2337.889 378.076 Q 2343.704 376.070 2368.012 374.095 Q 2392.319 372.120 2407.168 369.933 Q 2422.018 367.746 2431.261 366.725 Q 2440.503 365.705 2450.733 364.836 Q 2450.657 364.761 2450.419 364.478 Q 2450.180 364.196 2449.778 363.706 "></path>
    <path id="STROKE_acfb6f45-f9d9-4889-9c49-4ed5f9574d4f" opacity="1.000" fill="none" stroke="#6ac0c8" stroke-width="6.000" stroke-opacity="1.000" stroke-linecap="round" stroke-linejoin="round" d="M 2640.281 468.019 Q 2640.817 469.025 2640.318 466.509 Q 2639.820 463.993 2639.163 463.135 Q 2638.506 462.277 2638.693 462.735 Q 2638.880 463.193 2637.668 461.777 Q 2636.457 460.360 2632.739 463.160 Q 2629.021 465.959 2627.635 468.526 Q 2626.250 471.092 2622.447 477.965 Q 2618.644 484.839 2615.950 494.557 Q 2613.256 504.276 2613.114 510.815 Q 2612.972 517.353 2612.910 520.423 Q 2612.848 523.493 2614.439 525.191 Q 2616.030 526.890 2619.795 526.832 Q 2623.560 526.773 2627.900 524.400 Q 2632.240 522.026 2639.532 513.617 Q 2646.825 505.209 2652.583 494.293 Q 2658.342 483.378 2660.584 473.881 Q 2662.827 464.384 2662.441 455.980 Q 2658.275 453.341 2655.428 462.912 Q 2652.581 472.483 2651.567 478.132 Q 2650.553 483.781 2649.979 489.055 Q 2649.404 494.329 2649.647 497.864 Q 2649.890 501.398 2650.464 503.440 Q 2651.039 505.481 2652.907 507.519 Q 2654.775 509.557 2658.197 511.576 Q 2661.618 513.595 2668.259 514.120 Q 2674.900 514.645 2681.699 513.597 Q 2688.497 512.550 2694.046 508.344 Q 2699.595 504.137 2700.527 503.119 "></path>
    <path id="STROKE_323b3e16-c600-42e2-b8a7-8b631b8c691e" opacity="1.000" fill="none" stroke="#6ac0c8" stroke-width="6.000" stroke-opacity="1.000" stroke-linecap="round" stroke-linejoin="round" d="M 3048.740 131.956 Q 3045.792 130.280 3046.823 130.758 Q 3046.636 130.498 3046.396 129.719 Q 3048.843 131.101 3047.169 211.819 Q 3047.240 213.831 3053.674 201.673 Q 3060.107 189.515 3063.872 182.155 Q 3067.636 174.795 3070.188 171.087 Q 3072.740 167.379 3074.195 166.923 Q 3075.649 166.468 3076.837 167.359 Q 3078.025 168.250 3080.989 177.396 Q 3083.953 186.542 3084.757 195.484 Q 3085.562 204.427 3085.628 209.586 Q 3085.694 214.745 3084.235 218.671 Q 3082.776 222.598 3079.134 225.029 Q 3075.492 227.461 3070.849 228.450 Q 3066.206 229.439 3062.841 228.891 Q 3059.476 228.343 3055.639 221.508 Q 3051.803 214.674 3051.297 213.655 "></path>
    <path id="STROKE_abe4da37-2de3-4b9d-a35f-f5a61f511168" opacity="1.000" fill="none" stroke="#6ac0c8" stroke-width="6.000" stroke-opacity="1.000" stroke-linecap="round" stroke-linejoin="round" d="M 2563.167 -10.317 Q 2563.573 -10.256 2557.126 -10.407 Q 2550.678 -10.557 2545.412 -8.711 Q 2540.146 -6.865 2533.401 -2.137 Q 2526.657 2.592 2521.035 13.911 Q 2515.414 25.231 2513.462 36.455 Q 2511.510 47.680 2511.454 54.008 Q 2511.398 60.337 2511.385 66.864 Q 2511.371 73.390 2513.421 77.526 Q 2515.472 81.662 2517.818 84.387 Q 2520.165 87.112 2527.965 88.058 Q 2535.765 89.005 2546.282 87.600 Q 2556.799 86.195 2564.103 85.719 Q 2571.406 85.243 2574.427 85.133 Q 2577.449 85.023 2580.304 84.888 Q 2583.158 84.752 2585.434 84.894 Q 2587.709 85.036 2588.297 85.221 "></path>
  </g>
</svg>